<?xml version="1.0" encoding="UTF-8"?>
<svg id="Layer_1" data-name="Layer 1" xmlns="http://www.w3.org/2000/svg" viewBox="0 0 256 256">
  <defs>
    <style>
      .cls-1 {
        fill: #fff;
      }

      .cls-2 {
        opacity: .3;
      }

      .cls-3 {
        fill: #435054;
      }
    </style>
  </defs>
  <g>
    <path class="cls-1" d="M57.35,115.25c-1.05-17.33.21-27.51,5.35-41.4,3.75-10.13,14.34-20.11,23.09-25.22,26.15-15.27,44.43-16.65,73.19-7.67,15.29,4.77,25.38,17.65,25.38,17.65,5.92,4.99,11.93,23.19,12.06,24.14,1.51,11.27,1.64,16.68,1.34,24.72-.36,9.82-1.37,22.1-1.37,22.1-1.84,13.08,3,19.1.88,32.18-4.9,30.32-8.5,31.52-15.9,39.23-8.6,8.96-17.52,12.83-27.57,17.26-2.21.97-7.97,7.29-29.8,6.86-15.59-.31-26.94-8.65-37.74-13.8-4.14-1.98-16.22-13.73-16.22-13.73-5.79-7.15-8.94-19.41-10-28.94-1.27-11.41,1.9-23.33.63-34.74,0,0-3.26-17.74-3.31-18.62Z"/>
    <path d="M58.85,115.25c-.65-10.87-.45-21.69,2.45-32.25,1.42-5.17,3.09-10.35,6-14.89,3.06-4.78,7.05-8.97,11.39-12.61s9.14-6.44,14.12-9.04,10.04-4.83,15.36-6.5c9.62-3.01,19.63-3.74,29.61-2.42,5.58.73,11.08,2.03,16.49,3.57s10.51,3.45,15.3,6.48c3.58,2.27,6.89,4.95,9.91,7.92,1.35,1.32,2.53,2.78,3.82,4.15.98,1.04,1.93,2,2.74,3.2,1.13,1.68,2.11,3.46,3.01,5.27,1.74,3.47,3.21,7.07,4.53,10.72.42,1.15.82,2.31,1.18,3.48.48,1.6.55,3.32.74,4.97.56,4.84.92,9.7.9,14.57-.03,9.08-.64,18.23-1.46,27.27-.18,2.01-.44,4-.46,6.03-.02,2.61.22,5.2.57,7.79.69,5.08,1.56,10.07,1.16,15.22-.45,5.78-1.75,11.63-3.01,17.29-.81,3.65-1.73,7.3-3.04,10.81-1.61,4.31-3.86,7.53-6.96,10.7-2.58,2.65-5.14,5.33-8,7.68-4.25,3.48-9.05,6.21-14,8.58-2.44,1.17-4.92,2.26-7.39,3.35-.68.3-1.28.61-1.9,1.01-1.54.99-3.18,1.95-4.83,2.65-3.27,1.39-6.8,2.19-10.31,2.68-5.56.79-11.43,1-17.02.35-10.61-1.23-19.78-6.63-29.06-11.47-1.64-.85-3.38-1.56-4.93-2.58-1.35-.88-2.6-1.91-3.84-2.94-2.87-2.39-5.62-4.91-8.33-7.47-.75-.71-1.53-1.41-2.25-2.15-1.06-1.09-1.87-2.5-2.63-3.81-2.66-4.65-4.33-9.83-5.54-15.03-1.32-5.65-2.03-11.37-1.88-17.18.17-6.62,1.12-13.19,1.21-19.81s-1.38-12.97-2.55-19.47c-.26-1.44-.51-2.88-.76-4.32-.08-.47-.16-.95-.24-1.42-.03-.16-.05-.31-.07-.47-.05-.34.04.41.01.07-.15-1.91-3.15-1.93-3,0,.19,2.32.76,4.66,1.17,6.95.59,3.29,1.19,6.58,1.79,9.86,1.9,10.38-.71,20.99-.58,31.43.07,5.74,1.04,11.53,2.48,17.08s3.26,10.6,6.21,15.22c1.47,2.3,3.19,3.95,5.16,5.79,2.83,2.65,5.7,5.27,8.72,7.71,1.24,1,2.51,2.02,3.88,2.85,1.82,1.1,3.83,1.94,5.71,2.93,4.65,2.46,9.24,5.01,14.09,7.06,5.28,2.23,10.78,3.8,16.5,4.29,5.68.49,11.56.19,17.2-.68,5.54-.86,10.64-2.63,15.36-5.64.79-.51,1.63-.86,2.49-1.24,2.64-1.17,5.29-2.34,7.88-3.63,5.07-2.5,9.88-5.47,14.19-9.13,2.68-2.28,5.11-4.84,7.55-7.37,1.47-1.52,2.87-3.12,4.04-4.89,3.65-5.48,5.24-12.25,6.6-18.59,1.26-5.86,2.61-11.92,2.95-17.92.3-5.23-.71-10.31-1.36-15.48-.35-2.76-.52-5.55-.38-8.33.08-1.64.32-3.25.45-4.89.35-4.46.66-8.93.92-13.39.3-5.19.58-10.39.49-15.59s-.64-10.66-1.33-15.96c-.33-2.52-1.27-4.88-2.17-7.25-1.49-3.95-3.14-7.87-5.14-11.59-2.59-4.8-6.42-8.99-10.4-12.7-3.39-3.15-7.11-5.99-11.12-8.31-5.1-2.95-10.6-4.71-16.26-6.24-10.47-2.83-21.39-4.55-32.24-3.36s-21.15,5.16-30.76,10.31c-10.16,5.45-19.55,12.73-25.66,22.69-2.86,4.67-4.55,10.03-5.97,15.29-1.34,4.98-2.19,10.08-2.56,15.23-.42,5.81-.25,11.65.1,17.47.11,1.92,3.12,1.93,3,0Z"/>
  </g>
  <g class="cls-2">
    <path class="cls-3" d="M147.51,44.19c6.23,1.99,12.73,3.82,18.43,7.09,4.39,2.52,7.83,6.11,11.06,9.95,5.36,6.38,9.34,12.92,11.94,20.89,1.17,3.6,1.04,7.33,1.28,11.06.27,4.13.54,8.24.52,12.38-.04,8.98-1.97,17.72-2.32,26.63s2.29,17.87,2.11,26.92c-.34,17.24-7.58,35.5-22.95,44.48-6.58,3.84-13.74,6.57-20.45,10.18-5.18,2.79-9.89,5.16-15.9,5.5-12.36.68-23.21-4.64-34.04-9.8-12.9-6.15-24.17-15.76-28.76-29.69-2.2-6.66-2.79-13.68-2.24-20.65.68-8.66,2.57-17.08,1.3-25.81-.57-3.96-2.27-7.53-2.95-11.44-.6-3.45-.72-7.04-.81-10.54-.22-8.7.39-18.03,2.54-26.45,2.65-10.39,7.37-18.66,16.02-25.08,7.95-5.91,16.1-10.73,25.2-14.69,3.53-1.54.48-6.71-3.03-5.18-16.15,7.04-33.91,17.15-40.93,34.16-3.86,9.34-4.78,19.03-5.59,29-.53,6.56-.32,13.38.74,19.88.58,3.53,2.14,6.74,2.76,10.26.96,5.39.53,11-.1,16.4-.99,8.47-1.93,16.54-.4,25.02,2.62,14.6,11.69,26.74,23.93,34.83,10.73,7.09,23.72,12.98,36.4,15.33,15.63,2.9,27.38-5.35,40.81-11.68,7.05-3.33,13.97-7.04,19.31-12.86,5.97-6.5,10.01-14.87,12.44-23.29,2.67-9.24,3.29-18.96,2.03-28.48-.67-5.11-1.56-10.2-1.47-15.38s1.32-10.82,1.79-16.23c.88-10.25.63-20.7-.36-30.93-.85-8.73-5.62-17.72-10.97-24.49-4.13-5.23-8.38-10.47-14-14.19-6.51-4.31-14.39-6.52-21.76-8.86-3.69-1.18-5.27,4.62-1.6,5.79h0Z"/>
  </g>
</svg>