<?xml version="1.0" encoding="UTF-8"?>
<svg id="head_2" data-name="head 2" xmlns="http://www.w3.org/2000/svg" viewBox="0 0 256 256">
  <defs>
    <style>
      .cls-1 {
        fill: #fff;
      }

      .cls-2 {
        opacity: .3;
      }

      .cls-3 {
        fill: #435054;
      }
    </style>
  </defs>
  <g>
    <path class="cls-1" d="M65.86,128.36c-.38-13.65-5.11-38.78-1.36-53.32,2.74-10.63,11.97-23.75,19.89-29.01,23.69-15.72,48.47-15.11,74.53-5.87,13.85,4.91,25.05,18.18,25.05,18.18,5.36,5.13,9.77,21.87,9.9,22.84,1.66,13.18-3.1,46.16-3.1,46.16-.3,16.64-1.36,38.17-7.27,51.25-2.04,4.52-13.88,21.53-13.88,21.53-8.06,9.48-14.48,15.98-23.6,20.54-2,1-2.92,4.87-22.7,4.43-14.13-.32-18.76-8.97-28.88-17.58-8.5-7.22-20.83-22.91-24.36-34.14-3.54-11.28-3.77-29.29-4.21-45.01Z"/>
    <path d="M67.36,128.36c-.27-9.12-1.63-18.19-2.3-27.28s-1.36-18.86,1.47-27.64c1.53-4.75,3.94-9.21,6.71-13.34s5.94-7.98,9.73-11.14c4.07-3.4,9.09-5.96,13.92-8.08,5.1-2.24,10.49-3.84,15.98-4.77,10.8-1.85,21.9-.94,32.52,1.59,5.49,1.3,11.17,2.83,16.29,5.21,4.28,1.99,8.27,4.63,11.93,7.6,2.72,2.21,5.3,4.6,7.71,7.14,1.23,1.31,2.52,2.63,3.5,4.14,2.09,3.23,3.54,6.88,4.82,10.49.98,2.78,1.89,5.6,2.6,8.46.06.25.13.51.18.77-.06-.31.03.3.05.49.04.36.07.72.09,1.08.12,1.64.16,3.28.17,4.93,0,3.91-.19,7.82-.47,11.72-.51,7.3-1.3,14.59-2.22,21.85-.25,1.95-.42,3.22-.67,5.04-.16,1.11-.13,2.24-.15,3.36-.06,2.63-.14,5.27-.25,7.9-.45,10.54-1.25,21.24-3.89,31.48-.93,3.58-2.05,7.19-3.89,10.42-1.62,2.83-3.41,5.57-5.21,8.29-3.15,4.78-6.2,9.65-9.97,13.95-3.51,4-7.17,7.89-11.3,11.25-1.93,1.57-3.97,2.99-6.1,4.26-1.25.74-2.64,1.3-3.82,2.13-.24.17-.47.36-.71.55-.09.07-.18.15-.27.22-.29.23.28-.19-.1.07-.53.38-1.08.72-1.66,1.01-.51.25-.43.21-1.03.43-.54.19-1.09.35-1.64.5-1.48.38-3,.63-4.52.79-2.33.25-4.67.35-7.01.38-2.75.04-5.56.1-8.28-.34-4.33-.69-8.23-2.58-11.63-5.33s-6.62-6.23-9.97-9.31-6.61-5.92-9.61-9.26c-3.38-3.77-6.51-7.77-9.34-11.98-2.56-3.82-4.99-7.84-6.68-12.13s-2.54-8.94-3.14-13.51c-.72-5.5-1.06-11.05-1.31-16.59s-.37-11.21-.53-16.81c-.05-1.93-3.05-1.93-3,0,.32,11.66.41,23.4,2.04,34.97.65,4.59,1.55,9.19,3.34,13.48s4.37,8.72,7.11,12.74c2.92,4.28,6.14,8.37,9.62,12.22,3.14,3.47,6.65,6.44,10.06,9.63s6.52,6.56,10.18,9.38,7.71,4.72,12.23,5.42c5.17.8,10.71.59,15.9.04,2.85-.31,5.73-.77,8.36-1.97.64-.29,1.26-.64,1.83-1.05.3-.21.59-.44.87-.67.17-.14.72-.53.3-.24,1.13-.76,2.4-1.3,3.57-1.99,2.15-1.26,4.19-2.69,6.15-4.22,4.31-3.38,8.12-7.35,11.74-11.45,1.81-2.05,3.44-4.06,4.97-6.29,3.83-5.58,7.76-11.17,11.11-17.05,1.91-3.34,3.12-7.07,4.1-10.78,1.37-5.18,2.2-10.5,2.82-15.81.65-5.59,1.03-11.2,1.27-16.82.15-3.5.01-7.25.32-10.61.51-5.54,1.44-11.06,2.01-16.6.82-7.95,1.55-15.98,1.42-23.98-.04-2.46-.11-4.95-.73-7.33-.85-3.24-1.88-6.43-3.06-9.56-1.39-3.68-2.94-7.49-5.31-10.67-1.09-1.46-2.41-2.82-3.68-4.13-6.11-6.34-13.32-12.04-21.48-15.45-5.41-2.26-11.22-3.86-16.94-5.13s-11.01-2-16.58-2.22c-11.33-.45-22.59,1.64-32.94,6.27-5.05,2.26-10.16,4.99-14.38,8.59-3.77,3.21-6.96,7.12-9.72,11.21-2.95,4.34-5.46,9.06-7.12,14.05-1.43,4.29-1.94,8.83-2.11,13.32-.39,10.07.8,20.15,1.78,30.16.41,4.18.83,8.37.95,12.57.06,1.93,3.06,1.93,3,0Z"/>
  </g>
  <g class="cls-2">
    <path class="cls-3" d="M137.67,224.62c2.84-.67,5.79-1.38,8.29-2.95,2.09-1.31,3.68-3.25,5.66-4.69,5.53-4.04,10.59-6.81,14.98-12.28,9.48-11.82,18.3-26,20.25-41.2.52-4.02,1.59-7.93,1.94-11.99.44-5.08.21-10.19.17-15.28-.02-4.1.03-8.08,1.01-12.08s2.06-7.86,2.62-11.94c2.12-15.39,2.68-33-4.74-47.14-9-17.16-29.27-25.28-46.59-31.14-5.5-1.86-7.86,6.83-2.39,8.68,14.02,4.74,30.69,10.93,39.33,23.8,8.18,12.18,7.51,29.27,5.73,43.22-.83,6.53-3.33,12.72-3.81,19.29-.62,8.61.67,17.33-.76,25.89-1.16,6.91-1.86,13.83-4.89,20.21s-6.63,12.53-10.63,18.35-8.2,10.54-14.33,14.31c-2.48,1.53-4.55,3.22-6.76,5.09s-4.58,2.47-7.49,3.16c-5.63,1.33-3.25,10.01,2.39,8.68h0Z"/>
    <path class="cls-3" d="M119.74,215.78c-6.78-.79-10.56-6.61-14.56-11.45-4.63-5.6-11.23-8.73-16.02-14.14-6.21-7.02-9.43-17.12-12.07-25.95s-2.51-16.4-1.93-25.34c.37-5.81.37-12.15-.73-17.89-1.39-7.32-3.31-14.14-3.54-21.68-.47-15.57,4.01-29.48,13.66-41.71,7.91-10.03,20.67-12.56,32.3-16.22,5.51-1.73,3.15-10.42-2.39-8.68-11.73,3.69-25.11,6.55-33.91,15.81-10.91,11.47-17.27,26.51-18.47,42.19s4.69,30.76,4.15,46.62c-.13,3.77-.87,7.47-.82,11.26.07,5.5,1.04,11,2.51,16.29,2.64,9.54,6.21,20.14,12.1,28.21,5.54,7.59,14.01,11.69,19.88,18.94,5.47,6.76,10.89,11.71,19.85,12.75,5.74.67,5.7-8.34,0-9h0Z"/>
  </g>
</svg>