<?xml version="1.0" encoding="UTF-8"?>
<svg id="head_3" data-name="head 3" xmlns="http://www.w3.org/2000/svg" viewBox="0 0 256 256">
  <defs>
    <style>
      .cls-1 {
        fill: #fff;
      }

      .cls-2 {
        opacity: .3;
      }

      .cls-3 {
        fill: #435054;
      }
    </style>
  </defs>
  <g>
    <path class="cls-1" d="M64.08,107.09c-1.21-9.98-3.2-24.77,1.67-38.55,3.55-10.05,4.32-18.2,14.96-23.96,25.5-13.81,58.9-13.65,86.11-4.75,14.46,4.73,15.15,11.26,18.41,16.19,4.98,7.54,6.66,18.41,8,28.22s-.62,33.72-.62,33.72c0,0,.05,8.34.06,11.98.02,3.87,1.51,17.15,1.14,21.15-.67,7.27-2.1,14.62-4.85,23.41-1.43,4.56-7.27,17.21-10.61,22.44s-16.49,19.02-16.49,19.02c-6.39,10.33-27.74,2.31-30.27,3.26-1.46.55-16.27,3.33-22.33,2.36-7.35-1.17-9.64-3.43-14.13-8.06l-14.97-19.95c-5.48-7.09-8.65-11.51-10.73-20.79-2.7-12.07-2.96-.58-3.6-30.06l.24-14.79s-1.39-15.97-1.98-20.83Z"/>
    <path d="M65.58,107.09c-.74-6.07-1.44-12.15-1.44-18.28,0-7.05,1-13.88,3.3-20.56,1.66-4.84,2.8-9.99,5.44-14.42,2.96-4.97,7.78-7.74,12.89-10.13,23.33-10.88,51.25-10.81,75.7-3.94,5.52,1.55,11.45,3.29,15.81,7.2,2.54,2.27,4,5.12,5.61,8.06,1.13,2.06,2.46,3.98,3.43,6.14,1.29,2.85,2.19,5.89,2.92,8.92,1.37,5.65,2.43,11.58,2.79,17.39.55,8.9-.04,17.91-.65,26.8-.39,5.67-.44,11.4-.17,17.07.23,4.65.73,9.29,1,13.94.29,4.92-.22,9.64-1.11,14.5-1.07,5.81-2.47,11.7-4.65,17.2-1.91,4.82-4.14,9.53-6.54,14.13-1.79,3.42-3.77,6.5-6.23,9.46-2.83,3.39-5.8,6.67-8.79,9.92-1.71,1.85-3.38,3.69-4.99,5.61-2.51,2.99-6.73,3.65-10.42,3.69-4.09.05-8.13-.65-12.14-1.39-2.24-.41-4.49-1.05-6.73-.46-3.71.97-7.63,1.48-11.43,1.9-4.79.53-9.49.78-14.13-.78-6.18-2.08-9.76-7.8-13.48-12.75s-7.03-9.47-10.63-14.15c-3.39-4.41-6.65-8.92-8.51-14.21-1.18-3.36-1.69-6.9-2.83-10.26-.36-1.06-.85-2.08-1.15-3.16-.08-.29-.15-.59-.2-.89-.03-.15-.05-.29-.08-.44-.02-.1-.03-.19-.04-.29-.04-.25.03.31-.02-.14-.14-1.22-.22-2.44-.29-3.67-.44-7.96-.51-15.93-.38-23.9.04-2.44.21-4.91.11-7.35-.12-3.07-.55-6.17-.83-9.23-.35-3.84-.69-7.69-1.14-11.52-.23-1.89-3.23-1.92-3,0,.49,4.12.85,8.25,1.22,12.38.26,2.8.67,5.64.76,8.46s-.09,5.68-.14,8.51c-.06,3.49-.09,6.95,0,10.44.11,4.55.18,9.12.5,13.67.12,1.74.24,3.54.78,5.21.39,1.2.91,2.34,1.28,3.54,1.3,4.22,2.02,8.52,3.82,12.59,3.01,6.8,8.18,12.59,12.62,18.51l6.92,9.22c1.3,1.73,2.51,3.62,3.97,5.21,3.43,3.73,7.22,6.6,12.23,7.75s9.68.65,14.52.03c2.31-.3,4.62-.65,6.91-1.07,1.29-.24,2.68-.4,3.92-.85.14-.05.52-.09.02-.04.19-.02.38-.01.57,0,.75.03.85.08,1.57.2,1.67.28,3.33.62,5,.9,7.75,1.34,18.56,2.79,23.82-4.61.1-.14.09-.16.38-.48.35-.37.7-.74,1.04-1.11,1.27-1.35,2.53-2.71,3.78-4.08,3.04-3.32,6.06-6.67,8.88-10.18,2.67-3.32,4.7-6.92,6.61-10.72,2.28-4.54,4.46-9.18,6.24-13.94,2.25-6.02,3.69-12.51,4.68-18.85.4-2.6.85-5.28.89-7.91.03-2.13-.12-4.27-.26-6.39-.3-4.45-.86-8.92-.93-13.38-.06-3.98-.17-8-.06-11.98.05-1.99.29-4,.41-5.99.29-4.61.52-9.22.62-13.83s.18-9.12-.36-13.63c-.81-6.64-1.83-13.39-3.86-19.78-.96-3-2.16-5.96-3.79-8.66-.88-1.46-1.74-2.89-2.54-4.39-1.87-3.5-4.19-6.48-7.46-8.78-5.05-3.55-11.28-5.26-17.18-6.8-6.45-1.68-13.04-2.84-19.68-3.51-13.22-1.34-26.75-.65-39.66,2.6-6.26,1.57-12.37,3.78-18.15,6.65-5.23,2.6-9.76,5.91-12.61,11.12-2.51,4.59-3.71,9.77-5.41,14.69-2.39,6.91-3.33,14.15-3.28,21.44.04,5.98.72,11.92,1.44,17.85.23,1.89,3.23,1.92,3,0Z"/>
  </g>
  <g class="cls-2">
    <path class="cls-3" d="M143.36,42.62c11.32,2.68,25.22,4.93,32.2,15.35,9.77,14.58,8.79,33.61,7.42,50.25-1.56,18.99,3.86,38.4-1.87,56.93-2.68,8.67-5.4,17.64-9.74,25.65-3.53,6.51-8.96,12.33-13.6,18.09-2.28,2.83-3.81,4.01-7.54,3.66-4.36-.41-8.59-1.93-12.9-2.7-5.15-.92-8.77-.03-13.73,1.13-4.48,1.05-11.39,3.48-15.72,2.14-3.01-.93-5.64-4.63-7.53-6.93-2.52-3.07-4.71-6.38-7.02-9.61-7.88-11.06-15.68-20.88-17.35-34.8-1-8.3-1.31-17.08-.62-25.42.56-6.82-.38-12.8-1.08-19.5-1.62-15.38-2.23-30.24,1.49-45.39,1.98-8.05,4.41-14.94,11.68-19.63,6.47-4.18,14.18-6.03,21.56-7.9,5.61-1.42,3.23-10.1-2.39-8.68-14.14,3.58-29.51,8.37-36.08,22.71-6.93,15.14-7.1,32.35-6.05,48.59.43,6.68,1.68,13.22,2.26,19.84.36,4.1-.32,8.18-.56,12.26-.27,4.79-.06,9.63.18,14.42.42,8.6,1.26,17.16,4.6,25.17,2.66,6.38,6.65,11.93,10.7,17.48,5.06,6.94,9.65,14.59,15.78,20.67s12.17,5.91,20.63,4.77c4.62-.63,9.18-2.46,13.79-2.9,7.47-.7,15.03,4.31,22.87,3.2,7.57-1.07,10.91-8.99,15.49-14.12,6.23-6.98,10.58-14.39,13.93-23.15,3.59-9.38,7.38-19.45,8.44-29.48,1.15-10.89-.82-21.82-1.16-32.68-.37-12.05,2.11-23.95,1.29-36.02-.7-10.22-2.82-20.62-7.69-29.73-7.97-14.9-24.03-18.75-39.28-22.36-5.63-1.34-8.03,7.34-2.39,8.68h0Z"/>
  </g>
</svg>