<?xml version="1.0" encoding="UTF-8"?>
<svg id="head_4" data-name="head 4" xmlns="http://www.w3.org/2000/svg" viewBox="0 0 256 256">
  <defs>
    <style>
      .cls-1 {
        fill: #fff;
      }

      .cls-2 {
        opacity: .3;
      }

      .cls-3 {
        fill: #435054;
      }
    </style>
  </defs>
  <g>
    <path class="cls-1" d="M65.38,128.37c2.33-12.71-2.04-38.52,2.64-52.65,3.41-10.3,12.02-23.45,19.97-28.65,23.79-15.53,44.67-14.93,70.83-5.8,13.91,4.85,21.15,17.95,21.15,17.95,5.39,5.07,9.81,21.59,9.94,22.56,1.67,13.02,1.89,46.58,1.89,46.58,2.41,16.6-3.18,28.47-6.43,48.64-.78,4.85-7.79,21.7-7.79,21.7-6.15,10.59-22.56,16.31-31.71,20.81-2.01.99-2.94,4.81-22.8,4.37-14.19-.31-31.68-13.53-41.84-22.02-8.53-7.13-10.08-20.96-13.62-32.05-3.56-11.14-5.02-26.19-2.22-41.45Z"/>
    <path d="M66.83,128.77c1.53-8.57.68-17.55.49-26.19-.2-8.94-.61-18.55,2.37-27.12,1.68-4.84,4.13-9.43,6.91-13.73s5.8-8.13,9.55-11.39c4.02-3.49,9.1-6.07,13.92-8.27s9.71-3.77,14.81-4.73c10.2-1.93,20.65-.95,30.67,1.5,2.77.68,5.51,1.46,8.22,2.32s5.29,1.64,7.78,2.84c4.02,1.93,7.61,4.62,10.74,7.79,2.05,2.08,3.93,4.34,5.53,6.79,1.04,1.58,2.32,2.93,3.32,4.54,3.48,5.56,5.68,12.24,7.23,18.58.03.12.06.24.08.36,0,.03.04.2,0,0-.06-.31.04.34.04.31.08.72.16,1.44.23,2.16.16,1.68.29,3.36.4,5.04.26,3.94.44,7.88.59,11.82.27,7.27.43,14.55.53,21.82.02,1.65-.03,3.31.05,4.96.07,1.42.34,2.83.44,4.25.18,2.45.19,4.9.05,7.35-.58,10.16-3.65,20.03-5.63,29.96-.79,3.95-1.31,7.87-2.59,11.7-1.16,3.5-2.49,6.95-3.84,10.39-.82,2.09-1.5,4.41-2.57,6.38-1.63,3-4.96,5.94-7.9,8.04-3.76,2.69-7.87,4.85-12.04,6.83-3.64,1.74-7.44,3.2-11.01,5.08-.49.26-.9.57-1.33.91-.08.06-.16.13-.25.19-.08.06.25-.18-.06.04-.24.17-.48.34-.73.5-1.62,1-3.46,1.48-5.59,1.86-4.5.81-9.16.82-13.71.73s-9.28-1.43-13.58-3.3c-9.19-4-17.5-9.99-25.25-16.29-1.69-1.37-3.41-2.73-4.84-4.39s-2.66-3.74-3.65-5.79c-2.1-4.37-3.35-9.13-4.57-13.8s-2.81-9.46-3.97-14.25c-1.36-5.61-2.07-11.36-2.24-17.13-.19-6.26.26-12.52,1.37-18.68.34-1.89-2.55-2.7-2.89-.8-2.2,12.21-2.08,24.92.78,37.02,1.19,5.04,2.83,9.99,4.15,15s2.64,9.77,4.86,14.31c1.04,2.14,2.3,4.15,3.82,5.98,1.44,1.73,3.19,3.13,4.93,4.54,3.86,3.14,7.83,6.17,11.96,8.95,8.22,5.55,17.84,11.09,27.99,11.58,4.87.24,9.87.09,14.7-.65,2.34-.36,4.72-.91,6.81-2.07.61-.34,1.17-.75,1.72-1.17.13-.1.78-.58.29-.23.18-.13.35-.25.53-.36,1.41-.83,3.01-1.44,4.5-2.11,2.06-.93,4.12-1.85,6.16-2.82,4.27-2.02,8.5-4.2,12.37-6.93,3.52-2.48,7.39-5.65,9.37-9.57.91-1.8,1.55-3.78,2.3-5.66,1.39-3.51,2.75-7.03,3.97-10.59.51-1.48,1-2.97,1.39-4.48.57-2.25.83-4.59,1.27-6.88,1.06-5.52,2.39-10.98,3.59-16.47,1.06-4.85,1.99-9.75,2.34-14.72.18-2.55.21-5.12.05-7.68-.1-1.6-.4-3.2-.48-4.78-.27-5-.12-10.05-.24-15.05-.19-8.14-.42-16.28-1-24.4-.19-2.66-.22-5.51-.87-8.11-.73-2.96-1.69-5.87-2.73-8.73-1.38-3.78-2.92-7.64-5.17-10.99-.46-.68-.95-1.35-1.49-1.97-.09-.1-.79-.84-.53-.5-.03-.04-.05-.1-.08-.14-.41-.58-.75-1.22-1.15-1.81-4.47-6.58-10.66-12.33-17.99-15.56-5.24-2.31-10.95-3.87-16.51-5.19-5.25-1.24-10.62-2.1-16.02-2.36-10.63-.51-21.1,1.62-30.78,6-4.99,2.26-10.12,4.95-14.33,8.5-3.91,3.29-7.14,7.41-9.96,11.65s-5.44,9.15-7.29,14.12c-1.54,4.14-2.23,8.49-2.58,12.89-.79,9.88,0,19.81.04,29.71.02,3.89,0,7.86-.68,11.71-.34,1.89,2.55,2.7,2.89.8Z"/>
  </g>
  <g class="cls-2">
    <path class="cls-3" d="M139.37,44.62c7.84,2.36,15.39,5.27,22.18,9.92,5.05,3.46,10.7,7.68,13.53,13.22,3.07,6.01,4.96,12.81,6.41,19.37,1.72,7.79.98,15.24.82,23.16-.17,9,1.16,17.94.86,26.95-.22,6.64-1.52,13.02-3.05,19.47-2.83,11.88-2.57,25.28-8.35,36.28-3.22,6.13-7.52,8.34-13.81,10.51-6.41,2.21-10.72,6.98-16.41,10.34-4.97,2.93-10.25,2.67-15.78,2.84-6.71.2-12.08-1.9-17.66-5.73-6.44-4.42-12.62-9.62-18.73-14.5-3.05-2.43-6.77-5.12-8.69-8.59s-2.42-7.9-3.74-11.67c-5.25-15.01-7.08-32.52-3.51-48.17.87-3.8,2.07-7.57,2.53-11.46.57-4.82.28-9.82.18-14.66-.19-9.25-.66-18.73,2.49-27.59s10.38-18.02,18.63-23.25c6.08-3.85,12.88-5.64,19.89-6.94,5.69-1.06,3.28-9.73-2.39-8.68-16.75,3.11-29.97,11.11-39.39,25.58-5.13,7.89-7.6,16.63-8.18,25.97s1.05,19.24-.11,28.68c-.46,3.77-1.81,7.46-2.59,11.17-.9,4.28-1.32,8.67-1.52,13.03-.43,9.61.25,19.45,2.31,28.86.88,4.03,2.4,7.77,3.62,11.7,1.37,4.4,2.15,9.15,4.68,13.09,4.79,7.44,13.59,12.15,20.3,17.64s13.76,11.47,22.41,13.71c5.31,1.38,11.04.88,16.47.58,7.4-.41,13.18-3.39,18.92-7.87,2.9-2.27,5.79-4.47,9.33-5.64,3.73-1.24,7.19-2.3,10.39-4.69,11.64-8.7,13.38-24.67,15.45-37.97,1.06-6.79,2.94-13.39,4.1-20.15,1.36-7.99,1.46-15.97,1-24.05-.37-6.5-.73-12.88-.47-19.4.2-4.94.53-9.76-.16-14.66-1.19-8.51-3.66-16.98-7.09-24.86-7.14-16.38-26.33-25.38-42.46-30.22-5.56-1.67-7.93,7.01-2.39,8.68h0Z"/>
  </g>
</svg>