<?xml version="1.0" encoding="UTF-8"?>
<svg id="head_5" data-name="head 5" xmlns="http://www.w3.org/2000/svg" viewBox="0 0 256 256">
  <defs>
    <style>
      .cls-1 {
        fill: #fff;
      }

      .cls-2 {
        opacity: .3;
      }

      .cls-3 {
        fill: #435054;
      }
    </style>
  </defs>
  <g>
    <path class="cls-1" d="M64.49,128.38c2.32-12.69-.03-37.83,5.63-51.56,6.45-15.64,10.72-19.63,18.88-24.45,26.19-15.47,49.47-11.87,74.9-2.38,14.72,5.49,20.65,19.57,23.15,30.19s5.63,48.21,5.63,48.21c2.41,16.57-3.18,22.42-6.42,42.56-.78,4.84-3.91,20.51-3.91,20.51-6.14,10.57-27.29,22.7-36.42,27.2-2.01.99-2.93,4.8-22.76,4.37-14.16-.31-35.89-19.54-46.04-28.02-8.52-7.12-6.9-20.16-10.44-31.23-3.55-11.12-5.01-20.15-2.22-35.38Z"/>
    <path d="M65.94,128.77c1.54-8.58,1.25-17.47,1.63-26.16.4-9.15,1.02-18.46,4.66-26.98,3.1-7.25,6.73-14.56,13.29-19.26,8.47-6.07,18.64-10.3,28.89-12.11s21.47-.86,31.87,1.71c5.49,1.35,10.88,3.11,16.19,5.06,4.48,1.65,8.52,4.03,11.9,7.43,10.48,10.53,12.26,25.77,13.88,39.79.83,7.19,1.54,14.4,2.2,21.62.39,4.25.91,8.53,1.21,12.78s.02,8.12-.79,12.11-2.02,7.96-3.07,11.92c-2.18,8.25-3.44,16.69-5.06,25.06-.56,2.87-1.12,5.74-1.69,8.61-.19.98-.56,1.31-1.28,2.28-1.15,1.56-2.49,2.98-3.88,4.33-6.44,6.26-14.21,11.21-21.96,15.68-2.91,1.67-5.97,3.08-8.87,4.76-.44.25-.83.59-1.22.9-.34.27.1-.07-.04.03-.11.08-.21.16-.33.24-.26.18-.52.35-.79.5-.89.52-1.17.62-2.13.93-1.23.4-2.5.67-3.77.88-4.52.74-9.27.8-13.83.61-3.65-.15-7.24-1.47-10.53-3-3.98-1.86-7.76-4.17-11.4-6.63-7.14-4.83-13.78-10.33-20.37-15.88-1.43-1.2-2.94-2.35-4.19-3.74-1.47-1.64-2.55-3.64-3.31-5.7-1.65-4.45-2.2-9.23-2.95-13.89-.39-2.4-.81-4.79-1.43-7.14s-1.43-4.65-2.06-7c-1.2-4.45-1.99-8.98-2.15-13.59-.19-5.41.41-10.81,1.37-16.13.34-1.89-2.55-2.7-2.89-.8-1.02,5.64-1.69,11.37-1.47,17.11.18,4.81,1,9.57,2.25,14.21.63,2.35,1.44,4.65,2.06,7,.65,2.47,1.08,4.99,1.49,7.51.76,4.76,1.34,9.65,3.14,14.16.87,2.18,2,4.2,3.51,6,1.26,1.5,2.82,2.7,4.32,3.96,3.18,2.68,6.37,5.36,9.63,7.95,7.22,5.75,14.8,11.45,23.23,15.33,3.56,1.64,7.32,3,11.26,3.26,4.74.31,9.68.1,14.39-.58,2.4-.35,4.82-.88,6.98-2.01.57-.3,1.1-.65,1.61-1.04.26-.2.51-.4.77-.6-.39.3.08-.06.26-.17,1.07-.66,2.27-1.15,3.39-1.74,1.8-.95,3.57-1.93,5.33-2.94,4.01-2.3,7.94-4.75,11.74-7.38s7.53-5.48,10.88-8.7c1.48-1.42,2.88-2.93,4.13-4.57.74-.96,1.65-2.02,1.95-3.22.69-2.76,1.11-5.62,1.65-8.41.68-3.52,1.37-7.04,1.98-10.57.87-5.01,1.84-9.97,3.14-14.89,1.08-4.12,2.34-8.2,3.17-12.38s1.14-8.39.84-12.62c-.14-2.02-.44-4-.61-6.02-.51-5.98-1.06-11.96-1.67-17.93-.76-7.53-1.57-15.07-2.71-22.55-1.06-6.96-2.85-13.77-6.13-20.05-2.01-3.86-4.6-7.47-7.77-10.47-3.68-3.48-7.98-5.84-12.71-7.57-10.65-3.9-21.72-7.01-33.1-7.65s-22.76,1.56-33.22,6.24c-7.57,3.39-15.2,7.67-20.17,14.49-2.77,3.79-4.81,8.08-6.67,12.37s-3.2,8.66-3.93,13.34c-1.52,9.68-1.48,19.52-1.89,29.29-.17,3.95-.34,7.94-1.04,11.84-.34,1.89,2.55,2.7,2.89.8Z"/>
  </g>
  <g class="cls-2">
    <path class="cls-3" d="M142.12,51.43c11.4,3.36,25.12,7.35,31.61,18.39,3.49,5.94,5.69,12.86,7.15,19.57,1.63,7.48.29,14.97.64,22.55s3.18,15.14,3.07,22.91c-.07,5.04-1.86,9.81-3.13,14.63-3.15,11.97-1.45,25.25-6.26,36.76-2.98,7.14-8.28,9.24-14.52,12.92-6.36,3.75-11.47,9.24-17.74,13.11-8.14,5.01-21,5.56-29.15.44-6.41-4.03-11.6-9.69-17.15-14.78-5.3-4.87-13.46-8.01-17.66-13.78-2.09-2.87-1.76-7.03-2.28-10.42-.66-4.23-2.55-8.1-3.63-12.24-2.36-9.05-2.77-18.63-1.63-27.9.53-4.28,1.97-8.25,3.11-12.38s1.13-7.92,1.19-12.03c.12-8.5-.35-17.26,1.66-25.59,2.18-9.05,7.34-18.15,15.06-23.56,6.13-4.29,13.44-5.78,20.41-8.14,5.46-1.85,3.11-10.54-2.39-8.68-6.88,2.33-14.04,3.94-20.36,7.65-7.85,4.62-13.83,11.96-17.72,20.12-3.52,7.38-4.98,15.22-5.4,23.35-.45,8.75.84,17.95-1.69,26.41-2.78,9.28-3.91,18.62-3.25,28.33.34,4.98,1.09,9.98,2.34,14.81,1.15,4.45,3.13,8.55,3.71,13.13.48,3.77.63,7.77,2.62,11.13,2.3,3.87,6.62,6.67,10.24,9.17,6.78,4.69,12.37,10.13,18.51,15.59,5.72,5.08,12.33,10.48,20.08,11.85,4.42.79,9.48.29,13.93-.04,7.89-.59,14.33-4.52,20.41-9.31,3.15-2.48,6.18-5.14,9.54-7.35,3.53-2.32,7.53-3.72,10.91-6.28,12.11-9.17,12.46-25.17,13.84-38.96.65-6.53,2.58-12.58,4.14-18.92s1.34-12.61.28-19.12c-.99-6.08-2.24-11.73-2.13-17.94.08-4.66.61-9.33.06-13.98-1-8.49-3.75-16.99-7.5-24.66-7.37-15.08-23.5-21.01-38.53-25.44-5.57-1.64-7.94,7.04-2.39,8.68h0Z"/>
  </g>
</svg>