<?xml version="1.0" encoding="UTF-8"?>
<svg id="head_6" data-name="head 6" xmlns="http://www.w3.org/2000/svg" viewBox="0 0 256 256">
  <defs>
    <style>
      .cls-1 {
        fill: #fff;
      }

      .cls-2 {
        opacity: .3;
      }

      .cls-3 {
        fill: #435054;
      }
    </style>
  </defs>
  <g>
    <path class="cls-1" d="M64.43,128.37c1.59-12.81-3.4-44.16-.36-58.61,2.23-10.61,12.01-23.43,19.96-28.62,23.77-15.51,48.63-14.91,74.78-5.79,13.9,4.85,25.13,17.94,25.13,17.94,5.38,5.07,9.84,21.57,9.93,22.54,1.29,13.93-2.12,51.54-2.12,51.54,1.69,17.97-4.19,35.66-10.11,48.57-2.05,4.46-15.74,22.67-15.74,22.67-7.08,8.4-11.98,13.14-20.55,18.14-3.99,2.33-7.81,2.49-22.27,2.07-14.17-.42-18.82-7.85-28.98-16.34-8.53-7.13-19.21-19.83-22.76-30.91-3.56-11.13-8.82-27.78-6.91-43.18Z"/>
    <path d="M65.93,128.37c.91-7.54.09-15.36-.37-22.9-.55-8.89-1.24-17.82-.93-26.74.13-3.67.42-7.37,1.48-10.9,1.42-4.74,3.91-9.15,6.74-13.18s5.99-7.6,9.73-10.62c4.18-3.38,9.27-5.96,14.2-8.06,10.02-4.27,20.89-6.01,31.75-5.48,5.56.27,11.07,1.12,16.49,2.38s11.11,2.75,16.24,5.04c7.51,3.36,14.18,8.64,19.87,14.53,1.23,1.27,2.55,2.58,3.53,4.05,2.14,3.18,3.62,6.81,4.93,10.4,1,2.76,1.92,5.57,2.63,8.41.07.27.12.54.18.8-.15-.65-.01.01,0,.26.03.4.06.8.08,1.2.09,1.49.13,2.99.15,4.48.1,7.61-.29,15.23-.74,22.82-.38,6.39-.84,12.78-1.37,19.16-.09,1.1-.26,2.21-.28,3.31s.18,2.23.23,3.31c.07,1.64.09,3.29.04,4.93-.08,3.03-.33,6.07-.77,9.07-.85,5.82-2.28,11.55-4.13,17.13-1.54,4.66-3.24,9.42-5.49,13.79-1.23,2.4-2.85,4.64-4.38,6.85-2.01,2.92-4.08,5.8-6.17,8.66-3.61,4.95-7.25,9.66-11.58,14.02-3.34,3.37-7,6.33-11.02,8.87-2.46,1.55-4.31,2.64-7.12,3.11-3.46.58-7.14.42-10.65.36-5.1-.09-10.26,0-15.12-1.75-3.82-1.37-7.1-3.82-10.13-6.47-3.56-3.11-7.1-6.27-10.62-9.42-7.57-6.79-14.47-15.06-18.82-24.3-2.04-4.35-3.29-9.14-4.61-13.74-1.55-5.41-2.86-10.9-3.65-16.48s-1-11.31-.33-16.93c.23-1.91-2.77-1.9-3,0-1.4,11.71,1.01,23.57,4.25,34.79,1.39,4.8,2.74,9.71,4.91,14.23,2.32,4.83,5.38,9.28,8.71,13.47s6.95,8.06,10.94,11.56c3.54,3.11,7.01,6.31,10.58,9.38,3.26,2.81,6.75,5.27,10.82,6.76,5.03,1.84,10.4,1.8,15.68,1.9,3.81.07,7.68.17,11.46-.4,2.66-.4,4.93-1.45,7.21-2.85,7.67-4.67,14.55-11,19.95-18.19,3.62-4.81,7.17-9.68,10.6-14.62,1.61-2.32,3.31-4.66,4.62-7.17,2.31-4.42,4.06-9.29,5.65-14.01,1.89-5.63,3.38-11.41,4.27-17.29.46-3.03.78-6.09.91-9.15.06-1.56.08-3.13.04-4.69s-.31-3.16-.28-4.72c.08-3.89.66-7.83.94-11.71.57-7.82,1.06-15.65,1.32-23.48.12-3.74.2-7.48.12-11.21-.05-2.28-.03-4.61-.61-6.83-.83-3.19-1.88-6.34-3.05-9.43-1.38-3.61-2.91-7.32-5.22-10.45-1.14-1.54-2.54-2.96-3.89-4.33-2.63-2.68-5.46-5.17-8.44-7.47-4.02-3.1-8.35-5.79-13.06-7.74-5.31-2.19-10.99-3.73-16.59-4.98-10.95-2.43-22.28-3.14-33.37-1.21-5.56.97-10.96,2.63-16.15,4.86s-10.19,4.86-14.53,8.32c-3.84,3.05-7.12,6.82-9.99,10.79-3.05,4.23-5.68,8.88-7.29,13.86-2.53,7.81-2,16.62-1.67,24.7.38,9.15,1.21,18.29,1.45,27.45.08,3.28.12,6.6-.28,9.87-.23,1.91,2.77,1.9,3,0Z"/>
  </g>
  <g class="cls-2">
    <path class="cls-3" d="M142.38,217.59c4.61-1.75,9.31-3.19,13.03-6.54,5.12-4.61,10.11-9.56,14.27-15.05,5.17-6.82,9.22-14.38,12.7-22.18,3.49-7.82,7.06-15.92,8.63-24.38s1.27-17.14,1.17-25.78c-.09-7.98.94-15.59,2.01-23.48,2-14.72,1.64-31.59-6.99-44.34-10.32-15.24-28.76-21.94-45.8-26.33-5.61-1.44-8.01,7.23-2.39,8.68,13.87,3.57,28.54,8.36,38.3,19.47s9.91,26.6,8.22,39.89c-.81,6.35-2.08,12.69-2.33,19.1-.3,7.79.4,15.58-.07,23.36-.91,15.11-8.12,30.63-15.85,43.47-4.4,7.3-9.91,12.97-15.93,18.9-3.5,3.45-6.69,4.72-11.37,6.5-5.36,2.04-3.03,10.75,2.39,8.68h0Z"/>
    <path class="cls-3" d="M116.16,209.06c-4.94-2.35-9.38-4.48-13.1-8.51-4.3-4.65-8.96-8.94-13.22-13.64-5.49-6.07-8.21-12.23-11.08-19.9-3.18-8.5-6.01-17.52-5.85-26.69.1-6,.94-11.97,1.19-17.96.27-6.41-.77-12.87-1.34-19.24-1.43-15.93-2.5-32.15,7.01-45.86,3.91-5.63,8.6-10.7,14.88-13.66s13.27-4.03,19.93-5.39c5.67-1.16,3.27-9.84-2.39-8.68-13.3,2.73-25.74,5.76-34.99,16.43-5.16,5.94-9.75,12.7-11.98,20.31-2.4,8.17-2.61,16.95-2.26,25.39.36,8.61,1.54,17.14,2.09,25.73.42,6.56-.57,13.18-.98,19.72-.55,8.9,1.13,17.66,3.85,26.11s5.35,17.34,10.6,24.16,11.3,12.2,17.02,18.27c4.81,5.1,9.68,8.14,16.07,11.17,5.2,2.47,9.78-5.29,4.54-7.77h0Z"/>
  </g>
</svg>