<?xml version="1.0" encoding="UTF-8"?>
<svg id="Layer_28" data-name="Layer 28" xmlns="http://www.w3.org/2000/svg" viewBox="0 0 256 256">
  <defs>
    <style>
      .cls-1 {
        fill: #fff;
      }

      .cls-2 {
        opacity: .3;
      }

      .cls-3 {
        fill: #435054;
      }
    </style>
  </defs>
  <g>
    <path class="cls-1" d="M64.43,128.37c1.59-12.81-3.4-44.16-.36-58.61,2.23-10.61,12.01-23.43,19.96-28.62,23.77-15.51,48.63-14.91,74.78-5.79,13.9,4.85,25.13,17.94,25.13,17.94,5.38,5.07,9.84,21.57,9.93,22.54,1.29,13.93-2.12,51.54-2.12,51.54,1.69,17.97-4.19,35.66-10.11,48.57-2.05,4.46-15.74,22.67-15.74,22.67-7.08,8.4-12.58,12.18-21.73,16.68-2.01.99-1.25,3.97-21.09,3.53-14.18-.31-18.82-7.85-28.98-16.34-8.53-7.13-19.21-19.83-22.76-30.91-3.56-11.13-8.82-27.78-6.91-43.18Z"/>
    <path d="M65.93,128.37c.94-7.77.07-15.83-.41-23.6-.55-9-1.26-18.07-.85-27.09.18-3.82.62-7.58,1.88-11.2,1.68-4.84,4.39-9.34,7.46-13.42,2.86-3.8,6.22-7.49,10.15-10.21,4.8-3.32,10.14-6.03,15.61-8.06,10.39-3.85,21.47-5.05,32.48-4.02,5.67.53,11.28,1.64,16.78,3.12s10.76,3.06,15.65,5.74c6.63,3.62,12.64,8.59,17.71,14.18,4.28,4.72,6.54,10.78,8.46,16.79.43,1.34.84,2.69,1.2,4.05.1.39.19.79.3,1.18.03.1.04.2.06.3-.16-.7,0,.21.02.46.24,3.18.25,6.38.22,9.57-.09,8.01-.54,16.01-1.07,24-.36,5.41-.77,10.82-1.24,16.22-.03.33-.08.66-.09,1-.03,1.24.2,2.54.25,3.79.06,1.56.06,3.13.02,4.7-.17,6.14-1.13,12.23-2.62,18.18-1.4,5.58-3.26,11.05-5.46,16.37-1.28,3.1-2.63,5.99-4.47,8.79-3.67,5.61-7.67,11.01-11.67,16.39-4.21,5.67-9.33,10.62-15.36,14.33-2.09,1.29-4.26,2.45-6.46,3.55-.8.4-1.43.71-2.11,1.27-.14.12-.28.24-.42.36-.09.08-.43.32,0,0-.11.08-.21.16-.32.23-.23.14-.45.28-.69.4-.15.08-.3.15-.45.21.38-.17-.29.1-.4.14-2.68.91-5.63,1.06-8.43,1.19-5.17.23-10.64.46-15.68-.9-4.08-1.1-7.61-3.33-10.82-6.03-3.59-3.03-6.96-6.31-10.53-9.36-7.97-6.8-15.17-15.32-19.8-24.76-2.14-4.37-3.42-9.19-4.77-13.85-1.58-5.46-2.92-10.99-3.75-16.61s-1.08-11.6-.39-17.37c.23-1.91-2.77-1.9-3,0-1.44,11.97,1.11,24.1,4.47,35.55,1.41,4.8,2.78,9.66,5.02,14.15,2.52,5.05,5.82,9.71,9.41,14.06,3.32,4.02,6.96,7.81,10.94,11.18,3.66,3.1,7.06,6.5,10.76,9.55,3.47,2.86,7.28,5.22,11.65,6.39,5.2,1.4,10.8,1.23,16.14,1.02,4.36-.17,9.49-.29,12.98-3.27.14-.12.66-.47.16-.15.15-.1.3-.19.45-.28,2.28-1.3,4.68-2.37,6.94-3.73,4.13-2.48,7.9-5.48,11.26-8.93,4.18-4.3,7.59-9.25,11.09-14.11,2.12-2.94,4.23-5.9,6.22-8.94s3.32-5.91,4.66-9.14c4.63-11.09,7.89-22.91,8.38-34.96.06-1.56.08-3.13.04-4.69s-.29-3.16-.28-4.72c0-.33.06-.67.09-1,.19-2.12.36-4.25.53-6.38.6-7.65,1.11-15.32,1.46-22.99.18-3.98.31-7.96.33-11.94.02-3.12.12-6.37-.32-9.47-.34-2.39-1.25-4.78-2.01-7.06-1.29-3.87-2.77-7.73-4.73-11.31-2.67-4.86-7.12-8.92-11.32-12.45-3.74-3.15-7.75-6.02-12.1-8.27-5.15-2.67-10.82-4.33-16.41-5.78-11.11-2.89-22.72-4.17-34.14-2.66s-22.94,5.73-32.35,12.48c-4,2.87-7.39,6.51-10.38,10.4-3.26,4.24-6.04,8.89-7.93,13.9-2.98,7.92-2.56,16.88-2.25,25.19.35,9.4,1.22,18.78,1.48,28.19.09,3.38.14,6.8-.27,10.16-.23,1.91,2.77,1.9,3,0Z"/>
  </g>
  <g class="cls-2">
    <path class="cls-3" d="M139.03,218.62c5.22-1.98,10.66-3.68,15.16-7.09,5.82-4.4,11.09-9.72,15.49-15.53,5.17-6.82,9.22-14.38,12.7-22.18,3.49-7.82,7.06-15.92,8.63-24.38s1.27-17.14,1.17-25.78c-.09-7.98.94-15.59,2.01-23.48,2-14.72,1.64-31.59-6.99-44.34-10.32-15.24-28.76-21.94-45.8-26.33-5.61-1.44-8.01,7.23-2.39,8.68,13.87,3.57,28.54,8.36,38.3,19.47s9.91,26.6,8.22,39.89c-.81,6.35-2.08,12.69-2.33,19.1-.3,7.79.4,15.58-.07,23.36-.91,15.11-8.12,30.63-15.85,43.47-4.4,7.3-9.83,13.39-16.22,18.99-4.28,3.75-9.17,5.44-14.44,7.44s-3.04,10.74,2.39,8.68h0Z"/>
    <path class="cls-3" d="M116.16,209.06c-4.94-2.35-9.38-4.48-13.1-8.51-4.3-4.65-8.96-8.94-13.22-13.64-5.49-6.07-8.21-12.23-11.08-19.9-3.18-8.5-6.01-17.52-5.85-26.69.1-6,.94-11.97,1.19-17.96.27-6.41-.77-12.87-1.34-19.24-1.43-15.93-2.5-32.15,7.01-45.86,3.91-5.63,8.6-10.7,14.88-13.66s13.27-4.03,19.93-5.39c5.67-1.16,3.27-9.84-2.39-8.68-13.3,2.73-25.74,5.76-34.99,16.43-5.16,5.94-9.75,12.7-11.98,20.31-2.4,8.17-2.61,16.95-2.26,25.39.36,8.61,1.54,17.14,2.09,25.73.42,6.56-.57,13.18-.98,19.72-.55,8.9,1.13,17.66,3.85,26.11s5.35,17.34,10.6,24.16,11.3,12.2,17.02,18.27c4.81,5.1,9.68,8.14,16.07,11.17,5.2,2.47,9.78-5.29,4.54-7.77h0Z"/>
  </g>
</svg>