<?xml version="1.0" encoding="UTF-8"?>
<svg id="Layer_1" data-name="Layer 1" xmlns="http://www.w3.org/2000/svg" viewBox="0 0 256 256">
  <defs>
    <style>
      .cls-1 {
        fill: #fff;
      }

      .cls-2 {
        opacity: .3;
      }

      .cls-3 {
        fill: #435054;
      }
    </style>
  </defs>
  <g>
    <path class="cls-1" d="M59.87,114.85c-.87-10.4-1.12-27.11,3.95-41.01,3.7-10.13,14.15-20.11,22.78-25.22,25.8-15.27,43.84-16.65,72.22-7.67,15.09,4.77,25.04,17.65,25.04,17.65,5.84,4.99,11.77,23.19,11.9,24.14,1.49,11.27.75,16.76.45,24.79-.36,9.82-.48,22.02-.48,22.02-1.82,13.08,2.96,19.1.87,32.18-4.84,30.32-8.38,31.52-15.68,39.23-8.48,8.96-17.29,12.83-27.21,17.26-2.18.97-7.87,7.29-29.41,6.86-15.39-.31-26.58-8.65-37.24-13.8-4.09-1.98-16-13.73-16-13.73-5.72-7.15-8.82-19.41-9.87-28.94-1.25-11.41,1.87-23.33.62-34.74,0,0-1.55-14.31-1.94-19.02Z"/>
    <path d="M61.37,114.85c-.86-10.5-.78-21.24,1.37-31.58,1.14-5.48,2.81-10.77,5.85-15.49s6.92-8.81,11.17-12.41,8.96-6.37,13.84-8.94,9.77-4.76,14.95-6.42c9.4-3,19.18-3.77,28.96-2.52,5.48.7,10.88,1.97,16.18,3.49s10.27,3.31,14.95,6.24c3.56,2.23,6.85,4.86,9.86,7.79,1.5,1.46,2.81,3.04,4.22,4.57.72.78,1.49,1.48,2.12,2.35,1.16,1.6,2.15,3.32,3.05,5.08,1.8,3.47,3.3,7.1,4.64,10.77.86,2.36,1.69,4.61,1.98,7.11.57,4.99.74,9.99.54,15.01-.37,9.37-.69,18.73-.81,28.11-.02,1.3-.16,2.53-.28,3.83-.23,2.63-.21,5.28.03,7.91.43,4.83,1.52,9.57,1.62,14.43.13,5.86-1.16,11.71-2.28,17.44-.8,4.11-1.7,8.22-2.96,12.21-1.41,4.47-3.44,8.53-6.43,11.81-5.33,5.86-11.09,11.14-18.03,15.04-2.24,1.26-4.54,2.4-6.87,3.49-2.08.98-4.28,1.79-6.31,2.87-1.24.66-2.36,1.54-3.6,2.21-6.62,3.59-14.64,4.32-22.06,4.37-5.81.04-11.38-.75-16.87-2.66-4.88-1.69-9.46-4.08-14-6.54-2.08-1.13-4.15-2.27-6.25-3.35-1.43-.74-2.84-1.39-4.15-2.34-2.92-2.11-5.59-4.6-8.24-7.04-1.8-1.67-3.72-3.31-5.38-5.12-1.26-1.37-2.21-3.16-3.06-4.8-1.18-2.27-2.13-4.64-2.95-7.06-1.67-4.98-2.79-10.18-3.41-15.39-.75-6.33-.2-12.69.31-19.02.44-5.53.81-11.08.21-16.62-.31-2.85-.61-5.71-.91-8.56-.36-3.42-.72-6.84-1.01-10.26-.16-1.91-3.16-1.93-3,0,.53,6.34,1.27,12.66,1.94,18.98s.07,12.56-.42,18.83-.72,12.55.17,18.85c.76,5.38,1.99,10.74,3.89,15.84,1.46,3.93,3.29,8.34,6.22,11.43,1.89,1.99,3.97,3.83,5.99,5.68,2.73,2.5,5.5,5.05,8.56,7.16,1.45,1,3.09,1.7,4.65,2.52,2.22,1.16,4.41,2.38,6.61,3.56,4.74,2.54,9.6,4.94,14.73,6.58,5.76,1.84,11.66,2.44,17.69,2.32,4.81-.1,9.66-.55,14.33-1.74,2.79-.71,5.53-1.71,8.05-3.09,1.22-.67,2.33-1.56,3.58-2.19,4.67-2.36,9.54-4.23,14.08-6.88,4.99-2.91,9.55-6.48,13.53-10.66,2.96-3.1,6.08-6.06,8.18-9.85,3.52-6.36,4.97-13.86,6.31-20.92,1.12-5.87,2.38-11.85,2.14-17.85-.2-4.96-1.35-9.82-1.69-14.77-.26-3.85.29-7.63.34-11.47.07-4.91.16-9.82.3-14.73s.46-9.75.57-14.62c.06-2.43.03-4.86-.11-7.28-.16-2.71-.25-5.6-.82-8.25-.52-2.39-1.53-4.75-2.4-7.02-1.52-3.96-3.2-7.91-5.29-11.6-.94-1.65-1.97-3.26-3.21-4.71-.53-.62-1.14-1.15-1.66-1.76-1.67-1.95-3.42-3.81-5.31-5.55-3.36-3.09-7.05-5.87-11.02-8.13-4.98-2.83-10.39-4.52-15.9-6.01-10.18-2.75-20.8-4.4-31.35-3.23s-20.99,5.21-30.5,10.38-18.98,12.57-24.98,22.27c-3.01,4.87-4.69,10.38-5.81,15.96s-1.71,11.59-1.84,17.44c-.12,4.85.06,9.69.45,14.52.16,1.91,3.16,1.93,3,0Z"/>
  </g>
  <g class="cls-2">
    <path class="cls-3" d="M147.5,44.19c6.14,1.98,12.56,3.82,18.17,7.09,4.34,2.53,7.72,6.12,10.91,9.95,5.17,6.22,8.9,12.47,11.52,20.16,2.41,7.08,2.01,15.99,2.02,23.42.02,8.68-1.55,17.07-2.19,25.68-.7,9.35,2.06,18.47,2,27.8-.12,17.07-6.93,35.69-22.01,44.92-6.41,3.92-13.5,6.62-20.11,10.18-5.5,2.97-10.38,5.6-16.79,5.9-12.47.59-23.61-5.08-34.45-10.46-12.68-6.29-23.32-16.41-27.43-30.25-4.58-15.45,1.81-30.6-.68-46.11-.62-3.84-2.34-7.33-2.67-11.2-.29-3.39-.19-6.84-.07-10.24.11-3.18.42-6.34.61-9.51.31-5.26-.22-10.56.86-15.76,2.15-10.31,7.06-19.16,15.46-25.57s16.2-11.03,25.39-15.08c3.52-1.56.48-6.73-3.03-5.18-16.39,7.24-33.81,17.53-40.7,34.89-3.79,9.55-3.39,18.48-4.12,28.5-.47,6.44-1,13.03-.27,19.47.35,3.06,1.61,5.76,2.28,8.75,1.28,5.63.95,11.52.34,17.21-.9,8.32-2,16.26-.7,24.62,2.23,14.36,10.46,26.54,22.18,34.95,10.65,7.65,24,13.61,36.83,16.32,15.87,3.34,27.86-5.19,41.45-11.7,7.23-3.47,14.26-7.43,19.52-13.63,5.76-6.8,9.67-15.33,11.88-23.92,2.33-9.07,2.73-18.42,1.47-27.69-.7-5.14-1.53-10.29-1.34-15.5s1.39-10.79,1.82-16.2c.8-9.95.53-20.11-.43-30.05-.84-8.72-5.54-17.7-10.84-24.49-4.16-5.34-8.45-10.69-14.18-14.43-6.35-4.14-13.97-6.31-21.11-8.62-3.68-1.19-5.26,4.6-1.6,5.79h0Z"/>
  </g>
</svg>