<?xml version="1.0" encoding="UTF-8"?>
<svg id="Layer_29" data-name="Layer 29" xmlns="http://www.w3.org/2000/svg" viewBox="0 0 256 256">
  <defs>
    <style>
      .cls-1 {
        fill: #fff;
      }

      .cls-2 {
        opacity: .3;
      }

      .cls-3 {
        fill: #435054;
      }
    </style>
  </defs>
  <g class="cls-2">
    <path class="cls-3" d="M87.37,182.3c1.81,2.42,4.55,5.42,7.88,4.87,3.11-.52,5.73-2.12,8.19-3.98,1.08-.82,2.37-1.84,3.8-1.78,1.85.08,3.65.61,5.43,1.03,2.38.56,4.71-.12,6.95-.83,1.99-.64,4.48-1.72,6.6-1.5,1.98.21,3.86,1.37,5.83,1.77,3.2.65,6.21.08,9.37-.48,1.47-.26,3.12-.56,4.61-.31,1.39.23,2.48,1.31,3.45,2.24,2.43,2.32,4.83,4.44,8.42,3.84,2.97-.5,6.26-2.4,6.61-5.64.21-1.92-2.79-1.9-3,0s-3.86,2.95-5.39,2.78c-2.56-.29-4.36-3.16-6.27-4.61-5.02-3.84-11.28.41-16.87-.68-1.9-.37-3.61-1.29-5.49-1.71-2.12-.47-4.19.09-6.23.67-1.69.48-3.41,1.29-5.14,1.5-.8.1-1.65.23-2.45.11-.87-.14-1.7-.5-2.59-.64-1.49-.24-3.17-.67-4.68-.48-3.23.4-5.27,3.23-8.08,4.53-1.16.54-3.13,1.58-4.42,1.2-1.56-.47-3-2.16-3.94-3.41-1.14-1.53-3.75-.03-2.59,1.51h0Z"/>
  </g>
  <g>
    <path class="cls-1" d="M126.42,176.66c.26-.18.58-.26.83-.42,2.28,1.92,5.13,3.06,8.15,2.41s5.65-1.58,8.73-1.89c6.72-.67,10.64,11.15,17.78,5.66,3.2-2.47,3.55-6.14,4.95-9.64-1.73,1.27-4.03,3.29-6.36,2.66,2.89.47,4.87-4.79,5.46-7.04-1.71,2.53-4.95,4.04-7.97,3.69,1.27-1.17,3.34-3.22,3.53-5.01-2.33,1.81-4.02,3.79-7.28,3.27-2.65-.42-8.72-3.4-11.32-2.92-7.85,1.43-4.83-1.09-13.38-.37-1.61.14-1.99,2.93-3.57,3.16-.46-1.38-2.44-3.23-3.98-3.41-3.83-.44-9.85,2.84-12.32,2.51s-4.99-1.81-7.63-1.68c-2.79.14-6.44,2.12-9.11,2.76s-6.39-.15-7.99-2.31c-.9,2.29,1.79,4.2,3.24,5.47-1.29.48-2.94.18-3.7-1.05.13,1.81,1.85,2.37,2.79,3.67-1.14.26-2.08-.32-2.93-1.01,2.18,3.2,6.06,9.53,10.04,8.92,3.36-.51,8.33-6.43,11.9-6.11s5.94,1.33,9.75,1.33,5.95-3.32,9.48-3.33"/>
    <path d="M127.17,177.95c.27-.15.56-.27.83-.42l-1.82-.23c1.64,1.34,3.49,2.45,5.6,2.84,2.29.43,4.43-.11,6.65-.68,2.04-.52,4.29-1.31,6.42-1.23,1.13.04,2.15.56,3.08,1.16,2.21,1.42,3.98,3.45,6.26,4.78,2.47,1.45,5.24,1.6,7.72.07,4.06-2.51,4.79-6.96,6.4-11.07.46-1.17-1.18-2.46-2.2-1.69-1.4,1.05-3.3,2.91-5.21,2.51l-.4,2.95c4.02.45,6.08-5.1,6.9-8.15.46-1.72-1.79-2.5-2.74-1.16-1.52,2.14-4.1,3.18-6.68,2.95l1.06,2.56c1.63-1.51,3.54-3.38,3.92-5.67.25-1.53-1.3-2.41-2.51-1.46s-2.29,2.08-3.69,2.63c-1.31.51-2.59.21-3.88-.19-2.64-.83-5.22-2.02-7.96-2.44-2.28-.35-4.81.63-6.91.32-1.72-.26-3.28-.83-5.05-.89-1.53-.05-3.58-.24-4.91.62-.94.6-1.67,2.53-2.47,2.72l1.85,1.05c-1.02-2.62-3.56-4.62-6.42-4.55s-5.67,1.23-8.42,2.04c-.93.27-1.91.61-2.89.5-1.77-.2-3.44-1.09-5.18-1.44-3.47-.7-6.53.7-9.72,1.86-2.86,1.05-6.62,1.49-8.78-1.21-.75-.94-2.19-.3-2.51.66-.99,3.03,1.59,5.17,3.63,6.93l.66-2.51c-.67.21-1.54.3-2-.36-.75-1.06-3.01-.88-2.8.76.14,1.08.47,1.95,1.21,2.76.64.7,1.43,1.22,2.02,1.97l.66-2.51c-.54.08-1.07-.31-1.47-.62-1.22-.95-3.4.27-2.36,1.82,2.99,4.41,7.47,12.05,13.81,8.84,2.7-1.37,4.84-3.68,7.61-4.91,1.41-.62,2.79-.3,4.27-.03,1.97.37,3.92.8,5.93.93s3.9-.22,5.76-1.17c1.64-.84,3.18-2.05,5.09-2.11s1.93-3.06,0-3c-1.65.05-3.11.6-4.55,1.38-1.31.71-2.59,1.61-4.09,1.87-3.67.65-7.3-1.33-10.95-1.27-2.78.04-5.24,2.09-7.38,3.63-1.89,1.35-4.06,3.36-6.42,1.97-2.85-1.68-4.69-4.99-6.49-7.65l-2.36,1.82c1.38,1.08,2.61,1.65,4.39,1.39,1.25-.18,1.27-1.74.66-2.51s-2.22-1.59-2.35-2.61l-2.8.76c1.25,1.76,3.33,2.39,5.39,1.74,1-.32,1.56-1.73.66-2.51-1.07-.92-3.4-2.36-2.86-4.01l-2.51.66c2.19,2.75,6.52,3.47,9.77,2.61,2.02-.53,3.91-1.46,5.9-2.08,2.2-.69,3.97-.55,6.16.13,1.76.55,3.51,1.2,5.38.92,1.58-.24,3.11-.79,4.63-1.27,2.72-.86,7.33-2.61,8.8,1.15.3.78.98,1.25,1.85,1.05,1.32-.31,2.02-1.37,2.75-2.42.31-.45.4-.61.89-.73.84-.21,1.94-.11,2.8-.09,1.69.04,3.2.63,4.86.85,2.46.32,4.88-.75,7.28-.23,2.75.6,5.31,1.84,8.03,2.55,1.63.42,3.32.45,4.9-.19,1.79-.73,3.2-2.1,4.7-3.28l-2.51-1.46c-.3,1.79-1.88,3.17-3.15,4.35-1.03.96-.15,2.45,1.06,2.56,3.67.34,7.16-1.47,9.27-4.43l-2.74-1.16c-.36,1.32-.83,2.61-1.49,3.8-.53.95-1.27,2.28-2.52,2.14-1.68-.19-2.04,2.6-.4,2.95,2.97.62,5.27-1.13,7.52-2.81l-2.2-1.69c-1.22,3.13-1.71,6.94-4.65,9.02-1.95,1.38-3.77,1.07-5.67-.2-2.02-1.35-3.69-3.17-5.76-4.47-2.61-1.65-5.11-1.64-8.07-1.05-2.29.46-4.57,1.37-6.9,1.6s-4.37-.73-6.07-2.12c-.55-.45-1.18-.57-1.82-.23-.28.14-.56.27-.83.42-1.7.92-.18,3.52,1.51,2.59h0Z"/>
  </g>
  <path d="M127.56,172.32c2.4-1.65,5.84-.72,8.48-.26,1.18.21,2.4.46,3.6.42,1.5-.05,2.91-.77,4.4-.74,1.82.04,3.34,1.3,4.81,2.22,1.4.87,2.83,1.46,4.5,1.47,1.29.01,2.58-.17,3.87-.3.69-.07,2.69-.53,3.3-.07.75.59,1.82-.47,1.06-1.06-.81-.63-1.92-.56-2.89-.5-1.23.07-2.46.26-3.69.35-1.02.07-2.06.17-3.07-.08s-1.83-.79-2.66-1.32c-1.5-.96-3.02-2.04-4.86-2.2-1.69-.14-3.23.69-4.9.72-1.42.03-2.85-.33-4.24-.57-2.74-.47-6.04-1.07-8.49.61-.79.54-.04,1.84.76,1.3h0Z"/>
  <path d="M126.01,172.8c-.11.95,1.2,1.52,1.88,1.83,1.03.46,1.89.76,2.98.51,2.27-.52,4.49.19,6.77.29,2.15.09,4.16-.9,6.3-.75,3.99.27,6.28,4.44,10.14,5.1s6.07-2.17,9.02-3.75c.85-.46.09-1.75-.76-1.3-2.66,1.42-5.09,4.34-8.41,3.49s-5.37-4.09-8.75-4.87c-1.46-.33-2.91-.15-4.35.19-2.13.5-3.98.33-6.13.05-.93-.12-1.87-.23-2.81-.15-.57.05-1.36.38-1.83.35-.44-.02-1-.29-1.4-.46-.23-.1-.45-.2-.67-.33s-.45-.41-.47-.2c.11-.96-1.39-.95-1.5,0h0Z"/>
  <path d="M125.37,172.25h0c.15-.35.3-.72.45-1.09.44-.11.19,0-.07-.08-.17-.05-.35-.07-.52-.11-.57-.12-1.14-.23-1.71-.33-1.25-.21-2.54-.39-3.81-.35-1.58.05-2.77.66-4.17,1.33-1.95.94-4.1.54-6.17.21-1.93-.3-3.84-.78-5.8-.59-1.81.18-3.43.93-5.1,1.6-1.82.73-3.6,1.07-5.56.87s-3.92-.78-5.81-1.4c-.92-.3-1.31,1.15-.4,1.45,3.46,1.12,7.24,2.15,10.83,1.02,1.81-.57,3.49-1.56,5.37-1.93,2.31-.47,4.59.24,6.87.54,1.78.24,3.72.62,5.46,0,1.62-.58,2.85-1.57,4.64-1.6,1.41-.03,2.82.2,4.2.47.6.12,1.54.51,2.16.35.43-.11.74-.71.45-1.1h0c-.57-.77-1.88-.03-1.3.74h0Z"/>
  <path d="M125.65,172.27c-.43.51-2.27.54-2.87.62-1.19.16-2.38.28-3.57.44-1.5.2-2.74,1.02-4.18,1.39-2.07.53-4.06-.7-6.08-.99-3.62-.5-6.94.79-10.26,2.05-1.82.69-3.78,1.54-5.75,1.62-2.2.09-4.23-.92-6.16-1.85-.87-.42-1.63.87-.76,1.3,1.81.88,3.66,1.77,5.69,2s3.99-.39,5.89-1.06c3.91-1.39,7.81-3.37,12.07-2.4,1.98.45,3.69,1.33,5.76.78,1.55-.41,2.87-1.23,4.49-1.43,1.36-.16,2.72-.31,4.07-.52.8-.13,2.15-.21,2.72-.89.61-.74-.44-1.8-1.06-1.06h0Z"/>
</svg>