<?xml version="1.0" encoding="UTF-8"?>
<svg id="Layer_30" data-name="Layer 30" xmlns="http://www.w3.org/2000/svg" viewBox="0 0 256 256">
  <defs>
    <style>
      .cls-1 {
        fill: #fff;
      }
    </style>
  </defs>
  <g>
    <path class="cls-1" d="M170.05,182.8l-2.91,2.91-2.74-2.49-2.16,3.24-3.41-3.08-2.56,4.95c.62-.16,1.23-.46,1.76-.76.76,1.8.46,2.52-.54,4.18.26-.47.61-.61.97-.93.89,2.65-5.2,5.81-6.13,8.26.9-.29,1.75-1.01,2.73-.79.25,1.93-.99,2.28-1.8,3.81.55-.47,1.29.22,2.02.14.13,1.68-1.58,2.89-3.71,2.56-1.44-.22-3.32-.31-4.6-1.12-.04,5-3.06,0-4.53-1.65-.49.54.08,2.66-.89,2.81-.48.07-1.93-2.02-2.44-2.38-.48,1.52-.05,3.48-2.3,2.96-2.38-.56-2.57-5.06-4.23-6.29-.04.19-.05.37-.09.56-.61-1.21-.99-2.97-1.14-4.33-.11-.99.24-1.95-.37-2.83-.81.68-.9,2.12-1.29,3.12-.4,1.04-1.21,1.91-1.53,2.93-.8-.53-.74-2.14-1.17-3.05-.43.96-.84,3.56-2.27,1.91-.33-.38-.51-2.19-.54-3.42-.3,4.28-4.59,10.59-8.51,11.29.26-.58,1.53-3.15,1.76-3.76-.97,1.18-2.85,3.97-4.24,4.63.25-1.27.63-2.79.5-4.12-1.36,1.85-3.23,3.22-5.32,3.89.13-1.74,1.88-4.05,1.31-5.84-1.55.99-3.38,3.05-5.51,2.27-.13-.68.6-2.8,1.04-3.31-1.28,1.5-6.32.68-7.31-1.24-.79-1.53,1.25-4.11-.73-4.81-3.27-1.16-1.36-1.23.32-3.37-2.72,1.46-2.24-4.18-1.9-4.27l-2.91,1.91-1.75-3.82-3.41,2.41-2.49-3.74-3.49,4.16c-.47,1.2-.99,3-1.48,4.29-.53,1.42-3.02,1.88-3.26,3.36.28-.12,3.3,1.12,3.52,1.03-4.71,5.12.82,2.94,1.5,4.46.24-.26-2.03,3.6-1.77,3.33-.29,1.98,5.32-.78,3.96,5.29,1.83-1.33,1.99-3.04,3.54-3.53.1.88-.65,1.69-.38,2.53.27.83-.68,3.21-.42,3.91.74,1.99,3.17-.51,4.33-1.51.25.92-1.82,5.37-.84,6.08.83.59,1.93-2.12,1.81-2.53.31,1.09-.35,2.38.18,3.45.61,1.23.73,3.61,1.83,4.41-.15-.68,1.42-2.13,1.5-2.83,1.12.97,1.57,5.74,2.57,5.82.04-1.1,1.53-3.25,1.25-4.32,1.09,1.07,1.24,1.83,2.3,2.94,1.36,1.42,2.65,4.06,4.33,4.88-.32-1.05-1.22-2-1.94-2.82,1.58,1.34,3.33,1.89,4.69,3.51,1.92,2.28,4.82,5.71,7.23,7.47.14-.75-.47-3.16-.47-3.92,1.94.71,3.26,1.96,4.82,3.23.31-.46.42-1.03.33-1.59,1.25.34,2.33,2.04,3.43,2.76.36-.61.15-1.83.65-2.29,1.04-.96,2.15.88,2.87,1.71,2.17,2.49,1.43,2.07,3.16.25,1.63-1.71,1.49.49,2.65,1.78,1.11-1.07,2.05-3.3,3.47-3.9.17.63.24,1.31.22,1.96,1.75-1.12,2.69-3.6,4.27-4.58.39,1.03.07,2.35.56,3.25,1.56-1.2,3.32-2.69,4.49-4.43-.28.47-.53.96-.68,1.47.94-1,1.57-2.27,2.57-3.24,1.44-1.4,3.4-2.38,4.72-3.9-.39.74-1.06,1.53-.96,2.41,2.56-1.37,4.71-3.67,7.25-5.04-.2.52-.6,1.06-.91,1.6,1.38-.91,7.83-5.19,6.78-7.08-.66.29-1.31.71-1.97.84,1.92-2.52,7.01-1.48,7.01-4.94-1.25.38-1.37-4.49-2.55-3.88.58-1.57,4.54,2.04,3.99.44-1.33-3.88,2.63-2.3,2.66-3.77.03-1.44-3.18-3.32-2.56-4.76.25-.59,3.18.95,3.55.55,1.21-1.29-.02-3.8-1.76-4.63.46-1.2,2.52-1.58,2.18-2.86-1.27,0-3.23-.69-4.4-1.15.65-.98,2.15-1.32,1.66-2.51-.98.18-1.61-.03-2.6.06.94-1.47,1.39-1.17,2.2-2.71l-2.6-3.84Z"/>
    <path d="M168.99,181.74l-2.91,2.91h2.12l-2.74-2.49c-.74-.68-1.8-.52-2.36.3l-2.16,3.24,2.36-.3-3.41-3.08c-.68-.61-1.89-.6-2.36.3l-2.56,4.95c-.58,1.12.38,2.6,1.69,2.2.74-.22,1.44-.54,2.12-.92l-2.2-.9c.52,1.3.31,1.85-.39,3.03-1.01,1.69,1.49,3.06,2.59,1.51.18-.25.5-.44.73-.62l-2.51-.66c.28,1.02-1.86,2.62-2.55,3.25-1.22,1.12-2.76,2.28-3.43,3.85-.45,1.05.32,2.72,1.69,2.2.75-.28,1.51-.83,2.33-.73l-1.5-1.5c.1,1.29-.98,2-1.6,3.05-.76,1.31.75,2.78,2.05,2.05-.41,0-.48.02-.21.08.15.04.3.09.45.14.34.08.67.12,1.02.13l-1.5-1.5c.03,2.18-5.06.71-6.06.14s-2.23.16-2.26,1.3c0,.1-.18,1.07-.12,1.14-.26-.37,1.06-.64,1.11-.43-.04-.2-.73-.69-.88-.86-.73-.82-1.35-1.74-2.07-2.56-.66-.76-1.87-.46-2.36.3-.3.47-.38.98-.42,1.53-.02.25-.07.53-.04.78,0,.11-.02.22-.06.33.59-.62,1.08-.76,1.47-.43-.09-.27-.76-.81-.96-1.05-.31-.35-.6-.74-.96-1.04-.85-.7-2.18-.5-2.51.66-.12.43-.19.87-.27,1.31-.05.27-.34.81-.01.68-.35.14-.99-.85-1.21-1.27-.8-1.56-1.12-3.54-2.54-4.71-.77-.63-2.31-.56-2.51.66-.03.19-.06.37-.09.56l2.74-.36c-.49-1.05-.78-2.27-.91-3.41-.16-1.35.09-2.48-.59-3.74-.46-.85-1.69-.97-2.36-.3-.87.88-1.14,1.98-1.47,3.14-.37,1.28-1.26,2.33-1.73,3.58l2.51-.66c-.55-.47-.51-1.71-.78-2.39-.57-1.43-2.31-1.4-2.89,0-.14.35-.24.71-.38,1.05-.04.09-.18.33-.18.42-.02.04-.04.07-.06.11-.18.32.18.29,1.08-.1-.06.12-.06.11-.06-.1s-.1-.47-.13-.68c-.09-.6-.11-1.22-.13-1.82-.06-1.96-2.83-1.9-3,0-.19,2.2-1.33,4.32-2.59,6.09-1.16,1.63-2.78,3.33-4.82,3.76l1.69,2.2c.62-1.38,1.35-2.71,1.91-4.12s-1.59-2.6-2.51-1.46c-1.16,1.44-2.27,3.5-3.94,4.4l2.2,1.69c.3-1.49.65-2.99.55-4.52s-1.91-1.92-2.8-.76c-1.13,1.48-2.66,2.6-4.42,3.2l1.9,1.45c.13-1.03.72-2.03,1.04-3.01.35-1.06.48-2.13.21-3.23-.22-.9-1.41-1.43-2.2-.9-1.21.81-2.76,2.59-4.36,2.11l1.1,1.45c-.08-.82.35-1.9.83-2.55,1.02-1.39-1.19-3.01-2.36-1.82-.68.7-2.44.3-3.27.06-.47-.14-1.26-.36-1.55-.8s0-1.14.08-1.61c.3-1.7.09-3.25-1.65-4-.22-.09-.91-.5-1.14-.48-.17.02.14,1.33.14,1.33,0,0,.07-.1.18-.15.61-.32,1.21-1.12,1.63-1.64,1.08-1.31-.24-3.12-1.82-2.36-.1.05.14.07.19.1.23.1-.01.12.06-.05.02-.05-.12-.61-.14-.8-.04-.4-.03-.82.01-1.23.03-.3.09.02.02-.19.01-.07.03-.14.05-.21-.1.3-.3.53-.58.7,1.58-1.08.11-3.66-1.51-2.59l-2.91,1.91,2.05.54-1.75-3.82c-.32-.69-1.44-.97-2.05-.54l-3.41,2.41,2.05.54-2.49-3.74c-.49-.74-1.7-1.09-2.36-.3-1.16,1.38-2.42,2.71-3.49,4.15-.55.74-.77,1.72-1.06,2.59-.25.76-.41,1.82-.92,2.44-.45.54-1.22.86-1.77,1.3-.66.53-1.16,1.16-1.37,1.99s.44,2.03,1.45,1.9c.2-.03-.28-.07-.03,0,.16.04.31.09.47.14.4.12.79.27,1.19.4.57.2,1.27.54,1.89.5l-1.06-2.56c-1.19,1.32-3.6,3.97-1.51,5.62.61.48,1.34.58,2.09.67.43.06.27.03.6.09.09.02.29.12.38.1-.07.01-.39-.38-.3-.22.36.65,1.41,1.02,2.05.54h.02c-.73-.58-1.47-1.14-2.2-1.71.07-.46.15-.29,0-.06-.09.14-.16.29-.24.44-.23.42-.47.83-.7,1.24-.36.63-.91,1.38-.93,2.13-.04,1.05,1.34,1.99,2.26,1.3h.02c-.75-.45-1.5-.88-2.26-1.31-.15,1.65,1.38,2.2,2.69,2.41.29.05.58.09.86.17.17.05.31.09.38.16.34.38.24,1.39.08,2.15-.32,1.55,1.34,2.37,2.51,1.46.69-.54,1.23-1.17,1.75-1.88.31-.42.61-1.07,1.13-1.27l-1.9-1.45c-.01.89-.43,1.64-.38,2.57.02.44.02.77-.08,1.27-.25,1.24-.68,2.55.06,3.71,1.78,2.8,4.93-.19,6.5-1.56l-2.51-.66c-.06-.33-.05,0-.09.12-.1.29-.16.61-.24.91-.17.61-.36,1.21-.51,1.82-.27,1.08-.6,2.44.02,3.46,1.75,2.85,4.95-1.05,4.73-3.15l-2.95.4c.17.89-.18,1.8-.02,2.71.12.69.44,1.32.63,1.99.38,1.35.67,2.86,1.78,3.82.93.8,2.61.32,2.56-1.06.01.3.03-.01.2-.28.16-.25.35-.49.52-.74.31-.44.59-.88.72-1.41l-2.51.66c1.45,1.45.61,5.58,3.24,6.2,1.03.25,1.79-.47,1.9-1.45.08-.74.62-1.54.87-2.22.32-.84.45-1.61.32-2.5l-2.51,1.46c.68.71,1.14,1.55,1.76,2.31.53.65,1.09,1.26,1.59,1.94,1.02,1.41,2.02,2.94,3.58,3.8,1.06.58,2.68-.4,2.2-1.69-.5-1.37-1.38-2.4-2.32-3.48l-2.12,2.12c1.12.91,2.38,1.56,3.53,2.42,1.06.79,1.85,1.92,2.7,2.91,1.84,2.13,3.74,4.21,6,5.89,1.01.76,2.15-.31,2.26-1.3.14-1.31-.41-2.62-.47-3.92l-1.9,1.45c1.59.63,2.86,1.78,4.16,2.84.71.58,1.87.62,2.36-.3.4-.76.59-1.49.54-2.35l-1.9,1.45c1.16.41,2.07,1.89,3.07,2.61.61.44,1.75.16,2.05-.54.13-.31.77-1.87.54-2.18-.73.07-.95.21-.66.42.11.09.21.19.3.3.22.24.42.5.62.75.72.89,1.64,2.39,2.87,2.59s1.76-.74,2.42-1.51c.11-.13.23-.26.35-.38.56-.4.3-.56-.79-.46,0,.02.2.42.21.44.27.66.66,1.24,1.11,1.8.51.62,1.6.54,2.12,0,1.07-1.11,1.76-2.96,3.17-3.66l-2.2-.9c.13.53.17,1.02.16,1.56,0,1.07,1.3,1.96,2.26,1.3s1.64-1.43,2.32-2.32c.59-.77,1.13-1.7,1.95-2.26l-2.2-.9c.36,1.21.2,2.42.71,3.61.43.99,1.69.82,2.36.3,1.78-1.39,3.42-2.88,4.72-4.74l-2.59-1.51c-.33.59-.61,1.19-.83,1.83-.49,1.4,1.53,2.56,2.51,1.46,1.15-1.3,1.97-2.81,3.33-3.91s2.79-1.96,3.96-3.23l-2.36-1.82c-.58,1.03-1.16,1.95-1.16,3.16,0,1.16,1.27,1.84,2.26,1.3,2.58-1.44,4.67-3.59,7.25-5.04l-2.05-2.05c-.25.56-.59,1.07-.91,1.6-.74,1.25.77,2.9,2.05,2.05,1.74-1.15,3.47-2.37,5.02-3.77s3.27-3.23,2.31-5.36c-.35-.78-1.38-.86-2.05-.54-.54.25-1.04.53-1.62.68l1.46,2.51c1.07-1.3,2.91-1.44,4.39-2.03,1.8-.72,2.98-1.97,3.06-3.97.04-1.05-.99-1.61-1.9-1.45.43-.08.76,0,1,.27-.06-.16-.08-.2-.08-.13,0-.22-.21-.59-.27-.8-.17-.53-.32-1.07-.54-1.59-.43-1.05-1.39-2.11-2.65-1.63l1.69,2.2c-.28.58-1.24.09-.28.46.37.14.73.36,1.08.53.81.41,1.76.9,2.64.37,1.08-.64.8-1.96.48-2.95-.04-.12-.17-.07.06-.11-.19.04.16-.03.22-.05.2-.05.4-.08.59-.14,2.59-.72,2.29-3.01.85-4.78-.36-.44-.78-.85-1.12-1.31-.06-.08-.22-.45-.31-.48-.24-.08-1.51,1.18-.62.47-1.11.88-.66.32-.3.55.71.44,2.44.84,3.25.65,1.46-.34,1.91-2.2,1.7-3.49-.27-1.68-1.43-3.15-2.92-3.94l.54,2.05c.33-.67,1.13-.98,1.63-1.51.68-.72.84-1.54.69-2.5-.1-.66-.84-1.08-1.45-1.1-1.37-.06-2.73-.61-4-1.1l.9,2.2c.42-.54,1.08-.82,1.47-1.39.49-.7.58-1.46.34-2.27s-1.03-1.16-1.85-1.05c-.72.1-1.47-.04-2.2,0l1.3,2.26c.67-.98,1.6-1.65,2.2-2.71.25-.44.3-1.07,0-1.51-.87-1.28-1.73-2.56-2.6-3.84-1.08-1.59-3.68-.09-2.59,1.51.87,1.28,1.73,2.56,2.6,3.84v-1.51c-.58,1.02-1.54,1.73-2.2,2.71-.62.92.19,2.32,1.3,2.26,1.01-.06,1.99.02,3-.12l-1.85-1.05c-.07-.24.4-.36-.02-.12-.19.11-.37.3-.54.45-.37.32-.65.65-.95,1.03-.65.84.11,1.9.9,2.2,1.54.6,3.13,1.14,4.8,1.2l-1.45-1.1c-.1-.64.2-.38-.2-.16-.24.13-.53.39-.74.56-.44.36-.83.78-1.08,1.29-.35.71-.22,1.65.54,2.05.65.35,1.27.91,1.45,1.67.06.14.07.29.05.44-.14.43.16.36.93-.19-.06-.09-.73-.19-.85-.23-1.11-.34-2.63-1.01-3.62-.04-1.22,1.19-.31,2.96.55,4.03.36.45.87,1.32,1.35,1.62.35.23-.08.84.44-.42.09-.21.44-.12.08-.09-.86.06-1.93.5-2.52,1.11-.83.87-1.13,2.82-.42,3.86.2.76.71.26,1.54-1.52-.14-.05-.15-.05-.02,0-.17-.13-.45-.22-.64-.32-.53-.27-1.06-.55-1.63-.75-1.13-.39-2.53-.28-3.11.92-.51,1.05.36,2.71,1.69,2.2-.47.05-.82-.07-1.03-.39.06.09.11.19.15.29.02.14.13.41.19.59.16.51.31,1.02.51,1.52.49,1.23,1.31,2.12,2.74,1.87l-1.9-1.45c-.05,1.16-1.68,1.37-2.56,1.65-1.47.45-3,1.01-4.01,2.23-.91,1.1-.09,2.93,1.46,2.51.82-.22,1.57-.62,2.33-.99l-2.05-.54c-.28-.61-.04-.29-.09-.28.07-.02-.1.13-.04.07-.19.21-.32.52-.51.74-.59.71-1.32,1.33-2.03,1.91-1.13.93-2.34,1.77-3.57,2.58l2.05,2.05c.31-.53.65-1.04.91-1.6.59-1.31-.65-2.84-2.05-2.05-2.58,1.45-4.67,3.6-7.25,5.04l2.26,1.3c0-.6.47-1.15.75-1.65.82-1.45-1.18-3.1-2.36-1.82s-2.64,2.14-3.96,3.23-2.18,2.61-3.33,3.91l2.51,1.46c.14-.4.32-.74.53-1.11.97-1.7-1.5-3.08-2.59-1.51s-2.69,2.92-4.25,4.13l2.36.3c-.37-.85-.14-1.99-.41-2.89s-1.38-1.46-2.2-.9c-1.77,1.22-2.53,3.38-4.27,4.58l2.26,1.3c0-.8-.09-1.58-.27-2.36-.24-.99-1.37-1.31-2.2-.9-1.76.88-2.47,2.78-3.78,4.13h2.12c-.91-1.12-1.1-3.06-3.02-2.81-.88.11-1.55.78-2.1,1.42-.18.21-.53.51-.63.77-.12.31-.81.24.51.12,1.05-.1.71.1.59-.17-.3-.7-1.23-1.43-1.72-2.04-.54-.66-1.17-1.34-2.01-1.61-.92-.3-1.92.01-2.54.74-.66.76-.4,1.6-.77,2.44l2.05-.54c-1.35-.97-2.15-2.33-3.79-2.92-.89-.32-1.95.52-1.9,1.45.08.3.03.58-.13.84l2.36-.3c-1.74-1.42-3.37-2.78-5.48-3.61-.89-.35-1.94.55-1.9,1.45.06,1.29.61,2.62.47,3.92l2.26-1.3c-2.13-1.6-3.92-3.71-5.65-5.72-.83-.96-1.59-1.95-2.6-2.74-1.08-.84-2.32-1.43-3.38-2.29-1.49-1.2-3.42.65-2.12,2.12.58.66,1.25,1.32,1.55,2.16l2.2-1.69c-1.39-.77-2.21-2.36-3.15-3.59-1.02-1.32-2.02-2.79-3.17-3.99s-2.71.09-2.51,1.46c-.02-.15-.2.6-.26.75-.13.35-.28.69-.42,1.03-.3.71-.53,1.37-.62,2.14l1.9-1.45c.62.15.38.49.27-.03-.04-.16-.11-.33-.16-.49-.19-.6-.35-1.21-.53-1.81-.32-1.09-.66-2.28-1.49-3.11s-2.23-.44-2.51.66c-.3,1.17-1.6,1.82-1.55,3.22l2.56-1.06c-.81-.7-.86-2.12-1.19-3.09-.22-.64-.43-1.08-.4-1.77.04-.82.11-1.51-.04-2.33-.31-1.64-3.12-1.29-2.95.4,0-.01,0,.17-.12.44-.09.19-.45.62-.46.81,0,.05,1.51.65,1.51.65.04-.04-.02-.32,0-.38.1-.32.13-.69.21-1.02.36-1.42,1.08-2.95.83-4.44-.2-1.2-1.74-1.33-2.51-.66-.58.51-1.14,1.06-1.78,1.48-.14.09-.37.16-.47.29l-.22.06.62.23c.16-.01-.13.28.05-.05.08-.14.07-.36.1-.52.16-.8.42-1.64.4-2.46,0-.37-.1-.68-.04-1.05.12-.65.36-1.18.37-1.86.01-.9-.98-1.8-1.9-1.45-1.98.75-2.61,2.67-4.2,3.91l2.51,1.46c.43-2.05.45-4.5-1.65-5.64-.62-.34-1.29-.46-1.98-.57-.23-.04-.53-.15-.75-.14s.08.14-.01,0c.22.14.37.32.44.56.02.24.04.27.04.09.1-1.07-1.38-1.96-2.26-1.3h-.02c.75.45,1.5.88,2.26,1.31-.03.96-.25.7-.04.4.1-.13.17-.32.25-.46.21-.39.43-.77.65-1.16.27-.49.81-1.17.89-1.74.16-1.11-1.02-2.58-2.2-1.69h-.02c.68.19,1.37.37,2.05.55-.65-1.19-2.09-1.28-3.07-1.44.08.01-.42-.11-.53-.11,0,0,.02.11,0,0,.03.12.35.52.42.6.02.02.05.24,0,.25.07-.02.24-.42.28-.49.34-.53.77-.99,1.19-1.46.8-.89.32-2.66-1.06-2.56.48-.04-.12-.06-.4-.15-.4-.13-.79-.27-1.18-.41-.56-.19-1.32-.55-1.94-.47l1.45,1.9c.13-.53.89-.83,1.31-1.13.65-.46,1.29-.95,1.69-1.65s.62-1.6.88-2.38c.17-.5.33-1,.5-1.5.12-.35.47-1.03.01-.38,1.01-1.45,2.32-2.76,3.45-4.11l-2.36-.3,2.49,3.74c.42.63,1.36,1.03,2.05.54l3.41-2.41-2.05-.54,1.75,3.82c.32.71,1.43.95,2.05.54l2.91-1.91-1.51-2.59c-1.32.9-1.12,3.24-.85,4.6.43,2.19,2.21,3.25,4.27,2.26l-1.82-2.36c-.97,1.18-3.41,2.55-2.23,4.37.29.45.75.73,1.22.96.26.13.53.25.81.34s.49.35.34-.01c.14.33-.14.99-.19,1.31-.1.55-.18,1.09-.14,1.65.28,4,7.5,5.52,10.04,2.92l-2.36-1.82c-.75,1.02-1.36,2.8-1.24,4.06.06.68.42,1.24,1.1,1.45,2.71.81,4.59-1.03,6.67-2.42l-2.2-.9c.21.87-.28,1.85-.59,2.65-.36.93-.65,1.8-.78,2.79s1.05,1.74,1.9,1.45c2.56-.88,4.58-2.43,6.21-4.58l-2.8-.76c.08,1.27-.2,2.48-.45,3.72s1.01,2.34,2.2,1.69c1.96-1.05,3.19-3.19,4.55-4.87l-2.51-1.46c.07-.18-.18.41-.24.52-.18.38-.36.76-.54,1.14-.28.58-.56,1.15-.83,1.74-.54,1.2.35,2.49,1.69,2.2,2.7-.57,4.82-2.71,6.4-4.85,1.7-2.29,2.95-5.02,3.21-7.89h-3c.06,1.87.06,4.82,2.37,5.39s2.77-1.97,3.39-3.47h-2.89c.51,1.27.44,2.76,1.56,3.71.9.77,2.1.43,2.51-.66.39-1.04,1.14-1.89,1.53-2.93.28-.77.31-1.86.9-2.46l-2.36-.3c.3.56.12,1.25.15,1.86s.14,1.26.26,1.88c.22,1.19.58,2.32,1.1,3.42s2.54.89,2.74-.36c.03-.19.06-.37.09-.56l-2.51.66c.83.68,1.12,1.91,1.52,2.86.51,1.24,1.12,2.58,2.3,3.33s2.78.92,3.88.02,1-2.31,1.35-3.54l-2.51.66c1.08.88,1.86,2.79,3.45,2.81.93.02,1.69-.68,1.97-1.53.18-.54.04-1.67.26-2.02l-2.36.3c1.13,1.3,2.07,3.08,3.63,3.93.83.45,1.85.44,2.55-.24.82-.78.88-2.04.91-3.1l-2.26,1.3c3.1,1.76,10.64,2.6,10.57-2.73-.01-.83-.68-1.48-1.5-1.5-1.07-.03-1.72-.53-2.77.06l2.05,2.05c.93-1.6,2.17-2.53,2.01-4.56-.07-.88-.64-1.4-1.5-1.5-1.17-.14-2.07.45-3.13.84l1.69,2.2c1.39-3.28,7.46-5.08,6.28-9.41-.32-1.18-1.66-1.34-2.51-.66-.48.39-.84.73-1.2,1.23l2.59,1.51c1.07-1.79,1.49-3.34.69-5.34-.36-.9-1.28-1.41-2.2-.9-.46.25-.9.46-1.4.61l1.69,2.2c.85-1.65,1.71-3.3,2.56-4.95l-2.36.3,3.41,3.08c.75.67,1.8.53,2.36-.3l2.16-3.24-2.36.3,2.74,2.49c.6.54,1.53.6,2.12,0l2.91-2.91c1.37-1.37-.75-3.49-2.12-2.12Z"/>
  </g>
  <path d="M161.44,189.18c.05.29.13.57.21.85.06.21.12.42.15.63l-.03-.2c.04.29.02.58-.02.87l.03-.2s0,.06-.01.09c-.03.21-.04.39.08.58.09.16.27.3.45.34.19.04.41.03.58-.08.15-.1.32-.26.34-.45.08-.55.11-1.06-.02-1.6-.1-.42-.24-.82-.32-1.24-.03-.18-.2-.36-.34-.45-.16-.09-.4-.13-.58-.08-.41.13-.6.51-.52.92h0Z"/>
  <path d="M161,196.76l-.08,1.15c0,.1.02.2.06.29.03.09.08.17.16.24.13.13.34.23.53.22s.4-.07.53-.22l.12-.15c.07-.12.1-.24.1-.38l.08-1.15c0-.1-.02-.2-.06-.29-.03-.09-.08-.17-.16-.24-.13-.13-.34-.23-.53-.22s-.4.07-.53.22l-.12.15c-.07.12-.1.24-.1.38h0Z"/>
  <path d="M162.36,198.42c-.35,1.91-1.2,3.47-2.17,5.15-.2.35-.08.82.27,1.03s.82.08,1.03-.27c1-1.74,1.96-3.51,2.32-5.51.07-.4-.11-.81-.52-.92-.36-.1-.85.12-.92.52h0Z"/>
  <path d="M165.41,199.6c-.03.35-.05.69-.09,1.04,0,.07-.01.13-.02.2,0,.04-.01.09-.02.13.01-.09.01-.09,0,0-.02.15-.05.3-.07.45-.06.3-.13.6-.21.89-.04.15-.09.3-.15.45-.03.09-.07.17-.1.26-.03.08-.04.09,0,.02-.02.04-.04.09-.06.13-.16.36-.12.82.27,1.03.33.17.86.11,1.03-.27.3-.68.54-1.37.67-2.1s.2-1.47.26-2.21c.03-.39-.37-.77-.75-.75-.43.02-.72.33-.75.75h0Z"/>
  <path d="M156.21,206.11c.1.25.1.44.03.71-.08.33-.22.64-.38.94-.31.59-.7,1.14-1.07,1.69-.51.76-1.07,1.46-1.71,2.12s-1.5,1.22-2.03,2c-.35.51.24,1.34.85,1.1,1.75-.69,3.4-1.6,5.15-2.29.38-.15.64-.5.52-.92-.1-.36-.54-.67-.92-.52-1.75.69-3.4,1.6-5.15,2.29l.85,1.1c.25-.37.66-.62.99-.91.38-.34.74-.71,1.09-1.09.66-.72,1.23-1.5,1.79-2.31.79-1.15,2.01-2.82,1.44-4.3-.15-.38-.5-.64-.92-.52-.36.1-.67.54-.52.92h0Z"/>
  <path d="M156.79,215.31c-.02.08-.06.15-.08.22.07-.21.03-.08,0-.03-.02.04-.04.09-.07.13-.08.16-.18.31-.28.46-.03.04-.05.08-.08.11-.11.15.08-.1-.01.02-.06.07-.12.15-.19.22-.13.15-.27.29-.41.43s-.29.27-.44.4c-.04.03-.08.06-.11.09-.13.11.14-.1,0,0-.08.06-.15.11-.23.17-.15.1-.31.2-.46.29-.08.05-.16.09-.25.13-.04.02-.07.03-.11.05-.16.08.14-.06.01,0l.92.52s-.02-.08-.04-.13c.05.14.02.17.02.07,0-.12-.05.21,0,.03,0-.04.02-.07.03-.11.03-.12-.09.18,0,0,.02-.04.04-.07.06-.11.05-.09.1-.17.16-.26s.12-.17.18-.25c.1-.13-.11.14-.01.01.04-.04.07-.09.11-.13.14-.18.28-.35.41-.54.22-.33.07-.84-.27-1.03-.38-.2-.79-.08-1.03.27-.05.08-.11.15-.17.23.15-.2.03-.04,0,0s-.07.09-.11.13c-.17.21-.33.42-.48.65-.28.44-.52,1.03-.31,1.55.07.18.16.35.34.45.17.09.39.15.58.08.85-.34,1.61-.87,2.26-1.51s1.22-1.37,1.5-2.23c.12-.37-.14-.84-.52-.92-.41-.09-.79.12-.92.52h0Z"/>
  <path d="M148.55,219.4c-.19.26-.32.43-.57.71-.23.27-.48.53-.73.77s-.51.49-.78.72c-.29.25-.42.35-.71.56l1.1.85c.53-1.52,1.18-3.01,1.57-4.59.09-.38-.12-.83-.52-.92s-.82.12-.92.52c-.39,1.57-1.03,3.06-1.57,4.59-.21.59.57,1.23,1.1.85,1.28-.92,2.41-2.02,3.33-3.3.23-.32.06-.85-.27-1.03-.39-.21-.78-.07-1.03.27h0Z"/>
  <path d="M145.09,211.54c-1.41,1.72-2.72,3.52-4.14,5.23l1.28.53c.1-1.29.3-2.69.8-3.87.16-.37.11-.8-.27-1.03-.32-.18-.87-.11-1.03.27-.63,1.47-.88,3.04-1,4.62-.05.63.87,1.02,1.28.53,1.43-1.71,2.73-3.51,4.14-5.23.26-.31.31-.75,0-1.06-.26-.26-.8-.31-1.06,0h0Z"/>
  <path d="M140.6,223.34c-1.11,1.33-2.1,2.82-3.48,3.9l1.28.53c-.21-1.75.68-3.43.55-5.18-.04-.59-.83-1.07-1.28-.53-.13.15-.29.21-.47.3-.23.11-.44.26-.6.45l1.25.73c.01-.1.03-.19.05-.28.24-.95-1.12-1.3-1.45-.4-.63,1.75-1.59,3.53-2.83,4.92l1.28.53c-.22-2.09.61-4.09.95-6.12.07-.4-.11-.81-.52-.92-.36-.1-.85.12-.92.52-.36,2.16-1.25,4.29-1.01,6.52.03.3.16.56.46.69.27.11.62.07.82-.16,1.42-1.6,2.5-3.58,3.22-5.58l-1.45-.4c-.02.09-.04.19-.05.28-.05.33.03.67.34.85.27.16.7.14.91-.12.12-.14.28-.21.46-.29.23-.11.44-.26.61-.45l-1.28-.53c.13,1.76-.76,3.42-.55,5.18.08.68.75.95,1.28.53,1.38-1.08,2.37-2.56,3.48-3.9.26-.31.3-.76,0-1.06-.27-.27-.8-.31-1.06,0h0Z"/>
  <path d="M136.75,210.23c-.17.58-.37,1.15-.59,1.71-.06.14-.11.28-.17.42s.02-.05-.04.1c-.03.07-.06.14-.09.21-.12.27-.24.54-.36.81l1.37.18c-.03-.08-.05-.17-.06-.25-.04-.2,0,.14,0-.06,0-.16-.01-.32,0-.48,0-.31.03-.62.02-.93-.02-.38-.08-.76-.14-1.14-.01-.08-.02-.15-.04-.23,0-.03-.04-.31-.03-.18-.02-.18-.03-.35-.04-.53,0-.39-.34-.77-.75-.75s-.76.33-.75.75c0,.4.07.79.13,1.18.03.18.06.35.08.53-.02-.13.02.15.02.18,0,.08.01.17.02.25.02.69-.1,1.39.11,2.06.09.29.32.5.62.54.27.04.63-.09.75-.36.53-1.18,1.05-2.37,1.41-3.61.11-.38-.13-.83-.52-.92s-.81.12-.92.52h0Z"/>
  <path d="M129.1,202.93c1.09,2.2,1.11,4.85,1.14,7.25.02.96,1.52.97,1.5,0-.04-2.69-.14-5.55-1.35-8-.43-.87-1.72-.11-1.3.76h0Z"/>
  <path d="M124.67,202.14c0,1.01.18,2.02.17,3.03,0,.39.35.77.75.75s.75-.33.75-.75c0-1.01-.16-2.02-.17-3.03,0-.39-.34-.77-.75-.75s-.75.33-.75.75h0Z"/>
  <path d="M121.68,203.92c-1.34,1.81-2.41,3.98-2.26,6.28.03.4.33.75.75.75.39,0,.78-.34.75-.75-.13-2.06.87-3.91,2.06-5.52.24-.33.05-.84-.27-1.03-.38-.22-.78-.06-1.03.27h0Z"/>
  <path d="M121.12,222.12c-.26,1.44-.58,2.88-1.03,4.28l.92-.52s-.06-.02-.08-.03c.18.02.14.07.07.02-.03-.02-.06-.04-.09-.05-.12-.07.02-.02.04.03-.02-.05-.14-.12-.18-.16-.06-.06-.12-.13-.18-.2-.03-.04-.06-.07-.09-.11-.1-.12.08.12,0,0-.06-.08-.12-.16-.18-.25-.13-.18-.24-.37-.36-.56-.38-.64-.71-1.3-1.05-1.96-.18-.35-.7-.48-1.03-.27-.36.23-.46.65-.27,1.03.36.71.71,1.42,1.13,2.1s1.01,1.63,1.86,1.86c.4.11.8-.14.92-.52.44-1.4.76-2.83,1.03-4.28.07-.38-.11-.83-.52-.92-.37-.08-.85.11-.92.52h0Z"/>
  <path d="M126.37,226.95s.06-.07.1-.11c.04-.04.17-.14,0,0l-1.13-.65c0,.2,0,.41-.01.61,0,.13-.02.26-.03.39,0,.03,0,.07-.01.1s-.02.14,0,0,0-.01,0,.02c0,.03-.01.07-.02.1-.04.25-.09.5-.18.74,0,.02-.02.05-.03.07-.04.12.08-.18.03-.07-.02.05-.05.1-.07.14-.01.02-.03.04-.04.06-.05.09.14-.16.06-.08-.03.03-.06.06-.09.09l1.18.15s-.03-.05-.04-.08l.04.1s-.03-.09-.05-.13c-.03-.09-.06-.17-.08-.26-.05-.18-.09-.35-.14-.53-.1-.4-.23-.8-.44-1.16-.19-.34-.69-.49-1.03-.27s-.47.66-.27,1.03c.04.07.07.18.12.25-.04-.1-.05-.13-.03-.07,0,.02.02.04.02.06.02.04.03.09.04.13.06.17.1.35.15.53.1.41.22.8.4,1.18.1.21.33.33.55.36.25.03.44-.05.63-.21.25-.2.39-.52.5-.81.1-.25.15-.51.2-.77.09-.55.15-1.11.14-1.66,0-.27-.14-.51-.37-.65-.21-.12-.55-.16-.76,0-.14.11-.28.21-.39.35-.13.16-.22.32-.22.53,0,.18.08.4.22.53.28.25.79.32,1.06,0h0Z"/>
  <path d="M112.03,217.4c.11.92.12,1.85.19,2.78.03.45.08.9.17,1.35.04.18.09.36.11.54-.01-.13,0,.07,0,.1,0,.09,0,.09.01,0,0,.04-.02.08-.03.12l1.1-.45c-1.31-.79-2.22-2.4-3.51-3.4-.32-.25-.75-.31-1.06,0-.26.26-.32.81,0,1.06,1.4,1.08,2.27,2.71,3.81,3.63.43.26.95,0,1.1-.45.14-.43.05-.89-.04-1.32s-.12-.64-.16-1.08c-.08-.96-.09-1.92-.2-2.87-.05-.4-.31-.75-.75-.75-.37,0-.8.34-.75.75h0Z"/>
  <path d="M104.5,217.19c.1.51.27,1,.34,1.51l-.03-.2c.03.2.04.4.02.6l.03-.2s-.02.08-.03.13c0,.04-.05.12.02-.03s.03-.07,0-.03c-.05.08.15-.17.08-.11-.08.08.18-.12.1-.07-.07.04-.03-.03.13-.05-.02,0-.04.01-.06.01l.2-.03s-.07,0-.1,0l.2.03s-.13-.04,0,.01c.08.03.09.04.05.02-.01,0-.03-.02-.04-.02,0,0,.18.15.07.05-.02-.02-.04-.04-.06-.06-.02-.02-.04-.04-.06-.07-.08-.09.11.15.04.05-.04-.06-.08-.12-.12-.18-.14-.22-.25-.46-.4-.68-.22-.32-.5-.61-.79-.87-.34-.31-.72-.6-1.11-.85-.33-.21-.84-.08-1.03.27-.2.37-.09.8.27,1.03.08.05.16.1.24.16.03.02.23.14.23.17l-.07-.06s.05.04.08.06c.04.03.08.06.11.09.09.07.17.15.26.23.13.12.25.24.37.37.06.07.12.14.19.21.07.07-.13-.18-.07-.09.02.03.04.05.05.08.31.49.54,1.08,1.06,1.39.63.37,1.44,0,1.58-.72.1-.5.02-1.01-.09-1.5-.07-.36-.19-.71-.26-1.07-.08-.39-.56-.64-.92-.52-.41.13-.61.51-.52.92h0Z"/>
  <path d="M108.15,209.23c.07.37.09.59.12,1.01.03.37.04.73.06,1.1.04.78.11,1.58.32,2.34l.72-.95s-.05,0-.08,0h.12s-.03,0-.04,0c0,0-.08-.03-.08-.02.02-.02.16.09.07.03-.02-.02-.05-.03-.07-.04-.03-.02-.11-.1-.03-.02.08.08-.06-.05-.08-.08-.05-.05-.09-.09-.14-.14-.02-.03-.04-.05-.07-.08-.07-.07.08.11.02.03-.09-.13-.18-.25-.26-.38-.27-.45-.48-.92-.71-1.39-.17-.36-.71-.48-1.03-.27-.37.24-.45.65-.27,1.03.26.54.49,1.08.82,1.58.42.63,1,1.26,1.82,1.27.49,0,.85-.49.72-.95-.05-.18-.09-.37-.13-.56-.02-.09-.03-.19-.05-.28,0-.05,0-.05,0,0,0-.05-.01-.11-.02-.16-.04-.37-.06-.73-.08-1.1-.04-.79-.08-1.57-.23-2.34-.07-.39-.56-.64-.92-.52-.41.13-.6.51-.52.92h0Z"/>
  <path d="M98.59,206.36c.29,1.3.7,2.57,1.18,3.82.21.55.43,1.09.7,1.61.11.21.22.42.3.63.09.23.13.38.13.54l1.13-.65c-.8-.39-1.36-1.27-1.94-2.01-.63-.82-1.35-1.74-2.41-1.99-.94-.22-1.34,1.22-.4,1.45.27.06.22.04.45.19.04.03.08.05.12.08-.09-.07.04.03.05.04.09.08.17.16.25.24.36.36.62.72.9,1.09.62.82,1.26,1.75,2.21,2.2.51.25,1.11-.05,1.13-.65s-.23-1.11-.48-1.62c-.27-.55-.46-.92-.66-1.45-.49-1.28-.92-2.59-1.23-3.94-.21-.94-1.66-.54-1.45.4h0Z"/>
  <path d="M94.1,208.16c.28.97.57,1.96,1.14,2.8.26.39.58.74.92,1.07.16.15.32.31.47.47.08.08.15.16.22.24.03.04.06.07.09.11-.08-.1.05.08.06.08.22.32.67.5,1.03.27.32-.21.51-.68.27-1.03-.27-.38-.58-.72-.92-1.05-.15-.15-.3-.29-.44-.44-.08-.08-.15-.16-.22-.25-.03-.04-.06-.07-.09-.11-.08-.1.09.14-.04-.05-.54-.8-.76-1.56-1.03-2.51-.11-.38-.53-.65-.92-.52s-.64.52-.52.92h0Z"/>
  <path d="M103.08,205.97c.2.33.37.67.56.99.22.38.49.74.8,1.04.28.28.78.3,1.06,0s.3-.77,0-1.06c-.13-.13-.25-.26-.36-.41l.12.15c-.35-.46-.59-.99-.88-1.48-.1-.16-.26-.29-.45-.34s-.42-.03-.58.08c-.34.22-.49.67-.27,1.03h0Z"/>
  <path d="M114.58,212.92l.42.41c.07.07.15.12.24.16.09.05.19.07.29.06.1,0,.2-.02.29-.06.09-.03.17-.08.24-.16l.12-.15c.07-.12.1-.24.1-.38l-.03-.2c-.04-.13-.1-.24-.19-.33l-.42-.41c-.07-.07-.15-.12-.24-.16-.09-.05-.19-.07-.29-.06-.1,0-.2.02-.29.06-.09.03-.17.08-.24.16l-.12.15c-.07.12-.1.24-.1.38l.03.2c.04.13.1.24.19.33h0Z"/>
  <path d="M93.28,195.1c.21.02,0-.01-.05-.04-.24-.1-.56.02-.73.19-.19.19-.26.47-.19.73.29,1.13.68,2.29,1.32,3.28.21.33.67.5,1.03.27.33-.21.5-.67.27-1.03-.15-.23-.28-.46-.4-.7-.06-.13-.12-.25-.18-.38-.03-.08-.03-.06.01.03-.01-.03-.03-.07-.04-.1-.03-.07-.05-.13-.08-.2-.2-.51-.36-1.04-.49-1.57l-.92.92c.14.06.29.07.45.09.39.04.77-.38.75-.75-.02-.44-.33-.7-.75-.75h0Z"/>
  <path d="M88.23,196.38c.11.59.51,1.12.91,1.55.43.48.92.89,1.4,1.31s.98.84,1.43,1.31c.1.11.2.22.29.33.05.06.04.05-.02-.03.02.03.04.05.06.08.04.05.07.11.11.16.03.05.06.11.09.16.01.03.03.05.04.08.03.07.02.05-.03-.06.05.02.07.26.08.31l.92-.92c-.86-.18-1.7-.52-2.52-.85-.06-.02-.12-.05-.18-.07-.05-.02-.04-.02.03.01-.03-.01-.06-.03-.09-.04-.13-.05-.25-.11-.38-.17-.22-.1-.43-.2-.64-.31-.18-.09-.35-.19-.52-.3-.02-.01-.19-.15-.2-.14.05-.02.15.13.03.02-.02-.02-.05-.05-.07-.07-.28-.3-.78-.28-1.06,0-.3.3-.28.76,0,1.06s.66.51,1.02.7c.5.26,1.02.49,1.54.7.85.35,1.73.71,2.64.9.61.12,1-.35.92-.92s-.48-1.11-.86-1.54c-.42-.48-.91-.89-1.38-1.31s-.99-.85-1.44-1.32c-.1-.11-.21-.22-.3-.33-.02-.03-.05-.06-.07-.08.06.08.07.09.02.03-.04-.06-.08-.11-.11-.16-.05-.08-.17-.23-.18-.32.05.11.05.13.03.06,0-.03-.02-.05-.03-.08-.02-.05-.03-.1-.04-.16-.07-.4-.56-.62-.92-.52-.42.11-.6.52-.52.92h0Z"/>
  <path d="M83.99,193.76c.14.69.28,1.38.5,2.05.06.18.17.35.34.45.16.09.4.13.58.08.37-.12.66-.52.52-.92-.22-.67-.35-1.36-.5-2.05-.08-.38-.55-.64-.92-.52-.41.13-.61.51-.52.92h0Z"/>
  <path d="M88.37,188.82c0,.18,0,.35-.02.53-.01.11-.03.23-.04.34-.03.35.06.71.17,1.04.06.18.17.35.34.45.16.09.4.13.58.08s.36-.17.45-.34.14-.39.08-.58c-.06-.18-.11-.36-.14-.54l.03.2c-.02-.16,0-.31.02-.47.03-.23.04-.46.04-.69,0-.19-.08-.39-.22-.53-.13-.13-.34-.23-.53-.22s-.4.07-.53.22-.22.33-.22.53h0Z"/>
  <path d="M122.85,210.24c-.61,1.43-.83,2.89-.56,4.43.24,1.39.87,2.68,1.55,3.9.25.45,1.07.53,1.3,0,.48-1.1.66-2.26.84-3.43.06-.4-.1-.81-.52-.92-.36-.1-.86.12-.92.52-.16,1.02-.27,2.12-.69,3.08h1.3c-.58-1.04-1.11-2.12-1.35-3.3s-.11-2.41.36-3.51c.16-.37.11-.8-.27-1.03-.32-.18-.87-.11-1.03.27h0Z"/>
  <path d="M130.84,216.46s.05.08.07.12c-.04-.1,0,0,0,.05s.02.09.03.14c.02.12,0-.1,0,.02,0,.12,0,.24,0,.35,0,.05,0,.11-.01.16,0-.08,0,.03,0,.05-.08.5-.23.99-.38,1.47-.32,1.02-.44,2.14-.97,3.08h1.3s-.05-.09-.08-.13c-.02-.03-.07-.16-.02-.03-.04-.1-.07-.21-.1-.32-.03-.12-.06-.24-.08-.35-.01-.07-.02-.14-.04-.21,0-.01-.03-.18-.02-.1-.07-.47-.09-.95-.14-1.42-.04-.4-.32-.75-.75-.75-.38,0-.79.34-.75.75.06.57.09,1.14.17,1.71s.18,1.14.49,1.61,1.01.51,1.3,0c.62-1.11.8-2.4,1.17-3.6.33-1.06.69-2.34.1-3.37-.48-.84-1.78-.08-1.3.76h0Z"/>
  <path d="M161.44,206.86c-.22.76-.52,1.44-.8,2.1-.32.75-.65,1.51-.86,2.3-.13.5.37,1.14.92.92.82-.33,1.66-.84,2.11-1.63.19-.34.09-.84-.27-1.03s-.82-.1-1.03.27c-.04.07-.08.14-.13.2.11-.14-.07.07-.09.09-.05.05-.1.09-.14.14-.03.03-.07.06-.1.09.06-.05.06-.04-.01,0-.13.09-.26.18-.4.26-.08.04-.15.08-.23.12-.04.02-.08.04-.11.05.09-.04.09-.04.01,0l.92.92c.42-1.56,1.2-2.82,1.66-4.4.11-.38-.13-.83-.52-.92s-.81.12-.92.52h0Z"/>
  <path d="M84.3,187.54c-.32.4-.56.84-.69,1.33s-.13,1.01-.04,1.52c.03.18.2.36.34.45.16.09.4.13.58.08s.36-.17.45-.34c.1-.19.11-.37.08-.58,0-.04-.02-.09-.02-.14l.03.2c-.03-.23-.03-.45,0-.68l-.03.2c.03-.24.1-.47.19-.69l-.08.18c.09-.2.19-.39.33-.56l-.12.15s.03-.04.04-.05c.13-.16.22-.32.22-.53,0-.18-.08-.4-.22-.53s-.33-.23-.53-.22c-.19,0-.41.07-.53.22h0Z"/>
  <path d="M167.09,191.58c-.1.67-.15,1.35-.12,2.03,0,.2.08.39.22.53.13.13.34.23.53.22s.4-.07.53-.22.23-.33.22-.53c-.02-.56,0-1.13.07-1.68l-.03.2s.01-.09.02-.14c.03-.21.03-.39-.08-.58-.09-.16-.27-.3-.45-.34-.19-.04-.41-.03-.58.08-.15.1-.32.26-.34.45h0Z"/>
  <path d="M164.61,188.4c.05.19.09.39.12.59l-.03-.2c.04.3.05.61.03.91-.01.19.09.4.22.53s.34.23.53.22.4-.07.53-.22.21-.32.22-.53c.03-.57-.03-1.15-.18-1.7-.05-.18-.18-.35-.34-.45s-.4-.13-.58-.08-.36.17-.45.34-.13.38-.08.58h0Z"/>
</svg>