<?xml version="1.0" encoding="UTF-8"?>
<svg id="Layer_30" data-name="Layer 30" xmlns="http://www.w3.org/2000/svg" viewBox="0 0 256 256">
  <defs>
    <style>
      .cls-1 {
        fill: #fff;
      }

      .cls-2 {
        opacity: .3;
      }

      .cls-3 {
        fill: #435054;
      }
    </style>
  </defs>
  <g>
    <path class="cls-1" d="M170.45,195.69c.46-1.2,1.96-2.74,1.61-4.01-1.27,0-2.67.47-3.84,0,.65-.98,2.15-1.32,1.66-2.51-.98.18-1.61-.03-2.6.06.94-1.47,1.39-1.17,2.2-2.71-3.01.2,1.23-4.39.73-5.47-.46-.97-1.71-.03-2.2-.93-.34-.63.52-1.45.21-2.17-1.13.27-2.29.95-2.51-.65-1.05.1-1.35,1.2-1.98,1.91-.02-1.07-.06-1.96-.43-2.98-.54-1.5,3.42-2.13,2.57-2.88-.32-.28-4.8.17-5.3-.16-.47-.31-1.11-.11-1.51-.34-.93-.53,3.13-1.59,1.99-1.79.13.46-4.34.93-4.16,1.4-1.41-.62-3.54-2.78-4.97-2.56.02.08.14.21.14.27-1.38-.71-2.85-1.33-4.16-2.18.11.54-.12,1.05-.14,1.54-1.39-.5-1.94-1.3-3.54-1.6-1.68-.32-3.4.59-5.05.27-2.6-.51,4.34-1.71,1.77-1.91l-11.14,2.49c-.81-1.06-1.24,2.72-2.57,2.62-1.13-.08-6.4-3.97-5.76-1.62-1.31.5-3.07-1.2-4.35-1.64.26-.1-6.04-1.62-5.77-1.7-1.58-.09,3.58,1.05,2.13,1.56-1.69.6-8.49-.86-10.11-.09.58.24,6.15,1.98,6.75,2.26-2.94,1.12-8.41-1.76-11.59-.78.03,0-1.98,1.31-1.92,1.31-1.58.08-4.62-.33-2.93,1.69-.52.55-1.31.25-2.01.56-.73.32-1.16.82-1.74,1.35.37,1.03.9,1.93,1.6,2.8-1.22,1.23-2.66.13-3.11,1.76-.26.95.48,3.16,1.41,3.5-.92-.05-4.7.53-2.93,1.84-.77,1.03-4.78,4.67-1.62,4.08-.47,1.2-1.6,1.3-2.08,2.58-.53,1.42-.69,3.1-.93,4.58.28-.12.97-.1,1.19-.19-.54,1.53-.97,3.78-.29,5.29.24-.26.8-.5,1.06-.78-.29,1.98-1.15,4.02-1.46,5.98,2,.92,3.23-.77,4.78-1.26.1.88.42,1.59.69,2.43.27.83.14,1.97.4,2.67.74,1.99,1.28.82,2.44-.17.25.92-.91,3.78.08,4.48.83.59,1.02-.52.9-.94.31,1.09,1.56,1.9,2.09,2.97.61,1.23.49,3.35,1.59,4.15-.15-.68-.25-1.4-.17-2.09,1.12.97,2.75,4.47,3.76,4.55.04-1.1-.66-2.21-.93-3.28,1.09,1.07,2.24,2.05,3.3,3.16,1.36,1.42,2.65,4.06,4.33,4.88-.32-1.05-1.22-2-1.94-2.82,1.58,1.34,3.33,1.89,4.69,3.51,1.92,2.28,4.82,5.71,7.23,7.47.14-.75-.47-3.16-.47-3.92,1.94.71,3.26,1.96,4.82,3.23.31-.46.42-1.03.33-1.59,1.25.34,2.33,2.04,3.43,2.76.36-.61.15-1.83.65-2.29,1.04-.96,2.15.88,2.87,1.71,2.17,2.49,1.43,2.07,3.16.25,1.63-1.71,1.49.49,2.65,1.78,1.11-1.07,2.05-3.3,3.47-3.9.17.63.24,1.31.22,1.96,1.75-1.12,2.69-3.6,4.27-4.58.39,1.03.07,2.35.56,3.25,1.56-1.2,3.32-2.69,4.49-4.43-.28.47-.53.96-.68,1.47.94-1,1.57-2.27,2.57-3.24,1.44-1.4,3.4-2.38,4.72-3.9-.39.74-1.06,1.53-.96,2.41,2.56-1.37,4.71-3.67,7.25-5.04-.2.52-.6,1.06-.91,1.6,1.38-.91,7.83-5.19,6.78-7.08-.66.29-1.31.71-1.97.84,1.92-2.52,7.09-4.23,7.1-7.7-1.25.38-2.3,1.47-3.48,2.08.58-1.57,2.34-2.15,3.16-3.63.74-1.32.97-2.57,1-4.04.03-1.44.15-2.19.78-3.63,1.08-2.49.92-3.1-1.36-4.19ZM155.06,198.29c.25,1.93-.99,3.28-1.8,4.81.55-.47,1.29-.78,2.02-.86.13,1.68-1.58,4.89-3.71,4.56-1.44-.22-3.32-2.31-4.6-3.12-.04,5-3.06,0-4.53-1.65-.49.54.08,2.66-.89,2.81-.48.07-1.93-2.02-2.44-2.38-.48,1.52-.05,3.48-2.3,2.96-2.38-.56-2.57-5.06-4.23-6.29-.04.19-.05.37-.09.56-.61-1.21-.99-2.97-1.14-4.33-.11-.99.24-1.95-.37-2.83-.81.68-.9,2.12-1.29,3.12-.4,1.04-1.21,1.91-1.53,2.93-.8-.53-.74-2.14-1.17-3.05-.43.96-.84,3.56-2.27,1.91-.33-.38-.51-2.19-.54-3.42-.3,4.28-3.59,8.59-7.51,9.29.26-.58.53-1.15.76-1.76-.97,1.18-1.85,1.97-3.24,2.63.25-1.27.77-2.42.64-3.75-1.36,1.85-3.37,2.85-5.45,3.52.13-1.74,1.88-4.05,1.31-5.84-1.55.99-3.38,3.05-5.51,2.27-.13-.68.24-1.39.67-1.9-1.28,1.5-3.83,1.58-4.81-.34-.79-1.53,2.6-4.06,3.95-4.93-1.86.57-2.7.82-4.67.11-3.27-1.16-1.36-1.23.32-3.37-2.72,1.46-2.12-1.95-1.78-2.04-3.22-.96,3.04-3.54,3.86-4.4-1.46-1.46-.16-4.53,1.3-4.55.81-.01,1.2.41,2.04.47,1.09.07,2.08-.64,3.09-.61-.06.26.06.87.02,1.06.65-.37,2.18-1.75,3.05-1.56,1.05.23.3.61.9,1.19.91.88.7.53,2.18-.15.93-.43,2.03.1,3.05.11-.12.29-.11.77-.32,1.08,1.51-.7,3.03-.57,4.35-1.55.03,1.13-1.22,2.17-1.62,3.3,3.1-.74,4.99-4.1,7.38-5.91.07.3-.03.49-.14.78l.83.33c1.93,1.35,4.3,2.22,6.1,3.57-.19-.41-.31-.99-.58-1.42,1.44.3,2.89.08,4.26.61,0-.58-.13-1.18-.09-1.73,1.42.33,2.88-.1,4.25.2-.07-.31,0-.63-.12-.95,1.03-.11,2.29.96,3.45,1.14.44-1.4,1.47,1.69,2.29,2.16,1.4.78,3.11,1.04,3.81,2.45.98,1.96,1.59,2.54.93,4.7.62-.16,1.23-.46,1.76-.76.76,1.8.46,2.52-.54,4.18.26-.47.61-.61.97-.93.89,2.65-2.04,5.92-2.97,8.37.9-.29,1.75-1.01,2.73-.79Z"/>
    <g>
      <path d="M171.75,196.44c.78-1.78,2.1-3.09,1.77-5.17-.1-.62-.84-1.12-1.45-1.1-1.14.04-2.33.4-3.44.06l.9,2.2c.42-.54,1.08-.82,1.47-1.39.49-.7.58-1.46.34-2.27s-1.03-1.16-1.85-1.05c-.72.1-1.47-.04-2.2,0l1.3,2.26c.67-.98,1.6-1.65,2.2-2.71.55-.97-.14-2.29-1.3-2.26-.23-.01-.3,0-.18.01.31.11.49.31.54.6.27.19-.16.44.12-.03.18-.3.29-.67.45-.98.43-.83.97-1.67,1.23-2.58.33-1.18-.2-2.39-1.39-2.82-.28-.1-.58-.14-.87-.16-.13,0-.26,0-.39,0-.42-.04-.26.19.46.69.48-.26.3-1.85.21-2.2-.19-.8-1.08-1.25-1.85-1.05-.23.06-.79.11-.97.27-.07.02-.15.04-.23.05.55.6.73.63.53.08-.18-.83-1.09-1.2-1.85-1.05-1.37.28-1.84,1.3-2.64,2.29l2.56,1.06c-.03-.92-.07-1.84-.3-2.74-.05-.22-.11-.43-.19-.64.03.16,0,.31-.09.43-.28.14.08-.05.16-.08.69-.32,1.61-.79,2.14-1.35.78-.82.67-2.18-.33-2.78-.69-.42-1.67-.31-2.45-.29-.52.01-1.03.03-1.55.04-.39,0-1.1-.12-1.47,0-.2.06-.14,0,.15.09-.34-.11-.62-.27-.98-.34l-.4-.05c-.95-.17-.95.54,0,2.13.11-.01.32-.21.43-.25.61-.24,1.43-.58,1.89-1.06.89-.94.43-2.4-.81-2.71-1.01-.25-1.82.47-1.9,1.45.11-1.35,1.18-1.22.44-1.09-.21.04-.41.11-.61.16-.58.14-1.17.25-1.75.39-1,.25-2.27.67-2.24,1.94l2.26-1.3c-1.85-.9-3.5-2.92-5.72-2.76-1.16.08-1.84,1.21-1.3,2.26.05.09.09.18.14.27l2.05-2.05c-1.4-.71-2.83-1.35-4.16-2.18-.92-.57-2.34.16-2.26,1.3.04.52-.08,1.02-.14,1.54l1.9-1.45c-1.6-.64-2.75-1.65-4.58-1.72-.92-.03-1.82.2-2.73.32-.41.06-.91-.03-1.3.06-.08.02-.24-.11-.3-.08-.06.03.68,2.47.3,2.27.08.04.45-.21.58-.26.34-.13.69-.24,1.03-.37.74-.28,1.57-.59,1.8-1.45.55-2.09-1.95-2.12-3.25-1.83l-5.71,1.28-4.61,1.03,1.46.39c-1.27-1.39-2.73-.22-3.36,1.07-.14.28-.4.66-.48.96,0,.04-.17.24-.16.26-.01-.02.66-.05.67-.06-.06.1-1.13-.51-1.31-.61-1.18-.63-2.42-1.45-3.75-1.73-1.7-.35-2.82.93-2.45,2.58l1.05-1.85c-.53.14-1.21-.42-1.64-.67-.63-.37-1.24-.7-1.92-.97l.9,2.2h0c.38-.51.22-1.42-.23-1.83-.77-.69-2.14-.85-3.1-1.11-.67-.18-1.34-.36-2.01-.54-.26-.07-.52-.16-.78-.22-.48-.12-.59-.42.1.19v2.12h0c.88-.98.27-2.52-1.06-2.57-.37-.01-.73.03-1.06.22-.59.35-.85,1.04-.69,1.69.26,1.07,1.58,1.27,2.45,1.62.18.07.25.17.43.18.13.01.18.04.13.05-.14.04.24-2.11.28-2.08,0,0-.08,0-.32.01-.34.02-.69,0-1.03,0-1.55-.06-3.09-.26-4.63-.37-1.23-.09-2.76-.28-3.94.2-1.4.58-1.43,2.32,0,2.89,1.05.42,2.16.73,3.24,1.08.69.22,1.38.45,2.07.68.26.09.51.17.77.26.12.04.82.32.31.1l.36-2.74c-1.26.42-2.64.13-3.91-.13-1.51-.3-3.01-.67-4.55-.84-.65-.07-1.3-.1-1.95-.03-.39.04-.82.08-1.19.22-.16.06-1.06.63-.45.21-.67.45-1.6.87-2.14,1.48l1.06-.44c-1.25.04-2.76-.18-3.88.48-1.59.93-1.02,2.6-.11,3.77l.3-2.36c-.56.42-1.52.3-2.18.65-.71.38-1.29.95-1.88,1.49-.36.33-.57.99-.39,1.46.49,1.29,1.14,2.38,1.99,3.46v-2.12c-.56.49-1.54.3-2.2.68-.84.47-1.31,1.41-1.38,2.35-.12,1.61.68,3.83,2.2,4.59l.76-2.8c-1.19-.03-2.64.21-3.69.82-1.41.82-1.57,2.54-.3,3.58v-2.12c-.94,1.21-2.22,2.22-2.92,3.61-.4.8-.49,1.77.16,2.47.69.74,1.69.66,2.6.51l-1.69-2.2c-.51,1.08-1.67,1.59-2.15,2.76-.62,1.51-.76,3.16-1.01,4.76-.17,1.09.65,2.17,1.85,1.85.38-.1.8-.1,1.19-.19l-1.85-1.85c-.64,1.91-1.05,4.15-.29,6.09.43,1.1,1.59,1.43,2.51.66.34-.28.73-.49,1.06-.78l-2.51-1.46c-.34,2.03-1.1,3.95-1.46,5.98-.15.86.23,1.53,1.05,1.85,1.01.39,2.06.41,3.07.03.88-.33,1.62-.96,2.51-1.28l-1.85-1.05c.18,1.18.73,2.23.84,3.42.1,1.03.23,2.05.86,2.92,1.42,1.94,3.08.38,4.34-.74l-2.51-.66c.08.48-.29,1.7-.35,2.35-.09.92,0,1.96.67,2.66.7.74,1.89.99,2.73.36s.98-1.67.81-2.63l-2.89.8c.56,1.5,2.03,2.42,2.43,3.95.36,1.37.5,2.84,1.64,3.83s2.81.04,2.51-1.46c-.12-.58-.16-1.11-.12-1.69l-2.56,1.06c1.47,1.39,2.23,4.46,4.42,4.93.91.2,1.94-.42,1.9-1.45-.05-1.32-.61-2.44-.99-3.68l-2.51,1.46c1.5,1.45,3.11,2.78,4.34,4.48,1.02,1.41,2.02,2.94,3.58,3.8,1.06.58,2.68-.4,2.2-1.69-.5-1.37-1.38-2.4-2.32-3.48l-2.12,2.12c1.12.91,2.38,1.56,3.53,2.42,1.06.79,1.85,1.92,2.7,2.91,1.84,2.13,3.74,4.21,6,5.89,1.01.76,2.15-.31,2.26-1.3.14-1.31-.41-2.62-.47-3.92l-1.9,1.45c1.59.63,2.86,1.78,4.16,2.84.71.58,1.87.62,2.36-.3.4-.76.59-1.49.54-2.35l-1.9,1.45c1.16.41,2.07,1.89,3.07,2.61.61.44,1.75.16,2.05-.54.13-.31.77-1.87.54-2.18-.73.07-.95.21-.66.42.11.09.21.19.3.3.22.24.42.5.62.75.72.89,1.64,2.39,2.87,2.59s1.76-.74,2.42-1.51c.11-.13.23-.26.35-.38.56-.4.3-.56-.79-.46,0,.02.2.42.21.44.27.66.66,1.24,1.11,1.8.51.62,1.6.54,2.12,0,1.07-1.11,1.76-2.96,3.17-3.66l-2.2-.9c.13.53.17,1.02.16,1.56,0,1.07,1.3,1.96,2.26,1.3s1.64-1.43,2.32-2.32c.59-.77,1.13-1.7,1.95-2.26l-2.2-.9c.36,1.21.2,2.42.71,3.61.43.99,1.69.82,2.36.3,1.78-1.39,3.42-2.88,4.72-4.74l-2.59-1.51c-.33.59-.61,1.19-.83,1.83-.49,1.4,1.53,2.56,2.51,1.46,1.15-1.3,1.97-2.81,3.33-3.91s2.79-1.96,3.96-3.23l-2.36-1.82c-.58,1.03-1.16,1.95-1.16,3.16,0,1.16,1.27,1.84,2.26,1.3,2.58-1.44,4.67-3.59,7.25-5.04l-2.05-2.05c-.25.56-.59,1.07-.91,1.6-.74,1.25.77,2.9,2.05,2.05,1.74-1.15,3.47-2.37,5.02-3.77s3.27-3.23,2.31-5.36c-.35-.78-1.38-.86-2.05-.54-.54.25-1.04.53-1.62.68l1.46,2.51c2.43-3.04,7.35-4.23,7.54-8.76.04-.92-1-1.78-1.9-1.45-1.43.52-2.52,1.5-3.83,2.24l2.05,2.05c.71-1.62,2.55-2.4,3.36-4.02.96-1.91.73-3.79,1.11-5.81.3-1.56,1.39-2.93,1.3-4.57s-1.42-2.49-2.74-3.14c-1.73-.85-3.25,1.74-1.51,2.59.99.48,1.41.44,1.1,1.4-.47,1.49-1.11,2.74-1.23,4.33s-.07,3.26-1.18,4.56c-.94,1.1-2.2,1.75-2.8,3.14-.57,1.31.64,2.85,2.05,2.05,1.05-.59,1.97-1.51,3.12-1.93l-1.9-1.45c-.06,1.5-1.6,2.56-2.7,3.36-1.37,1-2.88,1.93-3.95,3.27-.88,1.1-.1,2.93,1.46,2.51.82-.22,1.57-.62,2.33-.99l-2.05-.54c-.28-.61-.04-.29-.09-.28.07-.02-.1.13-.04.07-.19.21-.32.52-.51.74-.59.71-1.32,1.33-2.03,1.91-1.13.93-2.34,1.77-3.57,2.58l2.05,2.05c.31-.53.65-1.04.91-1.6.59-1.31-.65-2.84-2.05-2.05-2.58,1.45-4.67,3.6-7.25,5.04l2.26,1.3c0-.6.47-1.15.75-1.65.82-1.45-1.18-3.1-2.36-1.82s-2.64,2.14-3.96,3.23-2.18,2.61-3.33,3.91l2.51,1.46c.14-.4.32-.74.53-1.11.97-1.7-1.5-3.08-2.59-1.51s-2.69,2.92-4.25,4.13l2.36.3c-.37-.85-.14-1.99-.41-2.89s-1.38-1.46-2.2-.9c-1.77,1.22-2.53,3.38-4.27,4.58l2.26,1.3c0-.8-.09-1.58-.27-2.36-.24-.99-1.37-1.31-2.2-.9-1.76.88-2.47,2.78-3.78,4.13h2.12c-.91-1.12-1.1-3.06-3.02-2.81-.88.11-1.55.78-2.1,1.42-.18.21-.53.51-.63.77-.12.31-.81.24.51.12,1.05-.1.71.1.59-.17-.3-.7-1.23-1.43-1.72-2.04-.54-.66-1.17-1.34-2.01-1.61-.92-.3-1.92.01-2.54.74-.66.76-.4,1.6-.77,2.44l2.05-.54c-1.35-.97-2.15-2.33-3.79-2.92-.89-.32-1.95.52-1.9,1.45.08.3.03.58-.13.84l2.36-.3c-1.74-1.42-3.37-2.78-5.48-3.61-.89-.35-1.94.55-1.9,1.45.06,1.29.61,2.62.47,3.92l2.26-1.3c-2.13-1.6-3.92-3.71-5.65-5.72-.83-.96-1.59-1.95-2.6-2.74-1.08-.84-2.32-1.43-3.38-2.29-1.49-1.2-3.42.65-2.12,2.12.58.66,1.25,1.32,1.55,2.16l2.2-1.69c-1.39-.77-2.21-2.36-3.15-3.59-1.21-1.58-2.75-2.84-4.17-4.22-1.05-1.02-2.95,0-2.51,1.46.28.94.84,1.89.88,2.88l1.9-1.45c.14.03.18.26-.04-.06-.1-.15-.25-.27-.36-.41-.32-.41-.6-.86-.88-1.29-.55-.83-1.09-1.72-1.82-2.4-.98-.93-2.47-.23-2.56,1.06-.06.85.05,1.66.22,2.49l2.51-1.46c-.79-.68-.71-2.16-1.04-3.1-.22-.63-.53-1.15-.94-1.67s-1.07-1.04-1.32-1.69c-.68-1.81-3.24-1.11-2.89.8-.04-.24,1.57-.17,1.68-.34.03-.04-.04-.36-.02-.44.07-.38.09-.78.15-1.17.13-.81.26-1.58.12-2.4-.21-1.19-1.74-1.35-2.51-.66-.19.17-.88.63-.91.88.99.54,1.34.58,1.06.11-.08-.14-.13-.28-.16-.44-.06-.25-.06-.53-.08-.78-.12-1.41-.72-2.65-.93-4.04-.12-.76-1.15-1.3-1.85-1.05-1.31.47-2.56,1.81-3.98,1.26l1.05,1.85c.36-2.03,1.12-3.95,1.46-5.98.25-1.5-1.31-2.45-2.51-1.46-.34.28-.73.49-1.06.78l2.51.66c-.57-1.47-.19-3.05.29-4.5.38-1.13-.79-2.09-1.85-1.85-.39.09-.8.08-1.19.19l1.85,1.85c.22-1.4.26-3.07.86-4.37.45-.96,1.52-1.44,2-2.44.59-1.25-.38-2.41-1.69-2.2-.07,0-.13.01-.2,0-.62-.03-.33.4.89,1.27-.13.07.11-.21.16-.25.25-.22.46-.61.68-.86.51-.58,1.07-1.13,1.54-1.74s.69-1.56,0-2.12c-.44-.45-.53-.08-.27,1.09-.08.09-.03.07.14-.04.18.02.5-.14.69-.18.43-.1.87-.15,1.32-.14,1.44.03,2.1-2.12.76-2.8-.31-.16-.45-.59-.56-.92-.08-.23-.04-1.14-.4-.77.2-.2.96-.15,1.23-.22.68-.18,1.21-.53,1.73-.99.66-.58.47-1.52,0-2.12-.5-.65-.92-1.37-1.22-2.14l-.39,1.46c.5-.46.91-.94,1.6-1.08s1.25-.14,1.86-.59c.84-.63.94-1.53.3-2.36-.46-.59-.5,1.14-.62.99.02.03.19-.08.24-.06.27.09.85-.04,1.15-.04.33,0,.66.01.99,0s.56-.07.87-.21c.23-.1.44-.32.08-.06.47-.33.95-.64,1.43-.96.18-.12.36-.26.55-.38.34-.22-.32.04-.1.16.02.01.61-.05.58-.05,3.53-.14,7.11,2.12,10.63.93,1.08-.37,1.64-2.19.36-2.74-2.3-.99-4.78-1.49-7.1-2.41v2.89c1.15-.47,3-.11,4.33,0,1.69.15,3.45.45,5.14.21,1.52-.21,2.79-1.76,1.4-3.07-.47-.44-1.12-.66-1.7-.89-.27-.11-.55-.2-.82-.3-.79-.28.2-.01.38.75l-.69,1.69c-.63.12-.79.19-.46.18l-1.06-2.56h0c-.52.58-.64,1.57,0,2.13.78.68,2.12.84,3.09,1.1.67.18,1.34.36,2.01.54.26.07.52.16.79.22.49.12.56.42-.1-.18l-.23-1.82h0c-.64.87.1,1.9.9,2.21,1.76.69,3.1,2.19,5.15,1.64.81-.22,1.22-1.06,1.05-1.85.14.63-1.04,1.18-1.1,1.14.1.07.38.11.49.16.43.16.84.4,1.25.61.92.48,1.83,1.08,2.82,1.42,1.04.36,2,.08,2.73-.74.37-.41.61-.91.85-1.4.09-.18.19-.37.26-.55.05-.11.11-.21.17-.31-.37.44-.92.48-1.65.12.37.4.95.5,1.46.39l9.62-2.15c.33-.07,1.2-.1,1.46-.33.1-.09-.49-.01-.38.03.13.05-.72-2.63-.33-2.45-.1-.04-.09.04-.06.03-.19.06-.37.14-.56.2-1.3.47-4.18,1.66-2.39,3.48,1.05,1.07,3.03.7,4.31.49,1.06-.17,2.01-.3,3.02.17.85.4,1.6.91,2.48,1.27,1.01.4,1.79-.6,1.9-1.45.07-.53.18-1.01.14-1.54l-2.26,1.3c1.33.83,2.76,1.47,4.16,2.18s2.71-.69,2.05-2.05c-.04-.09-.09-.18-.14-.27l-1.3,2.26c.73-.05,1.44.56,2.01.95.72.49,1.41,1.03,2.2,1.41.98.47,2.29-.08,2.26-1.3.04,1.52-1.12,1.09-.28,1.03.2-.01.45-.11.65-.16.54-.13,1.09-.23,1.63-.36,1.06-.27,2.06-.66,2.16-1.91l-1.9,1.45-.7-.59-.15-1.16c.07-.26.21-.47.4-.62.11-.08.09-.08-.05.01-.1,0-.36.18-.45.22-.31.15-.63.28-.93.45-.71.41-1.39.99-1.36,1.89.05,1.45,1.35,1.52,2.42,1.78.83.21,1.54.32,2.41.31s1.81-.07,2.72-.06c.11,0,.42.07.53.02-.51.24-.13-2.1-.7-2.03-.29.04-.79.43-1.05.58-.78.44-1.56,1-1.87,1.88-.17.48-.14.94-.04,1.43.2.89.36,1.66.38,2.58.03,1.18,1.7,2.13,2.56,1.06.35-.43.76-1.41,1.32-1.52l-1.85-1.05c.51,2.4,2.48,2.18,4.36,1.7l-1.85-1.05c.04.17-.24.68-.28.88-.09.44-.09.88.07,1.3.33.91,1.11,1.42,2.05,1.52.17.02.34.03.51.03.57.08.44-.19-.37-.81-.02,0,.17-.17-.06.14-.24.35-.44.89-.66,1.31-.5.95-1.14,2.02-1.14,3.13,0,1.46,1.25,2.22,2.59,2.19l-1.3-2.26c-.58,1.02-1.54,1.73-2.2,2.71-.62.92.19,2.32,1.3,2.26,1.01-.06,1.99.02,3-.12l-1.85-1.05c-.07-.24.4-.36-.02-.12-.19.11-.37.3-.54.45-.37.32-.65.65-.95,1.03-.62.8.07,1.95.9,2.2,1.42.43,2.79.1,4.24.05l-1.45-1.1c.13.78-1.15,2.15-1.46,2.86-.77,1.75,1.81,3.28,2.59,1.51Z"/>
      <path d="M153.56,198.29c.12,1.58-.87,2.73-1.6,4.05-.67,1.2.79,3.03,2.05,2.05.53-.41,1-.6,1.66-.71l-1.9-1.45c.03.95-.72,3.05-1.89,3.08-.65.02-1.44-.78-1.91-1.16-.74-.61-1.46-1.25-2.26-1.78-.98-.66-2.23.22-2.26,1.3,0,.1-.18,1.07-.12,1.14-.26-.37,1.06-.64,1.11-.43-.04-.2-.73-.69-.88-.86-.73-.82-1.35-1.74-2.07-2.56-.66-.76-1.87-.46-2.36.3-.3.47-.38.98-.42,1.53-.02.25-.07.53-.04.78,0,.11-.02.22-.06.33.59-.62,1.08-.76,1.47-.43-.09-.27-.76-.81-.96-1.05-.31-.35-.6-.74-.96-1.04-.85-.7-2.18-.5-2.51.66-.12.43-.19.87-.27,1.31-.05.27-.34.81-.01.68-.35.14-.99-.85-1.21-1.27-.8-1.56-1.12-3.54-2.54-4.71-.77-.63-2.31-.56-2.51.66-.03.19-.06.37-.09.56l2.74-.36c-.49-1.05-.78-2.27-.91-3.41-.16-1.35.09-2.48-.59-3.74-.46-.85-1.69-.97-2.36-.3-.87.88-1.14,1.98-1.47,3.14-.37,1.28-1.26,2.33-1.73,3.58l2.51-.66c-.55-.47-.51-1.71-.78-2.39-.57-1.43-2.31-1.4-2.89,0-.14.35-.24.71-.38,1.05-.04.09-.18.33-.18.42-.02.04-.04.07-.06.11-.18.32.18.29,1.08-.1-.06.12-.06.11-.06-.1s-.1-.47-.13-.68c-.09-.6-.11-1.22-.13-1.82-.06-1.96-2.83-1.9-3,0-.31,3.52-2.83,7.11-6.41,7.85l1.69,2.2c.31-.7.63-1.4.91-2.12.54-1.38-1.57-2.58-2.51-1.46-.86,1.02-1.74,1.8-2.94,2.4l2.2,1.69c.3-1.39.76-2.71.69-4.15-.05-1.15-1.7-2.17-2.56-1.06-1.25,1.61-2.88,2.5-4.79,3.14l1.9,1.45c.13-1.03.72-2.03,1.04-3.01.35-1.06.48-2.13.21-3.23-.22-.9-1.41-1.43-2.2-.9-1.21.81-2.76,2.59-4.36,2.11l1.1,1.45c-.03-.51.17-.75.47-1.14,1.04-1.36-1.21-3.04-2.36-1.82-.41.44-.97.78-1.6.65-.51-.1-.75-.32-.64-.69.17-.61,1.06-1.24,1.51-1.63.53-.46,1.1-.87,1.69-1.25,1.38-.89.54-3.26-1.16-2.74-.76.23-1.56.54-2.38.49s-1.51-.6-2.25-.67c-.11-.05-.21-.1-.31-.16.42.54.49,1.01.21,1.42.13-.04.34-.32.43-.4.5-.45.97-.9,1.4-1.42,1.07-1.31-.24-3.14-1.82-2.36-.38.19-.8.1.07.38.23.07-.01.25.11.17.08-.05-.11-.56-.01-.29-.13-.35.31-.15-.44.3,1.14-.69.85-2.34-.36-2.74-.02,0-.24-.05-.2-.08.18-.15.38,1,.37.99.12.15-.22.2.17-.06.48-.31.93-.67,1.43-.97.92-.55,1.98-1.02,2.76-1.77.62-.59.52-1.52,0-2.12-.3-.35-.22-.91-.08-1.31.08-.22.2-.51.4-.65.1-.08-.36-.17.22.02.71.23,1.38.44,2.14.41.94-.04,1.76-.55,2.68-.61l-1.5-1.5c-.03.36.03.7.02,1.06-.04,1.12,1.31,1.89,2.26,1.3.36-.23.7-.49,1.05-.73.08-.05,1.19-.63,1.19-.67-.02.09-.92-1.54-.77-.45.03.19.1.37.18.54.22.47.61.87,1.03,1.17.77.55,1.52.58,2.36.17.5-.25.84-.53,1.42-.52.64.02,1.29.22,1.94.27l-1.45-1.9c-.06.21-.07.52-.16.72-.46,1.02.34,2.77,1.69,2.2,1.56-.65,3.27-.75,4.71-1.7l-2.26-1.3c-.03.47-.5.96-.74,1.34-.33.5-.59,1.01-.82,1.56-.46,1.1.85,2.11,1.85,1.85,3.52-.95,5.33-4.17,8.05-6.3l-2.56-1.06-.09.38c-.3.82.34,1.57,1.05,1.85.94.37,1.72.98,2.64,1.47,1.34.72,2.7,1.38,3.94,2.27,1.02.74,2.67-.5,2.2-1.69-.24-.6-.43-1.2-.73-1.78l-1.69,2.2c1.42.24,2.89.16,4.26.61.91.3,1.93-.51,1.9-1.45-.02-.58-.09-1.15-.09-1.73l-1.9,1.45c1.42.26,2.84-.04,4.25.2.84.14,2.03-.38,1.9-1.45-.05-.45-.08-.9-.18-1.34l-1.45,1.9c1.03,0,2.04.86,3.05,1.08.86.19,1.53-.26,1.85-1.05-1.27-.29-1.89-.11-1.86.54,0,.04.02.07.06.1.05.17.22.35.32.51.21.34.41.68.65,1,.61.82,1.4,1.15,2.32,1.55,1.16.5,1.66.86,2.24,1.98.55,1.05.74,1.65.41,2.83-.3,1.08.74,2.17,1.85,1.85.74-.22,1.44-.54,2.12-.92l-2.2-.9c.52,1.3.31,1.85-.39,3.03-1.01,1.69,1.49,3.06,2.59,1.51.18-.25.5-.44.73-.62l-2.51-.66c.36,1.3-.39,2.63-.99,3.75-.69,1.27-1.43,2.48-1.97,3.83-.41,1.03.83,2.23,1.85,1.85.75-.28,1.51-.83,2.33-.73,1.91.22,1.9-2.78,0-3-1.17-.14-2.07.45-3.13.84l1.85,1.85c1.2-2.98,3.94-5.69,2.97-9.17-.33-1.18-1.65-1.35-2.51-.66-.48.39-.84.73-1.2,1.23l2.59,1.51c1.07-1.79,1.49-3.34.69-5.34-.36-.9-1.28-1.41-2.2-.9-.46.25-.9.46-1.4.61l1.85,1.85c.49-1.79.28-3.19-.55-4.83-.93-1.82-1.94-2.71-3.8-3.51-.69-.3-.97-.36-1.32-.91s-.62-1.11-1.05-1.58c-1.14-1.23-2.62-.76-3.21.71l1.85-1.05c-1.35-.3-2.42-1.19-3.85-1.19-1.02,0-1.65.96-1.45,1.9.03.18.05.36.07.55l1.9-1.45c-1.41-.24-2.85.06-4.25-.2-.94-.17-1.9.4-1.9,1.45,0,.58.07,1.15.09,1.73l1.9-1.45c-1.39-.46-2.83-.36-4.26-.61-1.29-.22-2.32.98-1.69,2.2.18.34.29.71.43,1.06l2.2-1.69c-1.35-.98-2.86-1.68-4.31-2.48-1.01-.55-1.91-1.15-2.98-1.57l1.05,1.85c.16-.43.2-.73.2-1.18,0-1.42-1.59-1.82-2.56-1.06-2.23,1.75-3.85,4.75-6.72,5.52l1.85,1.85c.57-1.34,1.56-2.15,1.67-3.7.08-1.11-1.34-1.9-2.26-1.3-1.2.79-2.68.85-4,1.4l1.69,2.2c.22-.48.32-.94.47-1.44.29-.99-.5-1.84-1.45-1.9-1.55-.1-2.7-.47-4.17.27-.18.09-.49.19-.62.34-.37.18-.09.21.85.08l-.22-.21s.37,1.01.1-.07c-.05-.2-.12-.38-.23-.56-1.43-2.35-4.15-.17-5.64.77l2.26,1.3c.01-.36-.04-.7-.02-1.06.06-.77-.73-1.55-1.5-1.5s-1.4.23-2.11.44c-.79.23-1.17.06-1.92-.14-1.15-.31-2.28-.1-3.14.75-1.68,1.66-1.86,4.43-.32,6.2v-2.12c-.17.16.2-.07-.08.06-.15.07-.29.19-.44.28-.37.23-.75.44-1.12.66-.85.5-1.73,1.01-2.47,1.68-1.69,1.52-1.21,3.53.92,4.24l-.36-2.74c-1.07.65-1.22,2.34-.9,3.44.59,2,2.64,1.96,4.2,1.19l-1.82-2.36c-1.03,1.25-3.78,2.92-1.94,4.73.85.83,2.38,1.28,3.5,1.49,1.48.29,2.84-.02,4.26-.46l-1.16-2.74c-1.92,1.25-5.4,3.62-4.73,6.34.83,3.4,5.37,3.46,7.41,1.28l-2.36-1.82c-.6.79-.94,1.65-.88,2.65.04.68.44,1.25,1.1,1.45,2.71.81,4.59-1.03,6.67-2.42l-2.2-.9c.21.87-.28,1.85-.59,2.65-.36.93-.65,1.8-.78,2.79s1.05,1.73,1.9,1.45c2.35-.78,4.57-1.91,6.11-3.91l-2.56-1.06c.05,1.17-.34,2.23-.58,3.35-.29,1.32,1.02,2.29,2.2,1.69,1.4-.7,2.54-1.67,3.55-2.87l-2.51-1.46c-.19.48-.4.94-.61,1.4-.54,1.2.34,2.48,1.69,2.2,4.94-1.02,8.18-5.95,8.61-10.74h-3c.06,1.87.06,4.82,2.37,5.39s2.77-1.97,3.39-3.47h-2.89c.51,1.27.44,2.76,1.56,3.71.9.77,2.1.43,2.51-.66.39-1.04,1.14-1.89,1.53-2.93.28-.77.31-1.86.9-2.46l-2.36-.3c.3.56.12,1.25.15,1.86s.14,1.26.26,1.88c.22,1.19.58,2.32,1.1,3.42s2.54.89,2.74-.36c.03-.19.06-.37.09-.56l-2.51.66c.83.68,1.12,1.91,1.52,2.86.51,1.24,1.12,2.58,2.3,3.33s2.78.92,3.88.02,1-2.31,1.35-3.54l-2.51.66c1.08.88,1.86,2.79,3.45,2.81.93.02,1.69-.68,1.97-1.53.18-.54.04-1.67.26-2.02l-2.36.3c1.13,1.3,2.07,3.08,3.63,3.93.83.45,1.85.44,2.55-.24.82-.78.88-2.04.91-3.1l-2.26,1.3c2.1,1.4,4.11,4.16,6.96,3.09,2.18-.82,3.68-3.56,3.61-5.83-.03-1.06-.93-1.6-1.9-1.45-.87.14-1.67.47-2.38,1.01l2.05,2.05c1-1.8,2.18-3.4,2.01-5.56-.15-1.91-3.15-1.93-3,0Z"/>
    </g>
  </g>
  <g class="cls-2">
    <path class="cls-3" d="M99.43,188.35l-.02.04,2.74.36c-.16-.44-.24-.87-.44-1.31-.31-.68-1.45-.99-2.05-.54-.38.28-.59.53-.75.97l2.89.8c.14-.9,1.7-1.29,2.34-1.95.72-.74,1.02-1.69,1.24-2.67.09-.41.14-.89.33-1.27.03-.05-.14.17-.22.17.29,0,.44.07.69.15.58.19.99.45,1.63.31.77-.17.92-.88,1.72-.47.56.29,1.38.28,1.82-.23.31-.36.63-.71.97-1.04l-2.51-.66c1.02,3.04,5.43,2.24,7.86,2.13l-1.3-2.26c-.19.29-.38.57-.55.87-.52.89.13,2.4,1.3,2.26.96-.12,2,.94,2.96,1.19,1.04.27,1.79-.34,2.7-.72,1.17-.49,2.38-.81,3.51-1.42,1.2-.66,2.3-1.49,3.33-2.4l-2.51-.66c.7,2.66,4.33,4.48,6.85,4.64.71.05,1.25-.1,1.81-.57.18-.15.55-.43.66-.6.09,0,.18-.03.26-.1-.96-.34-1.21-.33-.76.02.5.52,1.33.64,2.01.48.33-.07.69-.4,1.01-.42.35-.02.7.21,1.04.32.78.27,1.62-.32,1.85-1.05.12-.39.44-1.19.38-1.58-1.47-.18-1.95-.02-1.42.47.15.14.31.28.48.4.26.17.55.26.85.31.46.09.91.03,1.37-.07.2-.05.4-.11.6-.18.53-.06.43-.26-.32-.6-.32.44,1.52,1.83,1.76,2.04.74.65,1.49,1.28,2.32,1.82.55.36,1.53.73,1.81,1.37.32.73.01,1.57.5,2.33.28.44.65.77,1.14.95.29.11.64.04.9.14l-.9-.69c0-.43-.04-.45-.09-.04l-.05.4c-.01.37.07.7.22,1.04s.37.5.59.79c.87,1.16-.22-.74.35.66.23.58.38.94.8,1.41.14.16.3.32.46.46.4.34.2.47.26,0l.44-1.06-.09.1c-1.26,1.45.85,3.58,2.12,2.12.98-1.13.38-2.26-.52-3.2-.63-.66-.42-.42-.66-1.2-.11-.35-.31-.69-.54-.96-.16-.2-.35-.37-.57-.51l.13.44c0-.86.22-1.61-.51-2.28-.23-.21-.56-.39-.87-.47-1.16-.28-.21.34-.08.27.31-.17-.3-1.98-.46-2.25-.38-.67-.97-1.16-1.59-1.6-1.31-.93-2.76-1.72-3.87-2.91-.47-.5-.57-1.11-1.25-1.45s-1.39-.25-2.1-.08c-.14.03-1.14.22-.53.35-.13-.03-.51-.48-.6-.54-.6-.36-1.4-.38-2-.03-1.05.62-1.05,1.96-1.37,2.99l1.85-1.05c-.58-.2-1.07-.47-1.69-.47-.39,0-2.25.29-1.24.68-.55-.21-.82-.7-1.49-.71-.51,0-1.07.27-1.49.53-.28.17-.91.78-.96.79-.19.04-1.29-.35-1.64-.54-.69-.37-2.06-1.17-2.26-1.96-.3-1.15-1.68-1.39-2.51-.66s-1.74,1.39-2.72,1.93-2.11.82-3.16,1.27c-.2.08-.42.16-.61.28-.05.03-.69.34-.29.26.27-.05-.04-.01-.24-.11s-.39-.19-.59-.29c-.88-.48-1.73-.98-2.78-.86l1.3,2.26c.17-.3.36-.58.55-.87.61-.94-.18-2.31-1.3-2.26s-2.33.08-3.49.12c-.3,0-.6.03-.9-.02-.37-.06-.71-.39-.59-.03-.36-1.07-1.66-1.48-2.51-.66-.34.33-.66.68-.97,1.04l1.82-.23c-.97-.5-2.05-.85-3.13-.46-.31.11-.67.3-.9.54-.46.35-.23.38.69.08-.2-.11-.4-.21-.62-.29-1.36-.5-3.04-.36-3.89.95-.66,1.01-.42,2.53-1.18,3.43-.45.54-1.24.75-1.8,1.16-.72.52-1.17,1.24-1.31,2.12-.3,1.89,2.23,2.65,2.89.8v-.04c-.22.3-.45.6-.68.9l.05-.04-2.05-.54c.03.07.08.43.14.59.39,1.11,2.13,1.6,2.74.36l.02-.04c.85-1.73-1.74-3.25-2.59-1.51h0Z"/>
  </g>
  <path d="M131.62,174.6c.55.56,1.21.92,1.93,1.2.3.12.61.23.92.34.16.06.32.12.48.18.02,0,.14.06.05.02-.1-.04.05.02.07.03.09.04.18.08.27.13.35.17.83.11,1.03-.27.18-.34.11-.84-.27-1.03-.65-.32-1.33-.54-2-.79-.07-.03-.13-.05-.2-.08-.11-.04-.05-.05,0,0-.02-.02-.07-.03-.1-.04-.15-.07-.29-.14-.43-.22s-.26-.17-.39-.26c-.07-.05.1.09,0,0-.03-.03-.06-.05-.09-.08-.08-.07-.15-.13-.22-.21-.28-.28-.79-.3-1.06,0s-.3.76,0,1.06h0Z"/>
  <path d="M135.78,173.6c.42.32.81.68,1.23,1.01.25.2.5.39.76.56s.55.31.84.43c.17.07.43.01.58-.08.16-.09.3-.27.34-.45.04-.19.03-.41-.08-.58s-.26-.26-.45-.34l-.04-.02.18.08c-.22-.1-.44-.22-.64-.35-.1-.07-.21-.14-.31-.21-.05-.03-.24-.19-.05-.04-.05-.04-.1-.08-.15-.12-.39-.31-.76-.65-1.16-.96-.16-.13-.31-.22-.53-.22-.18,0-.4.08-.53.22s-.23.33-.22.53c0,.18.07.41.22.53h0Z"/>
  <path d="M141.59,172.22c.83.64,1.66,1.29,2.58,1.8.34.19.83.09,1.03-.27s.1-.82-.27-1.03c-.92-.52-1.74-1.17-2.58-1.8-.14-.11-.41-.12-.58-.08-.17.05-.36.18-.45.34-.09.17-.14.38-.08.58s.18.32.34.45h0Z"/>
  <path d="M149.75,174.15l1.33,1.15c.15.13.32.22.53.22.18,0,.4-.08.53-.22s.23-.33.22-.53-.07-.4-.22-.53l-1.33-1.15c-.15-.13-.32-.22-.53-.22-.18,0-.4.08-.53.22s-.23.33-.22.53.07.4.22.53h0Z"/>
  <path d="M148.82,176.24c.11.07.23.14.33.21.05.03.09.06.13.09.02.01.17.13.11.08-.07-.06.06.05.08.06.05.04.1.08.15.13.09.08.18.16.26.24.36.34.68.7,1.01,1.07.68.77,1.35,1.52,2.17,2.14.31.24.85.06,1.03-.27.21-.39.07-.77-.27-1.03-.17-.13.11.09-.05-.04-.05-.04-.1-.08-.15-.12-.09-.08-.18-.16-.26-.24-.17-.16-.34-.33-.5-.51-.34-.36-.65-.73-.98-1.1-.68-.76-1.4-1.49-2.29-2.01-.34-.2-.84-.09-1.03.27s-.09.81.27,1.03h0Z"/>
  <path d="M156.07,176.78c.57.5,1.12,1.01,1.64,1.56.24.26.48.53.7.81.03.04.06.07.09.11,0,0,.12.14.05.06s.03.04.04.06c.03.04.06.08.09.11.12.16.24.33.35.5.22.32.67.5,1.03.27.32-.21.5-.68.27-1.03-.9-1.33-1.99-2.46-3.19-3.51-.29-.26-.77-.31-1.06,0-.26.28-.32.78,0,1.06h0Z"/>
  <path d="M155.76,182.15c-.08.75.43,1.5.84,2.08s.9,1.1,1.17,1.74c.16.36.71.47,1.03.27.37-.24.44-.64.27-1.03-.26-.61-.74-1.13-1.12-1.66-.21-.29-.41-.58-.57-.9-.02-.04-.03-.07-.05-.11-.07-.15.04.11.01.04s-.05-.14-.07-.21c0-.03-.02-.07-.02-.1-.04-.15,0,.15,0,.07,0-.07,0-.13,0-.2.04-.39-.37-.77-.75-.75-.44.02-.71.33-.75.75h0Z"/>
  <path d="M160.78,184.4c.12.47.3.94.56,1.35.2.32.45.61.69.91.02.03.05.06.07.09.1.12-.03-.03-.02-.03,0,0,.12.17.13.19.04.07.09.13.12.2.02.04.04.07.06.11.03.07.02.15,0-.02.03.18.12.35.15.53,0,.02.03.21.02.09s0,.09,0,.11c.01.15.02.29.02.44,0,.39.34.77.75.75s.75-.33.75-.75c0-.51-.05-1.03-.23-1.51-.16-.42-.37-.76-.65-1.11-.1-.12-.2-.24-.29-.36-.05-.06-.18-.27-.06-.07-.04-.07-.1-.14-.15-.21-.11-.16-.2-.33-.28-.5-.01-.03-.03-.06-.04-.1.04.09.04.1.02.05-.02-.05-.04-.11-.06-.16-.04-.13-.08-.26-.12-.4-.1-.38-.54-.65-.92-.52s-.63.52-.52.92h0Z"/>
  <path d="M158.28,189.07c.05.29.13.57.21.85.06.21.12.42.15.63l-.03-.2c.04.29.02.58-.02.87l.03-.2s0,.06-.01.09c-.03.21-.04.39.08.58.09.16.27.3.45.34.19.04.41.03.58-.08.15-.1.32-.26.34-.45.08-.55.11-1.06-.02-1.6-.1-.42-.24-.82-.32-1.24-.03-.18-.2-.36-.34-.45-.16-.09-.4-.13-.58-.08-.41.13-.6.51-.52.92h0Z"/>
  <path d="M157.84,196.65l-.08,1.15c0,.1.02.2.06.29.03.09.08.17.16.24.13.13.34.23.53.22s.4-.07.53-.22l.12-.15c.07-.12.1-.24.1-.38l.08-1.15c0-.1-.02-.2-.06-.29-.03-.09-.08-.17-.16-.24-.13-.13-.34-.23-.53-.22s-.4.07-.53.22l-.12.15c-.07.12-.1.24-.1.38h0Z"/>
  <path d="M162.36,198.42c-.35,1.91-1.2,3.47-2.17,5.15-.2.35-.08.82.27,1.03s.82.08,1.03-.27c1-1.74,1.96-3.51,2.32-5.51.07-.4-.11-.81-.52-.92-.36-.1-.85.12-.92.52h0Z"/>
  <path d="M165.41,199.6c-.03.35-.05.69-.09,1.04,0,.07-.01.13-.02.2,0,.04-.01.09-.02.13.01-.09.01-.09,0,0-.02.15-.05.3-.07.45-.06.3-.13.6-.21.89-.04.15-.09.3-.15.45-.03.09-.07.17-.1.26-.03.08-.04.09,0,.02-.02.04-.04.09-.06.13-.16.36-.12.82.27,1.03.33.17.86.11,1.03-.27.3-.68.54-1.37.67-2.1s.2-1.47.26-2.21c.03-.39-.37-.77-.75-.75-.43.02-.72.33-.75.75h0Z"/>
  <path d="M156.21,206.11c.1.25.1.44.03.71-.08.33-.22.64-.38.94-.31.59-.7,1.14-1.07,1.69-.51.76-1.07,1.46-1.71,2.12s-1.5,1.22-2.03,2c-.35.51.24,1.34.85,1.1,1.75-.69,3.4-1.6,5.15-2.29.38-.15.64-.5.52-.92-.1-.36-.54-.67-.92-.52-1.75.69-3.4,1.6-5.15,2.29l.85,1.1c.25-.37.66-.62.99-.91.38-.34.74-.71,1.09-1.09.66-.72,1.23-1.5,1.79-2.31.79-1.15,2.01-2.82,1.44-4.3-.15-.38-.5-.64-.92-.52-.36.1-.67.54-.52.92h0Z"/>
  <path d="M156.79,215.31c-.02.08-.06.15-.08.22.07-.21.03-.08,0-.03-.02.04-.04.09-.07.13-.08.16-.18.31-.28.46-.03.04-.05.08-.08.11-.11.15.08-.1-.01.02-.06.07-.12.15-.19.22-.13.15-.27.29-.41.43s-.29.27-.44.4c-.04.03-.08.06-.11.09-.13.11.14-.1,0,0-.08.06-.15.11-.23.17-.15.1-.31.2-.46.29-.08.05-.16.09-.25.13-.04.02-.07.03-.11.05-.16.08.14-.06.01,0l.92.52s-.02-.08-.04-.13c.05.14.02.17.02.07,0-.12-.05.21,0,.03,0-.04.02-.07.03-.11.03-.12-.09.18,0,0,.02-.04.04-.07.06-.11.05-.09.1-.17.16-.26s.12-.17.18-.25c.1-.13-.11.14-.01.01.04-.04.07-.09.11-.13.14-.18.28-.35.41-.54.22-.33.07-.84-.27-1.03-.38-.2-.79-.08-1.03.27-.05.08-.11.15-.17.23.15-.2.03-.04,0,0s-.07.09-.11.13c-.17.21-.33.42-.48.65-.28.44-.52,1.03-.31,1.55.07.18.16.35.34.45.17.09.39.15.58.08.85-.34,1.61-.87,2.26-1.51s1.22-1.37,1.5-2.23c.12-.37-.14-.84-.52-.92-.41-.09-.79.12-.92.52h0Z"/>
  <path d="M148.55,219.4c-.19.26-.32.43-.57.71-.23.27-.48.53-.73.77s-.51.49-.78.72c-.29.25-.42.35-.71.56l1.1.85c.53-1.52,1.18-3.01,1.57-4.59.09-.38-.12-.83-.52-.92s-.82.12-.92.52c-.39,1.57-1.03,3.06-1.57,4.59-.21.59.57,1.23,1.1.85,1.28-.92,2.41-2.02,3.33-3.3.23-.32.06-.85-.27-1.03-.39-.21-.78-.07-1.03.27h0Z"/>
  <path d="M145.09,211.54c-1.41,1.72-2.72,3.52-4.14,5.23l1.28.53c.1-1.29.3-2.69.8-3.87.16-.37.11-.8-.27-1.03-.32-.18-.87-.11-1.03.27-.63,1.47-.88,3.04-1,4.62-.05.63.87,1.02,1.28.53,1.43-1.71,2.73-3.51,4.14-5.23.26-.31.31-.75,0-1.06-.26-.26-.8-.31-1.06,0h0Z"/>
  <path d="M140.6,223.34c-1.11,1.33-2.1,2.82-3.48,3.9l1.28.53c-.21-1.75.68-3.43.55-5.18-.04-.59-.83-1.07-1.28-.53-.13.15-.29.21-.47.3-.23.11-.44.26-.6.45l1.25.73c.01-.1.03-.19.05-.28.24-.95-1.12-1.3-1.45-.4-.63,1.75-1.59,3.53-2.83,4.92l1.28.53c-.22-2.09.61-4.09.95-6.12.07-.4-.11-.81-.52-.92-.36-.1-.85.12-.92.52-.36,2.16-1.25,4.29-1.01,6.52.03.3.16.56.46.69.27.11.62.07.82-.16,1.42-1.6,2.5-3.58,3.22-5.58l-1.45-.4c-.02.09-.04.19-.05.28-.05.33.03.67.34.85.27.16.7.14.91-.12.12-.14.28-.21.46-.29.23-.11.44-.26.61-.45l-1.28-.53c.13,1.76-.76,3.42-.55,5.18.08.68.75.95,1.28.53,1.38-1.08,2.37-2.56,3.48-3.9.26-.31.3-.76,0-1.06-.27-.27-.8-.31-1.06,0h0Z"/>
  <path d="M136.75,210.23c-.17.58-.37,1.15-.59,1.71-.06.14-.11.28-.17.42s.02-.05-.04.1c-.03.07-.06.14-.09.21-.12.27-.24.54-.36.81l1.37.18c-.03-.08-.05-.17-.06-.25-.04-.2,0,.14,0-.06,0-.16-.01-.32,0-.48,0-.31.03-.62.02-.93-.02-.38-.08-.76-.14-1.14-.01-.08-.02-.15-.04-.23,0-.03-.04-.31-.03-.18-.02-.18-.03-.35-.04-.53,0-.39-.34-.77-.75-.75s-.76.33-.75.75c0,.4.07.79.13,1.18.03.18.06.35.08.53-.02-.13.02.15.02.18,0,.08.01.17.02.25.02.69-.1,1.39.11,2.06.09.29.32.5.62.54.27.04.63-.09.75-.36.53-1.18,1.05-2.37,1.41-3.61.11-.38-.13-.83-.52-.92s-.81.12-.92.52h0Z"/>
  <path d="M129.1,202.93c1.09,2.2,1.11,4.85,1.14,7.25.02.96,1.52.97,1.5,0-.04-2.69-.14-5.55-1.35-8-.43-.87-1.72-.11-1.3.76h0Z"/>
  <path d="M124.67,202.14c0,1.01.18,2.02.17,3.03,0,.39.35.77.75.75s.75-.33.75-.75c0-1.01-.16-2.02-.17-3.03,0-.39-.34-.77-.75-.75s-.75.33-.75.75h0Z"/>
  <path d="M122.61,201.93s-.14.18-.04.06c-.04.05-.07.09-.11.14-.07.09-.15.19-.23.28-.17.21-.34.41-.52.61-.39.46-.78.92-1.14,1.4-.64.84-1.29,1.79-1.44,2.86-.06.4.1.81.52.92.35.1.86-.12.92-.52.03-.22.09-.44.16-.65,0,0,.08-.22.03-.08.02-.06.05-.11.07-.16.05-.11.11-.22.17-.33.12-.23.26-.44.41-.66.08-.12.17-.24.25-.36.03-.04.06-.09.1-.13.16-.21-.08.1.08-.11.67-.85,1.41-1.64,2.06-2.51.24-.32.05-.84-.27-1.03-.38-.22-.78-.06-1.03.27h0Z"/>
  <path d="M121.12,222.12c-.26,1.44-.58,2.88-1.03,4.28l.92-.52s-.06-.02-.08-.03c.18.02.14.07.07.02-.03-.02-.06-.04-.09-.05-.12-.07.02-.02.04.03-.02-.05-.14-.12-.18-.16-.06-.06-.12-.13-.18-.2-.03-.04-.06-.07-.09-.11-.1-.12.08.12,0,0-.06-.08-.12-.16-.18-.25-.13-.18-.24-.37-.36-.56-.38-.64-.71-1.3-1.05-1.96-.18-.35-.7-.48-1.03-.27-.36.23-.46.65-.27,1.03.36.71.71,1.42,1.13,2.1s1.01,1.63,1.86,1.86c.4.11.8-.14.92-.52.44-1.4.76-2.83,1.03-4.28.07-.38-.11-.83-.52-.92-.37-.08-.85.11-.92.52h0Z"/>
  <path d="M126.37,226.95s.06-.07.1-.11c.04-.04.17-.14,0,0l-1.13-.65c0,.2,0,.41-.01.61,0,.13-.02.26-.03.39,0,.03,0,.07-.01.1s-.02.14,0,0,0-.01,0,.02c0,.03-.01.07-.02.1-.04.25-.09.5-.18.74,0,.02-.02.05-.03.07-.04.12.08-.18.03-.07-.02.05-.05.1-.07.14-.01.02-.03.04-.04.06-.05.09.14-.16.06-.08-.03.03-.06.06-.09.09l1.18.15s-.03-.05-.04-.08l.04.1s-.03-.09-.05-.13c-.03-.09-.06-.17-.08-.26-.05-.18-.09-.35-.14-.53-.1-.4-.23-.8-.44-1.16-.19-.34-.69-.49-1.03-.27s-.47.66-.27,1.03c.04.07.07.18.12.25-.04-.1-.05-.13-.03-.07,0,.02.02.04.02.06.02.04.03.09.04.13.06.17.1.35.15.53.1.41.22.8.4,1.18.1.21.33.33.55.36.25.03.44-.05.63-.21.25-.2.39-.52.5-.81.1-.25.15-.51.2-.77.09-.55.15-1.11.14-1.66,0-.27-.14-.51-.37-.65-.21-.12-.55-.16-.76,0-.14.11-.28.21-.39.35-.13.16-.22.32-.22.53,0,.18.08.4.22.53.28.25.79.32,1.06,0h0Z"/>
  <path d="M112.03,217.4c.11.92.12,1.85.19,2.78.03.45.08.9.17,1.35.04.18.09.36.11.54-.01-.13,0,.07,0,.1,0,.09,0,.09.01,0,0,.04-.02.08-.03.12l1.1-.45c-1.31-.79-2.22-2.4-3.51-3.4-.32-.25-.75-.31-1.06,0-.26.26-.32.81,0,1.06,1.4,1.08,2.27,2.71,3.81,3.63.43.26.95,0,1.1-.45.14-.43.05-.89-.04-1.32s-.12-.64-.16-1.08c-.08-.96-.09-1.92-.2-2.87-.05-.4-.31-.75-.75-.75-.37,0-.8.34-.75.75h0Z"/>
  <path d="M104.5,217.19c.1.51.27,1,.34,1.51l-.03-.2c.03.2.04.4.02.6l.03-.2s-.02.08-.03.13c0,.04-.05.12.02-.03s.03-.07,0-.03c-.05.08.15-.17.08-.11-.08.08.18-.12.1-.07-.07.04-.03-.03.13-.05-.02,0-.04.01-.06.01l.2-.03s-.07,0-.1,0l.2.03s-.13-.04,0,.01c.08.03.09.04.05.02-.01,0-.03-.02-.04-.02,0,0,.18.15.07.05-.02-.02-.04-.04-.06-.06-.02-.02-.04-.04-.06-.07-.08-.09.11.15.04.05-.04-.06-.08-.12-.12-.18-.14-.22-.25-.46-.4-.68-.22-.32-.5-.61-.79-.87-.34-.31-.72-.6-1.11-.85-.33-.21-.84-.08-1.03.27-.2.37-.09.8.27,1.03.08.05.16.1.24.16.03.02.23.14.23.17l-.07-.06s.05.04.08.06c.04.03.08.06.11.09.09.07.17.15.26.23.13.12.25.24.37.37.06.07.12.14.19.21.07.07-.13-.18-.07-.09.02.03.04.05.05.08.31.49.54,1.08,1.06,1.39.63.37,1.44,0,1.58-.72.1-.5.02-1.01-.09-1.5-.07-.36-.19-.71-.26-1.07-.08-.39-.56-.64-.92-.52-.41.13-.61.51-.52.92h0Z"/>
  <path d="M108.15,209.23c.07.37.09.59.12,1.01.03.37.04.73.06,1.1.04.78.11,1.58.32,2.34l.72-.95s-.05,0-.08,0h.12s-.03,0-.04,0c0,0-.08-.03-.08-.02.02-.02.16.09.07.03-.02-.02-.05-.03-.07-.04-.03-.02-.11-.1-.03-.02.08.08-.06-.05-.08-.08-.05-.05-.09-.09-.14-.14-.02-.03-.04-.05-.07-.08-.07-.07.08.11.02.03-.09-.13-.18-.25-.26-.38-.27-.45-.48-.92-.71-1.39-.17-.36-.71-.48-1.03-.27-.37.24-.45.65-.27,1.03.26.54.49,1.08.82,1.58.42.63,1,1.26,1.82,1.27.49,0,.85-.49.72-.95-.05-.18-.09-.37-.13-.56-.02-.09-.03-.19-.05-.28,0-.05,0-.05,0,0,0-.05-.01-.11-.02-.16-.04-.37-.06-.73-.08-1.1-.04-.79-.08-1.57-.23-2.34-.07-.39-.56-.64-.92-.52-.41.13-.6.51-.52.92h0Z"/>
  <path d="M98.59,206.36c.29,1.3.7,2.57,1.18,3.82.21.55.43,1.09.7,1.61.11.21.22.42.3.63.09.23.13.38.13.54l1.13-.65c-.8-.39-1.36-1.27-1.94-2.01-.63-.82-1.35-1.74-2.41-1.99-.94-.22-1.34,1.22-.4,1.45.27.06.22.04.45.19.04.03.08.05.12.08-.09-.07.04.03.05.04.09.08.17.16.25.24.36.36.62.72.9,1.09.62.82,1.26,1.75,2.21,2.2.51.25,1.11-.05,1.13-.65s-.23-1.11-.48-1.62c-.27-.55-.46-.92-.66-1.45-.49-1.28-.92-2.59-1.23-3.94-.21-.94-1.66-.54-1.45.4h0Z"/>
  <path d="M94.1,208.16c.28.97.57,1.96,1.14,2.8.26.39.58.74.92,1.07.16.15.32.31.47.47.08.08.15.16.22.24.03.04.06.07.09.11-.08-.1.05.08.06.08.22.32.67.5,1.03.27.32-.21.51-.68.27-1.03-.27-.38-.58-.72-.92-1.05-.15-.15-.3-.29-.44-.44-.08-.08-.15-.16-.22-.25-.03-.04-.06-.07-.09-.11-.08-.1.09.14-.04-.05-.54-.8-.76-1.56-1.03-2.51-.11-.38-.53-.65-.92-.52s-.64.52-.52.92h0Z"/>
  <path d="M103.08,205.97c.2.33.37.67.56.99.22.38.49.74.8,1.04.28.28.78.3,1.06,0s.3-.77,0-1.06c-.13-.13-.25-.26-.36-.41l.12.15c-.35-.46-.59-.99-.88-1.48-.1-.16-.26-.29-.45-.34s-.42-.03-.58.08c-.34.22-.49.67-.27,1.03h0Z"/>
  <path d="M114.58,212.92l.42.41c.07.07.15.12.24.16.09.05.19.07.29.06.1,0,.2-.02.29-.06.09-.03.17-.08.24-.16l.12-.15c.07-.12.1-.24.1-.38l-.03-.2c-.04-.13-.1-.24-.19-.33l-.42-.41c-.07-.07-.15-.12-.24-.16-.09-.05-.19-.07-.29-.06-.1,0-.2.02-.29.06-.09.03-.17.08-.24.16l-.12.15c-.07.12-.1.24-.1.38l.03.2c.04.13.1.24.19.33h0Z"/>
  <path d="M96.41,195.41c.21.02,0-.01-.05-.04-.24-.1-.56.02-.73.19-.19.19-.26.47-.19.73.29,1.13.68,2.29,1.32,3.28.21.33.67.5,1.03.27.33-.21.5-.67.27-1.03-.15-.23-.28-.46-.4-.7-.06-.13-.12-.25-.18-.38-.03-.08-.03-.06.01.03-.01-.03-.03-.07-.04-.1-.03-.07-.05-.13-.08-.2-.2-.51-.36-1.04-.49-1.57l-.92.92c.14.06.29.07.45.09.39.04.77-.38.75-.75-.02-.44-.33-.7-.75-.75h0Z"/>
  <path d="M91.36,196.68c.14.83.39,1.62.64,2.42.12.39.24.79.34,1.18.05.2.1.41.14.61.02.09.03.17.05.26,0,.04.04.28.04.24l.95-.72c-.06-.01-.11-.03-.17-.04-.07-.02-.12-.06-.03,0-.04-.02-.09-.06-.13-.07-.07-.02.08.08-.01,0-.07-.07-.14-.13-.2-.21.07.07.04.06,0-.01-.03-.04-.06-.08-.08-.12-.25-.39-.47-.78-.77-1.13-.27-.31-.79-.27-1.06,0-.3.3-.27.75,0,1.06.01.01.14.18.04.05.03.04.06.09.09.13.06.09.12.19.18.29.11.19.22.38.35.56.35.48.8.84,1.39.97.42.09,1.01-.21.95-.72-.22-1.76-.96-3.38-1.26-5.11-.07-.4-.56-.62-.92-.52-.42.12-.59.52-.52.92h0Z"/>
  <path d="M87.12,194.06c.14.69.28,1.38.5,2.05.06.18.17.35.34.45.16.09.4.13.58.08.37-.12.66-.52.52-.92-.22-.67-.35-1.36-.5-2.05-.08-.38-.55-.64-.92-.52-.41.13-.61.51-.52.92h0Z"/>
  <path d="M91.5,189.12c0,.18,0,.35-.02.53-.01.11-.03.23-.04.34-.03.35.06.71.17,1.04.06.18.17.35.34.45.16.09.4.13.58.08s.36-.17.45-.34.14-.39.08-.58c-.06-.18-.11-.36-.14-.54l.03.2c-.02-.16,0-.31.02-.47.03-.23.04-.46.04-.69,0-.19-.08-.39-.22-.53-.13-.13-.34-.23-.53-.22s-.4.07-.53.22-.22.33-.22.53h0Z"/>
  <path d="M93.77,183.51c-.18.94-.49,1.86-.53,2.82-.01.39.35.77.75.75.42-.02.74-.33.75-.75,0-.18.02-.36.05-.53l-.03.2c.1-.71.32-1.39.45-2.09.04-.2.03-.4-.08-.58-.09-.16-.27-.3-.45-.34-.37-.08-.84.11-.92.52h0Z"/>
  <path d="M99.45,172.93c-1.18,1.08-2.48,2.02-3.49,3.28-.13.16-.22.32-.22.53,0,.18.08.4.22.53.27.25.8.33,1.06,0,1.01-1.26,2.31-2.2,3.49-3.28.29-.26.29-.8,0-1.06-.31-.29-.75-.28-1.06,0h0Z"/>
  <path d="M122.79,173.77v.03c0-.07-.01-.13-.02-.2.01.1,0,.19,0,.29l.03-.2c-.01.1-.04.19-.07.28,0,.03-.02.05-.03.08-.03.1.04-.09.04-.09,0,.03-.06.13-.07.15-.11.2-.23.4-.37.58-.03.05-.07.09-.1.13-.03.04-.1.13.04-.05-.02.02-.03.04-.05.06-.07.09-.14.18-.22.27-.13.16-.27.32-.4.48s-.22.32-.22.53c0,.18.08.4.22.53.27.25.8.33,1.06,0,.37-.46.76-.9,1.09-1.39.18-.27.32-.55.43-.86.12-.34.13-.68.08-1.03-.03-.17-.2-.36-.34-.45-.16-.09-.4-.13-.58-.08s-.36.17-.45.34c-.1.19-.11.37-.08.58h0Z"/>
  <path d="M119.74,171.9c-.54.65-1.05,1.33-1.61,1.97-.26.3-.53.59-.82.87-.15.15-.31.29-.47.43-.08.07-.16.14-.24.2-.05.04-.1.08-.15.12-.12.1.08-.06-.06.05-.16.12-.29.24-.34.45-.05.18-.03.42.08.58.2.31.69.52,1.03.27.73-.56,1.4-1.17,2-1.86.57-.65,1.09-1.34,1.64-2.01.25-.3.32-.77,0-1.06-.28-.25-.79-.32-1.06,0h0Z"/>
  <path d="M114.67,171.54c-.54.53-1.07,1.07-1.63,1.57-.14.12-.27.24-.41.36-.07.06-.14.12-.21.17,0,0-.15.12-.07.05s-.05.04-.07.05c-.31.23-.62.44-.96.63s-.49.69-.27,1.03.66.48,1.03.27c1.39-.79,2.51-1.95,3.64-3.07.28-.28.3-.79,0-1.06s-.76-.29-1.06,0h0Z"/>
  <path d="M107.81,173c-.07.12-.14.24-.23.35l.12-.15c-.24.31-.54.56-.84.8l.15-.12c-.33.26-.67.5-.99.77-.14.12-.22.35-.22.53s.08.4.22.53.33.23.53.22.37-.08.53-.22c.11-.1.23-.19.35-.28l-.15.12c.68-.53,1.41-1.02,1.84-1.79.1-.17.13-.39.08-.58-.05-.17-.18-.36-.34-.45-.35-.19-.82-.1-1.03.27h0Z"/>
  <path d="M103.14,175.6c.97,0,.97-1.5,0-1.5s-.97,1.5,0,1.5h0Z"/>
  <path d="M121.84,210.59c0,2.79.64,5.54,1.99,7.98.25.45,1.07.53,1.3,0,.48-1.1.66-2.26.84-3.43.06-.4-.1-.81-.52-.92-.36-.1-.86.12-.92.52-.16,1.02-.28,2.12-.69,3.08h1.3c-1.23-2.21-1.78-4.7-1.79-7.22,0-.97-1.5-.97-1.5,0h0Z"/>
  <path d="M130.84,216.46s.05.08.07.12c-.04-.1,0,0,0,.05s.02.09.03.14c.02.12,0-.1,0,.02,0,.12,0,.24,0,.35,0,.05,0,.11-.01.16,0-.08,0,.03,0,.05-.08.5-.23.99-.38,1.47-.32,1.02-.44,2.14-.97,3.08h1.3s-.05-.09-.08-.13c-.02-.03-.07-.16-.02-.03-.04-.1-.07-.21-.1-.32-.03-.12-.06-.24-.08-.35-.01-.07-.02-.14-.04-.21,0-.01-.03-.18-.02-.1-.07-.47-.09-.95-.14-1.42-.04-.4-.32-.75-.75-.75-.38,0-.79.34-.75.75.06.57.09,1.14.17,1.71s.18,1.14.49,1.61,1.01.51,1.3,0c.62-1.11.8-2.4,1.17-3.6.33-1.06.69-2.34.1-3.37-.48-.84-1.78-.08-1.3.76h0Z"/>
  <path d="M161.44,206.86c-.22.76-.52,1.44-.8,2.1-.32.75-.65,1.51-.86,2.3-.13.5.37,1.14.92.92.82-.33,1.66-.84,2.11-1.63.19-.34.09-.84-.27-1.03s-.82-.1-1.03.27c-.04.07-.08.14-.13.2.11-.14-.07.07-.09.09-.05.05-.1.09-.14.14-.03.03-.07.06-.1.09.06-.05.06-.04-.01,0-.13.09-.26.18-.4.26-.08.04-.15.08-.23.12-.04.02-.08.04-.11.05.09-.04.09-.04.01,0l.92.92c.42-1.56,1.2-2.82,1.66-4.4.11-.38-.13-.83-.52-.92s-.81.12-.92.52h0Z"/>
</svg>