<?xml version="1.0" encoding="UTF-8"?>
<svg id="Layer_31" data-name="Layer 31" xmlns="http://www.w3.org/2000/svg" viewBox="0 0 256 256">
  <defs>
    <style>
      .cls-1 {
        fill: #fff;
      }
    </style>
  </defs>
  <g>
    <path class="cls-1" d="M108.54,217.77c-1.75-4.49-2.82-3.65-2.78-8.74,1.54.31,3.19.95,4.62,1.57-.28-1.22-2.89-5.34-2.27-6.68.8-1.72,2.69,1.47,4.06,1.64-.09-1.8-2.22-6.13-1.13-7.76.99.07,3.39,3.06,4.27,3.43-.75-2.23-.93-5.35-.18-7.62.79.95,1.94,1.76,3.11,2.3.89-2.54.46-2.39,2.78-4.12.38,1.52,2.02,1.23,2.98,2.53.95-.83,2.59-2.99,3.76-3.76,1.73-1.13,1.58,2.07,2.94,2.87.55-.76,2.05-1.62,2.78-2.21,1.11.89.18,2.63,2.02,2.69,1.05.03,1.65.46,2.3-.24.18,1.81.45,1.95.8,3.71,1.54-.77,2.21-.89,3.16-2.38,1.12,2.52.27,5.99-.07,8.79,1.26-1.1,2.87-2.34,3.84-3.53.9,4.47-1.19,8.92-3.4,12.75,1.95-.97,3.01-2.95,4.67-4.12.92,3.88-4.24,10.81-6.5,14.07-2,2.89-4.12,5.47-5.52,8.63-.04-1.33.35-3.14-.65-4.25-2.61.72-2.91,8.05-3.38,10.3-2.26-2.47-3.43-5.65-5.7-8.14-.67,3.13-.34,6.55-.24,9.73-3.2-1.96-4.16-7.2-7.21-9.66.13,1.15.68,2.87-.02,3.83-2.09-.43-2.44-5.37-3.15-7.03-1.21-2.8-2.02-1.16-3.42-3.87l-2.47-4.76Z"/>
    <path d="M109.99,217.37c-.59-1.48-1.36-2.82-2.08-4.23-.65-1.28-.65-2.69-.65-4.1l-1.9,1.45c1.47.32,2.88.83,4.26,1.42,1.14.49,2.58-.32,2.2-1.69-.5-1.83-1.78-3.39-2.22-5.24-.03-.11-.04-.27-.09-.37,0-.2,0-.25-.01-.16-.05.37-.37.52-.98.45.02.05.61.45.73.54.76.63,1.51,1.37,2.51,1.58.88.19,1.98-.42,1.9-1.45-.11-1.28-.53-2.49-.88-3.72-.24-.83-.92-2.46-.45-3.29l-1.69.69c.5.09,1.34,1.05,1.82,1.52.64.61,1.29,1.36,2.09,1.76,1.1.56,2.62-.37,2.2-1.69-.69-2.2-.86-4.6-.18-6.82l-2.51.66c.95,1.07,2.12,1.91,3.41,2.53.91.44,1.87.07,2.2-.9.21-.61.39-1.46.66-1.94.24-.43.93-.92,1.43-1.28l-2.2-.9c.28.84.73,1.51,1.49,1.99.66.42,1.36.59,1.88,1.2s1.56.51,2.12,0c.64-.59,1.21-1.26,1.8-1.9.2-.22,1.74-1.48,1.73-1.68,0-.01-.71-.16-.71-.16-.02.05.18.32.2.38.07.29.25.61.38.88.36.75.81,1.34,1.49,1.81.5.35,1.42.24,1.82-.23.68-.83,1.64-1.34,2.48-1.98l-1.82-.23c.33.32.31.95.48,1.39.24.64.66,1.13,1.27,1.44.68.34,1.6.36,2.35.42.95.09,1.64-.19,2.35-.81l-2.56-1.06c.16,1.41.56,2.73.85,4.11.21,1.01,1.39,1.3,2.2.9,1.56-.77,2.7-1.43,3.69-2.91l-2.74-.36c1.07,2.65.22,5.67-.12,8.39-.18,1.41,1.7,1.81,2.56,1.06,1.31-1.14,2.71-2.21,3.84-3.53l-2.51-.66c.74,4.13-1.26,8.11-3.25,11.6-.76,1.33.74,2.76,2.05,2.05,1.9-1.03,2.98-2.86,4.67-4.12l-2.2-.9c.31,1.52-.47,3.26-1.12,4.59-.89,1.85-1.99,3.59-3.13,5.29-2.58,3.84-5.69,7.43-7.62,11.66l2.8.76c0-1.97.19-3.67-1.09-5.31-.3-.39-1.01-.54-1.46-.39-2.14.72-2.94,3.06-3.41,5.06s-.6,4.2-1.01,6.28l2.51-.66c-2.21-2.49-3.49-5.64-5.7-8.14-.72-.82-2.29-.42-2.51.66-.67,3.36-.41,6.74-.3,10.13l2.26-1.3c-1.61-1.04-2.48-2.93-3.37-4.56-.97-1.76-1.98-3.56-3.54-4.87-1.21-1.02-2.71-.02-2.51,1.46.11.77.56,1.95.13,2.67l1.69-.69c-1.03-.28-1.37-3.27-1.59-4.18-.43-1.83-1.07-3.61-2.76-4.62-1.08-.65-1.5-1.74-2.07-2.84l-1.73-3.33c-.89-1.71-3.48-.2-2.59,1.51,1.22,2.36,2.32,5.75,4.7,7.16,1.5.89,1.56,3.14,1.97,4.68.49,1.8,1.26,3.96,3.25,4.51.65.18,1.35-.12,1.69-.69.94-1.57.41-3.3.17-4.98l-2.51,1.46c3.24,2.74,3.84,7.5,7.52,9.9.94.61,2.29-.19,2.26-1.3-.1-3.1-.42-6.26.19-9.33l-2.51.66c2.21,2.49,3.49,5.64,5.7,8.14.72.82,2.29.42,2.51-.66.34-1.7.46-3.45.78-5.16.19-.99.61-3.77,1.55-4.09l-1.46-.39c.58.75.21,2.32.21,3.19,0,1.39,2.15,2.17,2.8.76,2.07-4.53,5.46-8.34,8.17-12.49,2.08-3.19,4.82-7.37,4-11.37-.18-.88-1.45-1.46-2.2-.9-1.67,1.24-2.83,3.12-4.67,4.12l2.05,2.05c2.44-4.27,4.45-8.89,3.55-13.91-.19-1.08-1.8-1.48-2.51-.66-1.14,1.33-2.53,2.39-3.84,3.53l2.56,1.06c.38-3.01,1.2-6.25.01-9.19-.48-1.2-1.98-1.5-2.74-.36-.66.99-1.58,1.33-2.62,1.84l2.2.9c-.23-1.11-.62-2.19-.74-3.32-.15-1.3-1.53-1.97-2.56-1.06.03-.03-.86-.27-1.06-.18s-.19-.04-.01.18c.13.17-.04-.27-.06-.34-.17-.81-.47-1.53-1.07-2.11-.43-.41-1.29-.64-1.82-.23-1.03.79-2.25,1.43-3.08,2.45l1.82-.23c-.52-.36-.67-1.48-.99-2.01-.54-.89-1.43-1.46-2.49-1.25-2.13.42-3.54,3.01-5.04,4.38h2.12c-.42-.5-.93-.87-1.51-1.17-.34-.18-.97-.31-1.09-.7-.27-.83-1.38-1.51-2.2-.9-.86.64-1.84,1.28-2.42,2.22-.52.83-.73,1.88-1.05,2.79l2.2-.9c-1.08-.52-2.01-1.17-2.8-2.07s-2.2-.36-2.51.66c-.82,2.7-.66,5.74.18,8.42l2.2-1.69c-1.7-.86-2.62-3.22-4.63-3.58-.66-.12-1.34.08-1.69.69-1.57,2.75.69,5.76.92,8.52l1.9-1.45c-1.02-.22-1.77-1.47-2.71-1.92-1.38-.67-2.88.05-3.26,1.55-.64,2.54,1.71,4.95,2.34,7.25l2.2-1.69c-1.62-.69-3.25-1.35-4.98-1.72-.94-.2-1.9.43-1.9,1.45,0,1.73.08,3.48.8,5.08.63,1.38,1.47,2.64,2.04,4.06.71,1.77,3.61,1,2.89-.8Z"/>
  </g>
  <path d="M136.01,206.98c-.05,2.65-.82,5.03-1.52,7.55-.52,1.89-.69,3.8-1.49,5.6-1.81,4.11-3.36,7.97-3.2,12.57.03.96,1.53.97,1.5,0-.09-2.59.3-5.09,1.17-7.53.62-1.75,1.49-3.4,2.19-5.12.73-1.81.89-3.77,1.43-5.64.72-2.47,1.38-4.84,1.42-7.42.02-.97-1.48-.97-1.5,0h0Z"/>
  <path d="M127.8,208.53c-.51,4.68-1.85,9.21-2.29,13.9-.2,2.16-.59,4.54-.32,6.71.18,1.46,1.14,2.81.49,4.28-.39.88.91,1.64,1.3.76.65-1.47.42-2.56-.03-4.04-.65-2.12-.2-4.56-.02-6.73.42-5.02,1.83-9.87,2.37-14.87.1-.96-1.4-.95-1.5,0h0Z"/>
  <path d="M120.51,213.43c-.86,4.16-1.16,8.43-.87,12.67.13,1.88.42,3.64,1.01,5.43s1.17,3.47.94,5.38c-.11.96,1.39.95,1.5,0,.19-1.65-.14-3.2-.65-4.76-.61-1.88-1.11-3.62-1.26-5.61-.34-4.25-.08-8.53.78-12.7.2-.94-1.25-1.34-1.45-.4h0Z"/>
  <path d="M139.43,215.24c-1.62,2.4-2.7,5.14-3.67,7.86-.46,1.3-.9,2.59-1.13,3.95s-.4,2.61-.82,3.88c-.3.92,1.14,1.31,1.45.4.4-1.21.59-2.43.79-3.68.21-1.35.62-2.63,1.08-3.92.95-2.68,2-5.37,3.6-7.74.54-.8-.76-1.55-1.3-.76h0Z"/>
  <path d="M115.87,208.53c-.04,4.55-.57,8.98-.01,13.53.49,3.98,1.52,7.68,3.62,11.12.5.82,1.8.07,1.3-.76-2.11-3.46-3.06-7.17-3.51-11.17-.48-4.27.06-8.45.11-12.72,0-.97-1.49-.97-1.5,0h0Z"/>
  <path d="M129.82,193.87c.6,4.39,1.66,9.36-.15,13.61-.37.88.92,1.64,1.3.76,1.99-4.69.96-9.9.3-14.77-.13-.95-1.57-.55-1.45.4h0Z"/>
  <path d="M122.51,195.43c.61,4.42.43,8.91,1.33,13.3.19.95,1.64.55,1.45-.4-.9-4.38-.72-8.88-1.33-13.3-.13-.95-1.58-.55-1.45.4h0Z"/>
  <path d="M118.71,196.56c0,2.66.15,5.34.44,7.98.04.4.31.75.75.75.37,0,.79-.34.75-.75-.29-2.64-.44-5.32-.44-7.98,0-.97-1.5-.97-1.5,0h0Z"/>
  <path d="M134.26,194.98c.79,2.76.76,5.98-.22,8.69-.33.91,1.12,1.3,1.45.4,1.07-2.95,1.08-6.49.22-9.49-.27-.93-1.71-.53-1.45.4h0Z"/>
  <path d="M111.88,212.84c-.08,2.25.18,4.45.4,6.68.18,1.81.16,3.84,1.14,5.45.5.82,1.8.07,1.3-.76-.89-1.45-.78-3.36-.97-5-.24-2.12-.45-4.24-.37-6.38.03-.97-1.47-.96-1.5,0h0Z"/>
</svg>