<?xml version="1.0" encoding="UTF-8"?>
<svg id="Layer_49" data-name="Layer 49" xmlns="http://www.w3.org/2000/svg" viewBox="0 0 256 256">
  <defs>
    <style>
      .cls-1 {
        fill: #fff;
      }
    </style>
  </defs>
  <g>
    <path class="cls-1" d="M194.99,170.06c-.21,4.74-.78,8.09-1.88,12.75-1.41,5.93-4.39,10.02-5.21,16.06-.31,2.28-4.42,3.29-4.9,5.54-.57,2.65-2,5.03-2.81,7.61-.43,1.38-3.18,2.54-3.43,3.96-1.18,6.67-1.85,5.61-3.03,12.28-.18,1.03-.37,2.07-.86,2.99-.46.86-1.17,1.55-1.87,2.23-2.38,2.32-3.77,4.65-6.15,6.97-.13-1.27-.27-2.53-.4-3.8-3.61,3.71-7.21,7.42-10.82,11.14-.25-1.41-.49-2.83-.74-4.24-.08-.48,1.78-1.03,1.35-1.24-1.12-.55-1.49,1.46-2.12,2.53-.65,1.11-2.23,1.34-3.42.86s-2.07-1.49-2.91-2.46c-1.38.72-.8,3.07-1.98,4.08-1.42,1.22-3.37-.6-4.54-2.07-2.18-2.75-5.1-4.9-8.38-6.16.15,1.67,1.7,4.28,1.85,5.95-1.2.2-3.33.85-2.7,1.89-3.28-1.53-6.62-3.16-9.59-5.23-.5,1.26-1.23,2.16-2.39,2.86-2.61-1.76-6.52-3.09-9.14-4.85,1.25.78.69,4.61-.44,5.54s-1.11-1.33-2.43-1.97-2.35-1.74-3.35-2.83c-1.34-1.46-.41-3.27-1.76-4.74.05,2.22-1.17,4.8-1.12,7.02-1.79-1.39-1.88-4.21-3.6-5.68-.8-.68-1.85-.98-2.79-1.46-2.49-1.29-4.13-4.07-4.05-6.87-.55,2.46-.25,5.1.83,7.37-2-2.47-4.03-4.96-5.45-7.81-3.18-6.38-3.19-2.46-4.78-9.41-.57-2.51-4-6.72-5.43-10.64-.47-1.3-1.94-1.56-2.72-2.7-.64-.95-5.97-3.36-6.15-4.49-.46-2.77-2.25-7.82-4.27-14.23-1.58-5.02-.2-10.58-.55-12.75-1.26-7.65-2.44-7.14,2.22-13.52,2.22.35,6.97-2.63,8.42-.89s3.35,9.26,4.66,11.08c2.15,3,1.91,8.18,4.66,10.64,3.75,3.37,9.5,6.55,13.25,9.92.77.7,1.59,1.42,2.6,1.67s1.26-.13,1.63-1.1c1.36.77,2.21,2.18,3.23,3.36s1.76,1.65,3.28,1.25c1.56-.41,3.13-1.55,3.71-3.07.95.32,1.8.91,2.42,1.69,1.89-1.53,5.13,2.22,5.78,4.56.02-.2.4-5.57.44-5.76.89-3.66,3.11-5.21,3.11-5.21,0,0,2.88,4.15,3.05,5.99,1.27-.75,4.77-7.29,4.77-7.29,0,0,4.35,2.72,4.93,3.96,1.37-2.37,1.74-4.45,3.27-2.19.13-2.4,4.32,1.98,4.27,9.06,0,1.28,2.74-6.49,2.88-5.21,1.55,2.44,1.11,1.21,4.38-2.3.72.69,3.9,3.41,4.62,4.1,2.38-.52.66-1.13,5.97.31.81.22,2.6-4.86,3.3-5.31.89-.57,2.13,1.23,3.13.88,3.24-1.14,5.86-5.54,7.53-8.54.59-1.05,1.91-2.35,2.7-1.44.43-1.85,2.13-3.33,4.02-3.51-.17-2.14,3.39-6.09,4.04-10.18.56-3.49.57-8.63,6.76-7.15.39-.76,1.53.72,3.55,1.55s1.68,5.71,1.55,8.65Z"/>
    <path d="M193.49,170.06c-.28,5.83-1.27,11.72-3.38,17.18-1.01,2.62-2.2,5.18-2.96,7.89-.32,1.13-.34,2.49-.74,3.57-.29.77-1.13,1.27-1.77,1.74-.76.56-1.56,1.11-2.17,1.84-.79.95-.94,2.02-1.32,3.16-.42,1.29-.99,2.52-1.51,3.77s-.71,2.33-1.7,3.2c-.77.68-1.64,1.27-2.2,2.15-.64,1.01-.67,2.36-.93,3.5-.38,1.72-.97,3.37-1.47,5.06-.33,1.12-.59,2.26-.82,3.4-.35,1.79-.46,3.59-1.72,5.01-1.11,1.25-2.33,2.38-3.39,3.68-1.18,1.43-2.33,2.87-3.64,4.18l2.56,1.06c-.13-1.27-.27-2.53-.4-3.8s-1.58-2.07-2.56-1.06c-3.61,3.71-7.21,7.42-10.82,11.14l2.51.66-.37-2.12c-.06-.35-.05-.85-.2-1.18l-.08-.47c-.49.67-.58.89-.26.68.61-.03,1.47-1.02,1.59-1.53s0-1.09-.39-1.46c-1.75-1.66-3.42.3-4.1,1.85-.37.83-.66,1.45-1.7,1.24-1.14-.23-1.99-1.39-2.71-2.22-.42-.48-1.29-.57-1.82-.23-1.35.87-1.5,2.12-1.91,3.54-.2.69-.24.89-.92.51-.75-.41-1.33-1.16-1.87-1.81-2.46-2.95-5.47-5.13-9.04-6.55-.84-.33-2.01.53-1.9,1.45.26,2.09,1.59,3.89,1.85,5.95l1.1-1.45c-2.05.38-4.73,1.57-3.59,4.09l2.05-2.05c-3.3-1.55-6.58-3.16-9.59-5.23-.61-.42-1.75-.17-2.05.54-.42.98-.94,1.74-1.85,2.32h1.51c-2.89-1.9-6.24-2.95-9.14-4.85-1.65-1.08-3.01,1.45-1.51,2.59-.33-.25-.05-.08-.07.15-.02.27.05.57.03.85-.03.51-.12,1.04-.3,1.52-.03.07-.28.52-.27.55l1.19.22c-.08-.13-.16-.26-.23-.4-.22-.53-.65-1.07-1.07-1.45-.6-.54-1.37-.81-1.98-1.34s-1.39-1.18-1.81-1.88c-.39-.66-.33-1.5-.49-2.23-.19-.9-.59-1.61-1.16-2.33-.85-1.06-2.55-.14-2.56,1.06-.02,2.39-1.1,4.62-1.12,7.02l2.56-1.06c-1-.85-1.38-2.1-1.92-3.26-.62-1.34-1.48-2.47-2.79-3.2s-2.75-1.14-3.8-2.37c-.99-1.16-1.48-2.61-1.48-4.12,0-1.65-2.6-2.1-2.95-.4-.6,2.94-.25,5.79.98,8.52l2.36-1.82c-1.3-1.61-2.61-3.22-3.74-4.96-.98-1.51-1.7-3.16-2.64-4.7-.5-.82-1.08-1.57-1.72-2.29-.39-.44-.49-.47-.74-1.03-.56-1.25-.7-2.65-1.1-3.95-.43-1.4-1.21-2.71-1.95-3.96-.88-1.5-1.8-2.97-2.58-4.53s-1.15-2.93-2.6-4.01c-.88-.65-1.53-1.47-2.43-2.09s-1.93-1.18-2.89-1.77c-.47-.29-.96-.57-1.39-.91-.11-.08-.21-.21-.33-.28-.33-.21-.03.04-.04-.04-.18-1.13-.51-2.25-.83-3.34-1.03-3.54-2.26-7.03-3.35-10.55s-.74-7.01-.55-10.61c.15-2.8-.91-5.42-1.13-8.18-.2-2.45,1.69-4.6,3.11-6.56l-1.3.74c1.6.18,3.25-.53,4.75-.97.71-.21,1.43-.43,2.17-.46.19,0,.58.16.3-.03.15.11.23.3.38.58,1.58,2.87,2.2,6.21,3.56,9.19.63,1.38,1.47,2.54,1.93,4.02.6,1.94,1,3.95,1.9,5.79s2.52,3.06,4.12,4.29c1.98,1.51,4.05,2.89,6.09,4.31,1.09.76,2.19,1.53,3.23,2.36s1.94,1.76,3.01,2.49c.92.63,2.21,1.18,3.34.86,1.06-.3,1.52-1.25,1.89-2.2l-2.2.9c2.2,1.37,3.09,4.67,5.97,4.94,2.53.23,5.31-1.65,6.3-3.92l-1.69.69c.72.27,1.26.73,1.76,1.31.4.47,1.31.59,1.82.23,1.26-.89,3.3,2.77,3.58,3.67.52,1.66,2.82,1.27,2.95-.4.14-1.76.27-3.52.4-5.28,0-.13.02-.26.04-.39-.12.83.16-.43.19-.5.24-.76.6-1.48,1.03-2.15.27-.41.58-.79.93-1.13.14-.13.75-.6.22-.22l-2.05-.54c.46.67.9,1.36,1.32,2.06.54.91,1.39,2.14,1.52,3.17s1.2,2,2.26,1.3c1.45-.96,2.39-2.78,3.26-4.23.71-1.18,1.39-2.38,2.04-3.59l-2.05.54c1.39.87,3.67,2.08,4.39,3.42.53.99,2.05.96,2.59,0,.35-.63.66-1.28,1-1.91.05-.1.35-.48.33-.58.21-.22.07-.24-.41-.07-.58-.08-.66.04-.24.37.89,1.23,2.65.77,2.8-.76-.03.35-.45.71-.76.8-.18.05-.48-.07-.63-.03-.24.06.04-.1.02.02,0,0,.36.34.52.55.65.85,1.08,1.89,1.4,2.9.48,1.52.64,3.03.72,4.61.06,1.19.99,2.38,2.31,1.65,1.14-.63,1.6-2.67,2.08-3.77.25-.57.82-1.34.93-1.95.03-.16-.01-.03-.01,0,.08.62-2.33-1-2.39-.59-.03.21.22.5.32.66.24.41.54.84.89,1.16,2.27,2.15,4.47-2.06,5.69-3.4h-2.12c.9.84,1.84,1.63,2.76,2.44s2.01,2.24,3.32,2.04c.36-.06.72-.19,1.07-.32.15-.06.87-.29.37-.2.4-.07.37,0,.73.07.78.17,1.55.37,2.32.58,1.49.4,2.33.05,3.15-1.23.67-1.03,1.13-2.2,1.69-3.29.11-.22.23-.44.35-.66.04-.07.17-.24.18-.3,0,.14-.09,0-.04.05.03.02-.6.21-.6.23,0,.04.08.03.18.13.22.22.66.41.94.54,1.6.77,3.08,0,4.39-1,1.67-1.26,2.97-2.93,4.12-4.66.53-.8,1.02-1.62,1.5-2.45.23-.41.44-.85.72-1.23.09-.12.23-.23.31-.36.35-.6.48.21-.21-.39.83.73,2.19.48,2.51-.66.4-1.44,1.52-2.26,2.97-2.46.63-.09,1.12-.85,1.1-1.45-.04-1.64,1.49-3.52,2.21-4.93.99-1.96,1.65-3.9,1.96-6.08.18-1.3.3-2.8.99-3.95.82-1.36,2.36-1.24,3.75-.93.7.16,1.29-.12,1.69-.69-1.12,1.59-1.68.04-.99.65.17.15.39.26.58.38.5.33,1,.64,1.54.89.73.35.87.63,1.06,1.45.44,1.95.21,4.08.12,6.06s2.91,1.93,3,0c.12-2.73.6-6.32-.98-8.74-.79-1.21-2.3-1.66-3.47-2.42s-2.49-1.15-3.45.21l1.69-.69c-2.1-.47-4.43-.52-6.12,1.02-1.34,1.22-1.85,3.06-2.14,4.78-.39,2.32-.75,4.39-1.83,6.52-.99,1.95-2.67,4.15-2.62,6.44l1.1-1.45c-2.45.34-4.41,2.2-5.06,4.56l2.51-.66c-2.74-2.41-4.87,1.5-6.06,3.49-.79,1.32-1.63,2.62-2.65,3.77-.47.53-.96,1.04-1.52,1.47-.26.2-.53.38-.81.54-.21.12-.72.25-.52.29-.41-.08-.87-.54-1.27-.72-.64-.29-1.31-.4-1.97-.15-.9.33-1.33,1.2-1.74,2.01-.48.94-.9,1.91-1.41,2.83-.1.18-.45.78-.49.74l.33-.19c.41-.13.45-.21.12-.24-.1-.09-.47-.13-.6-.16-.37-.1-.74-.19-1.12-.28-.85-.2-1.78-.45-2.66-.24-.58.14-1.12.42-1.71.56l1.46.39c-1.5-1.41-3.12-2.69-4.62-4.1-.57-.54-1.56-.61-2.12,0-.78.86-1.5,1.75-2.21,2.66-.06.07-.58.62-.57.67-.04-.16,1.11-.03,1.17-.06.14-.08.09.36.01-.03s-.73-1.19-1.19-1.39c-.67-.29-1.36-.06-1.83.45-.72.77-1.08,1.96-1.49,2.9-.25.58-.49,1.15-.76,1.72-.09.2-.2.4-.29.6-.2.46-.09.03.25-.12l1.16-.15h-.02c.3.22.6.45.9.68.16.76.22.83.18.2,0-.27-.02-.55-.03-.82-.03-.53-.09-1.06-.17-1.58-.13-.95-.33-1.88-.62-2.8-.44-1.39-1.05-2.76-1.94-3.93-.61-.8-1.43-1.65-2.5-1.67-1.27-.03-1.89,1.04-2,2.16l2.8-.76c-.81-1.12-1.95-2.22-3.42-1.45-1.26.67-1.79,2.48-2.44,3.64h2.59c-.64-1.19-1.94-2.05-3-2.82-.8-.59-1.63-1.15-2.47-1.68-.67-.42-1.68-.16-2.05.54-.57,1.06-1.16,2.1-1.77,3.13-.47.8-.95,1.59-1.48,2.35-.18.26-.35.53-.55.77-.11.13-.25.26-.35.4-.06.08-.39.3-.08.09l2.26,1.3c-.33-2.45-1.87-4.74-3.25-6.75-.43-.62-1.35-1.04-2.05-.54-2.04,1.46-3.53,4.11-3.86,6.57-.25,1.88-.29,3.81-.43,5.7l2.95-.4c-.86-2.75-4.62-7.83-7.99-5.46l1.82.23c-.85-.98-1.88-1.62-3.08-2.08-.55-.21-1.45.13-1.69.69-.51,1.17-2.48,3.16-3.9,2.26-.8-.51-1.38-1.56-1.97-2.28-.67-.81-1.4-1.51-2.3-2.07s-1.86.03-2.2.9c-.04.1-.08.18-.11.28.21-.67.44.06-.04-.35-.4-.33-.88-.56-1.28-.9-.85-.73-1.69-1.45-2.58-2.13-1.85-1.42-3.79-2.73-5.71-4.06s-3.77-2.53-5.37-4.09c-1.25-1.23-1.69-3.05-2.14-4.68-.49-1.76-.94-3.59-1.91-5.16-.68-1.1-1.16-2.2-1.6-3.42-.56-1.54-1.08-3.1-1.66-4.63-.48-1.24-.95-2.73-1.88-3.72-2.57-2.76-6.55.77-9.49.45-.55-.06-1,.34-1.3.74-1.47,2.02-3.22,4.2-3.5,6.78-.25,2.34.59,4.81.99,7.09.24,1.34.1,2.68,0,4.04-.13,1.88-.22,3.77-.04,5.65.37,4,2.01,7.83,3.22,11.64.46,1.43.91,2.87,1.29,4.33.27,1.03.31,2.27,1.02,3.11,1.43,1.71,3.79,2.49,5.56,3.78.27.2.36.35.65.67.55.61,1.33.93,1.88,1.52.51.54.69,1.38.99,2.05.4.86.85,1.69,1.32,2.51.88,1.54,1.85,3.03,2.66,4.6.67,1.3.89,2.69,1.29,4.09.28.96.6,1.93,1.2,2.74.48.66,1.08,1.2,1.53,1.86,1.13,1.64,1.88,3.5,2.95,5.18,1.29,2.02,2.82,3.89,4.33,5.75,1.15,1.42,3-.39,2.36-1.82-.88-1.95-1.11-4.12-.68-6.21l-2.95-.4c0,3.41,1.88,6.72,4.97,8.25.75.37,1.63.62,2.3,1.14.58.45.91,1.16,1.22,1.82.65,1.41,1.17,2.84,2.39,3.87.96.82,2.55.31,2.56-1.06.02-2.39,1.1-4.62,1.12-7.02l-2.56,1.06c.72.9.47,2.4.93,3.45.51,1.17,1.58,2.17,2.53,3,.74.64,1.88,1.04,2.4,1.85.48.74.81,1.56,1.74,1.82,1.98.56,3.13-1.83,3.45-3.38.38-1.82.34-3.89-1.25-5.1l-1.51,2.59c2.89,1.9,6.24,2.95,9.14,4.85.43.28,1.08.27,1.51,0,1.33-.84,2.31-1.94,2.93-3.39l-2.05.54c3.01,2.07,6.29,3.68,9.59,5.23,1.41.66,2.68-.66,2.05-2.05.14.31-.27.75,0,.86.05.02.49-.22.56-.24.4-.14.82-.23,1.23-.3.58-.11,1.18-.84,1.1-1.45-.26-2.09-1.59-3.89-1.85-5.95l-1.9,1.45c2.01.8,3.9,1.96,5.5,3.42,1.45,1.32,2.51,3.04,4.08,4.22,1.41,1.06,3.36,1.55,4.78.21.6-.56.93-1.32,1.14-2.1.12-.44.12-1.48.53-1.74l-1.82-.23c1.54,1.78,3.43,3.47,5.96,3.06,1.01-.16,1.93-.67,2.54-1.51.3-.41.48-.87.68-1.33.08-.18.16-.37.25-.55.06-.13.12-.25.2-.37.29-.41-.08-.47-1.12-.18l-.39-1.46c.2-.82.72-.72.08-.44-.2.09-.4.23-.57.35-.43.31-.78.68-.92,1.2-.18.72.11,1.56.24,2.27l.49,2.83c.2,1.13,1.77,1.42,2.51.66,3.61-3.71,7.21-7.42,10.82-11.14l-2.56-1.06c.13,1.27.27,2.53.4,3.8s1.57,2.05,2.56,1.06c2.3-2.29,4.17-4.96,6.45-7.26,1.06-1.07,1.91-2.18,2.38-3.63s.6-2.98.93-4.44c.38-1.72.97-3.37,1.47-5.06.31-1.05.56-2.12.78-3.2.11-.54.1-1.26.36-1.74.23-.42.71-.74,1.07-1.05.82-.69,1.65-1.34,2.13-2.33.61-1.28,1.03-2.7,1.59-4.02s.88-2.77,1.41-4.1c.29-.73,1.07-1.21,1.68-1.66.8-.59,1.63-1.16,2.27-1.92.85-1.02.92-2.08,1.18-3.34.57-2.79,1.66-5.42,2.73-8.04,2.56-6.26,3.84-12.91,4.16-19.66.09-1.93-2.91-1.93-3,0Z"/>
  </g>
  <path d="M166.19,189.71c-.56,3.61-.72,7.23-1.02,10.87s-1.32,7.04-2.15,10.61-1.24,7.33-1.57,11.01c-.16,1.78-.32,3.22-1.29,4.76-.88,1.4-1.96,2.67-2.64,4.18-.41.91-.68,1.88-1.09,2.79-.47,1.03-1.03,2.02-1.52,3.04-1.02,2.1-1.65,4.25-1.86,6.58-.13,1.44,2.12,1.43,2.25,0,.2-2.22.94-4.23,1.94-6.2.84-1.66,1.51-3.33,2.22-5.04.62-1.48,1.7-2.72,2.56-4.06s1.4-2.77,1.55-4.4c.33-3.66.66-7.32,1.39-10.93s1.89-6.94,2.31-10.56c.46-4.01.49-8.05,1.11-12.04.22-1.42-1.95-2.03-2.17-.6h0Z"/>
  <path d="M157.73,194.66c.13,6.78,1.09,13.55-.4,20.24-.71,3.2-1.87,6.05-3.25,9-1.26,2.68-2.73,5.45-3.24,8.4-.73,4.28-.59,8.83-2.7,12.75-.69,1.28,1.26,2.41,1.94,1.14,1.84-3.42,2.17-7.25,2.62-11.04.4-3.43,1.54-6.32,3-9.44,1.38-2.94,2.71-5.81,3.5-8.97s1.24-6.58,1.24-9.93c0-4.05-.39-8.1-.47-12.15-.03-1.45-2.28-1.45-2.25,0h0Z"/>
  <path d="M150.67,195.18c.66,3.26,1.16,6.52,1.21,9.85.02,1.54-.03,3.07-.06,4.6-.04,1.71.07,3.47-.1,5.17-.24,2.41-1.21,4.84-1.89,7.15-.72,2.43-1.38,4.76-1.5,7.29-.24,5.26-1.45,10.53-2.28,15.72-.23,1.42,1.94,2.03,2.17.6.75-4.63,1.64-9.26,2.17-13.92.17-1.52.08-3.07.39-4.56.27-1.28.64-2.54,1-3.79.74-2.55,1.67-5.12,2.09-7.76.25-1.57.13-3.2.17-4.78s.09-3.22.09-4.84c0-3.83-.53-7.58-1.29-11.33-.29-1.42-2.46-.82-2.17.6h0Z"/>
  <path d="M144.26,195.36c.55,4.15,1.46,8.33,1.15,12.53-.26,3.58-1.46,7.01-1.81,10.58-.4,4.2-.14,8.44.17,12.63.14,1.94.16,3.81-.04,5.74s-.37,3.8-.25,5.73c.09,1.44,2.34,1.45,2.25,0-.24-3.76.59-7.46.31-11.23-.32-4.28-.6-8.59-.19-12.88.33-3.49,1.49-6.84,1.79-10.34.36-4.29-.57-8.55-1.13-12.77-.19-1.41-2.44-1.43-2.25,0h0Z"/>
  <path d="M138.98,196.31c2.54,7.28-.75,14.34-1.58,21.6-.92,7.99.37,16.06,2.12,23.85.58,2.6,1.31,7.63,5.02,7.35,1.44-.11,1.45-2.36,0-2.25-1.71.13-2.12-2.58-2.41-3.82-.55-2.35-1.07-4.7-1.5-7.07-.88-4.77-1.42-9.63-1.24-14.49.32-8.65,4.77-17.18,1.77-25.77-.47-1.36-2.65-.77-2.17.6h0Z"/>
  <path d="M136.92,242.86c1.45,0,1.45-2.25,0-2.25s-1.45,2.25,0,2.25h0Z"/>
  <path d="M131.5,191.2c.5,1.98,1.31,3.84,1.94,5.78.69,2.11.68,3.92.53,6.11s-.06,4.29-.34,6.44c-.22,1.72-.17,3.42-.13,5.15.19,9.05-.99,18.3,1.76,27.09.43,1.38,2.6.79,2.17-.6-2.77-8.82-1.48-18.18-1.7-27.26-.04-1.78.04-3.48.27-5.24.28-2.16.1-4.35.3-6.51.38-4.16-1.66-7.63-2.64-11.55-.35-1.4-2.52-.81-2.17.6h0Z"/>
  <path d="M125.23,192.31c.88,2.92,2.21,5.67,3.17,8.56s.78,5.74.4,8.78c-.35,2.78-.28,5.62-.28,8.42,0,3.4.39,6.55,1.1,9.88.44,2.06,1.11,4.42.71,6.53-.35,1.81-.98,3.27-.72,5.16.2,1.43,2.37.82,2.17-.6-.22-1.59.62-3.07.82-4.62.23-1.74-.12-3.58-.45-5.29-.37-1.93-.86-3.84-1.16-5.78-.24-1.6-.23-3.2-.23-4.82,0-2.82-.08-5.69.23-8.5s.66-5.73-.1-8.65c-.87-3.31-2.51-6.39-3.5-9.67-.42-1.38-2.59-.79-2.17.6h0Z"/>
  <path d="M121.53,193.17c.08,2.2.46,4.34,1.09,6.44.58,1.93,1.25,3.83,1.57,5.82.64,3.95.2,8.17.01,12.15-.17,3.53-.4,7.05-.6,10.58-.14,2.54.14,5.02.55,7.53.26,1.54.74,3.04,1.11,4.56.23.94.45,1.89.66,2.83.07.33.14.66.21.99.04.19.05.58.06.3l.56-.97h0c.51.14,1.03.27,1.54.41v-.02c-.77-1.23-2.72-.1-1.96,1.14v.02c.35.55.99.67,1.55.4h0c.36-.17.54-.6.56-.98.04-1.06-.44-2.29-.67-3.3-.36-1.53-.76-3.04-1.16-4.56-.63-2.37-.93-5.01-.81-7.46.34-7.14,1.23-14.38.85-21.53-.26-4.95-2.7-9.4-2.88-14.36-.05-1.44-2.3-1.45-2.25,0h0Z"/>
  <path d="M115.3,195.56c-.01,3.79,2.21,6.87,3.58,10.25,1.51,3.7,1.06,7.45.75,11.32-.35,4.43,0,8.88.24,13.3.12,2.23.25,4.45.48,6.67.2,1.95.26,3.87.78,5.77.38,1.39,2.55.8,2.17-.6-.53-1.92-.58-3.91-.78-5.89-.23-2.2-.32-4.42-.44-6.63-.24-4.35-.54-8.7-.17-13.05.31-3.63.64-7.24-.59-10.76s-3.79-6.62-3.78-10.39c0-1.45-2.25-1.45-2.25,0h0Z"/>
  <path d="M107.93,194.68c-.06,2.34.72,4.48,1.62,6.6s1.74,4.28,2.38,6.5c1.09,3.81,1.62,7.73,2.51,11.58.48,2.07,1.34,4.07,1.18,6.23-.17,2.28-.69,4.43-.62,6.73.14,4.16.84,8.05,2.91,11.7.71,1.26,2.66.13,1.94-1.14-2.04-3.61-2.62-7.54-2.63-11.64,0-2.19.69-4.32.68-6.51,0-2.04-.84-4-1.3-5.97-.84-3.65-1.35-7.37-2.34-10.99-.58-2.13-1.32-4.22-2.19-6.25-.93-2.21-1.96-4.4-1.91-6.85.04-1.45-2.21-1.45-2.25,0h0Z"/>
  <path d="M100.8,196.97c3.38,7.01,4.5,14.77,6.53,22.22.57,2.08,1.42,4.13,1.88,6.23s.1,4.28.28,6.41c.31,3.74,2.11,7.08,3.69,10.41.62,1.31,2.56.17,1.94-1.14-1.72-3.61-3.43-6.98-3.44-11.07,0-2.05.06-4.08-.54-6.06s-1.32-4.13-1.87-6.24c-1.96-7.38-3.18-14.96-6.53-21.89-.63-1.3-2.57-.16-1.94,1.14h0Z"/>
  <path d="M94.96,192.99c1.95,4.06,2.27,8.46,2.79,12.87.25,2.14.69,4.12,1.38,6.16.65,1.91,1.34,3.8,1.61,5.82,1.17,8.73,3.07,18,8.88,24.92.93,1.11,2.52-.49,1.59-1.59-2.91-3.46-4.69-7.66-5.94-11.97-.62-2.17-1.13-4.37-1.55-6.58s-.56-4.42-1.02-6.59c-.42-1.97-1.19-3.85-1.8-5.76s-.88-4.03-1.11-6.11c-.47-4.26-1.03-8.38-2.9-12.29-.63-1.31-2.57-.17-1.94,1.14h0Z"/>
  <path d="M90.41,190.86c-.57,7.97,1.74,15.88,3.82,23.49,1.08,3.97,2.17,7.94,2.96,11.98s1.69,8.42,3.39,12.41c.57,1.33,2.51.18,1.94-1.14-1.68-3.93-2.42-8.14-3.25-12.3-.77-3.89-1.83-7.72-2.87-11.55-2.03-7.43-4.3-15.11-3.74-22.89.1-1.44-2.15-1.44-2.25,0h0Z"/>
  <path d="M84.75,185.57l1.07,13.88c.35,4.47.58,8.99,1.59,13.37s2.57,8.6,3.94,12.86,2.83,8.83,4.25,13.24c.44,1.37,2.61.79,2.17-.6-1.42-4.41-2.83-8.83-4.25-13.24-1.32-4.11-2.81-8.21-3.83-12.4s-1.28-8.8-1.62-13.22l-1.07-13.88c-.11-1.43-2.36-1.45-2.25,0h0Z"/>
  <path d="M80.06,181.66c1,3.39-.13,6.85-.25,10.31-.15,4.2.22,8.41.89,12.55,1.37,8.51,4.1,16.72,6.83,24.88.46,1.37,2.63.78,2.17-.6-2.73-8.15-5.46-16.37-6.83-24.88-.69-4.26-.99-8.59-.77-12.9.09-1.74.38-3.42.6-5.14s0-3.22-.46-4.82c-.41-1.39-2.58-.8-2.17.6h0Z"/>
  <path d="M75.52,172.45c.7,1.38,1.12,2.69,1.02,4.24-.12,1.84-.57,3.67-.97,5.46-.82,3.7-1.44,7.3-.99,11.1.85,7.22,4.2,14.2,3.24,21.58-.18,1.43,2.07,1.42,2.25,0,.99-7.72-2.66-14.86-3.33-22.42-.37-4.12.7-7.92,1.48-11.92.3-1.54.64-3.16.58-4.73s-.63-3.04-1.35-4.45c-.66-1.29-2.6-.15-1.94,1.14h0Z"/>
  <path d="M71.16,164.85c.08,4.41-.09,8.82-.03,13.23.01,1,0,1.92-.31,2.88s-.78,1.91-1.06,2.9c-.46,1.63-.03,3.22-.09,4.88-.04,1.2-.25,2.38-.25,3.59,0,1.58.13,3.17.3,4.74.31,2.81.66,5.78,1.69,8.43.52,1.33,2.7.75,2.17-.6-1-2.56-1.37-5.44-1.65-8.16-.16-1.56-.27-3.13-.27-4.69,0-1.22.27-2.42.24-3.63-.02-.88-.15-1.75-.16-2.63s.26-1.67.57-2.49c.7-1.86,1.07-3.42,1.05-5.43-.05-4.34.12-8.68.03-13.02-.03-1.45-2.28-1.45-2.25,0h0Z"/>
  <path d="M69.09,159.56c-.84,5.01-2.1,9.94-3.01,14.94-.33,1.78-.53,3.55-.92,5.32-.6,2.69-1.28,5.36-1.78,8.07-.42,2.28-1.13,5.25-.05,7.45.64,1.3,2.58.16,1.94-1.14-.29-.6-.22-1.55-.18-2.25.07-1.27.28-2.52.51-3.76.48-2.57,1.12-5.11,1.7-7.66.39-1.72.59-3.46.91-5.2.47-2.59,1.02-5.17,1.56-7.75s1.08-4.94,1.5-7.43c.24-1.42-1.93-2.03-2.17-.6h0Z"/>
  <path d="M185.88,160.97c-.04,1.82.73,3.27,1.79,4.69,1.24,1.68,2.26,3.32,2.54,5.43.38,2.82-.1,5.8-.3,8.62s-.39,5.84.11,8.71c.25,1.42,2.42.82,2.17-.6-.99-5.65,1-11.39.23-17.04-.29-2.11-1.11-3.95-2.36-5.66-.95-1.3-1.97-2.47-1.93-4.16.03-1.45-2.22-1.45-2.25,0h0Z"/>
  <path d="M65.1,162.15c.06.21-.05.63-.18.98-.21.56-.5,1.08-.79,1.6-.56,1-1.19,1.98-1.55,3.07-1.04,3.11-.89,6.6-2.68,9.45-.77,1.23,1.17,2.36,1.94,1.14.96-1.52,1.46-3.24,1.81-4.99s.52-3.6,1.19-5.26c.39-.97,1.12-2,1.63-3,.54-1.06,1.18-2.37.81-3.59-.42-1.38-2.59-.79-2.17.6h0Z"/>
  <path d="M179.46,172.85c2.35,4.7,3.07,10.16,1.91,15.29-.58,2.58-1.38,4.95-1.02,7.63s1.44,5.14,1.73,7.81c.15,1.43,2.4,1.44,2.25,0-.29-2.72-1.34-5.26-1.74-7.96-.44-2.97.84-5.69,1.27-8.58.79-5.26-.08-10.57-2.45-15.33-.65-1.3-2.59-.16-1.94,1.14h0Z"/>
  <path d="M174.64,180.29c.68,6.41.85,12.65.02,19.05-.17,1.28.06,2.48.38,3.72.34,1.32.47,2.61.6,3.96.27,2.98.55,5.97.25,8.96-.15,1.44,2.11,1.43,2.25,0,.29-2.91.04-5.83-.23-8.74-.12-1.35-.19-2.71-.51-4.04-.33-1.4-.67-2.59-.45-4.04.95-6.28.61-12.59-.05-18.88-.15-1.43-2.4-1.44-2.25,0h0Z"/>
  <path d="M170.4,184.58c1.09,4.45.33,8.74-.33,13.19-.28,1.89-.51,3.8-.45,5.71.03,1.1.15,2.17.03,3.27-.13,1.2-.42,2.37-.64,3.56-.44,2.38-.39,4.8-.73,7.19-.3,2.12-.71,4.19-1.33,6.24-1.29,4.33-3.13,8.53-3.87,13-.24,1.42,1.93,2.03,2.17.6.59-3.55,1.88-6.93,3.02-10.34s1.95-6.81,2.38-10.39c.23-1.91.18-3.82.53-5.71.33-1.78.79-3.58.8-5.41,0-1.66-.16-3.28,0-4.94s.43-3.24.69-4.86c.62-3.94.87-7.8-.09-11.71-.34-1.41-2.51-.81-2.17.6h0Z"/>
  <path d="M182.2,169.07c3.14,3.77,4.57,8.76,3.91,13.62-.35,2.6-1.09,5.13-1.23,7.76s.23,5.27,1.01,7.78c.43,1.38,2.6.79,2.17-.6-.84-2.7-1.15-5.51-.83-8.33s1.2-5.56,1.29-8.42c.16-4.9-1.61-9.66-4.72-13.41-.93-1.11-2.51.48-1.59,1.59h0Z"/>
</svg>