<?xml version="1.0" encoding="UTF-8"?>
<svg id="Layer_32" data-name="Layer 32" xmlns="http://www.w3.org/2000/svg" viewBox="0 0 256 256">
  <defs>
    <style>
      .cls-1 {
        fill: #fff;
      }

      .cls-2 {
        opacity: .3;
      }

      .cls-3 {
        fill: #435054;
      }
    </style>
  </defs>
  <g class="cls-2">
    <path class="cls-3" d="M104.51,186.47c1.32.53,3.02-.23,4.2-.8,1.25-.61,2.62-1.49,3.09-2.86l-2.95-.4c.17,1.99,1.49,3.34,3.53,2.57.68-.26,1.27-.68,1.94-.96,1.3-.56,2.75-.76,4.09-1.22l-1.16-.15c.44.31.68.97.98,1.4.43.61.88,1.07,1.51,1.48.57.37,1.35.21,1.82-.23.68-.64,1.2-1.56,2.02-2.02l-2.05-.54c.64.94,1.18,2.11,2.21,2.71,1.35.79,2.61.03,3.38-1.14l-2.36.3c.58.52.71,1.71,1.08,2.4.54,1.02,1.45,1.83,2.65,1.86,2.43.07,3.71-3.08,4.1-5.06l-2.95-.4c.03,1.74,1.03,3.12,2.58,3.87.74.36,1.61.2,2.05-.54.19-.32.53-.86.59-1.23l.14-.27-.49.2c-.02.08.76.51.81.54.66.36,1.7.21,2.05-.54.57-1.23.9-2.55,1.53-3.75l-2.74-.36c.44,2.06,1.61,3.89,3.6,4.73,1.76.74,3.93.56,4.48-1.58l-2.74.36c1.17,2.54,3.88,4.34,6.53,4.99.62.15,1.38-.1,1.69-.69.69-1.31.31-2.68.81-4l-2.95-.4c.11,1.27.5,2.49,1.84,2.93,1.05.34,2.22.05,3.31.19,1.91.24,1.89-2.76,0-3-.62-.08-1.22-.05-1.85-.04-.19,0-.4,0-.58,0,.4.03.33.5.28-.07-.14-1.72-2.34-2-2.95-.4-.39,1.03-.01,2.35-.51,3.29l1.69-.69c-1.98-.49-3.87-1.73-4.74-3.62-.55-1.2-2.44-.82-2.74.36.11-.41.52.01-.11-.26-.32-.14-.62-.22-.9-.43-.77-.58-1.09-1.55-1.28-2.45-.27-1.25-2.15-1.47-2.74-.36-.64,1.2-.96,2.52-1.53,3.75l2.05-.54c-1.12-.62-2.06-1.46-3.4-.74-1,.54-1.22,1.68-1.77,2.57l2.05-.54c-.56-.27-1.08-.59-1.09-1.28-.03-1.63-2.61-2.11-2.95-.4-.14.68-.36,1.36-.68,1.98-.12.23-.5.62-.54.85-.07.39-.24-.19.03.08.36.37.11-.12.12-.08-.12-.47-.45-1.01-.63-1.47-.27-.69-.55-1.38-1.12-1.89-.74-.67-1.81-.53-2.36.3l.73.06s-.09-.1-.14-.15c-.01-.06-.33-.44-.33-.45-.23-.34-.43-.69-.66-1.03-.46-.67-1.31-.96-2.05-.54-1.08.62-1.74,1.65-2.62,2.49l1.82-.23c-.8-.51-1.11-1.63-1.77-2.3-1.12-1.13-2.16-.59-3.51-.23-1.17.32-2.35.61-3.44,1.16-.32.16-.71.32-.99.54-.05.04-.34.09-.36.14.3-.63.73.98.67.18-.14-1.68-2.38-2.04-2.95-.4.1-.3-.3.21-.42.3-.39.3-.85.55-1.3.76-.56.27-1.52.65-1.89.5-1.79-.72-2.57,2.18-.8,2.89h0Z"/>
  </g>
  <g>
    <path class="cls-1" d="M144.08,171.61c-3.04-1.74-4.43-2.36-7.62-2.55-2.88-.17-5.01,2.13-8,2.16-2.99.03-5.41-2.31-8.19-2.71-1.41-.2-5.69.59-7.08,2.05s-2.21,1.95-3.49,3.4c-2.28,2.56-2.9,6.9-4.78,10.08,2.76-2,5.54-4.47,8.27-6.5-1.03,1.73-.44,2.37-1.48,4.1,1.8-.63,3.07-1.71,5.04-2.07,1.69-.31,2.32-1.41,3.96-2.01.17.51-.42,3.62-.16,3.78.77.49,2.85-2.21,3.57-2.92.31,1.18.6,2.53,1.25,3.46.77-.64.61-.9,1.37-1.65.24.6,1.97,3.48,2.05,4.25.34-.69.99-3.77,1.33-4.44.49.58,2.25,3.08,2.75,3.15s.02-2.6-.18-3.88c1.46-.36,2.18,3.78,3.43,3.05-.35-.39,1.76-3.66,1.34-4,2.67.3,2.1,4.65,4.4,4.82-.14-.24.29-2.34.03-2.67,2.6,2.37,2.23,4.43,5.22,5.83-.22-1.6-.16-4.25-.58-5.74,1.1.74,5.03,3.74,6.23,4.36-.4-4.46-3.71-9.13-6.4-11.75l-2.28-1.61Z"/>
    <path d="M144.84,170.31c-2.98-1.69-6.35-3.22-9.87-2.65-1.68.27-3.12,1.18-4.71,1.71-1.8.6-3.36.23-5.04-.56-1.59-.74-3.17-1.63-4.95-1.81-1.2-.12-2.47.11-3.64.38-1.33.31-2.74.76-3.86,1.57-1.36.99-2.68,2.36-3.82,3.59-2.82,3.03-3.33,7.23-5.33,10.73-.69,1.22.78,2.98,2.05,2.05,2.83-2.07,5.46-4.4,8.27-6.5l-2.05-2.05c-.72,1.31-.77,2.82-1.48,4.1-.59,1.06.41,2.68,1.69,2.2,1.64-.61,3.12-1.62,4.84-2.03,1.62-.38,2.68-1.44,4.17-2.05l-1.85-1.05c-.08-.39-.02.12-.03.22-.03.24-.04.49-.06.73-.05.52-.13,1.05-.16,1.57-.06,1.01.12,2.05,1.26,2.35,2.04.54,3.71-2.13,4.91-3.35l-2.51-.66c.34,1.32.67,2.65,1.4,3.82.53.85,1.63.96,2.36.3.55-.5.88-1.12,1.37-1.65l-2.36-.3c.56,1.28,1.64,2.5,1.9,3.89.23,1.21,2.22,1.52,2.74.36.61-1.37.83-3.33,1.33-4.44l-2.36.3c.95,1.16,2.35,3.97,4.21,3.53,2.24-.52,1.11-4.25.86-5.72l-1.05,1.85c-1.11.16-.47-.27-.43.1.01.11.3.47.36.57.27.44.5.89.81,1.3.78,1.06,1.81,1.49,3.06.93.78-.35.86-1.39.54-2.05.33.68.02.74.21.59.04-.03.15-.36.17-.42.21-.49.46-.96.67-1.45.35-.8.87-1.89.28-2.72l-1.69,2.2c1.08.18,1.32,1.55,1.72,2.42.52,1.14,1.36,2.21,2.68,2.39,1.1.15,2.16-.63,1.85-1.85.1.4.06-.37.07-.5.02-.27.06-.54.08-.81.03-.61-.01-1.15-.27-1.72l-2.36,1.82c2.08,1.98,2.81,4.71,5.53,6.06.9.45,2.41-.07,2.26-1.3-.25-2.04-.13-4.14-.63-6.14l-2.2,1.69c2.08,1.42,4.01,3.16,6.23,4.36.91.49,2.39-.1,2.26-1.3-.4-3.76-2.17-7.15-4.46-10.12-.85-1.09-1.74-2.25-2.87-3.06-.69-.5-1.4-.99-2.09-1.48-1.58-1.12-3.08,1.48-1.51,2.59l1.81,1.28c.78.55,1.42,1.38,2.07,2.19,1.96,2.43,3.72,5.44,4.06,8.6l2.26-1.3c-2.22-1.2-4.15-2.94-6.23-4.36-1.13-.77-2.5.5-2.2,1.69.43,1.74.31,3.57.53,5.34l2.26-1.3c-2.32-1.16-3.09-3.85-4.92-5.6-1.29-1.23-3.05.31-2.36,1.82-.25-.54-.1-.07-.14.2s-.05.55-.08.81c-.04.44-.08.86.03,1.3l1.85-1.85c-.85-.12-1.11-1.62-1.45-2.33-.59-1.23-1.55-2.25-2.94-2.49-1.15-.19-2.52,1.02-1.69,2.2-.6-.86.07-.96-.23-.44-.04.08-.17.39-.2.46-.2.45-.42.89-.62,1.34-.39.89-.75,1.71-.29,2.65l.54-2.05c1.71-.76,1.09.51.87-.1-.07-.19-.24-.38-.34-.56-.25-.42-.49-.85-.77-1.24-.73-1-1.58-1.48-2.83-1.31-.86.12-1.16,1.13-1.05,1.85.1.63.22,1.26.29,1.9.03.26-.05.81.06,1.04.18-.71.85-.94,2.01-.71-.07-.07-.15-.13-.21-.21-.61-.94-1.5-1.88-2.21-2.75-.58-.7-1.98-.53-2.36.3-.62,1.37-.83,3.31-1.33,4.44l2.74.36c-.31-1.65-1.54-3.09-2.21-4.61-.39-.88-1.75-.95-2.36-.3-.49.53-.84,1.17-1.37,1.65l2.36.3c-.59-.95-.82-2.03-1.09-3.1s-1.72-1.46-2.51-.66c-.48.48-.91,1-1.37,1.49-.26.27-.55.51-.8.79-.38.43-.45.04.06.25l.9.69c.13.19.02.64.14.31.05-.13.02-.39.03-.54.03-.4.08-.79.12-1.19.07-.68.15-1.34.02-2.01-.15-.73-1.13-1.34-1.85-1.05-1.46.6-2.63,1.69-4.17,2.05-1.73.41-3.19,1.41-4.84,2.03l1.69,2.2c.73-1.31.77-2.81,1.48-4.1.67-1.21-.78-3-2.05-2.05-2.81,2.1-5.44,4.43-8.27,6.5l2.05,2.05c1.6-2.8,2.18-6.07,3.86-8.82.87-1.42,2.21-2.45,3.4-3.58,1.02-.97,1.83-1.53,3.2-1.92,1.03-.29,2.18-.58,3.26-.5,1.46.11,2.82,1,4.12,1.59,1.51.69,3.11,1.25,4.8,1.14,1.58-.11,2.98-.72,4.41-1.34,1.72-.75,3.23-.95,5.08-.59s3.39,1.23,4.98,2.13c1.68.96,3.19-1.63,1.51-2.59Z"/>
  </g>
  <path d="M143.34,180.57c.38-1.38-.31-2.82-.96-4.01-.36-.66-.76-1.3-1.16-1.95-.17-.28-.34-.57-.51-.86-.08-.14-.16-.29-.23-.44-.03-.07-.07-.14-.1-.21-.01-.03-.09-.22-.04-.09-.15-.37-.5-.64-.92-.52-.35.1-.68.55-.52.92.52,1.26,1.32,2.38,1.99,3.55.33.58.65,1.17.86,1.78.05.13.09.27.12.41.02.08.04.16.05.24.03.13,0,0,.01.07.02.14.02.27.01.41,0,.02-.03.24,0,.08-.01.07-.03.14-.05.2-.26.93,1.19,1.33,1.45.4h0Z"/>
  <path d="M138.21,178.38c-.12-2.05-1.23-3.93-2.11-5.72l.1.38v-.04c-.03.13-.06.25-.1.38v-.02c-.33.09-.67.18-1.01.27-.05-.02-.26-.32-.17-.13.02.04.04.07.07.11.23.33.66.49,1.03.27.33-.19.5-.69.27-1.03-.13-.19-.22-.42-.44-.52-.39-.19-.78-.09-1.03.27-.35.5.18,1.2.4,1.66s.47.96.69,1.44c.18.41.37.89.53,1.37.07.23.14.46.19.7.03.12.05.25.07.38-.01-.08,0-.03,0,.02,0,.07.01.14.02.21.02.4.33.75.75.75.39,0,.77-.34.75-.75h0Z"/>
  <path d="M133.7,179.51c-.33-1.06-.51-2.18-.63-3.26-.06-.55-.12-1.11-.16-1.66-.03-.39,0-.83-.34-1.1-.3-.24-.67-.36-1.04-.16s-.46.68-.27,1.03c.05.09.12.17.18.24.26.31.79.27,1.06,0,.31-.31.26-.75,0-1.06l.05.06-.27,1.03h.01c-.19.02-.39.04-.58.07-.22-.09-.03,0,.01.04l-.37-.65c.16,1.95.3,3.96.89,5.84.12.39.52.63.92.52s.64-.53.52-.92h0Z"/>
  <path d="M129.07,180.7c.15-2.15.25-4.34,0-6.48-.05-.4-.31-.75-.75-.75-.37,0-.8.35-.75.75.25,2.15.15,4.33,0,6.48-.03.4.36.75.75.75.43,0,.72-.34.75-.75h0Z"/>
  <path d="M123.48,179.09c.57-.9.85-1.95,1.01-2.99s.24-2.1.39-3.01c.07-.4-.11-.81-.52-.92-.36-.1-.85.12-.92.52-.17.96-.24,2.02-.38,2.92-.15.98-.36,1.92-.88,2.72-.22.34-.07.83.27,1.03.36.21.81.07,1.03-.27h0Z"/>
  <path d="M118.99,177.76c.27-.4.46-.87.64-1.32.21-.52.39-1.06.54-1.6s.27-1.09.34-1.64c.05-.48.02-.95-.3-1.34-.26-.31-.79-.27-1.06,0-.31.31-.26.75,0,1.06-.09-.13-.12-.17-.08-.11.03.06.02.02-.05-.12,0,0,.02.06.02.07.03.14-.02-.07,0-.09,0,0,0,.11,0,.13,0,.08,0,.16,0,.24,0,.05-.01.1-.01.15-.01.16.03-.18,0-.02-.08.49-.2.96-.33,1.43-.15.5-.32,1-.51,1.48-.02.04-.09.2,0,.02-.02.05-.04.09-.06.14-.04.1-.09.2-.14.3-.08.16-.16.31-.26.45-.23.33-.06.83.27,1.03.37.22.8.07,1.03-.27h0Z"/>
  <path d="M113.91,177.74c.03-.09.06-.18.1-.28.02-.05.04-.1.06-.15-.07.19,0,0,.01-.03.09-.21.2-.42.31-.63.25-.47.52-.93.82-1.37.08-.12.16-.23.24-.34.03-.05.07-.09.1-.14.02-.03.04-.06.06-.08-.04.05-.04.06-.01.02.16-.2.32-.4.5-.58s.34-.35.53-.51c.03-.03.17-.13.03-.02.04-.03.09-.06.13-.1.09-.06.17-.11.26-.16.35-.2.47-.68.27-1.03s-.67-.47-1.03-.27c-.98.54-1.73,1.5-2.35,2.41s-1.14,1.85-1.49,2.86c-.13.37.14.84.52.92.42.09.79-.13.92-.52h0Z"/>
</svg>