<?xml version="1.0" encoding="UTF-8"?>
<svg id="Layer_33" data-name="Layer 33" xmlns="http://www.w3.org/2000/svg" viewBox="0 0 256 256">
  <defs>
    <style>
      .cls-1 {
        fill: #fff;
      }
    </style>
  </defs>
  <g>
    <path class="cls-1" d="M60.7,153.65c-4.85,1-2.44,6.99-4.13,9.28-1.38,1.86-3.47,2.03-5.3,7.62-.51,1.56,4.81-1.03,4.66,1.5-.19,3.03-.8,6.82.33,11.56.25,1.03,4.24-6.69,4.68-5.58,1.15,2.96-1.39,5.07,0,8.05,1.49,3.2,2.87,4.84,1.84,8.15,1.39-.32,2.81,7.06,3.53,5.82,1.19,1.98,3.46-4.6,3.59-2.38.09,1.64,1.5,2.66.97,4.24-.5,1.49-2.78,3.15-2.71,4.76.09,2.07,2.36,4.89,3.7,6.51s2.4,3.6,4,5.06c-.29-2.64-3.6-8.18.59-9.97,1.57-.67,2.73.29,3.62,1.57,1.15,1.66,2.7,3.42,3.39,5.26.89,2.39-.39,4.88.35,7.36.79,2.68,3.63,4.68,5.81,6.47,3.95,3.22,7.01,7.76,12.39,7.49-1.36-1.9-4.59-6.39-4.5-8.86.14-3.69,5.54,3.38,6.94,4.37,3.14,2.24,3.63,3.84,7.12,5.65,2.01,1.04,5.51,3.56,7.91,3.42-1.34-2.48.21-6.37.42-9.07,1.52-1.34,2.08.35,3.48.93,5.45,2.24,2.8,9.81,4.69,12.05,1.34-2.08,11.34-10.71,10.14-12.96,2.47,1.21.1,7.48,2.1,9.46,2.1-1.08,7.14-10.66,8.01-12.33.74,1.3,2.44,6.51,2.44,8.18,3.07.16,6.26-4.28,8.25-6.16,2.6-2.46,2.61-6.88,3.38-10.13.25-1.04.52-3.56,2.35-3.18,1.56.33,1.31,10.47.64,11.65,5.95-.3,7.23-12.03,7.92-16.44.43-2.73,1.92-8.5,6.29-8.1.12,1.51-2.3,8.21-1.66,9.58,2.17-.74,4.87-5.67,6.33-7.52s1.87-4.02,2.1-6.11c.38-3.38.16-8.33,4.71-9.74.47,1.55.76,5.8.04,7.24,2.96-2.23,5.09-9.12,6.53-12.25,1.08-2.36-.32-5.7.23-7.84s9.22.5,7.55-1.3c-4.56-4.88-4.3-11.36-4.56-12.47-.5-2.08-1.21-4.8-2.98-6.8s-6.27-4.35-8.6-3.52c-4.48,1.6-2.34,5.98-5.94,9.49-1.72,1.68-1.45,2.8-3.54,3.97-2.19,1.23-8.02,1.06-9.48,2.95-2.47,3.19-1.95,9.4-3.09,13.05-1.22,3.89.93,8.25-3.17,9.93-1.67.68-3.66.99-5.25,1.76-2.04.99-2.44,3.01-3.89,4.4-1.54,1.47-2.95,1.67-4.78,1.41-2.79-.38-.37-.13-1.46,2.04s-3.66,6.29-6.13,5.15c-1.73-.8-.79-7.52-2.25-5.49-1.16,1.6-3.11-7.15-6.24-1-.89,1.75-1.97-3.84-4-4.32-2.77-.66-2.84,8.14-4.81,6.48-1.33-1.13-3.44-4.43-4.68-3.32-.98.88-1.16,6.51-2.44,7.15-1.64.82-3.94,2-5.62,1.34-2.96-1.17-1.41-2.72-2.24-4.9-2.17.62-4.56,2.5-6.68.41-1.96-1.94-2.02-5.48-4.57-7.12-1.14-.73-2.63-.63-3.76-1.44-1.06-.76-1.54-1.98-2.01-3.08s-.37-2.48-.83-3.45c-.61-1.28-1.45-1.12-2.77-1.61-5.11-1.92-.6-11.98-2.77-15.89-1.67-3.01-5.77-1.83-8.65-3.42-2.53-1.39-2.89-2.72-3.7-5.33-.96-3.09-3.45-11.03-6.65-11.86-5.72-1.49-3.93,1.56-7.15,2.22Z"/>
    <path d="M60.31,152.2c-2.34.55-3.8,2.26-4.21,4.6-.18,1.02-.21,2.05-.28,3.08-.05.77-.07,1.66-.53,2.28-.38.52-1,.95-1.49,1.38-.73.65-1.37,1.38-1.92,2.19-1.01,1.47-3.66,5.8-.8,6.73.71.23,1.49.07,2.21-.01.39-.04.84,0,1.23-.08,0,0,.33,0,.31.04-.13-.05-.23-.14-.3-.27-.06-.36-.08-.39-.07-.09-.16.37-.09,1.18-.12,1.58-.06.69-.11,1.38-.15,2.07-.1,1.73-.08,3.46.12,5.18.14,1.18.1,3.41,1.27,4.11.82.49,1.68.08,2.27-.55,1.11-1.19,1.88-2.74,2.8-4.08.21-.31.48-.68.63-.87.07-.09.21-.19.26-.29.13-.12.1-.1-.08.06-1.47-.95-2.05-.98-1.71-.11-.04.77-.04,1.41-.22,2.18s-.38,1.53-.45,2.32c-.16,1.93.76,3.49,1.58,5.16s1.25,3.13.72,5.01c-.24.85.46,2.01,1.45,1.9-.34.04-.61-.46-.35.05.17.33.35.66.49,1.01.35.83.63,1.68.96,2.51.26.64.52,1.41,1.04,1.89.87.8,2.03.54,2.67-.39h-2.59c1.55,2.28,3.58.51,4.68-1.12.24-.35.45-.71.69-1.06.17-.25.17-.16.16-.22.03.54-2.36.05-2.15-.74-.19.72.43,1.81.71,2.44.36.81.47,1.22-.04,1.98-.88,1.32-2.17,2.43-2.37,4.09s.64,3.2,1.45,4.5c.9,1.44,2.02,2.7,3.05,4.05,1.18,1.55,2.18,3.21,3.61,4.56.84.8,2.74.31,2.56-1.06-.17-1.25-.56-2.42-.92-3.62-.33-1.12-.8-2.47-.54-3.65s1.54-1.81,2.46-.88c.64.65,1.13,1.48,1.67,2.21.63.85,1.26,1.71,1.74,2.65,1,1.98.2,4.1.33,6.2.12,1.92.94,3.53,2.16,4.98s2.64,2.49,4.04,3.63c1.29,1.05,2.49,2.2,3.7,3.34,2.84,2.65,5.96,4.94,10.02,4.81,1.04-.03,1.99-1.29,1.3-2.26-1.48-2.05-3.12-4.22-3.98-6.62-.15-.43-.15-.98-.31-1.37-.04-.11.05-.19,0-.17-.06,0-.28.33-.35.37-.08.05-.63.08-.65.11.03-.04.44.22.68.41.33.25.64.54.94.83,1.31,1.23,2.42,2.72,3.83,3.84,2.34,1.84,4.33,4.15,6.95,5.61s5.79,3.9,9.08,3.84c1.2-.02,1.79-1.24,1.3-2.26-.6-1.22-.33-2.76-.1-4.05.25-1.42.58-2.83.72-4.27l-.44,1.06c-.14-.1-.15-.11-.03-.02.13.08.24.18.36.28.34.27.67.55,1.05.77.66.37,1.33.59,1.86,1.16.86.92,1.18,2.22,1.33,3.45.32,2.45-.13,5.27,1.47,7.35.63.82,1.88.41,2.36-.3.19-.29-.07.05.25-.33.19-.22.38-.43.57-.64.52-.57,1.06-1.12,1.6-1.67,1.32-1.35,2.65-2.69,3.92-4.09,1.66-1.82,5.05-4.99,3.79-7.75l-2.05,2.05c.93.53.47,3.28.46,4.16-.02,1.79.07,3.68,1.33,5.07.45.49,1.26.55,1.82.23.96-.54,1.65-1.49,2.3-2.35.93-1.24,1.75-2.56,2.55-3.88,1.3-2.17,2.52-4.39,3.7-6.64h-2.59c.61,1.12.97,2.39,1.34,3.59s.85,2.54.89,3.83c.02.81.67,1.49,1.5,1.5,3.03.02,5.4-2.45,7.32-4.51.96-1.03,2.07-2.02,2.91-3.16.94-1.28,1.48-2.83,1.84-4.36s.53-3.04.83-4.55c.11-.54.22-1.08.35-1.62.05-.24.52-1.19.47-1.34.02.06-.21,0-.35-.07-.25-.11-.23-.23-.24-.2,0,.02.22.81.26,1.03.18.96.21,1.95.24,2.92.04,1.27.01,2.55-.07,3.82-.03.39-.09,1.09-.12,1.3-.03.19-.07.38-.11.57-.03.15-.22.52,0,.09-.47.94.08,2.35,1.3,2.26,5.86-.44,7.63-7.71,8.54-12.42.44-2.27.62-4.61,1.18-6.86s1.67-5.44,4.5-5.27l-1.5-1.5c.05,1.36-.7,3.35-1.08,4.87s-1.11,3.6-.53,5.11c.27.69,1.03,1.37,1.85,1.05,2.2-.87,3.62-2.99,4.91-4.87,1.41-2.04,3.12-4.07,3.89-6.45s.71-4.78,1.07-7.18c.32-2.14,1.06-4.14,3.27-4.88l-1.85-1.05c.28,1.01.37,2.05.41,3.09.03.9.16,2.14-.21,2.99-.69,1.59.99,2.9,2.36,1.82,3.14-2.49,4.53-7.06,5.97-10.65.33-.81.71-1.61,1.01-2.43.44-1.16.45-2.44.35-3.67-.09-1.1-.31-2.2-.27-3.31,0-.07.05-.72.08-.71.01,0-.12.28-.14.27-.02,0-.21.05-.13.1.04.03.4-.1.47-.12,1.11-.18,2.61.05,3.82.15,1.05.08,2.47.31,3.29-.52,1.5-1.5-.76-3.21-1.52-4.38-1.2-1.86-1.92-3.94-2.32-6.1-.23-1.25-.24-2.53-.46-3.79-.36-2.07-1.12-4.27-2.22-6.05s-2.86-3.25-4.79-4.26c-1.76-.92-3.95-1.77-5.97-1.35-1.91.4-3.48,1.76-4.24,3.53s-.89,3.72-1.92,5.35c-.59.93-1.46,1.63-2.09,2.52-.54.77-.91,1.59-1.72,2.13-1.44.96-3.5,1-5.15,1.31s-3.63.67-4.84,1.93c-1.39,1.45-1.97,3.68-2.31,5.59-.39,2.16-.5,4.36-.88,6.52s-.89,3.95-.92,6.08c-.02,1.71.15,3.7-1.65,4.55-2.32,1.11-5.07,1.08-7.03,2.93-1.51,1.43-2.15,4-4.36,4.57-1.42.37-4.09-.98-4.86.83-.15.36-.13.69-.07,1.07.02.14.13.3.18.43-.15-.4,0-.05,0,.02,0,.4-.5,1.24-.82,1.77-.51.86-1.08,1.69-1.79,2.4-.26.26-.53.51-.86.68-.17.09-.26.12-.42.18-.07.02-.56-.03-.3.04.14.04,0-.01-.03-.12-.1-.34-.19-.66-.26-1.01-.12-.64-.16-1.28-.24-1.92-.15-1.24-.37-3.06-2.04-3.04-.32,0-.64.11-.91.28-.17.1-.3.23-.44.36l-.05.05c-.26.34-.31.41-.16.21-.03-.01,1.4-.23,1.33-.18.62-.46-.12.33.07.05,0,0-.34-.43-.36-.46-.68-.96-1.33-2.04-2.36-2.68-1.27-.78-2.71-.46-3.74.54-.26.26-.49.56-.7.86-.17.24-.38.51-.49.78-.1.24-.06.28-.08.24l1.42-.18.13.09c-.02.14-.03,0-.08-.14-.12-.34-.38-.69-.55-1.01-.68-1.3-1.42-2.81-2.8-3.48s-2.83-.04-3.67,1.17c-.76,1.09-1.13,2.45-1.53,3.7-.14.43-.38,1.19-.49,1.43-.05.1-.15.23-.17.33-.07.29-.15,0-.02.04-.15-.04,1.45-.26.65-.23.83-.03.45.21.4.08-.09-.27-.66-.68-.85-.89-.31-.34-.61-.69-.93-1.03-.66-.69-1.4-1.43-2.33-1.75-1.76-.62-2.93.63-3.42,2.18s-.56,3.27-1.13,4.81c-.05.13-.27.57-.2.5.15-.17-.67.3-.89.41-1.02.48-2.35,1.13-3.48.7-.7-.27-.81-.5-.84-1.17-.05-.92-.04-1.79-.35-2.68-.25-.75-1.03-1.3-1.85-1.05-1.34.41-3.51,1.92-4.88,1.07-1.26-.77-1.73-2.69-2.3-3.95-.65-1.45-1.53-2.83-2.91-3.69-.74-.46-1.59-.66-2.42-.89-1.07-.29-1.69-.76-2.21-1.75-.86-1.65-.67-3.66-1.68-5.21-.89-1.36-2.21-1.25-3.5-1.93-1.94-1.02-1.42-4.38-1.29-6.14.19-2.56.73-5.39-.05-7.91-1.01-3.23-4.03-3.83-6.97-4.31-1.54-.25-3.13-.67-4.23-1.87-.89-.98-1.18-2.37-1.56-3.6-.85-2.72-1.78-5.44-3.1-7.97-.67-1.29-1.49-2.62-2.6-3.58-1.27-1.09-2.96-1.46-4.6-1.53-1.25-.05-2.43.29-3.33,1.19-.72.72-.92,1.25-1.92,1.48-1.88.44-1.08,3.33.8,2.89,1.06-.25,1.95-.78,2.67-1.59.23-.25.42-.54.68-.77.11-.1.19-.17.6-.21,3.05-.33,4.4,2.07,5.54,4.46s1.94,5.1,2.78,7.7c1.02,3.14,3.08,5.31,6.38,6.08,2.41.56,5.77.23,6.19,3.35.35,2.64-.3,5.38-.36,8.02-.05,2.46.33,5.28,2.58,6.72,1.03.66,2.68.49,3.04,1.78.25.91.26,1.85.6,2.75s.77,1.86,1.35,2.65c.62.84,1.39,1.46,2.36,1.84.88.35,1.94.41,2.75.92,1.44.92,1.93,2.93,2.61,4.38.79,1.7,2.02,3.36,3.95,3.8,2.08.47,3.94-.72,5.85-1.31l-1.85-1.05c.52,1.54-.07,3.22,1.11,4.56,1.58,1.79,4.07,1.9,6.18,1.15,1.86-.66,3.49-1.32,4.19-3.25.56-1.55.68-3.23,1.14-4.81.04-.15.22-.61.22-.61-.03-.1-.58.54-.62.25,0-.06.58.85.24.14.13.27.64.58.85.79.39.4.76.83,1.14,1.25.93,1.01,2.14,2.15,3.56,1.24,1.05-.68,1.42-2.11,1.78-3.23s.75-2.33,1.26-3.12c.1-.16.05-.12.04-.06-.14.54-.31-.57-.11.08.05.16.35.39.46.55.25.36.46.76.67,1.15.58,1.09,1.15,2.73,2.56,2.91.81.1,1.42-.34,1.84-.99.25-.38.41-.81.69-1.16.14-.17.39-.43.37-.38.01-.03-.15.03-.16-.02,0,.02.22.15.36.29.39.39.58.7.91,1.18.6.86,1.3,1.96,2.48,1.97.6,0,1.43-.44,1.6-.91-.23.6-2.05.23-1.97-.45,0,.06.07.2.07.25.02.25.08.45.11.66.18,1.43.18,3.02.88,4.32.86,1.6,2.79,1.92,4.38,1.22,1.82-.8,3.13-2.61,4.13-4.26.86-1.41,1.63-2.84,1.09-4.51-.3-.94-.14-.2-.06-.16l-1.25,1.76c.08,0,.15,0,.23.02.39.12.91.13,1.32.17,1.15.11,2.29,0,3.36-.46,2.2-.94,3.01-2.83,4.42-4.57,1.59-1.96,4.72-1.86,6.87-2.94,1.87-.94,2.79-2.68,3.02-4.7s-.05-3.91.46-5.82c.55-2.04.77-4.11,1.02-6.2s.47-4.28,1.55-6.04c.8-1.31,2.76-1.43,4.14-1.68,1.74-.31,3.63-.49,5.22-1.35,1.86-1.02,2.74-2.97,4.12-4.48,1.46-1.61,2.12-3.51,2.68-5.57.42-1.54,1.06-3.24,2.92-3.37s4.07,1.16,5.49,2.27c1.84,1.44,2.72,3.61,3.32,5.81.12.45.25.9.34,1.35.05.27-.02-.26.02.22.06.66.12,1.33.2,1.99.25,1.97.68,3.88,1.44,5.72.43,1.04.93,2.04,1.55,2.97.33.49.68.96,1.06,1.42.17.2.44.67.67.78-.68-.29,1.08-1.61.57-1.89.22.12.04,0-.22,0-.29,0-.58-.02-.87-.04-.71-.05-1.43-.12-2.14-.17-1.25-.08-2.67-.18-3.84.36-1.76.82-1.71,2.8-1.55,4.5.11,1.13.3,2.26.24,3.4-.05,1.02-.54,1.9-.92,2.82-.77,1.87-1.48,3.77-2.35,5.59-.82,1.7-1.73,3.49-3.23,4.69l2.36,1.82c1.07-2.45.81-5.87.11-8.4-.21-.75-1.07-1.31-1.85-1.05-2.37.8-3.99,2.42-4.83,4.77-.72,2-.74,4.19-.96,6.28-.16,1.45-.44,2.95-1.12,4.25-.55,1.05-1.35,1.97-2.01,2.95s-1.34,2.03-2.09,3c-.54.69-1.28,1.78-2.13,2.11l1.85,1.05c-.11-.29-.08-.07-.05-.46.02-.35.07-.69.13-1.03.18-.97.42-1.92.66-2.88.39-1.52,1.03-3.23.97-4.82-.03-.85-.66-1.45-1.5-1.5-6.21-.38-7.41,7.19-8.13,11.78-.43,2.74-.95,5.51-1.92,8.12-.68,1.82-1.92,4.48-4.16,4.65l1.3,2.26c.87-1.75.72-4.21.73-6.11,0-2.06.14-4.8-.93-6.65-.62-1.07-1.83-1.41-2.99-1.03-1.4.46-2.02,1.91-2.34,3.24-.72,3.04-.68,6.66-2.36,9.37-.9,1.46-2.47,2.78-3.67,4-1.13,1.15-2.62,2.75-4.36,2.74l1.5,1.5c-.05-1.57-.54-3.14-.99-4.63s-.92-2.97-1.65-4.31c-.52-.97-2.07-.99-2.59,0-1.08,2.07-2.21,4.12-3.4,6.13-.74,1.26-1.51,2.5-2.35,3.69-.32.45-.64.9-1.01,1.31-.32.36-.52.55-.72.66l1.82.23c-.43-.48-.42-1.35-.44-1.96-.03-1,.03-2,.02-2.99-.02-1.78-.28-3.78-1.97-4.74-1.39-.79-2.65.74-2.05,2.05-.05-.1-.08-.41-.11-.32-.05.17.17-.31,0,.02-.15.28-.02.13-.15.41-.27.56-.64,1.09-1.02,1.59-.96,1.29-2.08,2.47-3.18,3.63-1.88,1.98-4.16,3.83-5.68,6.12l2.36-.3s-.17-.5-.22-.79c-.09-.45-.12-.91-.15-1.37-.08-1.11-.11-2.23-.25-3.33-.32-2.5-1.21-4.91-3.43-6.31-.54-.34-1.14-.54-1.66-.92-.57-.42-1.05-.91-1.76-1.11-.63-.17-1.32-.08-1.9.22-.95.48-1.24,1.02-1.37,2.01-.43,3.18-1.68,6.43-.18,9.51l1.3-2.26c-1.6.03-3.14-.91-4.48-1.68-1.43-.81-2.94-1.57-4.3-2.5s-2.38-2.13-3.58-3.18c-.34-.3-.7-.59-1.06-.87-.16-.13-.33-.25-.49-.38-.03-.02-.6-.48-.23-.17-.29-.25-.55-.52-.82-.79-1.49-1.54-2.94-3.44-4.84-4.49-2.35-1.31-3.94.69-3.59,3.01.48,3.21,2.78,6.15,4.63,8.72l1.3-2.26c-3.77.12-6.38-2.5-8.93-4.91-1.41-1.33-2.92-2.52-4.4-3.77-1.39-1.17-3.03-2.55-3.47-4.39-.53-2.2.45-4.48-.16-6.71-.57-2.1-2.07-3.82-3.32-5.54-1.05-1.46-2.26-3.04-4.25-3.04-1.62,0-3.26,1.04-4.03,2.46-1.67,3.09.51,6.19.91,9.23l2.56-1.06c-1.39-1.31-2.35-2.94-3.51-4.44-.95-1.23-1.97-2.39-2.78-3.73-.38-.62-.9-1.41-.95-2.16-.05-.66.41-1.18.79-1.68.95-1.26,2.06-2.42,2-4.11-.03-.77-.32-1.45-.63-2.15s-.35-1.22-.53-1.89c-.3-1.1-1.48-1.64-2.48-1.04-.68.41-1.09,1.24-1.52,1.89-.21.32-.43.66-.63.91-.03.04-.33.29-.33.34.05-.39,1.13,0,1.26.2-.66-.97-1.93-.96-2.59,0,.93-.71,1.61-.78,2.04-.21.08.1.08.09,0-.04-.02-.11-.12-.22-.17-.33-.11-.26-.21-.5-.32-.79-.29-.77-.57-1.54-.89-2.3-.49-1.17-1.31-3.07-2.89-2.9l1.45,1.9c.43-1.51.55-3.05.13-4.58s-1.28-2.87-1.92-4.3c-1.18-2.65,1.11-5.37-.05-8.11-.93-2.21-2.83-.87-3.8.42s-1.78,2.79-2.77,4.11c-.02.03-.29.18-.33.38l2.23.67c-.07-.31-.14-.62-.2-.94-.09-.46-.17-.93-.23-1.4-.2-1.59-.21-3.21-.14-4.81.09-1.91,1.14-5.21-1.03-6.34-.81-.42-1.76-.38-2.63-.29-.33.03-.67.09-1,.12-.15.01-.37,0-.51.04-.2,0-.2,0,0,.02.43,1.52.73,1.81.92.88.4-.64.58-1.51.94-2.19.24-.44.49-.87.79-1.27.53-.71,1.21-1.27,1.87-1.85,1.68-1.48,2.18-3.08,2.33-5.29.13-1.96-.02-4.25,2.29-4.79,1.88-.44,1.08-3.33-.8-2.89Z"/>
  </g>
  <path d="M182.59,175.7c-.15,2.58-.56,5.13-1.52,7.54s-2.62,4.49-4.21,6.63c-3.15,4.25-3.64,9.64-5.14,14.56-.28.93,1.17,1.32,1.45.4.78-2.56,1.27-5.2,2.01-7.77.82-2.86,2.05-5.25,3.9-7.57,3.21-4.05,4.72-8.66,5.01-13.79.06-.96-1.45-.96-1.5,0h0Z"/>
  <path d="M169.68,191.28c-1.18,1.69-1.78,3.84-2.3,5.81-.65,2.47-1.12,5-1.41,7.54-.26,2.24-.23,4.3.15,6.52.34,2,.5,3.81,0,5.79-.43,1.66-.98,3.25-1,4.99-.01.97,1.49.97,1.5,0,.02-1.73.65-3.32,1.05-4.99s.37-3.13.14-4.76c-.35-2.43-.64-4.52-.39-6.97s.71-4.99,1.34-7.42c.5-1.96,1.06-4.08,2.23-5.75.55-.79-.75-1.54-1.3-.76h0Z"/>
  <path d="M160.57,195.45c-.82,4.85.19,9.87-.4,14.74-.5,4.1-1.04,8.44-2.55,12.3-.77,1.96-1.79,3.95-3.04,5.65s-2.9,2.97-4.25,4.55c-.62.73.43,1.8,1.06,1.06,1.3-1.52,2.87-2.79,4.11-4.36s2.32-3.59,3.15-5.51c1.75-4.03,2.22-8.42,2.87-12.72.37-2.47.29-4.98.28-7.47s-.23-5.3.2-7.84c.16-.94-1.29-1.35-1.45-.4h0Z"/>
  <path d="M153.59,201.17c.38,4.6,1.97,9.74-.15,14.1-1.49,3.06-4.05,5.4-5.83,8.27-1.53,2.46-1.85,5.5-3.62,7.82-.59.77.72,1.52,1.3.76,1.86-2.44,2.17-5.65,3.86-8.19,1.94-2.92,4.53-5.39,5.93-8.65,1.9-4.43.39-9.48,0-14.1-.08-.96-1.58-.96-1.5,0h0Z"/>
  <path d="M146.56,207.91c-1.34,1.95-2.89,3.77-4.09,5.81s-1.88,4.35-2,6.78c-.12,2.59-.12,5.26-.02,7.85s.3,5.21-1.02,7.49c-.48.84.81,1.59,1.3.76,1.15-1.99,1.33-4.24,1.29-6.49-.05-2.6-.05-5.19-.07-7.79-.01-2.75.34-5.27,1.73-7.68,1.21-2.11,2.81-3.97,4.19-5.97.55-.8-.75-1.55-1.3-.76h0Z"/>
  <path d="M137.64,201.37c.06.39-.44,1.15-.6,1.49-.28.58-.58,1.15-.83,1.74-.58,1.39-.3,2.85-.23,4.33.2,3.93.07,7.79-1.57,11.43-1.49,3.33-4.22,6.04-5.33,9.53-1.24,3.91-.29,8.14-.37,12.15-.02.97,1.48.97,1.5,0,.09-4.18-1.07-8.81.72-12.77.84-1.87,2.12-3.47,3.2-5.2.89-1.44,1.66-2.95,2.24-4.54,1.33-3.66,1.29-7.49,1.08-11.32-.04-.82-.22-1.72-.05-2.52.14-.62.52-1.23.8-1.8.44-.89,1.05-1.88.89-2.91-.15-.95-1.6-.55-1.45.4h0Z"/>
  <path d="M129.65,203.16c1.65,4.56-.98,10.15-2.98,14.2-1.17,2.36-2.59,4.83-2.93,7.49-.39,2.98.53,5.92.77,8.87.08.96,1.58.96,1.5,0-.24-3-1.29-6.1-.72-9.11s2.36-5.67,3.59-8.4c1.78-3.95,3.79-9.12,2.23-13.45-.33-.9-1.78-.51-1.45.4h0Z"/>
  <path d="M121.5,231.35c-.7-1.27-2.02-2.1-3.02-3.11-1.47-1.48-2.16-3.68-1.65-5.72.48-1.9,1.6-3.56,1.89-5.51.31-2.12-.04-4.27.48-6.37.23-.94-1.22-1.34-1.45-.4-.53,2.17-.17,4.38-.51,6.56s-1.76,4.07-2.03,6.3c-.23,1.9.38,3.91,1.53,5.42,1,1.3,2.67,2.14,3.46,3.57.47.84,1.76.09,1.3-.76h0Z"/>
  <path d="M122.88,203.6c-.25.73.2,1.82.36,2.53.2.9.35,1.81.48,2.72.15.99.22,2.02.04,3.01-.25,1.35-.9,2.54-1.72,3.62-.58.77.72,1.52,1.3.76,1.56-2.08,2.24-4.42,1.94-7-.12-.98-.27-1.96-.46-2.93-.1-.48-.22-.95-.32-1.43-.05-.22-.1-.43-.13-.65-.03-.19-.01-.04-.03-.2s-.04.07,0-.03c.31-.92-1.14-1.31-1.45-.4h0Z"/>
  <path d="M116.93,237.84c-1.1-2.45-2.53-4.75-4.24-6.83s-3.85-3.47-5.35-5.59c-2.69-3.79-4.33-8.89-4.21-13.55.02-.97-1.48-.97-1.5,0-.12,4.73,1.48,9.81,4.05,13.76,1.41,2.17,3.43,3.6,5.14,5.5,1.99,2.21,3.6,4.76,4.82,7.47.4.88,1.69.12,1.3-.76h0Z"/>
  <path d="M117.48,232.52c-.7-1.51-1.72-2.8-2.7-4.13-1.06-1.44-1.75-2.89-2.35-4.57-1.13-3.22-2.51-6.89-1.2-10.26.35-.9-1.1-1.29-1.45-.4-1.37,3.52-.09,7.38,1.09,10.75.59,1.69,1.2,3.25,2.24,4.73s2.27,2.93,3.06,4.63c.4.88,1.7.11,1.3-.76h0Z"/>
  <path d="M100.53,225.21c-2.99-3.53-5.22-8.2-3.85-12.83.71-2.4,1.94-4.59,1.89-7.16s-1.05-5.03-1.87-7.45c-.31-.91-1.76-.52-1.45.4.89,2.6,2.08,5.33,1.78,8.14s-1.97,5.24-2.3,8.04c-.5,4.27,2.07,8.77,4.73,11.91.63.74,1.68-.33,1.06-1.06h0Z"/>
  <path d="M97.27,228.42c-1.9-1.16-2.65-3.84-3.7-5.69-.72-1.27-1.53-2.43-2.07-3.8s-.91-2.75-1.16-4.17c-.55-3.18.5-6.01.91-9.12.37-2.85-.15-5.52-1.14-8.19-.33-.9-1.78-.51-1.45.4,1.2,3.24,1.49,6.22.74,9.61-.68,3.1-.98,5.83-.25,8.96.32,1.39.77,2.74,1.37,4.03s1.39,2.36,2.03,3.57c1.05,2,1.93,4.47,3.95,5.7.83.51,1.58-.79.76-1.3h0Z"/>
  <path d="M85.16,215.07c-.95-1.13-.82-3.3-.93-4.69-.14-1.87-.37-3.83-1.06-5.58-.42-1.08-1.12-2.02-1.51-3.11-.35-.98-.5-1.99-.45-3.03.11-2.16.97-4.26,1.58-6.31.28-.93-1.17-1.32-1.45-.4-.64,2.14-1.47,4.29-1.63,6.54-.07,1.09.05,2.2.37,3.24.38,1.21,1.1,2.22,1.59,3.37.84,1.97.96,4.18,1.13,6.29.13,1.59.22,3.46,1.29,4.73.62.74,1.68-.33,1.06-1.06h0Z"/>
  <path d="M73.74,213.81c.53-1.54-.05-3.19-.31-4.73-.15-.88-.3-1.79-.32-2.69-.03-1.18.33-2.15.78-3.21.66-1.53,1.24-3.02,1.34-4.7.14-2.22-.34-4.43-.37-6.65-.01-.96-1.51-.97-1.5,0,.03,2.08.44,4.14.38,6.22-.05,1.9-.8,3.49-1.51,5.21s-.67,3.33-.41,5.16c.22,1.56,1,3.45.47,4.99-.31.91,1.13,1.31,1.45.4h0Z"/>
  <path d="M74,170.54c-.12.91-.24,1.83-.07,2.75s.68,1.76,1.05,2.63c.76,1.77,1.58,3.69,1.89,5.6.5,3.03.06,6.5,2.47,8.83.69.67,1.75-.39,1.06-1.06-2.18-2.12-1.61-5.68-2.12-8.43-.31-1.67-1.02-3.32-1.66-4.89-.34-.84-.82-1.64-1.11-2.5-.31-.95-.14-1.98-.02-2.95s-1.37-.94-1.5,0h0Z"/>
  <path d="M71.35,191.86c.21-.72.22-1.45.29-2.19.07-.8.34-1.52.63-2.26.53-1.36.88-2.7.86-4.18-.05-3.12-1.37-6.05-2.51-8.9-.35-.89-1.8-.5-1.45.4,1.08,2.71,2.41,5.53,2.45,8.5.02,1.45-.4,2.71-.91,4.05-.23.6-.43,1.19-.52,1.83-.11.79-.07,1.58-.29,2.34-.27.93,1.18,1.33,1.45.4h0Z"/>
  <path d="M178.4,172.12c.97,0,.97-1.5,0-1.5s-.97,1.5,0,1.5h0Z"/>
  <path d="M177.65,172.04c-.01,2.05-.58,4.15-1.18,6.1s-1.31,4.17-2.68,5.73c-.63.72.42,1.79,1.06,1.06,1.52-1.73,2.34-4.07,3.02-6.23s1.27-4.42,1.29-6.66c0-.97-1.49-.97-1.5,0h0Z"/>
  <g>
    <path class="cls-1" d="M58.52,181.52c.39,1,4.42-8.09,4.85-6.98"/>
    <path d="M57.22,182.27c.29.67,1.18.94,1.84.75.39-.11.71-.37.97-.68.49-.59.87-1.25,1.25-1.92.82-1.44,1.56-2.93,2.46-4.32.09-.14.18-.27.27-.4.2-.28-.19.22-.1.12.04-.04.08-.09.12-.14.03-.03.07-.07.11-.1.1-.11-.42.28-.2.16-.42.23-.95.28-1.4,0,.05.03-.35-.29-.28-.21-.35-.33-.26-.38-.2-.24.14.32.58.6.9.69.36.1.84.05,1.16-.15.75-.49.87-1.28.54-2.05-.29-.68-1.19-.96-1.85-.78-.38.11-.72.36-.98.66-.49.57-.88,1.23-1.26,1.89-.83,1.43-1.57,2.92-2.46,4.33-.09.14-.18.28-.27.41-.04.05-.08.11-.12.16-.07.1.31-.36.1-.13-.03.04-.07.07-.1.11-.16.18.37-.24.2-.15.28-.14.66-.25,1.05-.13.23.08.45.19.63.37.38.39.26.38.2.25-.31-.72-1.43-.94-2.05-.54-.75.48-.87,1.28-.54,2.05h0Z"/>
  </g>
  <path d="M65.34,192.41c.42-1.03.8-2.08,1.22-3.11s1.02-2.03,1.43-3.09c.78-2.01.7-4.19.76-6.31.03-.97-1.47-.96-1.5,0-.06,2.06.04,4.18-.8,6.12-.42.97-.94,1.89-1.34,2.87-.42,1.03-.8,2.08-1.22,3.11-.36.89,1.09,1.28,1.45.4h0Z"/>
  <path d="M191.34,191.26c.48-1.82,1.4-3.47,2.1-5.21s1-3.49.94-5.32c-.1-3.66-1.42-7.22-3.28-10.33-.5-.83-1.79-.07-1.3.76,1.79,2.98,3.07,6.4,3.08,9.91,0,1.83-.42,3.52-1.15,5.19-.67,1.52-1.41,3-1.84,4.61-.25.93,1.2,1.33,1.45.4h0Z"/>
  <path d="M199.24,176.54c-.38-.88-.52-2.13-.66-3.16-.19-1.36-.34-2.73-.59-4.08-.38-2.06-1.09-5.08-3.51-5.58-.94-.19-1.35,1.25-.4,1.45,1.96.4,2.32,3.6,2.59,5.22.37,2.27.37,4.77,1.29,6.91.38.88,1.67.12,1.3-.76h0Z"/>
  <path d="M187.51,194.91c.52-2.37.47-4.88,1.26-7.18.58-1.69,1.56-3.22,1.6-5.06.05-2.02-.59-4.26-1.25-6.15-.75-2.14-2.84-4.71-1.86-7.03.37-.88-.92-1.64-1.3-.76-.84,1.99-.29,3.75.59,5.62,1.04,2.21,1.8,4.44,2.17,6.87s-.68,3.97-1.41,6.11c-.79,2.31-.74,4.82-1.26,7.18-.21.94,1.24,1.34,1.45.4h0Z"/>
  <path d="M182.91,188.7c-.53,2.89-2.52,5.29-3.21,8.13s-.23,6.2-1.53,8.98c-.41.87.88,1.63,1.3.76,1.35-2.86.96-6.05,1.62-9.08s2.73-5.41,3.27-8.4c.17-.94-1.27-1.35-1.45-.4h0Z"/>
  <path d="M54.92,170.98c.3-.4.9-.45,1.35-.57.62-.18,1.17-.47,1.68-.86,1.09-.82,1.95-1.9,2.69-3.03,1.08-1.66,2.14-3.97,4.3-4.34.95-.16.55-1.61-.4-1.45-2.45.42-3.78,2.79-5,4.71-.71,1.12-1.53,2.25-2.63,3.01-.55.38-1.1.5-1.72.69-.67.2-1.16.53-1.58,1.09-.25.33-.05.84.27,1.03.38.23.78.05,1.03-.27h0Z"/>
  <path d="M68.92,161.58c-1.09,2.23-3.03,3.72-4.86,5.32-1.96,1.71-3.32,3.58-4.52,5.89-.95,1.84-1.72,3.73-2.28,5.72-.33,1.19-1.13,3.34-.2,4.43.63.73,1.69-.33,1.06-1.06.14.16.05-.4.06-.57.03-.34.1-.69.18-1.02.18-.84.42-1.67.68-2.49.65-2.05,1.6-3.98,2.66-5.85,2.16-3.82,6.58-5.64,8.51-9.61.42-.86-.87-1.63-1.3-.76h0Z"/>
  <path d="M62.84,187.73c-.1-3.37,2.58-6.11,3.5-9.22.75-2.53,1.02-5.85,3.44-7.42.81-.52.06-1.82-.76-1.3-2.71,1.76-3.21,5.02-4.01,7.9-.95,3.43-3.79,6.33-3.68,10.04.03.96,1.53.97,1.5,0h0Z"/>
  <path d="M81.39,173.22c-1.26,2.81-1.01,5.58-.07,8.44s2.11,5.44,1.49,8.36c-.2.94,1.25,1.34,1.45.4.6-2.84-.21-5.47-1.14-8.14s-1.69-5.51-.43-8.31c.39-.87-.9-1.64-1.3-.76h0Z"/>
</svg>