<?xml version="1.0" encoding="UTF-8"?>
<svg id="Layer_1" data-name="Layer 1" xmlns="http://www.w3.org/2000/svg" viewBox="0 0 1080 1080">
  <defs>
    <style>
      .cls-1 {
        fill: #302821;
      }
    </style>
  </defs>
  <path class="cls-1" d="M485.31,774.89h-7.18c-.79-1.57-2.2-4.95-1.94-6.78l2.6-18.59c-2.4-6.19-5.68-13.01-8.79-19.2-6.2-12.31.31.15-2.9-17.78-.46-2.59,1.58-7.14-.32-9.9-7.94-11.53,3.75-15.9-4-23.44,5.79-14.44-9.29-13.51-1.46-31.31l-4.22-7.75c8.69-11.86-8.83-12.46-1.08-33.02l-3.66-6.21c6.46-10-6.6-19.11-2.64-27.28,2.39-4.94-.94-7.48-1.28-11.11-.45-4.72,2.08-9.33-1.24-14.39-3.06-4.66-3.12-10.86-1.41-16.16l-3.07-6.87c5.12-10.34-5.01-13.88-2.52-24.28.82-3.44-.62-6.19-.87-9.2-.29-3.5,1.41-7.04-.82-10.81-6.31-10.69,1.37-13.88-5.58-21.64,1.04-4.54,2.02-9.07-.15-13.65-5.21-11.02,4.03-10.67-3.33-20.59,6.46-10.84-4.49-10.73-1.46-26.32.36-1.87-1.73-5.39-1.92-7.08-.32-2.95.56-7.35-1.12-10.2-5.49-9.3,2.57-11.5-.22-22.31l-12.84,3.41c1.26-4.2,4.1-7.24,7.51-10.3l-4.32-8.4c-11.77,5.75-13.67-4.3-22.8-6.81l-1.91-5.4c-1.19-3.35-5.95,4.36-11.57.33-3.5-2.51-3.42-9.93.27-12.81,4.18-3.27,9.55,2.19,16.13-1.89l3.5-8.95,17.25-6.29-3.74-16.86c-.52-2.35.19-7.03-.2-9.69l-3.65-24.62c-.44-2.98-2.59-5.97-4.77-8.07-2.57-2.46.45-7.07-.22-9.36-.72-2.44-4-5-2.97-8.24,1.46-4.59,3.57-9.95,7.3-12.56s7.96,1.23,10.2,3.66c3.84,4.18,4.31,8.19,5.04,13.63.3,2.26,4.86,5.6,2.77,8.68s-3.66,6.31-3.04,10.11l4.22,25.92,2.04,8.57c1.59,6.67-.42,14.55,2.31,20.79,3.19,1.96,6.84,3.84,8.55,8.22,6.15-.42,13.02-.94,18.84-2.65,3.48-1.02,6.13-3.24,9.47-.66,4.07,3.15,3.34,10.83-1.43,14.22-1.25.89-4.64-.18-6.45-.11-7.31.29-14.43,1.06-21.56,1.88-.39,7.97,3.52,13.32,8.19,18.8l10.73,12.59c.35.03,1.79-.39,1.63-.84l-.71-1.93c-4.27-11.66,3.77-11.24,12.32-33.05,2.99-7.61,10.34-10.99,16.26-15.42l5.71-7.55c5.17-6.84,8.51-15.41,11.05-23.64l1.6-6.75c2.85,8.5,5.11,14.84,10.16,21.47l4.77,6.26c14.77-.92,6.82-17.21,13.38-19.16,23.46-7,31.84-7.25,50.28,6.52,4.18,3.12-2.03,8.48,10.39,12.27,2.22-4.47,2.86-7.73,3.86-13.1,3.31,1.91,5.49,4.64,7.04,7.94s4.98,6.88,5.96,10.61c1.23,4.72,1.24,11.83,2.7,15.93,6.44,5.24,5.2,10.36,4.76,17.29-1.16,18.29,4.15,36.07,8.39,53.84,3.81,15.98,8.88,4.38,18.79,14.33,5.98,6,12.11,10.86,20.12,14.43l2.09-8.21c10.11-12.25,6.17-24.47,29.3-27.35,15.32-1.91,29.07,3.01,37.33,16.41,6.94,11.26,5.23,29.51-3.32,37.67-2.28,2.17-3.55,4.81-6.19,7.14l-6.5,5.74c-5.16,4.55-13.22,1.49-17.55,3.89-4.48,2.48-6.63,7.04-13.33,4.08-6.14-2.71-14.88,2.47-21.22-11.36l-10.64-3.55c-8.8-2.94-17.09-5.34-26.37-6.64-9.89-1.39-3.99-4.74-18.73-4.99-1.99,5.08,5.43,9.38,7.17,18.49,3.15,16.45,11.23,12.95,3.12,22.8l6.31,13.18c1.39,2.9-4.36,6.58-4.29,8.92.2,7.37,2.15,14.25,3.73,21.49,1.89,8.63-14.72,10.97-20.97,12.33-2.58,14.79-6.51,28.74-10.67,43.27-.66,2.31-.83,5.98-1.24,8.53-1.75,10.93,3.44,13.1-5.91,19.1,2.71,1.86,5.06,4.37,5.09,7.29.14,16.36-2.46,31.67-7.99,46.94-6.73,18.59-10.35,37.17-11.14,56.96,2.57,3.42,4.6,7.24,7.91,9.43l16.95,11.26c3.38,2.25,16.66,27.8,3.37,28.47-11.15.57-21.37-1.82-31.03-6.88-3.74-1.96-5.44-5.38-7.65-8.74-4.42-6.7-12.36-9.92-19.3-13.72-9.16-5,1.22-20.35.93-27.67l-1.34-34.08c-.82-20.79,1.22-40.44,6.89-60.32.88-3.09,2.32-5.95,4.13-8.62-2.25-1.61-5.19-4.75-5.18-7.83l.09-21.38c-1.56,6.92-2.4,13.77-2.81,21.21l2.24,5.83c-2.29,14.64-2.92,7.94-5.53,22.25-.39,2.14-3.51,4.93-5.37,6.81l2.94,4.1c-.37,8.51-.29,16.54.25,24.99,1.09,17.03-11.42,23.84-7.29,66.74.52,5.36-.43,12.19-3.01,17.05l-6.66,12.51c-1.91,3.59-5.54,5.24-8.01,7.97-12.71,14-15.07,12.27-31.3,17.73ZM411.41,226.16c.57.52,2.28,2.08,2.3,2.09,1.01-1.01,1.41-1.69,1.83-1.48l1.9.94c.29-5.17-3.18-9.13-7.27-11.53-2.67,3.99-5.3,7.05-4.4,12.45l2.01-3.71,1.93,2.6c.25.34,1.4-1.64,1.7-1.36ZM420.51,235.5c-1.49-2.08-4.2-4.34-6.65-4.45-2.77-.12-4.91,2.49-5.77,5.74l12.42-1.29ZM423.1,281.75l-5.78-35.5c-.21-1.28-4.53-1.05-4.74-.1l5.09,37.08c1.15.31,4.34-.39,5.43-1.48ZM564.32,307.38c.56-3.57.58-6.21.04-8.45-10.81-4.17-19.57-10.13-28.93-16.86-.13,5.57,5.67,4.86,6.81,9.31l-7.71-3.45c7.49,9.53,17.94,14.73,29.79,19.45ZM512.54,322.82l3.38,5.9-2.23-11.22,5.95,10.88c-.65-4.59-1.72-8.29-2.97-13.01,5.04,3.44,2.5,8.93,7.36,12.94-.91-5.13-2.37-9.4-4.08-14.81,5.21,3.5,3.57,9.2,7.69,13.51l-3.31-14.44,4.07,5.24c-.7-2.54-1.79-5.74-3.23-7.74l-17.49-24.25,3.78,9.32-3.59-2.5.17,3.51-5.41-5.2,1.72,5.99-4.16-2.43,2.75,6.49-3.68-2.09-.77,4.84,9.72,16.23c1.56,2.61,2.77,5.25,3.83,7.83l.53-5ZM426.17,311.75l-2.14-22.45-3.46-1.18-1.17,5.72,2.8,19.16c.23,1.04,4.09-.08,3.97-1.25ZM581.34,295.43l-2.32-1.06,2.26-4.77-13.46,8.82c-.7,2.38-.61,5.74.25,8.72l13.28-11.71ZM541.63,298.89l-7.93-2.33c4.99,7.49,21.35,16.14,31.78,19.16.58-.69.99-3.19.63-4.04-.26-.62-25.11-12.96-24.49-12.78ZM531.2,403.44l-11.09-2.43c3.96,5.1,8.88,7.2,15.39,9.67l-11.69-.66c18.77,8.23,46.53,7.69,60.51-7.69,1.01-1.12,1.24-4.96.91-5.17l-4.42,3.97,4.92-9.78-1.46,1.39c-.22.21-1.01-.9-.85-1.16l6.33-10.41-6.39,3.31,9.68-12.53-9.47,5.29c3.97-5.21,8.57-7.67,10.32-13.25l-7.89,5.64c3.58-5.42,6.05-8.55,8.67-13.85l-7.6,5.19c3.78-6.66,8.82-10.41,8.73-17.78-3.42,4.25-5.94,7.92-10.7,10.78l7.14-10.24c.93-1.34,1-4.78.57-6.16l-6.46,6.99,3.21-8.13c.2-.5.22-2.5-.21-2.32l-1.94.79c-.71.29-1.69.78-1.58.36l.41-1.58c.17-.63,1.36-2.54.83-2.9l-2.26-1.58,4.6-6.7-3.45.05,8.67-10.46-5.34,2.73,8.23-11.36-6.74,4.73,3.87-6.42-3.33,1.12c.32-1.31,1.26-3.28.53-3.72l-2.92-1.78c-1.94,8.79-8.12,15.15-15.36,20.84-2.86,2.25-5.63,2.95-9.88,1.93-10.05-2.42-21.8-10.34-30.28-15.74-1.47-.94-4.72-.83-7.23-2.12l10.87,9.13-6.26-1.86,7.82,6.03-5.85-1.04,3.83,4.32c-1.54,1.33-1.79,3.16-1.86,5.79-.23,8.02-15.25,4.88-6.89,13.45l-4.92-.96c.78,2.58,1.92,4.23,4.27,7.3l-5.99-1.43,7.41,8.51-8.01-3.61c-.26,5.86,5.19,6.18,7.47,11.05l-8.38-4.53c-4.12,4.61,14.36,11.51,13.25,12.27-5.92-.41-9.21-3.55-14.65-6.07-2.16,5.72,14.6,11.43,17.05,13.23-6.91-.13-12.07-3.83-18.35-7.27-.21,1.39,1.02,5.25,2.54,6.08l14.89,8.14c-6.99-.18-11.98-4.65-18.28-6.83,4.01,7.8,12.03,8.52,18.25,13.8-6.97-1.05-12.96-5.44-19.48-9.5,2.78,8.37,11.2,9.31,17.95,14.13-6.39-.39-11.48-3.94-17.38-7.03,3.76,7.55,11.94,7.57,18.97,11.24-6.17.53-11.85-2.15-18.31-5.11,1.97,9.16,13.33,7.74,15.04,11.89ZM607.02,312.16l-1.5.28.73-6.56-2.54,4.2.55-13.23-5.3,19.5-3.19,11.07,4.01-4.96c1.01,3.23-4.7,9.1-2.68,9.94l1.47.61c1.81-1.66,12.95-21.69,8.46-20.86ZM569.41,315.09c6.18-3.94,13.97-11.46,12.63-16.71l-12.19,10.38c-1.29,1.1-1.37,3.93-.44,6.34ZM416.56,310.39c.18-.76-.53-2.69-1.11-3.42l-10.28,4.63c2.35,2.12,10.73,1.52,11.39-1.21ZM499.25,344.43l-2.6-4.52,4.13.92-3.82-6.64,6.12,3.7c-2.7-4.06-4.35-6.03-5.61-9.27,3.67,2.75,4.73,5.16,8.54,5.96l-5.49-9.59,6.99,5.76c-1.14-4.34-2.87-7.46-5.06-10.91l-7.51-11.86c-20.2,6.16-19.55,15.27-25.69,29.07-.54,1.21-1.31,4.14-2.65,4.85-4.1,2.16-5.9,5.92-3.31,10.18,3.36,5.54,8.35,8.2,13.56,5.28l15.31-8.58c-.13-1-.41-1.83-.1-1.77l1.89.38c.54.11,2.58.72,2.44.21l-.65-2.28,3.47-.9ZM417.33,314.6c.12-.88-3.56-.29-3.7.61-.08.48-2.23,14.57,1.21,11.44.23-.21,1.02-1.01,1.06-1.31l1.43-10.74ZM402.03,329.55c1.52-5.28,2.65-9.23,3.33-15.29-2.8.52-9.3,15.35-3.33,15.29ZM410.22,328.41l.57-11.27c.03-.51-.54-1.5-.95-1.81-.31-.23-2.01.71-2.08,1.09l-2.09,10.31c-.27,1.33,4.82,3.07,4.56,1.69ZM455.84,316.48l-1.21-1.23c-6.26,1.94-13.33-.2-18.73,4.07,2.81.98,21.99-.76,19.94-2.84ZM603.63,343.43c4.72-3.66,8.15-8.03,10.52-13.34l-4.05-3.29.99-4.87-9.98,16.52,4.71-3.73-2.19,8.72ZM480.42,739.97l3.42-18.72c-4.53-2.91-2.7-6.58-1.84-10.36-1.17-1.65-3.46-5.11-3.96-7.21,1.88-4.15,4.84-10.5.77-13.83-1.05-.86-2.97-3.17-2.58-4.65l2.14-8.11c-3.39-3.5-4.1-7.09-2.16-11.09,2.96-6.14-.26-13.7-5.37-17.65,4.6-17.56,1.85-3.89-1.11-17.51,3.7-4.98,3.41-14.34-.56-18.03-.71-.66-3.53-1.84-3.33-2.81l1.95-9.61c-.88-3.33-5.03-7.69-2.9-10.63,6.55-9.09-3.64-23.53-4.64-17.92-1.13-7.29,4.34-7.82.56-13.22-5.81-8.33,5.53-6.09-1.8-23.65-1,.84-1.97,1.96-2.17,1.5s-1.03-2.33-.96-2.82l1.47-9.17c-9.12-14.1,4.27-3.17-1.85-23.53l-2.41-.57c-.42-.1-.61-2.06-.57-2.51l.65-7.65-3.61-7.47c3.47-3.12,3.47-15.85-1.96-14.42l.81-10.53c.24-3.11-5.06-5.7-2.32-9.34,2-2.66,2.28-9.5.14-12.22-2.42-3.07-2.76-6.92-1.8-9.76,1.08-3.19-3.97-7.69-2.26-9.37l1.34-1.31c3.96-7.35-2.38-13.32-3.43-19.18-.66-3.68-.18-8.49-1.45-12.75-.99-3.34,3.06-8.13-.07-11.46-4.55-4.84-6.02-12.27-4.61-18.57-1.04-1.35-2.86-3.93-3.09-5.49l-2.59-17.67c-.22-1.51-2.23-3.68-3.3-4.09,1.17,8.42,2.37,16.06,2.85,24.21.62,10.58,6.01,9.41-.3,24.01l3.97,9.76c6.55-5.83-1.25,3.32,1.55,8.44,4.29,7.86-5.5,7.66,2.21,20.1,2.49,4.02,2.41,7.49,1.03,11.96l2.64,8.07c-2.67,2.94-3.45,6.21-1.93,10.03,4.18,10.47,5.79,3.67,2.26,14.67,8.82,13.25-5.79,9.07,6.79,25.38,1.39,1.8-1.5,6.36-.87,8.27l2.85,8.66-2.44-.96c-1.65,5.43-.24,12.22,5.33,16.7l-2.15,9.56c2.34,4.19,5.07,8.3,1.5,12.76-2.27,2.83,1.61,8.99,4.02,11.35,3.4,3.33-.14,7.73-.17,11.52-.02,2.55,4.78,6.47,2.77,9.39-1.83,2.67-3.7,6.05-2.46,9.16l3.35,8.4.91-4.14c3.42,4.84,1.75,10.49.02,15.78,1.91,3.21,3.66,6.76,4.15,10.46l-2.09-1.11c-2.89,6.29-2.16,12.26,1.73,17.7l1.18,1.66c.15.22.74-.65,1.39-1.39,2.26,4.22.15,9.21-1.57,13.76,1.75,2.86,4.33,7.27,4.2,10.6-1.78.61-4.15,2.4-3.95,4.72.47,5.55,3.5,9.9,7.31,13.88l-2.36,8.21c2.09,2.52,6.07,8.8,2.7,10.55-3.79,1.97-3.13,6.95-.6,10.91,2.64,4.12,2.1,7.74,2.07,12.32-.02,3.65,4.05,7.65-.68,11.6l8.23,16.47ZM437.76,343.63l-4.73-16.46c.63,6.85,1.46,11.92,2.5,18.85l2.22-2.39ZM409.48,340.17c-1.37-2.87-3.45-6.71-4.68-8.52-.4-.6-3.21.64-2.97,1.31.86,2.33,3.57,8.17,7.65,7.21ZM413.92,338.96c.33-1.59-.02-4.28-.51-5.57-.36-.95-2.79-1.4-4.32-1.15.03,2.6,1.33,5.68,4.83,6.73ZM498.91,349.56l9.42,2.27c2.86-2.27,6.63-6.67,6.06-10.97-.3-2.27-2.95-4.75-4.89-6.7-2.2,2.3-4.06,4.52-5.33,6.3,2.92-.55,5.29-.58,6.18.7.67.96.88,3.54.21,4.5-.78,1.12-4.19,1.38-4.99.28-.69-.95-1.25-3.12-1.72-5.06l-4.94,8.68ZM614.86,364.98l-.48-10.08c-.2-4.18-.17-7.8-3.33-10.7-.69,7.75,4.06,5.13,1.77,13.31-.82,2.93.07,5.8,2.04,7.48ZM611.27,375.71c.45-9.94-3.16-4.96-3.25-19.57l-2.58-8.3c-.82,10.07,2.34,5.7,2.19,19.63l3.64,8.24ZM608.92,404c-.37-5.18-.37-8.39-.99-12.06l-2.34-13.83c-.88-5.2-3.33-10.25-2.81-15.79l-3.45-6.4c.19,3.15,1.46,6.88,2.26,10.34.63,2.7.46,5.74,1.68,8.65s1.1,7.05,1.82,10.26c1.15,5.2,2.95,9.21,2.05,14.89.34,1.42,1.12,3.21,1.78,3.94ZM440.69,365.27c-.65.79,1.2,3.58,2.27,3.58,2.15,0,9.21-7.62,9.09-11l-5.47.51-5.9,6.91ZM445.38,375.8c5.23-1.51,9.8-5.23,7.02-10.66-2.47.75-11.36,7.66-7.02,10.66ZM603.6,386.5c-.5-5.53-1.35-9.41-3.25-13.97l-.68-8.49c-4,6.81,1.16,12.13,2.3,17.84.87,4.34-.27,8.85,3.3,12.05l-1.67-7.43ZM444.46,383.75c6.36.96,11.84-3.06,13.78-9.09.84-2.63,1.4-5.66-.91-6.61l-.34,3.4c-.05.45-1.36.48-1.84.67-5.66,7.54-11.67,3.92-10.69,11.63ZM512.34,376.49c.8-2.97-4.13-5.67-5.36-4.48-1.64,2.54,3.89,7.55,5.36,4.48ZM621.29,396.18c.58-3.05-1.88-5.72-2.56-8.41-1.25-4.92.44-11.01-4.47-13.79,5.31,14.37.61,11.82,7.03,22.2ZM484.75,703.36l2.8,6.47c-1.61,4.05.23,7.16.7,11.09.31,4.38-.98,8.68-1.22,13.61l17.28-12.34c.13-3.58,1.05-7.27.77-10.29-4.2-44.9-16.04-42.92-2.5-86.6.44-1.41,3.4-3.7,2.79-4.82-4.01-7.32-6.94-6.15-6.23-13.37,1.04-10.66,3.33-21.4,2.68-32.26l-2.22-36.85c-2.46-1.02-4.82-3.03-3.68-5.38,3.41-7.02,5.92-14,6.83-21.5l-4.2-4.82c8.62-23.99-5.15-18.19.83-26.94,7.45-10.9-1.84-10.67.36-14.68,2.9-5.28,5.94-10.78,5.41-16.3-7.74-7.36,4.76-8.4-2.7-19.1,1.92-3.63,4.3-8.07,5.19-11.46.35-1.33-1.05-4.89-.01-5.72l4.22-3.39-3.17-15.28c-1.39-6.7-5.11-13.02-10.83-16.54l-16.6,10.98-3.3,7.58c-8.83,4.93-3.74,20.45-14.63,18.4-4.47-.84-8.5-2.21-13.28-3.93-1.85,4.67-1.07,9.6,1.13,14.09-.32,2.5-1,6.7-.17,9.16,4.45,13.3-2.33,11.85,3.52,22.94l-.68,7.05c6.39,14.23-.84,17.34,5.51,25.94l-.83,6.4c8.8,17.29-2.4,19.93,5.67,28.75l-2.17,6.5c9.53,15.69-.04,20.2,5.88,29.64l-.68,8.36c4.15,5.61,6,12.37,4.05,19.15-1.33,4.63,1.67,8.1,2.48,12.17.57,2.87-3.01,6.22-.26,9.7,9.03,11.42-2.46,20.41,6.69,29.27l-2.9,7.63c4.86,7.3,5.99,14.69,3.85,23.23l3.02,7.98c-5.54,10.77,4.25,5.31.6,25.45ZM615.35,385.91c.11-3.53-.93-6.65-2.86-8.96l2.69,14.89c.37,2.03,2.2,5.59,3.08,7.95,3.5-5.74-3.2-5.09-2.92-13.88ZM448.82,392.89c4.24,2.94,10.51.19,12.29-4.31.64-1.61,2.15-4.27,1.36-5.31l-3.18-4.2c-3.04,5.08-7.13,6.3-13.12,7.34.09,1.21,1.18,5.46,2.65,6.48ZM709.15,419.17l5.77-2.36-1.85,3.29c-.26.46,1.01,1.74,1.09,2.08l-3.76,3.49,3.79-1.29c-.64,1.86-1.19,3.48-.28,4.35.96.91,8.01-.96,6.47,1.17-.56.78-1.74,2.11-2.42,2.35l-5.9,2.02,7.53.23c1.97.06,5.73-2.52,7.3-3.67.19-.7.41-2.52.87-2.5l2.54.13-1.75-6.17,4.46,1.88-3.02-8.26,4.24,1.32-4.43-9.15,4.19,2.42c-.99-3.72-3.58-6.17-6.74-9.67l5.52,1.79-5.81-7.32c-3.1-3.9-6.34-7.72-11.87-9.13-8.46-2.16-17.92-1.91-26.29,1.09-9.51,3.41-10.43,15.28-16.72,23.94,2.27-.06,6.37-.33,7.7.86l5.22,4.67-3.26,5.41,4.03,8.56c1.11,2.35,2.48,6.99-.55,8.15-2.43.93-6.99-1.79-7.72-3.89s-.12-6.25.28-8.42c-4.21-1.72-6.2-4.61-8.43-8.78l.29,10.2,6.68-.51-2.63,11.64,4.88,1.12c.45.1,1.53.1,1.97.17s.77,1.98,1.21,1.94c2.48-.2,7.91-.3,10.31,1.64l.92-3.5c.59-2.26,11.86,5.4,19.9-5.46l-4.33.12c-2.49.07-4.34-10.06-4.39-13.13-.1-5.56,4.12-9.82,9.77-11.36-.09,3.32-2.15,6.38-4.76,8.54ZM594.15,398.73c.23-5.17-.05-8.3-1.28-12.09l-2.04,7c-.59,2.02.91,4.73,3.32,5.09ZM457.31,401.88c3.89.05,6.75-1.41,8.19-4.25,1.6-3.15,1.3-6.17-1.4-9.27-2.64,6.39-7.15,8.26-14.1,8.51,1.3,3.69,3.83,4.96,7.31,5ZM626.63,397.13c-5.72,3.53-12.97,7.71-19.03,10.18-.78.32-.44,2.37.23,2.74,3.06,1.68,19.77-8.98,18.8-12.92ZM466.35,408.18l1.68-9.16c-3.06,5.17-6.99,5.5-12.74,5.23,2,4.11,6.31,5.17,11.06,3.93ZM628.49,420.07c-.31-10.34,4.14-14.3,13.12-16.44-4.35-6.31-15.55,7.86-19.37,11.38l6.25,5.06ZM640,424.3c-1.24-7.91,1.14-11.22,7.53-14.09-.56-1.04-2.26-3.27-3.4-3.91s-3.97.27-5.51.67c-6.2,1.63-8.86,7.69-7.22,13.98,1.75,1.82,6.19,3.36,8.6,3.35ZM579.42,416.92l6.21-4.17-5.23-4.38,1.8,5.85-5.42-3.09c-.94,1.87.95,5.29,2.64,5.78ZM555.69,429.97c-1.91-.2-5.71-.38-7.51-.14l-7.02.93-4.76-1.26c-.85-.22-2.49-1.3-3.07-.85l-2.48,1.91-2.11-3.64c-.47-.81-2.57,1.73-3.6,3.04l-1.21-4.72-3.82,2.72-.64-5.52-5.08,5.09,1.02-6.44-6.87,7.65c-.33,1.83,3.83,5.44,6.71,6.28,27.11,7.93,56.38,3.65,79.47-12.54,1.72-1.21,3.15-4.6,3.41-6.32.29-1.91-1.36-4.33-3.7-5.46l1.83,6.57-3.58-3.19.89,4.16-5.12-4.86.89,6.17-4.31-3.68.48,5.79-4.38-3.48-.14,5.77-3.24-2.84c-.48-.42-1.95,1.06-1.92,1.71l.13,3.65-3.28-2.98-.33,4.45c-1.63-1.37-4.06-3.49-4.52-2.55l-1.69,3.41c-.35-.22-2.88-2.39-3.2-1.7l-1.4,3.08-2.75-1.88c-.63-.43-2.37,1.71-3.12,1.63ZM556.11,418.93c-2.88-.8-7.15-.58-9.67.19l-5.64-1.1c-1.6-.31-3.49-.35-5.08-.27-.58-.26-2.27-2.23-3.04-1.83l-3.59,1.9c-.05-.52-.35-3.58-1.11-3.19l-3.15,1.6c-.51.26-.92-2.32-1.19-2.82-.2-.38-1.23.4-1.5.73l-1.62,1.89c-.31-1.63-.71-3.73-.7-3.65l-6.78,1.57c1.28,3.21,5.38,6.28,9.28,8.02,16.45,7.35,34.66,6.73,50.87-1.54l-4.61-5.7-1.14,4.52-3.06-2.68c-.56-.49-1.85,1.09-2.74,1.53-.64.32-2.26-1-2.89-.65l-2.63,1.49ZM612.4,422.64l-9.1-10.91c-.94,5.93,3.23,10.99,9.1,10.91ZM653,414.48c-1.88-3.72-5.55-1.74-7.49-.44-4.75,3.16-4.07,9.58-1.5,12.62,4.8,5.7.91-8.45,9-12.18ZM655.6,429.7c-.83-5.25.41-8.05,2.76-12.78-2.52-.97-5.18.03-6.85,1.88-3.41,3.78-1.17,10.34.65,10.53l3.44.37ZM630.01,427.07c-2.44-4.71-5.23-6.94-8.52-9.35-.85,5.73,2.9,11.67,8.52,9.35ZM663.97,422.68c.23-.76-.07-2.86-.76-3.09s-2.43-.08-3.08.42c-3.49,2.67-3.65,10.1,1.01,11.82l2.83-9.15ZM535.42,441.99c-.8,0-2.65-1.07-3.23-.7l-2.01,1.3-2.64-2.21c-.62-.52-2.54.92-3.54,1.46l-2.9-3-3.35,4.91-.81-5.96-3.6,5.19-.42-4.99-2.81,5.79-.48-6.01-1.41,5.86c6.17,5.3,13.26,6.35,21.13,6.58,24.9.72,54.8-2.69,75.16-17.99-2.73-3.72-4.14-5.96-6.13-9.37l.63,6.67-3.99-4.29.17,5.72-3.57-2.89-.69,3.74c-.05.29-.94-.58-1.23-.74l-2.18-1.19.56,5.2-4.05-3.62-.37,4.42-3.61-2.17c-.57-.35-.86,3.17-1.44,2.9l-2.55-1.19c-.36-.17-1.15,1.63-1.59,1.7l-26.95,4.41c-2.14.35-4.39.48-5.85.47l-6.25-.05ZM640.71,428.08l-9.25-3.49c.73,3.06,1.87,4.56,3.49,4.85,2.7.49,4.59,1.22,5.76-1.36ZM519.84,454.65l-2.31-2.74c-.32-.38-1.1.95-2.18,2.14l-1.99-3.27-1.92,6.72-1.58-3.58-4.55,11.34c4.91,9.01,43.51,7.17,51.62,2.36-.76-3.46.57-5.93,2.39-8.56,4.81-6.99,12.85-9.28,19.87-4.21-.71.97-1.52,1.65-1.13,1.97,4.08,3.34,6.58,7,12.27,5.42,9.04-2.51,16.47-6.84,23.53-13.41-1.89-4.84-3.88-8.69-7.03-13.06l1.36,7.09c-1.65-1.79-2.74-3.2-3.72-4.68l.42,4.51-4.06-4.33.45,5.62-2.4-2.5c-.26-.27-.71,1.48-.98,2.19l-3.02-2.15-.97,2.88c.55-1.63-7.22.46-7.62.59-16.77,5.39-33.22,8.13-51.12,7.89-1.85-.02-4.39,1.37-5.16,2.23-.36-.57-2.1-2.83-2.84-2.33l-2.52,1.68c-.49-.33-2.24-2.59-2.75-2.04l-2.07,2.25ZM619.73,463.87l-3.71-6.66-.04,4.67c-4.58-8.98-18.95.77-24.12,4.65.72,3.52-.44,1.99-1.65-.12l-1.34,4.71c-1.89.63-2.55,1.98-2.74,3.55-.96,7.86,28.82-1.37,33.61-10.8ZM576.03,462.7l-1.17-1.83-10.4,4.01c3.9,1.1,6.93-.14,11.56-2.18ZM579.26,472.02c-14.04,3.71-8.35,2.51-22.01,3.18-5.7.28,10.54,4.9,22.01-3.18ZM546.75,482.28l-1.19-8.06-1.78,3.93-1.58-3.47c-.96,1.14-1.83,2.51-2.15,2.14l-1.41-1.63-3.88-.69c-5.38-.95-11.56-.82-17.16-.25-.58.18-1.94,1.59-2.21,1.06l-1.42-2.82-3.09,4.75-.86-4.56-2.17,5.54-.98-4.14-3.6,9.9c11.37,8.59,30.59,8.76,43.61,4.39,1.53-.51,4.3-2.45,4.61-3.85s-.13-4.38-.51-5.75l-1.11,5.51-1.64-5.77-1.48,3.77ZM594.28,480.6l-4.79,3.53c-1.26.94-1.95,1.47-2.67,2.1-.59.52-.27,3.74.5,3.92,12.73,3.07,16.64,1.62,30.36-1.69,1.66-.4,5.34-3.81,4.54-5.38l-5.25-10.29.66,6.81-3.05-4.54-.63,2.61c-3.89-1.76-6.63-1.82-10.17-.43l-6.88,2.72c-.29.12-.51,1.99-.68,2.27-.15.25-.64.31-.83.03l-1.12-1.67ZM562.06,481.91c7.29-.95,13.5-2.11,18.5-7.05-8.12,2.97-14.85,5.23-23.36,4.39l4.86,2.66ZM575.59,510.34c2.02-4.95,1.92-8.85,1.74-13.49-.15-3.88,4.61-7.98-.16-11.69l-1.19,12.03c-2.43,4.68-3.4,9.14-.39,13.15ZM537.86,495.36l-.42-.75c-1.18,1.41-2.13,2.78-2.35,2.26l-.81-1.96c-4.59-1.49-10.38-1.86-15.25-1.13-.53,0-1.65-.54-2.12-.32l-2.15,1.04c-.4-.56-1.48-2.59-1.79-2.09l-1.55,2.5c-.17.07-.39.18-.5-.11l-1.07-2.84c-.75,2.57-1.29,4.52-2.84,7.63v-8.68s-2.62,13.99-2.62,13.99c1.08,1.68,5.3,4,7.68,4.07,3.83.1,37.9,2.04,34.38-4.65-2.04-3.88-3.39-7.05-3.02-10.8l-1.27,6.63-1.8-4.6-1.57,2.33c-.19.28-.68-1.66-.94-2.53ZM579.92,515.27c1.87-7.16,3.7-19.39,3.1-21.88-3.47.09-3.78,3.68-3.4,6.26,1.49,10.12-4.08,8.71.3,15.63ZM622.21,514.93c-1.12-5.44-2.31-10.73-3.69-14.93-2.34-.62-2.87-3.14-3.56-6.92v6.26s-2.21-4.3-2.21-4.3l-1.65,1.87c-.43.48-1.45-2.96-1.98-3.24-3.16-1.81-16.25,2.87-14.72,5.94l-.78-1.57-.47-1.22-2.48,9.62-1.96-3.44-3.74,11.75c5.37,9.54,30.38,6.32,37.24.18ZM573.88,545.71c1.81-2.9,1.57-6.37.11-9.56-5.58-12.25,2.72-13.89-.81-23.22l-2.46-11.13c-5.81,12.71,5.43,14.32-.48,26.23-2.63,5.29,3.98,8.09,3.64,17.67ZM567.72,526.98c5.54-9.47-3.36-10.23-.79-24.27-3.81,6.44.64,5.88-2.13,16.36l2.92,7.91ZM542.89,532.87c-1.28-12.46-3.52-7.98-5.61-19.36l-1.56,3.83-1.82-4.7c-7.15-1.41-14.05-.97-21.48-.17-.21,2.75-.55,2.39-1.86.37l-2.21,8.44-1.4-4.33-5.22,15.81c12.25,2.02,27.65,2.81,41.17.11ZM564.02,531.86c.72-3.27.83-5.21.35-6.77l-2.8-9.25c-.64,2.33-1.31,6.57-.4,8.86l2.84,7.17ZM578.08,526.76c.94-2.78.3-6.66-.82-9.2-2.52,6.14-3.73,11.39-1.58,16.31l2.4-7.11ZM580.64,537.84c.64-5.4,1.18-8.85,2.32-13.16,1.1-2.64-.04-5.75-2.65-6.85,1.54,4.98,1.46,9.09-1.7,13.29l2.03,6.72ZM550.01,535.88c.27-6.76-.42-11.2-1.1-17.08-1.21,2.1-2.02,5.27-1.42,7.54l2.52,9.53ZM586.71,523.03c-3.97,6.22-3.86,13.2-1.67,19.88-1.25-19.48,2.03-8.58,1.67-19.88ZM562.22,558.56l1.98-10.42-2.27-7.02c-1.81-5.6.3-11.23-2.68-13.86-.25-.22-.63.06-.58.37l.31,2.05,1.8,12.08c.32,2.15,1.65,5.89,1.41,7.91-.38,3.14-1.47,6.07.04,8.89ZM588.43,547.29c5.4-1.12,4-15.12,3.42-18.55l-.83,11.31c-.13,1.82-1.82,4.88-2.6,7.24ZM570.04,545.69c3.93-1.51-3.01-13.21-3.35-13.58.1,8.99,1.91,3.2,3.35,13.58ZM559.84,560.56c-1.67-4.21.25-8.26-.27-11.59l-2.32-14.78c-2.95,10.78,1.54,15.12.42,23.45-.1.71.36,2.77.57,3.32.16.4,1.14-.13,1.6-.39ZM508.95,566.18c.06-2.06-1.51-6.3-1.59-8.18,2.49-13.26-.55-6.59-1.32-19.52-.86.19-1.41,2.49-1.05,3.77,4.05,14.47-2.18,9.16,3.01,23.65-.62,5.35-2.22,10.48.52,15.7l.44-15.42ZM522.82,561.06c.58-1.96,1.41-5.76.94-7.55l-2.02-7.72c-1.22,2.94-1.39,6.07-.55,9.2l1.63,6.07ZM590.12,570.71c1.99-2.46-17.22-19.57-15.55-14.3,1.07,3.38,8.91,5.49,15.55,14.3ZM541.78,578.81c4.18-7.21-2.18-5.42.19-19.08-2.32,3.37-1.59,7.2-1.1,11.39l.91,7.69ZM586.6,575.01l1.25,1.81c2.97,4.31,1.17-10.07-13.36-15.54-.6,1.01-.65,4.12.15,5.01,4.72,1.27,9.03,4.47,11.96,8.72ZM586.56,586.05l-.86,6.05c4.72-2.74,4.12-9.02.72-13.3-2.86-3.59-6.35-8.96-11.23-9.65-8.32-.03-24.74,18.81-19.21,22.16l3.99,2.42,1.02-5.33c2.91,3.51,8.05,7.17,13.31,6.26,4.97-.86,7.89-5.39,12.24-8.6ZM543.63,596.62c2.96-5.56-14.86-18.06-19.17-20.46-1.1,1.43-1.46,4.75-.24,5.46,7.44,4.35,13.15,8.97,19.42,15ZM542.42,604.37c2.78-6.62-14.64-17.82-18.67-19.97-1.08,2.98-1.84,5.32-2.2,6.85l20.87,13.12ZM529.63,615c1.59-.83,3.01-3.53,4.48-6.13.95,2.34.4,6.65-1.49,9.07-.75.47-2.76.7-2.7,1.42l.21,2.77,8.54-4.84c1.13-2.92,1.46-8.14.63-11.14-6.12-4.86-12.21-8.74-19.32-12.62-4.58,1.62-19.95,13.28-15.59,17.49l3.65,3.53c.15-4.65-.5-7.19,2.6-9.94l-.29,5.45,7.96,10.84,11.31-5.91ZM581.5,647.4l-7.34,1.04c4.43-3.33,7.95-5.3,9.89-9.44l-8.68,2.44c4.29-4.01,8-4.88,10.55-9.43l-6.98.49c3.34-3.34,6.85-2.95,8.32-8.57l-7.61,1.9,8.53-7.76-12.45,3.68c4.34-4.83,9.94-3.39,12.73-9.88l-11.65,3.85,10.23-7.38c-4.96,1.84-8.68,3.67-14.97,4.54,2.28-1.85,3.91-2.78,6.05-3.96-11.81,3.66-15.68-7.07-21.25-5.38-8.62,23.52-10.2,53.33-6.95,77.28,3.19.9,5.45,2.12,5.84,5.21l-5.86-3.51.17,4.62c3.49.89,5.61,2.59,7.17,5.97l-6.73-3.58c.77,10.01-5.24,19.47,2.41,22.67l8.19-4.95c.78-14,2.81-27.63,6.94-41.65l2.06,3.23c2.52-1.15,5.68-4.02,6.45-7.22l-6.31,1.37c3.71-3.11,6.7-5.45,8.84-8.92l-7.95,1.71c4.6-3.47,7.35-5.29,10.37-8.37ZM529.72,692.66l-5.12,1.25c3.14-3.79,5.74-6.33,5.62-10.73l-5.41,2.87,7.6-10.95-5.96,2.22c3.63-5.05,7.19-7.12,9.11-13.11l-6.58,2.89,6.99-7.99c.24-.39.47-2.61.04-2.43l-1.42.57-2.94,1.18c2.72-3.82,3.81-4.96,5.42-8.65l-7.08,3.11,6.17-7.79-6.98,2.71,6.77-7.73-5.33,2.18,4.95-6.56c-.48-1.22-1.06-2.18-.76-2.88l1.46-3.45c-7.29,1.8-2.13,5.84-14.1,10.03-11.14-3.94-6.49-3.08-15.34-11.9l-4.65,18.47c-2.36,9.37-1.22,19.5,1.8,28.39,1.97,1.33,3.67,2.58,5.45,4.43l-4.77-1.19c-2.7,3.37,12.98,9.11,4.19,7.48l-2.25-.41c-.26-.14-.52,2.06.08,2.39l2.14,1.17,2.19,1.2c.32.18-.37,1.51-.52,1.41-1.45-.06-3.55.1-3.45.43l5.65,5.3-4.72-.39c.01,1.78.13,6.18,1.27,7.54l6.5,5.04-6.32-.34,4.62,5.31-3.44-.23c-.67-.05-.79,3.16-.28,3.61,1.39,1.23,4.44,3.07,6.82,4.28,6.07-9.23-1.99-26.66,4.98-27.01.52-.03,1.43.45,1.16.9l-1.15,1.91c-.31.51-.7,2.11-.17,2.41l1.67.95-1.45,4.49c3.79-.76,5.63-2.38,6.83-5.65l-4.07.24,4.8-6.95ZM571.56,690.54l-5.39-.02,5.73-6.75c-7.29-.77-7.05,6.85-7.18,12.38,2.77-1.73,3.87-2.63,6.84-5.61ZM521.52,720.73c2.57-.26,5.51-1.25,7.22-3.08l-.97-6.95c-3.42,1.39-4.89,2.57-6.02,4.98l5.23-.72-5.46,5.78ZM553.03,716.3l-5.16-4.32c-2.51,3.59-3.86,9.15.03,12.09l5.13-7.77ZM554.62,723.49c5.55-4.85,11.83-6.28,19.33-7.63-6.91-9.21-17.82,1.07-22.81,6.73l1.61,1.77c.18.2,1.55-.6,1.87-.87ZM578.91,721.52c-1.84-6.08-19.06-.32-21.81,3.48,2.5,7.68,11.85-2.11,21.81-3.48ZM525.99,730.8c-3-5.02-7.65-6.07-11.73-6.5,4.22,2.82,8.08,5.19,11.73,6.5ZM569.86,734.59c6.39-3.65,10.64-5.47,16.73-7.84-3.33-5.51-16.65.05-22.05,2.9l5.33,4.93ZM521.41,736.26c.45.25,2.54-1.43,2.2-1.88s-1.35-2.09-1.86-2.38l-9.98-5.65c-1.89-1.07-6.59,1.11-7.44,2.57,1.59.3,4.81.44,6,1.11l11.08,6.23ZM604.24,751.96c-1.8-6.52-3.64-11.66-6.45-17.44-4.49-9.22-19.8-3.13-25.61,2.24,5.51,7.31,22.21,16.79,32.06,15.2ZM517.73,737.42l-8.71-5.31c-4.47-.68-9.12.06-12.83,2.38,8,.19,14.23,1.38,19.95,7.16.85.03,2.63-.66,3.28-1.35.51-.55-1-2.46-1.7-2.88ZM515.59,744.72c-6.54-7.16-17.28-9.57-25.9-5.45,15.61.49,21.95,14.54,25.9,5.45ZM581.96,748.66l-13.12-10.47c.37,7.16,7.06,8.8,13.12,10.47ZM503.98,746.72l-.27,3.07c-.03.33-.68-.09-2-.54l-3.54-5.48c-3.24-1.09-8.44-1.14-12.72-.71-2.34,9.26-3.77,17.66-4.25,26.92l10.97-5.17c7.01-3.3,12.74-7.28,17.37-14.17l-5.57-3.92Z"/>
  <path class="cls-1" d="M703.62,426.55c-4.46,6.09-14.39-3.56-14.75-5.56-.19-1.07.61-3.11,1.06-4.39l-.84-2.31c-.27-.73,2-2.47,2.79-2.49,6.95-.16,16.25,8.6,11.74,14.75Z"/>
</svg>