<?xml version="1.0" encoding="UTF-8"?>
<svg id="Layer_1" data-name="Layer 1" xmlns="http://www.w3.org/2000/svg" viewBox="0 0 528.66 459.48">
  <defs>
    <style>
      .cls-1 {
        fill: none;
      }

      .cls-2, .cls-3 {
        fill: #302821;
      }

      .cls-3 {
        font-family: P22MorrisGolden, 'P22 Morris';
        font-size: 24px;
        letter-spacing: .2em;
      }
    </style>
  </defs>
  <text class="cls-3" transform="translate(161.81 444.06)"><tspan x="0" y="0">Medieval times</tspan></text>
  <path class="cls-2" d="M122.96,117.06l3.95.14,3.79-.39,3.72-.8,3.62-1.19,3.29-1.91,3.08-2.22,2.67-2.72,1.95-3.28,1.47-3.51.99-3.7.07-3.83.04-3.86-.45-3.84.24-3.86-.46-3.84v-3.86s-.05-3.82-.05-3.82l-3.41-.05h-3.46s-3.46.16-3.46.16h-3.34s-.05,3.79-.05,3.79l.04,3.89.05,3.89-.12,3.9.2,3.89.08,3.89.09,3.9-.03,3.8-3.46.09-3.57.09-3.57-.35-3.57.17.22-3.93.15-3.94.51-3.93.07-3.95-.37-3.94-.03-3.94-.33-3.93-.19-3.94-.38-3.99,3.96-.08,3.93.37,3.93-.34,3.93.07,3.93-.07,3.93.31,3.93.07,3.93-.33,3.93.11h3.94s3.96.03,3.96.03l-.19,3.89-.21,3.82-.1,3.82-.28,3.81.12,3.83-.12,3.82-.43,3.81.2,3.83-.24,3.81-.17,3.82-.1,3.82-.14,3.82.27,3.82-.27,3.81.18,3.82-.28,3.81-.06,3.82.11,3.82.21,3.82-.11,3.82-.24,3.82.18,3.81.19,3.81v3.81s.09,3.81.09,3.81l.16,3.81-.02,3.82-.18,3.82.32,3.81-.07,3.82.05,3.81.3,3.81.27,3.8v3.82s.34,3.81.34,3.81l-.21,3.83.37,3.96-4.26-.55-4.25.02-4.24-.4-4.25-.14h-3.72s-3.71.34-3.71.34l-3.73.07-3.72.35-3.74-.15-3.72-.02-3.8-.16.15-3.81.15-3.74.16-3.74.11-3.74.31-3.74-.04-3.75.19-3.74.07-3.74.21-3.74-.06-3.74.04-3.74.04-3.74-.2-3.74-.11-3.74.12-3.74-.12-3.74-.09-3.74-.19-3.73.14-3.74-.03-3.74-.43-3.73.05-3.74-.14-3.75-.39-3.88ZM137.99,202.22l3.73.61,3.77-.98,3.2-2.21,2.3-3.16.69-3.83.13-3.84.14-3.84-.09-3.84.08-3.84.24-3.84-.08-3.84.17-3.84-.31-3.84.37-3.83-.33-3.84.15-3.84.06-3.84.12-3.84.06-3.84-.11-3.84v-3.84s.18-3.84.18-3.84l.06-3.84.04-3.84.22-3.84-.1-3.85v-3.89s-2.97,2.39-2.97,2.39l-3.03,2.26-2.85,2.48-2.88,2.45-3.18,2.13-.1,3.87-.12,3.74-.1,3.74-.51,3.73-.14,3.74.22,3.76-.2,3.74.03,3.75-.19,3.74v3.75s.07,3.75.07,3.75l-.34,3.75.38,3.74v3.75s.16,3.74.16,3.74l-.21,3.75.07,3.75.49,3.73.06,3.75.19,3.74.2,3.74.3,3.62Z"/>
  <polygon class="cls-2" points="240.18 174.01 241 178.02 242.83 181.68 245.52 184.73 248.51 187.48 252.03 189.67 252.76 185.94 253.15 182.21 253.71 178.51 253.79 174.76 254.11 171.03 254.31 167.29 254.26 163.55 254.18 159.81 253.96 156.08 254.1 152.33 253.71 148.61 253.68 144.86 253.39 141.13 252.97 137.35 256.59 137.45 260.18 137.34 263.78 137.28 267.38 137.41 267.17 141.12 266.84 144.84 266.68 148.57 266.58 152.3 266.45 156.02 266.43 159.75 266.42 163.48 266.54 167.2 266.39 170.93 266.43 174.66 266.88 178.37 266.81 182.1 267.25 185.81 267.6 189.6 263.74 189.99 260 190.62 256.2 190.55 252.41 190.65 248.62 190.26 244.99 189.11 241.46 187.76 238.19 185.86 235.36 183.43 232.82 180.67 231.14 177.32 229.42 174.01 228.24 170.46 227.28 166.85 226.91 163.13 226.63 159.42 226.41 155.71 226.48 151.99 226.44 148.28 226.45 144.56 226.05 140.85 226.28 137.13 226.13 133.42 226.08 129.71 225.85 125.99 225.87 122.28 225.85 118.56 225.72 114.85 225.6 111.14 225.46 107.43 225.64 103.71 225.53 99.99 225.29 96.28 225.39 92.56 225.18 88.85 225.19 85.13 225.34 81.41 225 77.69 224.94 73.98 225.16 70.25 225.06 66.66 228.79 66.58 232.65 66.33 236.51 66.52 240.37 66.6 244.24 66.41 248.1 66.24 251.96 66.5 255.82 66.55 259.69 66.47 263.56 66.43 267.45 66.27 267.04 70.3 266.8 74.27 266.77 78.24 266.74 82.21 266.51 86.18 266.58 90.15 267.01 94.1 267.23 98.06 267.39 102.08 263.77 101.9 260.18 101.99 256.57 102.12 252.99 101.97 253.35 98.15 253.56 94.25 253.56 90.33 253.74 86.44 254.06 82.54 253.91 78.64 253.7 74.74 253.59 70.95 250.17 70.96 246.69 70.69 243.22 70.77 239.86 71.03 239.64 74.76 239.6 78.59 239.6 82.43 239.69 86.27 239.34 90.1 239.42 93.94 239.18 97.78 239.09 101.62 239.02 105.45 239.05 109.29 239.04 113.13 238.88 116.97 238.92 120.82 239.01 124.56 242.75 124.73 246.61 124.61 250.46 124.81 254.33 124.77 258.16 125.16 254.57 126.64 250.56 127.47 246.53 128.16 242.57 129.22 238.78 130.65 238.88 134.6 238.55 138.55 238.59 142.5 238.66 146.45 238.32 150.4 238.69 154.34 238.72 158.29 239.01 162.22 239.35 166.16 239.74 170.08 240.18 174.01"/>
  <polygon class="cls-2" points="189.03 206.11 192.86 205.14 195.92 202.88 198.4 199.99 199.83 196.46 201.08 192.87 201.86 189.14 202.34 185.36 202.82 181.57 203.07 177.75 203.15 173.93 203.02 170.11 202.91 166.29 202.65 162.47 202.61 158.65 202.87 154.88 206.31 154.89 209.76 154.75 213.22 154.88 216.62 154.8 216.25 158.47 216.06 162.19 216.1 165.93 215.54 169.62 215.4 173.34 215.32 177.07 214.68 180.77 214.75 184.51 214.12 188.21 212.91 191.74 211.28 195.09 209.26 198.22 206.64 200.88 203.83 203.34 200.62 205.26 197.08 206.46 193.5 207.57 189.75 207.51 185.86 207.29 181.95 207.4 178.05 207.26 174.21 207.09 174.05 203.39 174.36 199.65 174.15 195.9 174.32 192.15 174.28 188.4 174.58 184.66 174.55 180.91 174.5 177.16 174.45 173.4 174.85 169.66 174.88 165.91 174.71 162.16 174.99 158.41 174.69 154.65 174.74 150.9 174.76 147.16 175.05 143.41 175.23 139.66 175.08 135.91 175.17 132.16 175.25 128.41 175.12 124.66 175.53 120.91 175.28 117.15 175.47 113.4 175.3 109.65 175.36 105.89 175.44 102.13 175.52 98.38 175.71 94.47 176.48 90.64 177.33 86.85 178.35 83.08 180.23 79.66 182.07 76.21 184.71 73.33 187.76 70.88 190.97 69.16 194.44 68.12 197.96 67.33 201.54 66.79 205.17 66.72 208.78 66.95 212.42 67.07 215.97 67.93 216.05 71.78 216.05 75.62 215.85 79.46 215.71 83.29 216.04 87.13 215.86 90.97 215.68 94.81 215.84 98.66 215.75 102.44 212.36 102.29 208.88 102.19 205.41 101.97 201.97 101.8 202.15 98.08 202.74 94.31 202.62 90.48 202.72 86.68 203.04 82.87 202.82 79.07 202.78 75.25 202.32 71.47 201.98 67.54 198.54 68.93 195.66 71.01 193.17 73.51 191.2 76.45 189.73 79.71 189.19 83.25 188.46 86.76 188.33 90.61 188.06 94.45 187.84 98.29 187.87 102.15 187.55 105.99 187.41 109.83 187.32 113.68 187.22 117.53 187.28 121.38 187.06 125.22 187.36 129.07 187.18 132.92 187.26 136.77 187.15 140.61 187.14 144.46 187.38 148.31 187.21 152.15 187.2 156 187.46 159.84 187.61 163.69 187.62 167.53 187.7 171.38 188.02 175.22 188.07 179.06 187.94 182.92 188.15 186.76 188.48 190.59 188.39 194.45 188.74 198.29 189.06 202.12 189.03 206.11"/>
  <path class="cls-2" d="M312.13,144.88l-2.65-2.74-3.17-2.11-3.08-2.21-3.09-2.21-3.08-2.21-2.81-2.55-2.22-3.08-1.63-3.41-.93-3.65-.61-3.72-.62-3.75-.22-3.78.27-3.79-.15-3.78.24-3.78.06-3.78.2-3.78.54-3.75.65-3.73.88-3.69,1.32-3.54,1.6-3.41,2.16-3.06,2.62-2.69,3.34-1.39.88,3.75.54,3.95.44,3.96.25,3.98.13,3.99-.2,3.98-.35,3.97-.36,3.97-.16,3.93,3.55.12h3.57s3.57-.23,3.57-.23l3.63.12-.29-3.97-.06-3.82-.36-3.82.22-3.83v-3.82s-.12-3.82-.12-3.82l.81-2.88-2.58-2.66-.17-3.08-1.25-1.58h-4.16s-4-2.59-4-2.59l-3.98.31-3.98.42-3.88,1.02-3.65,1.63-3.38,2.1-2.98,2.24-2.4,2.86-2.2,3.04-1.32,3.51-1.39,3.48-.68,3.69-.62,3.69-.64,3.7-.28,3.74v3.74s-.01,3.74-.01,3.74l.71,3.67,1,3.57,1.3,3.47,1.85,3.22,2.29,2.94,2.59,2.69,3.04,2.18,2.86,2.4,2.85,2.4,2.95,2.31,2.2,3.04,2.32,2.92,1.4,3.46,1.31,3.48.79,3.66.2,3.79.38,3.78-.13,3.79.03,3.79-.13,3.79-.13,3.79-.55,3.76-.09,3.81-.9,3.7-.99,3.66-1.14,3.61-1.74,3.36-2.43,2.86-2.9,2.43-3.75.62-3.68.51-3.72-.16-3.71.45-3.7-.55-3.73.03-3.67-.64-3.7-.42-3.61-.9-3.62-.88-3.46-1.14-3.37-1.4-3.32-1.49-3.34-1.44-3.17-1.79-3.05-1.97-2.94-2.13-2.77-2.34-2.63-2.53-1.82-3.16-2.79,2.73-2.39,2.9-2.04,3.18-.73,3.57,1.95,3.17,2.05,3.12,2.64,2.66,2.98,2.27,3.07,2.16,3.36,1.67,3.38,1.61,3.47,1.41,3.73,1.33,3.76,1.25,3.8,1.14,3.93.61,3.94.42,3.9.72,3.95.46,3.97.06,3.97-.12,4.07-.21,4.02-.67,4.03-.55,3.96-.92,3.95-.99,3.84-1.41,3.23-2.42,2.71-2.94,2.48-3.14,2.11-3.42,1.68-3.66,1.21-3.83.74-3.94,1.35-3.72.53-3.91,1.04-3.8.34-3.92.55-3.89.45-3.91.07-3.94-.42-3.88-.49-3.84-1.27-3.66-1.7-3.5-2.33-3.13ZM301.66,200.96l.03.13v-.06s-.03-.06-.03-.06Z"/>
  <path class="cls-2" d="M83.22,106.83l-2.19-3.08-1.54-3.43-1.2-3.58-1.78-3.33-.72-3.7-1.35-3.56.56-5.31,1.72-3.93,2.07-3.89,3.58,1.83,3.6,1.65,3.7,1.44,3.81,1.1,3.95.33,3.92.62,3.92-.65,3.56-1.3,2.85-2.52,2.16-3.1,2.14-3.13.96-3.67.64-3.58-2.68,2.35-2.6,2.62-3.41,1.39-3.52,1.07-3.64-.62-3.6-1.16-3.49-1.48-3.58-1.24-3.4-1.71-2.96-2.51,1.25-3.5,1.29-3.42.41-3.65,1.02-3.5.76-3.57-.07-3.66.27-3.63-.51-3.6-.96-3.48-.7-3.59-2.05-3.21-2.73-2.56-2.89-2.43-3.44-1.62-3.72-.79-3.77-.27-3.76-.26-3.76.26-3.78.38-3.64,1.28.49,3.72-.39,3.73.08,3.72.57,3.64,2.56-1.27,2.83-1.44,2.99-1.08,3.61-1.24,3.74.72,3.43,1.29,3.04,2.16,2.21,3.03,2.06,3.18.88,3.69,1.19,3.6.27,3.78-.35,3.76-.76,3.66-1.49,3.38-2.76-2.03-2.78-2.32-3.22-1.71-2.98-2.05-3.05-1.94-3.15-1.79-2.95-2.13-3.31-1.49-3.01-2.09-3.49-1.04-3.5-.84-3.59-.26-3.54.66-3.6.43-3.31,1.48-3.15,1.78-2.84,2.21-2.98,2.53-2.63,2.89-2.71,2.79-2.52,3-1.49,3.63-1.49,3.59-.82,3.81-.85,3.33.04,3.43.39,3.37,1.08,3.25,2.49,2.41,3.13,1.85,3.05,2,3.35,1.49,3.13,1.85,2.91,2.22,3.36,1.47,3.01,2.07,2.96,2.15,2.99,2.5,1.98,3.36,1.42,3.78-.14,4.05-.66,3.97-.96,4.01,3.61-2.26,3.24-2.54,2.95-2.88,1.97-3.66v-3.86s-.72-3.74-.72-3.74l-1.38-3.54-1.81-3.4-2.46-2.99-3.27-2.1-2.94-2.46-3.34-1.91-3.27-2.01-3.07-2.4-3.62-1.4-3.15-2.26-3.51-1.6-3.17-2.2-1.78-3.3-.82-3.41.06-3.51.81-3.4.63-3.46,2.05-3.51,2.71-3.14,3.96-.19,3.87.32,3.87.24,3.71,1.12,3.81.79,3.39,1.92,3.43,1.75,3.37,1.87,3.18,2.2,3.32,2,3.26,2.1,3.04,2.39,3.08,2.34,2.78,2.51-2.71,2.51-2.41,2.98-2.26,3.08-1.65,3.44-1.53,3.52-.33,3.82-.61,3.8.97,3.75.47,3.99.91,3.91,1.2,3.53,1.49,3.42,1.53,3.41,1.82,3.26,2.11,3.09,1.71,3.32,2.09,3.24-2.19,3.06-2.26,2.7,5.38-.26.31,3.62-.23,3.75-.33,3.75.17,3.75.09,3.75-.02,3.75-.08,3.75-.09,3.75v3.76s.17,3.75.17,3.75l-.24,3.76.13,3.76-.06,3.76.18,3.76-.2,3.76.41,3.76-.56,3.76.22,3.76-.1,3.72-1.4-3.31-1.23-3.51-1.12-3.55-1.26-3.5-1.84-3.26-1.25-3.49-1.73-3.28-1.46-3.42-2.22-2.99-1.69-3.33-2.37-2.87-2.68-2.58-2.45-2.81-2.97-1.96-2.95-1.96-3.19-1.55-3.5-.47-3.56-.32-3.08,2.05-3.01,2.03-2.89,2.26-2.49,3.12,4.07-.12,3.66,1.11,3.45,1.62,3.28,1.94,2.87,2.5,2.54,2.81,2.56,2.79,2.17,3.11,2.27,3.05,1.67,3.42,2.06,3.21,1.04,3.71,1.81,3.34,1.81,3.36.76,3.78,1.69,3.41,1.51,3.48.83,3.73,1.68,3.43,2.85-1.79,2.87-1.76,3.11-1.21.44,3.52-.04,3.69-.36,3.66-.35,3.67-.69,3.63-1.15,3.51-1.27,3.34.78,3.29,1.16,3.2,1.63,3.02,1.09,2.93,1.83-2.89,1.81-3.2,1.57-3.33,1.88-3.22-2.14-3.12-1.13-3.47-1.17-3.41-.83-3.5-.5-3.55v-3.58s.41-3.59.41-3.59l1.15-3.45,2.03-2.97,2.68-2.5,2.7-2.52,2.64-2.58,2.46-2.75,2.47-2.74,2.34-2.87,1.86-3.2,1.92-3.16,1.53-3.37.91-3.88.8-3.87.87-3.87.34-3.96-.49-3.96.13-3.99-.56-3.94-.72-3.91-1.05-3.84-.79-3.78-1.82-3.44-1.06-3.72-1.68-3.46-1.63-3.48-1.58-3.28,3.41-.72,3.66.47,3.39,1.33,3.35,1.63,2.72,2.6,1.75,3.22.61-3.78.12-3.87.74-3.79.72-3.8.32-3.92-3.71.43-3.65.23-3.65.28-3.62.6-3.69-.17-3.6.92-3.73.23-1.36-3.37-1.88-2.84-1.98-2.79-1.3-3.17ZM79.75,205.76l-.52-3.65.14-3.7.36-3.7-.48-3.69.35-3.71-.69-3.69.49-3.71-.06-3.7-.37-3.69-.02-3.71-.02-3.71.02-3.61.03-3.61-.3-3.62.57-3.6.05-3.62.47-3.59.11-3.61-.05-3.63,1.86,4.09,2.35,3.83,1.6,3.55,1.11,3.74,1.76,3.5.85,3.81,1.28,3.7.32,3.86.29,3.85-.18,3.86.11,3.87-.17,3.87-.8,3.8-1.07,3.72-1.47,3.56-1.07,3.74-2.13,3.24-2.39,3.01-2.3,2.94Z"/>
  <path class="cls-1" d="M365.79,58.53c.56-1.08-.1-1.87-1.11-2.24-3.08-1.11-5.59-2.63-8.2-4.4l.29.57c.03.07-.02.15-.13.38l-2.22-1.19c1.5,2.72,8.51,6.37,11.37,6.88Z"/>
  <path class="cls-1" d="M354.65,48.92c3.03,3.23,6.66,5.32,10.65,6.69.17-1.07.15-2.03-.05-2.96-3.53-1.24-6.65-3.35-9.44-5.43-.17-.13-.48-.25-.61-.3-.08-.03-.11.25-.09.34l.16.52,2.34,2.12c-1.43.32-1.6-1.6-2.97-.98Z"/>
  <path class="cls-1" d="M371.03,51.36l-.73-.14c-.09-.02.2-.31.24-.4l.69-1.41-4.77,3.06c-.2.85-.21,1.97,0,3.06,1.91-1.34,3.29-2.66,4.58-4.17Z"/>
  <path class="cls-1" d="M367.05,58.28c1.96-1.19,4.77-3.72,4.49-5.98-1.51,1.43-2.75,2.56-4.38,3.78-.51.38-.46,1.62-.11,2.21Z"/>
  <path class="cls-1" d="M376.24,62.6l1.43-1.69c-.1,1.51-.97,2.43-1.55,3.8.15-.03.99-.11,1.15-.3,1.1-1.37,3.46-5.24,3.16-7.21-.01-.08-.08-.05-.17,0l-.59.34.27-2.4-.93,1.43c-.18-1.79.88-3.12.08-4.89-.38,2.74-1.03,4.88-1.85,7.3-.17.51-.17,1.47-.45,2.02-.31.59-.48,1.11-.54,1.61Z"/>
  <path class="cls-1" d="M329.01,79.13c.31,1.08.73,1.92,1.18,2.58.43-1.39-.21-2.21-1.18-2.58Z"/>
  <path class="cls-1" d="M355.76,57.14l-2.4-.84,2.98,2.28-2.13-.43,1.44,1.56-.89.49c.47,1.2.23,2.48-.91,3.1l-2.52,1.37,1.24,1.78-1.42-.29c-.46-.09-.07,1.28.38,1.54.42.24.66.65.67,1.06l-1.75-.83c-.02,1.58,1.33,1.67,2.24,2.93-.78.54-2.6-1.74-2.67-.87-.01.16-.05.85.07.97l2.6,2.61c-1.28-.19-2-.92-3.1-1.62-1.22,1.79,4.01,3.68,4.75,4.44-2.12.14-3.33-1.44-5.15-2.17-.9,2.02,4.8,3.89,6.17,4.71-2.55.04-4.51-1.32-6.61-2.7-.32,1.01.44,2.07,1.37,2.56l4.64,2.47c-2.46.12-4.11-1.47-6.31-2.5-.42,1.6,5.1,4.05,6.65,4.93-2.69-.11-4.83-1.78-7.05-3.34-.24,2.15,4.64,4,6.04,4.87-2.39.22-3.9-1.43-5.87-2.35.06,1.98,5.13,3.3,6.69,3.87-2.48.56-4.3-.87-6.46-1.62.67,3.17,4.78,2.77,5.35,4.07-1.57-.24-2.67-.57-4.21-.97.84.84,1.7,1.65,2.62,2.35.9.69,2.15.23,2.93,1.45l-3.86-.85c-.05.1.4.75.68.83,6.53,1.99,15.3,2.3,20.35-3.24.31-.35.31-1.39.25-1.75l-1.54,1.42c.51-1.61,1.16-2.31,1.91-3.62l-1.23.83c.48-1.77,1.97-2.59,2.52-4.54l-2.34,1.64c.95-1.8,2.29-2.73,3.38-4.46l-3.41,1.74c1.29-1.67,3.28-2.53,3.69-4.65-1.14.53-1.47,1.74-2.81,1.93,1.13-1.69,2.69-2.98,3.08-4.92-1.09.58-1.57,1.87-2.7,1.96,1.42-2.2,3.26-3.72,3.18-6.25-1.29,1.49-2.14,3.09-3.91,3.93.49-1.14,4.43-4.8,2.52-5.76-.66.97-1.05,1.82-2.01,2.34l1.38-3.39c-.21-.15-.6-.28-.72-.2l-.83.61.37-1.22c.05-.17.24-.82.07-.84l-.82-.09,1.75-2.77-1.24.2,3.26-3.81-2.17,1.15,2.97-3.84-2.49,1.61,1.59-2.37-1.35.45c.25-.73.34-.95.37-1.16.03-.18-1.36-.98-1.31-.62.27,2.22-4.59,7.51-6.94,8-3.19.17-9.72-3.68-12.15-5.79l-1.07.09-2.15-1.32c1.29,1.68,2.84,2.27,4.37,3.87Z"/>
  <path class="cls-1" d="M333.02,73.46l1.69-.23c-.01.09.04-.37.06-.51.03-.24,1.09.24,1.09-.1v-.6s1.36.05,1.36.05c.03-.49-.05-.86.13-.85l.82.03c.18,0,.86-.03.85-.2l-.03-.74,1.25.06-.35-.64c-.05-.1.2-.3.3-.25l.69.31c.21.09.79-.02.71-.18l-.39-.7,1.37-.25-.99-1.65,1.52.44-1.4-2.48c.13-.39,2.57,2.48,2.09,1.26-.45-1.15-1.8-1.86-1.83-2.99,1.36.59,1.49,2.17,3.05,1.78-.73-1.22-1.83-1.85-2.03-3.4l2.38,2.37c-.14-1.15-.52-2.03-1.08-2.93l-3.24-5.18c-2.58.72-5.39,1.96-6.56,4.4l-2.1,4.35c-.45.93-.95,1.38-.14,2.44l-.84-.05c-.12,0-.01.57-.12.63-.45.27-1.33.78-1.55,1.26-.87,1.81,1.63,4.79,3.3,4.56ZM334.18,62.36l3.02,3.4c-1.19.03-1.56-1.06-2.9-1.79l.98,1.93c-.88-.51-1.35-1.18-1.81-1.89l.71-1.65Z"/>
  <path class="cls-1" d="M323.89,83.23c.17.66.48,1.9.96,2.29.98.81,2.81.41,3.59-.48.67-.76,1.07-1.68,1.45-2.63l-1.27-1.82c-.94,1.76-2.58,2.38-4.73,2.64Z"/>
  <path class="cls-1" d="M346.93,62.67l.22-1.65,1.2,2.22-.87-4.06c1.37,1.01.91,2.6,2.06,3.9.7-.76-1.66-5.03-.7-4.52.08.04.4.31.43.39l1.21,3.39c.08.21.25.55.35.48l.43-.32-1.58-4.72c1.61,1.07,1.41,2.98,2.52,4.62.53-1.86-1.01-3.04-.79-4.89l1.68,2.97c-.35-1.74-1.08-3.33-2.14-4.79l-5.46-7.52c-.13,1.59,1.44,1.86,1.1,3.44l-2.26-3.16c.19,1.03.79,1.76,1.34,3.18l-2.12-1.83.99,2.54-1.66-1.16.86,2.25-1.27-.83c.02.71-.04,1.27-.21,1.76,1.34,3.1,3.59,5.39,4.63,8.31Z"/>
  <path class="cls-1" d="M381.57,71.16l-.9-1.88c-.3,1.45.18,2.65.77,4.06.22-.51.38-1.66.13-2.18Z"/>
  <path class="cls-1" d="M379.66,65.34c.08,1.17-.39,1.93-.97,2.97,1.89-.97,3.22-2.95,3.96-4.79-.26-.18-.64-.43-.6-.56l.5-1.63c-.44.66-.71,1.07-1.25,1.53l.44-2.47-3.65,6.18,1.58-1.24Z"/>
  <path class="cls-1" d="M384.13,86.04c-1.99-2.52-.16-4.99-2.26-6,1.96,5.49-.18,2.58,2.12,7.86.51-.22.56-1.33.14-1.86Z"/>
  <path class="cls-1" d="M379.61,72.04c.79,1.45.6,2.92.88,4.37.27,1.38,1.06,2.36.55,3.99-.23.74.59,2.18,1.02,2.74l-.69-2.9c.35-1.72.25-2.91-.64-4.36-.08-.76.07-2.2-.13-2.92l-.87-3.16c-.22.58-.35,1.8-.11,2.24Z"/>
  <path class="cls-1" d="M381.91,85.8l.96,2.85c.74-1.22.18-2.55-.96-2.85Z"/>
  <path class="cls-1" d="M381.67,68.18c-.79,2.2,1.02,1.82.55,4.78-.16,1.03-.15,2.15.61,2.63-.12-2.08-.23-3.27-.04-4.9l-1.11-2.51Z"/>
  <path class="cls-1" d="M383.66,81.73c-.25,1.85.28,3.35,1.61,4.95.03-2.62-1.32-1.78-1.32-4.48,0-1.23-.1-2.43-1.14-3.13.23,1,.56,1.86.85,2.66Z"/>
  <path class="cls-1" d="M381.43,85.43c.28-1.36-.06-2.65-.99-3.46.2,1.4.55,2.4.99,3.46Z"/>
  <path class="cls-1" d="M384.83,83.75c.5.44.51.19.2-.46-.02-.77.07-2.01-.11-2.56l-1.18-3.65c-.84,1.78,1.31,2.96,1.08,6.68Z"/>
  <path class="cls-1" d="M310.81,58.48c-.09.1-.3.44-.33.6l-.7,3.29c-.07.49,1.49,1.03,1.65.79l.08-2.19.06-2.31c0-.18-.64-.33-.76-.19Z"/>
  <path class="cls-1" d="M309.74,58.9c.04-.14-.11-.57-.17-.68-.05-.12-.55.13-.6.26l-1.34,3.33c-.26.65.21,1.46.94,1.62l1.17-4.53Z"/>
  <path class="cls-1" d="M308.47,64.67c.2.51,1.5,3.16,2.73,2.34l-1.7-2.97c-.25-.09-1.14.36-1.03.63Z"/>
  <path class="cls-1" d="M378.68,70.37c-.07-.05-.3.23-.29.32l.14,2.31c1.89,3.73-.25,3.02,1.79,6.68.57-.99-.14-1.88-.52-3.11-.28-.89.15-2.26-.31-3.02-1.41-2.34.29-2.47-.81-3.18Z"/>
  <path class="cls-1" d="M313.48,56.96c.27-.22.02-1.4-.17-1.48l-3.67,1.61c1.26.8,3.09.5,3.84-.13Z"/>
  <path class="cls-1" d="M315.93,46.93l-1.05-6.57-.99-6.21c-.39-.28-1.45-.25-1.7.06l1.02,6.52c.35,2.26.55,4.27.73,6.6l2-.41Z"/>
  <path class="cls-1" d="M315.67,58.8l-.29.88c-.32.97-.12,2.04.67,2.34l.35-3.18c.03-.11-.66-.23-.73-.05Z"/>
  <path class="cls-1" d="M313.71,63.18c-.5-.41-.71,1.53.27,2.83,1.18-.92.31-2.35-.27-2.83Z"/>
  <path class="cls-1" d="M313.41,62.05l.47-4.12c-.82-.21-1.41.48-1.46,1.18l-.16,2.45c-.02.23.2.62.31.79.08.12.82-.14.84-.29Z"/>
  <path class="cls-1" d="M312,64.24l-1.19.16c.3.63.8,1.6,1.15,2.05.17.21,1.15.06,1.07-.19l-.34-1.06c-.11-.35-.41-.99-.68-.95Z"/>
  <path class="cls-1" d="M321.75,76.05l1.3,1.3,2.41-2.52c.71-.74.63-1.94-.03-2.5.1.42.31,1.14.12,1.12l-.98-.09c-1.28-.12-.56.98-2.83,2.68Z"/>
  <path class="cls-1" d="M321.71,74.64c.83-.21,1.2-.76,1.66-1.82l-2.07.23c-.28.53-.08,1.72.41,1.59Z"/>
  <path class="cls-1" d="M313.99,32.76l-1.14-.86c-.12.2-.34.68-.45.58l-.67-.56c-.15.1.14,1.19.47,1.22.54.05,1.43-.19,1.79-.39Z"/>
  <path class="cls-1" d="M316.17,49.06c-.61.09-.87.18-.94.01l-.31-.67.11,1.24c.02.22-.38.42-.52.58l1.06,7.57c.3,0,1.06-.17,1.46-.35l-.85-8.37Z"/>
  <path class="cls-1" d="M324.13,77.27c-.68.58-1.09,1.46-.57,2.45,1.03-.36,2.2-1.11,2.76-2.12.36-.66.22-1.53-.49-1.78l-1.7,1.45Z"/>
  <path class="cls-1" d="M323.68,80.58c-.22.46-.38,1.24-.45,1.96,3.97-.61,3.89-1.2,5.17-3.96.32-.7.05-1.57-.64-1.94l.16,1.44c-1.59-.17-.58,1.33-4.24,2.51Z"/>
  <path class="cls-1" d="M319.64,57.86c.03-.16.03-.86-.17-.96l-.67-.32c.83,1.5-.92,1.36-.74,3.67l1.58-2.39Z"/>
  <path class="cls-1" d="M314.41,29.85c-.58-.66-1.48-1-2.36-.75-.7.2-1.25,1.19-1.38,1.91l4.33-.49-.6-.67Z"/>
  <path class="cls-1" d="M311.68,27.16c.22-.5.61,1.35,1.02.84l.54-.66c.08-.09.39.34.49.39.8.4-.22-3.01-2.38-4.04-.67,1.13-2.3,3.43-1.36,4.47l.51-1.42.77,1.32.4-.91Z"/>
  <path class="cls-1" d="M321.23,60.03l5.59-.6c.26-.03.69-.66.52-.78-.14-.1-.47-.18-.76-.15l-5.62.68c-.19.02-.65.58-.5.62.1.03.63.25.77.23Z"/>
  <path class="cls-1" d="M355.47,138.85c-.47,1.03-.4,2.03-.28,3.14l.26,2.27c.56-1.78.51-3.47.02-5.41Z"/>
  <path class="cls-1" d="M353.3,142.67l-1.09,4.07c1.21-1.18,1.31-2.69,1.09-4.07Z"/>
  <path class="cls-1" d="M354.75,136.32c-1.09,6.09-1.45,1.7-.33,7.93.49-2.55-.88-2.79.24-5.42.34-.8.6-1.71.09-2.51Z"/>
  <path class="cls-1" d="M355.22,150.45c.07-.99,0-1.76-.11-2.7l-.19-1.9c-.38.68-.52,1.53-.32,2.28l.62,2.32Z"/>
  <path class="cls-1" d="M350.75,136.58l-.41,2.68c-1.07,2.37.1,1.77.26,5.28.73-1.45.76-3.05-.09-4.57.16-1.15.72-2.15.24-3.39Z"/>
  <path class="cls-1" d="M347.59,136.66c-.34.26-.65.84-.55,1.1l.92,2.24c0-1.4-.12-2.17-.38-3.34Z"/>
  <path class="cls-1" d="M347.06,145.7c.26-1.47-.14-2.25-.87-3.05-.02,1.19.33,2.17.87,3.05Z"/>
  <path class="cls-1" d="M345.51,141.99c.64-2.7-.81-1.99-.44-4.97.02-.15-.01-.66-.14-.62l-.43.12c-.09.02-.1.46-.08.56l.7,3.23c.18.83-.37,2.3-.33,3.12,1.94,4.33-.77,4.08.94,7.95.36-1.4-.42-2.61.04-3.88.96-2.67-.99-2.48-.27-5.51Z"/>
  <path class="cls-1" d="M349.74,137.1c-.03-.27-.91-.57-1.01-.34-.07.17-.18.65-.12.87l.52,2.11c.44-.66.68-1.98.61-2.64Z"/>
  <path class="cls-1" d="M349.33,144.58c.23-.57.33-1.5.1-2.14l-.72-1.96c-.74,1.41.36,1.96.61,4.09Z"/>
  <path class="cls-1" d="M385.61,93.1c.44.87,1.25,1.53,1.98,1.79.42-3.84.84-4.18,4.36-5.66-.07-.13-.7-.54-.99-.6-.7-.13-4.56,3.48-5.35,4.47Z"/>
  <path class="cls-1" d="M330.06,59.55c.69-.08,1.01-1.22.49-1.87-.47-.59-1.27.22-1.38.83-.08.41.36,1.11.9,1.05Z"/>
  <path class="cls-1" d="M380.76,91.7c.57.2,7.44-3.71,6.08-4.74-2.15,1.59-4.25,2.69-6.78,3.69.06.33.4.95.7,1.05Z"/>
  <path class="cls-1" d="M408.46,83.68c-3.33,1.46-3.2,5.46-5.64,8.22,2.43.05,2.36-.53,3.91,1.59.12.02.77.11.7.23l-1.15,2.03.98,2.24c.22.51,1.83,2.7.29,3.66-.23.14-.94.05-1.18-.12l-1.62-1.12c-.22-1.06-.11-2.18.27-3.24-1.5-.23-2.46-1.47-2.84-2.85-.52,1.09-.33,2.6.15,3.5l1.92-.28c-.04,1.26-.29,2.58-.74,3.5-.1.2,0,.88.18.81l.85-.31.49.92.77-.65c.21.62.27,1.07.5,1.06.23-.02.86-.2,1.09-.18l1.86.24c.11.01.5.42.57.5.38.37.12-1.2.41-1.38,1.35-.8,1.1,1.01,4.05.09,1.03-.32,1.83-.52,2.47-1.42,1.05-1.48,1.55-.53,2.64-.62l.04-.96c-.36.35-1.24,0-2.47.76-.39.24-.9.52-1.19.44-1.11-.3-1.65-3.91-1.67-4.73-.04-1.93,1.78-3.7,3.6-3.84.01.46-.51.78-1.04.96l.69.45-1.8,1.8,2.38-1.1-1.52,1.79,1.46-.39-1.81,2.05c.58-.38.96-.62,1.71-.77l-1.91,2.31,1.55-1.17.23.64,1.08-.36c.11-.04.4.43.49.38l.23-.12-.03-3.32.12-3s-.09-.06-.11-.08c-.21-.15-.12-.27.13-.34l.02-.49.03-3.92.18-3.04c-1.03-.6-2.08-1.05-3.29-1.18-2.67-.28-5.51-.26-7.99.83ZM413.84,99.42c-1.42,1.91-4.65-.54-5.26-2.16-.16-.42.36-1.08.78-1.43l-.65-.45c-.18-.13.29-.76.5-.89.81-.5,1.89-.03,2.86.54,1.31.77,2.98,2.77,1.78,4.39Z"/>
  <path class="cls-1" d="M357.59,134.38c.11-3.64-1.26-3.11-1.85-7.24l-.39,1.89-.75-1.69c-.27.14-.8-.18-1.04-.2-1.44-.15-3.01-.17-4.44-.02-.67.07-1.02.38-1.7-.14l-.64,1.06-.47-.91c-.19,1.36-.28,2.23-.72,3.27l-.3-1.91-1.94,5.86c3.76.76,10.31,1.07,14.23.04Z"/>
  <path class="cls-1" d="M380.22,87c-.11.8-.06,1.69.66,2.27-.13-1.44-.02-2.98-.33-4.26-.28-1.18-.68-2.14-.67-3.37,0-1.31-.88-2.31-.96-3.56l-.18-2.98-1.12-2.51c-.23,1.39.12,2.21.64,3.25l.16,2.43c.96,1.55.86,3.23,1.14,4.92.2,1.25.85,2.44.66,3.82Z"/>
  <path class="cls-1" d="M357.54,136.13c-.51.92-1.19,2.47-1.08,3.51l.33,2.99c.82-.97-.09-1.98.12-3.09l.64-3.41Z"/>
  <path class="cls-1" d="M346.08,87.03c-.36-1.61-.68-3.59-1.74-4.84l-1.96-2.31c-1.2.48-6.02,3.48-6.33,4.33-.58,1.61-1.09,2.62-2.5,3.6-.77,1.63-.44,5.42-3.41,5.06-1.7-.21-3.11-.74-4.94-1.42l-.32,3.39,1.02,1.48c-1.55,3.09,1.11,4.08.11,7.79-.37,1.38.68,2.45.77,3.56.12,1.52-.33,2.7.43,4.2,1.22,2.41-.73,5.19,1.43,7.22l-.41,2.38c3.01,5.2-.4,7.07,1.62,9.42,1.1,1.28-.96,2.03-.13,3.33,2.64,4.1.37,7.15,1.33,8.82,1.56,2.72-.84,2.47.71,4.68,1.29,1.82,1.46,4.02.97,6.2-.68,3.05,1.83,3.35.88,4.56-.54.69-.68,1.83-.17,2.62,3.2,4.93-.51,7.3,1.84,9.63,1.52,1.5-1.29,2.26.04,4.44,1.17,1.91,1.45,3.95,1,6.17-.54,2.7,1.65,2.56.4,4.94-.89,1.69,1.77,1.91.79,6.69-.22,1.06.25,2.03.79,2.85.22.41-.18,1.53-.24,2.07l.75,2.32-.68,4.76,6.18-4.4.22-3.24c.37-5.48-4.35-16.29-2.71-23.42l1.23-5.36c.29-1.28.87-2.26,1.76-3.35l-2.08-2.8c-.57-.77-.24-1.72-.15-2.62l.74-7.33c.5-5.02-.79-8.59-.57-15.41.05-1.56-2.26-1.01-1.45-2.66,1.13-2.31,1.92-4.46,2.4-7.03.26-1.43-1.67-.88-1.27-2.88.33-1.66,1.42-3.85.6-5.4-.61-1.15-1.46-1.66-.53-3.14.5-.8,1.05-2.32,1.14-3.3-.37-.43-1.24-1.23-1.08-1.67.92-1.93,2.17-3.92,2.05-5.99-.07-.37-1.07-.91-1.02-1.29.22-1.63,1.28-3.03.82-3.9-1.45-2.74-.35-1.28,1.09-5.5l-.38-1.74,1.82-1.54-.88-3.95Z"/>
  <path class="cls-1" d="M349.3,120.83c-.18-.07-.59-.4-.71-.28l-.59.64-.69-1.17-.65,1.35-.46-1.11c-.19.83-.45,1.67-.94,2.49v-2.88s-1,4.85-1,4.85c.69.69,1.95,1.33,2.97,1.35,3.17.07,5.99.08,9.17,0,.58-.02,1.78-.51,2.34-.73.3-.12.44-1.35.19-1.56l-.72-.59-.35-2.78-.36,2.64-.61-1.74-.6,1.15-.39-1.77-.78,1.37-.45-1.3-.53.47c.57-.51-3.82-.85-4.84-.39Z"/>
  <path class="cls-1" d="M357.63,150.39c.24-1.68-.4-3.05-.35-4.47l.07-1.93c-.54,1.11-.55,2.37-.29,3.61l.57,2.78Z"/>
  <path class="cls-1" d="M338.98,74.11l-.87,1.93c.86-.48.97-1.12,1.39-2.16l1.82-1.48c-1.04-.04-1.92.79-2.34,1.71Z"/>
  <path class="cls-1" d="M341.5,77.65c.62-.28,1.09-.76,1.72-1.28l1.43-1.2c-2.03-.67-2.07,1.49-3.16,2.48Z"/>
  <path class="cls-1" d="M340.81,77c1.51-.2.69-1.62,2.21-2.23.62-.25,1.04-.44,1.36-1.09-2.43,1.12-2.14.67-3.57,3.32Z"/>
  <path class="cls-1" d="M343.97,67.69h0c.86-.55,1.43-.98,2.1-.52.63.44.87,1.5.26,2-.3.25-1.4.27-1.58-.05l-.78-1.43s0,0,0,0c0,0,0,0,0,0l-.03-.06-1.5,2.74,3.27.85c1.12-.84,2.02-2.4,2.31-3.87l-1.83-2.41c-1.01.91-1.64,1.66-2.21,2.76Z"/>
  <path class="cls-1" d="M349.04,100.54c8.91,2.25,18.21.87,25.97-4.03.85-.53,1.64-1.44,1.92-2.26.39-1.16-.11-2.22-1.23-2.32l.9,2.13c-.7-.31-1.09-.7-1.42-1.14l.35,1.58-1.88-1.88.34,2.24-1.51-1.35.17,2.18-1.4-1.32c-.11.4-.21,1.01-.15,1.28l.11.53c.02.09-.18.24-.24.18l-.32-.36c-.25-.28-.69-.73-.93-.58-.26.15-.52.78-.45,1.05l.17.58c.03.1-.3.24-.36.15l-.34-.43c-.09-.11-.36-.36-.47-.46-.1-.09-.25.29-.23.43l.06.5.06.47c.01.08-.22.13-.27.06l-.27-.41c-.19-.28-1.03-.66-1.28-.41-.21.21-.23.59-.33,1.23l-1.2-.86-.45,1.35c-.4-.33-.87-.75-1.2-.79-.28-.04-.76.7-.84.77-2.14-.97-1.48.16-4.26-.17l-.98.44c-.31-.27-.6-.68-.8-.62l-.86.26-.8-.62c-.19-.15-.61.43-.94.82l-.3-.51c-.1-.37-.33-.87-.59-.88s-.74.38-.87.62l-.27.5c-.05.09-.41-.05-.38-.15l.14-.55c.06-.25-.03-.95-.28-.94-.25.01-.7.33-.87.53l-.33.39c-.05.06-.21.02-.2-.06l.03-.49.06-.86c.01-.2-.66-.39-.76-.22l-.37.6c-.27.44-.76.9-1.01.88.31-1.03.56-1.41.51-2.37l-1.41,1.89c-.36.19-1.09.71-1.14,1.12.72,1.12,2.07,1.94,3.41,2.28Z"/>
  <path class="cls-1" d="M377.74,84.51c1.53,2.63.21,4.69.69,4.63.1-.01.43,0,.39-.09-.31-.81.68-4.05-1.08-4.54Z"/>
  <path class="cls-1" d="M379.03,83.8c-.25-2.1-.37-3.85-1.24-5.68l-.34-2.66c-1.38,4.55,1.8,4.76,1.11,8.66l1.01,2.35c.38-.89-.43-1.76-.54-2.66Z"/>
  <path class="cls-1" d="M354.5,105.56c7.86.2,17.93-1.29,24.39-5.99.31-.22.83-1.06.64-1.36l-.74-1.18c.1.66.17,1.02.17,1.91l-1.91-2.98.34,2.44-1.48-1.66.17,2.24-1.36-1.4-.1,1.09-.05.52c-.01.11-.3-.2-.4-.28l-.55-.43c-.12-.09-.4.28-.37.42l.13.51.14.57c.03.1-.34.14-.41.06l-.29-.38-.38-.5c-.08-.11-.54-.07-.52.06l.1.72.07.52c.01.09-.29.17-.35.1l-.27-.34c-.16-.2-.75-.66-.83-.44-.1.26-.21.64-.35,1.08l-.97-.47c-.2.16-.49.67-.72.66-.18,0-.72-.25-.84-.12l-.57.61c-.11.12-.58-.21-.78-.18l-6.15,1.04c-2.89.49-.67-.28-3.01.41l-.99-.32c-.24-.08-.77.53-.99.41-.39-.21-.91-.55-1.19-.6-.23-.04-.54.49-.78.73-.26-.31-.74-1.07-1.08-.98-.3.08-.86.46-1.23.72l-.8-1.26-1.25,1.84-.24-2.29-1.34,1.95-.04-1.88-1.03,2.05v-2c-.28.44-.84,1.68-.59,2.17,3.31,2.29,4.87,2.08,8.8,2.18Z"/>
  <path class="cls-1" d="M375.65,87.31c.18-1.65.05-2.68-.45-3.9-.33,1.08-.52,1.82-.74,2.81-.13.57.8,1.66,1.19,1.1Z"/>
  <path class="cls-1" d="M348.35,92.11l-1.02.96c.58.85,1.35,1.65,2.23,2.11,6.71,3.46,13.83,2.89,20.21-.77-.56-.91-.83-1.3-1.77-1.91l.29,2.37c-.67-.03-1.3-2.39-1.72-1.55-.08.15-.17.52-.14.7l.09.57c.02.1-.3.21-.36.13l-.28-.36c-.14-.18-.57-.79-.75-.65l-.82.69c-.21.17-.81-.48-1.07-.4-.26.08-.68.7-.94.63-.22-.06-.72-.43-.88-.35-.16.08-.52.26-.68.33-.21.09-.78-.56-.94-.39l-.78.84c-.22-.16-.65-1.05-.91-.91l-1.02.53c-.15-.04-.58-.88-.84-.75l-.98.48c-.17-.31-.82-1.05-1.13-.87l-1.17.69-.26-1.07c-.04-.15-.53-.04-.64.07l-.57.61-.57-1.33-1.12.91-.02-1.08c0-.12-.37-.21-.47-.13l-.45.39c-.09.07-.43.25-.55.32-.07.03-.04-.23-.04-.31l.06-.52Z"/>
  <path class="cls-1" d="M370.59,93.91l2.09-1.4c-.53-.69-.94-1.14-1.89-1.55l.79,2.15-1.92-1.23c-.64.69.16,1.93.94,2.04Z"/>
  <path class="cls-1" d="M333.23,76.61l-1.28,2.91c1.34-.46.71-1.66,1.93-2.88.06-.07-.61-.12-.65-.04Z"/>
  <path class="cls-1" d="M330.17,83.99c-1.14,2.58-2.3,2.62-4.81,2.94.22,1.22,1.25,1.77,2.79,1.71,1.22-.05,1.92-.47,2.5-1.37.72-1.11.62-2.47-.48-3.29Z"/>
  <path class="cls-1" d="M329.69,89.37l-2.57.23c1.01,1.53,2.32,1.55,3.82,1.37l.81-3.45c-.78.76-1.25,1.77-2.05,1.85Z"/>
  <path class="cls-1" d="M347.07,76.65c-.45-.2-1-.35-1.33-.15.14.81.82,1.48,1.55,1.6.38-.3.28-1.23-.21-1.45Z"/>
  <path class="cls-1" d="M347.77,76.03c.86-.86-.72-2.12-1.31-1.96-.78.72.79,2.48,1.31,1.96Z"/>
  <path class="cls-1" d="M347.97,72.55c-.32-.25-1.14-.22-1.44.1.5.57.84.91,1.54,1.54.42-.38.34-1.3-.09-1.64Z"/>
  <path class="cls-1" d="M345.3,77.97c-1.1,1.15,1.62,2.58,1.73,2.33.07-.15.21-.76.15-.93-.24-.71-1.33-1.35-1.88-1.4Z"/>
  <path class="cls-1" d="M320.31,68.98c.28-.33.42-.64.56-1.07-.61-2.08-.87-3.55-1.56-5.49.22,2.39.56,4.26.99,6.56Z"/>
  <path class="cls-1" d="M368.14,197.68c-.96-.62-3.16-.78-4.34.13-.93.71-2.25,1.98-2.97,2.71-.15.15.08.86.28.81.14-.04.64-.17.76-.27,3.68-3.31,8.42-1.99,6.28-3.38Z"/>
  <path class="cls-1" d="M368.28,184.63c-1.21-.37-2.22.86-2.14,2.13.94-.37,1.62-.79,2.14-2.13Z"/>
  <path class="cls-1" d="M365.78,188.19l-.51,3.29c1.18-.38,2.06-1.23,2.23-2.16l-1.85.35,2.27-2.3c-.74-.7-2.04.21-2.14.83Z"/>
  <path class="cls-1" d="M362.62,201.6c.44,1.05,1.6,1.31,2.53.72,1.61-1.02,3.34-1.44,5.3-1.96-.99-2.23-6.91,0-7.83,1.24Z"/>
  <path class="cls-1" d="M365.36,193.65c.41-.31,1.37-1.11,1.74-1.49.11-.11-.23-.68-.34-.62l-.42.24c-.72.4-1.48.76-.98,1.88Z"/>
  <path class="cls-1" d="M365.08,134.13c1.28-3.25-1.23-2.93-.38-5.56.71-2.2-.39-1.19.11-4.4-.87.49-.09,2.53-.55,4.51-.8,3.45.07,2.31.82,5.45Z"/>
  <path class="cls-1" d="M335.88,195.67c-2.17-1.99,1.29-2.49-.25-6.44-2.14-.17-.56-3.28-.57-4.19-.01-1.12-1.66-2.1-.92-3.39,1.23-2.13.77-3.53-.4-5.92-.09-.19-.31-.5-.46-.52l-.61-.08c-.25-1.05.66-2.45.74-3.53.03-.94-1.77-1.97-1.08-3.12,1.26-2.11.96-4.61-.46-6.75l-.49.46c-1.27-1.34.21-2.75.13-4.03-.07-1.23-1.6-2.49-1.2-3.98l.64-.27c1.37-3.05-1.42-6.5-1.41-6.51l-.63.38c-.29-.88.49-2.27.64-3.25-.12-.65-2.2-3.73-.41-3.99.62-1.06-.34-5.8-.94-5.26l-.55.51c-1.06-2.47,1.07-3.12-.1-4.77-.53-.75-.88-1.87-.79-2.61,1.64-.42.91-4.01.53-5.02l-1.09-.25c-.04-1.16.08-2.26.35-3.49l-1.04-1.6c-1.23-1.9,1.71-1.78-.1-6.12-1.84.87-.52-3.21-.55-3.66l-1.3-2.62c2.65-5.25-1.14-5.26-.36-7.66.73-2.24-.58-1.76-.84-4.22l.62-.04c.47-.03.83-3.89-.89-5.98-.36-.44-.82-.89-.54-1.48,1.38-2.94-1.36-2.5-.04-5.27.28-.58.19-2.08-.2-2.59-1.61-2.05-2.24-4.15-1.59-6.61-.42-.39-.98-1.05-1.09-1.73l-1.08-6.9c-.05-.35-.96-.84-1.01-.68.38,2.91.94,5.63.97,8.44.01,1.05-.03,1.34.44,2.16,1.08,1.89.3,4-.4,5.94.08,1.08.84,2.57,1.26,3.41.46-.32.68-.46.81-.44l-.57,2.8c2.67,5.07-2.6.97,1.82,9.3.4.76-.62,2.05-.39,2.7l.97,2.79c-1.41,1.17-1.02,2.57-.51,4.05.29.85.43,1.23,1.3,1.72l-.61,2.82c2.33,4.59-.38,3.4.43,5.52l1.06,2.77.9.16-.43,3.31s1.95,5.05.42,3.05l-.28-.36c-.65,2.27.06,4.43,1.83,5.84-.12,1.13-.5,2.4-.79,3.36.88,1.11,1.38,2.61,1.17,3.95l-.67.17c-.74.19.9,4.44,1.14,4.17l.35-.39c.83,1.43.28,2.98-.11,4.62,3.55,5.61-2.61,1.75,1.44,9.33l.09-1.52c1.31,1.78.95,3.81-.01,5.51.88,1.16,1.39,2.31,1.67,3.71l-.85-.12c-1.8,3.31,1.03,6.57,1.12,6.49l.45-.36c.84,1.59-.02,3.23-.66,4.66.79,1.18,1.75,2.52,1.54,4.03l-.87-.07c-1.34,2.14.42,4.37,1.73,5.92.72.86-.39,2.3-.61,3.26,1.12,1.1,1.82,2.42,1.27,4.03l-.65-.4c-1.28,2.04.24,3.77,1.18,5.9l-.47,2.28c2.12,3.5-.39,3.29.16,4.4l2.69,5.39,1.19-6.67c-2.67-1.69.57-2.81-1.23-4.46Z"/>
  <path class="cls-1" d="M367.18,204.97c1.96-1.32,3.71-2.03,5.91-2.78-1.29-2.05-6.12.15-7.81.99l1.9,1.79Z"/>
  <path class="cls-1" d="M373.24,149.49c.26.22.55.45.54.29-.19-2.42-2.55-4.35-4.89-5.46-1.45,3.09,1.61.67,4.35,5.16Z"/>
  <path class="cls-1" d="M366.04,138.82c.04.08.18-.02.21-.11.03-.09.02-.64-.02-.74l-1.23-2.8c-.2,1.16.25,2.15.79,3.18l.24.46Z"/>
  <path class="cls-1" d="M374.22,209.93c3.27.96-.69.83,4.96,1.2-.45-2.09-1.17-3.98-2.06-5.91-1.73-3.75-6.56-1.45-9.17.43,1.8,1.94,3.74,3.54,6.27,4.28Z"/>
  <path class="cls-1" d="M367.37,136.62l-1.21-2.42c-.59,1.78.87,2.24,1.16,4.67.34-.62.37-1.6.05-2.24Z"/>
  <path class="cls-1" d="M367.03,122.76l-.11-3.48c-.44.22-.81,1.07-.67,1.4.79,1.78-.32,3.13-.62,4.69-.25,1.29.4,2.76-.32,4.21l1.12,2.62c2.31-2.88-2.39-4.83.61-9.43Z"/>
  <path class="cls-1" d="M363.36,118.69c-.1-.01-.31-.03-.4-.03s-.15.34-.15.44c.15,2.08-.27,3.74-.75,5.79,1.14-.39,1.38-6.19,1.3-6.21Z"/>
  <path class="cls-1" d="M371.28,209.81l-4.28-3.61c-1.14,1.6,3.18,3.59,4.28,3.61Z"/>
  <path class="cls-1" d="M359.5,196.98c-1.5,1.82-.54,4.58-.03,4.13.08-.07.28-.27.35-.37l1.45-2.2-1.77-1.56Z"/>
  <path class="cls-1" d="M370.59,147.77c-2.41-2.31-6.73,2.43-7.95,4.35-.38.6-.82,1.87-.46,2.45.29.48,1.12.92,1.61,1.2l.26-2.2c.84,1.71,2.97,2.43,4.55,2.56,1.96-.56,2.9-1.91,4.36-3.14.04.74-.15,1.37-.35,2.07,3.36-1.84-.46-5.81-2.02-7.31Z"/>
  <path class="cls-1" d="M396.22,92.79c-1.26-.94-2.68-.02-3.19.57-.98,1.13-.66,3.42.06,3.96.25.19,1.23.14,1.28-.19-.69-3.38,2.5-3.85,1.85-4.34Z"/>
  <path class="cls-1" d="M391.4,97.52l-2.61-.9c-.03.42.24,1.44.6,1.5l2.31.42c.21.02,0-.92-.3-1.02Z"/>
  <path class="cls-1" d="M369.67,142.53c-.19-.15-.99.06-.88.25l.37.66c2.13.93,3.48,2.35,5.02,4.15-.3-1.31-1.14-2.11-2.04-3.06l-2.47-2Z"/>
  <path class="cls-1" d="M386.79,95.44l-1.58-1.31c-.4,1.89.87,3.71,2.86,3.69,0-1.03-.54-1.76-1.28-2.38Z"/>
  <path class="cls-1" d="M398.12,94.2c-.27-.63-1.22-.59-1.75-.19-.93.69-1.38,1.44-1.25,2.67.05.51.31,1.42.71,1.53.48.12,1.1.22,1.44.24-.68-1.91.02-2.97.85-4.24Z"/>
  <path class="cls-1" d="M398.93,94.82c-.58.33-1.17,1.54-1.1,2.17.11.95.21,2.05,1.35,2.09.13-2.35,1.43-3.06.93-3.98-.12-.23-.94-.42-1.19-.28Z"/>
  <polygon class="cls-1" points="436.59 92.91 436.54 89.2 436.49 85.49 436.23 81.78 436.14 78.07 435.92 74.36 435.73 70.65 435.63 66.9 432.08 68.86 429.47 71.94 428.1 75.75 427.47 79.77 427.38 83.64 427.23 87.51 426.97 91.38 426.96 95.25 426.78 99.12 426.69 102.99 426.79 106.85 426.98 110.71 426.95 114.58 427.24 118.44 427.42 122.31 427.5 126.17 427.77 130.04 427.86 133.96 431.33 132.5 433.74 129.72 435.08 126.24 436.06 122.64 436.25 118.93 436.43 115.21 436.45 111.49 436.61 107.77 436.69 104.06 436.64 100.34 436.71 96.62 436.59 92.91"/>
  <path class="cls-1" d="M394.46,91.48c-.49-.48-1.14-1.09-1.68-1.5-1.22.35-2.75.78-3.54,1.74-.8.97-.86,2.73-.54,3.81,1.06.5,2.1.88,3.06,1.03-.63-2.89.48-4.1,2.7-5.08Z"/>
  <path class="cls-1" d="M375.82,138.65c1.42-2.98-.44-2.5.81-6.7-1.84,2.22-.32,3.71-.81,6.7Z"/>
  <path class="cls-1" d="M375,136.81l.04-1.35c-.34,1.51-.81,2.63-1.61,4.17,1.24-.37,1.61-1.62,1.57-2.82Z"/>
  <path class="cls-1" d="M384.08,121.52l-.34,1.73-.77-2.84-.21,2.16-.77-1.46-.39,1.02-.76-1.58-3.61.55c-.09.31-.25,1.03-.38.93l-.53-.44-.52,1.43-.42-1.45c-.27,1.22-.54,2.3-1.07,3.61-.31-.84-.15-1.46-.07-2.52l-1.75,5.3c1.59,3.38,8.82,2.34,11.98.91.76-.35.97-.97.83-1.66l-1.2-5.69Z"/>
  <path class="cls-1" d="M382.26,96.01l-3.43-3.78c-.2,2.08,1.37,3.82,3.43,3.78Z"/>
  <path class="cls-1" d="M380.67,103.07c-.65-.66-1.04-1.19-1.51-1.86l.38,1.73-1.66-1.7.43,2.24-1.26-1.36.1.82c.01.11-.2.21-.3.23-.32-.3-.93-.84-1-.56l-.2.85c-.03.15-.56-.33-.71-.29l-1.68.48c-4.31,1.24-8.58,2.45-13.14,2.65l-5.1.22c-.75.03-1.32.24-1.79.74-.11-.23-.67-1.08-.92-.9l-.93.65c-.16-.16-.75-.94-.94-.73l-.8.86-.72-1.27-.75,1.18-.67-1.53-.87,2.66-.22-2.2-1.81,4.91c.88.69,2.25,1.66,3.46,1.77,2.93.26,5.67.39,8.58.27,1.26-.06,5.41-.64,6.04-1.47.11-.15-.26-.83-.18-1.03.44-1.15,1.67-2.77,2.76-3.52,1.69-1.16,3.55-.76,5.23.26l-.71.52,2.31,1.86c1.85,1.49,8.99-2.61,10.47-4.58-.8-1.74-1.42-3.19-2.6-4.6l.69,2.7Z"/>
  <path class="cls-1" d="M383.8,115.88l-1.08-1.82.05,1.35-.67-.59c-.1-.09-.33.08-.5.14-.22-.12-.88-.44-1.16-.36l-2.76.86c-.75.23-1.07.57-1.44,1.29-.17-.15-.56-.7-.67-.56l-.49.61c-.38.09-.61.07-.69.2l-.44.75s-.09-.19-.38-.79l-.7,2.41c3.93,1.4,7.4.47,11.27-.58.65-.18,1.61-1.36,1.32-1.92l-1.71-3.36.05,2.35Z"/>
  <path class="cls-1" d="M381.6,107.33l.33,1.45-1.15-.8c-.84,1.28-3.23.67-4.99,2.73-.31.02-.6-.09-.65.09l-.27,1.13-.69-.9-.25,1.81c-.01.08-.26.38-.29.3l-.27-.65c-.24.35-.58,1.5-.34,2.09.75,1.88,10.5-1.32,11.58-4.46l-1.91-3.06.67,2.59c-.77-.89-1.18-1.49-1.77-2.32Z"/>
  <path class="cls-1" d="M367.88,162.23l2.44-1.3c-.77.07-1.7.43-2.33.34-3.05-.44-4.9-3.68-5.58-1.55-2.03,6.42-2.92,12.88-2.62,19.64l.4,8.92c1.06.33,1.95.88,2.68,2.14-.97-.36-1.58-.75-2.46-1.3-.09,1.33.02,2.92-.28,4.27-.32,1.4-.42,3.16,1.12,3.72l2.98-1.84c.02-4.15.97-10.85,2.6-14.58.34,1.28-.14,2.17-.27,3.61.96-.46,1.7-1.04,2.3-2.12l-1.96.24c1.22-1.27,2.5-1.49,2.65-3.19-.73.27-1.37.5-2.19.7,1.12-1.31,2.49-1.64,3.07-3.3-1.11.34-1.87.75-2.9.74,1.39-1.26,3.01-1.43,3.64-3.13-1,.33-1.83.76-2.49.52,1.34-1.16,2.93-1.51,3.43-3.33-1.16.1-1.88,1.17-3.05.8,1.37-1.25,3.28-1.44,3.69-3.32-1,.21-1.68.37-2.59.41l2.58-1.8c.31-.22.47-1.18.31-1.46-.99.45-1.6.91-2.58.81l2.52-1.91c.17-.13.38-.77.37-.87-1.55.47-2.38,1.33-4.04,1.2l3.81-2.16c.3-.17.53-1.07.21-1.13-1.1.47-2.23,1.06-3.48,1.36l3.73-2.93c-1.86.84-3.6,2-5.69,1.81ZM360.66,173.33c.06-.11.26.13.38.28l1.76,2.22c.1.61-2.89-1.1-2.14-2.5ZM360.1,181.6c.96.04,1.72.89,2.33,1.91-.97-.21-1.92-.76-2.33-1.91ZM360.39,176.09c.92.57,1.65,1.24,2.47,2.24-1.12-.08-2.42-.8-2.47-2.24ZM360.91,170.37l.5.18,2.15,2.75c-1.15.29-3.68-3.3-2.65-2.93ZM361.08,167.35c.02-.14.48.21.58.34l2.16,2.68c-.21.51-2.99-1.39-2.74-3.02ZM361.43,165.15l.51-.67,2.67,3.45c-1.55-.51-2.19-1.64-3.18-2.79ZM362.54,162.14l2.35,2.73c-.72.21-3.73-2.19-2.35-2.73ZM362.93,160.01c.74.51,1.26,1.08,1.98,2.09-.94.07-2.19-.76-1.98-2.09Z"/>
  <path class="cls-1" d="M357.78,143.53c.8-1.48,1.14-3.35.02-4.94.13,1.72.14,3.15-.02,4.94Z"/>
  <path class="cls-1" d="M358.89,126.8c-.35,1.04-.3,2.13-.03,2.97.65-1.19,1.02-2.07.03-2.97Z"/>
  <path class="cls-1" d="M351.31,149.49c-.41.6-.56,1.5-.27,1.91,2.72,1.47,4.98,3.17,6.96,5.42,1.3-2-5.39-6.53-6.69-7.33Z"/>
  <path class="cls-1" d="M359.95,129.09c-.46,1.02-.63,2.05-.44,3.21l.57,3.49c.28-1.01.31-1.84.35-2.73-1.42-3.34.81-4.19.18-6.87-1.3.43-.07,1.59-.67,2.9Z"/>
  <path class="cls-1" d="M361.97,119.06c-1.25,1.2.41,1.03-.62,4.2-.38,1.17-.24,2.58.32,3.63l-.12-2.59c.26-1.84,1.12-3.45.42-5.24Z"/>
  <path class="cls-1" d="M360.04,117.41l-.38-2.54-.56,1.95-.38-3.03-.69,1.54-.54-1.46-.62,1.22-.59-1.06-.74.49c-.11.07-.41-.6-.54-.61-1.1-.06-3.21-.13-4.44-.11l-1.69.03-.64.65-.6-1.2-1.06,1.78-.18-1.59-.89,1.71-.25-1.46-1.37,3.58c3.73,2.98,10.63,3.08,14.99,1.65.56-.18,1.7-.8,1.84-1.33.16-.6-.02-1.56-.15-2.21.07.64.11,1.23-.52,1.99Z"/>
  <path class="cls-1" d="M370.3,110.86c.43-.48.29-.66-.25-.39-1.75.99-3.56,1.36-5.39,1.57,1.92.43,3.76-.28,5.64-1.19Z"/>
  <path class="cls-1" d="M346.15,210.45l-2.19-1.41.33,1.33-1.65-.97c-.19-.11-.11-.8-.05-1.19-1.51-.43-3.12-.57-4.89-.34-.82,3.1-1.28,6.03-1.57,9.43l4.44-2.11c2.27-1.08,4.12-2.61,5.58-4.74Z"/>
  <path class="cls-1" d="M351.01,152.41l-.75,2.43,7.24,4.62c.45-1.01-.12-1.65-.53-2.41-1.75-1.87-3.58-3.29-5.97-4.64Z"/>
  <path class="cls-1" d="M350.52,204.04l-3.71-2.04c-.67-.37-2.16.37-2.76.92l2.33.3,3.29,2.06c.4.25,1.16.22,1.27-.14.11-.35-.14-.95-.41-1.1Z"/>
  <path class="cls-1" d="M366.42,115.56c-1.15.32-2.34.15-3.69.15,1.62,1.77,6.45.2,7.89-1.34l-4.19,1.18Z"/>
  <path class="cls-1" d="M346.2,200.83c.7.27,1.32.49,1.86.79l3.92,2.18c.83-1.17-5.98-3.74-5.78-2.97Z"/>
  <path class="cls-1" d="M346.08,204.22c-1.39-.67-3.28-.24-4.52.66,2.63-.11,5.21.77,7.01,2.58l.89-.31c1.48-.51-3.15-2.82-3.38-2.93Z"/>
  <path class="cls-1" d="M339.09,206.5l3.33.68,4.14,2.32c.51.28,1.76-.48,1.64-1.05-2.25-2.55-6-3.27-9.12-1.95Z"/>
  <path class="cls-1" d="M344.33,213.94l-2.53,1.8c2.59-.8,4.36-2.55,5.4-4.57-1.34.55-1.8,2.01-2.87,2.77Z"/>
  <path class="cls-1" d="M350.43,198.49l1.89-.58-2.15,2.19c1.07-.16,1.9-.47,2.66-.97l-.28-2.53c-1.3.23-2.05.91-2.12,1.9Z"/>
  <path class="cls-1" d="M355.5,177.55l-1.84.76,1.46-1.64c.29-.32.46-1.03.31-1.46l-2.18,1.25c-.01-1.07,1.94-1.58,2.15-2.94l-2.5,1.1,2.42-2.71-2.01.77,1.94-2.35c-.23-.38-.52-.87-.37-1.09l.64-.93c-1.99-.5-1.24,2.44-5.02,3.22l-2.27-.66-3.11-3.48-1.05,4.24c-1.02,4.12-1.34,8.33.02,12.36.88.24,1.57.55,1.88,1.59l-1.61-.69c-.24,2.04,1.9,1.25,2.11,2.73l-1.5-.2c-.41,1.77,1.42.58,1.85,2.28l-1.59-.25c.07,1.43,1.09.71,1.99,2.13l-1.65-.09c.02.66.09,2.34.64,2.78l2.05,1.62-2.25-.12,1.8,1.91-1.52-.22c-.05.06-.12,1.25.17,1.48.55.45,1.43.93,2.23,1.39,1.74-2.94.38-5.84.87-9.14.23-.28,1.29-.4,1.4-.21l-.82,1.51.94.5-.74,1.51c1.36.25,2.44-.92,2.47-2.06l-1.32.26,1.67-2.56-1.3.54c-2.02.37,2.14-1.49,1.39-3.77-.75.49-1.11.81-1.97,1.05l2.13-2.52c.26-.3.47-1.14.47-1.48-.85.52-1,.73-1.96,1.04l2.63-3.14c.28-.34.47-1.17.5-1.63l-2.24,1.32c.34-1.48,3.11-2.44,2.68-3.97ZM350.09,173.06c.96-1.03,2.23-1.61,3.38-1.52-1,.94-2.14,1.71-3.38,1.52Z"/>
  <path class="cls-1" d="M350.54,196.5c.98-.18,1.81-.44,2.36-1.72-1.04-.3-2.24.51-2.36,1.72Z"/>
  <path class="cls-1" d="M349.68,155.58c-1.68,1.01-5.72,3.57-5.55,5.53.07.78.97,1.61,1.53,1.86-.06-1.53-.39-2.91,1.05-3.52-.96,2.24,1.13,4.21,2.61,5.68l3.92-2.1c.68-.36.98-1.28,1.33-2.19.64,1.02.21,2.49-.46,3.4-.33.05-.9.04-.92.28l-.11,1.14c1.11-.54,2.09-1.05,3.18-1.74.42-1.01.53-2.81.23-3.87-2.18-1.81-4.33-3.09-6.82-4.47Z"/>
  <path class="cls-1" d="M369.69,128.76l-.86,3.37c-.21.81.23,2.11.53,2.94l.87,2.47c.11-1.29-.29-1.93-.77-3.02-.62-1.41,1.89-1.88.24-5.77Z"/>
  <path class="cls-1" d="M370.67,123.31c.51,2.29-1.35,2.58-.17,4.79,1.77-3.91.2-2.18,1.31-5.84.2-.66.13-1.33-.38-1.82-.97.9-1,1.77-.76,2.87Z"/>
  <path class="cls-1" d="M370.63,112.99l-3.55,1.11c-1.49.28-2.9.16-4.5,0,.42,1.83,7.31.08,8.06-1.11Z"/>
  <path class="cls-1" d="M372.98,130.77l-.74,2.1c-.54,1.53-.38,3.11.42,4.72.33-1.68-.95-2.61.21-4.65.4-.7.54-1.4.11-2.17Z"/>
  <path class="cls-1" d="M370.93,129.16c.73,6.92-1.94,1.27.42,8.39l-.18-2.17c-.31-3.63,2.05-4.34-.23-6.22Z"/>
  <path class="cls-1" d="M363.51,139.06c-1.3-2.67.33-3.42-.92-4.17,0,1.56-.23,3.1.03,4.54.8,4.33-.39,3.51.56,4.9.08.12.6-.31.54-.44-1.17-2.73.71-2.95-.21-4.84Z"/>
  <path class="cls-1" d="M370.23,117.82c-.46.2-.81.77-.76,1.23.48,4.6-2.05,3.33-.37,7.82l.78-2.51-.14-2.48c-.08-1.41.86-2.58.5-4.05Z"/>
  <path class="cls-1" d="M368.15,140.97c.32-1.3.47-1.99.91-3.07.31-2.44-2.01-3.64-.72-7.07.93-2.47-.54-4.19-.83-7.2-2.08,4.08,1.92,5.09-.23,9.07-.44.82.02,1.98.49,2.8,2.11,3.69-.82,3.57.38,5.46Z"/>
  <path class="cls-1" d="M364.36,137.39c-.67-1.28.42-4.02-1.1-5.22-.23,2.82.84,1.17.52,5.39,2.01,3.47-.81,4.79,1,5.65-.3-3.95,1.13-2.87-.42-5.82Z"/>
  <path class="cls-1" d="M368,122.64c.75-1.3.94-2.69.29-3.92-.61,1.37-.56,2.7-.29,3.92Z"/>
  <path class="cls-1" d="M369.22,109.33c-.01-.08-.37.02-.46.05l-3.52,1.22c1.35.73,2.82-.09,4.06-.75l-.08-.52Z"/>
  <polygon class="cls-2" points="343.97 67.69 343.97 67.69 343.96 67.7 343.97 67.69"/>
  <path class="cls-2" d="M346.32,69.17c.62-.5.38-1.56-.26-2-.67-.46-1.24-.04-2.1.52l.78,1.43c.18.32,1.28.3,1.58.05Z"/>
  <path class="cls-2" d="M419.37,100.11c-1.09.08-1.59-.87-2.64.62-.64.9-1.44,1.1-2.47,1.42-2.95.91-2.7-.89-4.05-.09-.29.17-.04,1.74-.41,1.38-.08-.08-.47-.49-.57-.5l-1.86-.24c-.22-.03-.86.16-1.09.18-.23.02-.29-.43-.5-1.06l-.77.65-.49-.92-.85.31c-.18.07-.28-.61-.18-.81.46-.92.71-2.25.74-3.5l-1.92.28c-.48-.9-.67-2.41-.15-3.5.39,1.38,1.34,2.62,2.84,2.85-.38,1.07-.49,2.19-.27,3.24l1.62,1.12c.25.17.95.26,1.18.12,1.54-.96-.07-3.15-.29-3.66l-.98-2.24,1.15-2.03c.07-.12-.58-.21-.7-.23-1.55-2.13-1.48-1.54-3.91-1.59,2.44-2.76,2.31-6.76,5.64-8.22,2.48-1.09,5.32-1.11,7.99-.83,1.21.13,2.26.58,3.29,1.18l.03-.55.24-1.24c-2.6-1.34-5.63-1.47-9.36-1-2.9.37-5.21,1.94-6.51,4.61-.51,1.05-.93,2.5-1.59,3.4-2.13,2.05-.84,2.98-1.68,3.86-.94.99-6.4-3.94-7.41-4.94-1.28-1.27-2.96-1.44-4.67-1.58-1.09-.8-1.38-2.46-1.74-3.76-1.41-5.11-2.43-10.08-2.87-15.36-.5-6.05,1.95-4.36-1.37-8.76-1.14-1.51-.51-3.89-1.13-5.71-.45-1.31-1.52-2.43-2.12-3.68-.58-1.23-1.3-2.49-2.71-2.74.05,1.82-.19,3.23-1.25,4.54l-2.49-1.26c-.28-.98-.23-2.48-1.12-3.14-7.08-5.23-8.81-4.08-16.65-2.52-3.79.76.22,6.37-5.45,7.07l-2.74-3.77c-1.26-1.73-1.57-3.71-2.46-5.95-.43.72-.34,1.69-.57,2.44-.94,2.71-2.74,8.06-5.26,9.51l-.46,1.53c-3.3,1.23-5.45,3.67-6.61,6.9-.86,2.42-2.47,4.42-3.79,6.62-.59.99,0,2.27.33,3.25l.2.58c.05.15-.37.35-.56.42l-4.02-4.78c-1.55-1.85-2.84-3.83-2.58-6.33,2.54-.26,4.94-.52,7.43-.65.74-.04,1.83.53,2.47-.03,1.34-1.18,1.94-3.58.25-4.91-1.22-.96-1.98-.1-3.16.27-1.96.61-4.38.76-6.59.96-.6-1.42-1.74-2.33-3.12-2.85-.72-2.36-.54-4.87-.68-7.36l-.73-2.65-1.52-9.44c-.22-1.37.37-2.31,1.06-3.41.61-.98-.33-2.29-1.18-2.97l.05-2.13c-.32-1.68-3.5-5.39-4.93-4.28-1.47,1.14-2.11,2.77-2.69,4.38-.5,1.37.41,2.18,1.15,3.11-1.58,4.35,1.03,2.69,1.53,5.98l1.18,7.72.29,4.67,1.05,4.67c.07.29.06.84.06,1.07,0-.15-3.99,1.39-4.79,1.63-2.08.62-1.38,2.23-2.47,3.73-1.17.54-2.71.41-4,.16-1.57-.3-2.54,1.3-2.52,2.73.01,1.02.51,1.84,1.35,2.37,1.27.79,2.29-.73,3.42-.67.72.04-.31,1.84,1.37,2.4,1.07.36,1.79.96,2.65,1.71,2.6,2.29,4.61-.01,5.01.79l1.31,2.65c-.86.45-3.31,3.54-2.41,3.5,1.53-.06,1.66-1.27,4.3-.93.91,3.27-1.88,4.68.08,7.63.73,1.1.18,2.39.35,3.51.15.98.97,1.83.65,3.02-.49,1.78.18,3.55.95,5.15,1.33,2.77-1.29,2.98-.17,4.04,2.25,2.15-.85,2.95.95,6.67.8,1.66.52,3.12-.03,4.74,2.64,2.94-.27,2.94,1.99,7.58.62,1.27.86,2.39-.02,3.64l.93,1.71c-.75,2.14-.39,4.33.7,6.33,1.46,2.68-1.06,3.18.42,4.94.69.82.5,1.7.24,2.7-.79,3.09,2.49,5.49,1.31,7.97-1.13,2.4,1.58,1.41.43,4.66-1.43,4.05,2.91,5.49.93,10.19,2.9,3-1.66,3.92,1.9,9.53.62.98.81,2.11.17,3.1-1.34,2.07,1.78,2.08.55,4.84-.79,1.78-.21,3.55.72,5.19,2.03,3.57-.89,3.7.81,5.33,1.54,1.48-1.58,3.4.63,6.87.83,1.31.24,2.62.3,4.01.04,1.01.91,2.23.24,3.28-.26.41-.02,1.42.2,1.8,2.01,3.49,1.9,4.24,3.68,7.39l-.88,6.35c-.15,1.09.11,2.04.7,2.88h2.15c1.99-.58,4.05-1.1,6.05-1.9,2.23-.89,3.48-2.84,5.17-4.34,1.02-.91,2.2-1.34,2.79-2.77,1.29-3.13,3.75-5.08,3.42-9.96-.07-1.1-.33-2.13-.33-3.26.03-4.39.02-8.69,1.35-12.87.78-2.45,1.67-4.79,1.49-7.39-.21-3-.27-5.88-.07-8.93l-1.1-1.37c.62-.67,1.83-1.55,1.93-2.34.56-4.6,1.33-2.69,1.9-7.99-1.43-2.18-.28-6.72.32-9.25-.04,3.13-.35,5.85.16,8.86l1.63,1.38c-.87.85-1.14,1.62-1.46,2.7-2.09,7.12-2.91,14.22-2.48,21.66.24,4.11.52,7.96.43,12.09-.06,2.35-3.39,7.17-.31,9.09,2.27,1.42,5.16,2.36,6.72,4.77.78,1.22,1.35,2.41,2.76,3.16,3.35,1.76,7.16,2.63,10.94,2.34,4.69-.35-.76-9.7-1.17-9.96-4.14-2.56-5.9-2.93-8.84-7.17.31-6.54,1.35-12.83,3.61-19.04,2.09-5.75,3.27-11.57,3.02-17.67-.04-.94-.99-1.64-1.68-2.17.68-.6,1.85-1.28,1.87-1.96l.12-4.39c.03-1.11.2-2.55.5-3.57,1.46-4.98,2.87-9.77,3.64-14.89,2.11-.3,7.98-1.31,7.38-4.15l-1.38-6.48c-.46-2.17,2.51-2.87,1.26-5.11l-1.46-2.63c-1.11-1.99,1.75-2.19.42-4.39l-1.72-2.85c-.03-.42-.08-1.44-.07-1.87-.42-1.82-3.55-5.52-2.66-6.41,5.04-.05,3.35,1.37,6.35,1.72,3.69.42,7.1,1.4,10.55,2.78.8.32,1.68.49,2.62.7.52,1.18,1.43,3.04,2.96,3.3l4.67.79c2.22.38,2.58.66,4.21-1.81,2.1.28,4.66.38,6.34-1.07l.05-1.62.1-2.64ZM329.16,58.5c.11-.6.91-1.42,1.38-.83.52.65.2,1.79-.49,1.87-.54.07-.97-.64-.9-1.05ZM390.96,88.63c.29.06.92.47.99.6-3.52,1.48-3.94,1.82-4.36,5.66-.72-.27-1.54-.92-1.98-1.79.79-.99,4.65-4.6,5.35-4.47ZM380.76,91.7c-.3-.11-.64-.72-.7-1.05,2.54-1,4.63-2.1,6.78-3.69,1.36,1.03-5.51,4.95-6.08,4.74ZM345.52,94.26c-1.43,4.22-2.54,2.76-1.09,5.5.46.86-.6,2.27-.82,3.9-.05.38.95.91,1.02,1.29.12,2.07-1.13,4.06-2.05,5.99-.15.44.71,1.24,1.08,1.67-.09.98-.65,2.51-1.14,3.3-.92,1.48-.08,1.98.53,3.14.82,1.55-.27,3.74-.6,5.4-.39,2,1.54,1.45,1.27,2.88-.47,2.57-1.27,4.71-2.4,7.03-.81,1.66,1.51,1.1,1.45,2.66-.22,6.81,1.07,10.38.57,15.41l-.74,7.33c-.09.9-.42,1.85.15,2.62l2.08,2.8c-.89,1.08-1.47,2.07-1.76,3.35l-1.23,5.36c-1.64,7.13,3.08,17.94,2.71,23.42l-.22,3.24-6.18,4.4.68-4.76-.75-2.32c.05-.54.46-1.66.24-2.07-.54-.82-1.01-1.79-.79-2.85.98-4.78-1.68-5-.79-6.69,1.25-2.38-.93-2.24-.4-4.94.44-2.23.17-4.26-1-6.17-1.33-2.18,1.48-2.94-.04-4.44-2.35-2.33,1.36-4.7-1.84-9.63-.51-.79-.37-1.92.17-2.62.94-1.22-1.56-1.52-.88-4.56.49-2.18.32-4.37-.97-6.2-1.55-2.21.85-1.96-.71-4.68-.96-1.67,1.31-4.73-1.33-8.82-.84-1.3,1.23-2.05.13-3.33-2.03-2.35,1.39-4.22-1.62-9.42l.41-2.38c-2.15-2.03-.2-4.81-1.43-7.22-.76-1.5-.31-2.68-.43-4.2-.09-1.11-1.14-2.18-.77-3.56,1-3.71-1.66-4.71-.11-7.79l-1.02-1.48.32-3.39c1.83.68,3.24,1.21,4.94,1.42,2.97.36,2.64-3.43,3.41-5.06,1.41-.98,1.92-1.99,2.5-3.6.31-.85,5.13-3.85,6.33-4.33l1.96,2.31c1.06,1.25,1.38,3.23,1.74,4.84l.88,3.95-1.82,1.54.38,1.74ZM354.67,120.75l.45,1.3.78-1.37.39,1.77.6-1.15.61,1.74.36-2.64.35,2.78.72.59c.25.2.1,1.44-.19,1.56-.56.22-1.76.71-2.34.73-3.19.09-6,.08-9.17,0-1.02-.02-2.28-.66-2.97-1.35l1-4.85v2.88c.5-.82.76-1.66.95-2.49l.46,1.11.65-1.35.69,1.17.59-.64c.11-.12.53.21.71.28,1.02-.46,5.41-.11,4.84.39l.53-.47ZM356.79,142.63l-.33-2.99c-.11-1.04.57-2.59,1.08-3.51l-.64,3.41c-.21,1.11.71,2.12-.12,3.09ZM357.35,143.99l-.07,1.93c-.05,1.42.59,2.78.35,4.47l-.57-2.78c-.25-1.25-.25-2.5.29-3.61ZM345.3,128.49l.3,1.91c.44-1.04.53-1.91.72-3.27l.47.91.64-1.06c.68.52,1.03.21,1.7.14,1.43-.15,3-.13,4.44.02.24.03.77.35,1.04.2l.75,1.69.39-1.89c.59,4.13,1.96,3.6,1.85,7.24-3.92,1.04-10.47.73-14.23-.04l1.94-5.86ZM354.41,144.25c-1.12-6.23-.76-1.83.33-7.93.5.8.25,1.71-.09,2.51-1.12,2.63.25,2.87-.24,5.42ZM354.92,145.85l.19,1.9c.12.93.18,1.7.11,2.7l-.62-2.32c-.2-.75-.05-1.6.32-2.28ZM355.2,141.99c-.13-1.11-.19-2.11.28-3.14.49,1.95.55,3.63-.02,5.41l-.26-2.27ZM352.22,146.74l1.09-4.07c.23,1.38.12,2.9-1.09,4.07ZM350.6,144.54c-.16-3.51-1.33-2.9-.26-5.28l.41-2.68c.48,1.23-.08,2.24-.24,3.39.85,1.52.82,3.13.09,4.57ZM349.13,139.74l-.52-2.11c-.05-.22.05-.7.12-.87.1-.23.98.07,1.01.34.06.66-.18,1.97-.61,2.64ZM349.33,144.58c-.25-2.13-1.35-2.68-.61-4.09l.72,1.96c.23.63.13,1.56-.1,2.14ZM347.04,137.76c-.1-.25.21-.83.55-1.1.26,1.17.39,1.94.38,3.34l-.92-2.24ZM347.06,145.7c-.53-.89-.88-1.87-.87-3.05.72.81,1.12,1.59.87,3.05ZM345.74,151.38c-1.72-3.87,1-3.62-.94-7.95-.04-.82.51-2.3.33-3.12l-.7-3.23c-.02-.1,0-.54.08-.56l.43-.12c.13-.04.16.47.14.62-.38,2.98,1.08,2.27.44,4.97-.72,3.03,1.24,2.85.27,5.51-.46,1.28.31,2.48-.04,3.88ZM330.65,87.28c-.58.9-1.28,1.32-2.5,1.37-1.55.06-2.57-.49-2.79-1.71,2.51-.32,3.67-.36,4.81-2.94,1.1.82,1.2,2.18.48,3.29ZM331.74,87.52l-.81,3.45c-1.49.18-2.81.16-3.82-1.37l2.57-.23c.8-.07,1.27-1.09,2.05-1.85ZM331.96,79.52l1.28-2.91c.04-.08.72-.03.65.04-1.21,1.21-.59,2.42-1.93,2.88ZM348.33,92.93c.12-.06.47-.24.55-.32l.45-.39c.09-.08.47,0,.47.13l.02,1.08,1.12-.91.57,1.33.57-.61c.11-.11.6-.23.64-.07l.26,1.07,1.17-.69c.31-.18.95.56,1.13.87l.98-.48c.25-.12.68.72.84.75l1.02-.53c.26-.14.69.76.91.91l.78-.84c.16-.17.72.48.94.39.16-.07.52-.25.68-.33.16-.08.65.29.88.35.26.07.68-.55.94-.63.26-.08.86.57,1.07.4l.82-.69c.18-.15.61.46.75.65l.28.36c.06.08.38-.03.36-.13l-.09-.57c-.03-.18.06-.55.14-.7.43-.84,1.05,1.53,1.72,1.55l-.29-2.37c.95.61,1.21,1,1.77,1.91-6.37,3.66-13.49,4.23-20.21.77-.89-.46-1.65-1.26-2.23-2.11l1.02-.96-.06.52c0,.08-.03.34.04.31ZM370.79,90.95c.95.41,1.36.87,1.89,1.55l-2.09,1.4c-.77-.1-1.58-1.35-.94-2.04l1.92,1.23-.79-2.15ZM345.73,76.5c.33-.2.88-.05,1.33.15.49.22.59,1.15.21,1.45-.72-.11-1.41-.78-1.55-1.6ZM347.02,80.3c-.11.25-2.83-1.18-1.73-2.33.55.05,1.64.69,1.88,1.4.06.17-.09.78-.15.93ZM346.46,74.07c.59-.16,2.17,1.09,1.31,1.96-.53.53-2.1-1.24-1.31-1.96ZM346.52,72.65c.3-.32,1.13-.34,1.44-.1.43.33.51,1.26.09,1.64-.69-.63-1.04-.97-1.54-1.54ZM345.7,71.21l-3.27-.85,1.5-2.74.03.06c.57-1.1,1.2-1.85,2.21-2.76l1.83,2.41c-.28,1.47-1.19,3.03-2.31,3.87ZM344.38,73.68c-.32.65-.74.84-1.36,1.09-1.52.61-.7,2.04-2.21,2.23,1.43-2.66,1.14-2.2,3.57-3.32ZM344.65,75.16l-1.43,1.2c-.63.53-1.1,1.01-1.72,1.28,1.09-.99,1.13-3.15,3.16-2.48ZM339.49,73.87c-.42,1.04-.53,1.69-1.39,2.16l.87-1.93c.41-.92,1.3-1.75,2.34-1.71l-1.82,1.48ZM346.76,97.15l1.41-1.89c.05.97-.21,1.34-.51,2.37.25.02.74-.45,1.01-.88l.37-.6c.1-.17.78.03.76.22l-.06.86-.03.49c0,.08.15.12.2.06l.33-.39c.17-.2.62-.52.87-.53.25-.01.34.69.28.94l-.14.55c-.03.1.33.24.38.15l.27-.5c.13-.24.62-.62.87-.62s.48.51.59.88l.3.51c.33-.38.75-.96.94-.82l.8.62.86-.26c.2-.06.49.35.8.62l.98-.44c2.77.33,2.12-.8,4.26.17.09-.07.56-.8.84-.77.33.04.8.47,1.2.79l.45-1.35,1.2.86c.1-.64.12-1.02.33-1.23.25-.25,1.09.13,1.28.41l.27.41c.05.07.28.02.27-.06l-.06-.47-.06-.5c-.02-.14.13-.52.23-.43.11.1.38.35.47.46l.34.43c.07.08.39-.05.36-.15l-.17-.58c-.08-.27.19-.9.45-1.05.25-.15.68.3.93.58l.32.36c.06.07.26-.09.24-.18l-.11-.53c-.05-.27.04-.88.15-1.28l1.4,1.32-.17-2.18,1.51,1.35-.34-2.24,1.88,1.88-.35-1.58c.33.44.72.83,1.42,1.14l-.9-2.13c1.12.1,1.62,1.17,1.23,2.32-.27.82-1.07,1.72-1.92,2.26-7.76,4.91-17.06,6.29-25.97,4.03-1.34-.34-2.69-1.15-3.41-2.28.05-.41.78-.93,1.14-1.12ZM374.45,86.21c.22-.99.41-1.72.74-2.81.5,1.22.63,2.25.45,3.9-.39.57-1.32-.52-1.19-1.1ZM346.3,101.21v2s1.03-2.05,1.03-2.05l.04,1.88,1.34-1.95.24,2.29,1.25-1.84.8,1.26c.37-.26.93-.64,1.23-.72.35-.09.82.67,1.08.98.24-.24.56-.77.78-.73.27.05.79.38,1.19.6.22.12.75-.49.99-.41l.99.32c2.34-.69.12.08,3.01-.41l6.15-1.04c.2-.03.68.29.78.18l.57-.61c.12-.13.66.12.84.12.23,0,.52-.5.72-.66l.97.47c.14-.45.26-.83.35-1.08.08-.22.67.24.83.44l.27.34c.06.07.36,0,.35-.1l-.07-.52-.1-.72c-.02-.13.44-.17.52-.06l.38.5.29.38c.06.08.43.04.41-.06l-.14-.57-.13-.51c-.04-.15.24-.52.37-.42l.55.43c.11.08.39.39.4.28l.05-.52.1-1.09,1.36,1.4-.17-2.24,1.48,1.66-.34-2.44,1.91,2.98c0-.89-.08-1.25-.17-1.91l.74,1.18c.19.31-.33,1.14-.64,1.36-6.46,4.7-16.53,6.19-24.39,5.99-3.93-.1-5.49.11-8.8-2.18-.25-.49.31-1.73.6-2.17ZM378.81,89.05c.04.09-.29.07-.39.09-.48.06.84-2-.69-4.63,1.76.49.77,3.73,1.08,4.54ZM378.56,84.11c.69-3.9-2.49-4.11-1.11-8.66l.34,2.66c.88,1.83.99,3.58,1.24,5.68.11.9.91,1.77.54,2.66l-1.01-2.35ZM379.56,83.18c-.28-1.69-.18-3.37-1.14-4.92l-.16-2.43c-.52-1.03-.88-1.86-.64-3.25l1.12,2.51.18,2.98c.07,1.25.96,2.25.96,3.56,0,1.23.39,2.19.67,3.37.31,1.28.2,2.82.33,4.26-.72-.58-.77-1.48-.66-2.27.2-1.38-.45-2.57-.66-3.82ZM379.49,73.55c.46.76.03,2.14.31,3.02.39,1.23,1.09,2.12.52,3.11-2.05-3.66.1-2.95-1.79-6.68l-.14-2.31c0-.09.22-.36.29-.32,1.1.71-.61.84.81,3.18ZM380.59,72.96c.2.73.05,2.16.13,2.92.89,1.45.99,2.64.64,4.36l.69,2.9c-.43-.56-1.25-2.01-1.02-2.74.51-1.63-.28-2.61-.55-3.99-.28-1.45-.09-2.92-.88-4.37-.24-.44-.11-1.66.11-2.24l.87,3.16ZM380.67,69.28l.9,1.88c.25.52.09,1.67-.13,2.18-.59-1.41-1.07-2.61-.77-4.06ZM381.87,80.04c2.1,1.01.27,3.48,2.26,6,.42.53.37,1.64-.14,1.86-2.3-5.28-.15-2.38-2.12-7.86ZM382.87,88.64l-.96-2.85c1.15.3,1.71,1.63.96,2.85ZM381.43,85.43c-.45-1.05-.8-2.05-.99-3.46.93.81,1.27,2.1.99,3.46ZM383.75,77.07l1.18,3.65c.18.56.09,1.8.11,2.56.31.65.3.9-.2.46.23-3.72-1.92-4.9-1.08-6.68ZM383.95,82.19c0,2.71,1.34,1.87,1.32,4.48-1.33-1.6-1.85-3.1-1.61-4.95-.29-.81-.62-1.66-.85-2.66,1.04.7,1.14,1.91,1.14,3.13ZM382.82,75.58c-.76-.48-.77-1.6-.61-2.63.47-2.96-1.34-2.58-.55-4.78l1.11,2.51c-.19,1.63-.08,2.82.04,4.9ZM381.74,60.4l-.44,2.47c.54-.46.81-.87,1.25-1.53l-.5,1.63c-.04.13.34.38.6.56-.74,1.84-2.06,3.82-3.96,4.79.58-1.04,1.05-1.8.97-2.97l-1.58,1.24,3.65-6.18ZM379.08,51.67c.8,1.77-.27,3.1-.08,4.89l.93-1.43-.27,2.4.59-.34c.09-.05.15-.08.17,0,.3,1.98-2.06,5.85-3.16,7.21-.15.19-.99.27-1.15.3.57-1.36,1.45-2.29,1.55-3.8l-1.43,1.69c.06-.49.24-1.02.54-1.61.28-.54.28-1.51.45-2.02.82-2.42,1.47-4.56,1.85-7.3ZM367.05,58.28c-.35-.58-.39-1.83.11-2.21,1.62-1.22,2.87-2.34,4.38-3.78.28,2.27-2.53,4.79-4.49,5.98ZM366.46,52.47l4.77-3.06-.69,1.41c-.04.09-.33.38-.24.4l.73.14c-1.28,1.51-2.66,2.84-4.58,4.17-.21-1.1-.2-2.21,0-3.06ZM355.27,47.77l-.16-.52c-.03-.09,0-.37.09-.34.12.05.44.17.61.3,2.79,2.07,5.91,4.19,9.44,5.43.2.93.23,1.89.05,2.96-3.99-1.38-7.63-3.47-10.65-6.69,1.37-.62,1.54,1.3,2.97.98l-2.34-2.12ZM356.64,52.84c.11-.23.16-.31.13-.38l-.29-.57c2.61,1.77,5.13,3.3,8.2,4.4,1.01.36,1.67,1.16,1.11,2.24-2.86-.5-9.87-4.16-11.37-6.88l2.22,1.19ZM353.54,54.59l1.07-.09c2.43,2.11,8.96,5.96,12.15,5.79,2.34-.49,7.21-5.79,6.94-8-.04-.36,1.34.44,1.31.62-.04.21-.13.43-.37,1.16l1.35-.45-1.59,2.37,2.49-1.61-2.97,3.84,2.17-1.15-3.26,3.81,1.24-.2-1.75,2.77.82.09c.17.02-.02.68-.07.84l-.37,1.22.83-.61c.12-.09.51.05.72.2l-1.38,3.39c.97-.52,1.35-1.37,2.01-2.34,1.91.96-2.02,4.62-2.52,5.76,1.77-.83,2.62-2.44,3.91-3.93.09,2.53-1.76,4.05-3.18,6.25,1.13-.09,1.61-1.37,2.7-1.96-.38,1.94-1.95,3.24-3.08,4.92,1.34-.2,1.67-1.4,2.81-1.93-.41,2.12-2.39,2.98-3.69,4.65l3.41-1.74c-1.08,1.72-2.43,2.65-3.38,4.46l2.34-1.64c-.55,1.95-2.05,2.77-2.52,4.54l1.23-.83c-.75,1.32-1.4,2.02-1.91,3.62l1.54-1.42c.07.35.07,1.4-.25,1.75-5.05,5.54-13.82,5.23-20.35,3.24-.29-.09-.73-.74-.68-.83l3.86.85c-.78-1.21-2.03-.76-2.93-1.45-.92-.7-1.78-1.51-2.62-2.35,1.54.41,2.64.73,4.21.97-.57-1.3-4.68-.9-5.35-4.07,2.16.75,3.98,2.18,6.46,1.62-1.56-.57-6.63-1.89-6.69-3.87,1.97.92,3.48,2.57,5.87,2.35-1.4-.87-6.28-2.72-6.04-4.87,2.22,1.57,4.35,3.23,7.05,3.34-1.56-.89-7.07-3.34-6.65-4.93,2.2,1.03,3.85,2.62,6.31,2.5l-4.64-2.47c-.93-.5-1.68-1.55-1.37-2.56,2.1,1.38,4.06,2.74,6.61,2.7-1.36-.82-7.06-2.69-6.17-4.71,1.82.73,3.03,2.32,5.15,2.17-.74-.77-5.97-2.65-4.75-4.44,1.09.7,1.82,1.43,3.1,1.62l-2.6-2.61c-.11-.12-.08-.8-.07-.97.07-.87,1.89,1.4,2.67.87-.92-1.26-2.27-1.35-2.24-2.93l1.75.83c0-.41-.25-.82-.67-1.06-.45-.26-.84-1.63-.38-1.54l1.42.29-1.24-1.78,2.52-1.37c1.13-.61,1.37-1.9.91-3.1l.89-.49-1.44-1.56,2.13.43-2.98-2.28,2.4.84c-1.54-1.6-3.08-2.19-4.37-3.87l2.15,1.32ZM342.5,52.6l1.27.83-.86-2.25,1.66,1.16-.99-2.54,2.12,1.83c-.55-1.43-1.15-2.16-1.34-3.18l2.26,3.16c.33-1.58-1.23-1.85-1.1-3.44l5.46,7.52c1.06,1.46,1.79,3.05,2.14,4.79l-1.68-2.97c-.22,1.85,1.32,3.04.79,4.89-1.1-1.64-.9-3.55-2.52-4.62l1.58,4.72-.43.32c-.1.07-.27-.27-.35-.48l-1.21-3.39c-.03-.08-.36-.35-.43-.39-.96-.51,1.4,3.76.7,4.52-1.15-1.3-.69-2.89-2.06-3.9l.87,4.06-1.2-2.22-.22,1.65c-1.04-2.93-3.3-5.21-4.63-8.31.16-.48.23-1.04.21-1.76ZM329.73,68.9c.23-.48,1.1-.99,1.55-1.26.11-.06,0-.64.12-.63l.84.05c-.82-1.07-.31-1.51.14-2.44l2.1-4.35c1.18-2.44,3.99-3.68,6.56-4.4l3.24,5.18c.56.89.94,1.78,1.08,2.93l-2.38-2.37c.21,1.55,1.31,2.18,2.03,3.4-1.56.39-1.69-1.19-3.05-1.78.03,1.13,1.38,1.84,1.83,2.99.48,1.22-1.96-1.65-2.09-1.26l1.4,2.48-1.52-.44.99,1.65-1.37.25.39.7c.09.16-.5.27-.71.18l-.69-.31c-.1-.04-.35.16-.3.25l.35.64-1.25-.06.03.74c0,.18-.67.21-.85.2l-.82-.03c-.18,0-.1.37-.13.85l-1.35-.05v.6c0,.35-1.07-.13-1.1.1-.02.14-.07.6-.06.51l-1.69.23c-1.67.23-4.16-2.75-3.3-4.56ZM330.2,81.71c-.46-.66-.87-1.5-1.18-2.58.98.37,1.61,1.19,1.18,2.58ZM328.62,80.6l1.27,1.82c-.38.95-.79,1.87-1.45,2.63-.78.88-2.61,1.29-3.59.48-.47-.39-.78-1.63-.96-2.29,2.14-.26,3.79-.87,4.73-2.64ZM327.91,78.07l-.16-1.44c.69.37.96,1.25.64,1.94-1.28,2.76-1.2,3.35-5.17,3.96.08-.71.24-1.5.45-1.96,3.65-1.17,2.64-2.67,4.24-2.51ZM326.32,77.59c-.56,1.01-1.73,1.77-2.76,2.12-.53-.98-.12-1.86.57-2.45l1.7-1.45c.71.25.85,1.12.49,1.78ZM324.57,73.37l.98.09c.19.02-.02-.7-.12-1.12.65.55.74,1.75.03,2.5l-2.41,2.52-1.3-1.3c2.27-1.7,1.55-2.81,2.83-2.68ZM323.37,72.82c-.45,1.06-.82,1.61-1.66,1.82-.49.13-.69-1.06-.41-1.59l2.07-.23ZM320.96,59.18l5.62-.68c.29-.04.62.05.76.15.17.12-.26.75-.52.78l-5.59.6c-.14.01-.66-.2-.77-.23-.15-.04.31-.6.5-.62ZM320.88,67.9c-.14.43-.29.74-.56,1.07-.44-2.3-.77-4.17-.99-6.56.69,1.94.95,3.41,1.56,5.49ZM318.8,56.58l.67.32c.2.1.21.8.17.96l-1.58,2.39c-.18-2.31,1.57-2.18.74-3.67ZM309.99,28.17c-.94-1.04.69-3.34,1.36-4.47,2.17,1.02,3.19,4.44,2.38,4.04-.1-.05-.42-.49-.49-.39l-.54.66c-.41.5-.8-1.34-1.02-.84l-.4.91-.77-1.32-.51,1.42ZM310.67,31.01c.12-.72.67-1.71,1.38-1.91.88-.25,1.78.09,2.36.75l.6.67-4.33.49ZM311.73,31.92l.67.56c.11.09.33-.38.45-.58l1.14.86c-.36.2-1.25.44-1.79.39-.33-.03-.62-1.12-.47-1.22ZM313.2,40.73l-1.02-6.52c.25-.31,1.31-.33,1.7-.06l.99,6.21,1.05,6.57-2,.41c-.18-2.33-.38-4.34-.73-6.6ZM313.31,55.48c.19.08.44,1.26.17,1.48-.75.62-2.58.93-3.84.13l3.67-1.61ZM311.57,58.67l-.06,2.31-.08,2.19c-.17.25-1.72-.29-1.65-.79l.7-3.29c.03-.16.25-.5.33-.6.12-.14.76,0,.76.19ZM307.63,61.81l1.34-3.33c.05-.13.55-.37.6-.26.05.12.2.55.17.68l-1.17,4.53c-.73-.17-1.2-.98-.94-1.62ZM308.47,64.67c-.1-.27.78-.72,1.03-.63l1.7,2.97c-1.23.82-2.54-1.83-2.73-2.34ZM311.96,66.45c-.35-.45-.85-1.43-1.15-2.05l1.19-.16c.28-.04.57.6.68.95l.34,1.06c.08.25-.9.4-1.07.19ZM312.57,62.34c-.11-.17-.32-.55-.31-.79l.16-2.45c.05-.7.63-1.39,1.46-1.18l-.47,4.12c-.02.16-.76.42-.84.29ZM313.98,66.02c-.98-1.3-.77-3.25-.27-2.83.58.48,1.45,1.91.27,2.83ZM316.05,62.02c-.79-.3-.99-1.37-.67-2.34l.29-.88c.06-.18.75-.06.73.05l-.35,3.18ZM315.57,57.79l-1.06-7.57c.15-.15.54-.36.52-.58l-.11-1.24.31.67c.07.16.33.08.94-.01l.85,8.37c-.4.19-1.17.35-1.46.35ZM333.23,201.41c-.55-1.11,1.96-.9-.16-4.4l.47-2.28c-.95-2.13-2.47-3.86-1.18-5.9l.65.4c.55-1.61-.15-2.93-1.27-4.03.22-.96,1.34-2.4.61-3.26-1.31-1.54-3.06-3.78-1.73-5.92l.87.07c.21-1.51-.76-2.85-1.54-4.03.64-1.43,1.5-3.06.66-4.66l-.45.36c-.09.07-2.92-3.19-1.12-6.49l.85.12c-.28-1.4-.79-2.55-1.67-3.71.96-1.7,1.33-3.73.01-5.51l-.09,1.52c-4.04-7.58,2.11-3.72-1.44-9.33.39-1.64.94-3.19.11-4.62l-.35.39c-.24.27-1.88-3.98-1.14-4.17l.67-.17c.21-1.34-.28-2.84-1.17-3.95.3-.96.67-2.23.79-3.36-1.76-1.41-2.47-3.57-1.83-5.84l.28.36c1.53,1.99-.42-3.03-.42-3.05l.43-3.31-.9-.16-1.06-2.77c-.81-2.12,1.9-.92-.43-5.52l.61-2.82c-.88-.49-1.01-.87-1.3-1.72-.51-1.48-.9-2.89.51-4.05l-.97-2.79c-.23-.65.8-1.94.39-2.7-4.43-8.33.85-4.23-1.82-9.3l.57-2.8c-.13-.02-.35.13-.81.44-.43-.83-1.19-2.33-1.26-3.41.7-1.94,1.47-4.04.4-5.94-.47-.82-.43-1.11-.44-2.16-.03-2.81-.59-5.53-.97-8.44.06-.17.96.33,1.01.68l1.08,6.9c.11.68.67,1.34,1.09,1.73-.65,2.46-.02,4.55,1.59,6.61.4.5.48,2.01.2,2.59-1.31,2.77,1.42,2.33.04,5.27-.28.6.18,1.05.54,1.48,1.71,2.09,1.36,5.95.89,5.98l-.62.04c.27,2.46,1.57,1.97.84,4.22-.78,2.4,3.01,2.41.36,7.66l1.3,2.62c.02.45-1.29,4.53.55,3.66,1.81,4.34-1.13,4.22.1,6.12l1.04,1.6c-.26,1.23-.38,2.33-.35,3.49l1.09.25c.38,1,1.11,4.59-.53,5.02-.1.74.25,1.86.79,2.61,1.17,1.65-.96,2.29.1,4.77l.55-.51c.6-.55,1.56,4.19.94,5.26-1.79.26.29,3.35.41,3.99-.15.98-.93,2.36-.64,3.25l.63-.38s2.78,3.46,1.41,6.51l-.64.27c-.4,1.49,1.12,2.75,1.2,3.98.07,1.27-1.4,2.68-.13,4.03l.49-.46c1.41,2.14,1.72,4.65.46,6.75-.69,1.15,1.11,2.18,1.08,3.12-.08,1.08-.99,2.48-.74,3.53l.61.08c.15.02.37.33.46.52,1.17,2.39,1.63,3.79.4,5.92-.74,1.28.9,2.27.92,3.39.01.91-1.56,4.01.57,4.19,1.55,3.95-1.92,4.44.25,6.44,1.8,1.65-1.44,2.77,1.23,4.46l-1.19,6.67-2.69-5.39ZM336.13,217.3c.29-3.4.75-6.33,1.57-9.43,1.77-.23,3.38-.09,4.89.34-.05.39-.13,1.09.05,1.19l1.65.97-.33-1.33,2.19,1.41c-1.46,2.13-3.31,3.66-5.58,4.74l-4.44,2.11ZM341.8,215.74l2.53-1.8c1.06-.76,1.52-2.22,2.87-2.77-1.04,2.02-2.81,3.77-5.4,4.57ZM346.57,209.5l-4.14-2.32-3.33-.68c3.12-1.31,6.87-.6,9.12,1.95.12.57-1.14,1.33-1.64,1.05ZM349.46,207.15l-.89.31c-1.8-1.81-4.38-2.69-7.01-2.58,1.24-.91,3.13-1.34,4.52-.66.24.12,4.87,2.42,3.38,2.93ZM350.93,205.14c-.11.36-.87.39-1.27.14l-3.29-2.06-2.33-.3c.6-.55,2.08-1.29,2.76-.92l3.71,2.04c.27.15.52.74.41,1.1ZM351.98,203.8l-3.92-2.18c-.54-.3-1.17-.52-1.86-.79-.2-.77,6.61,1.8,5.78,2.97ZM350.17,200.1l2.15-2.19-1.89.58c.08-.99.83-1.67,2.12-1.9l.28,2.53c-.76.49-1.59.81-2.66.97ZM350.54,196.5c.12-1.21,1.32-2.02,2.36-1.72-.55,1.28-1.38,1.54-2.36,1.72ZM355.07,180.21c-.03.47-.21,1.3-.5,1.63l-2.63,3.14c.95-.3,1.1-.52,1.96-1.04,0,.35-.21,1.18-.47,1.48l-2.13,2.52c.85-.24,1.22-.55,1.97-1.05.75,2.29-3.41,4.14-1.39,3.77l1.3-.54-1.67,2.56,1.32-.26c-.03,1.14-1.11,2.31-2.47,2.06l.74-1.51-.94-.5.82-1.51c-.11-.19-1.17-.07-1.4.21-.5,3.3.87,6.2-.87,9.14-.8-.45-1.68-.94-2.23-1.39-.29-.23-.22-1.42-.17-1.48l1.52.22-1.8-1.91,2.25.12-2.05-1.62c-.56-.44-.62-2.12-.64-2.78l1.65.09c-.9-1.42-1.92-.7-1.99-2.13l1.59.25c-.43-1.7-2.26-.51-1.85-2.28l1.5.2c-.21-1.48-2.34-.69-2.11-2.73l1.61.69c-.31-1.04-1-1.35-1.88-1.59-1.37-4.03-1.04-8.24-.02-12.36l1.05-4.24,3.11,3.48,2.27.66c3.78-.78,3.03-3.72,5.02-3.22l-.64.93c-.15.21.15.71.37,1.09l-1.94,2.35,2.01-.77-2.42,2.71,2.5-1.1c-.21,1.36-2.16,1.87-2.15,2.94l2.18-1.25c.15.43-.02,1.14-.31,1.46l-1.46,1.64,1.84-.76c.43,1.53-2.34,2.49-2.68,3.97l2.24-1.32ZM356.27,163.93c-1.09.69-2.07,1.2-3.18,1.74l.11-1.14c.02-.24.59-.23.92-.28.67-.91,1.1-2.38.46-3.4-.35.91-.66,1.83-1.33,2.19l-3.92,2.1c-1.49-1.47-3.57-3.44-2.61-5.68-1.43.62-1.1,1.99-1.05,3.52-.56-.26-1.46-1.08-1.53-1.86-.17-1.96,3.87-4.52,5.55-5.53,2.49,1.39,4.64,2.67,6.82,4.47.3,1.06.19,2.87-.23,3.87ZM357.5,159.46l-7.24-4.62.75-2.43c2.39,1.35,4.22,2.76,5.97,4.64.41.76.98,1.39.53,2.41ZM357.99,156.82c-1.98-2.25-4.24-3.96-6.96-5.42-.29-.41-.14-1.31.27-1.91,1.29.8,7.98,5.34,6.69,7.33ZM357.78,143.53c.16-1.79.15-3.22.02-4.94,1.12,1.59.78,3.46-.02,4.94ZM358.86,129.77c-.27-.85-.32-1.93.03-2.97.99.9.62,1.79-.03,2.97ZM360.43,133.06c-.04.89-.07,1.72-.35,2.73l-.57-3.49c-.19-1.17-.03-2.19.44-3.21.6-1.31-.63-2.47.67-2.9.62,2.68-1.6,3.53-.18,6.87ZM360.72,117.63c-.14.54-1.28,1.15-1.84,1.33-4.36,1.43-11.25,1.33-14.99-1.65l1.37-3.58.25,1.46.89-1.71.18,1.59,1.06-1.78.6,1.2.64-.65,1.69-.03c1.23-.02,3.34.05,4.44.11.13,0,.43.68.54.61l.74-.49.59,1.06.62-1.22.54,1.46.69-1.54.38,3.03.56-1.95.38,2.54c.63-.75.6-1.35.52-1.99.14.66.31,1.62.15,2.21ZM361.35,123.26c1.03-3.17-.63-3,.62-4.2.7,1.79-.16,3.4-.42,5.24l.12,2.59c-.56-1.06-.7-2.46-.32-3.63ZM370.04,110.47c.54-.27.68-.1.25.39-1.88.91-3.71,1.62-5.64,1.19,1.83-.21,3.63-.59,5.39-1.57ZM365.24,110.6l3.52-1.22c.09-.03.45-.13.46-.05l.08.52c-1.24.65-2.71,1.47-4.06.75ZM367.08,114.1l3.55-1.11c-.75,1.2-7.64,2.95-8.06,1.11,1.61.16,3.01.27,4.5,0ZM372.66,137.59c-.8-1.6-.96-3.19-.42-4.72l.74-2.1c.43.77.29,1.48-.11,2.17-1.17,2.03.12,2.97-.21,4.65ZM371.16,135.37l.18,2.17c-2.35-7.12.31-1.46-.42-8.39,2.28,1.87-.07,2.59.23,6.22ZM371.81,122.26c-1.11,3.66.46,1.93-1.31,5.84-1.18-2.21.68-2.51.17-4.79-.25-1.1-.21-1.97.76-2.87.51.49.58,1.16.38,1.82ZM369.45,134.52c.48,1.1.88,1.73.77,3.02l-.87-2.47c-.29-.83-.73-2.13-.53-2.94l.86-3.37c1.66,3.89-.86,4.36-.24,5.77ZM367.77,135.52c-.47-.82-.93-1.98-.49-2.8,2.14-3.98-1.86-4.99.23-9.07.29,3,1.76,4.72.83,7.2-1.29,3.42,1.03,4.63.72,7.07-.44,1.08-.59,1.77-.91,3.07-1.2-1.89,1.73-1.77-.38-5.46ZM364.78,143.21c-1.81-.86,1.02-2.18-1-5.65.32-4.23-.75-2.58-.52-5.39,1.52,1.2.43,3.94,1.1,5.22,1.54,2.95.11,1.88.42,5.82ZM363.72,143.9c.06.14-.46.56-.54.44-.95-1.4.24-.57-.56-4.9-.27-1.44-.04-2.98-.03-4.54,1.25.75-.38,1.5.92,4.17.92,1.89-.96,2.11.21,4.84ZM369.88,124.34l-.78,2.51c-1.68-4.49.86-3.22.37-7.82-.05-.46.31-1.03.76-1.23.36,1.47-.58,2.64-.5,4.05l.14,2.48ZM368,122.64c-.28-1.21-.32-2.54.29-3.92.66,1.23.46,2.61-.29,3.92ZM362.73,115.72c1.36,0,2.54.17,3.69-.15l4.19-1.18c-1.44,1.54-6.27,3.11-7.89,1.34ZM364.81,124.17c-.5,3.21.6,2.2-.11,4.4-.85,2.63,1.65,2.32.38,5.56-.75-3.15-1.62-2-.82-5.45.46-1.98-.31-4.02.55-4.51ZM365.31,129.58c.72-1.45.07-2.91.32-4.21.3-1.56,1.41-2.91.62-4.69-.14-.33.23-1.18.67-1.4l.11,3.48c-3,4.61,1.7,6.55-.61,9.43l-1.12-2.62ZM365.01,135.17l1.23,2.8c.04.1.05.65.02.74-.03.08-.17.19-.21.11l-.24-.46c-.54-1.03-.99-2.02-.79-3.18ZM366.16,134.2l1.21,2.42c.32.64.29,1.62-.05,2.24-.29-2.42-1.75-2.89-1.16-4.67ZM362.81,119.1c0-.1.06-.45.15-.44s.31.02.4.03c.08.01-.17,5.81-1.3,6.21.49-2.05.91-3.72.75-5.79ZM359.47,201.11c-.51.45-1.47-2.31.03-4.13l1.77,1.56-1.45,2.2c-.06.1-.26.29-.35.37ZM367,206.2l4.28,3.61c-1.1-.02-5.42-2.01-4.28-3.61ZM377.12,205.21c.89,1.93,1.61,3.82,2.06,5.91-5.65-.37-1.69-.24-4.96-1.2-2.52-.74-4.46-2.34-6.27-4.28,2.61-1.88,7.44-4.18,9.17-.43ZM373.08,202.19c-2.19.75-3.94,1.46-5.91,2.78l-1.9-1.79c1.69-.83,6.52-3.03,7.81-.99ZM370.46,200.36c-1.96.52-3.69.94-5.3,1.96-.93.59-2.09.33-2.53-.72.92-1.23,6.84-3.47,7.83-1.24ZM361.86,201.06c-.12.11-.61.23-.76.27-.19.05-.42-.66-.28-.81.72-.73,2.05-2,2.97-2.71,1.19-.91,3.39-.76,4.34-.13,2.13,1.39-2.61.08-6.28,3.38ZM367.91,187.36l-2.27,2.3,1.85-.35c-.17.93-1.05,1.78-2.23,2.16l.51-3.29c.1-.62,1.39-1.52,2.14-.83ZM366.14,186.76c-.08-1.27.93-2.49,2.14-2.13-.51,1.34-1.2,1.76-2.14,2.13ZM366.35,191.77l.42-.24c.1-.06.44.51.34.62-.38.39-1.33,1.18-1.74,1.49-.5-1.12.26-1.48.98-1.88ZM373.32,162c.32.06.08.96-.21,1.13l-3.81,2.16c1.66.13,2.49-.73,4.04-1.2.02.1-.2.74-.37.87l-2.52,1.91c.98.1,1.59-.36,2.58-.81.16.29,0,1.25-.31,1.46l-2.58,1.8c.91-.04,1.59-.21,2.59-.41-.41,1.88-2.32,2.07-3.69,3.32,1.17.37,1.89-.7,3.05-.8-.5,1.82-2.09,2.17-3.43,3.33.66.23,1.49-.19,2.49-.52-.63,1.7-2.25,1.87-3.64,3.13,1.03.01,1.79-.4,2.9-.74-.58,1.66-1.95,1.99-3.07,3.3.82-.2,1.46-.43,2.19-.7-.14,1.7-1.43,1.93-2.65,3.19l1.96-.24c-.6,1.08-1.34,1.66-2.3,2.12.13-1.44.61-2.34.27-3.61-1.63,3.73-2.58,10.43-2.6,14.58l-2.98,1.84c-1.53-.56-1.43-2.32-1.12-3.72.3-1.35.19-2.94.28-4.27.88.55,1.49.94,2.46,1.3-.73-1.26-1.62-1.8-2.68-2.14l-.4-8.92c-.3-6.76.59-13.22,2.62-19.64.68-2.13,2.53,1.11,5.58,1.55.63.09,1.56-.26,2.33-.34l-2.44,1.3c2.09.18,3.83-.97,5.69-1.81l-3.73,2.93c1.25-.3,2.38-.88,3.48-1.36ZM372.62,155.08c.2-.7.39-1.34.35-2.07-1.46,1.23-2.4,2.58-4.36,3.14-1.59-.13-3.72-.85-4.55-2.56l-.26,2.2c-.49-.28-1.32-.73-1.61-1.2-.36-.59.08-1.86.46-2.45,1.22-1.92,5.54-6.66,7.95-4.35,1.56,1.5,5.38,5.47,2.02,7.31ZM368.9,144.33c2.33,1.1,4.7,3.03,4.89,5.46.01.16-.28-.07-.54-.29-2.74-4.5-5.79-2.08-4.35-5.16ZM369.16,143.45l-.37-.66c-.11-.19.69-.41.88-.25l2.47,2c.9.95,1.74,1.75,2.04,3.06-1.55-1.8-2.89-3.22-5.02-4.15ZM375,136.81c.05,1.2-.32,2.45-1.57,2.82.79-1.53,1.27-2.66,1.61-4.17l-.04,1.35ZM375.82,138.65c.49-2.99-1.03-4.48.81-6.7-1.25,4.2.62,3.73-.81,6.7ZM384.45,128.87c-3.16,1.43-10.39,2.47-11.98-.91l1.75-5.3c-.08,1.06-.24,1.68.07,2.52.53-1.31.8-2.39,1.07-3.61l.42,1.45.52-1.43.53.44c.13.11.28-.62.38-.93l3.61-.55.76,1.58.39-1.02.77,1.46.21-2.16.77,2.84.34-1.73,1.2,5.69c.15.69-.06,1.31-.83,1.66ZM385.46,116.88c.28.56-.67,1.74-1.32,1.92-3.87,1.05-7.34,1.98-11.27.58l.7-2.41c.29.6.38.79.38.79l.44-.75c.08-.14.3-.12.69-.2l.49-.61c.11-.14.5.41.67.56.38-.72.69-1.06,1.44-1.29l2.76-.86c.28-.09.93.23,1.16.36.17-.05.4-.22.5-.14l.67.59-.05-1.35,1.08,1.82-.05-2.35,1.71,3.36ZM384.61,110.12c-1.07,3.15-10.82,6.34-11.58,4.46-.23-.58.11-1.73.34-2.09l.27.65c.03.07.28-.22.29-.3l.25-1.81.69.9.27-1.13c.04-.18.34-.07.65-.09,1.76-2.07,4.15-1.45,4.99-2.73l1.15.8-.33-1.45c.58.84,1,1.44,1.77,2.32l-.67-2.59,1.91,3.06ZM382.58,104.97c-1.49,1.97-8.62,6.07-10.47,4.58l-2.31-1.86.71-.52c-1.68-1.02-3.55-1.42-5.23-.26-1.09.75-2.33,2.37-2.76,3.52-.08.2.3.88.18,1.03-.63.83-4.79,1.42-6.04,1.47-2.91.13-5.65,0-8.58-.27-1.21-.11-2.58-1.08-3.46-1.77l1.81-4.91.22,2.2.87-2.66.67,1.53.75-1.18.72,1.27.8-.86c.19-.2.78.57.94.73l.93-.65c.25-.18.82.68.92.9.47-.5,1.04-.71,1.79-.74l5.1-.22c4.55-.2,8.82-1.41,13.14-2.65l1.68-.48c.14-.04.67.44.71.29l.2-.85c.07-.28.68.26,1,.56.1-.01.32-.11.3-.23l-.1-.82,1.26,1.36-.43-2.24,1.66,1.7-.38-1.73c.47.67.86,1.2,1.51,1.86l-.69-2.7c1.18,1.41,1.81,2.85,2.6,4.6ZM378.83,92.23l3.43,3.78c-2.06.04-3.63-1.69-3.43-3.78ZM385.21,94.13l1.58,1.31c.74.61,1.27,1.34,1.28,2.38-1.99.02-3.26-1.8-2.86-3.69ZM389.24,91.72c.79-.96,2.31-1.39,3.54-1.74.54.41,1.2,1.02,1.68,1.5-2.22.98-3.33,2.2-2.7,5.08-.96-.15-2.01-.53-3.06-1.03-.31-1.07-.25-2.83.54-3.81ZM391.7,98.54l-2.31-.42c-.36-.06-.63-1.08-.6-1.5l2.61.9c.29.1.51,1.04.3,1.02ZM393.09,97.31c-.73-.54-1.04-2.82-.06-3.96.51-.59,1.93-1.51,3.19-.57.65.49-2.54.95-1.85,4.34-.05.33-1.03.37-1.28.19ZM395.83,98.21c-.4-.1-.65-1.01-.71-1.53-.13-1.23.32-1.98,1.25-2.67.53-.4,1.48-.44,1.75.19-.84,1.27-1.53,2.33-.85,4.24-.34-.02-.95-.11-1.44-.24ZM399.18,99.08c-1.14-.04-1.24-1.14-1.35-2.09-.07-.63.52-1.84,1.1-2.17.24-.14,1.06.05,1.19.28.49.92-.81,1.63-.93,3.98Z"/>
  <path class="cls-2" d="M412.06,95.03c-.97-.57-2.05-1.04-2.86-.54-.22.13-.69.77-.5.89l.65.45c-.42.35-.93,1.02-.78,1.43.61,1.62,3.84,4.07,5.26,2.16,1.2-1.61-.46-3.62-1.78-4.39Z"/>
  <path class="cls-2" d="M419.41,98.24l-.23.12c-.1.05-.39-.41-.49-.38l-1.08.36-.23-.64-1.55,1.17,1.91-2.31c-.75.15-1.12.39-1.71.77l1.81-2.05-1.46.39,1.52-1.79-2.38,1.1,1.8-1.8-.69-.45c.53-.18,1.05-.5,1.04-.96-1.82.14-3.63,1.91-3.6,3.84.02.82.56,4.43,1.67,4.73.29.08.8-.2,1.19-.44,1.23-.77,2.11-.4,2.47-.76v-.31s0-.6,0-.6Z"/>
  <path class="cls-2" d="M419.39,91.84s.06.05.11.08l.02-.42c-.25.07-.34.19-.13.34Z"/>
  <path class="cls-2" d="M335.28,65.89l-.98-1.93c1.34.73,1.71,1.83,2.9,1.79l-3.02-3.4-.71,1.65c.46.71.93,1.38,1.81,1.89Z"/>
  <path class="cls-2" d="M361.08,167.35c-.25,1.63,2.53,3.53,2.74,3.02l-2.16-2.68c-.1-.12-.56-.48-.58-.34Z"/>
  <path class="cls-2" d="M361.43,165.15c.99,1.15,1.63,2.27,3.18,2.79l-2.67-3.45-.51.67Z"/>
  <path class="cls-2" d="M360.91,170.37c-1.03-.37,1.5,3.22,2.65,2.93l-2.15-2.75-.5-.18Z"/>
  <path class="cls-2" d="M364.9,164.87l-2.35-2.73c-1.38.54,1.63,2.94,2.35,2.73Z"/>
  <path class="cls-2" d="M362.8,175.83l-1.76-2.22c-.12-.15-.32-.39-.38-.28-.75,1.4,2.25,3.11,2.14,2.5Z"/>
  <path class="cls-2" d="M360.39,176.09c.05,1.44,1.34,2.16,2.47,2.24-.82-1-1.55-1.67-2.47-2.24Z"/>
  <path class="cls-2" d="M362.93,160.01c-.21,1.32,1.05,2.15,1.98,2.09-.72-1.01-1.25-1.57-1.98-2.09Z"/>
  <path class="cls-2" d="M360.1,181.6c.42,1.16,1.36,1.71,2.33,1.91-.61-1.03-1.37-1.88-2.33-1.91Z"/>
  <path class="cls-2" d="M350.09,173.06c1.24.18,2.38-.58,3.38-1.52-1.14-.09-2.42.49-3.38,1.52Z"/>
  <path class="cls-2" d="M436.79,66.36l-4.09.51-3.83,1.45-3.43,2.24-2.29,2.76-1.71,3.16-.98,3.46-.45,2.29c1.89.98,3.56,2.59,5.1,5.08,1.98,3.22,1.51,9.98-1.63,12.74-.77.67-1.33,1.49-1.98,2.33-.45.57-1.51,1.27-2.11,1.84-.05.05-.11.08-.17.13l-.07,2.3v3.92s-.17,3.91-.17,3.91v3.92s-.07,3.91-.07,3.91l-.14,3.91.02,3.92-.12,3.91,3.97.91,4.08.21,4.07-.34,3.85-1.37,3.29-2.39,2.33-2.63,1.58-3.15,1.23-3.31.54-3.49.29-3.51.09-3.65.16-3.65-.02-3.65.13-3.65v-3.65s.16-3.65.16-3.65l.07-3.65-.06-3.65.23-3.64-.02-3.65v-3.65s.15-3.64.15-3.64l.17-3.66-4.09-.83-4.1-.37ZM436.69,104.06l-.08,3.72-.16,3.72-.02,3.72-.18,3.71-.19,3.71-.98,3.61-1.34,3.48-2.41,2.78-3.48,1.47-.09-3.93-.27-3.86-.09-3.87-.17-3.86-.29-3.86.02-3.87-.18-3.86-.1-3.87.09-3.87.17-3.87.02-3.87.26-3.87.14-3.87.1-3.87.62-4.02,1.38-3.82,2.6-3.08,3.55-1.96.1,3.75.19,3.71.22,3.71.09,3.71.26,3.71.05,3.71.05,3.71.12,3.71-.07,3.71.05,3.72Z"/>
  <path class="cls-2" d="M421.5,102.4c.66-.84,1.22-1.65,1.98-2.33,3.14-2.76,3.61-9.53,1.63-12.74-1.54-2.5-3.21-4.11-5.1-5.08l-.24,1.24-.03.55c.3.18.61.37.91.57.45.3.8,1.16,1.13,1.54.87.99,1.74,1.77,2.4,2.95l-2.09-.94c1.05,1.47,2.23,2.02,2.47,3.62l-1.58-1.01c.74,1.36,1.31,2.14,1.48,3.37l-1.47-.69c.61,1.21,1.04,1.83.94,3.07l-1.42-.85c.41,1.03.65,1.71.61,2.49l-1.03-.49-.04,1.12c0,.24-.8.31-.98.47-.72.62-1.26.82-1.7.86l-.1,2.64-.05,1.62c.05-.05.12-.08.17-.13.59-.57,1.66-1.26,2.11-1.84Z"/>
  <path class="cls-2" d="M419.75,98.06l-.34.18v.6s0,.31,0,.31c.05-.05.09-.12.12-.2.08-.24.19-.69.22-.89Z"/>
  <path class="cls-2" d="M422.65,92.77c-.6-1.23-2.47-1.46-3.14-1.27l-.02.42c.15.1.37.26.47.28l2.68.57Z"/>
  <polygon class="cls-2" points="476.71 66.57 472.95 66.67 469.22 66.54 465.5 66.63 461.78 66.55 458.07 66.64 454.35 66.58 450.6 66.53 450.76 70.36 450.92 74.11 451.06 77.86 451.15 81.61 451.29 85.36 451.5 89.1 451.6 92.85 451.48 96.6 451.61 100.35 451.66 104.1 451.59 107.86 451.51 111.61 451.29 115.36 451.23 119.12 451.19 122.87 450.89 126.62 450.94 130.38 450.69 134.18 455.2 134.1 459.74 134.32 459.6 130.46 459.52 126.64 459.47 122.84 459.3 119.03 459.18 115.23 459.15 111.42 458.85 107.62 458.87 103.81 458.75 100.02 462.98 99.64 467.19 99.04 471.28 97.71 467.1 97.49 462.93 97.19 458.72 96.9 458.92 92.89 459.01 88.94 459.21 84.99 459.27 81.04 459.4 77.1 459.67 73.15 459.71 69.16 464.01 69.32 468.26 69.38 468.29 72.94 468.02 76.49 468.09 80.05 467.92 83.61 467.89 87.17 472.24 86.96 476.58 86.72 476.27 82.72 476.06 78.71 475.94 74.68 476.37 70.67 476.71 66.57"/>
  <polygon class="cls-2" points="507.55 78.71 507.6 74.68 507.88 70.67 508.19 66.65 504.47 66.59 500.74 66.72 497.02 66.71 493.31 66.56 489.59 66.56 485.87 66.67 482.13 66.56 482.23 70.36 482.56 74.11 482.54 77.86 482.79 81.6 482.8 85.36 482.93 89.1 483.11 92.85 483.05 96.6 483.18 100.35 483.07 104.1 482.95 107.85 483.04 111.61 482.8 115.36 482.87 119.12 482.73 122.87 482.51 126.62 482.37 130.37 482.21 134.19 486.72 134.1 491.27 134.34 491.12 130.46 491.06 126.64 490.94 122.84 490.83 119.03 490.59 115.23 490.47 111.43 490.47 107.62 490.37 103.81 490.26 100.01 494.5 99.68 498.7 99 502.8 97.74 498.62 97.43 494.46 97.2 490.26 96.88 490.51 92.89 490.51 88.93 490.8 84.99 490.81 81.04 491.03 77.1 491.23 73.16 491.27 69.21 495.53 69.34 499.77 69.4 499.74 72.93 499.7 76.5 499.56 80.05 499.55 83.61 499.45 87.13 503.77 86.97 508.13 86.78 507.82 82.72 507.55 78.71"/>
  <g>
    <polygon class="cls-2" points="442.87 206.69 438.59 207.15 434.42 207.13 434.51 203.26 434.42 199.35 434.53 195.44 434.66 191.54 434.75 187.63 434.77 183.72 434.83 179.81 435.03 175.91 435.09 171.99 435.17 168.08 430.47 168.05 425.77 167.83 425.9 171.73 425.96 175.64 426.16 179.55 426.15 183.46 426.32 187.36 426.47 191.26 426.39 195.18 426.52 199.08 426.68 202.99 426.7 206.88 422.43 207.1 418.08 206.85 418.33 203.14 418.43 199.42 418.63 195.7 418.69 191.99 418.92 188.27 419.02 184.56 419.06 180.84 419.09 177.12 419.07 173.4 419.13 169.69 418.93 165.98 418.99 162.26 418.92 158.55 418.72 154.84 418.54 151.13 418.47 147.42 418.21 143.71 418.08 140.01 422.46 140.02 426.84 139.85 426.66 143.46 426.56 147.09 426.28 150.7 426.15 154.32 426.15 157.95 425.87 161.57 425.72 165.25 430.43 165.25 435.08 165.2 435.05 161.63 434.9 158.03 434.81 154.43 434.62 150.83 434.43 147.23 434.31 143.63 434.25 140.07 438.51 139.99 442.81 139.93 442.72 143.66 442.46 147.36 442.42 151.08 442.38 154.79 442.27 158.49 442.02 162.2 441.99 165.91 441.94 169.62 441.95 173.32 442.04 177.03 441.94 180.74 442.18 184.44 442.15 188.15 442.24 191.85 442.32 195.55 442.53 199.25 442.62 202.96 442.87 206.69"/>
    <polygon class="cls-2" points="402.93 206.88 398.4 207.08 393.87 207.42 394.02 203.55 394.08 199.71 394.35 195.89 394.51 192.06 394.6 188.23 394.65 184.39 394.69 180.56 394.82 176.74 394.73 172.91 394.72 169.08 394.65 165.26 394.64 161.43 394.53 157.6 394.46 153.78 394.21 149.96 394.08 146.13 393.93 142.28 390.1 143.03 386.74 144.93 383.65 147.29 383.47 143.48 383.47 139.69 387.1 139.65 390.75 139.56 394.4 139.65 398.05 139.55 401.71 139.69 405.36 139.66 409.02 139.61 412.62 139.66 412.7 143.26 412.87 146.89 409.81 144.73 406.45 143.02 402.8 142.21 402.55 145.97 402.38 149.77 402.22 153.58 402.19 157.39 402.12 161.2 402.03 165 401.89 168.81 401.91 172.62 401.96 176.42 402.08 180.23 402.15 184.03 402.24 187.83 402.25 191.64 402.52 195.43 402.67 199.24 402.67 203.05 402.93 206.88"/>
    <polygon class="cls-2" points="473.22 180.81 469.08 180.72 464.94 180.82 465.2 184.68 465.56 188.57 465.75 192.47 465.66 196.37 465.4 200.25 465.05 204.14 464.32 207.89 461.06 205.84 458.63 202.74 457.49 198.98 457.12 195.37 456.79 191.76 456.55 188.14 456.55 184.52 456.55 180.9 456.6 177.28 456.59 173.66 456.72 170.04 456.75 168.13 456.84 168.18 461.88 167.93 466.36 166.29 466.23 165.88 460.7 165.21 456.78 165.71 456.93 161.87 457.04 158.06 456.97 154.24 457.09 150.42 457.12 146.6 457.22 142.71 461.29 142.73 465.32 142.66 465.46 146.98 465.42 151.24 465.26 155.5 464.87 159.84 469.07 159.7 473.24 159.8 472.98 155.83 472.72 151.9 472.8 147.98 472.87 144.05 473.28 140.05 469.17 140.2 465.09 140.15 461 140.18 456.92 140.1 452.83 140.29 448.68 140.17 448.9 143.96 448.91 147.7 449 151.43 448.93 155.16 449.15 158.89 449.2 162.62 449.13 166.36 449.21 170.09 449.32 173.83 449.43 177.56 449.52 181.29 449.46 185.03 449.67 188.77 449.57 192.51 450.15 196.35 451.41 200 453.53 203.21 456.43 205.75 459.48 207.41 462.83 208.43 466.34 208.71 469.83 208.38 473.3 207.94 473.09 204.06 472.71 200.18 472.75 196.3 472.65 192.42 472.76 188.54 473.05 184.67 473.22 180.81"/>
  </g>
  <g>
    <path class="cls-2" d="M324.7,365.38l-3.57-.13-3.68-.22-3.71.08-3.68-.41.11-3.77.34-3.75.2-3.76.24-3.77.25-3.76.23-3.77.15-3.76.06-3.77.16-3.77-.09-3.78.17-3.77.07-3.78-.35-3.77-.05-3.77-.19-3.77-.39-3.76-.21-3.78-.67-3.72-.96-3.66-.94-3.66-1.58-3.43-1.94-3.2-2.6-2.67-3.34-1.65-3.88-.24.23,3.82-.05,3.78.08,3.78.28,3.77-.14,3.78v3.78s.31,3.77.31,3.77l.07,3.78-.14,3.78.18,3.77.15,3.78.1,3.78-.21,3.78.27,3.77v3.78s.08,3.78.08,3.78l.22,3.78-.05,3.78-.18,3.78.31,3.78.06,3.78-.14,3.79.26,3.83-3.74.07-3.69-.27-3.7.04-3.7.15.34-3.81-.19-3.81.28-3.8.25-3.8.07-3.8.07-3.8.1-3.8.09-3.8-.2-3.81.36-3.79.04-3.8.05-3.8-.15-3.8.29-3.8-.21-3.8.32-3.8v-3.8s-.2-3.8-.2-3.8l-.03-3.8-.07-3.8.06-3.8-.11-3.8-.04-3.8-.06-3.8.33-3.8-.3-3.79-.14-3.8.21-3.8-.45-3.78.22-3.8-.26-3.79-.23-3.79.1-3.81-.25-3.79-.04-3.8-.04-3.81-.28-3.65,3.88-.02,3.92-.03,3.92-.22,3.93-.2,3.93.36,3.93-.22,3.93-.12,3.93.18,3.93-.29,3.94.17h3.82s-.14,3.57-.14,3.57l-.24,3.68-.04,3.7-.5,3.67-.35,3.68.03,3.7-.16,3.7-.52,3.67-.24,3.62-.91,3.52-1.78,3.17-1.71,3.18-2.45,2.65-2.64,2.45-2.94,2.07-3.07,1.91-3.1,1.48,3.1,1.4,3.2,1.62,2.82,2.21,2.79,2.28,2.18,2.87,1.66,3.19,1.55,3.24.75,3.52.49,3.56-.11,3.75.39,3.73v3.74s.26,3.73.26,3.73l.12,3.74.13,3.74.07,3.74.31,3.73.04,3.74v3.75s.44,3.73.44,3.73l-.16,3.75.23,3.74.09,3.74.4,3.73.16,3.75-.11,3.63ZM311.1,229.13l-3.72.11-3.67-.02-3.68.27-3.68-.21-.11,3.7-.22,3.7-.06,3.71-.09,3.7-.11,3.7-.11,3.7-.05,3.71v3.71s-.13,3.7-.13,3.7l.09,3.71-.22,3.7-.17,3.71.17,3.66,3.46-.7,3.3-1.63,2.63-2.57,2.21-2.98,1.38-3.45.85-3.61.82-3.61.29-3.69.25-3.69.18-3.7.15-3.7.18-3.7-.17-3.7.14-3.7.12-3.85Z"/>
    <path class="cls-2" d="M260.38,359.62l-2.89,2.34-3.24,1.83-3.5,1.28-3.64.78-3.7.37-3.72.09-3.74-.08-3.67-.75-3.66-.93.03-3.84.2-3.83.09-3.83.16-3.83-.27-3.83-.04-3.83.47-3.82-.34-3.84.42-3.83-.14-3.83-.11-3.83.25-3.83.06-3.83.16-3.83-.14-3.83v-3.83s.04-3.83.04-3.83l.34-3.83-.09-3.83-.11-3.84.27-3.83-.15-3.84.08-3.83.12-3.83-.02-3.83.04-3.84.08-3.84.36-3.84.17-3.69.23-3.69.58-3.66,1.02-3.56,1.08-3.55,1.88-3.2,1.89-3.18,2.65-2.58,2.8-2.53,3.43-1.57,3.49-1.36,3.64-.89,3.73-.48,3.76-.08,3.74.4,3.67.79,3.56.76.22,3.69-.32,3.72-.08,3.72.22,3.73-.28,3.72.02,3.72.05,3.73-.17,3.72.12,3.73-.05,3.72-.18,3.72-.21,3.72-.05,3.72v3.72s.1,3.73.1,3.73l.06,3.72-.06,3.72-.27,3.72.07,3.73-.26,3.72-.04,3.73-.09,3.73.16,3.73-.27,3.72.1,3.73-.16,3.72.09,3.73-.19,3.73.18,3.74-.38,3.62-.31,3.62-.67,3.58-1.12,3.46-1.24,3.42-1.78,3.16-2.06,2.97-2.47,2.64ZM243.79,364.37l3.97-1.32,3.4-2.3,2.46-3.28,1.55-3.81,1.11-3.96,1.13-3.94-.09-3.83.26-3.8.11-3.8.1-3.8.24-3.8.12-3.8.19-3.8-.26-3.81-.04-3.8.45-3.8-.37-3.81.39-3.8-.19-3.8-.17-3.8.18-3.8-.02-3.8.07-3.8-.24-3.8-.11-3.8-.08-3.8.2-3.81-.23-3.8-.27-3.8.11-3.8-.32-3.79-.1-3.8-.07-3.8-.22-3.79-.17-3.8-.14-3.81.14-3.82-.24-3.95-3.61,1.62-3.04,2.3-2.54,2.84-1.66,3.43-1.5,3.52-.56,3.79-.56,3.78.09,3.85-.47,3.82-.12,3.84-.11,3.84-.08,3.84-.07,3.84-.19,3.84-.24,3.84v3.84s.24,3.85.24,3.85l-.29,3.84-.04,3.84.27,3.84-.22,3.84.1,3.84.14,3.84-.06,3.84.23,3.84.08,3.84-.04,3.84-.07,3.85.11,3.84.15,3.84.29,3.83.24,3.84.14,3.84-.07,3.84.28,3.83-.04,3.85.18,3.84.19,3.94Z"/>
    <polygon class="cls-2" points="364.48 364.66 360.62 365.12 356.71 365.45 352.78 365.52 348.85 365.72 348.85 361.89 349.04 358.1 349.18 354.31 349.43 350.52 349.67 346.73 349.55 342.93 349.91 339.14 350.03 335.35 349.85 331.55 350.06 327.76 349.94 323.97 349.96 320.18 350.25 316.39 350.13 312.6 350.44 308.81 350.41 305.02 350.48 301.23 350.53 297.44 350.24 293.65 350.37 289.86 350.37 286.07 350.26 282.28 350.32 278.49 350.27 274.71 350.15 270.92 349.98 267.13 350.11 263.34 350.11 259.55 349.7 255.77 349.99 251.97 349.79 248.18 349.42 244.4 349.34 240.61 349.46 236.81 348.97 233.04 348.95 229.2 344.93 229.88 341.05 230.97 337.45 232.83 334.25 235.31 331.01 237.93 331.04 233.48 330.8 229.07 330.82 224.71 334.66 224.58 338.55 224.63 342.45 224.75 346.35 224.61 350.24 224.42 354.14 224.63 358.04 224.62 361.94 224.59 365.84 224.39 369.73 224.42 373.63 224.63 377.54 224.77 381.55 224.45 381.41 228.78 381.58 233.01 381.82 237.21 378.58 235.03 375.36 232.76 371.96 230.73 368.14 229.67 364.28 229.04 364.26 232.78 364.11 236.55 364 240.32 363.89 244.1 363.39 247.85 363.63 251.64 363.51 255.42 363.33 259.19 363.21 262.97 363.01 266.74 363.14 270.52 363.17 274.29 362.79 278.06 362.97 281.83 362.89 285.61 362.91 289.38 362.79 293.15 362.67 296.92 362.99 300.68 363.03 304.45 362.92 308.22 362.96 311.99 363.18 315.76 363.02 319.53 363.19 323.3 363.35 327.06 363.45 330.83 363.51 334.61 363.66 338.38 363.78 342.15 363.71 345.92 363.71 349.7 364.02 353.47 364.2 357.23 364.23 361.02 364.48 364.66"/>
    <polygon class="cls-2" points="431.59 364.15 431.09 360.69 431.12 357.21 431.32 354.14 431.22 351.06 430.92 351.08 430.62 347.26 430.93 343.43 430.36 339.62 430.44 335.78 430.42 331.95 430.6 328.11 430.42 324.29 430.27 320.46 430.31 316.63 430.04 312.81 430.19 308.98 429.97 305.15 430.11 301.33 429.71 297.5 429.81 293.67 430.09 289.85 430.1 286.02 429.85 282.2 430.15 278.37 430.05 274.55 430.1 270.73 430.45 266.91 430.11 263.08 430.07 259.25 430.66 255.45 430.27 251.61 430.83 247.8 430.51 243.97 431.14 240.16 430.72 236.32 431.21 232.51 431.49 228.7 431.41 224.78 427.67 225 423.94 225.17 420.21 224.8 416.68 225.15 416.56 228.68 416.46 232.41 416.55 236.13 417.2 239.84 416.76 243.58 417.2 247.3 417 251.03 417.28 254.76 417.53 258.48 417.54 262.21 417.96 265.92 418.03 269.65 417.69 273.4 417.93 277.01 414 277.14 409.95 276.99 405.9 277.02 401.71 277.21 402.17 273.33 402.26 269.59 402.37 265.85 402.2 262.1 402.52 258.36 402.75 254.63 403.02 250.89 402.93 247.13 403.06 243.39 403.07 239.64 403.4 235.91 403.65 232.17 403.65 228.41 403.85 224.53 399.91 224.52 396.12 224.86 392.31 224.6 388.56 225.04 388.72 228.68 388.85 232.45 388.91 236.23 388.96 240 389.43 243.76 389.46 247.54 389.75 251.31 389.51 255.1 389.6 258.88 390.13 262.64 390.09 266.42 390.03 270.19 389.81 273.97 390.04 277.74 390.25 281.51 389.97 285.29 390.51 289.06 390.13 292.83 390.13 296.6 390.38 300.37 390.43 304.14 390.34 307.91 390.33 311.69 390.36 315.46 390.17 319.23 390.02 322.99 390.11 326.77 389.71 330.53 389.64 334.3 389.69 338.07 389.67 341.84 389.21 345.6 388.96 349.36 388.97 353.14 389.09 356.92 388.63 360.68 388.31 364.63 392.3 364.63 396.06 365.35 399.87 365.17 403.61 364.57 403.56 360.8 403.54 357.03 403.43 353.26 403.52 349.49 403.43 345.72 403.27 341.95 403.01 338.19 403.21 334.41 403.03 330.65 402.81 326.89 402.82 323.12 402.82 319.34 402.57 315.58 402.73 311.81 402.37 308.04 402.14 304.27 402.54 300.49 402.34 296.72 401.98 292.96 402.14 289.18 402.1 285.4 401.74 281.49 405.94 281.54 410.01 281.64 414.08 282.08 418.23 281.98 418.14 285.81 418.25 289.59 418.03 293.35 417.98 297.12 418.07 300.9 417.88 304.66 417.6 308.43 417.41 312.2 417.38 315.96 417.59 319.74 417.35 323.5 417.13 327.27 417.15 331.04 416.94 334.81 416.96 338.59 417.33 342.37 416.84 346.13 416.68 349.9 416.73 353.67 416.8 357.45 416.78 361.23 416.4 365 416.88 368.88 416.51 372.74 416.21 376.59 415.95 380.46 415.19 384.26 414.34 388.04 412.89 391.61 411.28 395.08 408.37 399.25 404.67 401.54 400.94 403.7 397.6 405.43 394.07 406.74 390.42 407.75 386.64 407.82 382.88 408.12 379.02 407.9 375.22 407.2 371.35 406.97 367.61 405.96 363.9 404.93 360.26 403.69 356.49 402.73 353.15 400.77 349.64 399.12 346.55 396.78 343.85 394.01 340.87 391.54 338.45 388.54 336.32 385.32 334.03 382.22 331.57 379.24 329.76 375.82 327.68 372.56 323.85 374.34 320.43 376.44 317.41 379.08 315.2 382.32 317.64 385.15 319.55 388.37 322.08 391.11 324.59 393.86 327.26 396.45 330.01 398.95 332.92 401.25 335.73 403.69 338.88 405.68 342.02 407.66 345.33 409.35 348.68 410.94 352.09 412.41 355.68 413.37 359.17 414.74 362.84 415.41 366.57 415.58 370.27 415.71 373.98 416.06 377.67 415.53 381.43 415.54 385 414.4 388.78 413.8 392.25 412.18 395.94 411.12 399.37 409.41 402.47 407.15 405.81 405.26 408.64 402.68 411.67 400.35 414.45 397.72 416.72 394.62 419.02 391.59 421.35 388.58 423.57 385.44 425.55 382.16 427.42 378.8 428.98 375.29 430.49 371.75 431.45 368.01 431.59 364.15"/>
    <g>
      <polygon class="cls-2" points="217.24 345.12 217.09 341.29 217.25 337.45 217.05 333.61 217.04 329.78 217.32 325.95 217.46 322.11 217.03 318.27 217.22 314.44 217.51 310.61 217.57 306.77 217.54 302.93 217.39 299.09 217.45 295.25 217.74 291.42 217.54 287.58 217.63 283.74 217.69 279.89 217.64 276.05 217.57 272.33 217.72 268.62 217.66 264.91 217.81 261.2 217.48 257.54 217.54 253.87 217.44 250.21 217.16 246.55 217.46 242.88 217.28 239.22 217.06 235.56 217.07 231.91 220.64 232.07 224.2 231.26 227.56 229.94 230.54 227.9 232.49 224.89 233.7 221.56 234.25 217.98 230.29 219.08 226.45 220.52 222.41 221.38 218.69 221.02 214.97 221.32 211.24 221.19 207.52 221.34 203.79 221.02 200.07 220.99 196.35 221.09 192.61 220.97 188.88 221.13 184.84 221.07 181 222.32 177.37 224 174.3 226.58 171.71 229.65 169.92 233.27 168.36 236.98 167.3 240.87 166.39 244.63 165.59 248.42 164.9 252.23 163.94 255.99 163.09 259.8 161.71 256.33 160.76 252.81 159.56 249.37 158.37 245.92 156.98 242.54 155.05 239.43 153.24 236.28 151.03 233.39 148.73 230.58 146.16 227.86 143.44 225.23 140.18 223.34 136.78 221.72 133.18 220.65 129.52 219.89 125.8 219.49 122.07 219.59 118.34 219.95 114.76 221.07 111.13 222.1 107.29 224.73 104.22 228.02 101.19 231.33 98.89 234.34 96.54 237.34 94.63 240.63 93.19 244.16 92.14 247.81 91.34 251.51 90.78 255.27 91.23 259.05 91.71 262.8 92.64 266.48 94.16 269.96 96.15 273.4 99.48 275.6 103.28 276.77 107.24 277.02 111.1 277.14 114.97 277.24 118.85 277.26 122.7 277.71 126.46 278.73 130.26 279.49 134.06 280.28 137.57 281.95 140.62 284.29 142.13 287.78 141.8 290.76 141.68 293.78 144.24 290.93 145.6 287.43 146.2 283.74 146.51 280.06 146.45 276.3 144.45 273.01 141.74 270.38 138.76 267.95 135.15 266.64 131.52 265.42 127.81 264.48 124.03 263.79 120.19 263.56 116.38 263.24 112.57 262.76 108.74 262.54 104.94 262.18 104.7 262.34 103.32 258.61 102.18 254.85 101.44 250.99 101.11 247.08 101.35 243.16 101.79 239.23 103.08 235.48 106.58 233.98 110.14 232.63 113.91 232.07 117.68 231.71 121.45 231.8 125.27 231.75 128.98 232.67 132.48 234.16 135.78 236.02 139.07 237.88 142.12 240.17 144.53 243.11 147.08 245.93 149.18 249.1 151.12 252.36 152.8 255.76 154.36 259.22 155.47 262.86 156.89 266.37 157.85 270.03 158.81 273.69 159.32 277.45 160.24 281.13 160.6 284.9 161.14 288.66 160.97 292.46 161.3 296.24 160.76 300.02 160.51 303.79 160.28 307.56 159.91 311.33 159.19 315.04 158.9 318.84 157.91 322.37 160.22 319.47 162.02 316.06 163.15 312.36 163.74 308.55 164.26 304.73 165.12 301.05 165.35 304.78 165.34 308.55 165.7 312.31 165.69 316.07 165.8 319.83 165.6 323.6 165.97 327.37 166.14 331.14 164.77 334.76 162.07 337.54 159.08 339.99 156.01 341.99 159.22 343.38 161.99 345.74 164.11 348.64 165.56 351.98 165.88 355.6 165.88 359.22 165.94 362.86 165.58 366.48 165.6 370.13 165.33 373.8 161.66 374.26 158.08 373.47 154.95 371.41 152.5 368.58 150.07 365.75 147.85 362.76 145.72 359.69 143.78 356.51 141.94 353.26 140.09 350.02 138.05 346.9 136.03 343.76 133.83 340.74 131.75 337.65 129.81 334.45 127.27 331.69 124.98 328.75 122.37 326.09 119.48 323.75 116.65 321.31 113.24 319.81 109.76 318.6 106.12 317.79 102.4 318.11 99.06 319.11 96.14 321.02 93.15 322.82 90.51 325.1 88.04 327.48 91.77 327.53 95.52 327.75 99.26 328.41 102.7 330.03 106.11 331.68 109.23 333.85 112.05 336.38 114.69 339.09 117.46 341.67 119.84 344.61 122.35 347.45 124.4 350.64 126.67 353.67 128.89 356.74 130.69 360.08 133.04 363.07 135.02 366.3 136.99 369.53 139.18 372.61 141.34 375.71 143.67 378.69 146.08 381.62 148.93 384.13 152.31 385.62 155.8 384.58 159.04 382.8 162 380.64 164.91 378.32 166.55 374.99 167.89 371.56 168.42 367.89 168.45 364.19 168.19 360.49 168.32 356.79 169 353.16 170.14 349.7 171.7 346.33 174.52 343.93 177.71 341.79 174.53 338.89 171.5 336.07 169.09 332.68 168.11 328.71 167.92 324.78 167.9 320.85 167.97 316.92 168.13 313 168.24 309.07 168.6 305.14 168.73 301.21 168.42 297.5 168.82 293.82 168.61 290.11 168.71 286.42 168.89 282.73 168.95 279.03 169.26 275.33 169.22 271.63 169.31 267.93 169.63 264.24 169.48 260.54 169.71 256.84 169.76 253.13 169.92 249.47 170.43 245.84 171.55 242.35 172.79 238.9 175.14 236.09 178.14 234.09 181.42 232.46 185.09 232.17 188.75 231.99 192.42 232.28 196.08 232.14 199.75 231.9 203.29 232.09 203.58 235.74 203.64 239.51 203.3 243.29 203.59 247.07 203.39 250.84 203.21 254.62 203.18 258.4 203.33 262.18 203.32 265.96 203.4 269.74 203.63 273.52 203.63 277.3 203.42 281.08 203.34 284.87 203.38 288.65 200.87 291.29 197.9 293.45 195.23 295.97 198.31 298.29 201.01 300.97 202.96 303.95 203.28 307.62 203.43 311.28 203.28 314.95 203.4 318.62 203.22 322.29 203.63 325.96 203.72 329.63 203.33 333.3 203.79 336.97 203.81 340.65 203.59 344.35 203.45 348.05 203.21 351.75 202.78 355.43 202.3 359.1 201.84 362.77 200.99 366.37 200.2 369.96 202.48 367.11 204.33 363.93 206.37 367.18 208.39 370.4 210.94 373.24 213.24 376.24 215.43 379.35 218.12 382.02 220.64 384.87 223.49 387.32 226.17 384.61 228.77 381.81 231.12 378.77 233.83 376 230.75 373.79 227.91 371.47 225.42 368.79 223.2 365.88 221 362.91 219.73 359.45 218.22 356.08 217.45 352.46 216.97 348.81 217.24 345.12"/>
      <polygon class="cls-2" points="151.91 309.88 152.68 313.31 153.43 316.75 154.26 320.17 155.57 316.67 156.63 313.06 157.31 309.37 157.42 305.61 157.03 301.88 155.9 298.31 152.94 296.38 149.32 296.03 146.06 297.32 144.69 300.2 143.68 303.23 143.18 306.36 146.4 306.98 149.56 307.83 151.91 309.88"/>
    </g>
  </g>
</svg>