<?xml version="1.0" encoding="UTF-8"?>
<svg id="Layer_2" data-name="Layer 2" xmlns="http://www.w3.org/2000/svg" viewBox="0 0 128 128">
  <defs>
    <style>
      .cls-1 {
        fill: none;
      }

      .cls-2 {
        fill: #5c8254;
      }

      .cls-3 {
        fill: #fff;
      }
    </style>
  </defs>
  <path class="cls-1" d="M70.67,7.05c-5.48-2.7-11.95-1.87-17.06.86,6.05-1.37,11.16-1.7,17.06-.86Z"/>
  <path class="cls-1" d="M70.03,120.81c2.55,2.89,7.62-.03,8.95-3.09l-4.29,2.7c-1.21.76-3.02.54-4.66.39Z"/>
  <path class="cls-1" d="M78,86.97c9.39-3.75,14.48-13.58,14.37-23.02-.1-9.16-5.54-18.71-14.52-22.16,8.66,5.23,13.83,13.11,13.73,22.94-.1,9.55-5.43,17.19-13.59,22.24Z"/>
  <path class="cls-1" d="M60.03,95.63c-5.77-.75-9,2.84-10.39-1.58-.61-1.96.77-4.42,2.32-5.28.42-.23,1.86,0,1.93.4.06.4.03.89-.05,1.43-.05.32-.92.68-1.16.45l-.74-.71c-.13-.13-.49.24-.4.4s.51.85.66.97c.63.52,2.12-.15,2.31-.89.21-.8,0-2.19-.54-2.58-.61-.43-2.09-.38-2.75.12-1.39,1.05-2.3,2.7-2.47,4.42-.13,1.39.82,2.86,1.88,4.11-3.78,1.11-8.9.47-9.92-3.48-.21-.82.29-2.6,1.1-2.95.71-.31,2.06-.54,2.47-.11.35.37.63,1.67.61,2.25-.01.34-1.13.63-1.4.42l-1.17-.89c-.13,1.32,1.19,1.96,2.26,1.64.71-.21,1.33-1.52,1.1-2.43-.39-1.53-2.1-2.31-3.3-1.93-1.33.42-2.49,1.68-2.46,3.24.04,2.39,1.99,4.44,4.35,5.11,2.92.82,5.88.12,8.9-.62-.78,2.07-.47,4,.85,5.19,1.37,1.24,3.41,1.69,4.93.56,1.19-.89,1.1-2.5.19-3.32-.93-.85-2.51-.73-2.88.51.96-.16,2.15-.27,2.6.21.37.39.09,1.82-.39,2.11-1.58.93-3.38.23-4.37-1.09-.79-1.04-1.21-3.17.6-4.42,1.15-.8,9.81-1.93,10.83,4.67.21,1.36-.54,2.66-1.8,2.75-1.15.08-2.54-1.18-2.25-2.22.09-.32,1.01-.83,1.2-.59l.93,1.18c.61-.68-.01-1.81-.88-2.05-.56-.15-1.77.45-1.97,1.12-.41,1.32.55,2.58,1.46,2.95,1.15.46,2.56.32,3.32-.52.59-.66.93-2.17.65-3.21-.79-2.88-3.14-4.91-6.16-5.31Z"/>
  <path class="cls-1" d="M41.38,37.98c2.65,1.78,6.19,1.46,8.85-.93,3.49-3.13,4.04-7.83,7.6-5.84,1.83,1.02,2.84,3.25,2.31,5.33-.1.41-.8,1.34-1.17,1.21-.41-.14-1.01-.48-1.31-.74-.3-.26-.08-1.55.31-1.51l1.09.09c.18.01.08-.59-.08-.66-.16-.07-.75-.23-.97-.21-1.05.07-1.51,1.67-.99,2.57.36.63,1.55,1.35,2.26,1.17.81-.2,1.59-1.42,1.67-2.27.32-3.52-1.96-6.37-5.57-6.17,1.52-3.24,4.62-5.84,8.28-5.1,1.12.23,2.24,1.4,2.42,2.22.24,1.09-.32,2.76-1.7,2.86-.53.04-1.55-.38-1.8-.75-.2-.29,0-1.25.33-1.38l1.43-.57c-.76-.46-1.92-.42-2.22.11-.29.51-.37,1.78-.1,2.21.77,1.23,2.42,1.39,3.58.68.8-.49,1.54-2.23,1.11-3.46-1.11-3.16-4.95-3.55-7.71-1.9-2.56,1.53-3.98,3.97-5.65,6.78-.84-2.05-2.25-3.22-4.07-3.18-1.78.04-3.71.94-4.03,2.95-.24,1.49.72,2.62,2.3,2.61.95,0,2.02-1.2,1.62-2.34-.55.67-1.12,1.35-1.59,1.63-.41.24-1.56-.62-1.68-1.07-.13-.45.11-1.26.53-1.78.94-1.17,2.67-1.44,4.02-1.06,1,.28,2.48,1.88,2.04,3.3-.7,2.25-2.75,4.01-4.78,4.96-2.32,1.08-5.01.82-6.77-1.07-.81-.87-.6-2.32.09-2.85.97-.75,2.47-.84,3.03.2.18.34-.25,1.3-.59,1.24l-1.49-.26c-.41.35.91,1.23,1.46,1.17.47-.05,1.29-.76,1.41-1.21.12-.46-.21-1.56-.54-1.91-1.28-1.39-3.4-.44-4.17.71-1.03,1.52-.26,3.21,1.27,4.23Z"/>
  <path class="cls-1" d="M33.28,62.14c5.92-5.73-.54-11.85,2.55-14.2,2.37-1.81,5.98-.37,6.79,2.17.15.48-.52,1.51-.94,1.48-.42-.03-1.33-.38-1.5-.76-.17-.38.42-.9.92-1.81-.61.19-1.3.47-1.67.75-.31.24,0,1.54.27,1.82.47.49,1.95.84,2.54.55.6-.3,1.48-1.59,1.22-2.23-1.04-2.6-3.88-4.02-6.6-3.38-.66.15-1.75,1.13-2.41,1.63-1.17-2.91-.8-6.05.93-8.27,1.29-1.65,3.74-2.37,5.19-.75.71.8.72,2.38-.1,3.05-.54.44-1.94.18-2.52-.24l.92-2.02c-.8.09-1.58.88-1.51,1.46.06.45.61,1.4,1.04,1.64.84.46,2.37.05,2.85-.54.48-.61.76-2.04.45-2.83-.45-1.17-1.76-2.06-2.66-2.11-4.6-.29-6.57,5.23-5.96,8.31l.96,4.81c-2.17-.58-3.74-.51-5.01.83-1.03,1.09-1.95,2.82-1,4.41.49.82,1.5,1.62,2.15,1.51.83-.13,1.87-.9,2.01-1.55.15-.75-.41-1.88-.96-1.98l.17,1.94c.03.39-.92.9-1.31.88-.39-.02-1.26-.63-1.42-1.01-.65-1.52.16-3.31,1.35-4.12,1.12-.78,3.47-.83,4.26.61,1.53,2.8.99,6.48-.97,8.85-1.34,1.63-3.26,2.57-5.43,1.77-.66-.25-1.03-1.82-.79-2.51.21-.59,1.27-1.54,1.85-1.36.4.12,1.33.94,1.09,1.15l-1.34,1.11c.14.13.88.25,1.16.07.22-.15.82-.91.89-1.17.19-.72-1.14-1.86-1.86-1.88-.99-.03-1.9.66-2.34,1.74-.29.72-.28,2.12.09,2.67,1.26,1.92,4.68,1.44,6.66-.47Z"/>
  <path class="cls-1" d="M92.65,45.19c2.05,5.2,7.44,5.69,7.76,8.19.12.99-.3,2.28-1,2.94-1.35,1.27-3.1,1.86-4.83,1.34-.43-.13-1.37-1.05-1.09-1.39l.87-1.08c.22-.28,1.48.04,1.43.4l-.16,1.1c-.03.18.51.04.62-.11.11-.15.21-.58.29-1.07.16-1.03-1.73-1.35-2.52-.99-.59.27-1.2,1.35-1.19,2.11,0,.65.97,1.6,1.72,1.8,1.89.51,3.57-.07,5.01-1.25,1.11-.9,1.58-2.47,1.9-4.13,2.98,1.49,5.17,4.08,5,7.25-.1,1.81-1.2,3.46-3.14,3.37-.98-.04-2.09-1.07-2.08-1.86.02-1.18.94-2.02,2.01-1.97l.69,2c1.1-1.29-.12-2.32-1.02-2.58-.81-.23-2.07.78-2.3,1.83-.41,1.85.9,2.95,2.25,3.29,1.22.31,2.89-.44,3.63-1.73,2.83-4.92-2.56-9.55-6.86-11.72,1.59-.73,2.93-2.05,3.09-3.61.18-1.89-.61-3.43-2.41-4.39-.57-.3-1.99-.13-2.43.33-.48.51-.8,1.7-.65,2.35.17.73,1.47,1.5,2.21,1.09-.73-.66-1.56-1.24-1.58-1.84-.03-.78,1.22-1.57,1.93-1.36,1.95.58,2.42,2.5,2.08,4.16-.26,1.31-1.84,2.97-3.56,2.34-2.18-.79-4.14-2.93-4.99-5.03-.98-2.4-.45-5.08,1.53-6.63,1-.79,2.3-.25,2.93.76.43.69.33,1.96-.47,2.53-.31.22-1.33-.41-1.28-.75l.19-1.3c-1.01.33-1.15,1.49-.79,2.17.29.53,1.53.85,2.27.5,1.14-.53,1.23-2.35.72-3.44-.37-.8-1.57-1.69-2.7-1.6-2.81.22-4.25,4.99-3.07,7.98Z"/>
  <path class="cls-1" d="M55.05,42.65c.36-.19.61-.87.37-.99-7.61,3.71-12.55,10.84-13.95,19.13.04,2.5-.29,5.08.13,7.5,1.39,8.1,6.39,15.81,14.25,18.74-7.74-4.81-12.86-11.31-13.62-20.31-.84-9.99,4.06-19.48,12.83-24.06Z"/>
  <path class="cls-1" d="M42.97,19.95l17.66-5.64c-6.39.07-12.54,2.04-17.66,5.64Z"/>
  <path class="cls-1" d="M25.01,106.67c1.46,4.03,5.39,6.23,9.65,6.32,3.34-.15,6.51-.72,9.29-2.01l-11.04.45c-3.21-.83-5.56-2.48-7.9-4.76Z"/>
  <path class="cls-1" d="M105.53,96.76c-5.02,4.51-9.91,8.58-15.18,12.22,6.45-2.4,11.6-6.75,15.18-12.22Z"/>
  <path class="cls-1" d="M34.9,77.47c-1.23-.71-2.05-2.05-1.48-3.56.85-2.26,3.36-3.43,5.67-2.75.87.26,1.36,1.57.71,2.12-.4.34-1.45.44-1.79.3l-.19-1.63c-.58.53-.68,1.63-.22,2.12.3.33,1.2.48,1.76.3.73-.24,1.55-1.31,1.56-1.96.01-.61-.84-1.64-1.61-1.98-1.59-.7-3.5.02-4.85.95-1.42.97-2.03,2.51-2.03,4.52-2.85-1.38-5.37-4.04-5.25-7.31.08-2.11,1.74-4.01,3.82-3.33.76.25,1.54,1.39,1.47,2.03-.1.96-1,1.53-1.95,1.5l-.87-1.88c-.81,1.12.1,2.33,1.09,2.55.91.2,2.15-.69,2.38-1.76.32-1.51-.71-2.8-2.02-3.23-1.1-.36-2.91.18-3.69,1.34-1.72,2.57-.87,6.26,1.44,8.37,1.5,1.36,3.19,2.4,5.12,3.67-1.71.91-2.99,2.15-3.02,3.93-.03,1.68.75,3.46,2.6,4.15.99.37,2.34-.21,2.69-.91.47-.94-.02-2.59-.76-2.96-.32-.17-1.44.31-1.22.41,1.03.48,1.73.99,1.62,1.65-.08.49-1.13,1.24-1.63,1.18-2.02-.25-2.76-2.14-2.48-3.97.18-1.14,1.51-2.99,3.35-2.57,2,.46,4.03,2.53,4.92,4.46,1.08,2.33.88,5.21-.86,7.03-.51.53-2.23.72-2.67.22-.39-.44-.83-1.67-.86-2.3-.02-.36.62-1.01.99-1.06.3-.04,1.06.26,1.01.55l-.23,1.45c.9.1,1.28-1.39.86-2.04-.3-.46-1.5-.83-2.06-.59-1.88.8-1.5,3.24-.26,4.42,1.23,1.17,3.23.76,4.34-.84,3.58-5.13-.72-9.91-5.39-12.61Z"/>
  <path class="cls-1" d="M72.58,32.99c2.94.8,6.1-.34,9.08-.38,2.44-.03,3.01,3.4,2.14,5.11-.65,1.29-1.99,2.53-3.21,2.48-.47-.02-1.14-1.25-.86-1.59l.91-1.08,1.44,1.16c.14-.86-.47-1.78-1.09-1.86-.43-.06-1.3.39-1.58.8-.47.72-.49,2.03-.11,2.57.33.47,1.81.86,2.37.64,1.96-.78,2.81-2.48,3.15-4.41.28-1.62-.39-2.96-1.77-4.51,2.07-.5,4.4-.69,6.37-.06,2.04.65,3.79,2.42,3.64,4.56-.06.86-.92,1.98-1.55,2.18-.84.27-1.94-.02-2.6-.82-.36-.44-.13-1.94.39-1.95.45-.01,1.11.24,1.99.53-.06-.42-.57-1.22-1.04-1.39-.49-.19-1.88.43-2.07,1.03-.51,1.6.37,2.9,1.6,3.44.87.38,2.66-.17,3.33-1.25,1.68-2.72-.2-5.77-3.09-6.9-2.94-1.15-5.97-.49-9.44.48.57-2.06.57-3.88-.85-5.2-1.27-1.17-3.15-1.84-4.96-.61-.64.43-1.05,1.86-.78,2.5.27.64,1.5,1.58,2.06,1.37l1.15-.44c.19-.07.03-.69,0-.6-.99.25-1.97.29-2.42-.28-.35-.44-.11-1.83.44-2.09,1.66-.79,3.29-.12,4.23.93.97,1.1,1.16,3.32-.14,4.36-1.61,1.29-4.06,1.1-6.03.69-2.8-.59-4.91-2.59-5.11-5.54-.11-1.49.93-2.35,2.37-2.32.89.02,1.87,1.05,1.71,2.29-.04.35-1.19.61-1.41.34l-.84-1.02c-.3.83.14,1.79.91,2.01.56.16,1.85-.46,2.01-1.05.57-2.06-1.33-3.28-2.84-3.26-1.76.03-2.85,1.48-2.62,3.39.31,2.66,2.37,5.01,5.13,5.77Z"/>
  <path class="cls-1" d="M66.84,21.17c-23.89,0-43.26,19.36-43.26,43.24s19.37,43.24,43.26,43.24,43.26-19.36,43.26-43.24-19.37-43.24-43.26-43.24ZM66.85,106.89c-23.47,0-42.5-19.02-42.5-42.49s19.03-42.49,42.5-42.49,42.5,19.02,42.5,42.49-19.03,42.49-42.5,42.49Z"/>
  <path class="cls-1" d="M107.81,115.12c.09-3.65.23-6.86.96-10.46,2.56-5.06,5.19-7.13,7.52-11.02-7.78,5.98-11.46,11.79-8.47,21.48Z"/>
  <path class="cls-1" d="M100.75,25.69l7.5,2.96c4.71,1.86,7.39,5.93,8.36,10.95,1.09-9.59-7.58-13.62-15.86-13.92Z"/>
  <path class="cls-1" d="M66.84,16.71c-26.35,0-47.71,21.35-47.71,47.7s21.36,47.7,47.71,47.7,47.71-21.35,47.71-47.7-21.36-47.7-47.71-47.7ZM66.84,109.88c-25.12,0-45.49-20.36-45.49-45.47s20.36-45.47,45.49-45.47,45.49,20.36,45.49,45.47-20.37,45.47-45.49,45.47Z"/>
  <path class="cls-1" d="M71.09,41.02h-.48c.12.03.23.05.35.07.04-.02.08-.05.13-.07Z"/>
  <path class="cls-1" d="M105.16,67.31c-.56-.14-1.76.45-2.04,1.05-.25.53.37,1.74.89,2.08.49.32,1.73.15,2.24-.33.97-.92,1.62-2.38,1.2-3.43-.3-.76-1.82-1.8-2.79-1.75-3.5.18-5.98,2.8-6.67,6.19-.97,4.83,3.02,8.88-1.17,10.36-2.05.72-4.55-.34-5.56-2.18-.23-.41-.26-1.77.16-1.86.42-.08,1.24-.09,1.77-.03.33.04.49.93.27,1.21l-.72.9c-.08.1.56.19.67.12l.63-.46c.5-.37.19-1.8-.36-2.2-.54-.39-1.67-.67-2.16-.41-.49.26-1.22,1.4-1.15,2.03.21,1.91,2.18,3.27,3.58,3.6,2.15.5,3.73.16,5.25-1.64,1.26,2.89,1,6.09-1.02,8.53-.92,1.11-2.6,1.82-4.06,1.3-.67-.24-1.48-1.28-1.57-1.87-.1-.67.47-1.83,1.11-2.17.39-.21,1.97.17,1.86.6l-.51,2.03c.34-.16,1.15-.98,1.31-1.49.14-.44-.56-1.54-.98-1.73-.91-.4-2.35-.1-2.84.47-.5.58-.86,2.13-.56,2.83.48,1.13,1.57,2.02,2.38,2.16,4.29.73,6.64-4.48,6.38-7.17-.2-2.03-.72-4.03-1.06-5.98,2.24.75,3.9.49,5.13-.84,1.19-1.28,1.73-3.41.6-4.91-.84-1.12-2.42-1.2-3.46-.17-.69.68-.64,2.41.47,2.75l.03-2.21c0-.49,1.77-.58,2.13-.19,1.02,1.1.82,3.61-.74,4.62-1.1.72-3.5,1.18-4.4-.51-1.36-2.57-.97-6.1.64-8.44,1.41-2.05,4.06-3.25,6.2-1.8.95.64.38,2.49-.53,3.21-.29.22-1.12.36-1.4.15-.28-.2-.51-1-.27-1.26l1.1-1.17Z"/>
  <path class="cls-1" d="M84.67,90.88c-4.88,3.21-5.2,9.69-9.54,6.25-1.78-1.41-2.26-4.22-1.03-5.7.29-.35,1.56-.2,1.77.12.21.33.43,1.4.06,1.51l-1.5.42c.22.33,1.36.72,1.77.52s.78-1.18.7-1.72c-.13-.88-1.07-1.9-1.75-1.98-.74-.08-1.97.68-2.22,1.48-.57,1.8-.12,3.57.9,5,.98,1.37,2.45,2.02,4.54,2-.96,1.94-2.56,3.85-4.7,4.74-1.95.81-4.07.83-5.54-.86-.6-.69-.71-2.05-.37-2.7.42-.79,1.66-1.27,2.49-1.17.53.06,1.34,1.77.86,1.97l-1.77.74c.87.77,2.21.25,2.61-.82.24-.64-.37-1.84-1.17-2.29-1.27-.72-2.74-.18-3.4.81-.69,1.03-.75,2.76.08,3.76,1.82,2.23,4.93,2.32,7.49.69,2.48-1.57,3.82-4.06,5.36-6.48.93,1.92,2.38,3.11,4.17,3.04,1.7-.07,3.37-.75,3.98-2.73.22-.71-.3-2.15-.89-2.52-.64-.41-1.97-.31-2.59.15-.6.44-.91,1.69-.34,2.26l.97-1.7c.21-.37,1.34-.16,1.68.09.28.19.5,1.11.43,1.46-.4,1.98-2.36,2.44-4.08,2.12-1.22-.22-2.94-1.57-2.35-3.42,1.11-3.45,6.56-7.64,10.99-4.26,1.32,1.01,1.36,2.53.23,3.45-.75.62-2.57.55-2.93-.48-.09-.26.22-1.06.5-1.05l1.57.1c-.11-.71-1.39-1.17-1.97-.82-.74.45-1.01,1.88-.57,2.48,1.06,1.45,2.8,1.02,3.92.19,1.04-.78,1.35-2.55.41-3.67-2.19-2.6-5.91-2.87-8.76-.99Z"/>
  <path class="cls-1" d="M75.12,87.64c-.06-.04-.13-.09-.2-.14-.17.06-.34.12-.51.18.25,0,.48-.02.71-.04Z"/>
  <path class="cls-2" d="M124.09,79.03l-4.86-12.48c-4.46-11.44,2.69-15.28,1.06-29.06-.68-5.76-4.23-10.29-9.48-12.68-9.76-4.43-16.35-1.62-24.65-10.45-5.04-5.36-9.85-10.09-17.39-11.49-6.12-1.13-12.23-.12-17.84,2.38-4.9,2.18-8.5,5.72-11.01,10.4-6.11,11.41-14.97,17.84-25.52,24.81C7.07,45.29.27,52.33,3.87,61.86c1.55,4.1,4.12,7.48,7.13,10.68,4.67,4.96,7.84,10.95,7.92,17.87l.12,10.17c.11,9.93,9.34,17.09,18.99,15.34l11.11-2.02c8.75-1.59,11.36.73,16.52,7.79,2.89,3.96,7.8,5.18,12,2.44,2.16-1.41,4.03-3.2,5.98-5.01,5.28-4.91,10.47-5.6,16.09-.43,1.88,1.73,3.98,3.09,6.55,3.33,2.87.27,5.32-1.69,5.36-4.64.07-5.66-2.06-10.69,2.76-15.97l6.84-7.48c3.8-4.15,4.9-9.57,2.82-14.91ZM8.21,60.47c1.23,3.25,3.15,5.92,5.25,9.09-5.14-4.24-10.61-12.21-5.3-19.24,2.15-2.84,4.96-5.08,8.2-6.52-4.7,4.35-10.97,9.22-8.15,16.67ZM70.85,7.3c-5.89-.84-11.01-.51-17.06.86,5.11-2.73,11.57-3.56,17.06-.86ZM60.63,14.31l-17.66,5.64c5.11-3.6,11.27-5.57,17.66-5.64ZM34.67,112.99c-4.26-.09-8.19-2.29-9.65-6.32,2.34,2.28,4.69,3.93,7.9,4.76l11.04-.45c-2.78,1.29-5.95,1.86-9.29,2.01ZM70.21,121.05c1.64.14,3.45.37,4.66-.39l4.29-2.7c-1.33,3.07-6.4,5.98-8.95,3.09ZM90.34,108.98c5.28-3.64,10.17-7.71,15.18-12.22-3.58,5.47-8.74,9.82-15.18,12.22ZM66.84,112.1c-26.35,0-47.71-21.35-47.71-47.7s21.36-47.7,47.71-47.7,47.71,21.35,47.71,47.7-21.36,47.7-47.71,47.7ZM108.77,104.66c-.73,3.6-.87,6.81-.96,10.46-2.98-9.68.7-15.5,8.47-21.48-2.33,3.89-4.95,5.96-7.52,11.02ZM116.62,39.61c-.97-5.03-3.66-9.09-8.36-10.95l-7.5-2.96c8.29.3,16.95,4.33,15.86,13.92Z"/>
  <path class="cls-2" d="M66.84,18.93c-25.12,0-45.49,20.36-45.49,45.47s20.36,45.47,45.49,45.47,45.49-20.36,45.49-45.47-20.37-45.47-45.49-45.47ZM66.84,107.66c-23.89,0-43.26-19.36-43.26-43.24s19.37-43.24,43.26-43.24,43.26,19.36,43.26,43.24-19.37,43.24-43.26,43.24Z"/>
  <path class="cls-3" d="M56.55,79.95c-.67-.76-1.44-1.84-2.3-3.22l.35,3.98c1.29.74,2.93,1.46,4.92,2.14-1.31-1.17-2.3-2.14-2.97-2.9Z"/>
  <path class="cls-2" d="M66.85,21.91c-23.47,0-42.5,19.02-42.5,42.49s19.03,42.49,42.5,42.49,42.5-19.02,42.5-42.49-19.03-42.49-42.5-42.49ZM95.72,37.21c1.13-.09,2.34.8,2.7,1.6.5,1.09.42,2.91-.72,3.44-.74.34-1.98.03-2.27-.5-.37-.68-.23-1.85.79-2.17l-.19,1.3c-.05.34.97.97,1.28.75.8-.58.9-1.85.47-2.53-.63-1.01-1.93-1.54-2.93-.76-1.98,1.56-2.5,4.24-1.53,6.63.86,2.11,2.82,4.24,4.99,5.03,1.72.62,3.3-1.04,3.56-2.34.33-1.66-.14-3.59-2.08-4.16-.71-.21-1.96.58-1.93,1.36.02.6.85,1.18,1.58,1.84-.75.41-2.05-.36-2.21-1.09-.15-.64.17-1.83.65-2.35.44-.46,1.86-.64,2.43-.33,1.8.96,2.6,2.5,2.41,4.39-.15,1.57-1.49,2.89-3.09,3.61,4.3,2.17,9.69,6.8,6.86,11.72-.74,1.29-2.42,2.04-3.63,1.73-1.35-.34-2.67-1.44-2.25-3.29.23-1.05,1.49-2.05,2.3-1.83.9.25,2.13,1.28,1.02,2.58l-.69-2c-1.07-.04-1.99.79-2.01,1.97-.01.79,1.1,1.82,2.08,1.86,1.94.09,3.05-1.56,3.14-3.37.17-3.17-2.03-5.76-5-7.25-.32,1.66-.79,3.22-1.9,4.13-1.45,1.18-3.13,1.76-5.01,1.25-.75-.2-1.71-1.15-1.72-1.8-.01-.77.6-1.85,1.19-2.11.78-.36,2.68-.04,2.52.99-.08.49-.18.92-.29,1.07-.11.15-.64.29-.62.11l.16-1.1c.05-.36-1.2-.68-1.43-.4l-.87,1.08c-.28.35.66,1.26,1.09,1.39,1.73.52,3.48-.07,4.83-1.34.7-.66,1.13-1.95,1-2.94-.31-2.5-5.71-2.98-7.76-8.19-1.18-2.99.26-7.76,3.07-7.98ZM77.86,41.79c8.97,3.45,14.41,13,14.52,22.16.11,9.44-4.98,19.27-14.37,23.02,8.16-5.05,13.49-12.7,13.59-22.24.1-9.83-5.07-17.71-13.73-22.94ZM70.07,23.83c1.5-.03,3.41,1.19,2.84,3.26-.16.59-1.45,1.21-2.01,1.05-.77-.22-1.21-1.17-.91-2.01l.84,1.02c.22.27,1.37,0,1.41-.34.16-1.24-.82-2.26-1.71-2.29-1.44-.04-2.47.83-2.37,2.32.21,2.94,2.31,4.95,5.11,5.54,1.97.42,4.42.6,6.03-.69,1.3-1.04,1.11-3.26.14-4.36-.93-1.06-2.57-1.72-4.23-.93-.54.26-.79,1.65-.44,2.09.46.57,1.43.53,2.42.28.03-.09.19.53,0,.6l-1.15.44c-.57.22-1.79-.73-2.06-1.37-.27-.64.13-2.07.78-2.5,1.81-1.22,3.7-.56,4.96.61,1.42,1.32,1.41,3.14.85,5.2,3.47-.97,6.49-1.63,9.44-.48,2.9,1.13,4.77,4.19,3.09,6.9-.67,1.09-2.45,1.64-3.33,1.25-1.23-.54-2.11-1.84-1.6-3.44.19-.59,1.58-1.22,2.07-1.03.46.18.98.98,1.04,1.39-.88-.29-1.54-.54-1.99-.53-.52.01-.76,1.51-.39,1.95.67.8,1.76,1.09,2.6.82.63-.2,1.49-1.33,1.55-2.18.15-2.14-1.6-3.91-3.64-4.56-1.97-.63-4.31-.44-6.37.06,1.39,1.54,2.06,2.89,1.77,4.51-.34,1.92-1.19,3.62-3.15,4.41-.55.22-2.03-.17-2.37-.64-.38-.54-.36-1.85.11-2.57.27-.41,1.15-.86,1.58-.8.62.08,1.22,1,1.09,1.86l-1.44-1.16-.91,1.08c-.28.33.39,1.57.86,1.59,1.22.05,2.56-1.19,3.21-2.48.86-1.71.3-5.14-2.14-5.11-2.98.04-6.13,1.19-9.08.38-2.76-.75-4.82-3.11-5.13-5.77-.22-1.91.87-3.36,2.62-3.39ZM71.09,41.02s-.09.05-.13.07c-.12-.02-.23-.04-.35-.06h.48ZM40.11,33.75c.78-1.15,2.89-2.1,4.17-.71.33.36.66,1.46.54,1.91-.12.46-.94,1.16-1.41,1.21-.55.06-1.86-.82-1.46-1.17l1.49.26c.34.06.77-.9.59-1.24-.56-1.04-2.06-.94-3.03-.2-.69.53-.9,1.98-.09,2.85,1.76,1.89,4.45,2.15,6.77,1.07,2.03-.94,4.07-2.7,4.78-4.96.44-1.41-1.04-3.02-2.04-3.3-1.35-.38-3.08-.1-4.02,1.06-.42.52-.65,1.32-.53,1.78.13.45,1.28,1.31,1.68,1.07.47-.28,1.04-.97,1.59-1.63.41,1.14-.67,2.33-1.62,2.34-1.58.01-2.54-1.11-2.3-2.61.32-2.01,2.25-2.91,4.03-2.95,1.82-.04,3.23,1.13,4.07,3.18,1.67-2.81,3.09-5.25,5.65-6.78,2.75-1.65,6.6-1.26,7.71,1.9.43,1.23-.31,2.97-1.11,3.46-1.16.71-2.81.55-3.58-.68-.27-.44-.19-1.7.1-2.21.29-.53,1.45-.57,2.22-.11l-1.43.57c-.33.13-.53,1.09-.33,1.38.25.36,1.27.79,1.8.75,1.38-.11,1.93-1.78,1.7-2.86-.18-.82-1.3-1.99-2.42-2.22-3.66-.74-6.76,1.85-8.28,5.1,3.61-.2,5.89,2.66,5.57,6.17-.08.85-.86,2.07-1.67,2.27-.71.18-1.9-.54-2.26-1.17-.52-.9-.06-2.5.99-2.57.22-.01.81.14.97.21.16.07.26.67.08.66l-1.09-.09c-.39-.03-.61,1.26-.31,1.51.3.26.9.6,1.31.74.38.13,1.07-.8,1.17-1.21.53-2.08-.47-4.31-2.31-5.33-3.56-1.98-4.11,2.71-7.6,5.84-2.66,2.38-6.2,2.71-8.85.93-1.53-1.02-2.29-2.72-1.27-4.23ZM42.22,66.71c.76,9,5.87,15.5,13.62,20.31-7.86-2.93-12.86-10.64-14.25-18.74-.42-2.42-.08-5-.13-7.5,1.41-8.29,6.34-15.41,13.95-19.13.24.13,0,.81-.37.99-8.77,4.58-13.67,14.07-12.83,24.06ZM26.53,59.95c.44-1.07,1.35-1.76,2.34-1.74.72.02,2.05,1.16,1.86,1.88-.07.27-.67,1.03-.89,1.17-.28.18-1.02.06-1.16-.07l1.34-1.11c.25-.21-.68-1.02-1.09-1.15-.58-.18-1.64.77-1.85,1.36-.25.69.12,2.27.79,2.51,2.16.8,4.09-.15,5.43-1.77,1.96-2.37,2.5-6.05.97-8.85-.79-1.44-3.14-1.39-4.26-.61-1.19.82-1.99,2.61-1.35,4.12.16.38,1.03.99,1.42,1.01.39.02,1.34-.49,1.31-.88l-.17-1.94c.55.1,1.12,1.23.96,1.98-.13.65-1.17,1.42-2.01,1.55-.65.1-1.67-.7-2.15-1.51-.95-1.59-.03-3.32,1-4.41,1.27-1.34,2.84-1.41,5.01-.83l-.96-4.81c-.61-3.08,1.36-8.6,5.96-8.31.89.06,2.21.94,2.66,2.11.3.8.03,2.23-.45,2.83-.48.6-2.01,1.01-2.85.54-.43-.24-.98-1.19-1.04-1.64-.07-.59.71-1.38,1.51-1.46l-.92,2.02c.58.42,1.98.68,2.52.24.83-.67.82-2.25.1-3.05-1.45-1.62-3.9-.9-5.19.75-1.73,2.22-2.1,5.35-.93,8.27.66-.5,1.75-1.48,2.41-1.63,2.73-.64,5.56.78,6.6,3.38.26.64-.62,1.93-1.22,2.23-.58.29-2.06-.06-2.54-.55-.27-.28-.58-1.59-.27-1.82.37-.28,1.06-.56,1.67-.75-.5.91-1.1,1.44-.92,1.81.17.38,1.09.73,1.5.76.42.03,1.09-1,.94-1.48-.81-2.54-4.42-3.98-6.79-2.17-3.09,2.35,3.37,8.47-2.55,14.2-1.97,1.91-5.39,2.39-6.66.47-.36-.55-.38-1.95-.09-2.67ZM35.96,90.92c-1.24-1.18-1.62-3.62.26-4.42.56-.24,1.76.14,2.06.59.43.65.04,2.13-.86,2.04l.23-1.45c.04-.29-.72-.59-1.01-.55-.37.05-1,.7-.99,1.06.03.64.47,1.87.86,2.3.44.5,2.16.31,2.67-.22,1.74-1.82,1.94-4.7.86-7.03-.89-1.93-2.92-4-4.92-4.46-1.83-.42-3.17,1.43-3.35,2.57-.29,1.83.46,3.73,2.48,3.97.5.06,1.55-.69,1.63-1.18.11-.66-.59-1.17-1.62-1.65-.22-.1.9-.58,1.22-.41.74.38,1.23,2.02.76,2.96-.35.7-1.7,1.28-2.69.91-1.85-.69-2.63-2.47-2.6-4.15.03-1.79,1.31-3.02,3.02-3.93-1.93-1.27-3.62-2.31-5.12-3.67-2.31-2.11-3.16-5.8-1.44-8.37.78-1.17,2.6-1.7,3.69-1.34,1.32.43,2.34,1.72,2.02,3.23-.23,1.07-1.47,1.96-2.38,1.76-.99-.22-1.9-1.42-1.09-2.55l.87,1.88c.95.02,1.85-.54,1.95-1.5.07-.65-.71-1.78-1.47-2.03-2.09-.68-3.75,1.22-3.82,3.33-.12,3.27,2.4,5.93,5.25,7.31,0-2.02.6-3.55,2.03-4.52,1.35-.93,3.27-1.65,4.85-.95.77.34,1.62,1.37,1.61,1.98-.01.65-.83,1.72-1.56,1.96-.56.18-1.46.03-1.76-.3-.46-.49-.36-1.59.22-2.12l.19,1.63c.35.14,1.4.04,1.79-.3.64-.55.15-1.87-.71-2.12-2.32-.68-4.82.49-5.67,2.75-.57,1.51.25,2.85,1.48,3.56,4.68,2.7,8.97,7.48,5.39,12.61-1.11,1.59-3.11,2-4.34.84ZM65.54,104.15c-.76.84-2.17.98-3.32.52-.91-.36-1.86-1.63-1.46-2.95.21-.66,1.41-1.27,1.97-1.12.86.24,1.48,1.36.88,2.05l-.93-1.18c-.19-.24-1.11.27-1.2.59-.29,1.04,1.1,2.3,2.25,2.22,1.26-.09,2.01-1.39,1.8-2.75-1.02-6.6-9.68-5.47-10.83-4.67-1.81,1.26-1.38,3.38-.6,4.42.99,1.31,2.79,2.02,4.37,1.09.48-.28.76-1.72.39-2.11-.45-.47-1.64-.37-2.6-.21.37-1.24,1.95-1.36,2.88-.51.9.82,1,2.42-.19,3.32-1.51,1.13-3.56.68-4.93-.56-1.32-1.19-1.63-3.12-.85-5.19-3.02.73-5.98,1.44-8.9.62-2.36-.66-4.31-2.72-4.35-5.11-.03-1.56,1.12-2.82,2.46-3.24,1.2-.38,2.91.39,3.3,1.93.23.92-.39,2.22-1.1,2.43-1.08.32-2.39-.32-2.26-1.64l1.17.89c.27.21,1.39-.08,1.4-.42.02-.58-.25-1.88-.61-2.25-.41-.42-1.76-.2-2.47.11-.8.36-1.31,2.13-1.1,2.95,1.02,3.95,6.14,4.6,9.92,3.48-1.06-1.25-2.01-2.72-1.88-4.11.16-1.72,1.07-3.37,2.47-4.42.66-.5,2.14-.55,2.75-.12.55.39.75,1.78.54,2.58-.19.74-1.68,1.41-2.31.89-.15-.12-.58-.81-.66-.97s.27-.53.4-.4l.74.71c.24.23,1.11-.13,1.16-.45.09-.54.12-1.03.05-1.43-.07-.4-1.51-.63-1.93-.4-1.56.85-2.94,3.32-2.32,5.28,1.39,4.42,4.62.83,10.39,1.58,3.02.39,5.37,2.42,6.16,5.31.28,1.04-.05,2.56-.65,3.21ZM66.82,85.13c-1.89,0-4.08-.28-6.56-.85-1.46-.35-3.39-.98-5.77-1.88l-.82-.29-.88-11.1h.88c.86,2.99,2.25,5.65,4.16,8,2.52,3.07,5.52,4.6,8.99,4.6,1.78,0,3.35-.34,4.73-1.01s2.46-1.6,3.24-2.78c.78-1.18,1.17-2.53,1.17-4.06,0-1.35-.3-2.56-.91-3.65s-1.59-2.11-2.96-3.08-3.24-1.96-5.62-2.97c-3.46-1.5-5.56-2.46-6.3-2.87-1.43-.8-2.61-1.67-3.54-2.61s-1.63-1.95-2.08-3.05c-.45-1.09-.67-2.27-.67-3.52,0-1.93.51-3.7,1.54-5.3,1.03-1.6,2.43-2.86,4.22-3.78,1.79-.92,3.76-1.38,5.93-1.38,1.37,0,2.89.22,4.57.67l1.76.47c1.31.35,2.71.53,4.19.53h.29l1.7,9.76h-1c-.53-1.76-1.04-3.14-1.55-4.16-.51-1.02-1.07-1.86-1.7-2.55-1-1.11-2.19-1.98-3.59-2.61-1.4-.62-2.86-.94-4.38-.94-2.15,0-3.91.58-5.27,1.74-1.37,1.16-2.05,2.66-2.05,4.5,0,2.01.89,3.68,2.67,5.01.92.66,1.9,1.26,2.94,1.77,1.04.52,2.68,1.25,4.91,2.18,1.52.61,2.81,1.15,3.87,1.64,1.05.49,1.9.93,2.55,1.32.64.39,1.29.84,1.93,1.35,2.71,2.19,4.07,5.05,4.07,8.58,0,2.32-.63,4.42-1.9,6.3s-3.03,3.34-5.27,4.41-4.74,1.6-7.47,1.6ZM75.12,87.64c-.23.02-.47.04-.71.04.17-.06.34-.12.51-.18.06.04.14.1.2.14ZM93.02,95.54c-1.12.83-2.86,1.27-3.92-.19-.43-.6-.16-2.03.57-2.48.58-.35,1.85.1,1.97.82l-1.57-.1c-.28-.02-.59.79-.5,1.05.36,1.03,2.18,1.1,2.93.48,1.13-.93,1.09-2.45-.23-3.45-4.42-3.38-9.88.81-10.99,4.26-.59,1.84,1.13,3.2,2.35,3.42,1.73.32,3.68-.14,4.08-2.12.07-.34-.16-1.26-.43-1.46-.34-.24-1.47-.45-1.68-.09l-.97,1.7c-.56-.57-.25-1.83.34-2.26.63-.46,1.95-.56,2.59-.15.58.37,1.11,1.81.89,2.52-.61,1.98-2.28,2.66-3.98,2.73-1.79.07-3.24-1.12-4.17-3.04-1.54,2.42-2.88,4.91-5.36,6.48-2.56,1.62-5.67,1.53-7.49-.69-.82-1-.76-2.73-.08-3.76.66-.99,2.13-1.53,3.4-.81.8.45,1.4,1.65,1.17,2.29-.4,1.07-1.74,1.59-2.61.82l1.77-.74c.48-.2-.33-1.91-.86-1.97-.83-.1-2.07.38-2.49,1.17-.34.64-.23,2.01.37,2.7,1.47,1.69,3.59,1.67,5.54.86,2.14-.89,3.74-2.8,4.7-4.74-2.09.02-3.57-.63-4.54-2-1.02-1.43-1.47-3.2-.9-5,.25-.8,1.48-1.56,2.22-1.48.68.08,1.62,1.1,1.75,1.98.08.53-.29,1.52-.7,1.72s-1.55-.19-1.77-.52l1.5-.42c.37-.1.15-1.18-.06-1.51-.21-.32-1.48-.47-1.77-.12-1.23,1.49-.75,4.29,1.03,5.7,4.33,3.44,4.66-3.04,9.54-6.25,2.85-1.87,6.56-1.61,8.76.99.95,1.12.63,2.89-.41,3.67ZM104.32,69.73c.28.2,1.12.07,1.4-.15.92-.72,1.48-2.57.53-3.21-2.14-1.45-4.8-.25-6.2,1.8-1.61,2.34-2,5.87-.64,8.44.9,1.69,3.3,1.23,4.4.51,1.55-1.02,1.75-3.52.74-4.62-.36-.39-2.13-.3-2.13.19l-.03,2.21c-1.11-.34-1.16-2.07-.47-2.75,1.03-1.03,2.61-.95,3.46.17,1.12,1.49.58,3.62-.6,4.91-1.23,1.32-2.89,1.59-5.13.84.34,1.96.86,3.96,1.06,5.98.26,2.69-2.09,7.9-6.38,7.17-.81-.14-1.9-1.03-2.38-2.16-.3-.7.07-2.25.56-2.83.49-.58,1.92-.88,2.84-.47.42.19,1.12,1.29.98,1.73-.16.51-.97,1.33-1.31,1.49l.51-2.03c.11-.44-1.46-.81-1.86-.6-.64.34-1.21,1.5-1.11,2.17.09.6.89,1.63,1.57,1.87,1.46.53,3.14-.18,4.06-1.3,2.01-2.44,2.28-5.64,1.02-8.53-1.53,1.79-3.11,2.14-5.25,1.64-1.4-.33-3.37-1.68-3.58-3.6-.07-.63.66-1.77,1.15-2.03.49-.26,1.62.02,2.16.41.55.4.86,1.83.36,2.2l-.63.46c-.11.08-.76-.01-.67-.12l.72-.9c.22-.27.07-1.17-.27-1.21-.52-.06-1.35-.05-1.77.03-.42.08-.38,1.44-.16,1.86,1.01,1.83,3.51,2.9,5.56,2.18,4.19-1.48.2-5.53,1.17-10.36.68-3.4,3.16-6.01,6.67-6.19.97-.05,2.49.99,2.79,1.75.42,1.05-.22,2.51-1.2,3.43-.51.48-1.75.65-2.24.33-.52-.34-1.14-1.55-.89-2.08.28-.6,1.48-1.19,2.04-1.05l-1.1,1.17c-.24.26-.02,1.06.27,1.26Z"/>
  <path class="cls-3" d="M78.98,73.47c0-1.29-.27-2.54-.81-3.76-.54-1.22-1.3-2.26-2.3-3.12-1.45-1.31-3.99-2.72-7.65-4.25-3.03-1.29-5-2.16-5.9-2.61-.91-.45-1.83-1.05-2.77-1.82-1.95-1.56-2.93-3.53-2.93-5.92,0-.7.08-1.34.23-1.92.16-.58.39-1.13.7-1.67.31-.54.83-1.25,1.55-2.15-2.79,2.01-4.19,4.52-4.19,7.53s1.13,5.18,3.4,6.86c1.19.9,2.56,1.7,4.1,2.4.2.1,1.7.76,4.51,1.99,3.4,1.46,5.74,2.79,7.03,3.98,2.05,1.89,3.08,4.13,3.08,6.71,0,1.25-.23,2.36-.69,3.33s-1.2,1.9-2.21,2.8c3.22-2.32,4.83-5.12,4.83-8.38Z"/>
</svg>