<?xml version="1.0" encoding="UTF-8"?>
<svg id="Layer_32" data-name="Layer 32" xmlns="http://www.w3.org/2000/svg" viewBox="0 0 256 256">
  <defs>
    <style>
      .cls-1 {
        fill: #fff;
      }

      .cls-2 {
        opacity: .3;
      }

      .cls-3 {
        fill: #435054;
      }
    </style>
  </defs>
  <g class="cls-2">
    <path class="cls-3" d="M101.25,187.81c1.43.54,3.25-.27,4.52-.9s2.84-1.58,3.33-3.04l-2.95-.4c.14,1.36.66,2.66,2.14,2.98,1.22.26,2.48-.34,3.41-1.1.49-.4.84-.9,1.29-1.33.18-.17.34-.32.34-.34.17.37-1.42-.36-1.14-.58-.12.09.45,1.92.54,2.11.42.9,1.35,1.49,2.36,1.25.82-.2,1.33-.95,1.75-1.62.25-.4,1.09-1.63,1.09-1.76,0-.31.23.08-.18.03-.49.11-.86-.02-1.12-.39.06.14.08.18.08.12-.03.07.18.6.21.7.11.46.18.92.25,1.39.18,1.19,1.76,1.34,2.51.66.86-.78,1.55-1.93,2.58-2.49l-2.05-.54c.78,1.12,1.29,2.59,2.54,3.31,1.88,1.08,3.2-.88,4.01-2.3l-2.05.54c1.27.97,2.28,2.94,4.13,2.02,1.28-.64,2.63-1.91,3-3.33l-2.95-.4c.1,1.97,1.58,3.35,3.31,4.1.76.33,1.58.22,2.05-.54.18-.29.31-.59.46-.89.08-.18.17-.36.27-.53.38-.48.06-.56-.96-.25-.01.47,1.15,1.32,1.5,1.52.65.37,1.71.21,2.05-.54.61-1.32.96-2.76,1.65-4.05l-2.74-.36c.49,1.92,2.2,4.68,4.23,5.28,2.47.74,3.68-2.62,4.01-4.44l-2.74.36c1.18,2.58,3.03,5.07,5.92,5.77.66.16,1.34-.11,1.69-.69.67-1.1.91-2.34,1.42-3.5l-2.8-.76c.13,1.28.52,2.41,1.67,3.12.98.6,2.14.74,3.12,1.36,1.63,1.04,3.14-1.55,1.51-2.59-.73-.46-1.52-.77-2.33-1.04-.54-.18-.91-.23-.97-.84-.13-1.29-2.13-2.27-2.8-.76-.51,1.15-.77,2.42-1.42,3.5l1.69-.69c-2.13-.51-3.28-2.53-4.13-4.39-.52-1.14-2.52-.87-2.74.36-.1.57-.23,1.16-.47,1.69,0,0-.43.75-.44.74l.6-.13c-.11-.08-.21-.17-.31-.27-.71-.96-1.53-1.67-1.84-2.89s-2.14-1.5-2.74-.36c-.69,1.3-1.03,2.72-1.65,4.05l2.05-.54c-.44-.25-.66-.86-1.06-1.19-.54-.46-1.24-.66-1.94-.47-1.39.38-1.71,1.81-2.38,2.89l2.05-.54c-.59-.25-1.79-.75-1.82-1.51-.08-1.64-2.5-2.09-2.95-.4-.11.42-1.56,1.36-1.55,1.5-.03-.37,1.42.79,1.05.01-.08-.18-.41-.41-.55-.56-.52-.53-1.07-.99-1.66-1.44-.64-.49-1.69-.1-2.05.54-.08.15-.86,1.2-.84,1.28.88.17,1.16.13.86-.13-.12-.11-.22-.23-.3-.37-.41-.56-.69-1.22-1.09-1.79-.47-.68-1.29-.95-2.05-.54-1.29.7-2.12,1.99-3.19,2.96l2.51.66c-.17-1.13-.35-2.58-1.23-3.42-.81-.78-1.98-.69-2.79.03-.59.52-.99,1.25-1.39,1.93-.18.31-.35.62-.56.92-.11.16-.11.17-.12.16-.2-.17.93-.21.92-.21.65.18.69.96.49.06-.08-.34-.11-.69-.2-1.03-.27-.96-.93-1.83-2.01-1.85-1.32-.03-2.19,1.14-3,1.99-.27.29-.8.48-1.02.75-.04.05-.23-.03-.25.06.08-.37.35.72.27-.04-.16-1.66-2.39-2.07-2.95-.4.09-.26-.33.27-.5.39-.44.34-.95.61-1.45.85-.63.3-1.74.77-2.21.6-1.81-.69-2.59,2.21-.8,2.89h0Z"/>
  </g>
  <g>
    <path class="cls-1" d="M145.72,169.07c-3.4-1.83-4.44-1.33-7.99-1.48-3.19-.14-5.93,2.47-9.25,2.55-3.32.08-6.94-2.35-10.04-2.75-1.56-.2-7.61.83-9.13,2.42s-2.31,2.25-3.72,3.82c-2.49,2.79-1.92,8.24-3.96,11.69,3.03-2.19,5.11-4.81,8.12-7.03-1.11,1.87-.67,3.48-1.07,5.14,1.27-.45,3.63-3.37,4.77-3.89.65-.29,1.18,3.01,1.18,3.01,0,0,1.7-3.36,3.51-4.04.19.55.51,3.51.79,3.68.86.51,3.13-3.42,3.92-4.19.36,1.27.1,3.28.84,4.27.85-.7,1.26-1.54,2.1-2.36.28.64,2.11,1.76,2.22,2.58.37-.74,1.17-2.11,1.54-2.84.56.61,1.98,2.98,2.55,3.04s1.56-2.75,1.31-4.12c1.03.85,2.89,3.42,3.19,3.67.74-1.26.98-3.28,1.07-4.51,1.28,1.07,1.64,3.97,4.06,5.35-.16-.26,1.18-2.76.88-3.11,2.92,2.51,1.96,3.15,5.3,4.61-.27-1.72.33-2.98-.15-4.58,1.23.78,5.64,4.56,6.98,5.21-.71-3.03-1.15-6.59-2.17-8.76-2.63-5.54-6.85-7.39-6.85-7.39Z"/>
    <path d="M146.48,167.77c-1.78-.93-3.54-1.55-5.56-1.63-1.89-.07-3.9-.24-5.74.27-2.04.57-3.87,1.8-5.97,2.15s-4.13-.58-6-1.29c-1.71-.66-3.53-1.44-5.4-1.41-1.5.02-3.04.31-4.5.65s-3.06.78-4.32,1.63c-1.59,1.07-3.03,2.81-4.3,4.24-3.07,3.45-2.2,8.32-4.35,12.16-.68,1.21.78,2.99,2.05,2.05,2.89-2.13,5.25-4.87,8.12-7.03l-2.05-2.05c-.99,1.82-.82,3.56-1.22,5.5-.2.98.7,2.33,1.85,1.85,1.79-.75,2.97-2.34,4.44-3.56.08-.07.33-.21.37-.3l.17-.11-1.46-.31s.26.78.28.84c.13.49.24,1,.32,1.5.21,1.27,2.18,1.45,2.74.36.67-1.31,1.58-2.89,2.97-3.5l-2.2-.9c.46,1.57.23,5.51,2.96,4.75,2.02-.57,2.92-3.2,4.26-4.59l-2.51-.66c.38,1.56.11,3.2.99,4.63.53.85,1.63.96,2.36.3.79-.71,1.37-1.6,2.1-2.36l-2.36-.3c.27.47.66.85,1.06,1.21.28.26.9.63,1.01,1.01.33,1.19,2.14,1.53,2.74.36.49-.96,1.04-1.88,1.54-2.84l-2.36.3c.98,1.15,2.16,3.99,4.1,3.42s2.52-3.92,2.32-5.55l-2.56,1.06c1.24,1.07,2.01,2.56,3.19,3.67.68.64,1.89.58,2.36-.3.87-1.63,1.13-3.45,1.27-5.26l-2.56,1.06c.75.69,1.09,1.79,1.59,2.66.7,1.2,1.58,2.19,2.77,2.93s2.46-.47,2.2-1.69c.07.33-.12.64.11.25.07-.12.1-.28.15-.4.15-.38.31-.76.44-1.14.27-.77.36-1.41.02-2.17l-2.36,1.82c.97.85,1.71,1.81,2.56,2.78s1.91,1.56,3.05,2.07c.91.41,2.4-.04,2.26-1.3-.2-1.68.21-3.31-.2-4.98l-2.2,1.69c2.41,1.58,4.41,3.88,6.98,5.21,1.18.61,2.5-.39,2.2-1.69-.52-2.26-.84-4.58-1.47-6.81-.59-2.07-1.61-3.96-2.92-5.66-1.38-1.8-3.21-3.63-5.32-4.57-1.75-.78-3.28,1.81-1.51,2.59s3.3,2.27,4.46,3.78c2.61,3.38,2.95,7.44,3.87,11.47l2.2-1.69c-2.57-1.33-4.57-3.63-6.98-5.21-1.14-.74-2.5.48-2.2,1.69.34,1.36-.07,2.79.1,4.19l2.26-1.3c-1.01-.45-1.86-.9-2.57-1.75-.78-.93-1.51-1.82-2.43-2.62-1.33-1.17-3.04.28-2.36,1.82-.26-.6-.09-.81-.32-.14-.12.35-.27.69-.4,1.03-.24.62-.45,1.19-.31,1.86l2.2-1.69c-1.92-1.19-2.15-3.65-3.75-5.12-1-.92-2.46-.24-2.56,1.06s-.26,2.61-.86,3.75l2.36-.3c-1.18-1.11-1.96-2.6-3.19-3.67-.86-.74-2.74-.35-2.56,1.06.08.66-.02,1.27-.2,1.9-.06.22-.22.5-.26.72-.07.14-.14.27-.22.4,1.45.24,1.95.15,1.49-.27-.17-.41-.76-.94-1.03-1.31-.35-.49-.69-.98-1.07-1.43-.61-.72-1.93-.51-2.36.3-.5.95-1.05,1.88-1.54,2.84l2.74.36c-.39-1.38-1.72-1.83-2.37-2.94-.47-.82-1.69-1-2.36-.3-.73.77-1.31,1.65-2.1,2.36l2.36.3c-.66-1.07-.39-2.7-.68-3.91-.26-1.09-1.74-1.46-2.51-.66-.51.53-.93,1.17-1.36,1.77s-1.1,1.22-1.47,1.86c-.04.07-.21.19-.21.21-.01-.16,1.46.74,1.48.71.07-.11-.22-1-.24-1.13-.13-.75-.19-1.53-.41-2.26-.3-1.01-1.32-1.28-2.2-.9-1.84.8-3.16,2.85-4.05,4.58l2.74.36c-.24-1.43-.64-4.1-2.54-4.12-1.04-.02-1.99,1.01-2.69,1.66-.75.7-1.63,1.9-2.57,2.3l1.85,1.85c.33-1.61.11-3.3.92-4.78.65-1.2-.77-3.01-2.05-2.05-2.87,2.16-5.23,4.9-8.12,7.03l2.05,2.05c1.81-3.23,1.44-7.13,3.08-10.38.82-1.63,2.46-2.88,3.72-4.17,1.04-1.05,2.06-1.49,3.48-1.88s2.77-.67,4.18-.75c1.55-.09,3.02.53,4.44,1.07,1.91.73,3.83,1.51,5.89,1.66,1.93.14,3.73-.5,5.48-1.24.96-.41,1.92-.85,2.94-1.11s2.1-.15,3.16-.14c2.11.02,3.75.25,5.65,1.24,1.71.89,3.23-1.69,1.51-2.59Z"/>
  </g>
  <path d="M143.68,179.3c-.95-2.78-1.26-5.98-3.3-8.24-.65-.72-1.71.35-1.06,1.06.86.96,1.33,2.17,1.7,3.39.42,1.39.75,2.82,1.22,4.19.31.91,1.76.52,1.45-.4h0Z"/>
  <path d="M148.26,180.42c-.94-2.75-1.53-5.78-3.54-8-.65-.72-1.71.35-1.06,1.06,1.81,2,2.31,4.86,3.16,7.34.31.91,1.76.52,1.45-.4h0Z"/>
  <path d="M138.41,177.86c-.11-2.16-.37-4.31-1.63-6.13-.23-.33-.66-.49-1.03-.27-.33.19-.5.69-.27,1.03,1.14,1.64,1.33,3.46,1.43,5.37.02.4.33.75.75.75.39,0,.77-.34.75-.75h0Z"/>
  <path d="M134.36,178.51c-.63-1.88-.82-3.89-1.02-5.85-.04-.4-.32-.75-.75-.75-.37,0-.79.34-.75.75.21,2.09.39,4.24,1.07,6.24.13.38.52.64.92.52.37-.1.65-.54.52-.92h0Z"/>
  <path d="M126.59,180.18c.13-2.31.09-4.65.5-6.93.07-.4-.11-.81-.52-.92-.36-.1-.85.12-.92.52-.44,2.42-.42,4.88-.55,7.33-.05.96,1.45.96,1.5,0h0Z"/>
  <path d="M113.89,180.45c.94-2.45,1.38-5.14,2.61-7.47.45-.85-.84-1.61-1.3-.76-1.3,2.46-1.78,5.25-2.77,7.83-.14.38.16.82.52.92.42.12.78-.14.92-.52h0Z"/>
  <path d="M130.07,180c.13-2.35-.23-4.69-.27-7.04-.02-.96-1.52-.97-1.5,0,.04,2.35.4,4.69.27,7.04-.05.96,1.45.96,1.5,0h0Z"/>
  <path d="M122.59,178.54c1.22-1.85,1.09-4.19,1.45-6.22.07-.4-.11-.81-.52-.92-.36-.1-.85.12-.92.52-.35,1.97-.17,4.15-1.29,5.86-.22.34-.07.83.27,1.03.37.21.8.07,1.03-.27h0Z"/>
  <path d="M118.68,178.13c.55-.79.61-1.93.74-2.85.08-.55.16-1.09.27-1.63.05-.25.12-.5.2-.74.02-.05.04-.11.06-.16.05-.15-.07.12,0-.02.05-.09.09-.18.15-.26.22-.34.07-.83-.27-1.03-.36-.21-.81-.07-1.03.27-.56.87-.67,2.02-.81,3.02-.08.53-.15,1.07-.26,1.59-.05.23-.1.46-.18.68-.02.05-.04.1-.05.15-.05.14.08-.13,0,0-.04.07-.08.15-.13.22-.23.33-.06.83.27,1.03.37.22.79.06,1.03-.27h0Z"/>
  <path d="M109.7,178.99c.87-.94,1.3-2.23,1.79-3.39.54-1.25,1.1-2.6,2.09-3.49.72-.65-.34-1.7-1.06-1.06-1.07.96-1.69,2.33-2.25,3.62-.28.64-.54,1.28-.83,1.91-.13.28-.27.55-.43.82-.06.11-.13.21-.2.32-.02.03-.04.05-.06.08.05-.06.05-.07.02-.03-.04.05-.09.11-.14.16-.65.71.4,1.77,1.06,1.06h0Z"/>
</svg>