<?xml version="1.0" encoding="UTF-8"?>
<svg id="Layer_29" data-name="Layer 29" xmlns="http://www.w3.org/2000/svg" viewBox="0 0 256 256">
  <defs>
    <style>
      .cls-1 {
        fill: #fff;
      }

      .cls-2 {
        opacity: .3;
      }

      .cls-3 {
        fill: #435054;
      }
    </style>
  </defs>
  <g class="cls-2">
    <path class="cls-3" d="M89.06,181.1c1.52,2.55,4.24,6.46,7.67,5.88s6.1-2.64,8.52-4.86c.93-.85,2.11-2.06,3.46-2.1.78-.02,1.63.29,2.39.42.92.15,1.79.36,2.67.69,2.59.99,5.13.18,7.58-.75,1.29-.49,2.59-.96,3.91-1.34.88-.25,1.88-.55,2.72-.4,2.07.36,3.89,1.76,5.95,2.26,3.41.82,6.54-.08,9.88-.69,1.4-.26,3.21-.62,4.54.03s2.21,1.93,3.09,2.99c2.09,2.51,4.41,4.96,7.97,4.33,3.29-.58,6.44-3.09,6.77-6.55.19-1.92-2.82-1.91-3,0-.21,2.16-3.41,3.98-5.42,3.66-1.16-.18-2.1-1.17-2.85-1.99-.97-1.05-1.81-2.22-2.8-3.25-.94-.97-2.05-1.88-3.36-2.26-1.5-.44-3.13-.26-4.65-.04-2.99.43-5.91,1.57-8.96.96-2.07-.42-3.81-1.6-5.8-2.2-2.17-.66-4.33.05-6.39.74-1.83.61-3.61,1.58-5.52,1.84-.93.12-1.75.17-2.64-.15-.84-.3-1.64-.56-2.53-.72-1.47-.25-3.01-.77-4.5-.47-3.27.66-5.12,3.94-7.92,5.46-1.06.58-3.13,1.91-4.34,1.31-1.65-.82-2.92-2.79-3.83-4.31-.99-1.66-3.59-.15-2.59,1.51h0Z"/>
  </g>
  <g>
    <path class="cls-1" d="M127.15,174.46c-3.53.15-5.66,3.45-9.39,3.41s-6.24-1.3-9.74-1.72-8.61,6.76-11.97,7.36c-3.99.71-8.33-5.5-10.47-9.43.84.85,2.32.01,3.45-.3-.93-1.6-2.64-2.3-2.75-4.51.74,1.51,2.39,1.88,3.68,1.31-1.44-1.57-4.11-3.93-3.18-6.72,1.57,2.65,5.42,3.61,7.96,2.9,2.67-.76,6.35-3.14,9.14-3.29,2.64-.14,5.14,1.7,7.61,2.12,2.47.42,8.53-3.53,12.35-2.95,1.53.23,3.49,2.51,3.94,4.2,1.58-.27,1.49-3.26,3.61-3.83,7.18-1.92,5.27,3.36,12.96,2.12,1.48-.24,3.86-1.2,5.74-.78,2.48.55,4.46,2.6,5.96,2.91,3.25.65,4.96-1.74,7.31-3.94-.22,2.18-2.3,4.67-3.59,6.09,3.02.46,6.28-1.37,8.01-4.44-.62,2.74-2.65,9.16-5.54,8.56,2.33.79,5.06.43,6.81-1.11-1.45,4.27-2.24,6.67-5.48,9.66-7.2,6.65-11.6-6.73-18.33-5.97-3.09.35-5.1.36-8.14,1.12s-6.81-2.92-9.97-2.78Z"/>
    <path d="M127.15,172.96c-1.7.13-3.18.73-4.66,1.57-1.37.78-2.74,1.74-4.36,1.84-1.98.13-3.96-.41-5.86-.88-1.59-.4-3.4-.99-5.06-.8-2.74.31-5.03,2.61-7.02,4.33-1.72,1.48-3.81,3.86-6.25,2.66-3.19-1.57-5.4-5.34-7.05-8.34l-2.36,1.82c1.63,1.28,3.12.63,4.91.09.9-.27,1.42-1.36.9-2.2-.75-1.2-2.41-2.27-2.55-3.75l-2.8.76c1.08,1.92,3.29,2.8,5.38,2,1.06-.41,1.48-1.62.66-2.51-1.3-1.4-3.4-3.13-2.8-5.26l-2.74.36c1.61,2.53,4.58,3.9,7.54,3.87,3.21-.03,5.98-2.09,8.94-3.07,1.63-.54,3-.5,4.63.07s3.24,1.49,4.99,1.62c2.5.19,5.11-1.32,7.41-2.12,1.33-.46,3.01-1.12,4.46-.89,1.35.22,2.52,1.93,2.89,3.14.24.79,1.04,1.25,1.85,1.05,1.24-.31,1.88-1.31,2.44-2.38.67-1.27,1.2-1.58,2.68-1.77,2.08-.26,3.07.79,4.79,1.7,2.46,1.31,5.28,1.11,7.91.46,1.78-.45,3.37-.84,5.1,0,1.35.65,2.51,1.65,3.91,2.2,3.95,1.54,6.83-1.67,9.41-4.11l-2.51-1.46c-.3,2.13-1.81,3.88-3.2,5.43-.93,1.04-.22,2.4,1.06,2.56,3.87.48,7.4-1.96,9.31-5.18l-2.74-1.16c-.36,1.58-.83,3.17-1.51,4.64-.28.6-1.32,3-2.18,2.87-1.87-.29-2.69,2.31-.8,2.89,2.88.89,5.92.43,8.27-1.5l-2.51-1.46c-1.21,3.57-2.51,7.1-5.63,9.46-2.08,1.58-4.04.83-5.94-.63-2.17-1.67-4-3.82-6.41-5.17-3.09-1.73-6.68-.95-10.02-.46-1.14.17-2.38.66-3.52.61-.98-.04-1.96-.5-2.84-.9-1.95-.9-3.91-1.99-6.11-1.98-1.93.01-1.93,3.01,0,3s3.8,1.25,5.56,1.99c.89.38,1.78.7,2.74.82,1.11.15,2.09-.11,3.16-.34,2.23-.47,4.59-.71,6.86-.84,1.24-.07,2.31.43,3.33,1.1,4.38,2.87,8.77,9.56,14.62,5.44,3.9-2.75,5.62-6.96,7.09-11.31.53-1.55-1.46-2.33-2.51-1.46-1.5,1.24-3.57,1.28-5.35.73l-.8,2.89c4.7.73,6.59-6.15,7.38-9.61.37-1.63-1.85-2.66-2.74-1.16-1.42,2.41-3.85,4.05-6.72,3.69l1.06,2.56c1.7-1.9,3.61-4.14,3.97-6.75.2-1.42-1.33-2.57-2.51-1.46s-2.19,2.39-3.57,3.15-2.47.47-3.68-.27c-1.39-.85-2.77-1.79-4.38-2.19-1.71-.42-3.44-.06-5.12.36-2.28.57-4.53.86-6.59-.45-1.73-1.09-3.28-1.92-5.41-1.75-1.56.12-3.3.4-4.41,1.59-.46.5-.79,1.09-1.1,1.69-.15.28-.37.93-.65,1l1.85,1.05c-.85-2.77-3.29-5.41-6.34-5.36s-5.68,1.41-8.39,2.37c-.93.33-1.98.78-2.98.62-1.83-.29-3.48-1.39-5.29-1.83-3.47-.85-6.57.85-9.66,2.22-1.44.64-2.87,1.19-4.47.98s-3.16-.97-4.03-2.34c-.68-1.08-2.38-.91-2.74.36-.95,3.38,1.45,5.89,3.57,8.18l.66-2.51c-.86.33-1.52.21-1.99-.62-.69-1.23-2.94-.76-2.8.76.11,1.14.41,2.11,1.11,3.04.58.78,1.33,1.4,1.85,2.22l.9-2.2c-.18.06-1.9.76-1.99.68-1.28-1-3.23.22-2.36,1.82,2.6,4.72,8.18,13.16,14.48,9.1,2.6-1.68,4.61-4.15,7.29-5.7,1.36-.79,2.43-.55,3.94-.21,1.88.42,3.71.96,5.63,1.2,2.22.28,4.18.1,6.2-.89,1.73-.84,3.33-2.23,5.32-2.38s1.93-3.14,0-3Z"/>
  </g>
  <path d="M129.51,169.16c2.35-1.94,6.12-.61,8.74-.05,1.17.25,2.37.51,3.58.41,1.69-.14,3.33-.66,5.03-.68,3.52-.05,5.07,3.81,8.49,4.33,1.12.17,2.26-.03,3.37-.17.76-.1,2.95-.63,3.57-.03.69.67,1.76-.39,1.06-1.06-.8-.78-2.16-.64-3.18-.57-1.35.1-2.7.42-4.05.39-2.03-.05-3.31-1.46-4.74-2.68-1.33-1.13-2.76-1.73-4.52-1.71s-3.59.65-5.41.71c-1.48.05-2.97-.43-4.39-.75-2.87-.63-6.15-1.24-8.61.79-.74.62.32,1.67,1.06,1.06h0Z"/>
  <path d="M127.64,169.35c.41,1.36,1.38,2.36,2.72,2.85s2.02-.03,3.33-.17c2.14-.23,3.93.64,5.98.97,1.9.3,3.51-.66,5.37-.73,2.09-.08,3.76,1.32,5.33,2.51s3.29,2.58,5.31,3.08c3.75.92,6.28-1.9,9.16-3.73.81-.52.06-1.81-.76-1.3-2.95,1.87-5.5,4.89-9.28,3.12-3.04-1.43-5.31-4.7-8.79-5.14-1.7-.21-3.12.49-4.76.72-1.79.25-3.5-.72-5.25-.96-.77-.11-1.55-.12-2.33-.05-.65.06-1.35.42-1.97.45-1.18.07-2.32-.98-2.64-2.03-.28-.92-1.73-.53-1.45.4h0Z"/>
  <path d="M127.29,169.39v.02c.19-.43.37-.85.54-1.28.53.07.06-.03-.1-.12s-.35-.16-.53-.23c-.59-.24-1.19-.46-1.81-.61-1.45-.37-2.97-.47-4.44-.19-1.77.34-2.99,1.57-4.63,2.15-1.83.65-4.29-.12-6.12-.53-1.66-.37-3.33-.75-5.04-.51-1.82.25-3.39,1.15-5.02,1.93-1.85.89-3.62,1.25-5.66.93-1.93-.3-3.78-1-5.58-1.73-.89-.36-1.28,1.09-.4,1.45,3.35,1.37,7.18,2.68,10.75,1.36,1.62-.6,3.08-1.57,4.71-2.12,2.12-.71,4.14-.22,6.25.24,1.72.38,3.69.85,5.46.66s2.91-1.42,4.47-2.04c1.74-.7,3.71-.52,5.46.02.73.23,1.48.74,2.24.84.72.09.89-.85.53-1.28v-.02c-.63-.74-1.68.32-1.07,1.06h0Z"/>
  <path d="M127.44,169.47c-1.81,1.99-4.63,1.51-7.01,1.39-1.84-.1-2.91,1.71-4.69,1.74-1.01.02-1.93-.48-2.84-.83s-1.81-.59-2.76-.7c-3.54-.43-6.76,1.16-9.88,2.58-1.8.82-3.87,1.9-5.91,1.85-2.14-.05-4.04-1.27-5.82-2.34-.83-.5-1.58.8-.76,1.3,1.74,1.05,3.55,2.15,5.59,2.46s3.98-.4,5.86-1.18c3.63-1.52,7.37-3.91,11.48-3.05,1.91.4,3.63,1.67,5.65,1.37,1.63-.24,2.73-1.82,4.4-1.64,2.64.28,5.82.25,7.75-1.87.65-.71-.41-1.78-1.06-1.06h0Z"/>
</svg>