<?xml version="1.0" encoding="UTF-8"?>
<svg id="Layer_52" data-name="Layer 52" xmlns="http://www.w3.org/2000/svg" viewBox="0 0 256 256">
  <defs>
    <style>
      .cls-1 {
        fill: #fff;
      }

      .cls-2 {
        opacity: .3;
      }

      .cls-3 {
        fill: #435054;
      }
    </style>
  </defs>
  <g class="cls-2">
    <path class="cls-3" d="M99.43,187.35l-.02.04,2.74.36c-.16-.44-.24-.87-.44-1.31-.31-.68-1.45-.99-2.05-.54-.38.28-.59.53-.75.97l2.89.8c.14-.9,1.7-1.29,2.34-1.95.72-.74,1.02-1.69,1.24-2.67.09-.41.14-.89.33-1.27.03-.05-.14.17-.22.17.29,0,.44.07.69.15.58.19.99.45,1.63.31.77-.17.92-.88,1.72-.47.56.29,1.38.28,1.82-.23.31-.36.63-.71.97-1.04l-2.51-.66c1.02,3.04,5.43,2.24,7.86,2.13l-1.3-2.26c-.19.29-.38.57-.55.87-.52.89.13,2.4,1.3,2.26.96-.12,2,.94,2.96,1.19,1.04.27,1.79-.34,2.7-.72,1.17-.49,2.38-.81,3.51-1.42,1.2-.66,2.3-1.49,3.33-2.4l-2.51-.66c.7,2.66,4.33,4.48,6.85,4.64.71.05,1.25-.1,1.81-.57.18-.15.55-.43.66-.6.09,0,.18-.03.26-.1-.96-.34-1.21-.33-.76.02.5.52,1.33.64,2.01.48.33-.07.69-.4,1.01-.42.35-.02.7.21,1.04.32.78.27,1.62-.32,1.85-1.05.12-.39.44-1.19.38-1.58-1.47-.18-1.95-.02-1.42.47.15.14.31.28.48.4.26.17.55.26.85.31.46.09.91.03,1.37-.07.2-.05.4-.11.6-.18.53-.06.43-.26-.32-.6-.32.44,1.52,1.83,1.76,2.04.74.65,1.49,1.28,2.32,1.82.55.36,1.53.73,1.81,1.37.32.73.01,1.57.5,2.33.28.44.65.77,1.14.95.29.11.64.04.9.14l-.9-.69c0-.38-.02-.45-.06-.19-.04.18-.06.36-.08.55-.01.3.05.58.14.86.23.65.73.96,1.18,1.43,1.33,1.4,3.45-.72,2.12-2.12,0,.01-.88-.84-.5-.29.25.36.17-.18.17-.47.01-.57-.19-1.18-.62-1.58-.22-.21-.57-.39-.87-.47-.16-.04-1.12-.04-.36.11.24.24.33.24.27-.01,0-.18-.02-.36-.03-.53-.02-.27-.05-.55-.12-.81-.31-1.15-1.24-1.91-2.2-2.54-1.11-.73-2.11-1.49-3.12-2.35-.81-.69-1.13-1.78-2.29-2.01-.56-.11-1.1.01-1.64.16,0,0-.83.17-.49.24.29.06-.08-.15-.19-.24-.93-.77-2.26-.66-2.94.37-.47.7-.49,1.58-.73,2.36l1.85-1.05c-.58-.2-1.07-.47-1.69-.47-.39,0-2.25.29-1.24.68-.55-.21-.82-.7-1.49-.71-.51,0-1.07.27-1.49.53-.28.17-.91.78-.96.79-.19.04-1.29-.35-1.64-.54-.69-.37-2.06-1.17-2.26-1.96-.3-1.15-1.68-1.39-2.51-.66s-1.74,1.39-2.72,1.93-2.11.82-3.16,1.27c-.2.08-.42.16-.61.28-.05.03-.69.34-.29.26.27-.05-.04-.01-.24-.11s-.39-.19-.59-.29c-.88-.48-1.73-.98-2.78-.86l1.3,2.26c.17-.3.36-.58.55-.87.61-.94-.18-2.31-1.3-2.26s-2.33.08-3.49.12c-.3,0-.6.03-.9-.02-.37-.06-.71-.39-.59-.03-.36-1.07-1.66-1.48-2.51-.66-.34.33-.66.68-.97,1.04l1.82-.23c-.97-.5-2.05-.85-3.13-.46-.31.11-.67.3-.9.54-.46.35-.23.38.69.08-.2-.11-.4-.21-.62-.29-1.36-.5-3.04-.36-3.89.95-.66,1.01-.42,2.53-1.18,3.43-.45.54-1.24.75-1.8,1.16-.72.52-1.17,1.24-1.31,2.12-.3,1.89,2.23,2.65,2.89.8v-.04c-.22.3-.45.6-.68.9l.05-.04-2.05-.54c.03.07.08.43.14.59.39,1.11,2.13,1.6,2.74.36l.02-.04c.85-1.73-1.74-3.25-2.59-1.51h0Z"/>
  </g>
  <g>
    <path class="cls-1" d="M156.31,197.9c1.13.12,2.69-4.33,2.69-4.33l3.91,4.99s.42-5.82,1.5-5.24,7.32,2.67,5.65,1-1.08-2.66-1.08-2.66c.65-.98,3.23-2.38,2.74-3.57-.98.18-3.43.05-4.42.14.94-1.47,2.53-1.43,3.34-2.97-3.01.2.09-4.13-.42-5.21-.46-.97-1.71-.03-2.2-.93-.34-.63.52-1.45.21-2.17-1.13.27-2.29.95-2.51-.65-1.05.1-1.35,1.2-1.98,1.91-.02-1.07-.06-1.96-.43-2.98-.54-1.5,3.42-2.13,2.57-2.88-.32-.28-4.8.17-5.3-.16-.47-.31-1.11-.11-1.51-.34-.93-.53,3.13-1.59,1.99-1.79.13.46-4.34.93-4.16,1.4-1.41-.62-3.54-2.78-4.97-2.56.02.08.14.21.14.27-1.38-.71-2.85-1.33-4.16-2.18.11.54-.12,1.05-.14,1.54-1.39-.5-1.22-1.49-2.82-1.79-1.68-.32-4.96.94-4.96.94l1.83-2.74s-5.7-.85-7.59,3.94c-.26.66-.9-1.54-1.61-1.55-1.66-.03-4.05,3.18-5.39,3.08-1.13-.08-3.81-4.43-5.76-1.62-1.31.5-2.81-2.3-5.01-3.21s-5.48-.81-5.21-.89c-1.58-.09,2.34,2.04.89,2.55-1.69.6-7.15-1.08-8.77-.31.58.24,4.18,2.36,4.78,2.64-2.94,1.12-6.45-2.14-9.63-1.16.03,0-1.98,1.31-1.92,1.31-1.58.08-4.62-.33-2.93,1.69-.52.55-1.31.25-2.01.56-.73.32-1.16.82-1.74,1.35.37,1.03.22,1.59.92,2.46-1.22,1.23-3.87.62-4.32,2.24-.26.95.73,3.06,1.66,3.41-.92-.05-4.57.42-2.24,1.66-.77,1.03-5.24,4.92-2.08,4.32-.47,1.2.87,6.36.39,7.65,0,0,2.41-2.66,3.91-3.41s.08,5.4.08,5.4c0,0,3.74-1.08,5.24-2.74s.93,4.43,2.08,3.82c2.49-1.33,5.32-7.34,5.09-9.2-2.72,1.46-2.12-1.95-1.78-2.04-3.22-.96,3.04-3.54,3.86-4.4-1.46-1.46-.16-4.53,1.3-4.55.81-.01,1.2.41,2.04.47,1.09.07,2.08-.64,3.09-.61-.06.26.06.87.02,1.06.65-.37,2.18-1.75,3.05-1.56,1.05.23.3.61.9,1.19.91.88.7.53,2.18-.15.93-.43,2.03.1,3.05.11-.12.29-.11.77-.32,1.08,1.51-.7,3.03-.57,4.35-1.55.03,1.13-1.22,2.17-1.62,3.3,3.1-.74,4.99-4.1,7.38-5.91.07.3,1.16,1.34,1.16,1.34,1.93,1.35,3.83,1.99,5.63,3.34-.19-.41-.31-.99-.58-1.42,1.44.3,2.89.08,4.26.61,0-.58-.13-1.18-.09-1.73,1.42.33,2.88-.1,4.25.2-.07-.31,0-.63-.12-.95,1.03-.11,2.29.96,3.45,1.14.44-1.4,1.47,1.69,2.29,2.16,1.4.78,3.11,1.04,3.81,2.45.98,1.96,1.59,2.54.93,4.7.62-.16,1.23-.46,1.76-.76.76,1.8.46,2.52-.54,4.18.26-.47-.68,1.1-.74,1.52-.22,1.57,1.08,5.56,2.72,5.74Z"/>
    <path d="M156.31,199.4c2.39-.07,3.48-3.59,4.13-5.43l-2.51.66c1.3,1.66,2.6,3.33,3.91,4.99.88,1.12,2.48.09,2.56-1.06.04-.58.1-1.17.18-1.75.07-.53.16-1.06.29-1.58.05-.2.12-.4.16-.6.06-.29.11-.12.01-.15l-1.31.19c.08.04.16.07.23.11.2.15.5.21.74.31.43.17.87.33,1.31.48.99.33,2.01.65,3.04.81s2.15.13,2.63-.95c.54-1.22-.59-2.14-1.24-3.03-.41-.56.21-.03-.18.04.3-.05,1.12-1,1.34-1.2,1.03-.93,1.95-2.07,1.56-3.53-.23-.85-1.05-1.16-1.85-1.05-1.32.19-2.7-.01-4.02.09l1.3,2.26c.42-.59,1.12-.85,1.7-1.25.68-.47,1.21-1.01,1.64-1.72.58-.96-.17-2.28-1.3-2.26-.43,0-.38-.07.1.3.31.24-.06.36.08-.08.11-.33.19-.68.3-1.02.26-.81.65-1.66.66-2.53.01-1.06-.69-2.03-1.74-2.29-.16-.04-.71-.14-.9-.09-.38-.07-.37.05.04.34.21.45.34.47.39.07.36-.47.24-1.4.12-1.92-.19-.8-1.08-1.25-1.85-1.05-.23.06-.79.11-.97.27-.07.02-.15.04-.23.05.55.6.73.63.53.08-.18-.83-1.09-1.2-1.85-1.05-1.37.28-1.84,1.3-2.64,2.29l2.56,1.06c-.03-.92-.07-1.84-.3-2.74-.05-.22-.11-.43-.19-.64.03.16,0,.31-.09.43-.28.14.08-.05.16-.08.69-.32,1.61-.79,2.14-1.35.78-.82.67-2.18-.33-2.78-.69-.42-1.67-.31-2.45-.29-.52.01-1.03.03-1.55.04-.39,0-1.1-.12-1.47,0-.2.06-.14,0,.15.09-.34-.11-.62-.27-.98-.34l-.4-.05c-.95-.17-.95.54,0,2.13.11-.01.32-.21.43-.25.61-.24,1.43-.58,1.89-1.06.89-.94.43-2.4-.81-2.71-1.01-.25-1.82.47-1.9,1.45.11-1.35,1.18-1.22.44-1.09-.21.04-.41.11-.61.16-.58.14-1.17.25-1.75.39-1,.25-2.27.67-2.24,1.94l2.26-1.3c-1.85-.9-3.5-2.92-5.72-2.76-1.16.08-1.84,1.21-1.3,2.26.05.09.09.18.14.27l2.05-2.05c-1.4-.71-2.83-1.35-4.16-2.18-.92-.57-2.34.16-2.26,1.3.04.52-.08,1.02-.14,1.54l2.26-1.3c-.77-.33-1.19-1.03-1.9-1.45-.86-.51-1.89-.65-2.87-.56-1.42.13-2.83.51-4.17,1.02l1.69,2.2,1.83-2.74c.49-.73.04-2.07-.9-2.2-1.37-.19-2.77-.12-4.11.23-1.1.29-2.13.79-3.01,1.5-1.07.85-1.54,1.88-2.23,3l.9-.69-.07.02,1.16.15c.28.14.31.4.1-.01-.07-.14-.16-.27-.25-.4-.21-.32-.43-.65-.72-.9-.69-.61-1.57-.66-2.41-.38s-1.62.87-2.34,1.43c-.38.3-.75.62-1.13.91-.16.12-.82.42-.89.57.15-.33.61.44.13-.13-.17-.2-.43-.38-.63-.55-.59-.51-1.21-1.04-1.91-1.4-1.82-.93-3.42-.37-4.62,1.19l.9-.69c.15-.04.27.17.13-.01-.08-.11-.29-.19-.41-.29-.4-.31-.75-.69-1.13-1.03-.85-.76-1.74-1.46-2.81-1.88s-2.15-.59-3.26-.73c-.49-.06-.98-.1-1.47-.13-.23-.02-1.1-.19-.49-.01l.36,2.74h.01c1.16-.84.83-2.79-.76-2.81-1.47-.01-2.37,1.39-1.53,2.66.29.44.71.77,1.07,1.15.11.12.24.33.29.34-.12-.72.05-1.22.51-1.5-.15.07-.21.08-.16.02-.56-.18-1.45-.05-2.05-.12-.8-.1-1.61-.22-2.41-.33-1.26-.16-2.78-.43-4,.07-1.04.42-1.67,2.15-.36,2.74,1.66.75,3.15,1.84,4.78,2.64l.36-2.74c-1.22.4-2.41-.03-3.59-.41-1.3-.43-2.59-.88-3.97-.97-.62-.04-1.3.01-1.9.18-.34.09-.54.27-.83.43.52-.29.09-.08-.03,0-.59.36-1.43.79-1.89,1.32l1.06-.44c-1.25.04-2.76-.18-3.88.48-1.59.93-1.02,2.6-.11,3.77l.3-2.36c-.56.42-1.52.3-2.18.65-.71.38-1.29.95-1.88,1.49-.38.35-.54.97-.39,1.46.32.99.44,1.95,1.07,2.82l.23-1.82c-.62.54-1.69.51-2.45.77-1,.34-1.88.97-2.22,2.02-.56,1.77.65,4.41,2.31,5.22l.76-2.8c-1.15-.03-2.57.14-3.56.78-1.65,1.06-.83,2.87.56,3.68l-.3-2.36c-1,1.28-2.38,2.29-3.2,3.72-.41.71-.61,1.57-.17,2.31.59,1,1.76.96,2.76.8l-1.85-1.85c-.38,1.22-.06,2.67.11,3.9.15,1.11.53,2.93.28,3.75-.43,1.41,1.5,2.57,2.51,1.46.58-.64,1.2-1.26,1.84-1.84.32-.3,1.16-.72,1.34-1.08.24-.08.3-.13.18-.14l-1.3-.53c-.14-.02,0-.18-.03-.01-.2.75-.08,1.72-.22,2.51-.09.55-.2,1.1-.32,1.64-.25,1.08.7,2.18,1.85,1.85.87-.26,1.72-.59,2.55-.96,1.06-.47,2.69-1.16,3.35-2.17.45-.7-1.55-.39-1.56-.32,0-.09.08.33.09.43.08.41.14.83.2,1.24.13.82.24,1.78.85,2.4,1.97,2.02,4.61-1.83,5.5-3.24,1.19-1.89,2.72-4.62,2.53-6.95-.1-1.17-1.19-1.82-2.26-1.3-.38.19-.8.1.07.38.23.07-.01.25.11.17.08-.05-.11-.56-.01-.29-.13-.35.31-.15-.44.3,1.14-.69.85-2.34-.36-2.74-.02,0-.24-.05-.2-.08.18-.15.38,1,.37.99.12.15-.22.2.17-.06.48-.31.93-.67,1.43-.97.92-.55,1.98-1.02,2.76-1.77.62-.59.52-1.52,0-2.12-.3-.35-.22-.91-.08-1.31.08-.22.2-.51.4-.65.1-.08-.36-.17.22.02.71.23,1.38.44,2.14.41.94-.04,1.76-.55,2.68-.61l-1.5-1.5c-.03.36.03.7.02,1.06-.04,1.12,1.31,1.89,2.26,1.3.36-.23.7-.49,1.05-.73.08-.05,1.19-.63,1.19-.67-.02.09-.92-1.54-.77-.45.03.19.1.37.18.54.22.47.61.87,1.03,1.17.77.55,1.52.58,2.36.17.5-.25.84-.53,1.42-.52.64.02,1.29.22,1.94.27l-1.45-1.9c-.06.21-.07.52-.16.72-.46,1.02.34,2.77,1.69,2.2,1.56-.65,3.27-.75,4.71-1.7l-2.26-1.3c-.03.47-.5.96-.74,1.34-.33.5-.59,1.01-.82,1.56-.46,1.1.85,2.11,1.85,1.85,3.52-.95,5.33-4.17,8.05-6.3l-2.36-.3c.42.92,1.44,1.73,2.27,2.26,1.65,1.05,3.46,1.8,5.05,2.95,1.02.74,2.67-.5,2.2-1.69-.24-.6-.43-1.2-.73-1.78l-1.69,2.2c1.42.24,2.89.16,4.26.61.91.3,1.93-.51,1.9-1.45-.02-.58-.09-1.15-.09-1.73l-1.9,1.45c1.42.26,2.84-.04,4.25.2.84.14,2.03-.38,1.9-1.45-.05-.45-.08-.9-.18-1.34l-1.45,1.9c1.03,0,2.04.86,3.05,1.08.86.19,1.53-.26,1.85-1.05-1.27-.29-1.89-.11-1.86.54,0,.04.02.07.06.1.05.17.22.35.32.51.21.34.41.68.65,1,.61.82,1.4,1.15,2.32,1.55,1.16.5,1.66.86,2.24,1.98.55,1.05.74,1.65.41,2.83-.3,1.08.74,2.17,1.85,1.85.74-.22,1.44-.54,2.12-.92l-2.2-.9c.52,1.3.31,1.85-.39,3.03l2.59,1.51.04-.08c.8-1.46-1.15-3.09-2.36-1.82-1.3,1.37-1.39,3.29-.97,5.02.44,1.82,1.49,4.42,3.57,4.83,1.89.37,2.69-2.52.8-2.89-.87-.17-1.3-2.01-1.47-2.74-.09-.38-.21-1.12-.16-1.3.04-.16.17-.34.24-.49.08-.16.56-.78.12-.31l-2.36-1.82-.04.08c-.93,1.69,1.6,3.18,2.59,1.51,1.07-1.79,1.49-3.34.69-5.34-.36-.9-1.28-1.41-2.2-.9-.46.25-.9.46-1.4.61l1.85,1.85c.49-1.79.28-3.19-.55-4.83-.93-1.82-1.94-2.71-3.8-3.51-.69-.3-.97-.36-1.32-.91s-.62-1.11-1.05-1.58c-1.14-1.23-2.62-.76-3.21.71l1.85-1.05c-1.35-.3-2.42-1.19-3.85-1.19-1.02,0-1.65.96-1.45,1.9.03.18.05.36.07.55l1.9-1.45c-1.41-.24-2.85.06-4.25-.2-.94-.17-1.9.4-1.9,1.45,0,.58.07,1.15.09,1.73l1.9-1.45c-1.39-.46-2.83-.36-4.26-.61-1.29-.22-2.32.98-1.69,2.2.18.34.29.71.43,1.06l2.2-1.69c-1.35-.97-2.85-1.66-4.29-2.49-.68-.39-1.62-.89-1.96-1.65-.44-.97-1.68-.83-2.36-.3-2.23,1.75-3.85,4.75-6.72,5.52l1.85,1.85c.57-1.34,1.56-2.15,1.67-3.7.08-1.11-1.34-1.9-2.26-1.3-1.2.79-2.68.85-4,1.4l1.69,2.2c.22-.48.32-.94.47-1.44.29-.99-.5-1.84-1.45-1.9-1.55-.1-2.7-.47-4.17.27-.18.09-.49.19-.62.34-.37.18-.09.21.85.08l-.22-.21s.37,1.01.1-.07c-.05-.2-.12-.38-.23-.56-1.43-2.35-4.15-.17-5.64.77l2.26,1.3c.01-.36-.04-.7-.02-1.06.06-.77-.73-1.55-1.5-1.5s-1.4.23-2.11.44c-.79.23-1.17.06-1.92-.14-1.15-.31-2.28-.1-3.14.75-1.68,1.66-1.86,4.43-.32,6.2v-2.12c-.17.16.2-.07-.08.06-.15.07-.29.19-.44.28-.37.23-.75.44-1.12.66-.85.5-1.73,1.01-2.47,1.68-1.69,1.52-1.21,3.53.92,4.24l-.36-2.74c-1.07.65-1.22,2.34-.9,3.44.59,2,2.64,1.96,4.2,1.19l-2.26-1.3c.16,1.91-1.34,4.3-2.37,5.83-.34.51-.71.99-1.14,1.42-.14.14-.35.26-.45.42l-.19.13c.84-.13,1.33.08,1.48.63.06-.58-.31-1.54-.41-2.13-.28-1.69-1.55-3.7-3.43-2.19-1.47,1.19-2.96,2.02-4.8,2.56l1.85,1.85c.41-1.79,1.31-4.75.27-6.45-1.72-2.84-5.56,1.66-6.77,2.99l2.51,1.46c.38-1.25.07-2.71-.1-3.96-.1-.75-.21-1.5-.28-2.25-.05-.48-.07-1.27-.01-1.44.38-1.19-.79-2.01-1.85-1.85-.98.16,1.4.99.74,1.39-.07.04.15-.24.21-.33.26-.35.55-.67.84-.99.58-.63,1.22-1.22,1.75-1.89.58-.75.61-1.82-.3-2.36-.62-.47-.76,0-.43,1.42-.09.02-.04,0,.16-.06.19,0,.45-.12.64-.15.37-.06.74-.09,1.11-.08,1.44.04,2.11-2.13.76-2.8-.46-.22-.73-.81-.87-1.28-.15-.51-.17-.32.19-.51.51-.27,1.23-.27,1.79-.45.71-.23,1.3-.56,1.86-1.05.46-.4.6-1.31.23-1.82-.47-.65-.53-1.35-.76-2.1l-.39,1.46c.5-.46.91-.94,1.6-1.08s1.25-.14,1.86-.59c.84-.63.94-1.53.3-2.36-.27-.56-.48-.23-.62.99.08-.02.16-.04.24-.06.25.08.74-.04,1.02-.04.7,0,1.32,0,1.99-.22.38-.29.41-.31.08-.06.08-.06.16-.11.24-.17.18-.12.36-.24.54-.36.39-.26.79-.59,1.2-.82.26-.21.21-.15-.16.17.2-.04.4-.05.6-.04.44,0,.87.08,1.3.19.81.2,1.59.49,2.38.75,1.63.53,3.33.91,5.02.36,1.13-.37,1.59-2.14.36-2.74-1.63-.8-3.12-1.89-4.78-2.64l-.36,2.74c1.09-.44,2.59-.04,3.71.11,1.42.2,2.91.51,4.34.33,1.29-.16,2.48-1.07,2.05-2.52-.17-.56-.57-1.02-.97-1.43-.16-.17-.34-.37-.52-.51-.45-.33.04-.18,0,.42l-.44,1.06-.69.35-.76-2.8h-.01c-1.02.74-.96,2.37.36,2.75,1.12.32,2.41.16,3.56.39,1.82.37,2.82,1.36,4.17,2.53.99.85,2.55,1.88,3.81.9.35-.27.4-.61.79-.59.47.02,1.16.78,1.5,1.06.91.78,1.83,1.68,3.13,1.41,1.37-.28,2.42-1.43,3.49-2.24.3-.23.68-.4.97-.64.02-.02.28-.12.28-.13.02-.08-.47-.32-.52-.16-.08.27.89,1.32,1.08,1.46,1.75,1.36,2.43-.97,3.24-1.97s2.08-1.53,3.34-1.71c.46-.07.93-.08,1.4-.07.21,0,1.16.12.34,0l-.9-2.2-1.83,2.74c-.69,1.04.47,2.67,1.69,2.2,1.01-.39,2.1-.74,3.18-.88.58-.08,1.14-.13,1.65.21.65.43,1.04,1.05,1.8,1.37,1.11.48,2.11-.09,2.26-1.3.07-.53.18-1.01.14-1.54l-2.26,1.3c1.33.83,2.76,1.47,4.16,2.18s2.71-.69,2.05-2.05c-.04-.09-.09-.18-.14-.27l-1.3,2.26c.73-.05,1.44.56,2.01.95.72.49,1.41,1.03,2.2,1.41.98.47,2.29-.08,2.26-1.3.04,1.52-1.12,1.09-.28,1.03.2-.01.45-.11.65-.16.54-.13,1.09-.23,1.63-.36,1.06-.27,2.06-.66,2.16-1.91l-1.9,1.45-.7-.59-.15-1.16c.07-.26.21-.47.4-.62.11-.08.09-.08-.05.01-.1,0-.36.18-.45.22-.31.15-.63.28-.93.45-.71.41-1.39.99-1.36,1.89.05,1.45,1.35,1.52,2.42,1.78.83.21,1.54.32,2.41.31s1.81-.07,2.72-.06c.11,0,.42.07.53.02-.51.24-.13-2.1-.7-2.03-.29.04-.79.43-1.05.58-.78.44-1.56,1-1.87,1.88-.17.48-.14.94-.04,1.43.2.89.36,1.66.38,2.58.03,1.18,1.7,2.13,2.56,1.06.35-.43.76-1.41,1.32-1.52l-1.85-1.05c.51,2.4,2.48,2.18,4.36,1.7l-1.85-1.05c.04.17-.24.68-.28.88-.07.35-.09.7,0,1.06.17.76.76,1.39,1.5,1.64.32.11.79.2,1.14.15.68-.12-.53-.55-.36-.63-.02,0-.28.93-.36,1.17-.35,1.04-.81,2.21-.53,3.32.33,1.3,1.49,1.86,2.75,1.84l-1.3-2.26c-.39.64-1.01.89-1.61,1.29-.7.46-1.24,1-1.73,1.68-.65.9.21,2.34,1.3,2.26,1.61-.12,3.22.04,4.82-.2l-1.85-1.05c-.08-.28-.09-.05-.34.2-.21.22-.44.42-.67.62-.51.44-1.07.87-1.45,1.43-.46.69-.53,1.53-.3,2.33.22.75.67,1.41,1.18,1.99.14.15.28.29.41.44,1.37-1.41,1.66-2.1.86-2.05-.02,0-.46-.06-.29,0-.99-.28-2-.48-2.98-.82-.84-.29-1.51-.81-2.39-.84-1.1-.04-1.74.86-2.08,1.79-.57,1.56-.71,3.34-.83,4.98l2.56-1.06c-1.3-1.66-2.6-3.33-3.91-4.99-.76-.97-2.17-.28-2.51.66-.18.51-.38,1.02-.61,1.51-.21.45-.42.91-.69,1.32-.05.08-.26.33-.26.39-.01.27-.47.02.31,0-1.93.05-1.93,3.05,0,3Z"/>
  </g>
  <path d="M131.62,173.6c.55.56,1.21.92,1.93,1.2.3.12.61.23.92.34.16.06.32.12.48.18.02,0,.14.06.05.02-.1-.04.05.02.07.03.09.04.18.08.27.13.35.17.83.11,1.03-.27.18-.34.11-.84-.27-1.03-.65-.32-1.33-.54-2-.79-.07-.03-.13-.05-.2-.08-.11-.04-.05-.05,0,0-.02-.02-.07-.03-.1-.04-.15-.07-.29-.14-.43-.22s-.26-.17-.39-.26c-.07-.05.1.09,0,0-.03-.03-.06-.05-.09-.08-.08-.07-.15-.13-.22-.21-.28-.28-.79-.3-1.06,0s-.3.76,0,1.06h0Z"/>
  <path d="M135.78,172.6c.42.32.81.68,1.23,1.01.25.2.5.39.76.56s.55.31.84.43c.17.07.43.01.58-.08.16-.09.3-.27.34-.45.04-.19.03-.41-.08-.58s-.26-.26-.45-.34l-.04-.02.18.08c-.22-.1-.44-.22-.64-.35-.1-.07-.21-.14-.31-.21-.05-.03-.24-.19-.05-.04-.05-.04-.1-.08-.15-.12-.39-.31-.76-.65-1.16-.96-.16-.13-.31-.22-.53-.22-.18,0-.4.08-.53.22s-.23.33-.22.53c0,.18.07.41.22.53h0Z"/>
  <path d="M141.59,171.22c.83.64,1.66,1.29,2.58,1.8.34.19.83.09,1.03-.27s.1-.82-.27-1.03c-.92-.52-1.74-1.17-2.58-1.8-.14-.11-.41-.12-.58-.08-.17.05-.36.18-.45.34-.09.17-.14.38-.08.58s.18.32.34.45h0Z"/>
  <path d="M149.75,173.15l1.33,1.15c.15.13.32.22.53.22.18,0,.4-.08.53-.22s.23-.33.22-.53-.07-.4-.22-.53l-1.33-1.15c-.15-.13-.32-.22-.53-.22-.18,0-.4.08-.53.22s-.23.33-.22.53.07.4.22.53h0Z"/>
  <path d="M148.82,175.24c.11.07.23.14.33.21.05.03.09.06.13.09.02.01.17.13.11.08-.07-.06.06.05.08.06.05.04.1.08.15.13.09.08.18.16.26.24.36.34.68.7,1.01,1.07.68.77,1.35,1.52,2.17,2.14.31.24.85.06,1.03-.27.21-.39.07-.77-.27-1.03-.17-.13.11.09-.05-.04-.05-.04-.1-.08-.15-.12-.09-.08-.18-.16-.26-.24-.17-.16-.34-.33-.5-.51-.34-.36-.65-.73-.98-1.1-.68-.76-1.4-1.49-2.29-2.01-.34-.2-.84-.09-1.03.27s-.09.81.27,1.03h0Z"/>
  <path d="M156.07,175.78c.57.5,1.12,1.01,1.64,1.56.24.26.48.53.7.81.03.04.06.07.09.11,0,0,.12.14.05.06s.03.04.04.06c.03.04.06.08.09.11.12.16.24.33.35.5.22.32.67.5,1.03.27.32-.21.5-.68.27-1.03-.9-1.33-1.99-2.46-3.19-3.51-.29-.26-.77-.31-1.06,0-.26.28-.32.78,0,1.06h0Z"/>
  <path d="M155.76,181.15c-.08.75.43,1.5.84,2.08s.9,1.1,1.17,1.74c.16.36.71.47,1.03.27.37-.24.44-.64.27-1.03-.26-.61-.74-1.13-1.12-1.66-.21-.29-.41-.58-.57-.9-.02-.04-.03-.07-.05-.11-.07-.15.04.11.01.04s-.05-.14-.07-.21c0-.03-.02-.07-.02-.1-.04-.15,0,.15,0,.07,0-.07,0-.13,0-.2.04-.39-.37-.77-.75-.75-.44.02-.71.33-.75.75h0Z"/>
  <path d="M160.78,183.4c.12.47.3.94.56,1.35.2.32.45.61.69.91.02.03.05.06.07.09.1.12-.03-.03-.02-.03,0,0,.12.17.13.19.04.07.09.13.12.2.02.04.04.07.06.11.03.07.02.15,0-.02.03.18.12.35.15.53,0,.02.03.21.02.09s0,.09,0,.11c.01.15.02.29.02.44,0,.39.34.77.75.75s.75-.33.75-.75c0-.51-.05-1.03-.23-1.51-.16-.42-.37-.76-.65-1.11-.1-.12-.2-.24-.29-.36-.05-.06-.18-.27-.06-.07-.04-.07-.1-.14-.15-.21-.11-.16-.2-.33-.28-.5-.01-.03-.03-.06-.04-.1.04.09.04.1.02.05-.02-.05-.04-.11-.06-.16-.04-.13-.08-.26-.12-.4-.1-.38-.54-.65-.92-.52s-.63.52-.52.92h0Z"/>
  <path d="M158.28,188.07c.05.29.13.57.21.85.06.21.12.42.15.63l-.03-.2c.04.29.02.58-.02.87l.03-.2s0,.06-.01.09c-.03.21-.04.39.08.58.09.16.27.3.45.34.19.04.41.03.58-.08.15-.1.32-.26.34-.45.08-.55.11-1.06-.02-1.6-.1-.42-.24-.82-.32-1.24-.03-.18-.2-.36-.34-.45-.16-.09-.4-.13-.58-.08-.41.13-.6.51-.52.92h0Z"/>
  <path d="M91.5,188.12c0,.18,0,.35-.02.53-.01.11-.03.23-.04.34-.03.35.06.71.17,1.04.06.18.17.35.34.45.16.09.4.13.58.08s.36-.17.45-.34.14-.39.08-.58c-.06-.18-.11-.36-.14-.54l.03.2c-.02-.16,0-.31.02-.47.03-.23.04-.46.04-.69,0-.19-.08-.39-.22-.53-.13-.13-.34-.23-.53-.22s-.4.07-.53.22-.22.33-.22.53h0Z"/>
  <path d="M93.77,182.51c-.18.94-.49,1.86-.53,2.82-.01.39.35.77.75.75.42-.02.74-.33.75-.75,0-.18.02-.36.05-.53l-.03.2c.1-.71.32-1.39.45-2.09.04-.2.03-.4-.08-.58-.09-.16-.27-.3-.45-.34-.37-.08-.84.11-.92.52h0Z"/>
  <path d="M99.45,171.93c-1.18,1.08-2.48,2.02-3.49,3.28-.13.16-.22.32-.22.53,0,.18.08.4.22.53.27.25.8.33,1.06,0,1.01-1.26,2.31-2.2,3.49-3.28.29-.26.29-.8,0-1.06-.31-.29-.75-.28-1.06,0h0Z"/>
  <path d="M122.79,172.77v.03c0-.07-.01-.13-.02-.2.01.1,0,.19,0,.29l.03-.2c-.01.1-.04.19-.07.28,0,.03-.02.05-.03.08-.03.1.04-.09.04-.09,0,.03-.06.13-.07.15-.11.2-.23.4-.37.58-.03.05-.07.09-.1.13-.03.04-.1.13.04-.05-.02.02-.03.04-.05.06-.07.09-.14.18-.22.27-.13.16-.27.32-.4.48s-.22.32-.22.53c0,.18.08.4.22.53.27.25.8.33,1.06,0,.37-.46.76-.9,1.09-1.39.18-.27.32-.55.43-.86.12-.34.13-.68.08-1.03-.03-.17-.2-.36-.34-.45-.16-.09-.4-.13-.58-.08s-.36.17-.45.34c-.1.19-.11.37-.08.58h0Z"/>
  <path d="M119.74,170.9c-.54.65-1.05,1.33-1.61,1.97-.26.3-.53.59-.82.87-.15.15-.31.29-.47.43-.08.07-.16.14-.24.2-.05.04-.1.08-.15.12-.12.1.08-.06-.06.05-.16.12-.29.24-.34.45-.05.18-.03.42.08.58.2.31.69.52,1.03.27.73-.56,1.4-1.17,2-1.86.57-.65,1.09-1.34,1.64-2.01.25-.3.32-.77,0-1.06-.28-.25-.79-.32-1.06,0h0Z"/>
  <path d="M114.67,170.54c-.54.53-1.07,1.07-1.63,1.57-.14.12-.27.24-.41.36-.07.06-.14.12-.21.17,0,0-.15.12-.07.05s-.05.04-.07.05c-.31.23-.62.44-.96.63s-.49.69-.27,1.03.66.48,1.03.27c1.39-.79,2.51-1.95,3.64-3.07.28-.28.3-.79,0-1.06s-.76-.29-1.06,0h0Z"/>
  <path d="M107.81,172c-.07.12-.14.24-.23.35l.12-.15c-.24.31-.54.56-.84.8l.15-.12c-.33.26-.67.5-.99.77-.14.12-.22.35-.22.53s.08.4.22.53.33.23.53.22.37-.08.53-.22c.11-.1.23-.19.35-.28l-.15.12c.68-.53,1.41-1.02,1.84-1.79.1-.17.13-.39.08-.58-.05-.17-.18-.36-.34-.45-.35-.19-.82-.1-1.03.27h0Z"/>
  <path d="M103.14,174.6c.97,0,.97-1.5,0-1.5s-.97,1.5,0,1.5h0Z"/>
</svg>