<?xml version="1.0" encoding="UTF-8"?>
<svg id="Layer_53" data-name="Layer 53" xmlns="http://www.w3.org/2000/svg" viewBox="0 0 256 256">
  <defs>
    <style>
      .cls-1 {
        fill: #fff;
      }

      .cls-2 {
        opacity: .3;
      }

      .cls-3 {
        fill: #435054;
      }
    </style>
  </defs>
  <g class="cls-2">
    <path class="cls-3" d="M156.16,196.64c1.23-2.73,1.84-5.6,1.7-8.6-.08-1.74-2.36-1.97-2.95-.4-.63,1.7-2.58,2.74-4.34,2.39l.9,2.2c1.2-2.78,1.82-5.75,1.6-8.79-.19-2.57-.79-5.6-2.89-7.32-2.28-1.87-5.55-1.2-8.16-.51-2.38.63-4.53,1.35-6.97.65-1.75-.5-3.5-1.09-5.3-1.38-2.42-.39-4.7,1.14-7.06,1.52-1.61.26-2.89-.28-4.41-.71-1.66-.47-3.35-.78-5.05-1.06-2.63-.42-5.69-1.18-7.72,1.06-.81.9-1.24,2.13-2.23,2.85-1.29.93-2.15,1.79-1.91,3.52.23,1.59.87,3.06.98,4.68s-.09,3.21-.92,4.65l2.05-.54c-1.94-1.17-3.5-2.75-4.66-4.69-.93-1.56-2.97-.44-2.74,1.16.27,1.92,1.21,3.59,2.1,5.28s1.72,3.55.97,5.48c-.71,1.8,2.19,2.58,2.89.8,1.81-4.6-2.46-8.08-3.07-12.35l-2.74,1.16c1.42,2.38,3.36,4.33,5.73,5.76.69.42,1.65.16,2.05-.54,1.3-2.27,1.55-4.82,1.19-7.38-.17-1.22-.48-2.38-.81-3.56-.15-.55-.06-.54.39-.84.55-.37,1-.74,1.42-1.26.57-.71.96-1.7,1.65-2.3.95-.82,2.54-.36,3.65-.19,1.39.21,2.78.44,4.16.75,1.45.32,2.83.88,4.27,1.2,2.58.57,5.04-.39,7.46-1.16.78-.25,1.33-.43,1.96-.31.88.16,1.76.42,2.62.66,1.45.4,2.9.95,4.41,1.08,2.65.23,5.12-.85,7.67-1.38,1.21-.25,2.9-.64,4.02.08s1.49,2.23,1.74,3.42c.63,2.99.27,6.21-.94,9.02-.35.82-.15,1.99.9,2.2,3.47.7,6.8-1.18,8.03-4.48l-2.95-.4c.11,2.45-.28,4.85-1.29,7.09-.79,1.75,1.8,3.27,2.59,1.51h0Z"/>
  </g>
  <g>
    <path class="cls-1" d="M143.86,160.49c6.15-.58,11.96-.55,16.46,2,1.41.8,3.35,5.38,4.24,6.74.56.85,3.88,4.14,4.32,5.15s1.3,2.55,1.33,3.66c.07,2.18.6,4.3.67,6.48.04,1.24-2.48,4.92-2.66,6.15-.68,4.57-9.37,8-13.97,8.48,1.51-1.54,5.09-6.53,4.66-8.65s-.59-4.2-1.68-6.06c-.45,1.21-4.37,4.46-5.56,4.98,1.08-1.96,2.66-7.54,1.41-9.39-1.13-1.68-.52-3.57-2.33-4.49-1.43-.73-4.08-1.34-5.65-1.66-1.78-.36-5.65,2.33-10.81,1-.73-.19-5.26-.84-5.99-.67-.74.18-6.06,1.25-6.82,1.16-4.22-.52-4.1-1.39-8.31-1.91-1.86-.23-3.85-1-5.67-.5-.95.26-3.73,3.08-4.48,4.08s-1.45.97-2,2.33c-1.08,2.73,1.07,8.01.83,9.98-.56-1.14-5.18-5.68-5.74-6.82-.94.3-.58,1.5.08,6.65.28,2.17,3.18,9.14,2.83,11.31-1.83-1.16-9.91-4.22-10.97-5.99s-2.08-5.23-2.66-7.32c-.59-2.11-3.73-3.06-3.66-5.32.07-2.03.88-7.01,2.33-9.48.92-1.57,5.06-4.66,5.82-5.65,2.03-2.66,4.17-5.7,7.48-6.15s9.37-.7,12.64,0c4.31.92,3.3.95,7.4,2.58,2.35.93,11.72,3.16,11.72,3.16,0,0,4.86-1.97,8.9-3.24,1.85-.59,4.6-2.46,5.82-2.58Z"/>
    <path d="M143.86,161.99c2.87-.26,5.76-.43,8.64-.19,2.22.19,5.28.64,7.05,1.96,1.32.98,2.08,3.17,2.81,4.58.69,1.33,1.46,2.39,2.47,3.5,1.06,1.17,2.28,2.29,2.96,3.74,1.16,2.47,1.31,5.3,1.53,8.01.13,1.6-.94,3.1-1.75,4.72-.65,1.29-.8,2.81-1.72,3.94-1.4,1.7-3.54,2.83-5.53,3.68s-4,1.49-6.07,1.73l1.06,2.56c1.88-1.97,3.56-4.43,4.58-6.96.53-1.31.6-2.4.34-3.78-.38-2.02-.71-3.96-1.71-5.79-.5-.91-2.13-1.04-2.59,0-.43.98-1.49,1.77-2.27,2.45-.84.73-1.74,1.52-2.75,2l2.05,2.05c1.27-2.39,2.1-5.4,2.08-8.11,0-.59-.06-1.21-.22-1.78-.2-.7-.65-1.26-.88-1.94-.5-1.51-.67-2.97-2.12-3.92-1.36-.89-3.15-1.27-4.71-1.64-1.25-.3-2.34-.54-3.61-.28s-2.59.75-3.92,1.01c-1.72.34-3.34.24-5.04-.12-1.11-.23-2.25-.37-3.38-.51-1.05-.13-2.15-.32-3.21-.13-1.97.34-3.92.92-5.92,1.09-2.51.22-5.1-1.32-7.56-1.71-1.98-.32-4.1-.97-6.12-.83-1.49.1-2.46.77-3.55,1.73s-2.01,2-2.95,3.07c-.53.61-1.21,1.03-1.68,1.7-.5.71-.75,1.52-.87,2.38-.22,1.67.09,3.37.41,5.01.26,1.33.76,2.77.65,4.14l2.8-.76c-1.4-2.61-4.36-4.27-5.74-6.82-.29-.54-1.09-.91-1.69-.69-1.33.49-1.72,1.62-1.66,2.95.09,2,.38,4.17.8,6.12.4,1.83,1.08,3.6,1.64,5.38.47,1.52,1.23,3.33,1.03,4.95l2.26-1.3c-2.56-1.57-5.5-2.53-8.15-3.95-.58-.31-1.18-.63-1.72-1.02-.56-.41-.61-.52-.86-1-.97-1.87-1.51-3.98-2.1-5.99-.53-1.83-1.71-2.8-3-4.11-1.07-1.08-.68-2.4-.45-3.78.3-1.83.69-3.75,1.46-5.45.65-1.45,1.95-2.46,3.13-3.49s2.36-1.97,3.3-3.2c1.2-1.57,2.44-3.32,4.15-4.38s3.68-.98,5.54-1.09c2.15-.12,4.31-.15,6.46.01,3.42.26,6.14,1.54,9.25,2.77,2.65,1.05,5.52,1.66,8.28,2.35,1.16.29,2.32.62,3.49.86,1.06.22,2.02-.38,2.99-.76,2.27-.87,4.57-1.65,6.87-2.45,1.1-.38,2.14-.91,3.18-1.45.84-.44,1.69-.98,2.64-1.13,1.9-.3,1.09-3.19-.8-2.89s-3.62,1.73-5.41,2.44c-2.19.86-4.48,1.52-6.68,2.36-.69.26-1.38.53-2.06.8-.1.04-.43.11-.5.2-.11.13,1.04.18.61,0-.9-.39-2.07-.5-3.02-.74-2.93-.73-5.97-1.36-8.78-2.47-1.45-.57-2.84-1.33-4.33-1.8-1.85-.57-3.78-.93-5.71-1.08-2.21-.17-4.44-.13-6.64,0-2.05.12-4.23.19-6.12,1.08-2,.95-3.52,2.68-4.86,4.4-1.05,1.34-2.08,2.42-3.36,3.53s-2.74,2.26-3.7,3.71c-1.07,1.62-1.57,3.72-1.97,5.59-.35,1.66-.81,3.58-.63,5.28.21,1.97,1.81,2.96,3.04,4.3.68.73.82,1.61,1.1,2.55.36,1.22.75,2.43,1.21,3.61.73,1.87,1.46,3.18,3.17,4.27,2.99,1.9,6.47,2.88,9.48,4.72,1.07.65,2.12-.23,2.26-1.3.17-1.4-.32-2.95-.7-4.28-.5-1.78-1.11-3.53-1.65-5.3-.5-1.67-.7-3.36-.93-5.09-.09-.68-.16-1.36-.2-2.04,0-.09.03-.21,0-.3,0-.04-.1.05,0-.01-.15.08-.15.37-.54.51l-1.69-.69c1.4,2.61,4.36,4.27,5.74,6.82.76,1.4,2.68.63,2.8-.76.19-2.38-.91-4.79-1.1-7.15-.1-1.19-.1-2.32.85-3.15.87-.76,1.56-1.67,2.36-2.49.71-.73,1.56-1.76,2.51-2.18-.11.05.6-.07.8-.08.46-.01.91.05,1.36.13.95.16,1.88.38,2.83.51,2.69.38,5.16,1.48,7.85,1.85,1.98.28,4.14-.37,6.08-.75.45-.09.9-.18,1.35-.28.12-.03.25-.06.37-.08s-.26,0,.12,0c1,.02,2,.15,2.99.28,2.64.36,5.08.99,7.77.59,1.31-.19,2.57-.57,3.84-.93,1.14-.32,1.48-.29,2.61-.04.85.19,1.69.41,2.52.67.65.2,1.62.41,2.01,1.01.36.57.39,1.39.6,2.03s.62,1.17.83,1.78c.4,1.15,0,2.7-.26,3.84-.3,1.28-.67,2.58-1.29,3.74-.74,1.38.72,2.69,2.05,2.05,1.23-.58,2.34-1.58,3.36-2.46s2.21-1.85,2.74-3.05h-2.59c.82,1.51,1.06,3.19,1.37,4.86.18.97.07,1.59-.39,2.57-.91,1.97-2.22,3.89-3.72,5.46-.81.85-.3,2.72,1.06,2.56,4.37-.5,8.98-2.2,12.4-5.01,1.58-1.3,2.51-2.76,3.04-4.71s1.94-3.43,2.5-5.31c.33-1.11.12-2.29-.02-3.42-.2-1.61-.26-3.28-.54-4.88-.37-2.11-1.56-4.08-2.94-5.68-1.1-1.27-2.47-2.51-3.18-3.78-1.04-1.87-1.87-3.89-3.22-5.56-1.68-2.08-5.01-2.84-7.53-3.23-3.61-.57-7.27-.41-10.89-.08-1.91.18-1.92,3.18,0,3Z"/>
  </g>
  <path d="M155.66,167.03c.59.62.94,1.53,1.29,2.3.43.96.82,1.94,1.23,2.91.35.84.74,1.63,1.19,2.42.51.91,1.03,2,.88,3.08-.08.55-.36,1.04-.55,1.55-.2.54-.36,1.09-.58,1.63-.58,1.46-1.39,2.92-1.77,4.44-.24.94,1.21,1.33,1.45.4.42-1.64,1.29-3.2,1.9-4.77.44-1.11,1.05-2.38,1.07-3.58.03-2.17-1.52-4.05-2.32-5.99-.74-1.79-1.36-4.02-2.73-5.46-.67-.7-1.72.36-1.06,1.06h0Z"/>
  <path d="M163.4,175.68c1.02,2.71,1.38,5.63,1.35,8.51-.02,1.61-.87,2.89-1.61,4.25s-1.24,2.75-1.48,4.25c-.16.94,1.29,1.35,1.45.4.27-1.64.87-3.08,1.68-4.52s1.45-2.75,1.47-4.38c.04-3-.34-6.09-1.4-8.91-.34-.9-1.79-.51-1.45.4h0Z"/>
  <path d="M112.14,164.58c-1.55,1.03-3.32,1.91-4.57,3.32-.64.72-1.18,1.54-1.56,2.43-.19.45-.36.9-.48,1.37-.11.44-.12.97-.36,1.36-.52.82.78,1.57,1.3.76.26-.42.33-.88.43-1.35s.22-.9.39-1.33c.31-.79.78-1.54,1.35-2.18,1.17-1.31,2.82-2.12,4.27-3.09.8-.53.05-1.83-.76-1.3h0Z"/>
  <path d="M104.15,164.37c-.79,2.68-2.92,4.58-4.09,7.07-.62,1.32-1.04,2.73-.91,4.19.07.83.26,1.64.44,2.45.07.3.66,2.04.44,2.22-.75.61.32,1.67,1.06,1.06.44-.36.51-.9.44-1.43-.11-.86-.38-1.71-.57-2.55-.42-1.86-.43-3.43.38-5.19,1.21-2.62,3.4-4.6,4.24-7.42.27-.93-1.17-1.32-1.45-.4h0Z"/>
  <path d="M98.33,164.7c-.87,3.62-2.9,6.86-4.38,10.25s-1.35,6.83,0,10.28c.35.89,1.8.5,1.45-.4-.66-1.69-1.11-3.45-1.07-5.27s.74-3.47,1.49-5.14c1.39-3.07,3.17-6.02,3.96-9.32.22-.94-1.22-1.34-1.45-.4h0Z"/>
  <path d="M89.44,172.07c-1.04,1.64-1.88,3.4-2.45,5.26-.53,1.71-1.14,3.88-.74,5.68.18.81.64,1.43,1.13,2.08.6.79,1.12,1.63,1.56,2.51.92,1.84,1.51,3.83,2.1,5.79.28.92,1.73.53,1.45-.4-.49-1.64-1-3.29-1.67-4.87-.71-1.68-1.7-3.03-2.68-4.53s-.27-3.88.21-5.52c.54-1.87,1.36-3.61,2.41-5.25.52-.82-.78-1.57-1.3-.76h0Z"/>
  <path d="M149.95,167.68c.99.99,1.99,2.01,2.7,3.24.79,1.37.73,2.65.63,4.18-.04.57-.1,1.15-.12,1.72-.02.6.08,1.19.08,1.79,0,1.33-.38,2.57-.23,3.91.11.95,1.61.96,1.5,0-.17-1.42.28-2.75.22-4.16-.05-1.32-.01-2.6.08-3.92.12-1.55-.1-2.92-.88-4.29s-1.85-2.46-2.93-3.54c-.68-.68-1.74.38-1.06,1.06h0Z"/>
  <path d="M142.58,166.26c1.01.92,1.83,1.86,2.41,3.11.7,1.51,1,3.28,1.25,4.93.06.4.56.62.92.52.43-.12.59-.52.52-.92-.28-1.81-.63-3.62-1.41-5.29-.62-1.32-1.57-2.44-2.65-3.41-.71-.65-1.78.41-1.06,1.06h0Z"/>
  <path d="M137.1,168.45s.21.09.06.02c.06.03.12.06.18.09.11.06.21.12.32.19.05.03.09.07.14.1-.11-.09.05.04.07.06.11.09.21.19.32.3.1.1.19.2.28.3.1.12.15.17.19.24.18.24.35.5.5.76.6,1.01.97,1.92,1.27,3.07.24.93,1.69.54,1.45-.4-.32-1.24-.83-2.47-1.5-3.57s-1.6-2.15-2.86-2.61c-.38-.14-.82.15-.92.52-.11.42.14.79.52.92h0Z"/>
  <path d="M119.21,166.58c-.9.53-1.86.96-2.68,1.62s-1.27,1.52-1.46,2.5c-.16.82-.18,1.66-.16,2.5.03.96,1.53.97,1.5,0-.01-.48-.02-.96.02-1.44,0-.1.02-.2.03-.31.01-.17-.02.09.01-.09s.06-.35.1-.52c.04-.15.09-.3.14-.45.01-.03.09-.21,0-.02.03-.06.06-.13.09-.19.06-.12.13-.23.21-.34.11-.18-.06.05.03-.04.04-.04.07-.09.11-.13.08-.09.17-.17.26-.25.05-.04.1-.08.15-.13.09-.08-.13.09.04-.03.22-.15.44-.29.66-.43.56-.33,1.14-.63,1.71-.95.83-.49.08-1.78-.76-1.3h0Z"/>
</svg>