<?xml version="1.0" encoding="UTF-8"?>
<svg xmlns="http://www.w3.org/2000/svg" viewBox="0 0 256 256">
  <defs>
    <style>
      .cls-1 {
        isolation: isolate;
      }

      .cls-2 {
        mix-blend-mode: multiply;
      }

      .cls-3 {
        fill: #fff;
      }

      .cls-4 {
        opacity: .3;
      }

      .cls-5 {
        fill: #435054;
      }
    </style>
  </defs>
  <g class="cls-1">
    <g id="Layer_10" data-name="Layer 10">
      <g class="cls-2">
        <path class="cls-3" d="M62.47,122.94c-2.16-2.97-5.39-4.51-8.37-6.04s-7.69-2.8-9.59.43c-.76,1.29-2.31,4.78-2.66,6.32-.61,2.65.07,7.98,2.27,9.37.98.62,1.68,5.12,3.44,9.42,1.99,4.88,1.01,9.47,1.22,10.86,1.01,6.88,2.4,7.18,4.88,7.65,2,.38,7.02.37,8.48-1.05,1.6-1.56,2.59-5.93,2.83-8.15.45-4.3-2.91-16.85-2.91-16.85,0,0-.14-12.56.41-11.97Z"/>
        <path d="M63.77,122.19c-1.84-2.44-4.23-4.12-6.9-5.54-2.15-1.14-4.35-2.3-6.79-2.68-2.26-.35-4.71-.03-6.27,1.8-1.44,1.69-2.29,4.19-3.02,6.26s-.75,4.23-.43,6.4c.3,2,1,4.61,2.83,5.77.44.28-.03-.35.04.06.03.15.17.34.23.49.2.48.34.99.49,1.49.49,1.61.94,3.24,1.5,4.84.52,1.49,1.16,2.93,1.51,4.48s.42,3.11.39,4.68c-.05,2.31.02,4.35.59,6.63.42,1.69,1.07,3.5,2.55,4.55,1.1.78,2.51,1.01,3.82,1.16,2.18.25,4.6.21,6.71-.42,2.32-.7,3.37-2.49,4.17-4.67.74-2.01,1.29-4.28,1.33-6.43.07-3.96-.98-8.05-1.86-11.88-.33-1.44-.55-3.05-1.09-4.43-.19-.5-.04.54,0-.11.03-.61,0-1.23-.01-1.84,0-1.91,0-3.82.04-5.73.02-.83.04-1.65.09-2.47.02-.3.04-.6.07-.9s.11.15,0-.02c0-.05.02-.1.03-.15.12-.37-.08-.13-.6.73l-1.16.15-.62-.37c.65.5,1.49.62,2.12,0,.52-.51.64-1.63,0-2.12-1.54-1.19-2.6.2-2.77,1.66-.15,1.31-.16,2.64-.18,3.96-.04,2.43-.22,4.95-.02,7.38.06.73.33,1.46.5,2.17.42,1.68.81,3.37,1.17,5.06.7,3.28,1.67,6.94,1.14,10.31-.3,1.91-.73,4.78-2.13,6.24-1.15,1.2-3.81,1.03-5.33,1-1.13-.03-2.82-.19-3.56-.61-.91-.52-1.37-2.21-1.66-3.5-.47-2.09-.35-3.9-.35-6.01,0-3.15-.79-5.9-1.85-8.83-.9-2.48-1.34-5.21-2.49-7.6-.34-.71-.84-1.04-1.35-1.59-.62-.67-.91-1.62-1.13-2.49-.55-2.2-.52-4.39.26-6.51.42-1.13.91-2.24,1.44-3.32.45-.92.88-1.82,1.9-2.19,2.1-.76,4.71.41,6.55,1.35,2.73,1.39,5.61,2.82,7.5,5.33,1.15,1.52,3.75.03,2.59-1.51Z"/>
      </g>
      <g>
        <path class="cls-3" d="M195.25,123.47c2.31-2.97,4.73-6.04,7.92-7.56s6.25-.8,8.29,2.43c.81,1.29,1.78,2.53,2.16,4.06.65,2.65,1.19,6.88-.11,9.18-.83,1.46-5.22,4.83-4.95,6.55.24,1.58-1.33,7.67-.95,9.21.33,1.35-.77,7.57-1.45,8.74-3.55,6.11-2.37,3.43-4.67,5.32-1.81,1.48-7.61.31-9.03-1.55-1.62-2.13-1.89-9.05-1.89-9.05,0,0,5.28-27.92,4.69-27.33Z"/>
        <path d="M196.31,124.53c2.87-3.68,9.48-11.99,13.85-5.44.84,1.27,1.72,2.51,2.08,4.01.33,1.38.53,2.79.56,4.21.02,1.17,0,2.55-.63,3.58-.5.81-1.33,1.48-1.98,2.16-1.36,1.4-3.09,3.01-3.13,5.09s-.47,3.99-.75,5.99c-.13.91-.3,1.85-.25,2.77.04.86.15,1.24.05,2.34-.17,1.94-.46,4.09-1.17,5.92-.19.5.1-.2-.07.17-.19.4-.45.78-.68,1.15-.28.48-.57.96-.87,1.43-.22.35-.44.72-.7,1.05.08-.1-.3.47-.11.13-.15.25.29-.11,0,.01-.24.1-.49.18-.72.3-.52.26-.91.7-1.42.95-1.67.8-4.69-.02-6.16-.95s-1.61-3.44-1.83-4.99c-.12-.87-.2-1.75-.27-2.63-.02-.28.02-1.44-.11-.6.09-.62.23-1.23.35-1.84.58-3.08,1.15-6.16,1.71-9.25.73-3.99,1.45-7.97,2.11-11.97.21-1.28.43-2.57.57-3.86.03-.24.07-.49.05-.74-.08-1.03-1.27-2.12-2.3-1.34-1.51,1.16-.02,3.76,1.51,2.59l-.34.14-1.16-.15c-.22-.12-.84-1-.72-1.19-.02.03,0,.1,0,.13-.04.13-.02.3-.04.43-.01.12-.07.6-.05.43.01-.11-.07.5-.1.67-.22,1.49-.47,2.97-.73,4.46-.67,3.91-1.38,7.81-2.1,11.71-.51,2.8-1.03,5.6-1.56,8.4-.12.62-.17,1.17-.12,1.81.15,2.18.37,4.42.97,6.53.66,2.33,1.91,3.72,4.18,4.59,2.12.82,4.92,1.29,7.1.44.73-.28,1.26-.81,1.94-1.17-.35.18-.04.02.12-.04.24-.1.46-.19.68-.33.6-.39,1.01-1.01,1.41-1.59.72-1.06,1.46-2.2,2.02-3.35.95-1.95,1.2-4.36,1.46-6.49.25-2.02-.07-3.3.19-5.18.3-2.2.91-4.43.89-6.66,0-.65.45-1.23,1.01-1.87.8-.91,1.68-1.74,2.5-2.63,1.87-2,2.33-4.41,2.19-7.1-.08-1.49-.29-3-.64-4.45-.41-1.7-1.33-3.1-2.27-4.55-1.63-2.5-4.05-4.36-7.18-4.09s-5.99,2.43-8.15,4.72c-1.2,1.27-2.28,2.65-3.35,4.02-1.17,1.51.94,3.64,2.12,2.12Z"/>
      </g>
      <path d="M61.07,127.96c-2.53-1.59-4.12-4.37-6.74-5.82s-5.36-.14-7.03,2.12c-2.92,3.93.55,8.2,3.1,11.21.55.65.96,1.12,1.38,1.77.07.12.22.3.07.08.15.21,0,.18.04.02,0,0,.12-.38.08-.37-.14.06-.25.56-.3.72-.61,2.16.32,4.88.9,6.95.61,2.19,1.25,4.43,2.03,6.57.31.87,1.06,1.57,2.06,1.3.77-.21,1.12-.91,1.38-1.59,1.01-2.63,1.94-8.63,5.61-8.32,1.92.16,1.91-2.84,0-3-4.08-.35-6.19,3.83-7.36,7.07-.26.71-.48,1.43-.71,2.15-.09.28-.18.57-.27.85-.04.11-.08.23-.12.34-.06.16-.05.13.04-.08-.02.05-.04.1-.07.14l-.03.06c.47-.71,1.23-.69,2.29.06.05-.04.07.31.04.07-.03-.29-.18-.61-.27-.89-.34-1.08-.69-2.15-1.03-3.23-.67-2.16-1.49-4.45-1.62-6.72-.02-.34-.02-.71,0-.88.08-.45-.09.24.05-.13.06-.17.17-.32.22-.5.21-.72-.02-1.46-.36-2.09-1.46-2.68-4.85-4.69-5.24-7.91-.2-1.65,1.76-4.09,3.51-3.27,1.24.58,2.21,1.8,3.15,2.76,1.14,1.15,2.32,2.26,3.7,3.13,1.64,1.03,3.15-1.56,1.51-2.59h0Z"/>
      <path d="M196.97,130.67c1.97-.94,3.57-2.7,5.16-4.15.8-.74,1.61-1.5,2.51-2.11.26-.18.65-.4.83-.48.21-.09.18-.05.18-.05.02.13-.49-.25-.47-.29-.02.03,1.85,2.32,1.99,2.67.23.58.24,1.05.06,1.54-.4,1.12-1.72,2.19-2.81,3.08-1.21.98-2.53,1.93-3.38,3.26-.41.65-.69,1.41-.7,2.19,0,.89.45,1.59.6,2.44.46,2.57-.78,5.51-1.63,7.88-.34.94-1.01,2.12-1.09,3.12-.02.29-.05.03.73-.26,1.03-.39.49-.22,1.21.01-.01,0-.08-.09-.09-.09,0,0,.13.19-.01-.05-.1-.16-.18-.32-.27-.49-1.03-1.99-3.04-9.5-6.57-7.41-1.66.99-.15,3.58,1.51,2.59.21-.13-.56-.02-.71,0-.06.01-.1-.13-.02,0,.21.34.28.3.51.67.5.8.89,1.68,1.28,2.54.61,1.38,1.11,3.29,2.24,4.36.71.68,1.8.74,2.51.01.64-.65.8-1.85,1.1-2.67,1.02-2.84,2.16-5.72,2.34-8.76.07-1.29-.33-2.62-.6-3.59-.07-.26-.07-.22-.04-.37.05-.27.09-.34.37-.73.76-1.07,2.48-2.2,3.64-3.21,1.31-1.13,2.57-2.52,2.9-4.28.45-2.43-1-4.25-2.48-5.97-1.93-2.24-4.26-.68-6.11.85-2.02,1.67-3.82,4-6.21,5.15-1.74.83-.22,3.42,1.51,2.59h0Z"/>
      <g class="cls-4">
        <path class="cls-5" d="M59.61,130.89c-1.45-1.98-2.38-4.67-4.49-6.08s-3.96.03-5.21,1.8l2.8.76c.06-.5,0-.98-.03-1.48-.12-1.57-1.89-1.93-2.8-.76-2.8,3.64,1.26,7.33,3.55,9.88.46.51,1.08,1.12,1.27,1.8.24.9-.46,1.98-.62,2.87-.45,2.55.87,5.09,1.64,7.45.51,1.56,2.98,1.36,2.95-.4s.45-4.83,2.81-4.77c1.93.05,1.93-2.95,0-3-4.16-.11-5.88,4.22-5.81,7.77l2.95-.4c-.64-1.97-2.08-4.44-1.48-6.55.27-.94.66-1.83.61-2.82s-.48-1.92-1.07-2.73c-1.05-1.43-2.4-2.61-3.51-3.99-.92-1.14-1.68-2.31-.69-3.6l-2.8-.76c.04.5.09.98.03,1.48-.19,1.63,2.04,1.83,2.8.76.21-.29.45-.53.68-.81.15-.18.38-.05.05-.13.51.11.94.78,1.22,1.16.96,1.29,1.63,2.76,2.58,4.05.48.66,1.3.97,2.05.54.65-.37,1.02-1.4.54-2.05h0Z"/>
      </g>
      <g class="cls-4">
        <path class="cls-5" d="M194.66,142.28c-.19-.02.05.07.13.14.16.16.28.35.42.59.34.58.59,1.2.87,1.8.54,1.14,1.44,2.6,2.9,2.55.96-.03,1.95-.95,2.54-1.64.63-.75.99-1.63,1.09-2.6.16-1.66-.51-3.22-.8-4.82-.57-3.12,2.57-5.53,4.34-7.72,1.01-1.26,2.28-2.9,1.84-4.63-.38-1.51-1.86-2.21-3.32-2.11-1.91.13-3.38,1.5-4.63,2.82-.71.76-1.38,1.56-2.1,2.31-.57.59-1.22,1.33-2.01,1.62-1.8.66-1.02,3.56.8,2.89,2.37-.86,3.86-3.04,5.53-4.8.64-.67,1.46-1.55,2.29-1.79.12-.04.68-.07.65-.04.03-.04.02.04-.09-.12-.16-.23.09-.21-.04-.03-.24.36-.36.84-.62,1.21-.27.39-.58.76-.89,1.12-.82.98-1.67,1.93-2.46,2.94-1.48,1.89-2.63,3.75-2.32,6.24.16,1.28.62,2.49.81,3.75s-.28,1.96-1.36,2.61l1.16-.15c-.16-.03-.01.11-.14-.07.05.08-.24-.39-.31-.54-.33-.61-.57-1.26-.89-1.88-.73-1.43-1.74-2.45-3.37-2.65-.81-.1-1.49.76-1.5,1.5,0,.89.7,1.4,1.5,1.5h0Z"/>
      </g>
    </g>
  </g>
</svg>