<?xml version="1.0" encoding="UTF-8"?>
<svg id="Layer_11" data-name="Layer 11" xmlns="http://www.w3.org/2000/svg" viewBox="0 0 256 256">
  <defs>
    <style>
      .cls-1 {
        fill: #fff;
      }

      .cls-2 {
        opacity: .3;
      }

      .cls-3 {
        fill: #435054;
      }
    </style>
  </defs>
  <g>
    <path class="cls-1" d="M64.71,120.74c.57.6-3.86-1.81-3.29-1.21-2.23-2.99-2.14-6.06-5.24-7.62s-8.38-2.13-10.4,1.09c-.8,1.28-4.07,3.65-4.3,8.32-.44,8.66,2.65,12.65,4.43,20.4.62,2.73,5.05,6.3,6.67,9.24,1.25,2.27,1.67,6.12,4.54,7.99,5.2,3.39,9-.02,10.86-2.88,1.55-2.38-2.23-9.18-2.23-9.18l-1.83-16.93.81-9.23Z"/>
    <path d="M63.65,121.8l-.34-.58.39-1.46h-.02c.35-.13.71-.28,1.06-.42.49,0-.02-.08-.28-.2-.46-.21-.91-.43-1.36-.63-.94-.42-1.87-.93-2.79-.11-.38.33-.55.99-.39,1.46.11.32.23.48.44.74,1.07,1.3,3.35-.43,2.36-1.82-1.61-2.25-2.17-5.26-4.29-7.13-1.89-1.67-4.75-2.4-7.23-2.47s-5.05.73-6.55,2.83c-.86,1.22-2.38,2.7-3.23,4.25-2.85,5.17-1.34,12.01.41,17.31.94,2.85,1.8,5.68,2.63,8.56.7,2.42,2.57,4.31,4.19,6.17.88,1.01,1.8,2.02,2.49,3.18.61,1.02.93,2.17,1.35,3.27,1.08,2.85,2.59,5.11,5.47,6.37,2.59,1.13,5.46.96,7.83-.63,1.73-1.16,3.76-3.11,4.01-5.29s-.6-4.3-1.41-6.21c-.31-.73-.64-1.45-1-2.16-.09-.18-.17-.44-.31-.59-.27-.31.13,1.04.15.56.03-.96-.22-2.01-.32-2.96l-.6-5.51c-.3-2.74-.88-5.61-.9-8.37-.01-1.59.28-3.24.42-4.83.13-1.46.25-2.91.38-4.37.17-1.92-2.83-1.91-3,0-.23,2.68-.47,5.37-.7,8.05-.14,1.61.11,3.14.28,4.75l1.09,10.08c.11.99.21,1.99.32,2.98.1.84.46,1.44.82,2.19.75,1.55,1.48,3.22,1.75,4.93s-.99,3.06-2.38,4.07c-2.11,1.53-4.75,1.29-6.78-.32-1.89-1.5-2.37-4.15-3.27-6.26s-2.55-3.87-4.06-5.6c-.81-.93-1.65-1.87-2.31-2.92s-.81-2.2-1.13-3.36c-1.37-4.99-3.63-9.72-3.88-14.97-.14-2.97.13-5.64,1.99-8.05.51-.66,1.1-1.25,1.63-1.9.62-.77,1.07-1.49,2.04-1.88,2.08-.83,4.86-.33,6.8.67,2.59,1.32,3.11,4.85,4.7,7.08l2.36-1.82.34.58-.39,1.46h.02c-.35.13-.71.28-1.06.42-.49,0,.02.08.28.2.46.21.91.43,1.36.63.94.42,1.87.93,2.79.11.38-.33.55-.99.39-1.46-.11-.32-.23-.48-.44-.74-1.23-1.49-3.34.64-2.12,2.12Z"/>
  </g>
  <g>
    <path class="cls-1" d="M192.11,121.83c-.27.3,1.91-1.06,3.76-3.06s3.38-4.63,5.83-6.87,7.94-1.24,9.92,1.95c.79,1.27,3.4,2.78,3.79,4.3.67,2.63-.25,9.21-1.41,11.54-.73,1.48-2.01,9.23-2.5,10.9-1.62,5.52-6.6,8.04-7.2,9.22-3.16,6.19-.46,6.77-5.49,9.77-7.64,4.56-11.65-4.63-10.93-5.04l1.83-7.43,2.4-25.26Z"/>
    <path d="M190.82,121.08l-.02.04c-.52.81-.01,1.97.9,2.2,1.06.28,2.06-.69,2.82-1.28,1.37-1.07,2.57-2.29,3.65-3.65s2.14-2.85,3.35-4.17c.91-.99,1.75-1.82,3.13-2,1.2-.15,2.5.11,3.59.63,1.22.59,1.78,1.49,2.63,2.47s2.21,1.73,2.92,2.87c.52.85.38,2.13.34,3.08-.16,4.67-1.99,8.88-2.91,13.4-.42,2.06-.67,4.26-1.39,6.24-.92,2.52-2.8,4.45-4.8,6.15-.57.49-1.19.94-1.67,1.52-.85,1.03-1.33,2.51-1.74,3.77-.48,1.46-.54,3.39-1.45,4.39-1.43,1.57-4.06,2.92-6.21,2.54-1.7-.3-3.07-1.57-3.95-3-.41-.67-.44-.94-.69-1.53-.07-.16-.06.13,0,.05.11-.14-.6,1.29-.24.64.14-.26.25-.47.33-.75.51-1.75.88-3.56,1.31-5.33.48-1.94.66-3.8.85-5.79.67-7.07,1.34-14.14,2.01-21.21l.05-.52c.18-1.92-2.82-1.91-3,0-.65,6.87-1.3,13.73-1.95,20.6l-.39,4.07c-.01.13-.13.85-.03.4s-.08.23-.1.33l-.3,1.22-.81,3.27c-.16.66-.59,1.6-.56,2.29,0,.15-.27.38.15-.2.49-.67-.15.14-.23.38-.08.26-.09.51-.07.78.04.78.39,1.54.74,2.22.91,1.77,2.4,3.41,4.19,4.31,2.44,1.23,5.12.99,7.54-.2,2.07-1.01,4.13-2.49,4.85-4.77.27-.85.39-1.74.63-2.6.18-.66.4-1.32.67-1.95.14-.35.3-.69.47-1.02.38-.76.07-.25.21-.42.59-.68,1.39-1.22,2.07-1.82,1.05-.92,2.01-1.92,2.85-3.03,1.61-2.12,2.41-4.45,2.93-7.01s.91-5.02,1.6-7.47c.06-.21.12-.41.18-.61.04-.11.15-.41.04-.14.22-.54.46-1.07.64-1.63.43-1.37.68-2.8.88-4.22.34-2.46.94-5.99-.61-8.16-.9-1.26-2.26-2.05-3.22-3.24-.86-1.08-1.61-2.02-2.84-2.72-2.42-1.38-5.69-1.82-8.23-.52-3.08,1.58-4.82,5.29-7.1,7.76-.66.71-1.38,1.38-2.14,1.98-.22.17-.45.34-.68.5-.75.51-.4,0,.5.23l.9,2.2.02-.04c1.04-1.63-1.55-3.14-2.59-1.51Z"/>
  </g>
  <path d="M61.91,124.65c-1.05.15-2.09-.75-2.79-1.41-1.04-.98-1.92-2.11-2.84-3.19-.8-.94-1.64-1.94-2.71-2.59-1.24-.75-2.41-.63-3.72-.1-5.66,2.3-1.67,8.69-.08,12.4.46,1.07.92,2.22,1.07,3.38.13,1.02-.19,1.66-.41,2.61-.56,2.42.95,5.28,2.07,7.32,1.28,2.34,2.92,4.88,5.14,6.44,1.64,1.15,3.77.82,3.71-1.51-.06-2.04-.79-4.02-.89-6.05-.05-.95-.05-1.89.33-2.49.11-.17.22-.31.49-.4.44-.14.96-.1,1.48,0,1.89.34,2.7-2.55.8-2.89-2.11-.38-4.37-.1-5.46,1.98-.93,1.77-.68,3.96-.4,5.86.13.89.31,1.78.47,2.67.03.19.07.37.1.56.01.07.09.64.05.3.01.12.02.24.04.36,0,.06,0,.15.01.21.05.22-.08.08.02.06-.02,0,.15-.38.29-.52.21-.2.8-.22.99-.37.12-.09.04.01.03-.02-.03-.06-.64-.43-.83-.6-.9-.81-1.66-1.79-2.34-2.79-1.33-1.95-2.83-4.35-3.14-6.74-.11-.8.25-1.09.42-2.12.2-1.15.07-2.32-.21-3.45-.6-2.4-1.84-4.57-2.81-6.83-.36-.84-.78-1.88-.88-2.7-.05-.37-.02-.79.03-.96.07-.21.14-.38.38-.58.4-.32,1.02-.54,1.54-.63-.28.05-.11-.04.07.09s.34.22.5.35c1.08.87,1.93,2.08,2.83,3.13,1.95,2.29,4.24,4.59,7.48,4.11,1.9-.28,1.09-3.17-.8-2.89h0Z"/>
  <path d="M191.13,129.45c5.28,1.8,8.77-3.64,11.73-7.01.62-.71,1.28-1.48,2.08-1.93.28-.16.41-.23.58-.21.26.03,1.25.78,1.67,1.2,1.95,1.91,1.07,4.4-.21,6.43-1.51,2.4-3.6,4.3-5.5,6.38-.55.6-.59,1.52,0,2.12,1.76,1.79.59,4.58-.51,6.41-.74,1.24-1.66,2.36-2.7,3.37-.46.44-.94.87-1.46,1.24-.23.17-.47.32-.71.47-.12.07-.24.13-.35.2-.08.04-.16.09-.23.13-.18.09-.15.08.09-.03.04.02.74.17.7.15.54.24.41.27.73.69-.13-.17.06-.12,0,.08.07-.22.01-.59.04-.83,0-.08.06-.46.12-.79.07-.43.15-.87.21-1.3.29-1.81.61-3.76.17-5.58-.53-2.18-2.37-3.37-4.58-3.09-1.89.23-1.91,3.24,0,3,.46-.06.89-.07,1.21.03.07.02.17.1.27.27.28.47.32,1.36.29,2.19-.07,1.87-.6,3.68-.73,5.54-.14,2.15,1.46,3.15,3.34,2.08,2.75-1.57,5.1-4.2,6.57-6.99,1.57-2.98,2.23-6.72-.35-9.35v2.12c3.37-3.68,9.58-8.93,7.34-14.61-1.07-2.71-4.35-5.52-7.3-4.02-2.18,1.11-3.65,3.43-5.19,5.23-1.62,1.9-3.76,4.47-6.53,3.52-1.83-.62-2.62,2.27-.8,2.89h0Z"/>
  <g class="cls-2">
    <path class="cls-3" d="M61.91,126.55c-1.9.68-4.45-1.75-5.66-2.97-1.4-1.41-2.89-4.52-5.38-3.59-3.05,1.14-1.71,5.32-.73,7.39.69,1.45,1.55,2.82,2.23,4.28s.78,3.07.7,4.72c-.09,1.88-.12,3.68.57,5.47s1.74,3.22,2.97,4.6c1.01,1.13,2.91-.06,2.51-1.46-.45-1.57-1.77-3.3-1.55-4.99.2-1.57,2-3.4,3.68-3.09,1.89.35,2.7-2.54.8-2.89-2.85-.53-5.68,1.2-6.9,3.79-.62,1.32-.74,2.78-.37,4.18.35,1.31,1.07,2.49,1.45,3.8l2.51-1.46c-1.2-1.34-2.25-2.86-2.62-4.65s.08-3.57-.03-5.34c-.14-2.06-.9-3.83-1.86-5.64-.77-1.44-1.84-2.98-2.18-4.6-.06-.3-.02-1.35-.03-1.35-.57-.07-.68-.02-.31.15.1.1.21.2.31.3.21.2.4.43.58.65.79.96,1.5,1.88,2.45,2.7,1.94,1.68,4.95,3.88,7.67,2.9,1.8-.65,1.03-3.55-.8-2.89h0Z"/>
  </g>
  <g class="cls-2">
    <path class="cls-3" d="M191.48,131.85c1.91,2.52,5.09.59,7.04-.87,1.03-.78,2.06-1.6,2.93-2.56s1.45-2.05,2.14-3.1c.38-.57,1.48-2.55,2.32-2.5.53.03-.08,1.82-.22,2.22-.98,2.8-2.9,4.94-4.52,7.37-1.27,1.91-1.77,3.92-1.68,6.21s-.89,4.69-2.37,6.41l2.56,1.06c.02-1.37.14-2.74-.01-4.1-.18-1.58-.71-3.06-1.4-4.48-.44-.91-1.05-1.81-2.07-2.14s-2.09-.04-3.09.17c-1.89.41-1.09,3.3.8,2.89.42-.09,1.26-.3,1.39-.21-.18-.12.16.36.19.41.26.46.47.96.65,1.45.75,1.99.58,3.92.55,6.01-.01,1.23,1.7,2.07,2.56,1.06,1.36-1.59,2.52-3.77,3.05-5.8s-.22-4.22.77-6.24c.86-1.75,2.27-3.17,3.32-4.82.68-1.06,1.27-2.19,1.76-3.35,1.02-2.38,1.81-6.88-2.04-7.1-3.25-.19-4.92,3.96-6.48,6.13-.13.18-.67.74-1.05,1.1-.53.5-1.08.97-1.67,1.41-.68.52-1.43,1.04-2.22,1.39-.24.11-.64.14-.86.27-.12.07-.05-.19.26.21-1.15-1.52-3.76-.03-2.59,1.51h0Z"/>
  </g>
</svg>