<?xml version="1.0" encoding="UTF-8"?>
<svg id="Layer_12" data-name="Layer 12" xmlns="http://www.w3.org/2000/svg" viewBox="0 0 256 256">
  <defs>
    <style>
      .cls-1 {
        fill: #fff;
      }

      .cls-2 {
        opacity: .3;
      }

      .cls-3 {
        fill: #435054;
      }
    </style>
  </defs>
  <g>
    <path class="cls-1" d="M64.59,125.05c.57.6-3.75-4.12-3.18-3.52-2.23-2.99-2.14-6.06-5.24-7.62s-4.6-3.34-8.14-1.95-4.14,6.98-4.52,8.51c-.66,2.64-2.08,9.85-.83,12.16.79,1.47,4.23,7.81,5.22,9.05,4.68,5.83,3.16,13.51,8.45,15.5,8.51,3.2,10.14-2.04,10.14-2.04l-.77-5.26-.85-16.57-.29-8.28Z"/>
    <path d="M63.53,126.11s.03.03.05.05c.99.97,3.1,0,2.51-1.46-.34-.86-1.2-1.57-1.81-2.24-.39-.43-.78-.86-1.17-1.28-.15-.16-.29-.35-.46-.5-.33-.31-.24-.57.15.4l-2.51,1.46s.03.03.05.05c1.15,1.19,3.37-.41,2.36-1.82-1.68-2.34-2.24-5.48-4.55-7.35-1.16-.93-2.62-1.61-3.93-2.31-1.2-.65-2.48-1.15-3.87-1.15-5.65.03-7.23,5.34-8.23,9.86-.47,2.12-.91,4.22-1.19,6.38s-.63,4.92.37,7.04c1.67,3.55,3.81,6.92,6,10.16,1.68,2.48,2.37,5.36,3.24,8.19.7,2.28,1.59,4.6,3.57,6.07s5.27,2.23,7.81,2.04c1.75-.13,3.49-.75,4.72-2.05.52-.55,1.12-1.33,1.3-2.1.14-.6-.09-1.41-.18-2.02l-.44-3.03c-.04-.26-.07-.53-.11-.79-.08-.49.02.22.02.13,0-.36-.04-.73-.06-1.09l-.24-4.69c-.32-6.34-.62-12.67-.84-19.02-.07-1.93-3.07-1.93-3,0,.16,4.67.35,9.33.58,13.99l.5,9.72c.11,2.16.33,4.47.84,6.57.11.44-.03.22.03-.55-.02.23.15-.24.06-.13s-.16.3-.23.43c-.21.37,0,.08-.26.35-.83.88-1.98,1.3-3.36,1.3-2.06,0-4.86-.57-6.19-2.28-1.42-1.82-1.81-4.39-2.47-6.54-.83-2.69-1.99-4.99-3.62-7.27.19.27-.23-.37-.3-.46-.25-.39-.49-.79-.72-1.18-.54-.91-1.06-1.83-1.58-2.75-.79-1.41-1.86-2.98-2.42-4.42-.7-1.81-.2-4.33.08-6.18.3-1.99.77-3.93,1.17-5.89s.89-4.45,2.5-5.84c2.53-2.18,5.4.01,7.72,1.3,2.58,1.44,3.07,4.8,4.7,7.08l2.36-1.82s-.03-.03-.05-.05c-.99-.97-3.1,0-2.51,1.46.34.86,1.2,1.57,1.81,2.24.39.43.78.86,1.17,1.28.15.16.29.35.46.5.33.31.24.57-.15-.4l2.51-1.46s-.03-.03-.05-.05c-1.34-1.39-3.46.73-2.12,2.12Z"/>
  </g>
  <g>
    <path class="cls-1" d="M191.96,123.49s3.87-2.32,4.45-2.88c2.41-2.33,3.97-5.16,6.9-6.76,2.93-1.6,7.26-3.17,10.45-1.2,2.68,1.65,1.3,15.76-.42,20.07-1.34,3.37-5.77,8.01-6.54,9.4-1.61,2.88-1.75,10.48-7.4,13.63-2.36,1.32-4.9.67-8.89-2.16-1.33-.94-.79-6.49-.79-6.49l2.24-23.61Z"/>
    <path d="M192.71,124.78c1.27-.76,2.56-1.53,3.78-2.37,2-1.39,3.33-3.5,5.01-5.23,1.96-2.02,4.73-3.43,7.52-3.85,1.27-.19,2.46-.08,3.64.43.83.36.09-.05.29.17.24.26-.06-.16.04.05.15.35.18.31.31.74.48,1.63.47,3.4.45,5.08-.03,2.12-.19,4.24-.48,6.34-.24,1.79-.55,3.61-1.1,5.34-.63,2.03-2,3.81-3.28,5.48-1.14,1.48-2.61,2.89-3.48,4.55s-1.17,3.42-1.68,5.12c-.97,3.29-3.36,9.18-7.79,8.14-1.28-.3-2.45-1-3.54-1.7-.93-.6-1.06-.58-1.22-1.67-.2-1.41-.1-2.89.02-4.3.16-1.78.34-3.56.51-5.34.58-6.09,1.16-12.19,1.73-18.28.18-1.92-2.82-1.91-3,0-.56,5.95-1.13,11.9-1.69,17.85-.18,1.94-.38,3.87-.55,5.81-.15,1.7-.2,3.45.1,5.14.47,2.62,3.02,3.87,5.29,4.84s4.66,1.06,6.83-.25,3.81-3.43,4.86-5.76c.94-2.09,1.47-4.29,2.13-6.47.52-1.72,1.44-2.86,2.56-4.25,1.67-2.08,3.44-4.21,4.54-6.65.76-1.71,1.13-3.57,1.43-5.41.73-4.35,1.25-9.07.45-13.45-.4-2.21-1.41-3.62-3.64-4.3-3.31-1.02-6.99.25-9.92,1.81-3.22,1.71-4.85,4.83-7.51,7.16,0,0-.37.27-.64.45-.49.33-1,.65-1.5.96-.67.42-1.33.82-2.01,1.23-1.65.99-.15,3.59,1.51,2.59Z"/>
  </g>
  <g class="cls-2">
    <path class="cls-3" d="M62.92,130.53c-2.67-.12-4.9-2.57-6.5-4.47-1.3-1.54-2.39-3.23-3.45-4.94-.59-.95-2-.99-2.59,0-1.55,2.6-1.32,5.51-.28,8.25.83,2.21,1.52,4.53,3.43,6.04.47.37.97.71,1.48,1.02.6.36,1.44.64,1.95,1.12.35.33.33.25.14.85-.17.55-.42,1.07-.6,1.61-.43,1.3-.33,2.64-.63,3.96-.32,1.4-.4,2.63.06,4.02.43,1.29,2.6,1.56,2.89,0,.23-1.22.94-2.39,1.6-3.41.6-.94,1.7-2.67,2.94-2.8,1.9-.2,1.92-3.2,0-3-2.22.24-3.77,1.81-5.02,3.54-1.01,1.4-2.09,3.15-2.41,4.88h2.89c-.42-1.25-.07-2.14.14-3.39.22-1.34.23-2.48.71-3.76.37-.97.74-2,.47-3.04-.34-1.3-1.44-1.92-2.53-2.54-.96-.54-2.02-1.07-2.78-1.89-.67-.73-.9-1.69-1.27-2.59-.99-2.39-2.04-4.93-.6-7.36h-2.59c2.77,4.44,6.72,10.62,12.54,10.89,1.93.09,1.93-2.91,0-3h0Z"/>
  </g>
  <g class="cls-2">
    <path class="cls-3" d="M192.39,139.02c.27-.03-.02-.06-.13-.1-.18-.07.01-.1.02.01,0,.06.26.38.37.59.33.64.58,1.33.87,2,.62,1.44,1.43,2.76,2.98,3.31.59.21,1.41-.13,1.69-.69.91-1.8,2.74-4.1,1.61-6.2-.27-.5-1.32-1.34-1.24-1.94.05-.37.63-.81.87-1.04.45-.43.92-.84,1.38-1.25,3.36-3.04,7.24-6.76,7.16-11.66-.01-.76-.68-1.57-1.5-1.5-3.2.27-4.62,3-6.86,4.89-1.07.9-2.16,1.9-3.39,2.58-.4.22-.81.39-1.23.56-.25.1-.52.18-.76.29-.17.08-.7.17-.06.1-.81.09-1.49.63-1.5,1.5,0,.74.7,1.59,1.5,1.5,2.13-.23,4.25-1.71,5.85-3.01,1.16-.94,2.37-1.86,3.37-2.96.85-.93,1.69-2.34,3.08-2.46l-1.5-1.5c.07,4.38-4.23,7.67-7.16,10.33-1.56,1.42-2.88,3.09-1.83,5.24.25.5.58.96.93,1.39.3.37.28.29.12.82-.3.98-.97,1.87-1.44,2.78l1.69-.69s-.19-.13-.32-.29c-.2-.24-.36-.58-.51-.87-.35-.7-.62-1.44-.93-2.16-.56-1.28-1.52-2.78-3.14-2.61-1.9.19-1.92,3.2,0,3h0Z"/>
  </g>
  <path d="M193.06,130.54c3.38-.85,6.28-2.73,8.95-4.91,1.84-1.51,3.55-3.62,5.71-4.66h-1.51c2.79,1.47-.83,6.49-1.94,8.05-1,1.41-2.23,2.68-3.52,3.84-.72.65-1.49,1.37-2.36,1.81-.97.49-.99,2.11,0,2.59.25.12-.01-.2.1.08-.08-.2.05.37.05.31.07.5,0,1.04-.08,1.53-.2,1.35-.59,2.68-.99,3.98-.37,1.23-.83,2.44-1.16,3.69-.03.12-.07.23-.1.35-.06.17-.04.14.05-.09l-.03.06c.8-.7,1.48-.8,2.04-.3.12-.06.16.36,0-.06-.02-.04-.19-.41-.13-.28-1.05-2.34-2.72-9.32-6.86-7.7-1.78.69-1,3.6.8,2.89.09-.04.39-.2.16-.09.11-.05.08-.01.08-.01-.16-.09.27.18.16.09-.02-.02.23.22.31.31.42.49.84,1.3,1.15,1.98.65,1.4,1.01,2.96,1.76,4.32.92,1.66,2.83,1.43,3.42-.33.75-2.22,1.49-4.49,2.01-6.78.45-1.99,1.13-5.42-1.21-6.56v2.59c2.04-1.03,3.91-3.04,5.38-4.73,2.12-2.44,4.28-5.63,4.82-8.89.2-1.23.14-2.52-.53-3.6-.7-1.14-2.09-2.24-3.44-1.63-1.94.88-3.55,2.78-5.13,4.15-2.58,2.24-5.38,4.24-8.73,5.08-1.87.47-1.08,3.36.8,2.89h0Z"/>
  <path d="M63.32,129.31c.1-.02-.3-.05-.28-.04-.23-.06-.39-.12-.58-.21-.57-.28-1.08-.69-1.54-1.12-1.2-1.09-2.24-2.34-3.25-3.6-1.52-1.87-3.2-4.83-5.57-5.75-2.7-1.04-4.13,2.39-4.44,4.48-.46,3.06.09,6.29,1.25,9.14,1.35,3.32,3.7,6.42,7.3,7.4l-.36-2.74c-1.8.91-1.83,3.67-1.8,5.39.04,2.18.29,4.51.96,6.59.24.75.55,1.63,1.28,2.06.92.54,1.95.1,2.43-.79,1.23-2.27,1.68-5.72,4.72-6.31,1.89-.37,1.09-3.26-.8-2.89-2.6.51-4.35,2.78-5.45,5.04-.28.57-.53,1.16-.76,1.75-.1.26-.2.51-.29.78l-.07.2c-.09.24-.08.25.01,0-.2.31.08.26.84-.15.43-.34.79-.36,1.09-.06.54-.32-.12.48.05.01.05-.14.04.12-.04-.09-.06-.16-.11-.33-.16-.5-.49-1.64-.72-3.37-.79-5.08-.03-.77-.05-1.75.05-2.41.05-.33.16-.63.23-.95.02-.07.04-.02.01,0,1.17-.59.84-2.42-.36-2.74-4.94-1.34-7.01-8.4-6.44-12.93.11-.83.42-1.81.75-2.26.03-.04.2-.19.21-.22.01-.23.15.08.04-.04-.17-.18-.56.22-.68.03.18.29.53.33.8.58,1.98,1.85,3.48,4.21,5.26,6.24s4.17,4.51,7.19,4.08c1.9-.28,1.09-3.17-.8-2.89h0Z"/>
</svg>