<?xml version="1.0" encoding="UTF-8"?>
<svg id="Layer_13" data-name="Layer 13" xmlns="http://www.w3.org/2000/svg" viewBox="0 0 256 256">
  <defs>
    <style>
      .cls-1 {
        fill: #fff;
      }

      .cls-2 {
        opacity: .3;
      }

      .cls-3 {
        fill: #435054;
      }
    </style>
  </defs>
  <g>
    <path class="cls-1" d="M64.71,123.33c.57.57-3.86-2.68-3.29-2.11-2.23-2.85-3.03-6.01-9.08-5.42-15.3,1.51-12.92,10.13-13.3,11.59-.66,2.52.75,10.78,2,12.99.79,1.4,6.78,8.99,7.73,9.88,3.82,3.58,4.95,4.59,7.02,5.32,2.44.86,7.02,1.29,10.35,0,1.98-.77-.4-7.31-.4-7.31l-1.83-16.14.81-8.8Z"/>
    <path d="M63.65,124.39l-.18-.24.9-2.2c1.42-.37,1.25.39.78-.06-.15-.15-.38-.26-.56-.38-.4-.27-.8-.55-1.2-.83-.7-.49-1.49-1.21-2.42-.97s-1.37,1.37-.9,2.2c.07.13.19.26.29.37,1.13,1.22,3.41-.45,2.36-1.82-1.35-1.76-2.4-3.82-4.33-5.05-2.63-1.67-5.98-1.23-8.88-.73-4.15.71-8.87,2.43-10.86,6.47-.62,1.26-.92,2.58-1.02,3.97-.03.45-.03.9-.04,1.35,0,.17-.01.34,0,.51.02.44.05-.18,0,.01-.46,2.28-.13,4.66.21,6.94s.75,4.8,1.79,6.92c.78,1.58,2.07,2.99,3.14,4.37,1.37,1.77,2.75,3.55,4.21,5.25s3.38,3.39,5.24,4.81,3.8,2.07,6,2.39c1.66.24,3.33.3,4.99.11,1.35-.15,3.23-.32,4.28-1.29,1.56-1.44.94-4.19.51-5.98-.19-.78-.36-1.65-.69-2.38-.23-.51,0,.51-.08-.24-.16-1.44-.33-2.88-.49-4.32l-1.23-10.87c-.09-.75.02-1.47.09-2.22l.54-5.86.12-1.28c.18-1.92-2.83-1.91-3,0-.26,2.82-.66,5.67-.78,8.5-.09,2.17.45,4.5.69,6.66.36,3.14.7,6.27,1.07,9.41.1.87.4,1.66.64,2.51s.48,1.8.56,2.71c.03.37.02.74,0,1.11,0-.09-.13.27-.03.11.13-.21.06-.07-.34.05-2.7.82-5.9.72-8.59-.15-1.76-.57-3.12-1.8-4.46-3.02-3-2.72-5.44-5.85-7.88-9.08-.85-1.13-1.77-2.23-2.22-3.58-.72-2.2-1.14-4.55-1.38-6.86s-.08-4.6.15-6.93c0,0,.02-.18.08-.5s.15-.64.25-.96c.15-.5.42-1.05.83-1.63,1.02-1.44,2.82-2.48,4.54-3.1,1.4-.5,2.85-.83,4.31-1.06,1.65-.26,3.49-.52,5.12,0,2.11.67,3.07,2.84,4.32,4.48l2.36-1.82.18.24-.9,2.2c-1.42.37-1.25-.39-.78.06.15.15.38.26.56.38.4.27.8.55,1.2.83.7.49,1.49,1.21,2.42.97s1.37-1.37.9-2.2c-.07-.13-.19-.26-.29-.37-1.31-1.42-3.43.71-2.12,2.12Z"/>
  </g>
  <g>
    <path class="cls-1" d="M192.11,121.51c-.53.58,3.23-1.79,3.6-2.47,1.85-3.31,6.31-4.3,9.42-4.08,3.33.23,7.56,1.66,9.76,4.56,3.67,4.84,1.87,10.08.72,12.3-.73,1.41-2.36,6.72-3.6,7.89-2.73,2.58-7.2,9.43-8.04,10.39-4.54,5.21-10.66,4.37-13.14,1.38-1.28-1.54-1.12-5.87-1.12-5.87l2.4-24.09Z"/>
    <path d="M191.05,120.45c-.2.25-.34.43-.44.74-.25.82.3,1.58,1.05,1.85,1.23.44,3.1-1.26,3.97-1.92,1.47-1.11,2.19-2.75,3.89-3.63,3.89-2.03,9.46-1.1,12.83,1.56,3.83,3.03,3.81,8.08,1.9,12.14-.78,1.66-1.33,3.43-2.05,5.12-.32.74-.64,1.59-1.15,2.23-.46.58-1.19,1.22-1.71,1.85-1.38,1.64-2.65,3.38-3.9,5.12-.54.75-1.07,1.5-1.6,2.25-.2.28-.4.57-.61.85-.06.09-.13.18-.2.27-.24.32.15-.16-.09.12-2.46,2.9-7.31,4.88-10.55,1.94-1.43-1.3-1.3-4.07-1.12-5.88l.69-6.91c.55-5.55,1.1-11.1,1.66-16.64.19-1.92-2.81-1.91-3,0-.53,5.31-1.06,10.63-1.59,15.94l-.76,7.61c-.24,2.39-.1,5.57,1.5,7.47,3.01,3.58,8.62,3.47,12.33,1.14s5.55-6.28,8.03-9.5c1.17-1.52,2.75-2.85,3.74-4.47,1.12-1.82,1.76-3.97,2.53-5.95.64-1.65,1.49-3.18,1.86-4.94.55-2.63.36-5.34-.75-7.81-2.5-5.55-9.24-8.19-15.05-7.44-2.71.35-5.49,1.42-7.25,3.6-.15.18-.3.37-.43.57-.13.18-.24.37-.35.56.13-.16.13-.17,0-.02-.26.26-.58.48-.88.7-.4.28-.8.55-1.22.81-.16.1-.36.19-.51.31-.44.35.03-.15.65.07l1.05,1.85-.33.58c1.2-1.49-.91-3.62-2.12-2.12Z"/>
  </g>
  <path d="M62.41,126.99c-1.39.21-2.28-1.21-3.28-2.28-1.6-1.7-3.53-2.85-5.86-3.17-.78-.11-1.53-.2-2.29.06s-1.49.6-2.17.99c-1.02.58-1.97,1.32-2.7,2.24-1.38,1.74-1.74,3.89-1.3,6.03.78,3.79,3.74,7.28,6.76,9.56.47.35.95.69,1.5.9,1.15.45,2.07-.34,3.16-.67.28-.09.31.07.04-.11-.12-.08-.25-.27-.2-.26.08,0,.05.2.06.28.05.77-.1,1.4-.24,2.15-.37,2.02-1.09,4.39.24,6.21,2.2,3,6.64.96,8.93-.79.65-.5.97-1.29.54-2.05-.36-.64-1.41-1.03-2.05-.54-.87.66-4.87,3.21-5.19,1.14-.17-1.08.38-2.76.58-4.06.22-1.38.48-3.15-.62-4.26-1.45-1.47-3.7-.44-5.21.36l1.16-.15c-.33-.09.15.14-.03,0-.1-.08-.23-.12-.34-.19-.26-.16-.68-.46-.76-.53-.76-.6-1.47-1.3-2.12-2.01-1.44-1.57-2.78-3.46-3.26-5.57-.52-2.27.61-3.99,2.57-5.09,1.41-.79,2.63-.89,4.14-.26,1.01.42,1.81,1.14,2.54,1.92,1.81,1.93,3.34,3.49,6.2,3.06,1.9-.29,1.09-3.18-.8-2.89h0Z"/>
  <path d="M192.75,128.89c2.69.24,4.89-1.49,6.92-3,1.78-1.33,4.27-3.24,6.48-1.73.8.55,1.41,1.24,1.59,2.04.11.49-.04,1.32-.33,1.93-.88,1.88-2.52,3.38-4.11,4.68-1.22.99-2.62,2.06-4.09,2.72-.98.45-.99,2.15,0,2.59.48.22.47.09.4.69-.09.73-.44,1.47-.7,2.16-.23.59-.49,1.57-.68,1.97-.16.34-.18.36-.57.54-1.74.8-3.99-.47-4.79-2.18s-3.4-.23-2.59,1.51c1.48,3.17,6.06,5.11,9.19,3.08,1.64-1.06,2.03-3.25,2.65-4.98.71-1.98.86-4.38-1.39-5.39v2.59c1.56-.71,2.99-1.84,4.32-2.89,1.9-1.51,3.82-3.3,4.91-5.51s1.08-4.82-.68-6.79c-1.11-1.23-2.58-2.13-4.23-2.3-1.56-.16-3.09.31-4.45,1.04s-2.64,1.82-3.95,2.74c-1.18.83-2.4,1.6-3.9,1.47-1.92-.17-1.91,2.83,0,3h0Z"/>
  <g class="cls-2">
    <path class="cls-3" d="M62.73,128.63c-1.43-.96-2.93-1.84-4.47-2.63s-3.25-1.62-5.02-1.72c-3.67-.2-6.94,3.16-5.59,6.78.56,1.5,1.25,2.98,2.09,4.34.77,1.25,1.77,2.72,3.22,3.22.68.24,1.4.22,2.05-.1.55-.27.5-.47,1.02-.11,1.19.84,1.77,2.74,2.03,4.09.29,1.53-.37,3.49.53,4.87s2.83.8,4.22.84c1.93.06,1.93-2.94,0-3-.61-.02-1.21.02-1.82.07-.15.01-.39-.03-.53.03-.23.1.02-.08.1.02.07.09.61.64.63.64-.12-.02-.04-1.18-.03-1.52.03-.84-.02-1.65-.16-2.48-.45-2.63-2.21-6.77-5.42-6.75-.34,0-1.75.2-1.9.62-.06.16.01-.11.13-.03.24.15.12-.14.08-.03.02-.06.3.27-.04-.04-.16-.15-.04-.02-.24-.19-.93-.83-1.55-2.06-2.11-3.15-.43-.84-1.21-2.15-1.25-3.05-.04-.98,1.21-1.89,2.17-2.05,1.47-.24,3.12.65,4.46,1.34,1.49.77,2.95,1.63,4.34,2.56,1.61,1.08,3.11-1.52,1.51-2.59h0Z"/>
  </g>
  <g class="cls-2">
    <path class="cls-3" d="M195.56,131.36c1.89-.38,3.44-1.28,4.91-2.49.7-.57,1.3-1.22,1.96-1.82.75-.67,1.69-.57,2.59-.92.84-.33,1.49-1.33.9-2.2-.28-.42-.5-.84-.84-1.23l-1.82,2.36c1.48.86,1.63,1.81.88,3.23-.87,1.65-2.23,3.01-3.57,4.29-1.23,1.17-3.17,2.38-3.06,4.28.06,1.09.52,1.96-.04,2.97-.32.58-.53.83-.88,1.25-.49.58-1.16,1.32-1.65,1.65-.14.1-.3.17-.44.26-.17.11.05-.04.06-.03.02.03-.22-.03.06,0,.19.03.49.33.6.33.17,0-.15.17.01.02,0,0-.06-.23-.07-.26-.09-.8-.62-1.5-1.5-1.5-.74,0-1.59.69-1.5,1.5.13,1.17.5,2.41,1.76,2.8.97.3,1.96-.13,2.73-.69,1.51-1.11,2.95-2.74,3.73-4.46.28-.62.43-1.25.41-1.93s-.29-1.39-.29-2.09c0,.15-.14.25,0,.07.18-.23.42-.42.63-.62.37-.34.74-.68,1.11-1.03,1.74-1.63,3.57-3.42,4.62-5.59.58-1.19.91-2.5.6-3.82-.34-1.45-1.45-2.52-2.7-3.24-1.52-.88-2.93,1.11-1.82,2.36.15.17.25.43.37.62l.9-2.2c-.93.36-1.92.33-2.8.84s-1.47,1.25-2.17,1.9c-1.32,1.23-2.71,2.13-4.49,2.49-1.89.38-1.09,3.27.8,2.89h0Z"/>
  </g>
</svg>