<?xml version="1.0" encoding="UTF-8"?>
<svg id="Layer_46" data-name="Layer 46" xmlns="http://www.w3.org/2000/svg" viewBox="0 0 256 256">
  <defs>
    <style>
      .cls-1 {
        fill: #fff;
      }

      .cls-2 {
        opacity: .3;
      }

      .cls-3 {
        fill: #435054;
      }
    </style>
  </defs>
  <g>
    <path class="cls-1" d="M64.59,125.05c.57.6-3.75-4.12-3.18-3.52-2.23-2.99-2.14-6.06-5.24-7.62s-4.65-1.85-8.18-.45-4.09,5.49-4.48,7.02c-.66,2.64-.99,9.85.26,12.16.79,1.47,3.77,6.74,4.77,7.98,4.68,5.83.37,12.31,5.65,14.3,8.51,3.2,10.42-1.33,10.42-1.33l1.11-3.69-.85-16.57-.29-8.28Z"/>
    <path d="M63.53,126.11s.03.03.05.05c.99.97,3.1,0,2.51-1.46-.34-.86-1.2-1.57-1.81-2.24-.39-.43-.78-.86-1.17-1.28-.15-.16-.29-.35-.46-.5-.33-.31-.24-.57.15.4l-2.51,1.46s.03.03.05.05c1.15,1.19,3.37-.41,2.36-1.82-1.55-2.16-2.11-5.02-4.05-6.91-1.77-1.73-4.86-2.95-7.34-2.78-2.66.18-5.46,1.31-7.09,3.48-1.18,1.58-1.69,3.48-2.13,5.37-.48,2.1-.65,4.27-.67,6.42s-.02,4.67.89,6.7c.79,1.76,1.88,3.43,2.86,5.09,1.1,1.86,2.71,3.66,3.52,5.65,1.66,4.07-.35,10.23,4.61,12.38,3.49,1.51,8.65,2.44,11.67-.58.52-.52.89-1.08,1.13-1.76.42-1.21,1.04-2.65,1.12-3.93.05-.78-.08-1.62-.12-2.4l-.26-5.13c-.29-5.77-.55-11.53-.75-17.31-.07-1.93-3.07-1.93-3,0,.15,4.17.3,8.34.51,12.5l.5,9.76c.04.76-.08,1.77.13,2.51.07.26.14-.47.04-.25s-.14.47-.21.69l-.65,2.17c-.07.23-.16.45-.21.69-.05.21.28-.31.1-.23-.05.03-.09.17-.13.22-.3.35.16-.12-.14.19-.4.41-.38.42-.88.7s-1.15.46-1.79.53c-.98.1-1.99,0-2.96-.22-1.18-.26-2.69-.53-3.64-1.34-1.31-1.12-1.08-3.49-1.2-5.02-.19-2.48-.65-4.92-1.98-7.06-.58-.93-.95-1.29-1.48-2.12-.57-.88-1.1-1.78-1.63-2.69-.83-1.42-1.84-2.87-2.47-4.39-.72-1.75-.59-4-.55-5.84.05-1.98.26-3.9.72-5.83s1.12-4.01,2.98-4.99c2.58-1.36,5.15-1.13,7.61.35,2.32,1.4,2.86,4.79,4.37,6.9l2.36-1.82s-.03-.03-.05-.05c-.99-.97-3.1,0-2.51,1.46.34.86,1.2,1.57,1.81,2.24.39.43.78.86,1.17,1.28.15.16.29.35.46.5.33.31.24.57-.15-.4l2.51-1.46s-.03-.03-.05-.05c-1.34-1.39-3.46.73-2.12,2.12Z"/>
  </g>
  <g>
    <path class="cls-1" d="M191.96,123.49s3.87-2.32,4.45-2.88c2.41-2.33,3.97-5.16,6.9-6.76,2.93-1.6,5.52-.98,8.19,1.66,3.71,3.66,1.57,12.75-.14,17.06-.2.5-3.28.58-3.28.58,0,0,1.23,2.8.91,3.24-1.47,2.08-2.49,3.37-3.03,4.34-.43.76.41,2.74.06,3.99-.24.85-4.38.83-4.38.83,0,0,1.92,4.32,2.17,5.26.56,2.09-1.49,3.47-3.61,4.66-2.36,1.32-5.69.95-9.69-1.88-1.33-.94-.79-6.49-.79-6.49l2.24-23.61Z"/>
    <path d="M192.71,124.78c1.55-.93,3.25-1.82,4.63-3,2.6-2.23,4.2-5.85,7.62-7.04,2.95-1.02,6.02,1.47,6.75,4.26s.24,5.89-.41,8.65c-.19.8-.41,1.6-.65,2.38-.09.29-.77,1.71-.66,1.91,0,0,.47-.56.48-.54-.01-.02-.27.08-.38.08-.26,0-.56.08-.83.1-.4.03-.8.06-1.19.07-1.23.04-1.74,1.23-1.3,2.26.08.19-.07-.19.05.13.11.28.22.56.33.85.12.34.28.7.33,1.05.07.52.1,0-.2.26-.68.6-1.21,1.66-1.74,2.4-.41.59-.93,1.22-1.13,1.93-.24.85,0,1.74.1,2.58.02.19,0,.47.06.65v.34c.15-.14.29-.27.43-.41.01.05-.43.13-.51.15-.94.2-1.93.22-2.89.21-1.23,0-1.74,1.25-1.3,2.26.63,1.43,1.29,2.87,1.83,4.34.36,1.01.11,1.55-.74,2.26-.95.79-2.19,1.57-3.44,1.75s-2.54-.15-3.67-.61c-.97-.4-2.64-1.12-2.95-1.89-.57-1.4-.28-3.38-.16-4.85.45-5.5,1.04-10.99,1.56-16.49.23-2.44.46-4.88.69-7.33.18-1.92-2.82-1.91-3,0-.62,6.5-1.23,13-1.85,19.49-.2,2.07-.47,4.16-.5,6.25-.03,2.38.1,4.65,2.23,6.06,2.58,1.7,5.87,3,8.99,2.14,2.92-.8,6.8-3.56,5.92-7.02-.5-1.93-1.51-3.8-2.32-5.62l-1.3,2.26c1.31,0,2.73-.03,3.99-.4.75-.22,1.45-.6,1.76-1.36.49-1.2-.04-2.36-.03-3.58,0-.76.63-1.37,1.07-1.99.65-.9,1.75-1.95,2.05-3.03.38-1.35-.58-3.1-1.1-4.31l-1.3,2.26c1.08-.03,2.28-.06,3.31-.4,1.5-.49,1.8-2.21,2.21-3.55,1.03-3.37,1.75-7.08,1.34-10.61-.43-3.79-2.65-6.98-6.37-8.25-4.28-1.46-8.02,1.77-10.59,4.8-1.25,1.46-2.25,2.72-3.66,3.64-1.02.66-2.06,1.3-3.11,1.93-1.65.99-.15,3.59,1.51,2.59Z"/>
  </g>
  <g class="cls-2">
    <path class="cls-3" d="M62.92,130.53c-2.58-.12-4.42-3.06-5.73-4.95-1.24-1.78-2.68-4.6-4.99-5.13-2.07-.48-3.32,2.56-3.49,4.19-.18,1.79.5,3.52,1.29,5.09.3.6.67,1.19.95,1.8.33.73.54,1.5.98,2.18,1.01,1.53,2.61,2.47,4.17,3.35,1.02.58,1.3.49.9,1.62-.34.95-.73,1.85-.85,2.86s-.21,2-.42,3.02c-.24,1.19-.19,2.28.2,3.44.43,1.29,2.6,1.56,2.89,0,.24-1.26,1.05-2.5,1.76-3.54.43-.62,1.8-2.54,2.62-2.11,1.71.89,3.23-1.7,1.51-2.59-2.26-1.18-4.39.26-5.84,2.01-1.23,1.49-2.58,3.49-2.95,5.43h2.89c-.44-1.31-.03-2.28.16-3.59.1-.66.05-1.35.17-2s.4-1.24.63-1.85c.38-1.01.64-2.05.23-3.09-.52-1.33-1.89-1.89-3.05-2.56-.94-.54-1.93-1.11-2.53-2.04-.54-.82-.79-1.85-1.25-2.72-1.1-2.08-2.4-4.42-.45-6.42l-1.06.44c-.19-.02-.07-.01,0,.06.09.09.22.15.41.34.39.38.73.8,1.05,1.23.88,1.19,1.67,2.43,2.56,3.61,1.81,2.4,4.03,4.75,7.22,4.9,1.93.09,1.93-2.91,0-3h0Z"/>
  </g>
  <g class="cls-2">
    <path class="cls-3" d="M192.1,141.34c.64-.07,1.12.85,1.57,1.41.77.96,1.65,1.68,2.82,2.09.59.2,1.41-.13,1.69-.69.91-1.8,2.74-4.1,1.61-6.2-.27-.5-1.32-1.34-1.24-1.94.05-.37.63-.81.87-1.04.45-.43.92-.84,1.38-1.25,3.36-3.04,7.24-6.76,7.16-11.66-.01-.76-.68-1.57-1.5-1.5-3.2.27-4.62,3-6.86,4.89-1.07.9-2.16,1.9-3.39,2.58-.4.22-.81.39-1.23.56-.25.1-.52.18-.76.29-.17.08-.7.17-.06.1-.81.09-1.49.63-1.5,1.5,0,.74.7,1.59,1.5,1.5,2.13-.23,4.25-1.71,5.85-3.01,1.16-.94,2.37-1.86,3.37-2.96.85-.93,1.69-2.34,3.08-2.46l-1.5-1.5c.07,4.38-4.23,7.67-7.16,10.33-1.56,1.42-2.88,3.09-1.83,5.24.25.5.58.96.93,1.39.3.37.28.29.12.82-.3.98-.97,1.87-1.44,2.78l1.69-.69c-.99-.34-1.56-1.46-2.21-2.21-.76-.87-1.78-1.52-2.98-1.39-.81.09-1.49.63-1.5,1.5,0,.74.7,1.59,1.5,1.5h0Z"/>
  </g>
  <path d="M193.06,130.54c4.93-1.26,7.28-5.65,10.87-8.76,1.14-.99,2.57-1.47,3.44.24.56,1.1.17,2.51-.22,3.59-.58,1.61-1.53,3.13-2.68,4.39-1.69,1.84-3.82,3.58-6.08,4.67-.98.48-.98,2.11,0,2.59.24.12,0-.2.1.08-.08-.2.06.35.06.31.05.39,0,.88-.05,1.28-.15,1.24-.5,2.47-.85,3.66s-.72,2.29-1.08,3.43c-.1.31-.4.86-.36,1.18-.06.18-.05.17.04-.04.3-.44.78-.61,1.42-.51.24.07.56.25.56.37,0-.44-.76-1.4-.96-1.81-.4-.79-.8-1.58-1.31-2.31-1.08-1.55-2.8-2.98-4.8-2.19-1.78.69-1,3.6.8,2.89.42-.16.32-.18.55-.05.22.12.52.41.75.71.63.79,1.07,1.75,1.51,2.64.67,1.34,2.27,4.14,3.92,1.99.61-.79.79-2.09,1.09-3.03.45-1.39.9-2.79,1.24-4.21.5-2.06,1.36-5.78-1.11-6.98v2.59c2.37-1.15,4.64-2.99,6.44-4.88,2.39-2.5,4.66-6.28,4.23-9.87-.32-2.71-2.84-5.11-5.67-4.58-2.24.42-3.89,2.44-5.33,4.05-2.06,2.3-4.2,4.87-7.31,5.67-1.87.48-1.08,3.37.8,2.89h0Z"/>
  <path d="M63.32,129.31c.09-.01-.03,0-.27-.07-.17-.06-.17-.06-.39-.2-.5-.31-.92-.76-1.33-1.21-.95-1.07-1.73-2.28-2.54-3.46-1.47-2.15-3.23-5.26-5.93-6-2.86-.79-5.2,1.78-5.88,4.31-.84,3.12-.02,6.55,1.28,9.42,1.53,3.37,4.26,6.52,7.94,7.51l-.36-2.74c-1.87.94-1.85,3.85-1.79,5.62.06,2.17.31,4.52,1.03,6.58.28.82.69,1.76,1.61,2.02,1.1.31,1.85-.49,2.21-1.42.46-1.18.97-2.32,1.67-3.38.43-.64,1.45-2.14,2.41-1.72,1.75.78,3.28-1.81,1.51-2.59-2.78-1.23-5.01.52-6.52,2.79-.66,1-1.18,2.08-1.63,3.19-.1.24-.24.5-.29.75-.06.3-.07-.05-.02.05.77-.67,1.42-.76,1.97-.28.14.2.18.24.12.14-.07-.03-.17-.45-.06-.09-.5-1.69-.85-3.36-.97-5.12-.07-.99-.12-2.03.02-3.02.02-.17.16-.64.23-.92,0-.03.05-.03.01,0,1.17-.59.84-2.42-.36-2.74-4.86-1.31-8.29-8.27-7.17-13.03.21-.91.64-1.85,1.49-2.31.18-.1.24-.13.47-.18-.26.05.39.08.13.02.32.07.59.23.93.48,2.02,1.55,3.29,4.15,4.75,6.17,1.57,2.17,3.53,4.76,6.53,4.32,1.9-.28,1.09-3.17-.8-2.89h0Z"/>
</svg>