<?xml version="1.0" encoding="UTF-8"?>
<svg xmlns="http://www.w3.org/2000/svg" xmlns:xlink="http://www.w3.org/1999/xlink" viewBox="0 0 256 256">
  <defs>
    <style>
      .cls-1 {
        fill: url(#radial-gradient-2);
      }

      .cls-2 {
        fill: url(#radial-gradient);
      }

      .cls-3 {
        fill: #774c28;
      }

      .cls-4 {
        isolation: isolate;
      }

      .cls-5 {
        mix-blend-mode: multiply;
      }

      .cls-6 {
        opacity: .3;
      }

      .cls-7 {
        fill: #435054;
      }
    </style>
    <radialGradient id="radial-gradient" cx="98.22" cy="121.17" fx="98.22" fy="121.17" r="11.54" gradientUnits="userSpaceOnUse">
      <stop offset="0" stop-color="#fff"/>
      <stop offset=".35" stop-color="#fdfcfc"/>
      <stop offset=".5" stop-color="#faf5f5"/>
      <stop offset=".62" stop-color="#f3e9e9"/>
      <stop offset=".71" stop-color="#ead8d7"/>
      <stop offset=".79" stop-color="#dfc1c0"/>
      <stop offset=".87" stop-color="#d0a5a3"/>
      <stop offset=".94" stop-color="#bf8482"/>
      <stop offset="1" stop-color="#ac5f5c"/>
      <stop offset="1" stop-color="#ab5d5a"/>
    </radialGradient>
    <radialGradient id="radial-gradient-2" cx="168.64" cy="119.61" fx="168.64" fy="119.61" r="11.8" gradientTransform="translate(328.58) rotate(-180) scale(1 -1)" xlink:href="#radial-gradient"/>
  </defs>
  <g class="cls-4">
    <g id="Layer_4" data-name="Layer 4">
      <g class="cls-6">
        <path class="cls-7" d="M82.13,127.48c1.67,2.39,2.79,4.08,5.71,4.83,3.54.91,7.73,2.16,11.4,2.05,5.51-.17,8.05-3.63,11.37-7.43,2.53-2.9-1.7-7.16-4.24-4.24-1.53,1.75-3.01,4.18-5.07,5.17-3.23,1.56-11.96-.52-13.97-3.41-2.19-3.15-7.4-.15-5.18,3.03h0Z"/>
        <path class="cls-7" d="M115.36,106.02c-3.02,5.44-3.58,12.08-5.33,17.98-.87,2.95-1.74,6.13-4.48,7.83-2.92,1.82-6.56,2.45-9.77,3.63-3.6,1.32-2.04,7.12,1.6,5.79,6.57-2.41,13.45-3.56,16.59-10.52s2.94-15.13,6.57-21.67c1.87-3.38-3.31-6.41-5.18-3.03h0Z"/>
        <path class="cls-7" d="M140.68,109.05c0,6.29-.03,13.23,3.81,18.56,4.06,5.64,11.41,8.8,17.89,10.53,3.73,1,5.33-4.79,1.6-5.79-5.19-1.38-11.55-3.78-14.71-8.42-2.91-4.26-2.59-9.95-2.59-14.89,0-3.86-6-3.87-6,0h0Z"/>
        <path class="cls-7" d="M156.31,130.71c5.2.51,9.93,3.72,15.07.81,3.9-2.21,5.86-6.61,8.25-10.18,2.15-3.22-3.04-6.22-5.18-3.03-1.71,2.55-3.29,6.66-6.18,8.05-3.28,1.58-8.46-1.3-11.95-1.65-3.84-.38-3.81,5.63,0,6h0Z"/>
        <path class="cls-7" d="M146.7,111.64c4.77,2.61,10.34,2.74,15.64,3.13,5.61.41,11.4,1.71,17.02,1.5,3.85-.15,3.87-6.15,0-6-4.85.19-9.9-.92-14.74-1.32s-10.49-.08-14.89-2.49c-3.39-1.86-6.42,3.32-3.03,5.18h0Z"/>
        <path class="cls-7" d="M111.14,107.72c-5.36,1.45-10.59,3.35-15.89,5.01-2.4.76-4.83,1.57-7.3,2.09-3.61.76-7.05.16-10.68-.06-3.86-.23-3.84,5.77,0,6,6.75.4,11.84.14,18.32-1.85,5.72-1.76,11.36-3.84,17.14-5.41,3.72-1.01,2.14-6.8-1.6-5.79h0Z"/>
      </g>
      <path class="cls-2" d="M112.85,115.46c.93,3.27-6.56,10.62-12.31,12.26s-16.02-.73-16.95-4,7.19-5.5,13.57-6.85c6.01-1.27,14.76-4.68,15.69-1.41Z"/>
      <path class="cls-1" d="M145.56,112.27c0,3.24,5,13.79,10.75,15.43,5.75,1.64,17-2.29,17.93-5.56.93-3.27-6.94-3.2-12.91-5.83-5.47-2.42-15.77-7.44-15.77-4.04Z"/>
      <circle class="cls-3" cx="157.67" cy="120.22" r="5.62"/>
      <circle class="cls-3" cx="99.67" cy="121.22" r="5.62"/>
      <path d="M182.3,110.31c-12.75-1.85-25.61-2.67-38.22-5.41-1.73-.38-2.5,1.74-1.16,2.74.51.38,1.02.76,1.53,1.13,1.55,1.15,3.05-1.45,1.51-2.59-.51-.38-1.02-.76-1.53-1.13l-1.16,2.74c12.62,2.74,25.47,3.56,38.22,5.41,1.89.27,2.7-2.62.8-2.89h0Z"/>
      <path d="M120.08,102.47c-4.33,2.86-9.55,4.46-14.47,5.94-6.6,1.98-13.34,3.54-20.12,4.73-3.47.61-6.95,1.11-10.45,1.43-1.91.17-1.93,3.17,0,3,6.67-.61,13.29-1.79,19.81-3.26s13.06-3.21,19.31-5.65c2.56-1,5.14-2.09,7.44-3.61,1.6-1.06.1-3.66-1.51-2.59h0Z"/>
      <path d="M145.44,112.67c.85,6.33,3.32,13.95,10.47,15.33.79.15,1.62-.22,1.85-1.05.2-.73-.25-1.69-1.05-1.85-2.79-.54-4.69-2.23-6-4.7s-1.98-5.62-2.37-8.54c-.11-.8-1.14-1.24-1.85-1.05-.87.24-1.16,1.04-1.05,1.85h0Z"/>
      <path d="M152.04,127.53c5.11.76,10.42,1.55,15.57.7,2.35-.39,4.45-1.32,6.09-3.08,1.53-1.63,2.72-4.17,4.94-4.94,1.81-.63,1.03-3.53-.8-2.89-2.29.8-3.68,2.52-5.13,4.36s-2.91,3.06-5.27,3.55c-4.73.97-9.9.12-14.61-.58-1.89-.28-2.7,2.61-.8,2.89h0Z"/>
      <path d="M81.21,122.47c4.59,7.8,14.43,8.87,22.38,6.11,3.06-1.06,5.67-3.87,7.4-6.52.95-1.45,1.52-3.04,1.62-4.77.03-.45.17-1.41-.01-1.84,0-.2.01-.23,0-.07-.08.24-.24.4-.48.47,0,0,.8-.06.81-.06,1.93.03,1.93-2.97,0-3-1.3-.02-2.71.28-3.18,1.66-.36,1.06-.03,2.25-.2,3.34-.43,2.89-3.23,5.72-5.57,7.26-1.36.9-3.06,1.22-4.65,1.51-2.09.39-4.3.52-6.42.27-3.82-.45-7.17-2.57-9.12-5.89-.98-1.66-3.57-.16-2.59,1.51h0Z"/>
      <path d="M176.28,119.95c-4.09-3.21-9.55-4.72-14.45-6.2s-9.79-2.54-14.54-4.2c-1.83-.64-2.61,2.26-.8,2.89,4.55,1.59,9.29,2.64,13.91,4.01,2.69.8,5.37,1.65,7.99,2.67,1.97.77,4.1,1.63,5.78,2.95,1.5,1.18,3.64-.93,2.12-2.12h0Z"/>
      <path d="M112.53,111.52c-5.52,2.04-11.47,2.95-17.16,4.42-2.21.57-4.39,1.19-6.46,2.14-1.94.89-4.76,1.97-5.65,4.07-.32.75.34,1.64,1.05,1.85.86.25,1.53-.3,1.85-1.05-.16.38.47-.24.66-.36.46-.3.94-.57,1.42-.83.88-.47,1.94-1,2.76-1.34,2.06-.86,4.29-1.36,6.44-1.9,5.28-1.31,10.77-2.22,15.89-4.1,1.8-.66,1.02-3.56-.8-2.89h0Z"/>
      <g class="cls-5">
        <path d="M158.19,121.48s.08-.05.13-.07l-.36.15c.06-.02.12-.04.18-.05l-.4.05c.07,0,.14,0,.21,0l-.4-.05c.07.01.14.03.21.06l-.36-.15c.08.04.16.08.23.13l-.3-.23c.1.07.18.16.25.25l-.23-.3c.11.14.19.29.27.45l-.15-.36.02.04,1.85-1.85c-.82-.28-1.65-.55-2.47-.83l.36,2.74c.54-.34,1.09-.68,1.63-1.02l-2.2-.9c.11.66.23,1.31.34,1.97.05.2.14.37.27.51.11.16.25.29.42.39.32.19.8.27,1.16.15s.71-.34.9-.69l.15-.36c.07-.27.07-.53,0-.8-.11-.66-.23-1.31-.34-1.97-.07-.25-.2-.47-.39-.66-.14-.15-.3-.25-.48-.31-.18-.09-.37-.14-.58-.13-.27,0-.52.07-.76.2-.54.34-1.09.68-1.63,1.02-.21.13-.41.32-.54.54l-.15.36c-.06.2-.07.4-.03.6,0,.14.03.26.1.38.04.13.1.24.19.33.07.11.16.2.27.27.14.13.31.22.51.27.82.28,1.65.55,2.47.83.5.17,1.1-.02,1.46-.39.19-.19.31-.41.39-.66.07-.27.07-.53,0-.8-.09-.21-.17-.43-.28-.62s-.26-.37-.4-.54c-.19-.23-.44-.43-.7-.57-.73-.39-1.6-.42-2.32.02-.33.2-.59.53-.69.9s-.05.84.15,1.16.51.6.9.69.8.06,1.16-.15h0Z"/>
      </g>
      <path d="M99.95,121.67s.02-.03.03-.04l-.23.3c.04-.05.09-.1.14-.14l-.3.23s.09-.06.14-.08l-.36.15c.05-.02.11-.04.16-.05l-.4.05c.06,0,.12,0,.18,0l-.4-.05c.08.01.16.03.24.07l-.36-.15c.1.04.19.1.27.16l-.3-.23c.11.08.2.18.28.29l-.23-.3c.08.11.15.23.21.35l-.15-.36c.05.11.08.22.09.34l-.05-.4c.01.09.01.19,0,.28l.05-.4c-.01.08-.03.16-.07.24l.15-.36c-.03.07-.07.13-.11.2l2.05-.54c-.08-.06-.16-.11-.24-.17l.3.23c-.14-.11-.28-.23-.39-.38l.23.3c-.07-.09-.12-.18-.16-.28l.15.36c-.04-.09-.06-.18-.07-.27l.05.4c0-.06,0-.11,0-.17l-.05.4c.01-.06.03-.12.05-.18l-.15.36c.03-.06.06-.12.11-.18l-.23.3s.08-.09.13-.13l-.3.23s.08-.05.13-.07l-.36.15s.06-.02.1-.03l-.4.05s.05,0,.08,0l-.4-.05s.05.01.08.02l-.36-.15s.04.02.06.03l-.3-.23s.04.04.06.06l-.23-.3s.02.02.02.03l-.2-.76s0,.09-.01.13l.05-.4c-.02.13-.05.25-.1.37l.15-.36c-.05.11-.11.22-.19.32l.23-.3c-.07.09-.15.16-.23.23l.3-.23c-.07.05-.15.1-.23.14l.36-.15c-.07.03-.14.05-.21.06l.4-.05s-.04,0-.07,0c-.21,0-.4.04-.58.13-.19.06-.35.16-.48.31-.15.14-.25.3-.31.48-.09.18-.14.37-.13.58.02.39.14.79.44,1.06s.67.47,1.06.44c.43-.03.8-.12,1.17-.34.09-.05.17-.12.25-.18s.17-.12.24-.19c.15-.14.28-.32.39-.48.18-.24.3-.54.38-.82.06-.21.08-.43.1-.64.05-.44-.17-.92-.49-1.23-.47-.44-1.1-.62-1.73-.45-.35.09-.73.31-.96.59-.26.3-.49.64-.56,1.04-.03.16-.06.32-.06.48s.04.37.06.49c.03.16.09.3.15.45s.12.3.22.44c.13.18.26.36.42.51.23.23.5.42.77.6.17.11.36.17.56.18.2.04.4.04.6-.03l.36-.15c.23-.13.4-.31.54-.54.14-.19.24-.43.3-.66.05-.18.06-.36.08-.54,0-.06,0-.12,0-.18-.01-.24-.04-.5-.12-.73-.06-.17-.13-.34-.21-.5-.03-.06-.06-.11-.09-.17-.03-.05-.06-.1-.1-.14-.11-.14-.22-.29-.34-.43-.16-.17-.36-.31-.55-.44s-.42-.22-.63-.29c-.05-.02-.09-.03-.14-.04-.17-.03-.36-.07-.54-.06-.38.01-.7.1-1.04.28s-.57.46-.8.78c-.11.17-.17.36-.18.56-.04.2-.04.4.03.6.05.2.14.37.27.51.11.16.25.29.42.39.35.18.77.28,1.16.15l.36-.15c.23-.13.4-.31.54-.54h0Z"/>
      <path d="M144.06,108.64c-.09,2.27.43,4.68.82,6.91.19,1.09.38,2.21.72,3.27.39,1.23,1.15,2.33,1.67,3.51,1.51,3.44,3.87,6.43,6.82,8.76,1.49,1.17,3.08,2.17,4.81,2.93,1.91.84,3.91,1.43,5.7,2.51,1.66,1,3.17-1.59,1.51-2.59-3.2-1.93-6.87-2.66-9.89-4.96-2.8-2.14-4.96-4.95-6.37-8.17-.34-.77-.68-1.52-1.11-2.24-.26-.44-.17-.21-.31-.73-.28-1.02-.49-2.06-.67-3.1-.35-1.97-.79-4.1-.71-6.11s-2.92-1.93-3,0h0Z"/>
      <path d="M112.65,111.88c-.62,4.38-1.86,8.62-3.1,12.86-.85,2.91-2.11,5.47-4.72,7.19-2.01,1.33-4.31,2.03-6.63,2.58-1.83.43-3.76.7-5.46,1.55s-.21,3.45,1.51,2.59c1.32-.66,3.72-.98,5.44-1.41,2.58-.65,5.16-1.58,7.32-3.18,2.69-2,4.27-4.69,5.24-7.87,1.35-4.43,2.64-8.92,3.29-13.51.11-.81-.2-1.6-1.05-1.85-.7-.2-1.73.25-1.85,1.05h0Z"/>
    </g>
  </g>
</svg>