<?xml version="1.0" encoding="UTF-8"?>
<svg id="Layer_9" data-name="Layer 9" xmlns="http://www.w3.org/2000/svg" xmlns:xlink="http://www.w3.org/1999/xlink" viewBox="0 0 256 256">
  <defs>
    <style>
      .cls-1 {
        fill: #79949b;
      }

      .cls-2 {
        fill: url(#radial-gradient-2);
      }

      .cls-3 {
        fill: url(#radial-gradient);
      }

      .cls-4 {
        opacity: .3;
      }

      .cls-5 {
        fill: #435054;
      }
    </style>
    <radialGradient id="radial-gradient" cx="96.28" cy="125.02" fx="96.28" fy="125.02" r="11.58" gradientTransform="translate(34.42 -12.89) rotate(10.57) scale(.74 .97) skewX(13.16)" gradientUnits="userSpaceOnUse">
      <stop offset="0" stop-color="#fff"/>
      <stop offset=".35" stop-color="#fdfcfc"/>
      <stop offset=".5" stop-color="#faf5f5"/>
      <stop offset=".62" stop-color="#f3e9e9"/>
      <stop offset=".71" stop-color="#ead8d7"/>
      <stop offset=".79" stop-color="#dfc1c0"/>
      <stop offset=".87" stop-color="#d0a5a3"/>
      <stop offset=".94" stop-color="#bf8482"/>
      <stop offset="1" stop-color="#ac5f5c"/>
      <stop offset="1" stop-color="#ab5d5a"/>
    </radialGradient>
    <radialGradient id="radial-gradient-2" cx="171.79" cy="123.63" fx="171.79" fy="123.63" r="11.93" gradientTransform="translate(278.36 -42.35) rotate(165.71) scale(.76 -1.05) skewX(17.2)" xlink:href="#radial-gradient"/>
  </defs>
  <g class="cls-4">
    <path class="cls-5" d="M149.37,121.75c7.74-2.73,17.36-3.72,25.42-3.79,3.86-.03,3.87-6.03,0-6-8.6.07-18.77,1.1-27.01,4-3.62,1.27-2.06,7.07,1.6,5.79h0Z"/>
    <path class="cls-5" d="M104.53,114.23c-6.38-1.17-12.36-2.34-18.87-2.49-3.86-.09-3.86,5.91,0,6,5.97.14,11.43,1.21,17.27,2.28,3.77.69,5.39-5.09,1.6-5.79h0Z"/>
    <path class="cls-5" d="M119.3,106.85c-.08,10.77-3.27,29.41-15.32,33.04-3.69,1.11-2.12,6.9,1.6,5.79,15.19-4.58,19.63-24.89,19.73-38.83.03-3.86-5.97-3.87-6,0h0Z"/>
    <path class="cls-5" d="M129.91,110.08c.06,3.86-.66,8.62,2.49,11.63,1.28,1.22,2.56,1.25,4.14,1.64.62.15-.15-1.34-.1.27.02.72,1.05,2.42,1.33,3.06,1.67,3.85,3.36,8.26,5.92,11.6,3.42,4.46,8.62,5.05,13.52,6.98,3.59,1.42,5.15-4.38,1.6-5.79-4.92-1.94-9.07-2.27-11.76-7.31-1.67-3.14-3.15-6.34-4.56-9.61-.94-2.17-1.51-4.5-4.01-5.18-1.82-.5-1.85.77-2.54-1.63-.47-1.63,0-4.01-.02-5.67-.06-3.86-6.06-3.87-6,0h0Z"/>
    <path class="cls-5" d="M137.84,121.14c.15,5.15,3.69,12.41,8.22,15.14,5.09,3.07,13,2.38,18-.5,3.35-1.93.33-7.11-3.03-5.18-2.93,1.69-8.98,2.43-11.94.5-2.54-1.66-5.16-7.03-5.24-9.96-.11-3.85-6.11-3.87-6,0h0Z"/>
    <path class="cls-5" d="M114.26,121.09c-1,4.33-1.3,8.19-6.14,9.57-2.87.82-6.5.7-9.27-.44-3.57-1.47-5.12,4.33-1.6,5.79,4.26,1.76,9.88,1.5,14.11-.18,6.16-2.44,7.28-7.11,8.67-13.14.87-3.76-4.91-5.36-5.79-1.6h0Z"/>
    <path class="cls-5" d="M154.01,88.42c-1.27.29-2.37,1.2-3.63,1.49-2.3.54-5.01.11-7.37,0-4.6-.22-10.46-1.14-14.67,1.31-2.17,1.27-2.05,1.36-4.78.71-2.24-.53-4.38-1.34-6.71-1.36-4.98-.04-9.52,2.49-14.59.3-3.51-1.51-6.57,3.65-3.03,5.18,4.51,1.95,10.03,2.23,14.81,1.15,2.78-.63,4.62-.39,7.36.36,2.12.57,4.53,1.34,6.74.74,2.1-.57,3.36-2.14,5.6-2.5,3.02-.48,6.24-.04,9.28.11,2.63.13,5.89.63,8.49-.02,1.43-.36,2.67-1.36,4.11-1.68,3.77-.85,2.17-6.63-1.6-5.79h0Z"/>
  </g>
  <path class="cls-3" d="M114.39,119.42c.66,3.34-4.86,9.53-9.06,10.36s-11.66-2.9-12.32-6.23,5.57-3.1,9.94-4.87c4-1.63,10.78-2.59,11.44.75Z"/>
  <path class="cls-2" d="M143.5,120.08c-.59,3.71,6.75,10,11.06,10.68s11.13-2.54,11.72-6.25c.59-3.71-5.03-3.3-9.52-5.02-4.13-1.58-12.66-3.12-13.25.59Z"/>
  <circle class="cls-1" cx="103.67" cy="123.91" r="5.62"/>
  <circle class="cls-1" cx="154.67" cy="123.91" r="5.62"/>
  <path d="M113.51,119.41l1.95-.06c1.64-.05,2.09-2.54.4-2.95-10.66-2.58-21.26-5.94-32.36-5.5-1.92.08-1.93,3.08,0,3,10.83-.42,21.16,2.87,31.56,5.39l.4-2.95-1.95.06c-1.93.06-1.93,3.06,0,3h0Z"/>
  <path d="M90.96,118.56c-.04,2.86.22,5.85,1.87,8.3,1.54,2.28,3.9,3.89,6.5,4.75,4.6,1.53,9.95.22,13.15-3.48,2.13-2.46,3.1-5.52,3.42-8.71.19-1.92-2.81-1.91-3,0-.5,4.99-3.75,9.6-9.11,9.84-2.63.12-5.38-.86-7.3-2.68-2.26-2.14-2.56-5.05-2.52-8.01.02-1.93-2.98-1.93-3,0h0Z"/>
  <path d="M173.77,113.91l1.95.58.4-2.95c-11.1-.92-22.35.73-32.72,4.82-1.78.7-1,3.6.8,2.89,10.15-4,21.05-5.61,31.92-4.71,1.73.14,1.97-2.48.4-2.95l-1.95-.58c-1.86-.55-2.65,2.35-.8,2.89h0Z"/>
  <path d="M141.59,119.14c.07,3.37,1.74,6.5,3.85,9.05s4.49,4.06,7.72,4.42c1.65.18,3.34.16,4.93-.34,1.79-.56,3.27-1.64,4.76-2.72,2.48-1.79,4.38-3.81,6.06-6.37,1.06-1.62-1.54-3.13-2.59-1.51-1.31,2.01-2.78,3.69-4.72,5.1-1.11.81-2.24,1.73-3.5,2.3-1.36.61-2.77.71-4.24.61-2.62-.18-4.39-1.38-6.08-3.33s-3.15-4.55-3.21-7.2c-.04-1.93-3.04-1.93-3,0h0Z"/>
  <path d="M169.5,124.33c1.18-.08,2.3-1.11,1.57-2.36-.38-.65-1.19-.86-1.87-1.06-2.05-.6-4.16-1.02-6.25-1.47-1.58-.34-3.17-.64-4.74-1.03-4.73-1.17-9.54-1.63-14.32-2.52-1.89-.35-2.7,2.54-.8,2.89,3.84.72,7.75,1.07,11.58,1.86,1.74.36,3.46.83,5.2,1.2,1.88.4,3.77.8,5.64,1.24.81.19,1.63.38,2.43.6.27.07.54.16.82.24.09.02.2.1.29.1-.26-.01-.82-.61-.79-1.25l.44-1.06c.21-.22.45-.34.72-.36.17-.02.19-.02.06-.01-1.92.13-1.93,3.13,0,3h0Z"/>
  <path d="M111.36,115.25c-.18.31-1.16.49-1.55.57-1.2.25-2.41.5-3.61.75-2.25.46-4.49.93-6.74,1.39-4.66.96-9.31,1.92-13.97,2.88-1.89.39-1.09,3.28.8,2.89,5.14-1.06,10.27-2.12,15.41-3.18,2.57-.53,5.14-1.06,7.71-1.59,1.58-.33,3.65-.64,4.55-2.2.97-1.67-1.62-3.18-2.59-1.51h0Z"/>
  <path d="M103.5,125.87c.06,0,.13,0,.19.01l-.4-.05c.1.02.19.04.28.08l-.36-.15c.08.04.16.09.24.13.27.17.58.27.9.27.59.01,1.09-.29,1.49-.71l-2.36-1.82c-.05.08-.11.15-.17.23l.23-.3c-.07.09-.15.18-.24.25l.3-.23s-.09.06-.14.08l.36-.15s-.07.02-.11.03l.4-.05s-.05,0-.08,0l.4.05s-.06-.01-.08-.02l.36.15c-.06-.03-.12-.06-.18-.11l.3.23c-.13-.11-.24-.23-.35-.36l-.3,2.36c.26-.14.52-.28.79-.39l-.36.15c.19-.08.38-.15.59-.17l-.4.05c.08,0,.16-.01.24,0l-.4-.05c.05,0,.1.02.15.04l-.36-.15s.09.05.13.08l-.3-.23s.06.06.09.09l-.23-.3s.05.08.07.12l-.15-.36s.02.05.03.07v-.8s-.01.04-.02.06l.15-.36s-.02.04-.03.05l.23-.3s-.06.07-.1.09l.3-.23c-.06.04-.12.07-.18.1l.36-.15c-.14.06-.29.09-.45.12l.4-.05c-.11.01-.23.02-.34,0l.4.05s-.06-.01-.09-.02l.36.15s-.02-.01-.03-.02l.3.23h0c.08.09.16.2.23.3,0,0,0,0,0-.01l.15.36h0c.02.12.04.26.05.39h0c-.02.12-.04.26-.05.39,0,0,0-.01,0-.02l-.15.36s0-.01.01-.02l-.23.3s.03-.03.05-.05l.23-.3.15-.36c.09-.33.05-.67-.08-.98-.1-.25-.25-.44-.46-.6-.24-.19-.59-.35-.91-.32-.42.04-.83.08-1.25.13l.76.2c-.1-.05-.2-.11-.29-.18l.3.23c-.11-.09-.2-.18-.29-.29l.23.3c-.1-.13-.18-.27-.24-.42l.15.36c-.07-.18-.12-.36-.15-.55l.05.4c-.02-.19-.03-.38,0-.57l-.05.4c.02-.17.07-.34.14-.5l-.15.36c.06-.13.12-.24.2-.35l-.23.3c.09-.11.18-.21.29-.29l-.3.23c.1-.08.21-.14.33-.19l-.36.15c.15-.06.31-.1.47-.13l-.4.05c.16-.02.33-.02.49,0l-.4-.05c.19.03.38.07.55.15l-.36-.15c.18.07.34.17.49.29l-.3-.23c.12.09.22.2.32.32l-.23-.3c.08.11.15.23.21.35l-.15-.36c.05.12.09.25.11.38l-.05-.4c.02.15.02.29,0,.43l.05-.4c-.02.16-.07.31-.13.46l.15-.36c-.07.16-.16.31-.27.45l.23-.3c-.12.15-.25.29-.41.41l.3-.23c-.14.11-.29.19-.46.26l.36-.15c-.14.05-.27.09-.42.12l.4-.05c-.15.02-.29.02-.43,0l.4.05s-.09-.01-.13-.02c-.4-.08-.8-.06-1.16.15-.31.18-.61.54-.69.9-.09.38-.07.81.15,1.16.2.32.52.61.9.69.82.17,1.64.06,2.37-.36.29-.17.57-.39.8-.63s.45-.53.59-.83c.22-.46.33-.83.37-1.34,0-.11.01-.22,0-.33-.02-.23-.05-.48-.12-.71-.09-.3-.22-.59-.4-.84-.28-.38-.53-.63-.91-.91-.52-.38-1.16-.55-1.8-.61-.32-.03-.65.01-.96.07s-.61.19-.87.34-.53.36-.74.6c-.3.36-.47.65-.64,1.09-.24.61-.22,1.28-.11,1.91.06.33.2.65.35.95s.36.57.6.8c.42.4.99.76,1.59.7.37-.04.75-.08,1.12-.11l-1.06-2.56c-.18.14-.28.35-.37.55-.19.44-.17.95.08,1.37.27.46.72.71,1.23.77.45.06.93.02,1.36-.14.36-.13.68-.28.95-.57.21-.22.35-.47.44-.76.14-.45.03-.91-.18-1.3-.25-.47-.68-.78-1.17-.95-.41-.14-.82-.1-1.23-.03-.35.06-.69.22-1.01.37-.24.11-.46.23-.69.35-.41.22-.66.65-.72,1.1-.04.2-.04.4.03.6.07.25.2.47.39.66.49.59,1.16,1.01,1.95.9s1.3-.67,1.74-1.31c.2-.29.26-.82.15-1.16-.1-.32-.27-.58-.54-.78-.57-.44-1.45-.43-1.97.12-.07.07-.13.14-.21.2l.3-.23s-.06.04-.09.06l.36-.15s-.05.02-.08.02l.4-.05s-.03,0-.05,0l.4.05s-.03,0-.05-.01l.36.15c-.11-.05-.2-.12-.3-.17-.41-.21-.8-.3-1.25-.31-.38-.01-.8.17-1.06.44s-.46.69-.44,1.06c.04.83.66,1.48,1.5,1.5h0Z"/>
  <path d="M154.24,126.68c.06,0,.13,0,.19.01l-.4-.05c.1.02.19.04.28.08l-.36-.15c.08.04.16.09.24.13.27.17.58.27.9.27.59.01,1.09-.29,1.49-.71l-2.36-1.82c-.05.08-.11.15-.17.23l.23-.3c-.07.09-.15.18-.24.25l.3-.23s-.09.06-.14.08l.36-.15s-.07.02-.11.03l.4-.05s-.05,0-.08,0l.4.05s-.06-.01-.08-.02l.36.15c-.06-.03-.12-.06-.18-.11l.3.23c-.13-.11-.24-.23-.35-.36l-.3,2.36c.26-.14.52-.28.79-.39l-.36.15c.19-.08.38-.15.59-.17l-.4.05c.08,0,.16-.01.24,0l-.4-.05c.05,0,.1.02.15.04l-.36-.15s.09.05.13.08l-.3-.23s.06.06.09.09l-.23-.3s.05.08.07.12l-.15-.36s.02.05.03.07v-.8s-.01.04-.02.06l.15-.36s-.02.04-.03.05l.23-.3s-.06.07-.1.09l.3-.23c-.06.04-.12.07-.18.1l.36-.15c-.14.06-.29.09-.45.12l.4-.05c-.11.01-.23.02-.34,0l.4.05s-.06-.01-.09-.02l.36.15s-.02-.01-.03-.02l.3.23h0c.08.09.16.2.23.3,0,0,0,0,0-.01l.15.36h0c.02.12.04.26.05.39h0c-.02.12-.04.26-.05.39,0,0,0-.01,0-.02l-.15.36s0-.01.01-.02l-.23.3s.03-.03.05-.05l.23-.3.15-.36c.09-.33.05-.67-.08-.98-.1-.25-.25-.44-.46-.6-.24-.19-.59-.35-.91-.32-.42.04-.83.08-1.25.13l.76.2c-.1-.05-.2-.11-.29-.18l.3.23c-.11-.09-.2-.18-.29-.29l.23.3c-.1-.13-.18-.27-.24-.42l.15.36c-.07-.18-.12-.36-.15-.55l.05.4c-.02-.19-.03-.38,0-.57l-.05.4c.02-.17.07-.34.14-.5l-.15.36c.06-.13.12-.24.2-.35l-.23.3c.09-.11.18-.21.29-.29l-.3.23c.1-.08.21-.14.33-.19l-.36.15c.15-.06.31-.1.47-.13l-.4.05c.16-.02.33-.02.49,0l-.4-.05c.19.03.38.07.55.15l-.36-.15c.18.07.34.17.49.29l-.3-.23c.12.09.22.2.32.32l-.23-.3c.08.11.15.23.21.35l-.15-.36c.05.12.09.25.11.38l-.05-.4c.02.15.02.29,0,.43l.05-.4c-.02.16-.07.31-.13.46l.15-.36c-.07.16-.16.31-.27.45l.23-.3c-.12.15-.25.29-.41.41l.3-.23c-.14.11-.29.19-.46.26l.36-.15c-.14.05-.27.09-.42.12l.4-.05c-.15.02-.29.02-.43,0l.4.05s-.09-.01-.13-.02c-.4-.08-.8-.06-1.16.15-.31.18-.61.54-.69.9-.09.38-.07.81.15,1.16.2.32.52.61.9.69.82.17,1.64.06,2.37-.36.29-.17.57-.39.8-.63s.45-.53.59-.83c.22-.46.33-.83.37-1.34,0-.11.01-.22,0-.33-.02-.23-.05-.48-.12-.71-.09-.3-.22-.59-.4-.84-.28-.38-.53-.63-.91-.91-.52-.38-1.16-.55-1.8-.61-.32-.03-.65.01-.96.07s-.61.19-.87.34-.53.36-.74.6c-.3.36-.47.65-.64,1.09-.24.61-.22,1.28-.11,1.91.06.33.2.65.35.95s.36.57.6.8c.42.4.99.76,1.59.7.37-.04.75-.08,1.12-.11l-1.06-2.56c-.18.14-.28.35-.37.55-.19.44-.17.95.08,1.37.27.46.72.71,1.23.77.45.06.93.02,1.36-.14.36-.13.68-.28.95-.57.21-.22.35-.47.44-.76.14-.45.03-.91-.18-1.3-.25-.47-.68-.78-1.17-.95-.41-.14-.82-.1-1.23-.03-.35.06-.69.22-1.01.37-.24.11-.46.23-.69.35-.41.22-.66.65-.72,1.1-.04.2-.04.4.03.6.07.25.2.47.39.66.49.59,1.16,1.01,1.95.9s1.3-.67,1.74-1.31c.2-.29.26-.82.15-1.16-.1-.32-.27-.58-.54-.78-.57-.44-1.45-.43-1.97.12-.07.07-.13.14-.21.2l.3-.23s-.06.04-.09.06l.36-.15s-.05.02-.08.02l.4-.05s-.03,0-.05,0l.4.05s-.03,0-.05-.01l.36.15c-.11-.05-.2-.12-.3-.17-.41-.21-.8-.3-1.25-.31-.38-.01-.8.17-1.06.44s-.46.69-.44,1.06c.04.83.66,1.48,1.5,1.5h0Z"/>
  <path d="M112.26,117.45c2.46.93,6.05,1.66,8.11-.49,1.16-1.21,1.46-2.88,1.54-4.5.05-1.12.08-2.23.11-3.35s-.01-2.19-.03-3.28c-.01-.81-.68-1.5-1.5-1.5s-1.51.69-1.5,1.5c.02,1.12.06,2.23.03,3.35-.03,1.35-.02,2.72-.16,4.05-.01.11-.01.1,0-.02-.02.1-.03.2-.05.3-.04.2-.09.39-.15.59-.03.09-.06.19-.1.28.06-.13.05-.12-.03.04-.03.05-.33.48-.18.3-.06.07-.47.41-.19.22-.14.09-.28.18-.43.25.32-.15-.17.04-.25.06s-.6.09-.26.06c-.38.03-.75.04-1.13,0-.06,0-.62-.08-.33-.03-.19-.03-.39-.07-.58-.11-.73-.15-1.44-.37-2.13-.63-.76-.29-1.64.32-1.85,1.05-.23.84.29,1.56,1.05,1.85h0Z"/>
  <path d="M141.09,116.59c-.73.27-1.46.52-2.23.68-.1.02-.2.04-.3.06.15-.02.13-.01-.06,0-.2.02-.4.03-.6.03-.15,0-.29,0-.44-.02.31.03-.24-.06-.3-.08-.09-.03-.18-.06-.27-.09.14.06.14.05-.02-.03-.01,0-.37-.26-.17-.09-.05-.04-.41-.43-.26-.24-.12-.15-.21-.33-.29-.51.11.24-.05-.14-.06-.19-.06-.19-.11-.39-.15-.59-.02-.1-.04-.2-.05-.3.02.14.02.12,0-.06-.01-.18-.03-.36-.04-.54-.13-2.26-.12-4.52-.08-6.79.01-.81-.7-1.5-1.5-1.5s-1.49.69-1.5,1.5c-.03,1.85-.01,3.69.04,5.54.04,1.5.1,2.99.73,4.38s2.05,2.34,3.59,2.55c1.62.22,3.25-.24,4.76-.81.76-.29,1.28-1.01,1.05-1.85-.2-.73-1.08-1.34-1.85-1.05h0Z"/>
  <path d="M155.04,90.88s.03,0,.04,0l-1.06-2.56c.27-.27.59-.41.96-.42-.05,0-.09.01-.14.02-.13-.01-.29.03-.43.04-.45.05-.9.09-1.35.13-1.19.12-2.38.25-3.56.4-1.55.2-4.89.18-5.49,2.05l1.45-1.1c-2.57.28-5.19.49-7.76.1s-5.13-1.29-7.64-2.08c-1.07-.34-2.18.77-1.85,1.85.68,2.17-6.03.58-6.98.5-2.43-.2-4.84-.02-7.25.29-4.36.57-8.42,1.17-12.5-.92-1.71-.88-3.23,1.71-1.51,2.59,2.5,1.28,5.15,1.99,7.97,1.96,2.59-.02,5.14-.57,7.71-.83,3.28-.33,6.28.03,9.52.51,1.61.23,3.26.17,4.57-.89,1.21-.97,1.84-2.49,1.36-4.01l-1.85,1.85c2.61.83,5.23,1.73,7.94,2.13s5.49.26,8.25-.04c.69-.08,1.23-.42,1.45-1.1-.27.86-1.05.86-.08.61.45-.11.92-.19,1.37-.27,1.03-.17,2.06-.29,3.1-.41.94-.11,1.89-.2,2.83-.29.72-.07,1.43-.05,2.01-.54,1.1-.92.09-2.45-1.06-2.56-.01,0-.03,0-.04,0-1.93,0-1.93,2.99,0,3h0Z"/>
  <path d="M115.23,118.56c-.01,2.35-.54,4.62-1.18,6.87-.61,2.12-1.15,4.38-2.11,6.37s-2.59,3.58-4.37,4.85-3.76,2.64-5.95,3.24c-1.86.51-1.07,3.41.8,2.89,2.45-.67,4.61-2.09,6.66-3.55s4.08-3.3,5.27-5.58,1.78-4.67,2.47-7.03c.77-2.63,1.39-5.32,1.41-8.07,0-1.93-2.99-1.93-3,0h0Z"/>
  <path d="M138.9,120.37c.91,3.25,2.15,6.18,3.98,9.04,1.34,2.09,2.63,4.26,4.1,6.26.76,1.04,1.59,1.93,2.63,2.71.98.73,2.09,1.21,3.14,1.82,2.47,1.45,5.07,1.99,7.82,2.67,1.87.46,2.67-2.43.8-2.89-2.4-.6-4.8-.99-6.95-2.27-.97-.58-2.04-1.02-2.97-1.67s-1.57-1.42-2.19-2.3c-1.32-1.9-2.54-3.88-3.79-5.83-1.7-2.65-2.83-5.3-3.67-8.32-.52-1.86-3.41-1.07-2.89.8h0Z"/>
</svg>