<?xml version="1.0" encoding="UTF-8"?>
<svg id="Layer_14" data-name="Layer 14" xmlns="http://www.w3.org/2000/svg" xmlns:xlink="http://www.w3.org/1999/xlink" viewBox="0 0 256 256">
  <defs>
    <style>
      .cls-1 {
        fill: url(#radial-gradient-2);
      }

      .cls-2 {
        fill: url(#radial-gradient);
      }

      .cls-3 {
        opacity: .3;
      }

      .cls-4 {
        fill: #435054;
      }

      .cls-5 {
        fill: #6e8959;
      }
    </style>
    <radialGradient id="radial-gradient" cx="91.31" cy="124.36" fx="91.31" fy="124.36" r="11.58" gradientTransform="translate(38.15 -17.09) rotate(11.95) scale(.88 .99) skewX(4.89)" gradientUnits="userSpaceOnUse">
      <stop offset="0" stop-color="#fff"/>
      <stop offset=".41" stop-color="#fefdfd"/>
      <stop offset=".55" stop-color="#faf6f6"/>
      <stop offset=".66" stop-color="#f4eaea"/>
      <stop offset=".74" stop-color="#ebdad9"/>
      <stop offset=".81" stop-color="#e0c4c3"/>
      <stop offset=".88" stop-color="#d2aaa8"/>
      <stop offset=".94" stop-color="#c28a88"/>
      <stop offset=".99" stop-color="#af6663"/>
      <stop offset="1" stop-color="#ab5d5a"/>
    </radialGradient>
    <radialGradient id="radial-gradient-2" cx="167.84" cy="122.83" fx="167.84" fy="122.83" r="11.14" gradientTransform="translate(282.46 -60.53) rotate(163.29) scale(.9 -1.13) skewX(10.65)" xlink:href="#radial-gradient"/>
  </defs>
  <path class="cls-2" d="M113.46,118.78c.37,3.38-7.03,9.24-12.18,9.8s-13.65-3.63-14.02-7.01,7.08-2.75,12.54-4.26c5.01-1.38,13.28-1.92,13.65,1.47Z"/>
  <path class="cls-1" d="M144.69,119.44c-.27,3.94,7.22,9.17,12.44,9.53,5.22.36,12.99-3.58,13.26-7.52.27-3.94-6.38-3.04-11.95-4.48-5.11-1.31-13.48-1.47-13.75,2.47Z"/>
  <g class="cls-3">
    <path class="cls-4" d="M174.24,119.2c-2.5.46-3.89,1.1-5.59,2.97-2.23,2.46-3.81,5.04-7.53,5.15-4.88.15-9.13-3.01-13.84-3.7-2.29-.34-4.2,1.28-3.69,3.69,2.1,10.01,16.13,14.22,25.04,12.98,3.81-.53,2.19-6.31-1.6-5.79-5.8.8-16.31-2.37-17.66-8.79l-3.69,3.69c5.32.78,9.9,3.97,15.44,3.92,2.54-.02,5.01-.69,7.11-2.12,2.77-1.88,4.17-5.58,7.6-6.22,3.79-.7,2.19-6.49-1.6-5.79h0Z"/>
    <path class="cls-4" d="M98.47,141.35c3.12-.63,6.84-.9,9.58-2.63,4.64-2.92,5.75-7.61,8.02-12.27,1.68-3.46-3.49-6.5-5.18-3.03s-2.51,8.4-6.14,10.31c-2.25,1.18-5.4,1.34-7.87,1.84-3.78.76-2.18,6.54,1.6,5.79h0Z"/>
    <path class="cls-4" d="M106.16,126.06c-3.6,3.46-7.96,4.95-12.53,2.03-3.44-2.2-5.14-6.85-9.82-6.65-3.85.17-3.87,6.17,0,6,1.8-.08,5.06,4.76,6.79,5.83,2.24,1.38,4.81,2.19,7.43,2.38,4.88.35,8.92-2.02,12.37-5.34,2.79-2.68-1.46-6.92-4.24-4.24h0Z"/>
    <path class="cls-4" d="M113.98,104.87c-8.95.45-19.47,4.26-26.19,10.31-2.88,2.59,1.38,6.82,4.24,4.24,5.49-4.94,14.63-8.19,21.95-8.55,3.84-.19,3.87-6.19,0-6h0Z"/>
    <path class="cls-4" d="M139.94,113.06c4.57,3.36,8.7,3.72,14.16,3.85s11.75,1.76,16.98,3.97c3.51,1.49,6.58-3.68,3.03-5.18-4.82-2.04-9.82-3.51-15-4.29-5.86-.88-11.05.21-16.14-3.54-3.11-2.29-6.11,2.91-3.03,5.18h0Z"/>
  </g>
  <circle class="cls-5" cx="156.62" cy="122.92" r="5.62"/>
  <circle class="cls-5" cx="101.62" cy="122.92" r="5.62"/>
  <path d="M174.19,119.46c.55.23.93,1.99,1.87,2.39l1.16-2.74c-5.87-.96-11.5-3.03-17.38-3.97-6.58-1.05-13.36-.88-19.31,2.44-1.69.94-.18,3.53,1.51,2.59,11.03-6.15,23.12,0,34.38,1.84,1.52.25,2.85-2.02,1.16-2.74-.55-.23-.93-1.99-1.87-2.39-1.76-.75-3.29,1.84-1.51,2.59h0Z"/>
  <path d="M116.07,116.63c-5.83-2.72-12.03-3.2-18.27-1.77-5.2,1.19-9.97,3.58-15,5.25-1.82.6-1.04,3.5.8,2.89,4.67-1.55,9.11-3.73,13.89-4.98,5.75-1.5,11.63-1.34,17.08,1.2,1.74.81,3.26-1.77,1.51-2.59h0Z"/>
  <path d="M170.07,118.87c.27,2.89-2.54,4.91-4.75,6.26-2.99,1.82-6.6,3-10.13,2.7-2.75-.23-4.25-1.67-5.96-3.67-.83-.97-1.61-1.98-2.29-3.06-.29-.46-.61-.95-.8-1.47-.21-.56.03-.62-.24-.06.81-1.74-1.77-3.26-2.59-1.51-.9,1.91.67,4.08,1.74,5.59,1.39,1.96,2.98,3.98,4.91,5.43,2.62,1.98,6.24,2.02,9.33,1.5s6.05-1.78,8.61-3.55c2.71-1.87,5.5-4.58,5.17-8.16-.18-1.91-3.18-1.92-3,0h0Z"/>
  <path d="M84.21,120.77c3.96,6.29,11.29,11.24,18.97,8.92,1.88-.57,3.6-1.55,5.21-2.66,1.41-.97,3.09-1.98,4.11-3.39.9-1.26,2.05-2.72,1.97-4.34-.03-.68-.19-1.4-.67-1.91-.14-.14-.3-.33-.49-.39-.25-.17-.16-.04.26.39-.05-.18-.06-.37-.04-.56-.05-1.93-3.05-1.93-3,0,.01.6.2,2.73,1.22,2.74.21.13.1,0-.31-.42l.03.15c.08-.13-.26.85-.25.82-.28.53-.7,1.05-1.03,1.55-.78,1.22-2.32,2.08-3.5,2.89-1.34.91-2.75,1.76-4.31,2.23-6.36,1.93-12.34-2.39-15.58-7.55-1.03-1.63-3.62-.13-2.59,1.51h0Z"/>
  <path d="M155.23,124.1c.2-.07.41-.13.62-.16l-.4.05c.26-.03.52-.04.78,0l-.4-.05c.23.03.45.09.67.17l-1.05-1.85c-.02.1-.05.19-.09.28l.15-.36c-.04.1-.09.19-.16.27l.23-.3c-.05.06-.1.11-.15.15l.3-.23s-.09.06-.15.09l.36-.15c-.05.02-.1.03-.15.04l.4-.05s-.09,0-.13,0l.4.05c-.05,0-.1-.02-.15-.04l.36.15c-.05-.02-.1-.05-.15-.09l.3.23c-.06-.05-.11-.1-.15-.15l.23.3c-.06-.08-.1-.16-.14-.25l.15.36c-.03-.08-.06-.16-.08-.24l-.39,1.46c.1-.12.21-.23.34-.33l-.3.23c.1-.08.21-.14.33-.2l-.36.15c.11-.05.22-.08.34-.09l-.4.05c.09,0,.18,0,.28,0l-.4-.05c.11.01.21.04.31.08l-.36-.15c.1.04.2.1.29.17l-.3-.23s.09.08.13.12l-.23-.3s.04.07.06.11l-.15-.36c.02.05.03.11.04.17l-.05-.4c0,.07,0,.14,0,.21l.05-.4c-.01.1-.04.18-.08.27l.15-.36c-.04.08-.08.16-.14.23l.23-.3c-.04.05-.09.1-.14.15l.3-.23c-.1.08-.21.13-.32.18l.36-.15c-.12.05-.24.08-.37.1l.4-.05c-.12.01-.25.01-.37,0l.4.05c-.13-.02-.25-.06-.37-.11l.36.15c-.13-.06-.24-.13-.35-.21l.54,2.05c.04-.07.09-.15.14-.22l-.23.3c.1-.12.2-.24.33-.33l-.3.23c.08-.06.17-.11.27-.16l-.36.15c.08-.03.16-.06.25-.07l-.4.05c.08-.01.17-.01.25,0l-.4-.05c.09.01.17.04.25.07l-.36-.15c.05.02.1.05.15.08l-.54-2.05c-.06.12-.12.24-.21.35l.23-.3c-.06.07-.12.14-.2.2l.3-.23c-.07.05-.14.09-.22.13l.36-.15c-.06.02-.11.04-.17.05l.4-.05c-.06,0-.11,0-.17,0l.4.05c-.06,0-.11-.03-.17-.05l.36.15c-.06-.03-.11-.06-.16-.1l.3.23-.03-.02.44,1.06c0-.11,0-.22,0-.32l-.05.4c.02-.14.05-.27.1-.39l-.15.36c.04-.09.09-.18.14-.25l-.23.3c.04-.05.09-.1.14-.14l-.3.23s.08-.06.13-.08l-.36.15s.06-.02.09-.02l-.4.05s.06,0,.09,0l-.4-.05s.06.01.09.03l-.36-.15s.04.02.06.04l-.3-.23s.07.06.1.1l-.23-.3c.04.06.08.12.1.18l-.15-.36c.04.11.07.22.09.33l-.05-.4c.03.2.02.4,0,.6l.05-.4c-.02.17-.06.33-.13.49l.15-.36c-.03.08-.07.15-.12.22l.23-.3s-.06.07-.1.1l.3-.23s-.04.03-.06.04l.36-.15s-.04.02-.07.02l.4-.05s-.05,0-.07,0l.4.05s-.06-.01-.09-.02l.36.15s-.06-.03-.09-.05l.3.23s-.07-.06-.1-.1l.23.3c-.06-.08-.11-.17-.15-.26l.15.36c-.05-.12-.08-.25-.1-.37l.05.4c-.02-.15-.02-.3,0-.45l-.05.4c.01-.09.04-.17.07-.26l-.15.36c.03-.06.06-.12.09-.17l-.23.3s.07-.08.12-.12l-.3.23s.06-.04.09-.05l-.36.15s.06-.02.09-.03l-.4.05s.06,0,.09,0l-.4-.05s.04,0,.07.02l-.36-.15s.06.03.08.05l-.3-.23s.05.05.08.07l-.23-.3c.04.05.07.11.09.17l-.15-.36v.03c.14-.49.27-.97.4-1.46l-.02.02.3-.23s-.03.02-.04.03l.36-.15h-.02c.13-.01.27-.03.4-.05-.01,0-.03,0-.04,0l.4.05h-.02c.12.04.24.09.36.15-.02-.01-.04-.02-.06-.04l.3.23s-.03-.03-.04-.04l.23.3s-.06-.09-.08-.14l.15.36s-.03-.09-.04-.14l.05.4c0-.07-.01-.13,0-.2l-.05.4v-.04c-.48.37-.96.73-1.44,1.1.03,0,.07,0,.1,0l-.4-.05s.08.02.12.03l-.36-.15s.06.03.09.05l-.3-.23s.04.04.06.06l-.23-.3s.03.05.05.08l-.15-.36s.03.09.04.14l-.05-.4s0,.04,0,.06l.05-.4s0,.05-.02.08l.15-.36s-.02.04-.04.07l.23-.3s-.03.03-.05.05l.3-.23s-.02.02-.03.02l.36-.15s-.02,0-.03.01l.4-.05s-.02,0-.03,0l.4.05h-.01c.12.05.24.1.36.15h-.01c.1.07.2.15.3.23h-.01c.08.09.16.19.23.29h0c.05.1.1.22.15.34,0-.01-.01-.03-.01-.04l.05.4s0-.06,0-.09c.03-.36-.19-.81-.44-1.06-.26-.26-.69-.46-1.06-.44s-.79.14-1.06.44l-.23.3c-.14.23-.2.49-.2.76-.02.16.02.33.05.49.05.23.15.39.29.56.17.22.37.37.62.48.2.08.39.14.62.14.76,0,1.42-.56,1.62-1.29.17-.65-.04-1.35-.5-1.84-.1-.11-.24-.21-.37-.28s-.29-.14-.43-.18c-.1-.03-.2-.04-.3-.05s-.2-.03-.3-.03c-.33,0-.65.12-.91.32-.24.18-.49.47-.54.78-.07.4-.09.68,0,1.07.07.29.21.53.38.76.28.36.65.59,1.1.65.25.03.39.06.66-.03s.51-.23.72-.43c.36-.34.57-.98.39-1.46-.07-.19-.14-.39-.26-.56-.2-.27-.37-.47-.67-.65-.26-.15-.58-.24-.88-.24-.27,0-.49.06-.73.16-.86.36-1.3,1.27-1.31,2.18,0,.23.04.46.08.68.02.1.04.2.08.3.07.19.15.4.26.58s.23.34.38.47c.23.21.48.37.78.46.14.04.32.07.47.07.02,0,.03,0,.05,0,.11,0,.33-.03.44-.06.33-.1.66-.28.88-.55.26-.32.41-.59.55-.98.09-.27.12-.58.15-.86.06-.57-.07-1.15-.32-1.65-.08-.17-.21-.32-.34-.46s-.28-.25-.44-.34c-.57-.32-1.22-.28-1.79,0-.35.17-.61.47-.82.79-.08.12-.14.26-.19.4-.06.15-.13.3-.16.46-.05.23-.08.47-.08.71s.04.48.13.7c.15.35.36.55.67.76.33.22.8.36,1.2.33.58-.04,1.05-.25,1.49-.63.26-.23.48-.53.63-.85.11-.17.17-.36.18-.56.04-.2.04-.4-.03-.6-.12-.38-.35-.68-.69-.9-.58-.36-1.37-.48-2.02-.24-.42.15-.71.33-1.05.62-.25.22-.45.5-.62.78-.19.32-.27.8-.15,1.16l.15.36c.13.23.31.4.54.54,1.08.79,2.61.66,3.6-.2.5-.44.79-1.14.8-1.8.02-.81-.44-1.53-1.14-1.92-.23-.12-.48-.24-.73-.29-.45-.08-.73-.08-1.18,0-.53.09-1.04.42-1.43.78-.06.06-.12.12-.18.19-.19.23-.33.4-.41.7s-.07.55,0,.84c.07.25.17.49.29.71.3.5.76.89,1.33,1.05.35.1.72.09,1.07.01s.64-.27.92-.51c.4-.34.67-.87.78-1.37.08-.37.06-.82-.15-1.16l-.23-.3c-.19-.19-.41-.31-.66-.39-.45-.17-.95-.25-1.43-.25-.3,0-.59.04-.88.09-.19.03-.37.08-.55.15-.37.13-.69.34-.9.69-.19.32-.27.8-.15,1.16s.34.71.69.9.78.29,1.16.15h0Z"/>
  <path d="M101.26,123.23c.11-.11.22-.22.35-.32l-.3.23c.17-.13.35-.24.55-.32l-.36.15c.19-.08.38-.13.58-.16l-.4.05c.2-.03.4-.02.6,0l-.4-.05c.19.03.36.08.54.15l-.36-.15c.18.08.35.18.51.29l-.54-2.05c-.06.1-.13.19-.2.29l.23-.3c-.14.17-.29.32-.46.46l.3-.23c-.15.11-.31.21-.48.29l.36-.15c-.17.07-.34.12-.51.14l.4-.05c-.16.02-.32.02-.48,0l.4.05c-.16-.02-.32-.07-.47-.13l.36.15c-.16-.07-.31-.16-.45-.26l.3.23s-.05-.04-.07-.06v2.12c.07-.06.14-.13.22-.18l-.3.23c.19-.14.39-.26.61-.36l-.36.15c.19-.08.39-.14.6-.17l-.4.05c.1-.01.19-.02.29-.01l-.4-.05s.06.01.09.02l-.36-.15s.06.03.08.04l-.3-.23s.06.05.08.08l-.23-.3s.04.06.05.09l-.15-.36c.02.06.04.11.05.17l-.05-.4c0,.08,0,.16,0,.23l.05-.4c-.02.11-.05.21-.09.32l.15-.36c-.04.09-.08.17-.14.24l.23-.3s-.08.09-.12.13l.3-.23c-.1.08-.21.13-.33.19l.36-.15c-.51.22-.99.39-1.39.8l2.51,1.46c.03-.13.07-.26.12-.39l-.15.36c.06-.13.13-.25.21-.36l-.23.3c.08-.1.17-.19.27-.27l-.3.23c.1-.07.2-.13.31-.18l-.36.15c.09-.03.17-.06.26-.07l-.4.05c.09-.01.18-.01.27,0l-.4-.05c.09.01.17.04.26.07l-.36-.15c.08.03.15.08.21.13l-.3-.23c.07.06.13.12.19.19l-.23-1.82c-.04.08-.09.16-.15.24l.23-.3c-.06.08-.13.15-.21.21l.3-.23c-.08.06-.15.1-.24.14l.36-.15c-.07.03-.14.05-.22.06l.4-.05c-.08,0-.15,0-.22,0l.4.05c-.08-.01-.15-.03-.22-.06l.36.15c-.07-.03-.14-.07-.21-.12l.3.23c-.06-.05-.11-.09-.15-.15l.39,1.46c.02-.11.05-.22.09-.32l-.15.36c.04-.09.09-.18.15-.26l-.23.3c.05-.06.11-.12.17-.17l-.3.23c.06-.05.13-.09.2-.12l-.36.15c.08-.03.16-.05.24-.07l-.4.05c.06,0,.12,0,.18,0l-.4-.05c.07,0,.14.03.21.05l-.36-.15c.06.03.11.06.17.1l-.3-.23c.05.04.1.09.15.14l-.23-.3c.05.07.1.15.14.23l-.15-.36.02.04.39-1.46c-.15.13-.29.26-.45.38l.3-.23c-.18.14-.36.26-.57.35l.36-.15c-.11.05-.22.08-.35.1l.4-.05c-.08,0-.17,0-.25,0l.4.05c-.07,0-.13-.02-.19-.05l.36.15c-.06-.03-.12-.06-.17-.1l.3.23c-.08-.06-.14-.13-.21-.2l.23.3c-.09-.12-.16-.24-.22-.38l.15.36c-.06-.14-.1-.28-.12-.44l.05.4c-.01-.12-.02-.24,0-.36l-.05.4c.01-.09.04-.17.07-.26l-.15.36c.03-.08.07-.14.12-.21l-.23.3s.07-.08.11-.11l-.3.23c.07-.05.13-.09.21-.12l-.36.15c.09-.03.18-.05.27-.07l-.4.05c.13-.01.25-.01.38,0l-.4-.05c.14.02.28.06.42.11l-.36-.15c.16.07.3.15.43.25l-.3-.23c.16.12.3.26.42.42v-2.12c-.09.12-.19.22-.31.32l.3-.23c-.11.08-.23.15-.35.21l.36-.15c-.11.04-.22.07-.33.09l.4-.05c-.11.01-.23.01-.34,0l.4.05c-.12-.02-.23-.05-.33-.09l.36.15c-.11-.05-.22-.11-.31-.18l.3.23s-.07-.06-.11-.09l.23,1.82s.05-.08.08-.12l-.23.3c.05-.06.1-.11.15-.16l-.3.23s.09-.06.14-.08l-.36.15s.1-.03.15-.04l-.4.05c.05,0,.1,0,.15,0l-.4-.05c.05,0,.1.02.15.04l-.36-.15c.05.02.1.05.14.08l-.3-.23s.04.04.07.06l.3-2.36c-.11.06-.21.11-.32.16l.36-.15c-.24.1-.48.16-.73.2l.4-.05c-.23.03-.46.02-.69,0l.4.05c-.06,0-.11-.02-.17-.03l-.4,2.95c.3,0,.61,0,.91,0,.38,0,.79-.17,1.06-.44s.46-.69.44-1.06c-.04-.82-.66-1.49-1.5-1.5-.3,0-.61,0-.91,0-.75,0-1.38.57-1.47,1.3s.34,1.5,1.07,1.65c.28.06.57.1.85.11s.59-.04.88-.09c.46-.07.92-.27,1.33-.5.81-.46,1.01-1.71.3-2.36-.55-.5-1.26-.73-1.99-.55-.59.15-1.1.56-1.4,1.09-.31.56-.26,1.37.23,1.82.58.53,1.34.88,2.14.81s1.58-.41,2.08-1.06c.15-.14.25-.3.31-.48.09-.18.14-.37.13-.58l-.05-.4c-.07-.25-.2-.47-.39-.66-.52-.66-1.31-1.09-2.13-1.2-.19-.03-.36-.05-.55-.03-.42.04-.67.1-1.05.27-.41.19-.79.57-.98.98s-.32.85-.28,1.31c.04.49.15.87.35,1.31.05.1.1.19.16.27.12.17.26.37.42.51.15.13.31.27.49.36.33.17.62.24.99.27,1.05.1,1.95-.62,2.68-1.28.19-.19.31-.41.39-.66.07-.27.07-.53,0-.8-.16-.39-.31-.74-.63-1.03-.28-.26-.61-.46-.98-.56-.62-.16-1.36-.07-1.89.32-.33.24-.6.49-.8.84-.24.41-.39.92-.33,1.4.05.38.24.73.53.98.15.13.32.27.51.36.37.18.78.31,1.2.28s.86-.14,1.22-.38c.38-.26.72-.6.93-1.02.15-.31.22-.61.18-.96s-.19-.59-.41-.86c-.3-.36-.77-.65-1.23-.75-.55-.13-1.09-.08-1.6.13-.9.38-1.57,1.21-1.78,2.17-.07.34-.06.65.08.98.12.29.33.57.61.72.58.31,1.35.26,1.82-.23.04-.04.07-.07.11-.11l-.3.23c.11-.08.22-.14.34-.19l-.36.15c.3-.13.62-.22.89-.4.33-.22.62-.49.82-.85.39-.71.51-1.64.09-2.37-.3-.53-.8-.86-1.4-.94-.39-.05-.78,0-1.16.1-.69.19-1.29.57-1.82,1.04-.56.51-.6,1.62,0,2.12.44.36.89.66,1.45.8s1.09.13,1.64,0c1.01-.23,1.86-.97,2.39-1.84.19-.31.27-.8.15-1.16l-.15-.36c-.13-.23-.31-.4-.54-.54-.33-.24-.74-.43-1.13-.54s-.83-.16-1.24-.11c-.56.07-1.01.18-1.52.44-.39.2-.75.49-1.05.8-.27.28-.44.67-.44,1.06,0,.37.16.81.44,1.06s.66.46,1.06.44.78-.15,1.06-.44h0Z"/>
  <path d="M174.57,115.94c-4.82-4.39-11.18-6.62-17.55-7.52-5.33-.75-10.84-.91-16.08-2.18-1.88-.45-2.68,2.44-.8,2.89,10.93,2.64,23.32.74,32.31,8.93,1.42,1.3,3.55-.82,2.12-2.12h0Z"/>
  <path d="M81.62,120.75c5.44-.73,9.39-5.39,14.05-7.85,5.78-3.05,12.48-6.23,19.17-5.37,1.91.25,1.89-2.76,0-3-6.72-.87-13.22,2.12-19.11,4.98-2.6,1.26-4.88,2.84-7.22,4.52-1.98,1.42-4.4,3.38-6.9,3.71-.81.11-1.49.61-1.5,1.5,0,.73.7,1.61,1.5,1.5h0Z"/>
  <path d="M142,119.77c-.38,2.59,1.23,4.55,2.61,6.57,1.5,2.21,2.56,4.59,4.58,6.42,3.79,3.43,9.37,4.82,14.38,4.87,1.93.02,1.93-2.98,0-3-4.06-.04-8.85-1.05-12-3.77-1.81-1.56-2.79-3.52-4.02-5.51-.51-.82-1.11-1.58-1.64-2.39-.4-.62-1.13-1.59-1.01-2.39s-.2-1.6-1.05-1.85c-.7-.2-1.73.25-1.85,1.05h0Z"/>
  <path d="M113.4,120.1c-.59,4.06-1.93,7.71-4.99,10.56-3.25,3.03-7.57,4.69-12.02,4.47-1.93-.09-1.92,2.91,0,3,5.13.25,10.13-1.72,13.92-5.15,3.54-3.19,5.31-7.44,5.98-12.08.12-.8-.2-1.61-1.05-1.85-.7-.19-1.73.24-1.85,1.05h0Z"/>
</svg>