<?xml version="1.0" encoding="UTF-8"?>
<svg id="Layer_24" data-name="Layer 24" xmlns="http://www.w3.org/2000/svg" xmlns:xlink="http://www.w3.org/1999/xlink" viewBox="0 0 256 256">
  <defs>
    <style>
      .cls-1 {
        fill: url(#radial-gradient-2);
      }

      .cls-2 {
        fill: url(#radial-gradient);
      }

      .cls-3 {
        opacity: .3;
      }

      .cls-4 {
        fill: #443a36;
      }

      .cls-5 {
        fill: #435054;
      }
    </style>
    <radialGradient id="radial-gradient" cx="91.3" cy="123.7" fx="91.3" fy="123.7" r="12.16" gradientTransform="translate(38.15 -17.09) rotate(11.95) scale(.88 .99) skewX(4.89)" gradientUnits="userSpaceOnUse">
      <stop offset="0" stop-color="#fff"/>
      <stop offset=".41" stop-color="#fefdfd"/>
      <stop offset=".55" stop-color="#faf6f6"/>
      <stop offset=".66" stop-color="#f4eaea"/>
      <stop offset=".74" stop-color="#ebdad9"/>
      <stop offset=".81" stop-color="#e0c4c3"/>
      <stop offset=".88" stop-color="#d2aaa8"/>
      <stop offset=".94" stop-color="#c28a88"/>
      <stop offset=".99" stop-color="#af6663"/>
      <stop offset="1" stop-color="#ab5d5a"/>
    </radialGradient>
    <radialGradient id="radial-gradient-2" cx="167.49" cy="122.38" fx="167.49" fy="122.38" r="11.39" gradientTransform="translate(278.69 -60.79) rotate(162.54) scale(.87 -1.12) skewX(12.47)" xlink:href="#radial-gradient"/>
  </defs>
  <g class="cls-3">
    <path class="cls-5" d="M116.75,114.47c-2.31,3.67-5.38,8.2-8.77,10.97-2.11,1.73-6.67,3.34-9.48,3.33-4.5,0-7.1-3.72-10.54-5.88s-6.29,3.13-3.03,5.18c3.99,2.51,6.66,5.76,11.66,6.51,4.32.65,10.13-1.1,13.79-3.39,4.65-2.91,8.67-9.12,11.55-13.7,2.06-3.28-3.13-6.29-5.18-3.03h0Z"/>
    <path class="cls-5" d="M112.48,125.36c-.42,2.29-.88,5.69-2.72,7.33-2.29,2.06-7.2,1.85-10.07,2.46-3.77.81-2.18,6.6,1.6,5.79,4.16-.9,9.47-.8,12.72-4.01,2.59-2.56,3.63-6.51,4.26-9.98.68-3.78-5.1-5.39-5.79-1.6h0Z"/>
    <path class="cls-5" d="M135.06,119.19c4.18,5.4,8.72,13.91,16.01,15.2,4.51.79,11.12,1.28,15.03-1.41,4.21-2.89,7.49-6.37,9.94-10.86,1.85-3.39-3.33-6.42-5.18-3.03s-4.72,7.55-8.36,9.14c-2.99,1.3-10.11,1-12.73-.77-4.28-2.89-7.35-8.48-10.47-12.51-2.36-3.05-6.58,1.22-4.24,4.24h0Z"/>
    <path class="cls-5" d="M141.87,129.51c2.46,3.43,3.63,6.95,7.29,9.37,1.97,1.3,4.09,2.28,6.43,2.7,2.08.37,4.14.01,6.21.43,3.77.77,5.38-5.01,1.6-5.79s-7.05.03-10.36-1.98c-3.08-1.87-3.96-4.94-5.98-7.76-2.23-3.11-7.43-.12-5.18,3.03h0Z"/>
    <path class="cls-5" d="M121.14,111.72c-5.8-1.45-10.86-1.51-16-5.01-3.18-2.16-6.61-3.84-10.41-4.6s-7.63,1.06-11.42.45-5.4,5.17-1.6,5.79c3.5.57,6.58-.77,10.03-.64,5.17.19,8.71,3.64,13.02,5.82,4.85,2.44,9.62,2.69,14.78,3.98,3.75.94,5.34-4.85,1.6-5.79h0Z"/>
    <path class="cls-5" d="M136.26,118.19c6.52-1.78,11.97-3.95,18.02-6.81,5.26-2.49,12.03-2.88,17.49-1.29,3.71,1.08,5.3-4.71,1.6-5.79-6.23-1.82-11.8-1.19-17.97.33-3.35.82-5.9,2.86-9,4.22-3.74,1.64-7.81,2.48-11.74,3.55-3.72,1.02-2.14,6.81,1.6,5.79h0Z"/>
  </g>
  <path class="cls-2" d="M114.22,120.6c.37,3.38-7.78,6.42-12.93,6.98s-14.14-6.21-14.51-9.59,3.76-1.91,9.22-3.42c5.01-1.38,17.85,2.65,18.22,6.03Z"/>
  <path class="cls-1" d="M145.67,119.5c-.27,3.94,6.92,9.14,11.95,9.49,5.02.35,12.55-7.76,12.82-11.7.27-3.94-6.08-3.61-12.1-3.09-5.06.44-12.4,1.36-12.67,5.3Z"/>
  <circle class="cls-4" cx="156.62" cy="120.92" r="5.62"/>
  <circle class="cls-4" cx="100.62" cy="120.92" r="5.62"/>
  <path d="M175.55,119.61c.41.06.82.08,1.19-.15,1.02-.63.9-1.94,0-2.59-.59-.43-1.56-.63-2.24-.88-1.28-.47-2.56-.92-3.85-1.35-2.61-.87-5.17-1.51-7.95-1.53-3.79-.03-7.59.76-11.2,1.86-2.21.67-4.38,1.49-6.51,2.38-.45.19-2.63,1.13-2.71.48-.23-1.89-3.24-1.91-3,0,.36,2.87,2.8,3.66,5.35,2.86,1.6-.5,3.12-1.27,4.7-1.84,1.71-.62,3.44-1.17,5.21-1.62,2.98-.76,6.04-1.25,9.12-1.1,2.16.11,4.15.72,6.19,1.4,1.25.42,2.5.85,3.74,1.31.44.16.88.32,1.31.49.13.05.28.14.43.17-.12-.02-.26-.15-.1-.04v-2.59h0c.39-.05.77-.1,1.16-.15h-.03c-1.89-.29-2.7,2.6-.8,2.89h0Z"/>
  <path d="M114.99,118.54c-5.72-3.39-12.17-5.84-18.92-5.36-4.89.35-9.36,2.15-13.96,3.67-1.83.6-1.04,3.5.8,2.89,4.22-1.39,8.4-3.17,12.88-3.54,6.35-.53,12.3,1.73,17.69,4.93,1.66.99,3.18-1.61,1.51-2.59h0Z"/>
  <path d="M169.94,117.3c.38,4.17-5.59,7.12-8.89,8.11-2.87.87-6.31,1.19-9.24.42-1.62-.43-2.46-1.5-3.45-2.73-.38-.47-.84-.85-1.3-1.23-.27-.22-.56-.44-.8-.69-.48-.49-.13-.4-.35.07.8-1.74-1.79-3.27-2.59-1.51s.08,2.96,1.38,4.05c1.38,1.16,2.29,2.71,3.78,3.75,3.29,2.28,8.39,1.96,12.12,1.1,4.89-1.13,12.88-5.29,12.33-11.34-.17-1.91-3.17-1.93-3,0h0Z"/>
  <path d="M84.21,118.77c1.91,3.08,4.09,6.31,7.22,8.27,3.42,2.13,7.89,2.79,11.75,1.66,1.98-.58,3.9-1.45,5.67-2.51.73-.43,1.42-1.08,2.2-1.38.65-.25,1.39-.27,2.05-.49,1.27-.42,1.79-1.34,2.49-2.39.99-1.48,1.75-3.05,1.84-4.86.1-1.93-2.9-1.92-3,0-.07,1.35-.85,2.49-1.58,3.58-.13.19-.28.38-.4.59-.12.22-.29.29-.05.15-.4.25-1.02.27-1.47.37-1.41.31-2.36,1.11-3.58,1.84-1.55.93-3.21,1.69-4.95,2.2-3.22.95-6.96.34-9.74-1.55-2.51-1.71-4.27-4.45-5.84-6.99-1.02-1.64-3.61-.13-2.59,1.51h0Z"/>
  <path d="M154.78,121.84c.23-.06.46-.11.69-.14l-.4.05c.42-.05.84-.05,1.27,0l-.4-.05c.23.03.46.08.69.15l-1.05-1.85c-.02.06-.03.11-.06.16l.15-.36c-.04.1-.09.19-.15.28l.23-.3c-.06.08-.13.14-.2.2l.3-.23c-.06.05-.13.09-.2.12l.36-.15c-.08.03-.16.06-.25.07l.4-.05c-.08,0-.15,0-.22,0l.4.05c-.09-.01-.17-.04-.25-.07l.36.15c-.07-.03-.14-.07-.2-.12l.3.23c-.07-.05-.12-.11-.18-.18l.23.3c-.06-.09-.11-.18-.16-.27l.15.36s-.03-.08-.04-.12l-.39,1.46c.07-.06.14-.12.21-.18l-.3.23c.15-.12.32-.21.49-.29l-.36.15c.17-.07.34-.12.52-.14l-.4.05c.16-.02.32-.02.49,0l-.4-.05c.16.02.32.07.48.13l-.36-.15c.1.05.2.1.3.16l-.3-.23s.07.06.1.09l-.23-.3s.06.08.08.13l-.15-.36s.03.09.04.14l-.05-.4c0,.06,0,.12,0,.19l.05-.4c-.01.06-.03.12-.05.18l.15-.36c-.03.07-.08.14-.12.21l.23-.3c-.06.07-.12.14-.2.2l.3-.23c-.09.07-.2.12-.3.17l.36-.15c-.2.08-.4.14-.61.16l.4-.05c-.19.02-.37.02-.56,0l.4.05c-.21-.03-.41-.09-.61-.17l.36.15c-.09-.04-.18-.09-.27-.14l.54,2.05.03-.04-.23.3c.11-.14.23-.26.37-.37l-.3.23c.13-.1.27-.18.42-.25l-.36.15c.13-.05.26-.09.4-.11l-.4.05c.12-.01.24-.01.36,0l-.4-.05c.14.02.27.05.4.11l-.36-.15s.06.03.09.04l-.54-2.05c-.04.07-.09.14-.14.21l.23-.3c-.08.1-.17.19-.27.27l.3-.23c-.08.06-.17.11-.26.16l.36-.15c-.09.04-.18.07-.28.08l.4-.05c-.1.01-.19.01-.29,0l.4.05c-.1-.01-.19-.04-.28-.08l.36.15c-.05-.02-.1-.05-.15-.08l.74,1.3c0-.09,0-.19,0-.28l-.05.4c.02-.12.05-.23.09-.34l-.15.36c.04-.09.09-.17.14-.25l-.23.3c.06-.07.12-.14.19-.19l-.3.23c.06-.04.12-.08.18-.11l-.36.15c.05-.02.1-.03.16-.04l-.4.05s.08,0,.13,0l-.4-.05s.08.02.12.03l-.36-.15s.08.04.12.07l-.3-.23s.09.08.12.13l-.23-.3c.04.06.07.12.1.18l-.15-.36c.04.1.07.21.09.32l-.05-.4c.02.16.02.31,0,.47l.05-.4c-.02.15-.06.3-.12.44l.15-.36c-.04.1-.09.18-.15.27l.23-.3s-.08.09-.13.13l.3-.23s-.08.05-.12.07l.36-.15s-.07.02-.11.03l.4-.05s-.07,0-.11,0l.4.05s-.09-.02-.14-.04l.36.15s-.09-.05-.13-.08l.3.23c-.05-.04-.1-.09-.15-.15l.23.3c-.07-.09-.12-.18-.16-.27l.15.36c-.04-.11-.07-.21-.09-.33l.05.4c-.02-.12-.02-.23,0-.35l-.05.4c.01-.09.04-.18.07-.26l-.15.36c.03-.06.06-.12.1-.17l-.23.3s.08-.09.13-.13l-.3.23s.08-.05.12-.07l-.36.15c.05-.02.1-.04.16-.05l-.4.05s.08,0,.13,0l-.4-.05s.08.02.12.03l-.36-.15s.08.04.11.07l-.3-.23s.07.06.1.1l-.23-.3s.06.09.08.14l.54-2.05s-.04.03-.06.04l.36-.15s-.04.01-.06.01l.4-.05h-.03c.13.02.27.04.4.05-.02,0-.04,0-.06-.02l.36.15s-.06-.03-.09-.05l.3.23s-.05-.05-.08-.09l.23.3s-.04-.07-.06-.11l.15.36c-.02-.06-.04-.11-.04-.17l.05.4s0-.09,0-.13l-.05.4v-.05c-.47.37-.95.73-1.44,1.1.05,0,.1,0,.15,0l-.4-.05c.06,0,.12.02.18.04l-.36-.15s.07.03.1.05l-.3-.23s.06.05.08.08l-.23-.3s.03.05.04.07l-.15-.36s.03.08.04.12l-.05-.4s0,.04,0,.07l.05-.4s0,.04-.02.06l.15-.36s-.02.04-.03.05l.23-.3s-.04.04-.06.06l.3-.23s-.03.02-.05.03l.36-.15s-.04.02-.07.02l.4-.05h-.02c.13.02.27.04.4.05-.01,0-.03,0-.04,0l.36.15h-.02c.1.07.2.15.3.22h-.01c.08.09.16.19.23.29v-.02c.04.12.09.24.14.36,0-.02-.01-.03-.01-.05l.05.4s0-.04,0-.07c.04-.36-.2-.82-.44-1.06-.26-.26-.69-.46-1.06-.44s-.79.14-1.06.44l-.23.3c-.14.23-.2.49-.2.76-.05.42.17.9.46,1.19s.72.48,1.15.47c.76,0,1.44-.54,1.65-1.26.19-.66-.03-1.36-.5-1.84-.39-.4-.97-.57-1.51-.57-.33,0-.65.12-.91.32-.24.19-.47.47-.54.78-.15.71,0,1.43.51,1.96.22.23.53.41.84.49.28.07.58.07.86,0,.15-.04.34-.11.46-.2.31-.23.6-.5.69-.9s.03-.78-.15-1.16c-.17-.35-.49-.67-.84-.85-.46-.24-1.01-.32-1.52-.16s-.9.48-1.2.92c-.25.37-.34.81-.38,1.25-.03.48.11.93.31,1.36.18.4.49.71.84.96.44.31,1.01.38,1.53.27.35-.07.71-.29.96-.54.51-.51.71-1.2.78-1.9.03-.3-.02-.61-.08-.9-.07-.34-.23-.65-.44-.91-.28-.37-.65-.65-1.12-.77-.52-.13-1.03-.04-1.51.2-.37.19-.64.49-.88.82-.06.08-.1.16-.14.25-.09.19-.19.4-.23.61-.05.23-.09.48-.07.72.02.41.15.81.44,1.11.12.12.27.22.42.3.4.2.87.35,1.32.3s.9-.15,1.29-.41c.41-.28.75-.62,1-1.06.39-.66.19-1.7-.54-2.05s-1.48-.47-2.25-.24c-.31.09-.63.23-.89.42-.18.13-.38.27-.54.44s-.3.36-.45.55c-.21.27-.25.84-.15,1.16.12.37.34.7.69.9.65.37,1.44.6,2.19.51.89-.1,1.73-.4,2.29-1.13.31-.41.52-.9.51-1.42-.01-.65-.3-1.22-.82-1.61-.31-.24-.68-.42-1.07-.52-.33-.08-.69-.14-1.03-.11-.52.05-.93.15-1.4.38-.35.17-.68.42-.96.69-.37.35-.55.97-.39,1.46.08.25.18.51.33.73.23.33.42.51.74.75.36.27.9.42,1.35.4,1.16-.04,2.07-.84,2.39-1.94.23-.78-.28-1.62-1.05-1.85-1.12-.32-2.32-.32-3.44,0-.36.1-.71.36-.9.69s-.27.8-.15,1.16c.25.77,1.04,1.27,1.85,1.05h0Z"/>
  <path d="M100.19,121.68c.1-.1.21-.2.32-.29l-.3.23c.18-.13.36-.25.57-.34l-.36.15c.2-.08.4-.14.61-.17l-.4.05c.21-.03.41-.03.62,0l-.4-.05c.21.03.41.09.61.17l-.36-.15c.17.08.33.17.48.28l-.54-2.05c-.05.09-.11.17-.17.25l.23-.3c-.14.18-.29.34-.47.47l.3-.23c-.16.12-.32.22-.5.3l.36-.15c-.17.07-.35.12-.53.15l.4-.05c-.18.02-.36.02-.54,0l.4.05c-.17-.03-.33-.07-.49-.14l.36.15c-.15-.07-.29-.15-.42-.25l.3.23s-.05-.04-.07-.06v2.12c.06-.05.12-.1.19-.15l-.3.23c.2-.15.42-.28.65-.38l-.36.15c.21-.08.42-.14.64-.18l-.4.05c.1-.01.2-.02.3-.01l-.4-.05s.06.01.09.02l-.36-.15s.06.03.09.04l-.3-.23s.06.05.09.08l-.23-.3s.04.06.05.09l-.15-.36s.03.09.04.14l-.05-.4c.01.08.01.16,0,.24l.05-.4c-.02.11-.05.22-.09.33l.15-.36c-.04.09-.09.17-.14.25l.23-.3s-.08.09-.13.14l.3-.23c-.1.08-.22.14-.34.19l.36-.15c-.52.21-1,.39-1.41.8l2.51,1.46c.03-.12.06-.24.11-.35l-.15.36c.06-.14.14-.28.24-.4l-.23.3c.08-.09.16-.18.25-.25l-.3.23c.1-.08.2-.14.32-.19l-.36.15c.1-.04.2-.07.31-.08l-.4.05c.09,0,.18,0,.28,0l-.4-.05c.08.01.16.03.24.06l-.36-.15c.08.03.15.08.22.13l-.3-.23c.07.06.14.12.2.19l-.23-1.82c-.04.08-.09.16-.15.24l.23-.3c-.06.08-.13.15-.22.21l.3-.23c-.07.05-.14.09-.21.12l.36-.15c-.09.04-.17.06-.26.08l.4-.05c-.08,0-.15,0-.23,0l.4.05c-.08-.01-.15-.03-.22-.06l.36.15c-.08-.03-.14-.07-.21-.12l.3.23c-.06-.05-.11-.09-.16-.15l.39,1.46c.02-.11.05-.22.09-.32l-.15.36c.04-.08.08-.16.13-.23l-.23.3c.06-.07.12-.14.2-.2l-.3.23c.06-.05.13-.09.2-.12l-.36.15c.08-.03.16-.05.25-.07l-.4.05c.07,0,.15,0,.22,0l-.4-.05c.06.01.12.03.18.05l-.36-.15c.06.03.12.06.17.1l-.3-.23c.07.05.12.11.17.17l-.23-.3c.05.07.1.15.13.24l.23-1.82c-.14.12-.27.24-.41.35l.3-.23c-.2.15-.4.29-.63.39l.36-.15c-.12.05-.23.08-.35.1l.4-.05c-.09,0-.17,0-.26,0l.4.05c-.07-.01-.13-.02-.2-.05l.36.15c-.08-.03-.14-.07-.21-.12l.3.23c-.07-.06-.13-.12-.18-.19l.23.3c-.09-.12-.16-.25-.22-.39l.15.36c-.05-.13-.09-.26-.11-.4l.05.4c-.02-.12-.02-.24,0-.37l-.05.4c.01-.09.04-.18.07-.26l-.15.36c.03-.06.06-.11.1-.17l-.23.3c.04-.06.09-.11.15-.15l-.3.23c.05-.04.11-.07.17-.1l-.36.15c.09-.04.18-.06.28-.08l-.4.05c.14-.02.29-.02.43,0l-.4-.05c.16.02.32.07.47.13l-.36-.15c.16.07.3.16.44.27l-.3-.23c.14.12.27.25.39.39v-2.12c-.09.12-.2.22-.32.32l.3-.23c-.1.07-.21.14-.32.19l.36-.15c-.12.05-.25.09-.39.11l.4-.05c-.12.01-.23.01-.35,0l.4.05c-.12-.02-.23-.05-.34-.09l.36.15c-.12-.05-.22-.11-.32-.18l.3.23s-.08-.06-.11-.09l.23,1.82s.05-.08.08-.12l-.23.3s.08-.09.13-.13l-.3.23c.06-.04.12-.08.19-.11l-.36.15c.05-.02.1-.03.16-.04l-.4.05c.06,0,.11,0,.16,0l-.4-.05c.06.01.11.02.16.05l-.36-.15s.08.04.11.06l-.3-.23s.05.04.07.06l.3-2.36c-.11.06-.22.11-.33.16l.36-.15c-.22.09-.45.15-.69.19l.4-.05c-.25.03-.51.03-.76,0l.4.05c-.06,0-.12-.02-.17-.03l-.4,2.95c.31,0,.62,0,.93,0,.38,0,.79-.17,1.06-.44s.46-.69.44-1.06c-.04-.82-.66-1.49-1.5-1.5-.31,0-.62,0-.93,0-.75,0-1.38.57-1.47,1.3-.09.69.34,1.5,1.07,1.65.62.12,1.15.12,1.76.02.47-.08.93-.27,1.35-.5.81-.44,1.02-1.72.3-2.36-.57-.5-1.25-.72-2-.55-.6.13-1.11.57-1.41,1.09-.17.29-.22.63-.18.96.04.31.17.65.41.86.6.53,1.35.88,2.17.81s1.59-.41,2.11-1.06c.25-.31.46-.64.44-1.06l-.05-.4c-.07-.25-.2-.47-.39-.66-.54-.66-1.33-1.09-2.17-1.2-.43-.06-.88-.06-1.29.1-.55.21-1.07.57-1.33,1.12-.19.41-.32.85-.28,1.3.04.5.15.87.36,1.32.14.29.34.57.58.78.44.39.93.59,1.52.64.54.04,1.1-.16,1.57-.42.41-.23.77-.55,1.13-.86l.23-.3c.11-.17.17-.36.18-.56.04-.13.04-.27,0-.4,0-.2-.07-.39-.18-.56-.03-.08-.07-.15-.12-.22-.11-.16-.23-.33-.38-.46-.29-.26-.62-.47-1.01-.56-.72-.17-1.44,0-2.03.44-.27.21-.49.44-.67.74-.25.44-.45,1.09-.29,1.58s.57.93,1.04,1.16c.37.18.77.3,1.19.27.91-.07,1.75-.57,2.17-1.4.16-.31.22-.61.18-.96s-.18-.6-.41-.86c-.63-.74-1.79-1.04-2.7-.69-.47.18-.89.42-1.22.81-.35.42-.63.89-.74,1.43-.14.63.08,1.37.69,1.69s1.34.26,1.82-.23c.04-.04.08-.07.12-.11l-.3.23c.11-.08.23-.14.35-.19l-.36.15c.3-.12.63-.22.9-.4.34-.22.63-.5.83-.86.39-.71.51-1.63.09-2.35-.26-.45-.7-.81-1.21-.92-.46-.1-.91-.05-1.36.07-.71.18-1.32.57-1.86,1.05-.27.23-.45.71-.44,1.06.02.37.14.82.44,1.06.45.36.91.66,1.48.8s1.09.13,1.65,0c1.03-.22,1.88-.97,2.43-1.84.19-.31.26-.81.15-1.16-.13-.39-.36-.66-.69-.9s-.76-.43-1.17-.54-.84-.16-1.25-.11c-.56.06-1.01.18-1.52.44-.4.2-.77.49-1.08.81-.27.28-.44.67-.44,1.06,0,.37.16.81.44,1.06s.66.46,1.06.44.78-.15,1.06-.44h0Z"/>
  <path d="M141.68,121.76c.93,2.16,1.39,4.42,2.94,6.26,1.67,1.99,3.77,3.8,5.79,5.43,1.9,1.54,3.9,2.58,6.3,3.1s4.98,1.08,7.48,1.36c.81.09,1.49-.75,1.5-1.5,0-.89-.7-1.41-1.5-1.5-2.18-.24-4.37-.79-6.51-1.22s-4-1.38-5.74-2.85-3.76-3.12-5.2-4.94c-1.27-1.61-1.68-3.8-2.47-5.65-.32-.75-1.41-.9-2.05-.54-.77.44-.86,1.31-.54,2.05h0Z"/>
  <path d="M113.21,123.33c0,.14,0,.28,0,.42,0,.01-.06.46-.02.2-.05.3-.12.59-.2.87-.18.63-.39,1.18-.67,1.74-.6,1.21-1.27,2.27-2.24,3.15-.26.23-.11.13-.45.34s-.68.37-1.02.54c-.81.39-1.66.7-2.51.99-1.7.58-3.44,1.08-5.1,1.78-.75.31-1.28.99-1.05,1.85.19.7,1.09,1.36,1.85,1.05,1.85-.77,3.78-1.3,5.66-1.98,1.71-.61,3.52-1.28,4.85-2.56,1.12-1.06,2.01-2.43,2.68-3.82s1.24-2.98,1.22-4.57c-.03-1.93-3.03-1.93-3,0h0Z"/>
  <path d="M121.9,114.03c.6-.34,1.31-.62,1.87-1-.04.03.16-.07.13-.05l.05-.02c.81-.21.29-.79-1.55-1.74.02,0,.23-.45,0-.05-.1.17-.33.49-.36.69-.06.42-.12-.15.16-.04-.43-.17-.9-.23-1.34-.43-2.59-1.12-5.39-1.7-8.09-2.51-1.21-.37-2.34-.75-3.42-1.42-1.5-.94-2.79-2.17-4.29-3.1-3.5-2.16-7.6-3.2-11.53-4.23-2.24-.59-4.29-.06-6.47.51s-4.28.71-6.3,1.43c-1.81.64-1.03,3.54.8,2.89,2.09-.74,4.37-.91,6.52-1.48,1.04-.28,2.06-.62,3.14-.64,1.3-.03,2.48.54,3.73.85,2.48.62,4.78,1.36,7.1,2.47,1.9.91,3.41,2.26,5.13,3.45,2.73,1.9,6.1,2.52,9.24,3.44,1.4.41,2.7.98,4.06,1.46,1.48.52,3.15.44,4.06-.97.63-.98,1.37-2.51.05-3.31s-3.15.61-4.21,1.22c-1.68.95-.17,3.55,1.51,2.59h0Z"/>
  <path d="M135.18,112.15c-.26-.61-.54-1.34-1.15-1.68-.9-.5-1.99-.01-2.29.95-.14.45-.08.95-.04,1.41.02.24.04.49.08.73s-.04.74.08.15l1.05-1.05h-.01c-1.5.56-1.4,2.99.4,2.95,2.92-.06,5.85-1.39,8.52-2.45,1.48-.59,2.88-1.19,4.17-2.15,1.52-1.12,2.98-2.16,4.62-3.09,1.8-1.02,3.58-2.12,5.52-2.86s4.08-1.07,6.21-1.07,4.43.32,6.64.52c1.73.16,4.1.03,5.71.74,1.75.77,3.28-1.81,1.51-2.59-1.66-.73-3.47-.78-5.26-.96-2.41-.23-4.84-.53-7.25-.67-4.43-.25-8.44.86-12.3,2.99-1.86,1.02-3.8,2.02-5.5,3.3-1.34,1.01-2.6,2.02-4.17,2.67-1.41.58-2.85,1.13-4.3,1.62-1.32.45-2.73.97-4.13,1l.4,2.95c.94-.35,1.17-1.1,1.08-2-.03-.32-.08-.65-.11-.97,0-.11.01-.27-.02-.37,0-.06,0-.12,0-.19-.02.3-.14.57-.37.8l-1.06.44-1.07-.51c.05.08.09.17.14.26,0,.16.24.54.29.66.76,1.77,3.34.24,2.59-1.51h0Z"/>
</svg>