<?xml version="1.0" encoding="UTF-8"?>
<svg id="Layer_41" data-name="Layer 41" xmlns="http://www.w3.org/2000/svg" xmlns:xlink="http://www.w3.org/1999/xlink" viewBox="0 0 256 256">
  <defs>
    <style>
      .cls-1 {
        fill: #8e6e54;
      }

      .cls-2 {
        fill: url(#radial-gradient-2);
      }

      .cls-3 {
        fill: url(#radial-gradient);
      }

      .cls-4 {
        opacity: .3;
      }

      .cls-5 {
        fill: #435054;
      }
    </style>
    <radialGradient id="radial-gradient" cx="87.47" cy="121.98" fx="87.47" fy="121.98" r="11.99" gradientTransform="translate(38.15 -17.09) rotate(11.95) scale(.88 .99) skewX(4.89)" gradientUnits="userSpaceOnUse">
      <stop offset="0" stop-color="#fff"/>
      <stop offset=".41" stop-color="#fefdfd"/>
      <stop offset=".55" stop-color="#faf6f6"/>
      <stop offset=".66" stop-color="#f4eaea"/>
      <stop offset=".74" stop-color="#ebdad9"/>
      <stop offset=".81" stop-color="#e0c4c3"/>
      <stop offset=".88" stop-color="#d2aaa8"/>
      <stop offset=".94" stop-color="#c28a88"/>
      <stop offset=".99" stop-color="#af6663"/>
      <stop offset="1" stop-color="#ab5d5a"/>
    </radialGradient>
    <radialGradient id="radial-gradient-2" cx="166.37" cy="119.24" fx="166.37" fy="119.24" r="12.32" gradientTransform="translate(278.69 -60.79) rotate(162.54) scale(.87 -1.12) skewX(12.47)" xlink:href="#radial-gradient"/>
  </defs>
  <g class="cls-4">
    <path class="cls-5" d="M169.61,121.25c-6.3,5.44-16.11,5.8-21.5-1.1-2.37-3.04-6.59,1.23-4.24,4.24,7.5,9.61,21.46,8.46,29.99,1.1,2.93-2.53-1.33-6.75-4.24-4.24h0Z"/>
  </g>
  <g class="cls-4">
    <path class="cls-5" d="M140.47,128.78c4.56,8.54,10.82,13.74,20.53,14.92,3.82.47,3.79-5.54,0-6-7.5-.91-11.9-5.5-15.35-11.95-1.82-3.41-7-.38-5.18,3.03h0Z"/>
  </g>
  <g class="cls-4">
    <path class="cls-5" d="M107.44,127.47c-1.63,3.82-3.67,7.28-7.76,8.73-3.4,1.21-7.18,1.25-10.73,1.68-3.79.45-3.83,6.46,0,6,4.63-.55,9.52-.62,13.87-2.49,4.83-2.08,7.79-6.17,9.8-10.89,1.5-3.51-3.67-6.57-5.18-3.03h0Z"/>
  </g>
  <g class="cls-4">
    <path class="cls-5" d="M107.91,120.67c-2.91,2.46-7.13,5.03-10.93,5.69-4.54.8-7.93-3.34-11.55-5.47-3.33-1.97-6.35,3.22-3.03,5.18,4.92,2.91,8.84,7.3,15.04,6.31,5.32-.85,10.66-4.05,14.71-7.47,2.96-2.49-1.31-6.72-4.24-4.24h0Z"/>
  </g>
  <g class="cls-4">
    <path class="cls-5" d="M110.8,98.1c-11.65-1.54-25.12.37-30.76,12.1-1.67,3.46,3.5,6.51,5.18,3.03,4.75-9.87,16.01-10.39,25.58-9.13,3.82.5,3.78-5.5,0-6h0Z"/>
  </g>
  <g class="cls-4">
    <path class="cls-5" d="M144.88,102.42c4.46,1.42,9.08,2.33,13.49,3.89,6.03,2.13,10.98,5.9,15.6,10.25,2.81,2.64,7.06-1.59,4.24-4.24-4.79-4.51-9.94-8.47-16.07-10.97-5.06-2.06-10.47-3.06-15.66-4.71-3.69-1.18-5.27,4.62-1.6,5.79h0Z"/>
  </g>
  <path class="cls-3" d="M110.03,118.29c1.13,3.48-5.37,7.8-10.91,8.41s-14.63-3.52-15.02-7.15,5.78-2.92,10.79-6.38,12.64-2.56,15.14,5.13Z"/>
  <path class="cls-2" d="M145.68,118.77c-.29,4.23,3.18,6.12,8.59,6.5,5.4.37,19.01-1.7,18.42-5.9-.54-3.82-11.39-7.39-18.96-8.76-5.38-.97-7.76,3.93-8.05,8.17Z"/>
  <path d="M176.49,110.05c-2.39-.73-4.13-3.1-5.69-4.92-1.81-2.11-3.59-4.06-6.06-5.42-5.7-3.14-12.45-3.31-18.79-3.32-1.93,0-1.93,3,0,3,6.19,0,12.93.08,18.33,3.54,4.28,2.74,6.28,8.46,11.41,10.02,1.85.56,2.64-2.33.8-2.89h0Z"/>
  <path d="M113.07,97.84c-3.74.09-7.13-2.06-10.85-2.25-3.06-.16-6.28,1.26-9.04,2.43-6.23,2.62-11.43,6.51-14.34,12.76-.81,1.74,1.78,3.26,2.59,1.51,1.37-2.94,3.17-5.34,5.67-7.41,2.24-1.85,4.87-3.15,7.56-4.25,2.53-1.04,5.48-2.36,8.27-1.97,3.45.48,6.6,2.28,10.15,2.18,1.93-.05,1.93-3.05,0-3h0Z"/>
  <path d="M142.63,126.82c2.09,3.75,5.06,6.97,8.89,8.97,2.84,1.49,5.92,2.24,9.03,2.91,1.88.4,2.69-2.49.8-2.89-2.78-.59-5.58-1.21-8.13-2.51-3.49-1.78-6.1-4.59-7.99-7.99-.94-1.69-3.53-.18-2.59,1.51h0Z"/>
  <path d="M108.8,126.03c-1.74,1.99-3.44,4.01-5.21,5.98-.5.56-1.02,1.12-1.57,1.64-.21.2-.43.4-.66.58.27-.21-.35.22-.47.3-.06.04-.42.22-.12.08-.16.07-.33.12-.5.17-.41.13-.83.23-1.25.32-.99.22-1.99.38-3,.5-1.08.13-2.16.23-3.24.28-.45.02-.9.04-1.35.03-.19,0-.37,0-.56-.01-.08,0-.67-.07-.23,0-.81-.11-1.6.2-1.85,1.05-.2.7.25,1.73,1.05,1.85,2,.28,4.07.06,6.06-.18s4.44-.43,6.32-1.4c1.24-.64,2.26-1.74,3.19-2.76,1.89-2.07,3.68-4.23,5.52-6.33,1.27-1.45-.84-3.58-2.12-2.12h0Z"/>
  <circle class="cls-1" cx="157.71" cy="117.13" r="6.05"/>
  <circle class="cls-1" cx="98.78" cy="117.37" r="6.05"/>
  <path d="M174.4,117.84c-1.92-1.7-4.11-2.91-6.41-4.01s-4.49-2.31-6.75-3.45c-2.13-1.08-4.48-2.03-6.91-1.85-2.23.16-4.39,1.16-6.15,2.51-3.21,2.47-5.51,7.11-2.79,10.79,2.46,3.33,7.58,4.82,11.52,4.92,2.8.07,5.56-.49,8.16-1.52,2.39-.94,4.67-2.29,7.17-2.93,1.87-.48,1.08-3.38-.8-2.89-3.73.96-6.95,3.27-10.76,4.03s-7.7.14-11.03-1.82c-1.24-.73-2.37-1.74-2.47-3.26-.1-1.69.93-3.23,2.11-4.34,1.29-1.22,3.05-2.2,4.82-2.45,2.04-.28,4.04.6,5.81,1.51,2.06,1.06,4.08,2.18,6.17,3.17s4.36,2.11,6.18,3.72c1.44,1.28,3.57-.84,2.12-2.12h0Z"/>
  <path d="M82.32,120.69c2.28.66,3.82,2.63,5.61,4.06,2.19,1.76,4.6,2.53,7.41,2.45,2.65-.08,5.5-.31,8.09-.89,2.2-.49,4.41-1.39,6.09-2.92,3.8-3.45,2.28-8.64-1.4-11.46-1.89-1.45-4.38-2.6-6.79-2.71s-4.73.97-6.82,1.98c-2.39,1.15-4.85,2.24-7.14,3.56-1.81,1.04-3.55,2.19-5.4,3.19-1.7.92-.19,3.51,1.51,2.59,3.07-1.65,5.93-3.57,9.1-5.05,1.84-.85,3.59-1.89,5.5-2.6s3.62-.83,5.62-.05c3.06,1.2,7.16,5,3.92,8.22-1.36,1.35-3.33,2-5.16,2.39-2.22.47-4.64.64-6.9.73-1.39.06-2.79-.02-4.06-.63-1-.49-1.84-1.24-2.66-1.97-1.73-1.56-3.42-3.13-5.71-3.79-1.86-.54-2.65,2.36-.8,2.89Z"/>
  <path d="M157.53,116.17c.1.52.27,1.03.34,1.55l-.05-.4c.02.16.03.32,0,.48l.05-.4c-.01.09-.03.18-.07.26l.15-.36c-.03.07-.07.14-.12.2l.23-.3c-.05.07-.11.13-.18.18l.3-.23c-.11.08-.22.14-.34.2l.36-.15c-.18.08-.37.13-.57.16l.4-.05c-.21.02-.41.02-.62,0l.4.05c-.22-.03-.43-.09-.64-.18l.36.15c-.2-.09-.39-.2-.57-.33l.3.23c-.15-.12-.28-.25-.4-.4l.23.3c-.1-.14-.19-.28-.26-.44l.15.36c-.06-.15-.1-.3-.13-.46l.05.4c-.02-.16-.02-.32,0-.49l-.05.4c.03-.17.07-.33.14-.49l-.15.36c.06-.14.14-.27.23-.39l-.23.3c.08-.11.18-.2.28-.28l-.3.23c.11-.08.22-.15.34-.2l-.36.15c.12-.05.24-.08.36-.09l-.4.05c.13-.01.25-.01.38,0l-.4-.05c.14.02.27.06.41.11l-.36-.15c.1.05.19.1.28.16l-.3-.23c.09.07.16.14.23.23l-.23-.3c.05.07.1.15.14.24l-.15-.36c.04.1.06.19.08.29l-.05-.4c.01.1,0,.2,0,.31l.05-.4c-.02.12-.05.23-.09.34l.15-.36c-.04.09-.09.18-.15.26l.23-.3c-.06.08-.13.15-.21.21l.3-.23c-.07.05-.14.09-.22.13l.36-.15c-.07.03-.14.05-.22.06l.4-.05c-.08,0-.16,0-.24,0l.4.05c-.1-.01-.19-.04-.28-.07l.36.15c-.07-.03-.14-.07-.2-.12l.3.23c-.06-.05-.12-.1-.17-.16l.23.3c-.04-.05-.07-.1-.09-.16l.15.36c-.02-.06-.04-.11-.05-.17l.05.4c0-.06,0-.12,0-.18l-.05.4c.01-.07.03-.14.06-.21l-.15.36c.03-.07.07-.13.11-.19l-.23.3s.08-.08.12-.12l-.3.23s.09-.06.15-.09l-.36.15c.05-.02.11-.03.17-.04l-.4.05s.09,0,.14,0l-.4-.05s.09.02.14.04l-.36-.15c.06.03.11.06.16.1l-.3-.23s.07.07.1.1l-.23-.3c.04.05.07.1.1.16l-.15-.36c.02.06.04.12.05.18l-.05-.4s0,.09,0,.14l.05-.4s-.02.09-.04.13l.15-.36s-.04.08-.07.12l.23-.3s-.08.09-.13.13l.3-.23c-.05.04-.1.07-.16.09l.36-.15c-.06.02-.12.04-.18.05l.4-.05s-.09,0-.14,0l.4.05s-.09-.02-.13-.03l1.1,1.45v-.05c-.01.13-.03.27-.05.4.01-.08.03-.15.06-.23l-.15.36c.03-.07.08-.14.12-.2l-.23.3c.05-.06.11-.11.17-.16l-.3.23c.07-.05.13-.09.2-.12l-.36.15c.09-.04.18-.06.27-.07l-.4.05c.06,0,.12,0,.19,0l-.4-.05s.06,0,.09.02l-.66-2.51-.03.03.3-.23s-.05.03-.07.05l.36-.15s-.08.03-.13.03l.4-.05s-.06,0-.09,0l.4.05s-.08-.02-.13-.04l.36.15s-.05-.03-.07-.05l.3.23s-.04-.04-.06-.06c-.23-.28-.71-.44-1.06-.44-.37,0-.81.16-1.06.44s-.46.66-.44,1.06l.05.4c.07.25.2.47.39.66.31.38.86.58,1.34.59.52,0,.99-.2,1.36-.55.79-.75.44-2.27-.66-2.51-.65-.14-1.36-.07-1.91.33-.32.23-.57.46-.78.8-.23.37-.29.72-.33,1.13l.05.4c.05.2.14.37.27.51.2.26.46.44.78.54.92.29,1.92-.15,2.43-.94s.37-1.92-.3-2.6-1.74-.86-2.57-.36c-.68.4-1.11,1.17-1.11,1.96s.49,1.61,1.22,1.98,1.61.39,2.37,0c.23-.12.46-.3.63-.5.28-.34.45-.62.59-1.04.2-.59.15-1.26-.09-1.83-.55-1.3-2-1.88-3.34-1.59-.57.13-1.14.49-1.51.94-.28.35-.44.63-.61,1.05-.12.29-.16.59-.19.91-.06.58.1,1.15.33,1.67.18.4.47.77.8,1.06.77.67,1.76,1.1,2.8,1.05,1.23-.05,2.63-.72,2.91-2.03.21-1-.14-1.94-.34-2.92-.07-.35-.39-.72-.69-.9-.32-.19-.8-.27-1.16-.15s-.71.34-.9.69c-.2.37-.23.74-.15,1.16h0Z"/>
  <path d="M96.6,115.65c0,.06,0,.11-.01.17l.05-.4c-.05.36-.2.7-.32,1.04-.15.42-.27.89-.23,1.35.06.59.3,1.11.6,1.61.28.46.65.91,1.13,1.16.75.39,1.52.32,2.26-.02.55-.26.95-.72,1.3-1.19.32-.43.54-.91.75-1.4s.34-1.1.29-1.66c-.07-.74-.34-1.47-.9-1.98-.33-.3-.67-.5-1.09-.65s-.85-.11-1.29-.04c-.23.04-.5.23-.66.39-.23.23-.37.54-.41.86-.08.62.21,1.15.72,1.49.13.09.26.19.39.28l-.3-.23c.25.2.49.42.69.67l-.23-.3c.12.16.23.33.31.52l-.15-.36c.06.16.11.33.14.5l-.05-.4c.02.15.02.3,0,.45l.05-.4c-.02.13-.05.25-.09.37l.15-.36c-.05.12-.11.22-.19.32l.23-.3c-.06.07-.13.14-.2.2l.3-.23c-.09.07-.19.12-.29.17l.36-.15c-.13.05-.25.08-.38.1l.4-.05c-.11.01-.23.01-.34,0l.4.05c-.11-.02-.22-.05-.33-.09l.36.15c-.09-.04-.17-.09-.24-.14l.3.23c-.09-.07-.17-.15-.24-.24l.23.3c-.07-.09-.12-.19-.17-.3l.15.36c-.04-.11-.07-.21-.09-.33l.05.4c-.02-.13-.02-.26,0-.39l-.05.4c.02-.09.04-.18.07-.27l-.15.36c.04-.08.08-.16.13-.23l-.23.3c.05-.07.11-.13.18-.18l-.3.23c.08-.06.17-.11.26-.16l-.36.15c.1-.04.19-.07.29-.08l-.4.05c.08,0,.16-.01.24,0l-.4-.05c.08.01.15.03.23.06l-.36-.15s.08.04.12.07l-.3-.23c.05.04.1.09.14.14l-.23-.3s.05.08.07.13l-.15-.36s.03.09.03.13l-.05-.4c0,.06,0,.12,0,.18l.05-.4c-.01.06-.03.12-.05.18l.15-.36c-.03.07-.07.14-.12.21l.23-.3c-.05.06-.11.12-.17.17l.3-.23c-.05.04-.11.07-.16.09l.36-.15c-.06.02-.12.04-.18.05l.4-.05s-.09,0-.14,0l.4.05s-.09-.02-.14-.04l.36.15s-.07-.04-.11-.06l.3.23s-.08-.07-.11-.11l.23.3s-.06-.09-.08-.14l.15.36c-.02-.06-.04-.13-.05-.2l.05.4c0-.08,0-.17,0-.25l-.05.4c.01-.07.03-.14.05-.2l-.15.36c.03-.06.06-.12.1-.18l-.23.3c.04-.05.09-.1.14-.14l-.3.23s.07-.04.1-.06l-.36.15c.05-.02.1-.03.16-.04l-1.85-1.05v.05c0-.13-.02-.27-.04-.4,0,.05,0,.1,0,.15l.05-.4s-.01.07-.03.1l.15-.36s-.05.09-.08.14l.23-.3s-.07.08-.11.11l.3-.23c-.06.04-.11.08-.18.11l.36-.15s-.07.02-.1.03l.4-.05c-.05,0-.1,0-.15,0l.4.05s-.07-.01-.1-.03l.36.15s-.08-.04-.11-.07l.3.23s-.04-.04-.06-.06l.23.3s-.05-.07-.07-.11l.15.36c-.02-.06-.04-.11-.05-.17l.05.4c0-.06,0-.12,0-.18l-.05.4c0-.06.03-.11.05-.17l-.15.36s.04-.07.07-.11l-.23.3s.04-.04.06-.06l-.3.23s.05-.04.07-.05l-2.05-2.05c-.08.17-.15.35-.23.52-.16.36-.28.75-.15,1.16.1.32.27.58.54.78.54.42,1.49.46,1.97-.12.22-.27.44-.53.65-.8l-2.36-1.82-.48.86,2.74,1.16v-.04c-.04.12-.09.24-.14.36l.02-.03-.23.3.03-.03-.3.23.04-.02-.36.15h.04c-.13,0-.27.02-.4.04h.04c-.13-.02-.27-.04-.4-.06h.04c-.12-.04-.24-.09-.36-.14l.04.02-.3-.23.03.03-.23-.3.02.04-.15-.36v.04c0-.13-.03-.27-.05-.4v.04c.02-.13.03-.27.05-.4v.04c.04-.12.09-.24.14-.36l-.02.04.23-.3-.03.03.3-.23-.04.03.36-.15-.04.02.4-.05h-.04c-.4.03-.77.15-1.06.44-.26.26-.46.69-.44,1.06.03.77.66,1.55,1.5,1.5.62-.04,1.12-.31,1.45-.84.36-.57.28-1.34-.12-1.85s-1.08-.75-1.73-.59c-.59.15-1.02.62-1.2,1.18-.23.71.22,1.49.87,1.77s1.51.04,1.87-.61l.48-.86c.36-.66.21-1.47-.39-1.94-.54-.42-1.49-.46-1.97.12-.22.27-.44.53-.65.8l2.36,1.82c.08-.17.15-.35.23-.52.14-.32.23-.6.18-.96-.04-.31-.17-.64-.41-.86-.49-.45-1.23-.58-1.82-.23-1.3.76-1.33,2.77-.02,3.54.63.37,1.51.36,2.11-.07.73-.53,1.1-1.35.89-2.25-.08-.34-.38-.73-.69-.9l-.36-.15c-.27-.07-.53-.07-.8,0-.39.06-.81.33-1.06.63-.37.44-.55.91-.6,1.48-.07.99.6,1.93,1.55,2.19.54.15,1.16.05,1.64-.25s.82-.76,1.03-1.3c.43-1.13-.31-2.36-1.42-2.7-.88-.27-1.93.05-2.55.72-.65.71-.89,1.81-.55,2.72.37,1,1.15,1.72,2.23,1.87.98.13,1.98-.24,2.59-1.03.39-.5.57-1.06.61-1.69.04-.56-.13-1.1-.35-1.61-.38-.87-1.16-1.49-1.92-2.01l-.36,2.74h.06c-.13,0-.27.03-.4.04.08,0,.15,0,.23,0l-.4-.05c.1.02.19.04.28.08l-.36-.15c.09.04.17.09.25.15l-.3-.23c.1.08.18.16.26.26l-.23-.3c.07.1.14.2.19.32l-.15-.36c.05.11.08.23.1.35l-.05-.4c.02.18.02.35,0,.53l.05-.4c-.04.28-.12.55-.23.81l.15-.36c-.17.39-.38.76-.63,1.1l.23-.3c-.12.15-.25.29-.4.41l.3-.23c-.1.08-.21.14-.32.19l.36-.15c-.1.04-.19.07-.29.09l.4-.05c-.07,0-.14.01-.21,0l.4.05c-.07,0-.13-.03-.19-.05l.36.15c-.08-.03-.15-.08-.21-.13l.3.23c-.1-.08-.18-.17-.26-.27l.23.3c-.2-.27-.36-.58-.5-.89l.15.36c-.03-.07-.04-.13-.06-.2l.05.4c-.01-.11-.01-.21,0-.32l-.05.4c.05-.33.18-.64.29-.95.15-.41.26-.84.27-1.28.02-.78-.7-1.54-1.5-1.5s-1.48.66-1.5,1.5h0Z"/>
</svg>