<?xml version="1.0" encoding="UTF-8"?>
<svg id="Layer_43" data-name="Layer 43" xmlns="http://www.w3.org/2000/svg" xmlns:xlink="http://www.w3.org/1999/xlink" viewBox="0 0 256 256">
  <defs>
    <style>
      .cls-1 {
        fill: url(#radial-gradient-2);
      }

      .cls-2 {
        fill: url(#radial-gradient);
      }

      .cls-3 {
        opacity: .3;
      }

      .cls-4 {
        fill: #435054;
      }

      .cls-5 {
        fill: #40664f;
      }
    </style>
    <radialGradient id="radial-gradient" cx="88.32" cy="124.69" fx="88.32" fy="124.69" r="13.57" gradientTransform="translate(38.15 -17.09) rotate(11.95) scale(.88 .99) skewX(4.89)" gradientUnits="userSpaceOnUse">
      <stop offset="0" stop-color="#fff"/>
      <stop offset=".41" stop-color="#fefdfd"/>
      <stop offset=".55" stop-color="#faf6f6"/>
      <stop offset=".66" stop-color="#f4eaea"/>
      <stop offset=".74" stop-color="#ebdad9"/>
      <stop offset=".81" stop-color="#e0c4c3"/>
      <stop offset=".88" stop-color="#d2aaa8"/>
      <stop offset=".94" stop-color="#c28a88"/>
      <stop offset=".99" stop-color="#af6663"/>
      <stop offset="1" stop-color="#ab5d5a"/>
    </radialGradient>
    <radialGradient id="radial-gradient-2" cx="167.75" cy="121.75" fx="167.75" fy="121.75" r="13.4" gradientTransform="translate(278.69 -60.79) rotate(162.54) scale(.87 -1.12) skewX(12.47)" xlink:href="#radial-gradient"/>
  </defs>
  <g class="cls-3">
    <path class="cls-4" d="M140.99,124.12c1.07.27,2.11,1.77,3.02,2.44,1.21.9,2.61,1.42,3.99,2.01,2.61,1.12,5.27,2.2,8.01,2.96,5.82,1.61,10.65.57,16-1.99,3.48-1.67.44-6.84-3.03-5.18-5.8,2.78-10.51,1.97-16.35-.33-2.44-.96-4.36-1.82-6.32-3.51-1.21-1.05-2.14-1.77-3.72-2.18-3.74-.95-5.34,4.83-1.6,5.79h0Z"/>
  </g>
  <g class="cls-3">
    <path class="cls-4" d="M174.35,105.19c-10.9,2.33-22.3.92-32.87,4.93-3.58,1.36-2.03,7.16,1.6,5.79,10.52-3.99,21.99-2.61,32.87-4.93,3.77-.81,2.18-6.59-1.6-5.79h0Z"/>
  </g>
  <g class="cls-3">
    <path class="cls-4" d="M82.89,110.92c5.65-.97,11.38-1.56,16.98.04,4.96,1.42,9.09,4.78,14.17,5.78,3.77.75,5.39-5.04,1.6-5.79-6.03-1.19-10.98-5.35-17.17-6.47-5.75-1.04-11.48-.33-17.17.65-3.8.65-2.19,6.44,1.6,5.79h0Z"/>
  </g>
  <g class="cls-3">
    <path class="cls-4" d="M111.34,120.3c-1.24.79-1.39,1.66-2.22,2.69-1.48,1.84-4.62,2.28-6.9,2.83-5.87,1.41-11.94,2.16-17.52-.64-3.44-1.73-6.48,3.44-3.03,5.18,6.23,3.13,12.69,3.19,19.43,1.85,3.31-.66,6.89-1.39,9.96-2.88,1.19-.58,1.93-.94,2.68-1.96.34-.45,1.92-2.7.63-1.87,3.25-2.07.24-7.26-3.03-5.18h0Z"/>
  </g>
  <g class="cls-3">
    <path class="cls-4" d="M138.44,126.61c1.82,1.88,3.23,4.14,5.13,5.94,2.59,2.46,5.81,3.89,9.16,4.99,3.68,1.21,5.25-4.58,1.6-5.79-2.74-.9-5.24-2.05-7.23-4.18-1.56-1.66-2.82-3.57-4.41-5.21-2.69-2.78-6.93,1.46-4.24,4.24h0Z"/>
  </g>
  <g class="cls-3">
    <path class="cls-4" d="M111.89,127.48c-.77,3.59-4.9,4.86-7.99,5.96-1.52.54-3.06.75-4.58,1.18-.16.05-2.61,1.19-2.44,1.24-3.65-1.28-5.22,4.52-1.6,5.79,2.51.87,3.47-.46,5.63-1.24,2.44-.88,5.01-1.31,7.46-2.33,4.29-1.79,8.27-4.12,9.31-9,.8-3.77-4.98-5.38-5.79-1.6h0Z"/>
  </g>
  <path class="cls-2" d="M113.22,120.6c-.98,2.23-8.79,4.97-13.78,6.39s-17.31-.05-17.68-3.44,7.78-7.48,13.24-8.98c5.01-1.38,19.58,2.92,18.22,6.03Z"/>
  <circle class="cls-5" cx="99.12" cy="120.92" r="5.62"/>
  <path d="M98.67,121.73c.1-.1.21-.2.32-.29l-.3.23c.18-.13.36-.25.57-.34l-.36.15c.2-.08.4-.14.61-.17l-.4.05c.21-.03.41-.03.62,0l-.4-.05c.21.03.41.09.61.17l-.36-.15c.17.08.33.17.48.28l-.54-2.05c-.05.09-.11.17-.17.25l.23-.3c-.14.18-.29.34-.47.47l.3-.23c-.16.12-.32.22-.5.3l.36-.15c-.17.07-.35.12-.53.15l.4-.05c-.18.02-.36.02-.54,0l.4.05c-.17-.03-.33-.07-.49-.14l.36.15c-.15-.07-.29-.15-.42-.25l.3.23s-.05-.04-.07-.06v2.12c.06-.05.12-.1.19-.15l-.3.23c.2-.15.42-.28.65-.38l-.36.15c.21-.08.42-.14.64-.18l-.4.05c.1-.01.2-.02.3-.01l-.4-.05s.06.01.09.02l-.36-.15s.06.03.09.04l-.3-.23s.06.05.09.08l-.23-.3s.04.06.05.09l-.15-.36s.03.09.04.14l-.05-.4c.01.08.01.16,0,.24l.05-.4c-.02.11-.05.22-.09.33l.15-.36c-.04.09-.09.17-.14.25l.23-.3s-.08.09-.13.14l.3-.23c-.1.08-.22.14-.34.19l.36-.15c-.52.21-1,.39-1.41.8l2.51,1.46c.03-.12.06-.24.11-.35l-.15.36c.06-.14.14-.28.24-.4l-.23.3c.08-.09.16-.18.25-.25l-.3.23c.1-.08.2-.14.32-.19l-.36.15c.1-.04.2-.07.31-.08l-.4.05c.09,0,.18,0,.28,0l-.4-.05c.08.01.16.03.24.06l-.36-.15c.08.03.15.08.22.13l-.3-.23c.07.06.14.12.2.19l-.23-1.82c-.04.08-.09.16-.15.24l.23-.3c-.06.08-.13.15-.22.21l.3-.23c-.07.05-.14.09-.21.12l.36-.15c-.09.04-.17.06-.26.08l.4-.05c-.08,0-.15,0-.23,0l.4.05c-.08-.01-.15-.03-.22-.06l.36.15c-.08-.03-.14-.07-.21-.12l.3.23c-.06-.05-.11-.09-.16-.15l.39,1.46c.02-.11.05-.22.09-.32l-.15.36c.04-.08.08-.16.13-.23l-.23.3c.06-.07.12-.14.2-.2l-.3.23c.06-.05.13-.09.2-.12l-.36.15c.08-.03.16-.05.25-.07l-.4.05c.07,0,.15,0,.22,0l-.4-.05c.06.01.12.03.18.05l-.36-.15c.06.03.12.06.17.1l-.3-.23c.07.05.12.11.17.17l-.23-.3c.05.07.1.15.13.24l.23-1.82c-.14.12-.27.24-.41.35l.3-.23c-.2.15-.4.29-.63.39l.36-.15c-.12.05-.23.08-.35.1l.4-.05c-.09,0-.17,0-.26,0l.4.05c-.07-.01-.13-.02-.2-.05l.36.15c-.08-.03-.14-.07-.21-.12l.3.23c-.07-.06-.13-.12-.18-.19l.23.3c-.09-.12-.16-.25-.22-.39l.15.36c-.05-.13-.09-.26-.11-.4l.05.4c-.02-.12-.02-.24,0-.37l-.05.4c.01-.09.04-.18.07-.26l-.15.36c.03-.06.06-.11.1-.17l-.23.3c.04-.06.09-.11.15-.15l-.3.23c.05-.04.11-.07.17-.1l-.36.15c.09-.04.18-.06.28-.08l-.4.05c.14-.02.29-.02.43,0l-.4-.05c.16.02.32.07.47.13l-.36-.15c.16.07.3.16.44.27l-.3-.23c.14.12.27.25.39.39v-2.12c-.09.12-.2.22-.32.32l.3-.23c-.1.07-.21.14-.32.19l.36-.15c-.12.05-.25.09-.39.11l.4-.05c-.12.01-.23.01-.35,0l.4.05c-.12-.02-.23-.05-.34-.09l.36.15c-.12-.05-.22-.11-.32-.18l.3.23s-.08-.06-.11-.09l.23,1.82s.05-.08.08-.12l-.23.3s.08-.09.13-.13l-.3.23c.06-.04.12-.08.19-.11l-.36.15c.05-.02.1-.03.16-.04l-.4.05c.06,0,.11,0,.16,0l-.4-.05c.06.01.11.02.16.05l-.36-.15s.08.04.11.06l-.3-.23s.05.04.07.06l.3-2.36c-.11.06-.22.11-.33.16l.36-.15c-.22.09-.45.15-.69.19l.4-.05c-.25.03-.51.03-.76,0l.4.05c-.06,0-.12-.02-.17-.03l-.4,2.95c.31,0,.62,0,.93,0,.38,0,.79-.17,1.06-.44s.46-.69.44-1.06c-.04-.82-.66-1.49-1.5-1.5-.31,0-.62,0-.93,0-.75,0-1.38.57-1.47,1.3-.09.69.34,1.5,1.07,1.65.62.12,1.15.12,1.76.02.47-.08.93-.27,1.35-.5.81-.44,1.02-1.72.3-2.36-.57-.5-1.25-.72-2-.55-.6.13-1.11.57-1.41,1.09-.17.29-.22.63-.18.96.04.31.17.65.41.86.6.53,1.35.88,2.17.81s1.59-.41,2.11-1.06c.25-.31.46-.64.44-1.06l-.05-.4c-.07-.25-.2-.47-.39-.66-.54-.66-1.33-1.09-2.17-1.2-.43-.06-.88-.06-1.29.1-.55.21-1.07.57-1.33,1.12-.19.41-.32.85-.28,1.3.04.5.15.87.36,1.32.14.29.34.57.58.78.44.39.93.59,1.52.64.54.04,1.1-.16,1.57-.42.41-.23.77-.55,1.13-.86l.23-.3c.11-.17.17-.36.18-.56.04-.13.04-.27,0-.4,0-.2-.07-.39-.18-.56-.03-.08-.07-.15-.12-.22-.11-.16-.23-.33-.38-.46-.29-.26-.62-.47-1.01-.56-.72-.17-1.44,0-2.03.44-.27.21-.49.44-.67.74-.25.44-.45,1.09-.29,1.58s.57.93,1.04,1.16c.37.18.77.3,1.19.27.91-.07,1.75-.57,2.17-1.4.16-.31.22-.61.18-.96s-.18-.6-.41-.86c-.63-.74-1.79-1.04-2.7-.69-.47.18-.89.42-1.22.81-.35.42-.63.89-.74,1.43-.14.63.08,1.37.69,1.69s1.34.26,1.82-.23c.04-.04.08-.07.12-.11l-.3.23c.11-.08.23-.14.35-.19l-.36.15c.3-.12.63-.22.9-.4.34-.22.63-.5.83-.86.39-.71.51-1.63.09-2.35-.26-.45-.7-.81-1.21-.92-.46-.1-.91-.05-1.36.07-.71.18-1.32.57-1.86,1.05-.27.23-.45.71-.44,1.06.02.37.14.82.44,1.06.45.36.91.66,1.48.8s1.09.13,1.65,0c1.03-.22,1.88-.97,2.43-1.84.19-.31.26-.81.15-1.16-.13-.39-.36-.66-.69-.9s-.76-.43-1.17-.54-.84-.16-1.25-.11c-.56.06-1.01.18-1.52.44-.4.2-.77.49-1.08.81-.27.28-.44.67-.44,1.06,0,.37.16.81.44,1.06s.66.46,1.06.44.78-.15,1.06-.44h0Z"/>
  <path class="cls-1" d="M142.78,118.73c-.27,3.94,10.94,7.63,15.96,7.98,5.02.35,14.36-.89,14.63-4.82.27-3.94-8.65-6.48-14.8-7.48-5.01-.81-15.52.39-15.8,4.32Z"/>
  <circle class="cls-5" cx="157.04" cy="120.42" r="5.62"/>
  <path d="M155.9,121.28c.31-.09.61-.22.9-.37.13-.07.25-.15.38-.21l-.36.15c.06-.03.13-.04.2-.06l-.4.05c.09-.01.19,0,.28,0l-.4-.05c.1.02.2.04.3.07l-1.05-1.85c-.02.07-.04.13-.07.2l.15-.36c-.04.1-.1.19-.16.27l.23-.3c-.05.07-.11.13-.18.18l.3-.23c-.07.05-.13.09-.21.12l.36-.15c-.08.03-.16.06-.25.07l.4-.05c-.08,0-.15,0-.23,0l.4.05c-.08-.01-.15-.03-.22-.06l.36.15c-.07-.03-.14-.07-.21-.12l.3.23c-.07-.05-.13-.11-.18-.18l.23.3c-.06-.08-.12-.18-.16-.27l.15.36s-.03-.09-.05-.13l-.39,1.46c.06-.06.13-.12.2-.17l-.3.23c.16-.12.32-.22.5-.3l-.36.15c.17-.07.35-.12.53-.15l-.4.05c.16-.02.31-.02.46,0l-.4-.05c.17.02.33.07.49.13l-.36-.15c.11.05.21.1.31.17l-.3-.23s.08.07.11.11l-.23-.3s.04.07.06.11l-.15-.36c.02.05.03.1.04.15l-.05-.4c0,.05,0,.1,0,.15l.05-.4c-.01.07-.03.13-.05.19l.15-.36c-.04.09-.08.16-.14.24l.23-.3c-.06.07-.12.13-.19.19l.3-.23c-.1.07-.2.13-.31.17l.36-.15c-.18.07-.37.13-.56.16l.4-.05c-.21.03-.41.03-.62,0l.4.05c-.19-.03-.38-.08-.56-.16l.36.15c-.1-.04-.2-.09-.29-.15l.54,2.05.03-.03-.23.3c.11-.14.24-.27.38-.38l-.3.23c.12-.09.26-.17.4-.24l-.36.15c.14-.06.28-.1.42-.12l-.4.05c.13-.02.26-.01.39,0l-.4-.05c.12.02.24.05.35.1l-.36-.15s.07.03.1.05l-.54-2.05c-.04.07-.09.14-.14.2l.23-.3c-.08.1-.17.19-.27.27l.3-.23c-.09.06-.18.12-.27.16l.36-.15c-.09.04-.19.07-.29.08l.4-.05c-.1.01-.2.01-.3,0l.4.05c-.09-.02-.17-.04-.26-.07l.36.15c-.05-.02-.1-.05-.15-.08l.74,1.3c0-.1,0-.2,0-.3l-.05.4c.02-.11.04-.21.08-.31l-.15.36c.04-.09.09-.18.15-.26l-.23.3c.06-.07.12-.14.2-.2l-.3.23c.05-.04.11-.07.17-.1l-.36.15c.05-.02.1-.03.15-.04l-.4.05s.09,0,.13,0l-.4-.05s.08.02.13.03l-.36-.15s.08.04.12.07l-.3-.23s.09.08.12.12l-.23-.3c.04.06.08.12.11.19l-.15-.36c.04.11.07.22.09.34l-.05-.4c.02.15.02.31,0,.46l.05-.4c-.02.15-.06.3-.12.44l.15-.36c-.04.09-.09.18-.15.26l.23-.3c-.04.05-.09.1-.14.14l.3-.23s-.08.05-.12.07l.36-.15s-.07.02-.11.03l.4-.05s-.07,0-.11,0l.4.05s-.07-.02-.11-.03l.36.15c-.06-.02-.11-.05-.16-.09l.3.23c-.06-.05-.11-.11-.16-.17l.23.3c-.06-.08-.1-.16-.14-.25l.15.36c-.04-.11-.07-.22-.09-.33l.05.4c-.01-.11-.01-.21,0-.32l-.05.4c.01-.1.04-.19.08-.28l-.15.36c.03-.06.06-.11.1-.16l-.23.3s.08-.09.12-.13l-.3.23s.09-.06.14-.08l-.36.15s.1-.03.15-.04l-.4.05s.08,0,.13,0l-.4-.05s.08.02.12.03l-.36-.15s.08.04.11.07l-.3-.23s.07.06.1.1l-.23-.3s.06.09.08.14l.54-2.05s-.04.03-.07.04l.36-.15h-.02c.13-.01.27-.03.4-.05-.03,0-.05,0-.07,0l.4.05s-.03,0-.05-.02l.36.15s-.05-.03-.07-.04l.3.23s-.06-.06-.08-.09l.23.3s-.05-.07-.07-.12l.15.36s-.03-.09-.04-.13l.05.4s0-.09,0-.14l-.05.4s0-.05.01-.07l-1.45,1.1c.05,0,.1,0,.15,0l-.4-.05c.06,0,.12.02.18.05l-.36-.15s.07.04.11.06l-.3-.23s.05.04.07.07l-.23-.3s.04.06.05.09l-.15-.36s.02.07.03.1l-.05-.4s0,.05,0,.08l.05-.4s0,.03-.01.05l.15-.36s-.02.04-.03.06l.23-.3s-.03.03-.05.05l.3-.23s-.03.02-.05.03l.36-.15s-.04.01-.06.02l.4-.05s-.02,0-.04,0l.4.05s-.02,0-.03,0l.36.15s-.02,0-.03-.02l.3.23h-.01c.08.09.16.19.23.29h0c.05.1.1.22.15.34,0-.01,0-.02-.01-.04l.05.4s0-.05,0-.08c.05-.35-.2-.82-.44-1.06-.26-.26-.69-.46-1.06-.44s-.79.14-1.06.44l-.23.3c-.14.23-.2.49-.2.76,0,.02,0,.04,0,.07,0,.08.04.34.06.42.06.25.22.52.4.7.29.29.73.49,1.15.48.15,0,.32-.03.46-.07s.3-.11.42-.19c.36-.24.66-.58.77-1.01.17-.66-.02-1.35-.51-1.84-.39-.39-.96-.57-1.51-.56-.33,0-.65.12-.91.32-.25.19-.47.47-.54.78-.15.7,0,1.43.51,1.96.22.23.53.42.84.49.27.07.6.08.87,0,.12-.04.27-.1.38-.16.03-.01.05-.02.07-.04.17-.09.32-.22.42-.39.13-.14.22-.31.27-.51l.05-.4c0-.27-.07-.52-.2-.76-.4-.84-1.47-1.29-2.35-1-.51.17-.91.48-1.21.93-.25.37-.35.83-.37,1.27-.02.47.12.91.31,1.33s.49.7.84.96c.76.55,1.87.37,2.5-.28.29-.3.44-.61.6-1,.11-.28.14-.58.17-.88s-.02-.6-.07-.89c-.01-.08-.04-.15-.06-.22-.07-.19-.14-.38-.25-.55-.11-.16-.23-.32-.37-.45-.1-.09-.25-.21-.39-.29s-.3-.15-.44-.18c-.19-.05-.4-.08-.59-.07-.38.02-.59.09-.92.25s-.57.41-.79.69c-.23.29-.41.62-.48.99-.05.23-.09.48-.08.71,0,.03,0,.05,0,.08,0,.27.07.52.2.76l.23.3c.11.12.28.23.43.3.4.2.86.34,1.31.3s.91-.15,1.3-.41c.41-.29.74-.62,1-1.06.19-.32.27-.8.15-1.16s-.34-.73-.69-.9c-.45-.22-.79-.31-1.28-.36-.1,0-.2,0-.31,0-.22.02-.45.04-.67.11-.31.09-.62.23-.88.41-.18.13-.37.27-.54.43-.17.17-.31.37-.46.56-.11.17-.17.36-.18.56-.04.2-.04.4.03.6.12.37.34.7.69.9.32.18.68.34,1.04.42s.74.13,1.1.1c.24-.02.49-.05.73-.11s.46-.16.68-.26c.31-.13.59-.34.81-.6s.33-.43.45-.72c.12-.27.18-.54.18-.84,0-.36-.1-.69-.26-1.01s-.41-.53-.7-.73c-.09-.06-.19-.11-.29-.16-.21-.09-.43-.2-.66-.25s-.45-.08-.67-.1c-.12-.01-.23-.01-.35,0-.24.02-.49.05-.73.11s-.46.17-.68.27c-.35.16-.67.42-.95.68-.37.35-.55.97-.39,1.46.08.24.17.5.32.71.24.35.42.52.75.77.19.14.42.23.64.3.11.04.23.05.35.06s.23.04.35.03c.23,0,.48-.04.7-.12.38-.14.61-.27.92-.54.18-.16.34-.36.46-.57.14-.22.24-.47.31-.72.22-.78-.27-1.62-1.05-1.85-.49-.14-1.06-.2-1.55-.03-.36.13-.66.34-1,.48l.36-.15c-.1.04-.2.07-.3.1-.37.11-.7.36-.9.69s-.27.8-.15,1.16.34.71.69.9.76.27,1.16.15h0Z"/>
  <path d="M178.21,120.72c-2.66-.56-5.14-1.38-7.41-2.91-1.74-1.17-3.35-2.32-5.32-3.09-5.55-2.19-11.96-2.78-17.75-1.2-3.41.93-6.51,2.66-9.1,5.05-1.42,1.31.7,3.43,2.12,2.12,5.5-5.06,13.41-6,20.46-4.2,2.79.71,5.09,1.82,7.43,3.46,2.68,1.88,5.58,2.99,8.78,3.67,1.88.39,2.69-2.5.8-2.89h0Z"/>
  <path d="M141.95,120.63c2.37.59,4.61,2.2,6.72,3.38,2.71,1.51,5.52,3.15,8.63,3.6,6.89.98,12.93-3.44,19.55-4.42,1.9-.28,1.09-3.17-.8-2.89-3.31.49-6.39,1.78-9.52,2.88-2.92,1.03-6.11,2.03-9.23,1.41-2.9-.58-5.52-2.27-8.07-3.69-2.04-1.14-4.19-2.58-6.48-3.15-1.87-.47-2.67,2.43-.8,2.89h0Z"/>
  <path d="M115.69,119.68c-4.85-5.34-12.18-6.54-19.07-6.26-3.94.16-7.26,1.84-10.62,3.77-1.51.86-2.67,1.89-3.79,3.22-.92,1.09-1.75,2.11-3.28,2.15-1.93.04-1.93,3.04,0,3,1.55-.03,2.87-.53,4.04-1.55,1.05-.93,1.8-2.14,2.84-3.08,1.25-1.13,3.02-1.92,4.51-2.68,1.68-.85,3.49-1.65,5.39-1.77,6.37-.41,13.33.35,17.86,5.33,1.3,1.43,3.42-.69,2.12-2.12h0Z"/>
  <path d="M81.53,125.66c2.67.98,5.62,1.21,8.38,1.89,2.31.56,4.68,1,7.07.97,2.95-.04,5.8-.77,8.46-2.03,1.57-.74,2.97-1.75,4.48-2.59,1.21-.68,2.49-1.2,3.77-1.72,1.76-.72.99-3.63-.8-2.89-1.27.52-2.55,1.02-3.77,1.64-1.39.71-2.65,1.63-4.02,2.37-2.5,1.37-5.27,2.19-8.13,2.22-2.23.03-4.39-.4-6.54-.93-2.68-.66-5.52-.87-8.11-1.82-1.81-.67-2.6,2.23-.8,2.89h0Z"/>
  <path d="M176.85,102.69c-12.21.89-23.91,5.41-36.22,5.17-1.93-.04-1.93,2.96,0,3,12.34.25,24.01-4.27,36.22-5.17,1.91-.14,1.93-3.14,0-3h0Z"/>
  <path d="M116.4,109.36c-3.37.34-6.37-1.03-9.4-2.31-3.45-1.46-7-2.6-10.62-3.56-2.29-.61-4.62-1.05-6.99-1-3.13.07-6.26.65-9.35,1.11-1.9.28-1.09,3.17.8,2.89,2.95-.43,5.94-1,8.92-1.01,2.33,0,4.55.53,6.78,1.16,3.56,1,7,2.17,10.4,3.62,3.03,1.28,6.11,2.44,9.46,2.1,1.9-.19,1.92-3.19,0-3h0Z"/>
  <path d="M113.01,122.39c.02-.51.04-.11-.04.04-.15.27.11-.23-.06.14-.18.38-.39.74-.61,1.1-.53.86-1.11,1.7-1.72,2.5-1.03,1.36-2.35,3.09-3.74,3.87-1.97,1.12-4.38,1.67-6.55,2.21s-4.56,1.07-6.88,1.11c-1.93.03-1.93,3.03,0,3,2.68-.05,5.39-.64,7.97-1.29,2.39-.6,5.11-1.25,7.22-2.58,1.91-1.21,3.39-3.22,4.73-5,1.04-1.39,2.62-3.26,2.7-5.09.08-1.93-2.92-1.93-3,0h0Z"/>
  <path d="M138.57,121.95c4.58,4.82,9.35,9.98,15.95,11.88,1.86.54,2.65-2.36.8-2.89-6.06-1.75-10.43-6.7-14.63-11.11-1.33-1.4-3.45.72-2.12,2.12h0Z"/>
</svg>