<?xml version="1.0" encoding="UTF-8"?>
<svg id="Layer_44" data-name="Layer 44" xmlns="http://www.w3.org/2000/svg" xmlns:xlink="http://www.w3.org/1999/xlink" viewBox="0 0 256 256">
  <defs>
    <style>
      .cls-1 {
        fill: url(#radial-gradient-2);
      }

      .cls-2 {
        fill: #8c6135;
      }

      .cls-3 {
        fill: url(#radial-gradient);
      }

      .cls-4 {
        opacity: .3;
      }

      .cls-5 {
        fill: #435054;
      }
    </style>
    <radialGradient id="radial-gradient" cx="88.09" cy="123.11" fx="88.09" fy="123.11" r="13.69" gradientTransform="translate(75.49 -27.5) rotate(26.74) scale(.88 .99) skewX(4.89)" gradientUnits="userSpaceOnUse">
      <stop offset="0" stop-color="#fff"/>
      <stop offset=".41" stop-color="#fefdfd"/>
      <stop offset=".55" stop-color="#faf6f6"/>
      <stop offset=".66" stop-color="#f4eaea"/>
      <stop offset=".74" stop-color="#ebdad9"/>
      <stop offset=".81" stop-color="#e0c4c3"/>
      <stop offset=".88" stop-color="#d2aaa8"/>
      <stop offset=".94" stop-color="#c28a88"/>
      <stop offset=".99" stop-color="#af6663"/>
      <stop offset="1" stop-color="#ab5d5a"/>
    </radialGradient>
    <radialGradient id="radial-gradient-2" cx="167.75" cy="121.55" fx="167.75" fy="121.55" r="13.4" gradientTransform="translate(229.01 -82.58) rotate(147.96) scale(.82 -1.1) skewX(17.35)" xlink:href="#radial-gradient"/>
  </defs>
  <g class="cls-4">
    <path class="cls-5" d="M141.78,128.93c5.08.02,8.83,4.28,13.81,4.65,2.73.2,6.13-.63,8.63-1.71,5.15-2.2,8.94-6.85,13.79-9.56,3.37-1.89.35-7.07-3.03-5.18-4.42,2.47-7.89,6.66-12.46,8.86-3.22,1.54-6.51,1.9-9.81.36-3.82-1.78-6.62-3.4-10.93-3.42-3.86-.02-3.87,5.98,0,6h0Z"/>
  </g>
  <g class="cls-4">
    <path class="cls-5" d="M175.68,110.57c-11.54,1.19-22.84-5.84-34.19-1.78-3.61,1.29-2.05,7.09,1.6,5.79,10.47-3.75,21.74,3.11,32.6,1.99,3.8-.39,3.84-6.4,0-6h0Z"/>
  </g>
  <g class="cls-4">
    <path class="cls-5" d="M79.77,118.68c5.68-.76,10.31-3.32,15.63-5.17,6.08-2.11,12.09.13,18.12,1.44,3.76.81,5.37-4.97,1.6-5.79-5.6-1.21-11.65-3.39-17.43-2.44-6.28,1.04-11.57,5.11-17.92,5.96-3.77.51-3.82,6.51,0,6h0Z"/>
  </g>
  <g class="cls-4">
    <path class="cls-5" d="M114.15,124.87c-2.76-.72-4.11-1.26-6.82-.12-2.94,1.24-6,3.6-9.39,3.1-2.74-.41-5.72-2.85-8.27-4.04-2.92-1.35-5.91-2.58-8.64-4.29-3.28-2.06-6.3,3.13-3.03,5.18,2.93,1.83,6.15,3.12,9.27,4.58,2.94,1.39,5.75,3.67,8.94,4.38,2.76.62,5.76-.02,8.34-1.03,1.44-.56,2.79-1.41,4.23-1.93,2.01-.72,1.56-.64,3.77-.06,3.74.98,5.33-4.8,1.6-5.79h0Z"/>
  </g>
  <path class="cls-3" d="M113.27,123.81c-1.51,1.91-9.77,2.57-14.95,2.66s-19.55-7.14-16.22-7.83c4.14-.87,7.09-2.29,15.1-5.31,4.86-1.83,18.19,7.82,16.08,10.48Z"/>
  <circle class="cls-2" cx="98.31" cy="120" r="5.62"/>
  <path d="M98.32,121s.08-.07.12-.1l-.3.23c.13-.1.27-.18.42-.24l-.36.15c.14-.06.29-.1.44-.12l-.4.05c.14-.02.27-.02.41,0l-.4-.05c.14.02.27.06.4.11l-.36-.15c.13.06.26.13.37.21l-.3-.23s.06.05.09.07l-.23-1.82-.02.03.23-.3c-.1.13-.22.25-.35.35l.3-.23c-.11.09-.24.16-.37.22l.36-.15c-.13.05-.26.09-.39.11l.4-.05c-.12.01-.24.02-.36,0l.4.05c-.12-.02-.24-.05-.35-.1l.36.15c-.11-.05-.21-.11-.3-.18l.3.23s-.09-.07-.13-.11l-.3,2.36c.15-.11.31-.2.48-.28l-.36.15c.15-.06.3-.1.46-.13l-.4.05c.1-.01.2-.02.3,0l-.4-.05s.06.01.1.03l-.36-.15s.04.02.06.04l-.3-.23s.03.03.04.04l-.23-.3s.03.04.04.07l-.15-.36s.02.07.03.1l-.05-.4s0,.09,0,.14l.05-.4c-.01.07-.03.14-.06.2l.15-.36c-.03.07-.06.13-.11.18l.23-.3s-.07.08-.12.12l.3-.23s-.09.06-.14.08l.36-.15c-.12.05-.25.08-.38.13-.39.14-.64.28-.95.55l2.51,1.46c.02-.05.03-.1.06-.16l-.15.36c.04-.09.09-.18.16-.27l-.23.3c.06-.08.13-.14.2-.2l-.3.23c.07-.05.13-.09.21-.12l-.36.15c.07-.03.14-.05.22-.06l-.4.05c.07,0,.15-.01.22,0l-.4-.05c.06,0,.11.02.17.05l-.36-.15c.05.02.1.05.15.09l-.3-.23c.06.05.11.1.15.16l-.23-.3.02.02v-1.51s-.04.06-.06.09l.23-.3c-.05.06-.1.11-.16.16l.3-.23c-.06.04-.12.08-.18.11l.36-.15c-.05.02-.11.04-.17.04l.4-.05c-.06,0-.11,0-.17,0l.4.05c-.06,0-.11-.02-.16-.04l.36.15c-.05-.02-.1-.05-.15-.09l.3.23s-.09-.08-.13-.13l.39,1.46s.03-.1.05-.14l-.15.36c.03-.07.07-.13.11-.19l-.23.3s.08-.09.13-.13l-.3.23s.09-.06.14-.09l-.36.15c.06-.02.12-.04.18-.05l-.4.05c.05,0,.1,0,.16,0l-.4-.05c.05,0,.1.02.15.04l-.36-.15s.08.04.12.07l-.3-.23s.07.07.1.1l-.23-.3s.06.09.08.14l-.15-.36s.02.05.03.08l.69-1.69c-.21.16-.42.31-.66.42l.36-.15c-.1.04-.2.07-.31.08l.4-.05c-.06,0-.13,0-.19,0l.4.05c-.05,0-.11-.02-.16-.04l.36.15s-.07-.04-.1-.06l.3.23c-.05-.04-.1-.09-.14-.15l.23.3c-.05-.07-.09-.14-.12-.22l.15.36c-.04-.1-.07-.2-.09-.31l.05.4c-.01-.1-.01-.19,0-.29l-.05.4c.01-.06.03-.13.05-.19l-.15.36s.05-.1.08-.14l-.23.3s.06-.07.1-.1l-.3.23s.08-.05.12-.07l-.36.15c.05-.02.11-.03.16-.04l-.4.05c.09-.01.18-.01.27,0l-.4-.05c.11.02.22.05.33.09l-.36-.15c.1.04.19.1.27.16l-.3-.23c.11.09.21.18.29.29l-.23-.3s.05.06.07.1l.23-1.82c-.05.05-.1.1-.16.15l.3-.23c-.07.06-.15.1-.24.14l.36-.15c-.08.03-.16.06-.25.07l.4-.05c-.09.01-.17.01-.25,0l.4.05c-.09-.01-.17-.03-.25-.06l.36.15c-.08-.04-.16-.08-.23-.13l.3.23s-.09-.08-.13-.12l.23,1.82.02-.03-.23.3s.07-.08.12-.12l-.3.23s.07-.05.11-.06l-.36.15s.09-.03.14-.04l-.4.05s.08,0,.11,0l-.4-.05s.07.02.11.03l-.36-.15s.05.03.08.05l-.3-.23s.05.04.07.06l.3-2.36s-.05.02-.08.04l.36-.15c-.16.06-.33.11-.5.14l.4-.05c-.17.02-.34.02-.51,0l.4.05c-.1-.01-.19-.03-.29-.06l-.4,2.95c.22.02.43.04.65.06.21,0,.4-.04.58-.13.19-.06.35-.16.48-.31.26-.26.46-.69.44-1.06s-.14-.79-.44-1.06l-.3-.23c-.23-.14-.49-.2-.76-.2-.22-.02-.43-.04-.65-.06-.21,0-.4.04-.58.13-.19.06-.35.16-.48.31l-.23.3c-.11.17-.17.36-.18.56-.04.13-.04.27,0,.4,0,.2.07.39.18.56.21.33.51.58.9.69.35.1.74.16,1.11.12.24-.02.48-.05.72-.11.25-.06.48-.17.71-.28.23-.13.4-.31.54-.54.11-.17.17-.36.18-.56.04-.2.04-.4-.03-.6-.07-.25-.2-.47-.39-.66-.23-.24-.52-.4-.83-.51-.34-.11-.65-.09-.99-.02-.04,0-.08.01-.11.03-.15.05-.31.12-.45.2-.31.19-.51.42-.71.71l-.15.36c-.06.2-.07.4-.03.6,0,.14.03.26.1.38.06.19.16.35.31.48.46.48,1.14.78,1.81.76s1.35-.31,1.82-.81l.23-.3c.11-.17.17-.36.18-.56.04-.13.04-.27,0-.4,0-.2-.07-.39-.18-.56-.12-.18-.26-.36-.4-.52s-.33-.28-.5-.41c-.08-.06-.16-.11-.24-.15-.18-.09-.38-.18-.58-.23-.42-.1-.84-.11-1.26-.01-.53.13-.96.49-1.25.93-.02.03-.04.06-.05.1-.06.14-.13.28-.17.42-.06.19-.08.4-.09.6,0,.13.02.27.04.4.02.15.03.29.08.43.14.41.29.68.57,1,.11.13.3.27.42.35.02.02.05.03.07.04.14.08.3.15.46.19.88.22,1.7-.12,2.39-.63l.3-.23c.15-.14.25-.3.31-.48.12-.3.18-.66.08-.98-.12-.37-.27-.64-.54-.93-.24-.25-.55-.42-.88-.53-.29-.1-.57-.09-.86-.05-.11.02-.23.02-.33.06-.16.06-.34.12-.49.21-.57.35-.97.93-1.06,1.59-.03.2-.03.4.03.6.07.26.22.46.39.66.02.03.04.05.06.07.13.13.28.25.44.35.32.19.69.29,1.07.29.03,0,.07,0,.1,0,.16-.02.33-.03.48-.07.09-.02.18-.07.26-.1.09-.04.19-.07.27-.12.35-.21.63-.5.84-.85.14-.23.2-.49.2-.76,0-.27-.07-.52-.2-.76-.1-.14-.2-.28-.32-.4-.07-.07-.16-.13-.24-.2-.23-.18-.43-.28-.71-.37-.2-.07-.42-.09-.63-.09-.1,0-.21.02-.31.04-.11.01-.22.02-.32.05-.87.27-1.5.97-1.76,1.83l-.05.4c0,.21.04.4.13.58.12.29.33.57.61.72.24.12.49.19.76.2.4.02.77-.19,1.06-.44l.03-.03-.3.23c.06-.05.12-.08.19-.11l-.36.15c.15-.06.3-.09.45-.15.34-.14.68-.29.92-.58s.43-.58.53-.96.1-.72,0-1.09c-.15-.59-.63-1.04-1.2-1.23-.4-.13-.78-.08-1.19-.02-.29.04-.55.16-.82.28-.17.07-.33.16-.48.28-.23.13-.4.31-.54.54-.11.17-.17.36-.18.56-.04.2-.04.4.03.6.07.25.2.47.39.66.35.34.74.57,1.2.72s.93.13,1.4.05c.11-.02.22-.04.33-.08.22-.08.45-.17.65-.3s.39-.27.56-.43c.19-.17.34-.39.49-.59l.15-.36c.06-.2.07-.4.03-.6-.04-.3-.17-.66-.41-.86-.18-.15-.36-.3-.56-.42s-.41-.2-.61-.27c-.31-.12-.67-.16-1.01-.15-.23,0-.45.04-.67.09-.11.02-.22.06-.32.1-.21.08-.43.17-.62.29-.21.13-.4.28-.58.44-.28.24-.44.7-.44,1.06s.16.81.44,1.06.66.46,1.06.44l.4-.05c.25-.07.47-.2.66-.39h0Z"/>
  <path class="cls-1" d="M142.58,122.25c.84,2.13,10.82,5.79,16.01,4.31,4.67-1.33,13.1-4.05,12.23-7.9-.6-2.65-8.92-3.31-14.86-4.08-4.66-.6-14.82,4-13.38,7.66Z"/>
  <circle class="cls-2" cx="157.04" cy="120.42" r="5.62"/>
  <path d="M156.69,121.36c.24-.07.48-.17.7-.29.08-.04.16-.09.24-.13l-.36.15s.08-.03.13-.04l-.4.05c.06,0,.12,0,.18,0l-.4-.05c.06.01.13.03.19.04l-1.05-1.85s-.03.08-.04.12l.15-.36c-.03.06-.06.12-.1.17l.23-.3s-.07.08-.12.11l.3-.23s-.09.06-.13.08l.36-.15c-.05.02-.1.04-.16.04l.4-.05s-.1,0-.15,0l.4.05s-.1-.02-.14-.04l.36.15s-.09-.05-.13-.08l.3.23s-.08-.07-.12-.12l.23.3c-.04-.05-.07-.11-.1-.17l.15.36s-.02-.05-.03-.08l-.39,1.46s.08-.08.13-.11l-.3.23c.1-.08.2-.14.32-.19l-.36.15c.11-.05.22-.08.34-.09l-.4.05c.1-.01.2-.01.3,0l-.4-.05c.11.02.21.04.31.09l-.36-.15c.07.03.13.06.19.11l-.3-.23s.05.04.07.07l-.23-.3s.03.04.04.07l-.15-.36s.02.06.03.1l-.05-.4s0,.06,0,.1l.05-.4s-.02.08-.03.12l.15-.36c-.02.05-.05.1-.09.15l.23-.3s-.08.08-.12.12l.3-.23c-.06.05-.13.08-.2.11l.36-.15c-.12.05-.23.08-.36.1l.4-.05c-.13.02-.26.02-.39,0l.4.05c-.12-.02-.24-.05-.36-.1l.36.15c-.06-.03-.13-.06-.19-.09l.54,2.05.02-.02-.23.3c.07-.09.15-.17.24-.24l-.3.23c.08-.06.16-.11.25-.15l-.36.15c.09-.04.18-.06.27-.07l-.4.05c.08,0,.17,0,.25,0l-.4-.05c.08.01.15.03.22.06l-.36-.15s.04.02.07.03l-.54-2.05s-.06.09-.09.13l.23-.3c-.05.06-.11.12-.17.17l.3-.23c-.05.04-.11.08-.17.1l.36-.15c-.06.03-.12.04-.19.05l.4-.05c-.06,0-.13,0-.19,0l.4.05c-.06,0-.11-.03-.16-.05l.36.15s-.07-.03-.1-.05l.74,1.3c0-.06,0-.13,0-.19l-.05.4c.01-.07.03-.13.05-.2l-.15.36c.03-.06.06-.11.09-.17l-.23.3s.08-.09.12-.13l-.3.23s.07-.05.11-.06l-.36.15s.06-.02.1-.03l-.4.05s.05,0,.08,0l-.4-.05s.05.01.08.02l-.36-.15s.05.03.08.04l-.3-.23s.05.05.08.08l-.23-.3s.05.08.07.12l-.15-.36c.03.07.05.14.06.21l-.05-.4c.01.1,0,.2,0,.29l.05-.4c-.01.1-.04.19-.07.28l.15-.36c-.03.06-.06.11-.09.16l.23-.3s-.05.06-.09.09l.3-.23s-.05.03-.07.04l.36-.15s-.04.01-.07.02l.4-.05s-.05,0-.07,0l.4.05s-.05-.01-.07-.02l.36.15s-.07-.03-.1-.06l.3.23s-.07-.07-.1-.11l.23.3c-.04-.05-.07-.1-.09-.16l.15.36c-.03-.07-.05-.14-.06-.21l.05.4c0-.07,0-.13,0-.2l-.05.4c0-.06.02-.12.05-.18l-.15.36s.04-.07.06-.1l-.23.3s.05-.06.08-.08l-.3.23s.06-.04.09-.05l-.36.15s.06-.02.1-.03l-.4.05s.05,0,.08,0l-.4-.05s.05.01.08.02l-.36-.15s.05.03.07.04l-.3-.23s.04.04.06.06l-.23-.3s.04.06.05.09l.54-2.05s-.03.02-.05.03l.36-.15h-.02c.13-.01.27-.03.4-.05-.02,0-.03,0-.05,0l.4.05s-.02,0-.03,0l.36.15s-.03-.02-.05-.03l.3.23s-.04-.04-.05-.06l.23.3s-.03-.05-.04-.07l.15.36s-.02-.06-.02-.09l.05.4s0-.06,0-.09l-.05.4s0-.03,0-.05l-1.45,1.1s.06,0,.1,0l-.4-.05s.08.01.11.03l-.36-.15s.05.02.07.04l-.3-.23s.03.03.04.04l-.23-.3s.02.04.03.06l-.15-.36s.01.04.02.06l-.05-.4s0,.03,0,.05l.05-.4s0,.02,0,.03l.15-.36s-.01.03-.02.04l.23-.3s-.02.02-.03.03l.3-.23s-.02.02-.03.02l.36-.15s-.02,0-.04.01l.4-.05s-.02,0-.02,0l.4.05s-.01,0-.02,0l.36.15s-.01,0-.02-.01l.3.23h0c.08.09.16.19.23.3h0c.05.11.1.23.15.35,0,0,0-.02,0-.02l.05.4s0-.03,0-.05c0-.21-.04-.4-.13-.58-.06-.19-.16-.35-.31-.48-.14-.15-.3-.25-.48-.31-.18-.09-.37-.14-.58-.13-.39.02-.79.14-1.06.44l-.23.3c-.14.23-.2.49-.2.76,0,.01,0,.03,0,.04,0,.05.04.36.06.41.03.11.39.74.16.38.04.06.19.26.24.31.04.05.25.21.31.24.07.04.04.02.2.09.22.09.32.15.61.13.06,0,.35-.04.41-.05,0,0,.02,0,.03,0,.04-.01.33-.13.37-.16,0,0,.02-.01.03-.02.08-.05.25-.18.31-.24.05-.05.11-.14.14-.17.15-.19.22-.28.29-.55,0-.01,0-.02,0-.03.02-.1.06-.32.06-.42,0-.08-.02-.16-.03-.23,0-.05-.01-.16-.03-.23-.04-.13-.1-.28-.16-.39,0-.01-.01-.03-.02-.04-.04-.06-.08-.12-.13-.17-.04-.05-.08-.11-.12-.16,0,0-.02-.02-.03-.03-.21-.21-.5-.37-.78-.45-.15-.04-.31-.05-.47-.07-.03,0-.06,0-.1,0l-.4.05c-.2.05-.37.14-.51.27-.11.07-.2.16-.27.27-.13.14-.22.31-.27.51-.02.08-.02.17-.04.25,0,.07-.03.17-.03.25s.02.18.03.24c0,.06.01.17.04.24.04.15.1.29.18.43,0,.02.02.03.03.04l.23.3s.01.02.02.02c.01.01.02.02.03.03.08.07.23.19.32.25.07.04.14.06.21.09s.14.07.21.09l.4.05s.02,0,.02,0c.11,0,.89-.2.42-.06.11-.03.27-.11.37-.16.02,0,.03-.01.05-.03.17-.09.32-.22.42-.39.13-.14.22-.31.27-.51l.05-.4c0-.27-.07-.52-.2-.76-.14-.29-.44-.59-.73-.73-.09-.05-.27-.13-.41-.17-.07-.02-.21-.03-.22-.03-.02,0-.15-.03-.22-.03-.18,0-.36.02-.53.07-.07.02-.17.07-.2.08-.04.02-.14.05-.2.09-.02.01-.05.03-.07.04-.29.21-.42.33-.62.63-.21.32-.29.71-.31,1.08-.02.41.11.76.27,1.12s.43.59.73.81c.14.1.33.18.48.22.33.09.59.08.91.01.16-.03.31-.11.46-.18.07-.04.14-.1.19-.14.06-.05.14-.1.2-.16s.11-.13.15-.19c.05-.06.11-.13.15-.2.09-.14.16-.35.22-.48.09-.22.11-.47.13-.71,0-.05,0-.11,0-.16,0-.18-.04-.37-.07-.55,0-.05-.02-.1-.04-.14-.06-.16-.12-.34-.22-.48-.08-.11-.17-.24-.27-.34-.02-.02-.04-.04-.06-.05-.07-.06-.23-.2-.36-.27-.06-.03-.18-.08-.2-.09-.03-.01-.14-.07-.21-.09-.01,0-.02,0-.03,0-.1-.02-.31-.05-.42-.06-.03,0-.05,0-.07,0-.37.02-.54.08-.86.23-.28.13-.47.34-.65.58s-.34.51-.41.82c-.03.16-.05.33-.07.49,0,.04,0,.07,0,.11,0,.02,0,.03,0,.05,0,.27.07.52.2.76l.23.3c.09.1.25.21.38.28.34.17.72.3,1.11.26s.77-.11,1.1-.34c.35-.24.62-.5.83-.87.11-.17.17-.36.18-.56.04-.2.04-.4-.03-.6-.12-.36-.34-.73-.69-.9-.17-.08-.34-.16-.52-.22s-.38-.07-.57-.09c-.06,0-.13,0-.19,0-.19.02-.39.03-.57.09s-.35.13-.51.21c-.06.03-.12.07-.18.11-.15.11-.31.23-.45.36s-.26.31-.38.47c-.11.17-.17.36-.18.56-.04.2-.04.4.03.6.12.37.34.7.69.9.24.14.51.26.79.32.2.04.4.07.61.08.08,0,.16,0,.24,0,.2-.02.41-.04.61-.09s.38-.14.56-.22c.24-.1.46-.27.62-.47.06-.08.21-.25.28-.38.05-.08.08-.18.11-.26s.08-.17.1-.26c.02-.08.02-.17.03-.24s.03-.17.03-.25-.02-.18-.03-.25-.02-.16-.03-.24c-.03-.15-.11-.3-.18-.43-.15-.29-.38-.48-.64-.66-.06-.04-.12-.07-.18-.1-.17-.08-.36-.17-.55-.22s-.38-.06-.57-.08c-.07,0-.15,0-.22,0-.2.02-.41.04-.61.09s-.38.14-.56.23c-.08.04-.15.08-.22.13-.17.12-.34.25-.5.39-.37.35-.55.97-.39,1.46.06.2.14.41.26.58.23.33.35.45.68.68.16.12.35.19.54.25.09.03.2.04.3.05s.2.04.3.03c.19,0,.4-.03.59-.09.35-.13.53-.24.82-.48.03-.02.05-.05.08-.08.11-.12.22-.26.3-.4.11-.18.19-.39.25-.59.06-.2.07-.4.03-.6,0-.2-.07-.39-.18-.56-.21-.33-.51-.58-.9-.69s-.88-.16-1.28-.02c-.18.06-.36.14-.52.24-.08.05-.16.09-.25.13l.36-.15c-.06.03-.12.05-.19.07-.37.11-.7.36-.9.69-.11.17-.17.36-.18.56-.04.2-.04.4.03.6.12.36.34.71.69.9s.76.27,1.16.15h0Z"/>
  <path d="M175.54,115.68c-2.98.06-6.1.27-9.04-.36-1.45-.31-2.66-1.28-4-1.87-1.09-.47-2.25-.65-3.42-.81-4.81-.63-10.21.05-14.21,2.99-2.68,1.97-4.45,4.72-5.36,7.91-.53,1.86,2.37,2.65,2.89.8,1.41-4.98,5.39-7.86,10.37-8.68,2.02-.33,4.15-.32,6.18-.03,1.12.16,2.14.41,3.14.95,1.17.62,2.31,1.35,3.62,1.64,3.21.69,6.57.54,9.83.47,1.93-.04,1.93-3.04,0-3h0Z"/>
  <path d="M142.27,124.29c2.35.07,4.86,1.26,7.08,1.97,2.99.96,6.04,1.87,9.21,1.35,5.95-.98,10-6.08,15.39-8.32,1.76-.73.99-3.63-.8-2.89-2.76,1.15-5.17,2.84-7.62,4.53-2.27,1.57-4.67,3.21-7.43,3.73-5.48,1.03-10.46-3.21-15.84-3.37-1.93-.06-1.93,2.94,0,3h0Z"/>
  <path d="M115.63,124.37c-1.66-5.17-4.69-9.55-10.22-10.8-1.93-.44-3.92-.51-5.87-.83-1.33-.21-2.52-.33-3.85-.02-1.58.37-3.09,1.12-4.55,1.81-1.61.76-3.25,1.27-4.89,1.92-1.8.71-3.23,1.35-5.19.86s-2.67,2.42-.8,2.89c1.97.5,3.73.36,5.61-.38s3.69-1.28,5.47-2.08,3.43-1.78,5.31-2.16c1.28-.26,2.64.15,3.92.3,2.26.27,4.66.42,6.71,1.51,2.97,1.58,4.48,4.7,5.47,7.77.59,1.83,3.49,1.05,2.89-.8h0Z"/>
  <path d="M82.63,120.96c2.23,1.6,4.92,2.56,7.31,3.89,2.04,1.13,4.17,2.15,6.44,2.7,2.77.67,5.63.64,8.41.05,1.62-.34,3.16-.96,4.75-1.4,1.38-.38,2.8-.57,4.22-.77,1.9-.28,1.09-3.17-.8-2.89-1.3.19-2.61.36-3.89.69-1.5.38-2.94.98-4.45,1.34-2.55.62-5.21.68-7.76.01-2.01-.53-3.85-1.44-5.65-2.45-2.32-1.29-4.92-2.21-7.08-3.76-1.57-1.13-3.07,1.47-1.51,2.59h0Z"/>
  <path d="M174.04,107.86c-5.67.36-10.93-1.1-16.45-2.09-2.66-.47-5.36-.75-8.07-.57-1.45.1-2.89.31-4.31.62s-3.03.96-4.55.54c-1.87-.51-2.66,2.38-.8,2.89,2.99.81,6.09-.73,9.07-1,2.75-.25,5.5-.02,8.21.48,5.65,1.04,11.09,2.5,16.9,2.13,1.92-.12,1.93-3.12,0-3h0Z"/>
  <path d="M115.23,106.39c-1.12.38-2.2.65-3.38.39-1.03-.23-2.01-.67-3.02-.97-3.25-.95-6.87-1.01-10.22-.6-2.68.33-5.2,1.13-7.76,1.96-3.06.99-6.14,1.65-9.36,1.88-1.92.13-1.93,3.14,0,3,3.38-.24,6.66-.86,9.88-1.9,2.49-.8,4.96-1.68,7.57-1.98,3.28-.38,6.73-.26,9.87.79,2.53.85,4.59,1.23,7.2.33,1.82-.62,1.04-3.52-.8-2.89h0Z"/>
</svg>