<?xml version="1.0" encoding="UTF-8"?>
<svg id="Layer_47" data-name="Layer 47" xmlns="http://www.w3.org/2000/svg" xmlns:xlink="http://www.w3.org/1999/xlink" viewBox="0 0 256 256">
  <defs>
    <style>
      .cls-1 {
        fill: url(#radial-gradient-2);
      }

      .cls-2 {
        fill: url(#radial-gradient);
      }

      .cls-3 {
        opacity: .3;
      }

      .cls-4 {
        fill: #435054;
      }

      .cls-5 {
        fill: #86abb5;
      }
    </style>
    <radialGradient id="radial-gradient" cx="89.02" cy="122.86" fx="89.02" fy="122.86" r="13.02" gradientTransform="translate(52.44 -22.1) rotate(17.55) scale(.88 .99) skewX(4.89)" gradientUnits="userSpaceOnUse">
      <stop offset="0" stop-color="#fff"/>
      <stop offset=".41" stop-color="#fefdfd"/>
      <stop offset=".55" stop-color="#faf6f6"/>
      <stop offset=".66" stop-color="#f4eaea"/>
      <stop offset=".74" stop-color="#ebdad9"/>
      <stop offset=".81" stop-color="#e0c4c3"/>
      <stop offset=".88" stop-color="#d2aaa8"/>
      <stop offset=".94" stop-color="#c28a88"/>
      <stop offset=".99" stop-color="#af6663"/>
      <stop offset="1" stop-color="#ab5d5a"/>
    </radialGradient>
    <radialGradient id="radial-gradient-2" cx="167.75" cy="121.04" fx="167.75" fy="121.04" r="13.45" gradientTransform="translate(252.35 -72.8) rotate(154.76) scale(.82 -1.1) skewX(17.35)" xlink:href="#radial-gradient"/>
  </defs>
  <g class="cls-3">
    <path class="cls-4" d="M112.91,130.37c-1.49,2-2.91,4.73-5.27,5.7-2.55,1.05-5.74,1-8.44.94-3.86-.1-3.86,5.9,0,6s8.17-.08,11.63-1.76c3.26-1.59,5.17-5.03,7.26-7.85,2.3-3.1-2.9-6.1-5.18-3.03h0Z"/>
  </g>
  <g class="cls-3">
    <path class="cls-4" d="M136.73,131.52c2.18,3.41,5.04,6.39,8.66,8.27s8.06,1.83,12.15,2.19c3.85.34,3.82-5.66,0-6-2.93-.26-6.45-.07-9.12-1.37s-4.88-3.58-6.51-6.12c-2.07-3.24-7.27-.24-5.18,3.03h0Z"/>
  </g>
  <g class="cls-3">
    <path class="cls-4" d="M141.04,126.92c3.89.44,7.26,3.32,10.9,4.69,2.79,1.05,5.73.89,8.67.55,5.03-.59,8.83-4.15,13.38-6.04,3.52-1.46,1.98-7.26-1.6-5.79-4.45,1.84-8.38,5.41-13.24,5.86-6.79.63-11.51-4.53-18.11-5.27-3.83-.43-3.8,5.57,0,6h0Z"/>
  </g>
  <g class="cls-3">
    <path class="cls-4" d="M173.04,104.08c-6.7-.84-13.53-1.18-20.1.7-4.49,1.29-10.73,4.81-15.47,3.72-3.76-.87-5.36,4.92-1.6,5.79,5.16,1.19,10.76-1.15,15.6-2.73,7.19-2.35,14.06-2.42,21.56-1.47,3.82.48,3.79-5.52,0-6h0Z"/>
  </g>
  <g class="cls-3">
    <path class="cls-4" d="M82.61,110.84c6.69,1.42,13.66-2.03,20.05.17,5.68,1.96,10.08,5.35,16.41,4.02,3.78-.79,2.18-6.58-1.6-5.79-5.66,1.19-10.87-3.91-16.34-4.76-5.75-.89-11.18,1.79-16.93.57-3.77-.8-5.38,4.98-1.6,5.79h0Z"/>
  </g>
  <g class="cls-3">
    <path class="cls-4" d="M114.6,122.13c-2.69-.26-3.72-.51-6.14.76s-4.59,2.86-7.24,3.76c-5.42,1.84-11.91-2.89-16.8-5.18-3.48-1.63-6.53,3.54-3.03,5.18,5.09,2.38,11.91,7.1,17.73,6.66s10.07-5.7,15.48-5.18c3.84.37,3.82-5.63,0-6h0Z"/>
  </g>
  <path class="cls-2" d="M113.89,121.24c-1.19,2.12-9.24,4.09-14.34,5.01s-18.61-4.52-15.43-5.74c3.95-1.51,4.81-2.8,12.23-7.05,4.51-2.58,19.21,4.81,17.54,7.78Z"/>
  <circle class="cls-5" cx="100.5" cy="119.87" r="5.62"/>
  <path d="M101.01,120.67c.05-.06.1-.11.16-.15l-.3.23c.05-.04.11-.08.18-.1l-.36.15c.07-.03.13-.05.2-.06l-.4.05c.07,0,.13,0,.2,0l-.4-.05c.07,0,.13.03.19.05l-.36-.15s.08.04.11.06l-.54-2.05c-.03.05-.06.1-.09.15l.23-.3c-.04.06-.09.1-.15.15l.3-.23s-.1.07-.16.09l.36-.15c-.05.02-.11.04-.17.05l.4-.05c-.06,0-.12,0-.17,0l.4.05c-.05,0-.11-.02-.16-.04l.36.15s-.09-.04-.13-.07l.3,2.36s.08-.08.12-.11l-.3.23c.06-.05.13-.08.2-.11l-.36.15c.06-.03.13-.04.19-.06l-.4.05s.04,0,.06,0l-.4-.05s.02,0,.03,0l-.36-.15s.02,0,.03.02l-.3-.23s.02.02.02.02l-.23-.3s.02.03.02.04l-.15-.36s0,.03.01.05l-.05-.4s0,.06,0,.09l.05-.4s-.02.07-.03.1l.15-.36s-.03.05-.04.08l.23-.3s-.03.03-.04.04l.3-.23c-.05.04-.11.07-.17.1-.17.09-.33.2-.45.35l2.56,1.06v-.02c-.02.13-.03.27-.05.4,0-.05.02-.1.04-.14l-.15.36s.04-.09.08-.13l-.23.3s.05-.06.08-.08l-.3.23s.06-.04.09-.06l-.36.15s.07-.02.1-.03l-.4.05s.06,0,.09,0l-.4-.05s.05.01.08.02l-.36-.15s.06.03.08.05l-.3-.23s.03.02.04.04l-.39-1.46h0c.05-.1.1-.22.15-.34-.01.03-.03.06-.05.09l.23-.3s-.04.05-.07.07l.3-.23s-.05.03-.08.05l.36-.15s-.05.02-.07.02l.4-.05s-.06,0-.09,0l.4.05s-.05-.01-.07-.02l.36.15s-.05-.02-.07-.04l.3.23s-.02-.02-.03-.03l.44,1.06s0-.02,0-.03l-.05.4s.01-.07.03-.1l-.15.36s.03-.06.05-.08l-.23.3s.04-.04.06-.06l-.3.23s.04-.03.07-.04l-.36.15s.05-.02.08-.02l-.4.05s.05,0,.07,0l-.4-.05s.04,0,.06.02l-.36-.15s.04.02.06.03l-.3-.23s.04.04.06.06l-.23-.3s.02.04.03.06l.23-1.82c-.06.07-.13.13-.2.19l.3-.23c-.05.04-.1.07-.16.1l.36-.15s-.06.02-.09.03l.4-.05s-.06,0-.1,0l.4.05s-.04,0-.05-.02l.36.15s-.05-.03-.07-.04l.3.23s-.05-.05-.07-.07l.23.3s-.05-.08-.07-.12l.15.36s-.03-.09-.04-.13l.05.4s0-.07,0-.11l-.05.4s.01-.06.02-.09l-.15.36s.02-.04.04-.06l-.23.3s.03-.03.05-.04l-.3.23s.04-.03.07-.04l-.36.15s.07-.02.1-.03l-.4.05s.09,0,.14,0l-.4-.05c.05,0,.11.02.16.04l-.36-.15c.05.02.1.05.15.09l-.3-.23s.06.06.09.09l-.23-1.82s-.02.03-.03.04l.23-.3s-.06.07-.1.1l.3-.23s-.07.04-.1.06l.36-.15s-.08.03-.12.03l.4-.05s-.07,0-.11,0l.4.05s-.08-.02-.13-.03l.36.15s-.07-.04-.11-.06l.54,2.05s.02-.04.03-.05l-.23.3s.03-.04.05-.05l-.3.23s.03-.02.05-.03l-.36.15s.04-.01.06-.02l-.4.05s.03,0,.05,0l-.4-.05s.03,0,.05.01l-.36-.15s.03.02.05.03v-2.59c-.05.04-.11.07-.17.09l.36-.15c-.08.03-.15.05-.24.06l.4-.05c-.07,0-.15,0-.22,0v3c.1,0,.2-.01.31-.02.21,0,.4-.04.58-.13.19-.06.35-.16.48-.31.15-.14.25-.3.31-.48.09-.18.14-.37.13-.58l-.05-.4c-.07-.25-.2-.47-.39-.66l-.3-.23c-.23-.14-.49-.2-.76-.2-.1,0-.2.01-.31.02-.21,0-.4.04-.58.13-.19.06-.35.16-.48.31-.15.14-.25.3-.31.48-.09.18-.14.37-.13.58l.05.4c.07.25.2.47.39.66l.3.23c.23.14.49.2.76.2.06,0,.11,0,.17,0,.16-.01.32-.04.47-.06.03,0,.06,0,.08-.02.17-.04.35-.13.5-.2.06-.03.11-.05.16-.09.23-.13.4-.31.54-.54.14-.23.2-.49.2-.76,0-.27-.07-.52-.2-.76-.13-.23-.31-.4-.54-.54-.07-.05-.16-.08-.23-.11-.07-.03-.15-.07-.23-.09l-.4-.05h-.01s-.02,0-.03,0c-.06,0-.35.04-.41.05-.01,0-.02,0-.03,0,0,0-.02,0-.02,0l-.36.15h-.01s-.02.02-.03.02c-.06.04-.26.19-.31.24-.02.01-.03.03-.04.05-.08.1-.18.22-.25.32,0,.01-.01.02-.02.03-.11.17-.17.36-.18.56-.04.2-.04.4.03.6l.15.36c.13.23.31.4.54.54.03.02.07.05.11.06.07.03.3.15.44.18.38.09.6.08.98,0,.03,0,.06-.02.1-.03.12-.05.32-.11.45-.2.32-.22.46-.37.68-.69l.15-.36c.06-.2.07-.4.03-.6,0-.14-.03-.26-.1-.38-.06-.19-.16-.35-.31-.48-.12-.12-.26-.22-.4-.32-.04-.03-.08-.06-.13-.08-.13-.06-.27-.12-.4-.17-.02,0-.04-.01-.06-.02-.02,0-.04,0-.06-.01-.13-.02-.28-.04-.41-.06-.02,0-.03,0-.05,0-.02,0-.04,0-.06,0-.15.01-.3.03-.45.06-.16.03-.32.11-.46.18-.15.07-.28.18-.39.3h-.01c-.08.11-.16.21-.23.32,0,0-.01.02-.02.03-.08.12-.13.27-.17.4-.12.33-.08.66-.02.99,0,.04.01.07.03.11.06.15.11.31.19.45,0,.02.02.03.03.05.08.11.17.23.26.33.01.01.02.03.04.04,0,0,.01.01.02.02.09.08.22.18.32.25.01,0,.03.02.04.02.06.03.17.07.19.08,0,0,.13.06.19.08.16.05.33.07.5.07.01,0,.02,0,.03,0,.13-.01.29-.03.42-.06.02,0,.05-.01.07-.02.13-.05.34-.12.48-.22.12-.09.24-.18.36-.28.02-.02.04-.04.06-.05.04-.04.09-.08.13-.12l.23-.3c.11-.17.17-.36.18-.56.04-.13.04-.27,0-.4,0-.2-.07-.39-.18-.56,0-.01-.01-.03-.02-.04,0,0,0-.01-.01-.02-.05-.07-.18-.24-.24-.31,0-.01-.02-.02-.03-.03,0,0,0,0-.01-.01,0,0,0,0-.01-.01l-.3-.23c-.07-.05-.16-.08-.24-.11-.22-.09-.2-.09-.44-.12-.09-.01-.18-.03-.27-.03-.06,0-.34.04-.4.05,0,0-.01,0-.02,0-.01,0-.03,0-.04.01-.14.05-.28.1-.41.18-.01,0-.02.01-.03.02-.07.05-.25.19-.31.24,0,0-.01.01-.02.02,0,0-.02.02-.02.02-.05.05-.11.14-.13.17-.02.03-.09.11-.12.16-.02.02-.03.05-.04.07-.06.12-.12.26-.16.39,0,.01,0,.03-.01.04-.03.14-.04.29-.06.43,0,0,0,.01,0,.02-.01.14,0,.27.05.41l.15.36s.22.29.24.31c0,0,.01,0,.02.01.09.07.22.18.31.24,0,0,.01,0,.02.01.01,0,.03.02.04.02.06.03.18.08.19.08.04.02.14.06.2.08.01,0,.02,0,.04,0,.07.01.21.03.21.03.03,0,.15.03.22.03.01,0,.02,0,.04,0,0,0,.02,0,.02,0,.09,0,.32-.04.41-.06.02,0,.03,0,.05-.01,0,0,.01,0,.02,0,.12-.04.27-.1.38-.16.01,0,.03-.01.04-.02,0,0,.01-.01.02-.02.1-.07.23-.16.31-.24.01-.01.03-.02.04-.04,0,0,0-.01.01-.02.08-.09.18-.22.25-.32,0-.01.02-.03.03-.04.07-.13.12-.27.17-.41.07-.27.07-.53,0-.8-.07-.25-.2-.47-.39-.66-.12-.12-.25-.23-.41-.31-.06-.03-.14-.06-.2-.09-.05-.02-.13-.06-.2-.08-.02,0-.04,0-.06-.01-.02,0-.31-.06-.45-.06,0,0-.02,0-.03,0-.12,0-.3.03-.42.06-.02,0-.04,0-.06.01-.01,0-.02,0-.03.01-.12.05-.26.1-.37.16-.31.16-.52.41-.72.69-.01.02-.03.04-.04.06,0,0,0,.02-.01.03-.06.12-.12.26-.16.38-.06.17-.07.38-.09.54l.05.4.15.36.23.3c.14.15.3.25.48.31.12.07.24.1.38.1.13.04.27.04.4,0,.14,0,.26-.03.38-.1.19-.06.35-.16.48-.31.02-.02.04-.04.06-.06l-.3.23c.06-.04.13-.07.19-.11.02-.01.04-.02.05-.03.06-.04.11-.08.16-.13.06-.04.11-.08.16-.13.01-.01.02-.02.03-.03l.23-.3s0-.01.01-.02c.08-.13.14-.3.19-.43.01-.03.02-.06.02-.09.01-.08.07-.33.06-.48-.03-.39-.05-.47-.22-.82-.06-.14-.17-.25-.27-.36-.19-.2-.46-.35-.73-.42-.32-.09-.55-.06-.87,0-.04,0-.08.02-.11.03-.19.06-.39.14-.56.25s-.34.24-.49.39c-.19.19-.31.41-.39.66-.06.2-.07.4-.03.6,0,.2.07.39.18.56.13.23.31.4.54.54.14.1.35.17.49.22.05.02.1.03.15.04.13.02.37.07.54.06s.37-.03.54-.08c.08-.03.17-.07.24-.1s.17-.06.24-.11c.16-.09.3-.21.43-.32.04-.04.08-.08.11-.12.11-.14.24-.29.33-.45.11-.17.17-.36.18-.56.04-.2.04-.4-.03-.6l-.15-.36c-.13-.23-.31-.4-.54-.54-.02-.01-.05-.03-.07-.04-.13-.07-.28-.12-.42-.18-.05-.02-.1-.03-.15-.04-.17-.03-.35-.06-.53-.06s-.36.03-.53.07c-.05,0-.09.02-.14.04-.14.05-.28.11-.41.18-.02.01-.05.02-.07.04s-.04.03-.07.04c-.12.09-.24.18-.35.27-.04.04-.08.08-.12.12-.15.14-.25.3-.31.48-.09.18-.14.37-.13.58,0,.21.04.4.13.58.06.19.16.35.31.48l.3.23c.23.14.49.2.76.2l.4-.05c.25-.07.47-.2.66-.39h0Z"/>
  <path class="cls-1" d="M142.26,120.35c.58,2.22,9.9,5.89,15.23,5.03,4.79-.77,13.64-1.33,13.23-5.25-.28-2.7-7.97-6.37-13.78-7.83-4.56-1.14-15.68,4.24-14.68,8.05Z"/>
  <circle class="cls-5" cx="155.76" cy="119.5" r="5.62"/>
  <path d="M155.76,120.88s.1-.02.14-.04c.15-.06.3-.13.45-.19l-.36.15s.06-.02.09-.03l-.4.05s.04,0,.07,0l-.4-.05s.08.02.13.04l-1.05-1.85h0c.05-.11.1-.23.15-.35-.01.03-.03.06-.05.09l.23-.3s-.04.04-.06.06l.3-.23s-.04.03-.07.04l.36-.15s-.05.02-.07.02l.4-.05s-.05,0-.07,0l.4.05s-.05,0-.07-.02l.36.15s-.04-.02-.06-.04l.3.23s-.03-.03-.05-.05l.23.3s-.03-.05-.05-.08l.15.36s-.02-.05-.02-.08l-.69,1.69s.1-.07.16-.09l-.36.15c.05-.02.11-.04.16-.04l-.4.05s.09,0,.14,0l-.4-.05c.05,0,.1.02.15.04l-.36-.15s.08.04.12.07l-.3-.23s.03.02.04.04l-.23-.3s.02.03.02.04l-.15-.36s0,.02,0,.04l-.05-.4s0,.03,0,.05l.05-.4s0,.04-.02.06l.15-.36s-.02.04-.04.06l.23-.3s-.04.04-.06.06l.3-.23s-.04.03-.07.04l.36-.15s-.1.03-.15.04l.4-.05c-.06,0-.12,0-.19,0l.4.05c-.06,0-.11-.02-.17-.05l.36.15c-.06-.02-.11-.05-.15-.09l.3,2.36s.05-.05.08-.07l-.3.23s.08-.06.13-.08l-.36.15s.08-.03.12-.03l-.4.05s.08,0,.12,0l-.4-.05s.07.02.11.03l-.36-.15s.05.02.07.04l-.54-2.05h0c.08-.09.16-.19.23-.29-.03.03-.06.06-.09.09l.3-.23s-.06.04-.09.05l.36-.15s-.06.02-.09.03l.4-.05s-.06,0-.08,0l.4.05s-.05-.01-.07-.02l.36.15s-.05-.03-.07-.04l.3.23h0c.15.35.29.7.44,1.05,0-.02,0-.03,0-.04l-.05.4s.01-.06.03-.09l-.15.36s.03-.06.05-.09l-.23.3s.04-.04.06-.06l-.3.23s.03-.02.05-.03l-.36.15s.04-.01.05-.02l-.4.05s.03,0,.05,0l-.4-.05s.02,0,.04.01l-.36-.15s.02.01.03.02l-.3-.23s.02.02.03.03l-.23-.3s.02.03.03.05l-.15-.36s.02.05.02.08l-.05-.4s0,.08,0,.12l.05-.4s-.02.09-.04.14l.15-.36s-.03.07-.06.1l.23-.3s-.03.03-.05.05l.3-.23s-.02.02-.04.02l.36-.15s-.03,0-.04.01l.4-.05s-.02,0-.03,0l.4.05s-.02,0-.03,0l.36.15s-.03-.01-.04-.02l.3.23s-.03-.03-.05-.05l.23.3s-.03-.04-.04-.06l.15.36s-.02-.07-.03-.11l.05.4s0-.07,0-.1l-.05.4s.01-.05.02-.08l-.15.36s.02-.04.04-.06l-.23.3s.03-.03.04-.04l-.3.23s.03-.02.05-.03l-.36.15s.03,0,.04-.01l-.4.05s.03,0,.05,0l-.4-.05s.03,0,.04.01l-.36-.15s.02.01.03.02l-.3-.23s.02.02.03.03l-.23-.3s.02.03.02.04l-.15-.36s0,.01,0,.02l.69-1.69s-.01,0-.02,0l.36-.15h0c.13-.02.27-.03.4-.05,0,0-.01,0-.02,0l.4.05s-.01,0-.02,0l.36.15s0,0-.01,0l.3.23s-.01-.01-.02-.02l.23.3s-.01-.02-.02-.03l.15.36s-.01-.03-.01-.05l.05.4s0-.03,0-.04l-.05.4s0-.02,0-.03l-1.45,1.1h0c-.13-.02-.27-.03-.4-.05.02,0,.05,0,.07.02l-.36-.15s.02.01.03.02l-.3-.23s.01.01.02.02l-.23-.3s.01.02.02.02l-.15-.36s0,.03.01.04l-.05-.4s0,.02,0,.03l.05-.4s0,0,0,.01l.15-.36s0,.01-.01.02l.23-.3s0,0-.01.01l.3-.23s-.01,0-.02,0l.36-.15s-.01,0-.02,0l.4-.05s0,0-.01,0l.4.05s0,0-.01,0l.36.15s0,0,0,0l.3.23h0c.08.1.16.2.23.3,0,0,0,0,0,0l.15.36h0c.02.13.04.26.05.39,0,0,0,0,0-.01l-.05.4s0-.01,0-.02c.06-.2.07-.4.03-.6,0-.2-.07-.39-.18-.56-.09-.17-.22-.32-.39-.42-.14-.13-.31-.22-.51-.27l-.4-.05c-.27,0-.52.07-.76.2l-.3.23c-.19.19-.31.41-.39.66-.02.07-.02.17-.03.22-.03.21-.02.13-.03.21,0,.14.01.28.06.41.01.04.13.33.15.36.06.11.14.22.24.31.01,0,.29.23.31.24.04.02.32.14.36.15,0,0,0,0,.01,0-.11-.03.27.06.41.05.02,0,.39-.05.4-.05,0,0,0,0,.01,0,.03,0,.34-.14.36-.15.06-.03.15-.11.16-.12-.02.01.12-.08.16-.13.03-.03.22-.27.24-.31,0,0,0-.01,0-.02.01-.02.15-.34.15-.37.04-.12.06-.65.06-.41,0-.14-.02-.29-.05-.43,0,0,0-.01,0-.02,0,0,0,0,0-.01l-.15-.36c-.07-.12-.16-.24-.25-.33s-.21-.18-.33-.26c0,0-.01,0-.02,0-.06-.03-.12-.06-.19-.08-.06-.03-.12-.05-.18-.08-.01,0-.03,0-.04-.01,0,0-.01,0-.02,0-.13-.02-.29-.04-.42-.06l-.4.05c-.2.05-.37.14-.51.27-.11.07-.2.16-.27.27-.13.14-.22.31-.27.51,0,0,0,.02,0,.03-.01.07-.02.14-.03.2-.01.07-.02.14-.03.21,0,.15.02.3.06.44,0,.02,0,.03.01.05l.15.36s0,0,0,.01c0,0,0,.01.01.02l.23.3h0c.05.05.12.1.16.14.05.04.11.09.17.13l.36.15h0c.06.02.23.04.21.03.26.04.13.03.21.03l.4-.05h0c-.25.06.27-.1.37-.16l.3-.23c.15-.14.25-.3.31-.48.07-.12.1-.24.1-.38.04-.2.04-.4-.03-.6-.05-.14-.1-.29-.18-.42.12.17-.17-.24-.25-.32-.05-.04-.15-.12-.16-.13-.05-.04-.11-.09-.17-.13-.12-.08-.27-.14-.41-.17.23.05-.3-.06-.42-.06,0,0-.01,0-.02,0-.07,0-.14.02-.21.03-.07,0-.14.02-.21.03-.01,0-.02,0-.03,0-.08.03-.29.12-.37.15,0,0-.01,0-.02,0s-.01,0-.01,0c-.08.05-.24.18-.31.24-.01.01-.02.02-.03.03-.2.22-.39.5-.45.81-.02.1-.07.33-.06.49,0,0,0,.02,0,.02.01.12.03.29.06.41,0,.02,0,.03.01.05.09.3.24.57.46.79.05.05.14.11.18.14.05.04.11.1.18.13.06.03.22.09.19.08-.1-.04.13.07.19.08.14.03.28.06.43.06,0,0,.01,0,.02,0,.04,0,.36-.05.41-.05,0,0,.02,0,.03,0,.14-.04.29-.09.41-.18.06-.04.25-.17.34-.27.07-.08.18-.22.24-.31,0,0,0,0,.01-.01,0-.01.02-.02.02-.04.07-.13.13-.28.18-.42.01-.03.02-.05.03-.08.03-.15.05-.31.06-.47,0-.03,0-.05,0-.08,0,0,0-.02,0-.02-.01-.12-.03-.29-.05-.41,0-.01,0-.02,0-.03s0-.02-.01-.03c-.04-.1-.11-.27-.15-.37,0,0,0-.01,0-.02-.03-.06-.1-.14-.13-.18-.04-.05-.09-.12-.14-.17-.04-.04-.19-.14-.16-.13.05.04-.11-.09-.16-.12-.12-.07-.26-.12-.39-.17-.14-.05-.3-.06-.45-.06-.07,0-.2.02-.23.03-.04,0-.16.01-.23.03,0,0-.01,0-.02,0-.09.03-.28.11-.37.15-.01,0-.02.01-.03.02-.13.08-.25.17-.36.28s-.19.23-.28.36c0,.01-.01.02-.02.03,0,0,0,.01,0,.02-.05.11-.12.26-.16.38-.05.15-.06.38-.08.49,0,0,0,.01,0,.02,0,0,0,.01,0,.02l.05.4.15.36.23.3c.05.04.11.08.16.12.05.04.11.08.16.12.13.09.31.15.43.19.02,0,.03.01.05.01.11.02.3.04.41.06.01,0,.02,0,.03,0,.33.01.64-.1.93-.24.02,0,.03-.02.04-.03.06-.04.12-.09.17-.13.05-.04.12-.09.17-.13.12-.1.23-.28.31-.39.11-.17.17-.36.18-.56.04-.2.04-.4-.03-.6l-.15-.36c-.13-.23-.31-.4-.54-.54-.13-.08-.33-.15-.43-.19-.03-.01-.06-.02-.09-.03-.16-.03-.32-.06-.48-.06s-.33.03-.48.06c-.03,0-.06.01-.09.02-.15.05-.3.11-.44.19s-.29.21-.38.28c-.03.02-.05.05-.08.07-.19.19-.31.41-.39.66-.06.2-.07.4-.03.6,0,.2.07.39.18.56.13.23.31.4.54.54.03.02.06.04.09.06.14.08.3.14.45.19.03.01.07.02.1.03.16.03.33.06.5.07.04,0,.07,0,.11,0,.16-.02.34-.03.5-.07.02,0,.04-.01.05-.02.07-.02.13-.06.19-.08.02,0,.13-.05.19-.08.14-.07.26-.18.37-.28s.2-.24.29-.37c0-.01.02-.03.02-.04l.08-.18c.03-.06.05-.13.08-.19,0,0,0-.02,0-.03.02-.07.02-.18.03-.22,0,.04.03-.15.03-.21,0,0,0-.02,0-.02h0c-.02-.14-.04-.28-.05-.41,0,0,0-.02,0-.02h0c-.05-.13-.1-.25-.15-.37-.06-.12-.24-.33-.26-.34-.1-.11-.24-.2-.36-.29-.03-.02-.06-.04-.09-.05-.13-.06-.26-.12-.39-.17-.02,0-.03-.01-.05-.02-.16-.04-.33-.06-.5-.07-.04,0-.08,0-.11,0-.13.01-.28.03-.41.06-.01,0-.02,0-.03,0-.02,0-.04,0-.06.01-.02,0-.04.01-.06.02-.13.05-.27.1-.4.17-.04.02-.08.05-.12.07l-.3.23c-.15.14-.25.3-.31.48-.07.12-.1.24-.1.38-.04.2-.04.4.03.6.03.17.11.33.19.47s.18.27.29.38c.05.05.13.1.17.13s.11.09.17.13c.01,0,.03.02.05.02.34.16.45.2.84.22.16,0,.33-.02.49-.06,0,0,.02,0,.02,0,0,0,.01,0,.02,0l.36-.15s.03-.02.05-.03c.06-.04.13-.1.17-.13s.12-.09.17-.13c.01-.01.03-.03.04-.04.02-.03.19-.23.26-.34.08-.13.12-.28.18-.42.06-.2.07-.4.03-.6,0-.2-.07-.39-.18-.56l-.23-.3c-.19-.19-.41-.31-.66-.39-.04-.02-.08-.03-.12-.04-.13-.03-.32-.07-.48-.06l-.4.05h0s-.01,0-.02,0c-.01,0-.02,0-.03.01-.15.05-.29.12-.43.18l.36-.15c-.06.03-.12.04-.19.06-.2.05-.37.14-.51.27-.16.11-.29.25-.39.42-.11.17-.17.36-.18.56-.04.2-.04.4.03.6l.15.36c.13.23.31.4.54.54l.36.15c.27.07.53.07.8,0h0Z"/>
  <path d="M173.79,117.79c-3.28-.38-5.94-2.34-8.71-3.95-2.04-1.19-4.17-2.03-6.51-2.38-4.72-.71-9.89.07-13.88,2.81-2.62,1.8-4.47,4.25-5.69,7.17-.31.75.34,1.64,1.05,1.85.86.25,1.53-.3,1.85-1.05,2.35-5.64,8.28-8.21,14.11-8.02,2.61.08,4.99.75,7.25,2.04,3.43,1.95,6.5,4.07,10.53,4.54,1.91.22,1.9-2.78,0-3h0Z"/>
  <path d="M141.5,122.3c2.29.32,4.55,1.29,6.7,2.09,1.27.47,2.53,1.05,3.82,1.46,1.42.45,2.99.48,4.46.61,6.37.57,11.59-3.72,17.46-5.37,1.86-.52,1.07-3.42-.8-2.89-5.55,1.56-10.67,5.8-16.66,5.26-1.4-.13-2.82-.18-4.15-.69-1.17-.44-2.33-.91-3.51-1.35-2.1-.78-4.3-1.72-6.53-2.02-.81-.11-1.6.2-1.85,1.05-.2.7.25,1.73,1.05,1.85h0Z"/>
  <path d="M116.23,121.28c-2.48-4.87-6.09-9.17-11.8-9.83-4.85-.56-10.08.37-14.27,2.88-1.65.99-3.22,2.13-4.58,3.5-1.14,1.14-1.78,1.66-3.46,1.51-1.92-.17-1.91,2.83,0,3,1.68.15,3.16-.2,4.46-1.3,1.42-1.2,2.6-2.51,4.17-3.54,2.95-1.93,5.83-2.78,9.31-3.04,2.27-.17,4.64-.27,6.78.66,3.25,1.41,5.26,4.65,6.8,7.68.88,1.72,3.47.2,2.59-1.51h0Z"/>
  <path d="M83.36,122.25c2.44,1.36,4.31,3.25,7.04,4.08,2.15.65,4.42.95,6.66.94,2.81-.01,5.63-.48,8.35-1.18,1.62-.42,3.24-.89,4.8-1.52,1.41-.58,2.75-1.26,4.2-1.73,1.83-.6,1.04-3.5-.8-2.89-2.76.91-5.3,2.25-8.12,3.02-2.64.73-5.35,1.25-8.1,1.3-2.01.04-4-.19-5.93-.75-2.56-.74-4.31-2.59-6.59-3.85-1.69-.94-3.2,1.65-1.51,2.59h0Z"/>
  <path d="M173.43,101.22c-6.9-.87-13.35.57-19.87,2.71-3.3,1.08-6.59,2.22-9.95,3.1-1.97.51-4.83,1.25-6.64,0-1.6-1.1-3.1,1.5-1.51,2.59,2.25,1.55,5.43,1.09,7.94.55,3.2-.69,6.33-1.81,9.44-2.84s6.52-2.18,9.89-2.83c3.54-.69,7.13-.72,10.71-.28,1.91.24,1.89-2.76,0-3h0Z"/>
  <path d="M118.42,106.89c-2.89,1.33-5.08.15-7.7-1.14-3.21-1.57-6.62-2.44-10.17-2.83-2.63-.29-5.23-.07-7.85.17-3.24.29-6.44.26-9.67-.13-1.91-.23-1.9,2.77,0,3,3.33.4,6.61.41,9.95.1,2.75-.25,5.48-.45,8.24-.06,1.92.27,3.87.68,5.69,1.34,1.49.54,2.87,1.32,4.3,1.99,2.99,1.41,5.69,1.54,8.73.14,1.75-.81.23-3.39-1.51-2.59h0Z"/>
  <path d="M139.07,127.66c1.48,3.41,4.07,6.33,7.38,8.04s7.13,2.18,10.84,1.59c.8-.13,1.25-1.13,1.05-1.85-.23-.85-1.04-1.18-1.85-1.05-2.95.47-6.08.03-8.73-1.39-2.82-1.51-4.84-3.95-6.11-6.86-.32-.74-1.41-.91-2.05-.54-.77.45-.86,1.31-.54,2.05h0Z"/>
  <path d="M114.3,128.08c-3.02,5.35-9.93,6.68-15.5,7.5-.8.12-1.24,1.13-1.05,1.85.24.86,1.04,1.17,1.85,1.05,6.42-.94,13.86-2.78,17.3-8.88.95-1.68-1.64-3.2-2.59-1.51h0Z"/>
</svg>