<?xml version="1.0" encoding="UTF-8"?>
<svg id="Layer_34" data-name="Layer 34" xmlns="http://www.w3.org/2000/svg" viewBox="0 0 256 256">
  <defs>
    <style>
      .cls-1 {
        opacity: .7;
      }

      .cls-2 {
        fill: #435054;
        opacity: .3;
      }
    </style>
  </defs>
  <path class="cls-2" d="M172.62,101.82c-1.46,0-2.65-1.04-2.83-2.47-.06-.52-.13-1.06-.21-1.61-.35.15-.71.22-1.09.22-1.27,0-2.4-.91-2.71-2.17-.29-1.22.27-2.42,1.39-3,0,0,1.18-.62,1.44-.75-.02-.08-.03-.16-.05-.24-.13.09-.27.18-.41.27-.44.3-.95.46-1.5.46-.99,0-1.91-.52-2.4-1.37-.73-1.25-.36-2.83.85-3.68.67-.47,1.37-.88,2.09-1.24-.05-.19-.11-.37-.16-.55-.2.11-1.12.61-1.12.61-.41.22-.87.34-1.32.34-1.26,0-2.36-.87-2.68-2.12-.31-1.21.23-2.43,1.33-3.03l.44-.24c.58-.32,1.17-.64,1.78-.94-.08-.24-.15-.49-.23-.74-.2.12-.38.24-.52.37-.51.45-1.16.7-1.82.7-1.16,0-2.22-.73-2.63-1.82-.39-1.03-.1-2.19.74-2.93.62-.55,1.33-1.02,2.13-1.41-.27-.49-.55-.94-.84-1.35-.59-.83-.67-1.86-.21-2.74.47-.91,1.46-1.5,2.51-1.5.91,0,1.73.43,2.26,1.18.62.89,1.2,1.88,1.74,3,.3-.02.59-.03.88-.03.76,0,1.51.07,2.22.2.71.13,1.35.57,1.75,1.2.42.67.54,1.47.34,2.21-.33,1.21-1.41,2.01-2.68,2.01-.13,0-.27,0-.41-.03.02.06.04.13.06.19.59-.07,1.13-.1,1.6-.13h.17c.92,0,1.77.47,2.27,1.26.45.72.55,1.62.27,2.41-.05.21-.12.39-.24.61-.47.9-1.34,1.44-2.35,1.44-.04,0-.07,0-.11,0,.03.11.06.22.09.33.4-.03.79-.05,1.19-.05.22,0,.43,0,.65.02,1.51.07,2.67,1.32,2.63,2.85-.04,1.51-1.19,2.65-2.68,2.65,0,0-.34-.01-.44-.01.03.13.05.26.08.39.27,0,.55,0,.82,0h.38c.8,0,1.55.34,2.06.93.43.5.66,1.14.66,1.82,0,1.54-1.2,2.75-2.72,2.75h-.26c.14.97.27,1.89.38,2.77.09.78-.13,1.51-.62,2.07-.5.56-1.24.89-2.02.89Z"/>
  <path class="cls-1" d="M175.15,92.59c-.94,0-1.9-.01-2.83.17-.26-1.45-.55-2.9-.9-4.33.93-.2,1.88-.26,2.84-.22.96.05.96-1.46,0-1.5-1.1-.05-2.18.05-3.22.28-.2-.78-.4-1.56-.64-2.33-.21-.7-.42-1.41-.62-2.13.74-.15,1.48-.23,2.23-.29.34.26.84.27,1.08-.19.07-.14.07-.16.09-.26.23-.47-.09-1.13-.66-1.1-1.05.07-2.12.17-3.15.38-.42-1.49-.87-2.98-1.4-4.43,1-.15,2.02-.18,3.01,0,.4.07.81-.11.92-.52.1-.36-.12-.85-.52-.92-1.31-.24-2.65-.2-3.96.02-.59-1.41-1.28-2.76-2.15-4-.55-.78-1.85-.03-1.3.76.79,1.12,1.42,2.33,1.96,3.59-1.29.37-2.56.93-3.56,1.82-.72.64.34,1.7,1.06,1.06.85-.75,1.97-1.19,3.07-1.49.55,1.47,1,2.98,1.43,4.5,0,0,0,0,0,0-1.29.45-2.48,1.14-3.68,1.8-.85.46-.09,1.76.76,1.3,1.09-.59,2.22-1.26,3.33-1.65,0,0,.01,0,.02,0,.2.72.41,1.44.62,2.15.24.78.44,1.57.65,2.36-1.17.41-2.28.99-3.33,1.72-.33.23-.48.66-.27,1.03.19.33.69.5,1.03.27.92-.64,1.9-1.19,2.95-1.59.34,1.44.64,2.89.9,4.35-.96.39-1.88.91-2.79,1.37-.86.44-.1,1.73.76,1.3.72-.37,1.43-.74,2.16-1.08.04-.02.09-.04.13-.06.24,1.45.45,2.91.63,4.37.12.95,1.62.96,1.5,0-.2-1.63-.44-3.25-.71-4.87.1-.02.21-.05.31-.07.02,0,.03,0,.05,0,.04,0,.09-.01.13-.01.12-.01.23-.02.35-.03.58-.03,1.16-.03,1.73-.03.97,0,.97-1.5,0-1.5ZM173.2,81.79s0,0,0,0c.04-.19.02-.07,0,0ZM172.94,94.16s.04,0,0,0h0Z"/>
</svg>