<?xml version="1.0" encoding="UTF-8"?>
<svg id="Layer_35" data-name="Layer 35" xmlns="http://www.w3.org/2000/svg" viewBox="0 0 256 256">
  <defs>
    <style>
      .cls-1 {
        opacity: .7;
      }

      .cls-2 {
        fill: #435054;
        opacity: .3;
      }
    </style>
  </defs>
  <path class="cls-2" d="M152.94,212.61c-1.28,0-2.37-.83-2.72-2-.15.03-.31.04-.46.04-.98,0-1.89-.52-2.38-1.36-.37-.62-.47-1.39-.28-2.1.07-.26.17-.5.31-.72-.71-.28-1.29-.85-1.58-1.59-.38-.95-.17-2.01.51-2.77-.99-.11-1.88-.77-2.28-1.71-.43-1.02-.21-2.15.57-2.95.06-.06.11-.11.17-.17-.11.01-.22.02-.33.02-.73,0-1.42-.28-1.93-.8-.53-.53-.82-1.27-.8-2.03.01-.59.22-1.16.57-1.61-.69-.03-1.33-.31-1.82-.8-.52-.52-.81-1.25-.8-2,.01-.74.32-1.44.85-1.93.08-.07.15-.14.23-.21-.1-.11-.2-.21-.3-.31-.78-.8-1-1.93-.57-2.96.44-1.03,1.46-1.73,2.56-1.73.73,0,1.41.29,1.93.83.54.55,1.07,1.14,1.59,1.75.69-.07,1.35-.08,1.95-.08h.12c1.53,0,2.72,1.21,2.72,2.75,0,.59-.17,1.13-.47,1.57.41.04.81.1,1.2.2,1.34.34,2.2,1.58,2.02,2.96-.1.81-.54,1.51-1.16,1.95.49.07.96.19,1.41.35,1.41.5,2.18,1.93,1.79,3.34-.15.56-.48,1.04-.92,1.39,1.44.19,2.48,1.33,2.48,2.73,0,.68-.25,1.3-.67,1.79.49.23.9.6,1.19,1.08.39.65.49,1.43.3,2.14-.3,1.09-1.24,1.87-2.35,2,.08.77-.14,1.49-.64,2.05-.5.56-1.24.88-2.02.88Z"/>
  <path class="cls-1" d="M155.49,206.23c-.8-.19-1.62-.16-2.44-.08-.17-.95-.37-1.9-.6-2.85.12,0,.25,0,.36,0,.52,0,1.04.05,1.56.11.4.05.75-.38.75-.75,0-.44-.35-.7-.75-.75-.75-.09-1.53-.13-2.3-.09-.33-1.2-.7-2.39-1.12-3.55.6-.01,1.2.06,1.75.26.38.13.82-.15.92-.52.11-.41-.14-.79-.52-.92-.86-.3-1.8-.39-2.72-.29-.48-1.2-1.02-2.38-1.62-3.52.62-.09,1.25-.1,1.83.05.94.24,1.34-1.21.4-1.45-.97-.25-2-.21-2.99,0-.57-.99-1.19-1.96-1.85-2.9.03,0,.07,0,.08,0,.11-.01.22-.02.33-.03.49-.04.98-.04,1.48-.03.97,0,.97-1.5,0-1.5-.96,0-1.94.02-2.87.25-.69-.87-1.42-1.72-2.21-2.52-.67-.69-1.73.37-1.06,1.06.64.66,1.23,1.34,1.81,2.05-.65.36-1.26.81-1.81,1.33-.3.28-.28.78,0,1.06.3.3.76.28,1.06,0,.41-.38.8-.71,1.28-.99.14-.08.26-.15.38-.21.69.94,1.34,1.92,1.93,2.92-.97.41-1.86.98-2.6,1.65-.3.27-.28.78,0,1.06.3.3.76.27,1.06,0,.63-.57,1.42-1.05,2.28-1.39.6,1.12,1.14,2.26,1.62,3.44-1.08.35-2.08.93-2.85,1.72-.67.69.39,1.75,1.06,1.06.64-.66,1.46-1.12,2.34-1.38.43,1.15.8,2.33,1.13,3.51-1,.22-1.94.64-2.72,1.37-.71.66.36,1.72,1.06,1.06.56-.53,1.26-.83,2.04-.99.23.96.43,1.92.61,2.89-.78.17-1.5.5-2.21.9-.35.2-.47.68-.27,1.03.21.35.67.47,1.03.27.25-.14.5-.28.76-.4.08-.04.17-.08.25-.12.02,0,.07-.03.08-.03.04-.02.08-.03.12-.05.16-.06.32-.1.48-.14.11.69.2,1.39.28,2.08.11.95,1.61.96,1.5,0-.09-.76-.19-1.51-.31-2.27.61-.06,1.22-.08,1.8.05.39.09.81-.12.92-.52.1-.38-.13-.83-.52-.92Z"/>
</svg>