<?xml version="1.0" encoding="UTF-8"?>
<svg id="Layer_36" data-name="Layer 36" xmlns="http://www.w3.org/2000/svg" viewBox="0 0 256 256">
  <defs>
    <style>
      .cls-1 {
        opacity: .7;
      }

      .cls-2 {
        fill: #435054;
        opacity: .3;
      }
    </style>
  </defs>
  <path class="cls-2" d="M94.97,115.8c-1.24,0-2.3-.75-2.72-1.91-.13-.36-.25-.72-.37-1.08-.33.13-.65.18-.99.18-1.02,0-1.97-.54-2.48-1.41-.78-1.34-.36-3.04.97-3.87.35-.22.68-.42,1-.6-.02-.08-.03-.15-.05-.22l-.04.03h-.18c-.36.16-.75.24-1.13.24-.74,0-1.45-.29-1.98-.83-.57-.57-.88-1.4-.83-2.22.04-.78.41-1.5,1-1.97.63-.5,1.34-.92,2.18-1.26-.21.05-.42.07-.63.07-1.28,0-2.42-.9-2.76-2.18-.33-1.25.2-2.52,1.33-3.16.22-.13.45-.25.68-.36-.92-.28-1.67-1.04-1.94-2.03-.34-1.24.18-2.52,1.29-3.17.6-.35,1.26-.65,1.98-.88.05-.9.12-1.75.22-2.55.18-1.49,1.42-2.57,2.94-2.57.82,0,1.58.33,2.1.92.51.58.74,1.34.64,2.14-.06.47-.11.96-.15,1.47.37.02.74.06,1.12.1,1.53.17,2.64,1.36,2.64,2.84,0,1.27-.85,2.37-1.99,2.73.65.18,1.22.61,1.59,1.2.43.69.56,1.53.35,2.3-.26.96-.98,1.67-1.91,1.95,1.29.28,2.21,1.38,2.22,2.74.01,1.15-.61,2.13-1.55,2.6,1.33.22,2.38,1.42,2.38,2.82,0,1.5-1.19,2.74-2.71,2.85.17.48.33.94.48,1.37.31.87.2,1.78-.31,2.51-.53.75-1.42,1.2-2.38,1.2h0Z"/>
  <path class="cls-1" d="M97.89,107.87c0-.44-.39-.88-.85-.85-.98.06-1.95.28-2.89.57-.05-.21-.11-.41-.15-.62-.25-1.11-.4-2.23-.51-3.36.9-.15,1.79-.24,2.75-.26,1.1-.02,1.1-1.73,0-1.71-.96.02-1.93.13-2.89.28-.04-.56-.07-1.11-.09-1.67-.04-.85-.09-1.7-.14-2.55.92-.07,1.83-.03,2.65.12.45.08.92-.13,1.05-.6.11-.42-.14-.97-.6-1.05-1.03-.19-2.11-.25-3.19-.18-.06-1.24-.1-2.48-.1-3.72,1.02-.05,2.06,0,3.02.11.46.05.85-.43.85-.85,0-.5-.39-.8-.85-.85-.96-.11-1.98-.16-3-.11.03-1.23.11-2.47.26-3.69.13-1.09-1.58-1.08-1.71,0-.16,1.29-.23,2.58-.27,3.88-1.03.19-2.02.51-2.9,1.03-.95.56-.09,2.04.86,1.48.62-.36,1.31-.6,2.03-.76,0,1.24.05,2.49.11,3.73-1.08.23-2.12.59-3.06,1.13-.96.54-.1,2.02.86,1.48.69-.39,1.47-.68,2.29-.87.05.89.1,1.78.15,2.67.03.54.09,1.06.14,1.59-1.18.29-2.34.71-3.3,1.47-.36.29-.3.91,0,1.21.36.36.85.29,1.21,0-.11.09.03-.02.05-.04.06-.04.11-.08.17-.11.12-.08.25-.15.37-.21.31-.16.42-.21.73-.32.3-.11.61-.2.92-.29.18,1.44.46,2.84.79,4.24-.77.35-1.5.77-2.22,1.22-.39.25-.54.76-.31,1.17.23.39.78.55,1.17.31.47-.29.94-.59,1.42-.86.11-.06.23-.12.34-.18.31,1.12.66,2.24,1.07,3.38.37,1.03,2.02.58,1.65-.45-.42-1.17-.82-2.34-1.18-3.52.81-.26,1.65-.47,2.44-.52.46-.03.85-.37.85-.85Z"/>
</svg>