<?xml version="1.0" encoding="UTF-8"?>
<svg id="Layer_37" data-name="Layer 37" xmlns="http://www.w3.org/2000/svg" viewBox="0 0 256 256">
  <defs>
    <style>
      .cls-1 {
        opacity: .7;
      }

      .cls-2, .cls-3 {
        opacity: .3;
      }

      .cls-3, .cls-4 {
        fill: #435054;
      }
    </style>
  </defs>
  <path class="cls-3" d="M93.75,84.16c-.44,0-.83-.06-1.19-.12-1.86-.31-2.96-1.84-3.2-3.47l.09-1.85c.2-.84.61-1.56,1.18-2.12.45-.43.98-.75,1.58-.94.37-.12.74-.17,1.15-.17.25,0,.5.02.75.06.71.1,1.34.49,1.76,1.1.42.6.59,1.37.47,2.09.09.07.18.14.26.21.55.5.86,1.23.86,1.99,0,.77-.31,1.5-.85,2.01-.43.41-1.12.96-2.07,1.15-.26.05-.52.07-.8.07Z"/>
  <path class="cls-1" d="M93.83,77.53c-.34-.05-.68-.07-1.02.04-.3.1-.57.25-.8.47-.42.41-.62.96-.69,1.53-.13,1.04.43,2.3,1.56,2.49.42.07.86.14,1.29.06s.77-.36,1.08-.64c.29-.27.29-.79,0-1.06-.31-.28-.75-.29-1.06,0-.06.05-.11.1-.17.15-.11.1.15-.1.03-.02-.02.01-.04.03-.06.04-.05.03-.09.06-.14.08-.11.06.17-.05.08-.04-.03,0-.07.02-.1.03-.17.05.2,0,.02,0-.05,0-.11,0-.16,0-.13,0-.26-.03-.39-.04.24.02.02,0-.04,0-.04,0-.08-.02-.13-.03-.1-.03-.15-.1.04.02-.04-.03-.09-.04-.13-.07-.01,0-.03-.02-.04-.03-.1-.06.16.14.08.06-.03-.03-.06-.05-.09-.08,0,0-.08-.09-.08-.09,0,0,.12.17.07.09-.01-.02-.03-.05-.05-.07-.02-.03-.04-.06-.05-.1-.01-.02-.02-.04-.03-.07-.04-.08.06.11.05.11-.03,0-.07-.23-.08-.27,0-.04-.01-.08-.02-.13.06.27.02.12,0,.04,0-.09,0-.18,0-.28,0-.04,0-.08.01-.12,0-.12-.04.21-.01.09,0-.02,0-.03,0-.05.02-.09.04-.19.07-.28.03-.08.11-.19-.02.04.02-.04.04-.08.06-.11s.04-.07.06-.11c0-.01.02-.03.03-.04.08-.13-.09.11-.05.06.06-.07.13-.13.2-.2-.19.18-.08.06,0,.02.04-.02.19-.09.05-.03s.02,0,.06-.01c.09-.02.25-.01-.01,0,.06,0,.11,0,.17,0,.07,0,.3.03.01,0,.21.03.39.04.58-.08.16-.09.3-.27.34-.45.08-.35-.11-.86-.52-.92h0Z"/>
  <path class="cls-3" d="M89.72,95.43c-.27-.02-.55-.05-.84-.1-.49-.08-.92-.21-1.31-.38,0,0-2.15-.54-2.46-1.15-.13-.25.23-1.12.23-1.12-.06-.13-.11-.25-.15-.39l-.28-.12.2-.14c-.06-.21-.1-.43-.13-.65-.17-1.23.1-2.62.82-3.72l.91-1.02c.38-.31.82-.57,1.32-.74.11-.04.23-.07.34-.1h0s0,0,0,0c.17-.03.34-.05.52-.05.4,0,.78.09,1.13.26,0,0,.31-.38.45-.34.62.15,1.11,2.3,1.11,2.3.05.26.07.52.05.77.17-.04.35-.05.54-.05.21,0,.43.02.64.07.17.04.33.09.48.16l1.39,1.4c.29.65.33,1.37.08,2.02-.55,1.46-1.73,2.53-3.2,2.92l-1.84.17Z"/>
  <path class="cls-1" d="M88.69,87.79c-1.31.46-1.91,2.03-1.74,3.33.1.75.47,1.39,1.1,1.82.34.23.76.35,1.16.42.53.09,1.04.11,1.57.02.98-.17,1.76-.82,2.1-1.75.14-.37-.15-.84-.52-.92-.43-.1-.78.13-.92.52-.05.15.07-.12.02-.03-.02.03-.03.07-.05.1-.03.05-.06.1-.09.15-.08.13.09-.1.02-.03-.03.03-.05.06-.07.08-.05.05-.11.1-.16.15-.1.09.03-.04.04-.03-.02,0-.08.05-.09.06-.06.04-.12.07-.18.1,0,0-.09.04-.09.04,0-.03.15-.06.04-.02-.09.03-.17.06-.26.08-.06.01-.17.06-.23.05.11.02.11-.01.04,0-.05,0-.09,0-.14,0-.19,0-.38,0-.56-.02-.2-.02.1.02-.02,0-.05-.01-.11-.02-.16-.03-.09-.02-.18-.04-.27-.06-.07-.02-.14-.04-.22-.07-.08-.03-.01-.05.06.02-.02-.02-.09-.04-.11-.06-.05-.03-.1-.06-.16-.1-.14-.09.12.12-.02-.02-.04-.04-.08-.08-.12-.12-.09-.1.05.01.03.05,0,0-.06-.09-.06-.09-.03-.04-.05-.08-.08-.13-.01-.02-.02-.05-.03-.07-.07-.12.05.15.02.06-.04-.11-.08-.22-.1-.34,0-.03,0-.06-.02-.09-.02-.1.02.21,0,.07,0-.05,0-.1-.01-.15,0-.13,0-.26.01-.39,0-.12-.01.08-.01.08,0-.03.01-.07.02-.1.01-.06.02-.11.04-.17.03-.13.07-.25.11-.37.03-.09.01.05-.03.07,0,0,.04-.09.05-.1.03-.06.06-.11.09-.16s.06-.1.1-.15c.1-.15-.12.13.02-.03.04-.05.08-.09.13-.13.02-.02.03-.03.05-.04.08-.08.06,0-.05.04.04-.01.09-.06.13-.09.02-.01.05-.02.07-.04.05-.03-.2.08-.05.02.37-.13.65-.52.52-.92-.12-.36-.53-.66-.92-.52h0Z"/>
  <path class="cls-3" d="M90.03,104.09c-1.9-.1-3.59-1.33-4.3-3.13-.74-1.88-.12-4.04,1.53-5.36.53-.43.96-.27,1.61-.27.68,0,1.54-.12,2.06.36.54.5.87,1.25.87,2,0,.12,0,.25-.03.38.88.05,1.72.54,2.2,1.29.41.63.53,1.45.32,2.19-.25.9-.87,1.36-1.07,1.52-.87.66-1.92,1.02-2.96,1.02-.08,0-.16,0-.23,0Z"/>
  <path class="cls-1" d="M88.52,97.16c-.9.72-1.35,1.96-.92,3.07s1.39,1.8,2.54,1.86c.67.04,1.35-.21,1.89-.61.16-.12.29-.24.34-.45.05-.18.03-.42-.08-.58-.2-.31-.69-.52-1.03-.27-.1.08-.21.15-.32.21-.05.03-.09.05-.14.08-.02.01-.05.02-.07.03.17-.1.11-.04.04-.02-.1.04-.2.07-.3.09-.07.01-.25.02,0,0-.05,0-.1.01-.15.01-.1,0-.19,0-.29,0-.11,0,.1.01.1.01,0,0-.07-.01-.08-.01-.05,0-.1-.02-.14-.03s-.09-.03-.14-.04c0,0-.07-.03-.08-.03,0,0,.19.09.09.04-.09-.04-.17-.08-.25-.14-.04-.02-.07-.05-.11-.07-.09-.06.16.13.01,0-.08-.06-.15-.13-.21-.21-.03-.03-.05-.06-.08-.1.16.19.06.08.02.03-.06-.08-.11-.17-.15-.26-.08-.17.04.12,0,.02-.01-.04-.03-.08-.04-.12-.03-.09-.04-.18-.06-.27-.02-.1.02.1.01.11,0-.01,0-.06,0-.08,0-.04,0-.08,0-.13,0-.05,0-.1,0-.14.01-.18-.03.19,0,0,.02-.11.05-.21.09-.32.02-.05.06-.09-.04.08.02-.03.03-.06.05-.09.03-.05.06-.11.09-.16.02-.03.13-.18.05-.08-.09.11.06-.06.08-.09.1-.11.21-.21.32-.3.14-.11.22-.36.22-.53,0-.18-.08-.4-.22-.53-.33-.3-.73-.26-1.06,0h0Z"/>
  <path class="cls-3" d="M103.08,88.56c-.1,0-.2,0-.3-.01-1.24-.1-2.35-.75-3.12-1.83-.47-.66-.72-1.53-.71-2.44.04-2.11,1.39-3.84,3.29-4.2.19-.04.37-.05.55-.05,1.23,0,2.27.76,2.65,1.92.08.25.12.51.12.78.22.11.43.26.61.42,1.09,1,1.15,2.73.15,3.86-.88.98-2.06,1.55-3.24,1.55Z"/>
  <path class="cls-1" d="M102.62,82.04c-1.06.2-1.65,1.26-1.66,2.27,0,.43.09.9.34,1.25.4.56.95.94,1.65,1s1.42-.34,1.89-.87c.26-.29.31-.78,0-1.06-.28-.26-.78-.31-1.06,0-.1.11-.2.21-.32.3l.15-.12c-.13.1-.27.18-.42.25l.18-.08c-.11.04-.22.07-.33.09l.2-.03c-.11.01-.22.02-.33,0l.2.03c-.11-.02-.21-.04-.32-.09l.18.08c-.1-.05-.2-.1-.29-.17l.15.12c-.12-.09-.22-.19-.31-.31l.12.15c-.06-.09-.12-.17-.16-.27l.08.18c-.05-.12-.08-.25-.1-.38l.03.2c-.02-.18-.02-.35,0-.53l-.03.2c.02-.17.07-.33.13-.49l-.08.18c.05-.12.12-.24.2-.35l-.12.15c.07-.09.14-.16.23-.23l-.15.12c.08-.06.17-.11.27-.16l-.18.08c.09-.03.17-.06.27-.08.18-.03.36-.19.45-.34.09-.16.13-.4.08-.58-.13-.41-.51-.6-.92-.52h0Z"/>
  <path class="cls-3" d="M105.29,98.06c-.09,0-.18,0-.26-.01-.62-.05-1.18-.23-1.67-.54-.45-.28-.82-.64-1.16-1.12-.43-.6-.65-1.38-.64-2.19.03-1.85,1.28-3.43,2.97-3.75.2-.04.39-.05.57-.05.46,0,.91.11,1.32.33.62.33,1.08.9,1.31,1.6.03.11.06.21.08.32.08.06.15.12.23.19.54.5.87,1.25.87,2,0,.68-.25,1.32-.72,1.86-.77.86-1.82,1.36-2.88,1.36Z"/>
  <path class="cls-1" d="M104.89,92.42c-.85.16-1.33,1.01-1.34,1.82,0,.34.07.72.27,1,.17.23.34.43.59.58s.5.22.77.24c.57.04,1.13-.27,1.49-.68.13-.15.22-.33.22-.53,0-.18-.08-.4-.22-.53s-.33-.23-.53-.22-.4.07-.53.22c-.07.08-.14.15-.22.21l.15-.12c-.09.07-.19.13-.3.18l.18-.08c-.08.03-.16.05-.24.07l.2-.03c-.08,0-.16.01-.23,0l.2.03c-.08-.01-.15-.03-.22-.06l.18.08c-.07-.03-.14-.07-.21-.12l.15.12c-.08-.06-.15-.14-.22-.22l.12.15c-.05-.06-.09-.12-.12-.19l.08.18c-.04-.09-.06-.17-.07-.27l.03.2c-.02-.13-.01-.25,0-.38l-.03.2c.02-.12.05-.23.09-.35l-.08.18c.04-.09.08-.17.14-.25l-.12.15c.05-.06.1-.12.16-.16l-.15.12c.06-.04.12-.08.19-.11l-.18.08c.06-.02.12-.04.19-.05.18-.03.36-.19.45-.34.09-.16.13-.4.08-.58s-.17-.36-.34-.45c-.19-.1-.37-.11-.58-.08h0Z"/>
  <path class="cls-3" d="M80.17,91.26c-.09,0-.18,0-.26-.01-.62-.05-1.18-.23-1.67-.54-.45-.28-.82-.64-1.16-1.12-.43-.6-.65-1.38-.64-2.19.03-1.85,1.28-3.43,2.97-3.75.2-.04.39-.05.57-.05.46,0,.91.11,1.32.33.62.33,1.08.9,1.31,1.6.03.1.06.21.08.32.08.06.15.12.23.19.54.5.87,1.25.87,2,0,.68-.25,1.32-.72,1.86-.77.86-1.82,1.36-2.88,1.36Z"/>
  <path class="cls-1" d="M79.77,85.63c-.85.16-1.33,1.01-1.34,1.82,0,.34.07.72.27,1,.17.23.34.43.59.58s.5.22.77.24c.57.04,1.13-.27,1.49-.68.13-.15.22-.33.22-.53,0-.18-.08-.4-.22-.53s-.33-.23-.53-.22-.4.07-.53.22c-.07.08-.14.15-.22.21l.15-.12c-.09.07-.19.13-.3.18l.18-.08c-.08.03-.16.05-.24.07l.2-.03c-.08,0-.16.01-.23,0l.2.03c-.08-.01-.15-.03-.22-.06l.18.08c-.07-.03-.14-.07-.21-.12l.15.12c-.08-.06-.15-.14-.22-.22l.12.15c-.05-.06-.09-.12-.12-.19l.08.18c-.04-.09-.06-.17-.07-.27l.03.2c-.02-.13-.01-.25,0-.38l-.03.2c.02-.12.05-.23.09-.35l-.08.18c.04-.09.08-.17.14-.25l-.12.15c.05-.06.1-.12.16-.16l-.15.12c.06-.04.12-.08.19-.11l-.18.08c.06-.02.12-.04.19-.05.18-.03.36-.19.45-.34.09-.16.13-.4.08-.58s-.17-.36-.34-.45c-.19-.1-.37-.11-.58-.08h0Z"/>
  <path class="cls-3" d="M102.82,106.91c-.87,0-1.75-.23-2.46-.66-.75-.45-1.32-1.12-1.73-2.06-.27-.6-.62-1.53-.55-2.62.04-.64.2-1.22.48-1.76.29-.56.72-1.04,1.32-1.47.44-.32.97-.48,1.51-.48.94,0,1.84.5,2.36,1.29.34.53.48,1.18.4,1.81.38.03.76.14,1.09.32,1.31.69,1.81,2.31,1.13,3.68-.58,1.16-1.79,1.87-3.32,1.94-.07,0-.15,0-.23,0Z"/>
  <path class="cls-1" d="M101.04,99.96c-.29.2-.54.44-.71.76s-.24.62-.26.97c-.04.58.15,1.15.38,1.68.21.47.49.89.94,1.16s1.03.4,1.56.37c.61-.03,1.33-.24,1.62-.83.17-.35.11-.83-.27-1.03-.34-.18-.84-.11-1.03.27,0,0-.04.09-.05.08-.01,0,.14-.15.07-.09-.01,0-.03.03-.04.04-.06.08.18-.12.05-.04-.03.02-.07.03-.1.05-.09.06.11-.05.1-.04-.01,0-.04.02-.06.02-.04.01-.08.03-.12.04s-.08.02-.12.03c-.18.03.17-.01.02,0-.09,0-.17,0-.26,0-.05,0-.09,0-.14,0-.19-.02.16.03,0,0-.09-.02-.18-.04-.27-.06-.04-.01-.08-.02-.11-.04-.17-.06.16.08,0,0-.03-.02-.07-.04-.1-.06-.03-.02-.16-.11-.04-.02s0-.01-.03-.03c-.07-.06-.1-.17,0,.03-.08-.15-.18-.28-.26-.44-.02-.04-.04-.08-.06-.13,0-.02-.02-.04-.03-.07,0,0,.07.19.03.08-.04-.09-.07-.19-.1-.28s-.05-.19-.07-.29c0-.05-.03-.1-.03-.15,0,0,.02.21.01.09,0-.03,0-.06,0-.09,0-.06,0-.11,0-.17,0-.04.02-.23,0-.08s0-.04.02-.08c.01-.05.03-.1.05-.16.02-.09-.08.16-.03.08.02-.03.03-.06.04-.08.02-.03.13-.18.04-.08s.04-.04.07-.07c.02-.02.04-.04.06-.05.1-.09-.14.1-.02.01.16-.12.29-.25.34-.45.05-.18.03-.42-.08-.58-.2-.32-.69-.51-1.03-.27h0Z"/>
  <g class="cls-2">
    <path class="cls-4" d="M82.77,82.9s-.03.04-.04.06c-.06.11-.17.41-.16.38,0,0,0,0,0,.01,0,0,0,0,0,0,0,0,0,0,0,0-.02.13-.04.27-.05.4-.01.23.08.57.21.77,0,0,0,0,0,0,0,0,.23.3.24.31.17.19.43.32.67.39.13.04.28.06.42.06.07,0,.24-.03.2-.03.03,0,.14-.02.21-.03,0,0,.01,0,.02,0,.2-.05.37-.14.51-.27.16-.11.29-.25.39-.42.11-.17.17-.36.18-.56.04-.2.04-.4-.03-.6l-.15-.36c-.13-.23-.31-.4-.54-.54l-.36-.15c-.27-.07-.53-.07-.8,0,0,0-.02,0-.02,0l.4-.05s0,0-.02,0l.4.05s0,0,0,0l.36.15s0,0,0,0l.3.23s0,0,0,0l.23.3s0,0,0,0l.15.36s0,0,0,0l.05.4s0,0,0,0l-.05.4s0-.01,0-.02l-.15.36s.03-.05.05-.08c.11-.17.17-.36.18-.56.04-.2.04-.4-.03-.6-.05-.2-.14-.37-.27-.51-.11-.16-.25-.29-.42-.39l-.36-.15c-.27-.07-.53-.07-.8,0l-.36.15c-.23.13-.4.31-.54.54h0Z"/>
  </g>
  <g class="cls-2">
    <path class="cls-4" d="M81.96,98.24c1.93,0,1.93-3,0-3s-1.93,3,0,3h0Z"/>
  </g>
  <g class="cls-2">
    <path class="cls-4" d="M107.18,102.39v.11c0,.21.04.4.13.58.06.19.16.35.31.48.14.15.3.25.48.31.18.09.37.14.58.13l.4-.05c.25-.07.47-.2.66-.39l.23-.3c.14-.23.2-.49.2-.76v-.11c0-.21-.04-.4-.13-.58-.06-.19-.16-.35-.31-.48-.14-.15-.3-.25-.48-.31-.18-.09-.37-.14-.58-.13l-.4.05c-.25.07-.47.2-.66.39l-.23.3c-.14.23-.2.49-.2.76h0Z"/>
  </g>
  <g class="cls-2">
    <path class="cls-4" d="M91.94,107.22c1.93,0,1.93-3,0-3s-1.93,3,0,3h0Z"/>
  </g>
  <g class="cls-2">
    <path class="cls-4" d="M82.52,107.22c1.93,0,1.93-3,0-3s-1.93,3,0,3h0Z"/>
  </g>
  <g class="cls-2">
    <path class="cls-4" d="M99.61,93.35c1.93,0,1.93-3,0-3s-1.93,3,0,3h0Z"/>
  </g>
  <g class="cls-2">
    <path class="cls-4" d="M111.02,85.66c1.93,0,1.93-3,0-3s-1.93,3,0,3h0Z"/>
  </g>
</svg>