<?xml version="1.0" encoding="UTF-8"?>
<svg id="Layer_38" data-name="Layer 38" xmlns="http://www.w3.org/2000/svg" viewBox="0 0 256 256">
  <defs>
    <style>
      .cls-1 {
        opacity: .7;
      }

      .cls-2 {
        fill: #435054;
        opacity: .3;
      }
    </style>
  </defs>
  <g class="cls-1">
    <path class="cls-2" d="M176.94,163.15c-1.48,0-2.68-1.1-2.81-2.55-.24-2.83-.57-5.71-.88-8.5-.35-3.08-.7-6.27-.96-9.44-.2-2.51-.47-5.42-1.1-8.2-.62-2.74-1.51-5.46-2.38-8-.51-1.5-1.02-3.01-1.53-4.51-1.3-3.88-2.65-7.9-4.15-11.76-1.65-4.25-3.8-8.33-5.88-12.27l-.16-.3c-1.25-2.36-2.53-4.81-3.68-7.31l-.19-.41c-1.02-2.23-1.98-4.34-3.21-6.31-.53-.85-.56-1.87-.09-2.72.49-.88,1.46-1.45,2.47-1.45.94,0,1.8.48,2.31,1.3,1.33,2.14,2.37,4.4,3.37,6.59.26.58.53,1.16.8,1.73,1.01,2.16,2.17,4.33,3.29,6.43.35.66.71,1.32,1.05,1.99,2.39,4.53,4.3,8.76,5.86,12.93,2.14,5.75,4.08,11.62,5.72,16.67.74,2.28,1.67,5.31,2.2,8.51.46,2.73.67,5.48.88,8.15l.04.48c.22,2.78.55,5.62.87,8.36.29,2.51.6,5.11.82,7.7.06.77-.17,1.49-.67,2.03-.5.55-1.23.86-2.01.86h0Z"/>
    <path d="M177.63,160.43c-.46-5.37-1.27-10.7-1.69-16.07-.22-2.83-.43-5.66-.9-8.46s-1.25-5.53-2.13-8.22c-1.81-5.55-3.65-11.13-5.69-16.59-1.64-4.4-3.57-8.55-5.75-12.7-1.48-2.82-3.03-5.61-4.38-8.5s-2.45-5.54-4.05-8.12c-.51-.82-1.81-.07-1.3.76,1.38,2.21,2.44,4.58,3.52,6.95,1.17,2.55,2.48,5.03,3.79,7.51,2.16,4.1,4.29,8.15,5.97,12.48,2.09,5.38,3.83,10.89,5.7,16.34.93,2.7,1.81,5.42,2.44,8.2s.92,5.64,1.14,8.48c.48,5.99,1.32,11.94,1.84,17.93.08.95,1.58.96,1.5,0h0Z"/>
  </g>
  <g class="cls-1">
    <path class="cls-2" d="M178.58,177.65c-1.51,0-2.73-1.17-2.77-2.66-.05-1.74-.37-3.47-.7-5.3l-.11-.62c-.26-1.45.59-2.83,1.96-3.2.23-.06.47-.09.71-.09,1.34,0,2.48.92,2.71,2.2l.12.63c.37,2.02.75,4.1.81,6.27.02.75-.24,1.44-.74,1.96-.51.52-1.23.82-1.98.82h0Z"/>
    <path d="M179.31,174.93c-.07-2.23-.5-4.42-.9-6.61-.07-.4-.56-.62-.92-.52-.42.12-.6.52-.52.92.37,2.06.78,4.11.84,6.21.03.96,1.53.97,1.5,0h0Z"/>
  </g>
</svg>