<?xml version="1.0" encoding="UTF-8"?>
<svg id="Layer_16" data-name="Layer 16" xmlns="http://www.w3.org/2000/svg" viewBox="0 0 256 256">
  <defs>
    <style>
      .cls-1 {
        opacity: .2;
      }

      .cls-2 {
        fill: #435054;
      }

      .cls-3 {
        fill: #fcfcfc;
      }
    </style>
  </defs>
  <g class="cls-1">
    <path class="cls-2" d="M191.96,124c-.06-5.29,1.78-10.39,1.74-15.67-.01-1.99-.31-3.98-1.09-5.82-.94-2.2-2.71-3.52-3-5.98-.54-4.45.54-8.34-1.42-12.62s-5.36-8.06-9.86-10.08c-2.05-.92-5.52.68-4.41,3.39,1.95,4.74,3.3,9.3,2.65,14.47l5.59-1.51c-4.27-9.29-14.26-11.47-22.45-16.07-2.49-1.4-4.77.9-4.41,3.39.97,6.65,3.21,11.68,7.37,16.95l4.24-4.24c-5.66-4.98-11.63-9.45-18.61-12.4-4.21-1.78-7.18-4.17-11.08-6.47-1.96-1.16-4.1-2.18-6.21-.81-2.32,1.5-2.71,4.45-1.67,6.8,1.45,3.27,4.77,6.16,6.84,9.06,2.61,3.66,5.94,6.66,9.8,8.95,2.86,1.7,6.24-2.42,3.64-4.71-2.23-1.96-4.33-2.82-7.3-2.98-1.46-.08-3.28.35-4.68-.15-1.59-.57-2.56-2.04-3.6-3.25-3.19-3.72-6.49-8.21-10.6-10.98-4.51-3.05-10.56-2.33-15.45-4.75-7.72-3.82-14.83-8.8-20.73-15.09-1.05-1.12-3.21-1.2-4.24,0-7.05,8.17-12.78,16.72-15.92,27.17-.89,2.96-1.08,6.03-1.68,9.05-.57,2.81-1.5,5.61-1.7,8.48-.45,6.33,1.61,12.62,2.14,18.88.32,3.82,6.32,3.85,6,0-.49-5.9-2.38-11.8-2.18-17.74.16-4.91,1.63-10.72,2.78-15.52,2.39-10.02,8.21-18.41,14.82-26.07h-4.24c5.48,5.84,11.99,10.64,19.01,14.49,2.69,1.47,5.46,3.06,8.44,3.84,2.71.71,5.82.53,8.41,1.62,4.37,1.83,7.9,7.36,10.92,10.87,1.5,1.75,2.89,3.45,5.08,4.36,3.26,1.36,7.76-.39,10.51,2.02l3.64-4.71c-3.5-2.08-6.1-4.67-8.45-7.98-1.21-1.7-2.78-4.75-4.62-5.79-.63-.95-1.63-1.14-2.98-.57.57.29,1.13.62,1.67.97.81.64,1.72,1.17,2.55,1.79.97.73,1.87,1.55,2.92,2.17,2.32,1.37,5.01,2.1,7.44,3.24,5.61,2.62,10.5,6.4,15.13,10.47,2.96,2.61,6.6-1.25,4.24-4.24-3.46-4.39-5.03-8.82-5.82-14.3l-4.41,3.39c7.15,4.02,16.58,5.82,20.29,13.92,1.4,3.04,5.27,1.05,5.59-1.51.71-5.64-.72-10.87-2.86-16.07l-4.41,3.39c4.21,1.89,7.79,5.8,8.31,10.54.39,3.64-.66,7.37.72,10.89.57,1.46,1.65,2.49,2.38,3.86,1.14,2.16,1.08,4.42.82,6.82-.47,4.32-1.62,8.5-1.57,12.87.04,3.86,6.04,3.87,6,0h0Z"/>
  </g>
  <g>
    <path class="cls-3" d="M184.6,96.49c4.16-13.5-4.14-21.22-4.14-21.22,1.78,4.56,1.74,10.01-.11,14.54-.59-2.84-2.2-5.39-4.36-6.94-1.76-1.26-3.81-1.85-5.76-2.67-3.81-1.6-7.31-4.15-10.19-7.42,1.79,4.26,3.57,8.51,5.36,12.77.71,1.68,1.43,3.55,1,5.35-5.41-6.11-12.26-10.53-19.62-12.68-2.48-.72-5.15-1.27-7.05-3.23-2.06-2.12-2.78-5.43-3.38-8.53-1.11,4.14-.4,8.69,1.17,12.63,1.57,3.94,8.09,7.38,10.44,10.77l-6.96-.39c-4.52.78-7.87-6.35-11.32-9.78-4.14-4.12-9.5-6.18-14.72-8.11-5.22-1.93-10.59-2.93-14.8-6.95s-15.6-8.3-14.02-14.3l-5.63,7.41s-12.11,13.42-12.11,28.24c0,7.32,5.62,25.09,6.83,36.15s-1.98,15.47-3.65,15.8c-2.05.41-13.49-9.69-13.99-16.38-.54-7.18-1.6-11.07-2.44-15.52-1.65-8.77-1.27-13.36-1.16-23.11s-4.67-17.86,9.14-37.41c8.81-12.47,20.12-11.14,24.44-16.13,9.98-11.53,60.87-11.72,86.59,3.8,8.6,5.19,25.81,21.96,26.03,32.89.44,21.06,3.43,17.18-.56,34.47-.2.88-.17,13.96-.5,14.8,0,0-1,10.81-6.79,16.11-2.12,1.94-6.71,7.26-7.01,6.76-2.49-4.09,1.11-23.24,1.09-27.11-.02-3.37-1.82-14.63-1.82-14.63Z"/>
    <path d="M186.05,96.88c1.64-5.47,1.69-11.3-.57-16.6-.93-2.18-2.22-4.44-3.96-6.08-1.01-.95-3.07-.03-2.51,1.46,1.68,4.46,1.64,9.31-.11,13.74h2.89c-.5-2.21-1.5-4.26-2.99-5.98-1.56-1.81-3.63-2.87-5.81-3.74-4.62-1.84-8.55-4.23-11.89-7.97-.95-1.06-3.09.06-2.51,1.46,1.24,2.96,2.49,5.93,3.73,8.89.6,1.42,1.21,2.84,1.79,4.27.53,1.3,1.11,2.73.84,4.16l2.51-.66c-4.56-5.1-10.18-9.18-16.52-11.76-1.47-.6-2.98-1.09-4.51-1.53-1.62-.46-3.32-.87-4.72-1.84-2.73-1.89-3.32-5.62-3.92-8.65-.29-1.47-2.54-1.38-2.89,0-.71,2.81-.72,5.67-.23,8.51.41,2.4,1.1,5.05,2.58,7.03,1.31,1.77,3,3.19,4.69,4.59s3.48,2.68,4.72,4.42l1.3-2.26-4.22-.23c-.78-.04-1.57-.12-2.35-.13-.6-.01-1.19.09-1.79-.06-2.2-.58-3.85-3.06-5.16-4.76-1.72-2.24-3.37-4.44-5.59-6.22-5.12-4.09-11.55-6.22-17.7-8.24-3.02-1-6.08-2.07-8.64-4.03-1.91-1.46-3.62-3.03-5.65-4.35-2.26-1.47-4.62-2.85-6.66-4.63-1.41-1.23-3.09-2.93-2.61-4.97.41-1.75-1.75-2.46-2.74-1.16l-4.86,6.4c-.24.32-.48.64-.72.95.03-.04.32-.38-.02,0-.69.77-1.32,1.61-1.94,2.43-5.54,7.29-9.97,16.19-10.37,25.48-.17,4.12.79,8.28,1.65,12.28,1.08,5.03,2.33,10.03,3.4,15.07s2.12,10.13,2.02,15.28c-.06,2.85-.44,7.03-2.51,8.88-.05.04-.11.16-.3.15.42,0,.55.09.18-.08,0,0-.26-.11-.54-.26-1.39-.76-2.62-1.82-3.79-2.88-2.91-2.65-5.92-5.87-7.39-9.59-.86-2.18-.75-4.65-1.05-6.95-.31-2.41-.74-4.81-1.22-7.19-1.01-4.99-1.85-9.93-1.98-15.03-.12-4.76.29-9.53.02-14.28-.17-2.96-.6-5.91-.63-8.88-.12-9.16,4.23-17.34,9.36-24.67,2.98-4.25,6.83-7.55,11.51-9.79,3.31-1.58,6.96-2.46,10.16-4.25,2.23-1.25,3.65-3.31,5.72-4.54,2.48-1.48,5.26-2.4,8.05-3.13,7.77-2.02,15.94-2.48,23.94-2.36,9.27.14,18.56,1.21,27.59,3.33,8.18,1.92,16.56,4.66,23.6,9.36,3.44,2.3,6.59,5.07,9.55,7.95,3.36,3.27,6.53,6.78,9.22,10.63,2.27,3.25,4.56,6.97,5.13,10.97.35,2.5.19,5.11.34,7.63.12,2.14.29,4.27.52,6.4.29,2.8.74,5.6.73,8.42,0,3.45-.68,6.86-1.41,10.22-.32,1.46-.68,2.85-.73,4.35-.06,1.59-.07,3.19-.1,4.78-.03,1.82-.06,3.64-.11,5.46-.02.65-.04,1.3-.07,1.94-.01.23-.03.46-.05.69-.03.52,0-.01-.02.17-.04.27-.07.53-.11.79-.05.39.03-.19-.04.29-.05.33-.1.67-.16,1-.31,1.79-.75,3.55-1.32,5.28-.7,2.13-1.64,4.18-2.93,6.02-1.14,1.61-2.71,2.9-4.07,4.32s-2.57,2.81-3.99,4.07c-.43.38-.16.04-.04.12l1.51.56c-.04-.08-.08-.16-.12-.24.01.19.03.05,0-.04-.19-.55-.3-1.15-.36-1.7-.44-3.79.05-7.76.45-11.53s.91-7.15,1.26-10.74c.3-3.01-.17-6.01-.57-9-.36-2.68-.75-5.35-1.17-8.02-.3-1.9-3.2-1.09-2.89.8.91,5.71,2.17,11.61,1.51,17.4-.46,4.03-1.02,8.04-1.38,12.08-.31,3.55-.77,7.48.11,10.98.36,1.42,1.3,3.11,3.01,2.1,1.48-.88,2.68-2.49,3.85-3.71,1.43-1.5,3.03-2.9,4.36-4.47,1.56-1.84,2.7-3.94,3.61-6.17,1.26-3.07,1.95-6.29,2.39-9.56.02-.16.09-.47-.02.19.04-.22.07-.44.1-.66.06-.53.08-1.07.1-1.61.07-1.74.1-3.48.13-5.21s.05-3.64.1-5.47c.01-.53.03-1.06.05-1.59,0-.15.02-.31.03-.47-.07.59,0,.1.06-.15.13-.5.23-1.01.34-1.52.82-3.72,1.61-7.54,1.67-11.37.04-2.86-.4-5.7-.7-8.53-.23-2.21-.41-4.43-.54-6.65-.15-2.71,0-5.5-.41-8.19-.61-4.13-2.78-7.98-5.1-11.38-2.78-4.08-6.06-7.84-9.58-11.3-3.11-3.07-6.44-5.99-10.04-8.48-3.38-2.34-7.14-4.14-10.94-5.69-8.85-3.61-18.31-5.64-27.78-6.81s-18.6-1.41-27.84-.49c-6.81.68-14.25,1.8-20.23,5.37-2.26,1.35-3.78,3.53-6.09,4.74-3.4,1.78-7.18,2.71-10.61,4.45-4.97,2.53-8.89,6.3-12.05,10.86s-6.04,9.52-7.8,14.84c-1.17,3.53-1.74,7.23-1.69,10.94.04,3.04.48,6.05.65,9.08.27,5.03-.18,10.08,0,15.11s1.15,10.3,2.18,15.4c.52,2.6.96,5.21,1.23,7.85.25,2.39.36,4.55,1.37,6.76,1.77,3.88,4.86,7.3,8.01,10.11,1.68,1.49,4.89,4.74,7.41,3.47s3.48-4.66,3.92-7.16c.93-5.2.23-10.53-.71-15.68s-2.26-10.57-3.46-15.83c-.99-4.34-2.15-8.76-2.45-13.22-.35-5.11,1.07-10.32,3.12-14.96,1.74-3.94,3.99-7.66,6.57-11.1.92-1.23,1.98-2.45,2.93-3.7l4.86-6.4-2.74-1.16c-1.17,4.92,3.62,8.35,7.16,10.73,2.04,1.37,4.2,2.59,6.15,4.1,1.09.84,2.04,1.82,3.15,2.63,1.4,1.02,2.94,1.82,4.53,2.5,6.3,2.68,13.1,4.05,18.97,7.75,2.69,1.7,4.76,3.86,6.67,6.37,1.63,2.14,3.25,4.45,5.54,5.93,1.15.74,2.49,1.17,3.86,1.07.47-.03.16-.04.65-.02.4.02.8.04,1.2.07l5.37.3c1.08.06,1.95-1.34,1.3-2.26-2.38-3.32-6.09-5.34-8.82-8.33-1.47-1.61-2.11-3.58-2.59-5.68-.63-2.72-.72-5.52-.04-8.23h-2.89c.64,3.24,1.39,6.74,3.77,9.19s6.05,3.01,9.23,4.09c6.76,2.29,12.7,6.52,17.44,11.82.72.81,2.3.43,2.51-.66.62-3.25-1.02-6.2-2.24-9.11-1.37-3.27-2.74-6.54-4.12-9.81l-2.51,1.46c3.01,3.36,6.68,6.07,10.86,7.81,2.03.85,4.27,1.47,5.95,2.97s2.64,3.45,3.12,5.59c.36,1.58,2.4,1.26,2.89,0,1.92-4.87,1.95-10.44.11-15.34l-2.51,1.46c1.42,1.33,2.45,3.07,3.3,5.02,2.05,4.7,1.91,9.9.46,14.74-.56,1.85,2.34,2.65,2.89.8Z"/>
  </g>
  <path d="M181.11,85.59c.22-1.87-.6-3.86-1.31-5.54-1.03-2.46-2.32-4.81-3.73-7.07-1.29-2.06-2.68-4.09-4.3-5.9-1.31-1.46-2.98-2.5-4.47-3.76-5.12-4.33-8.44-10.22-13.19-14.9-5.07-4.99-10.98-9.11-16.93-12.98-.81-.53-1.56.77-.76,1.3,8.41,5.48,16.32,11.43,22.42,19.46,1.83,2.41,3.68,4.78,5.9,6.85,1.44,1.35,3.02,2.5,4.56,3.73s2.84,3.04,3.99,4.71c1.67,2.41,3.17,4.95,4.44,7.59.91,1.9,2.13,4.32,1.88,6.51-.11.96,1.39.95,1.5,0h0Z"/>
  <path d="M182.34,76.23c-1.96-3.27-3.48-6.74-4.59-10.39-.76-2.49-1.28-5.05-2.05-7.53-1.54-4.99-4.75-9.63-8.38-13.32-6.66-6.77-15.36-10.46-24-13.98-3.02-1.23-6.73-2.43-8.98-4.92-.65-.72-1.71.35-1.06,1.06,1.93,2.13,4.85,3.29,7.43,4.39,3.83,1.62,7.73,3.09,11.49,4.89,9.27,4.45,18.15,11.37,21.76,21.38.95,2.63,1.44,5.41,2.24,8.08,1.16,3.89,2.76,7.61,4.85,11.1.5.83,1.79.07,1.3-.76h0Z"/>
  <path d="M186.88,121.44c2.69-3.55,5.22-7.21,5.55-11.77.13-1.81.19-3.61.53-5.4.6-3.23,1.49-6.39,2.03-9.63,1.03-6.2,1.63-12.57,1.55-18.87-.06-4.74-.73-9.46-2.3-13.95-2.34-6.67-6.37-12.55-10.86-17.95-.62-.74-1.67.32-1.06,1.06,4.03,4.85,7.72,10.14,10.02,16.05,1.71,4.4,2.54,9.03,2.68,13.74.17,5.89-.34,11.88-1.19,17.7-.78,5.3-2.51,10.45-2.81,15.8-.09,1.66-.2,3.26-.77,4.84-1,2.79-2.89,5.27-4.66,7.6-.58.77.72,1.52,1.3.76h0Z"/>
  <path d="M186.88,99.27c7.21-11.16,5.57-25.3.79-37.06-2.45-6.02-5.76-11.84-9.54-17.13-1.82-2.54-3.88-4.89-6.36-6.81-2.61-2.01-5.32-3.8-7.82-5.97-2.21-1.92-4.38-3.93-6.92-5.41-2.83-1.65-5.96-2.45-9.2-2.75-.96-.09-.95,1.41,0,1.5,2.98.28,5.85,1.04,8.44,2.55,2.14,1.25,4,2.88,5.86,4.5,2.1,1.83,4.22,3.63,6.52,5.21,2.61,1.79,4.9,3.74,6.9,6.22s3.72,5.35,5.4,8.13,3.11,5.41,4.39,8.26c2.58,5.74,4.41,11.92,4.87,18.21.5,6.94-.81,13.87-4.62,19.77-.53.81.77,1.57,1.3.76h0Z"/>
  <path d="M136.88,66.52c-.51-3.82-1.04-7.91-2.97-11.32-1.42-2.51-3.65-4.5-5.66-6.52-2.21-2.23-4.92-3.97-7.46-5.8-3.17-2.28-6.34-4.63-8.97-7.53-2.81-3.09-4.76-6.84-4.26-11.12.11-.96-1.39-.95-1.5,0-.9,7.69,5.37,13.45,10.92,17.69,5.12,3.91,10.66,7.32,14.63,12.52,2.6,3.41,3.21,7.95,3.76,12.08.13.94,1.63.96,1.5,0h0Z"/>
  <path d="M164.88,86.26c-3.12-4.87-6.41-9.68-10.27-14-1.86-2.08-3.97-3.93-5.81-6.02-2.59-2.93-3.85-6.79-5.54-10.26s-3.5-6.88-5.62-10.11c-1.71-2.6-3.6-5.4-5.96-7.46-1.99-1.73-4.26-3.12-6.29-4.81-2.68-2.24-4.82-4.89-6.2-8.11-.38-.88-1.67-.12-1.3.76,2.26,5.27,6.47,8.52,10.94,11.82,5.33,3.94,8.81,10.2,11.8,15.99,1.55,3,2.86,6.12,4.36,9.14.57,1.15,1.24,2.23,2.03,3.24,1.58,2.01,3.56,3.69,5.31,5.55,4.31,4.56,7.89,9.76,11.26,15.03.52.81,1.82.06,1.3-.76h0Z"/>
  <path d="M86.31,48.7c-.84-2.26-1.65-4.43-1.61-6.88.07-4.68,2.77-8.81,5.8-12.17.64-.72-.41-1.78-1.06-1.06-3.22,3.57-6.01,7.9-6.23,12.85-.12,2.73.72,5.16,1.65,7.67.33.9,1.78.51,1.45-.4h0Z"/>
  <path d="M79.07,48.36c-3.19,4.06-7.3,7.48-9.73,12.1-2.62,4.98-4.25,10.81-4.96,16.38-.77,6.03-1.23,12.37-.41,18.41.36,2.64.68,6.12,2.37,8.34.6.78,1.3,1.47,1.88,2.27,1.45,2.01,2.57,4.26,3.64,6.49.42.87,1.71.11,1.3-.76-1.41-2.94-2.93-5.82-5.1-8.28-1.38-1.57-1.74-3.5-2.14-5.52-1.17-5.87-.86-11.76-.36-17.68s1.9-11.49,4.19-16.96,6.81-9.17,10.38-13.72c.59-.75-.47-1.82-1.06-1.06h0Z"/>
  <path d="M77.55,40.38c-1.96,6.21-9.12,8.13-12.17,13.62-1.43,2.57-2.06,5.62-2.72,8.45s-1.22,5.87-2.19,8.69c-1.54,4.47-2.94,8.95-3.37,13.68-.48,5.19.29,10.41,2.15,15.28,2.99,7.78,8.3,14.45,14.07,20.37.67.69,1.73-.37,1.06-1.06-8.8-9.04-16.64-20.27-15.87-33.45.28-4.68,1.56-9.22,3.12-13.61,1.93-5.47,2.25-11.54,4.67-16.83,1.41-3.09,4.16-5.1,6.76-7.13s4.91-4.33,5.94-7.61c.29-.92-1.16-1.32-1.45-.4h0Z"/>
  <path d="M144.69,89.13v.04c.12-.22.24-.43.37-.65.66-.49.45.15.25-.14-.03-.05-.29-.16-.31-.17-.32-.18-.64-.39-.95-.59-.68-.45-1.36-.91-2-1.41-2.14-1.63-3.69-3.69-5.38-5.76-1.92-2.34-3.51-4.91-4.61-7.74s-1.71-5.5-2.78-8.18-2.25-5.11-3.98-7.29c-1.61-2.03-3.67-3.66-5.82-5.07s-4.49-2.67-6.81-3.84c-2.56-1.28-5.42-2.35-7.61-4.24-3.49-3.01-5.95-8.04-5.42-12.67.11-.96-1.39-.95-1.5,0-.54,4.78,1.83,9.49,5.02,12.91,1.6,1.72,3.73,2.84,5.81,3.87,2.73,1.34,5.46,2.66,8.07,4.22s4.94,3.2,6.84,5.44c2.21,2.61,3.6,5.93,4.72,9.12,1,2.87,1.73,5.81,3.07,8.55s3.19,5.02,5.08,7.38c1.7,2.13,3.5,3.89,5.73,5.43.62.43,3.51,2.77,3.71.77.1-.96-1.4-.95-1.5,0h0Z"/>
  <path d="M120.65,71.96c-2.19-3.16-4.52-6.09-7.62-8.4-3.37-2.49-6.84-4.71-9.98-7.5-5.46-4.86-11.45-11.11-11.06-18.98.05-.96-1.45-.96-1.5,0-.39,7.76,5.06,14.14,10.44,19.08,3.01,2.77,6.21,5.12,9.57,7.43,1.86,1.28,3.64,2.61,5.15,4.29,1.35,1.51,2.56,3.15,3.71,4.82.55.79,1.85.04,1.3-.76h0Z"/>
  <path d="M160.96,72.64c-.3-1.86-1.32-3.47-2.46-4.93-1.24-1.59-2.57-3.15-3.94-4.63-1.54-1.67-3.09-3.28-4.42-5.14s-2.48-3.67-3.84-5.42c-.59-.76-1.65.31-1.06,1.06,1.32,1.7,2.46,3.52,3.71,5.26s2.61,3.24,4.05,4.77c1.3,1.38,2.53,2.85,3.74,4.3s2.44,3.15,2.77,5.13c.16.95,1.6.55,1.45-.4h0Z"/>
  <path d="M75.25,130.28c-2.13-2.71-4.87-4.76-7.39-7.07-2.66-2.44-4.99-5.37-6.91-8.44-1.21-1.93-2.35-3.97-3.42-5.98-.57-1.07-1.11-2.17-1.5-3.32-.26-.78-.66-1.89-.17-2.65.52-.82-.78-1.57-1.3-.76-1.1,1.73.1,4.22.85,5.85,1.04,2.24,2.35,4.35,3.56,6.49,1.86,3.29,4.33,6.52,7.05,9.15s5.82,4.81,8.16,7.8c.6.76,1.65-.31,1.06-1.06h0Z"/>
  <path d="M73.15,134.64c-3.71-5.27-10.94-7.06-13.75-13.08-.41-.87-1.7-.11-1.3.76,1.39,2.99,3.92,5.1,6.55,6.97s5.36,3.5,7.19,6.11c.55.78,1.85.03,1.3-.76h0Z"/>
  <path d="M186.54,127.35c3.57-3.49,6.65-7.31,8.85-11.81,1.09-2.22,2.23-4.49,2.99-6.85.7-2.16,1.1-4.44,2.46-6.32.57-.78-.73-1.53-1.3-.76-1.2,1.66-1.72,3.64-2.28,5.59-.72,2.48-1.84,4.83-2.97,7.15-2.21,4.57-5.2,8.4-8.82,11.94-.69.68.37,1.74,1.06,1.06h0Z"/>
  <g class="cls-1">
    <path class="cls-2" d="M190.55,134.35c3.65-3.49,6.95-9.19,8.4-14.02,2.4-7.97.17-15.84,1.57-23.86s.85-16.23.24-24.31c-.55-7.39-2.35-14.23-6.55-20.43-8.73-12.89-21.96-21.89-36.5-26.85-7.96-2.72-16.5-2.55-24.79-3.25-7.51-.64-15.34-1.41-22.87-1.39s-15.72,3.39-21.03,8.38c-4.36,4.1-4.16,9.73-7.31,14.38l8.39,2.27c.29-3.81.93-8.81-2.14-11.7v6.36l.05.24-2.39-8.68c-6.48,2.28-11.99,4.01-17.32,8.59-4.6,3.96-8.37,9.26-11.67,14.33-3,4.62-4.69,9.93-4.91,15.44-.2,5.04,1.39,10.04,1.23,14.98-.05,1.48-.8,2.92-.89,4.41-.1,1.61.26,3.19.41,4.78.27,2.94.18,5.91.48,8.85.49,4.79,3.13,8.89,3.98,13.66,1.53,8.56,5.57,13.32,10.32,20.46,3.19,4.8,10.99.3,7.77-4.54-3.46-5.2-7.82-9.91-8.93-15.45-1.85-9.29-6.2-18.23-4.85-28.01.59-4.31.07-7.72-.29-12.04-.39-4.77-.55-9.53,1.33-14.02,2.04-4.88,5.81-9.71,9.36-13.57,4.76-5.15,9.97-6.96,16.37-9.21,5.52-1.94,3.29-9.66-2.39-8.68-1.74.3-2.68.97-4.02,2.07-1.84,1.51-1.64,4.82,0,6.36-.76-.72-.28,1.55-.3,2.28-.03,1.02-.12,2.04-.2,3.06-.37,4.79,6.09,5.66,8.39,2.27,3.17-4.68,2.63-10.59,7.74-13.92,2.71-1.77,6.32-3.52,9.49-4.16,4.14-.83,8.63.2,12.78.46,17.13,1.09,37.31-.26,51.58,11.19,6.14,4.93,12.69,10.43,16.72,17.3,4.32,7.35,4.21,15.97,4.52,24.25.2,5.17-.42,9.8-1.21,14.88-.6,3.85-.05,7.56.19,11.4.42,6.66-2.17,14.33-7.12,19.06-4.2,4.01,2.17,10.37,6.36,6.36h0Z"/>
  </g>
</svg>