<?xml version="1.0" encoding="UTF-8"?>
<svg id="Layer_19" data-name="Layer 19" xmlns="http://www.w3.org/2000/svg" viewBox="0 0 256 256">
  <defs>
    <style>
      .cls-1 {
        fill: #fff;
      }

      .cls-2 {
        opacity: .2;
      }

      .cls-3 {
        fill: #435054;
      }
    </style>
  </defs>
  <g class="cls-2">
    <path class="cls-3" d="M194.06,123.2c-1.65-4.05-5.71-8.1-4.21-12.58,1.3-3.89,3.11-7.04.51-10.99-1.03-1.56-2.64-2.37-3.85-3.72-2.23-2.48-2.17-6.63-2.31-9.86-.18-4.38.59-8.81.44-13.26-.07-2.17-2.53-3.87-4.51-2.59-7.03,4.54-14.46,8.71-20.94,14.01-4.12,3.37-7.55,2.67-12.47,3.28-4.34.54-8.28,2.29-12.73,2.26l2.89,3.8c.36-1.76,1.14-2.69,2.08-4.15,1.7-2.63-1.59-5.46-4.1-4.1-3.33,1.79-5.43,4.98-8.81,6.76-3.67,1.92-7.79,3.02-11.84,3.77-9.41,1.75-19.11,1.07-27.65-3.42l-2.31,5.48c8.06,1.57,14.2-5.15,20.67-8.75,2.9-1.61.94-6.69-2.31-5.48-7.77,2.88-15.96,3.39-23.53,6.95-3.32,1.56-5.05,3.5-7.75,5.86-1.79,1.56-4.47,2-5.91,3.94-1.58,2.14-2.24,6.45-2.48,8.97-.27,2.79.66,3.43,1.6,5.66,1.08,2.6-1.22,4.04-1.58,6.72-.4,3.02,1.31,5.73,2.84,8.2,2.03,3.27,7.23.26,5.18-3.03-.58-.93-2.25-3.12-2.12-4.36.1-.99,1.48-2.17,1.9-3.01.72-1.42,1.12-2.93.74-4.52-.41-1.74-2.3-2.82-2.7-4.3-.31-1.15.67-4.17,1.11-5.18.72-1.63.1-.91,1.54-1.99,4.33-3.25,8.18-6.9,13.36-8.94,6.26-2.48,13.09-2.85,19.41-5.19l-2.31-5.48c-4.37,2.43-10.68,9.2-16.04,8.15-3.16-.62-5.5,3.81-2.31,5.48,9.19,4.84,19.2,5.92,29.44,4.49,4.57-.64,9.11-1.75,13.36-3.56,2.32-.99,4.55-2.14,6.52-3.72,1.75-1.41,3.03-3.23,5.04-4.31l-4.1-4.1c-1.22,1.88-2.23,3.38-2.68,5.58-.39,1.9.85,3.78,2.89,3.8,4.58.03,8.69-1.57,13.14-2.22s8.38.23,12.33-2.08c3.59-2.1,6.62-5.11,10.17-7.34,4.55-2.85,9.03-5.81,13.54-8.73l-4.51-2.59c.29,8.48-3.13,20.69,3.63,27.37,2.28,2.26,3.92,3.2,2.7,6.86-.72,2.18-2.17,3.85-2.12,6.3.08,4.14,3.92,7.78,5.43,11.48s7.24,1.98,5.79-1.6h0Z"/>
  </g>
  <g>
    <path class="cls-1" d="M185.13,64.52c-1.42,7.9-12.75,12.9-19.4,14.98-4.43,1.39-7.76,7.38-12.35,8.35-5.94,1.25-11.75.44-17.18,2.84,1.64-2.68,5.13-5.5,5.91-8.47-3.34.02-5.89,3.49-8.42,5.22-4.91,3.35-9.48,5.67-15.3,7.07-5.35,1.29-10.97,1.47-16.45,1.66-3.28.12-10.29-.97-13.52-.78,2.41-1.23,8.84-2.7,11.22-4.03,3.83-2.13,5.91-5.28,8.83-8.36-5.51,4.46-14.08,3.63-20.68,5.87-7.73,2.63-15.42,5.13-20.16,12.24-3.32,4.98-5.44,12.67,1.28,16.42-2.34-.58-2.83,1.7-3.05,3.46-.44,3.63,1.65,4.39,2.89,7.21.76,1.72.78,3.54-.46,4.73-1.77,1.7-2.68.17-2.88,2.66-.25,3.1,2.57,5.83,1.12,8.74-.41.82-1.4,1.79-2.18,2.24-1.46.84-.99.86-2.14-.05-1.83-1.46-1.85-4.13-3.68-5.69-5.04-4.28-10.67-8.2-12.9-14.7,1.01-.08,3.44.88,4.38-.08,1.24-1.26-4.27-7.75-4.16-9.37.17-2.42,4.41,2.06,5.57.57.92-1.17.01-3.28-.41-4.61-.87-2.77-2.21-5.27-2.61-8.17-.36-2.61-.83-5-1.4-7.53-.63-2.84-.07-7.74,1.33-10.35.69.45,1.32,1.05,1.98,1.59.44-9.13,4.39-18.12,8.34-26.29,2.38-4.93,4.82-8.44,8.66-12.34,4.26-4.32,6.06-9.33,10.63-13.29,5.98-5.18,14.09-5.88,21.45-8.81,10-3.99,19.84-3.52,27.27-3.49,6.66.02,7.98,3.17,14.47,1.83,7.53-1.56,9.22.54,15.96,2.33,5.36,1.42,10.92-2.77,18.68,5.21,1.01,1.04,5.7-.13,7.09.39,9.25,3.42,5.51,7.44,7.11,7.53,2.34.14,3.62,1.37,4.74,3.49.64-.4,2.52-.68,3.32-.69,2.31-.02,2.91,1.72,3.79,3.79,1.06,2.51,1.95,3.16.49,5.65,1.13-.13,3.76,1.86,4.93,1.56.69,2.26-1.13,2.36-1.5,4.61-.51,3.08.5,1.09,2.34,2.99,1.25,1.29-2.1,7.37-1.73,9.02.43,1.92,3.99.39,4.6,2.31,1.9,5.95-1.57,10.64-1.9,16.43-.21,3.78.1,6.42-1.75,9.85s-.81,6.4-1.97,10.3c1.15-1.3,5.09-2.53,5.9-4.08.17,4.9-4.78,9.68-5.03,14.55.35-.14,3.94.32,4.36.09-1.08,3.29-5.97,5.38-7.53,8.37-1.13,2.16-1.14,4.78-2.08,7.1-1.1,2.73-3.64,5.35-5.54,7.52-1.58,1.8-3.78,3.2-6.27,2.88.02-1.81,1.18-3.47,1.8-5.14.84-2.26,1.06-4.63,1.28-7.01s.03-4.98-.71-7.35c-.63-2.02-2.36-4.11-2.36-6.2,0-1.05.93-2.25.85-3.5-.11-1.58-1.26-2.54-1.56-4-.61-3.05,2.91-5.64,2.63-8.73-.2-2.21-2.8-5.78-4.38-7.27-1.08-1.02-1.8-.53-2.45-2.21-.42-1.06-.27-2.47-.22-3.61.15-3.24.6-9.57-2.05-14.3-.17.45,3.16-13.14,3.16-13.14Z"/>
    <path d="M183.68,64.13c-1.29,6.58-8.88,10.35-14.52,12.58-1.41.56-2.86.97-4.27,1.51-1.67.63-3.09,1.69-4.43,2.84s-2.66,2.5-4.1,3.62c-1.55,1.19-3.07,1.74-4.99,2.03-5.4.84-10.82.52-15.94,2.7l2.05,2.05c1.92-3.02,5.02-5.28,6.06-8.83.27-.91-.48-1.94-1.45-1.9-3.7.15-5.98,2.97-8.69,5.07-2.98,2.3-6.52,4.22-10.02,5.59-4.07,1.59-8.36,2.44-12.7,2.83-3.81.34-7.72.63-11.55.38-3.55-.24-7.15-.87-10.72-.7l.76,2.8c3.25-1.6,6.95-2.13,10.27-3.57,4.26-1.85,7-5.76,10.08-9.05,1.36-1.45-.64-3.29-2.12-2.12-3.7,2.9-8.79,3.31-13.27,4s-9.02,2.12-13.38,3.84c-7.98,3.15-15.88,8.82-17.52,17.83-.84,4.61.77,8.81,4.9,11.2l1.16-2.74c-4.7-.92-5.89,5.26-4.43,8.6.75,1.71,2.26,3,2.76,4.83.27.98.18,2.03-.75,2.62-.53.33-1.17.34-1.71.67-1.77,1.09-1.36,3.96-.88,5.61.57,1.95,2,4.18.36,5.97-.37.4-.77.7-1.23.98-.07.04-.67.37-.66.4-.1-.27,1.37.68.79-.09-.29-.39-.75-.64-1.04-1.07-.35-.52-.59-1.1-.84-1.66-.43-.96-.87-1.89-1.58-2.69-.78-.88-1.8-1.59-2.71-2.34-4.12-3.41-8.46-7-10.31-12.2l-1.45,1.9c1.8-.03,3.94,1.04,5.44-.52,1.01-1.05.57-2.52.05-3.68-.63-1.42-1.5-2.73-2.31-4.05-.38-.61-.76-1.23-1.1-1.87-.04-.08-.27-.53-.25-.49-.24-.49.01-.34-.16-.19-.2.17-.68.92-.97.59.04.04.28.06.32.09.18.12.45.2.65.3.68.34,1.34.71,2.05.97,1.62.59,3.27.1,3.8-1.69.61-2.08-.55-4.57-1.27-6.49-.98-2.64-1.81-5.1-2.25-7.9s-1.37-5.52-1.4-8.3c-.03-2.35.3-4.94,1.38-7.06l-2.05.54c.59.41,1.12.9,1.68,1.35,1.01.83,2.49.3,2.56-1.06.44-7.95,3.43-15.51,6.76-22.64,1.47-3.14,2.97-6.27,4.94-9.14s4.55-5.18,6.72-7.89,3.88-5.78,6.1-8.45,5.04-4.74,8.28-6.15,6.48-2.21,9.76-3.18c3.61-1.07,7.06-2.61,10.7-3.55,6.85-1.78,13.87-1.76,20.9-1.72,2.91.02,5.36.73,8.12,1.54,3.05.89,5.74.48,8.81-.01,2.82-.45,5.4-.14,8.09.76s5.25,2,8.03,2.18c2.12.13,4.25-.23,6.37-.16,2.78.1,5.3,1.15,7.45,2.9,1.1.9,1.96,2.19,3.41,2.48,1.15.24,2.35.11,3.51.03,1.09-.08,2.13-.24,3.15.15,1.3.5,2.67,1.16,3.73,2.09.55.48,1.01,1.09,1.18,1.63.04.14.08.28.11.42.06.27,0-.17.03.18.02.23.02.47.03.7.03.52.06,1.04.34,1.49.59.94,1.5.78,2.43,1.04,1.32.36,2.04,1.47,2.66,2.61.4.73,1.35.91,2.05.54s1.78-.51,2.57-.49c.95.02,1.34.56,1.75,1.37.52,1.01.93,2.08,1.4,3.11s.42,1.65-.17,2.7c-.54.97.13,2.28,1.3,2.26.78-.02,1.7.65,2.4.96.98.43,1.86.71,2.93.55l-1.85-1.05c.22.85-.28,1.19-.72,1.88-.63.99-.93,2.17-.97,3.34-.02.71.12,1.41.65,1.91.5.46,1.07.42,1.64.67.13.06.24.18.37.24l.25.24c-.18-.37-.23-.43-.15-.17.04-.03,0,.15-.02.32-.08.84-.4,1.7-.67,2.5-.51,1.55-1.34,3.23-1.36,4.9-.03,1.9,1.46,2.79,3.16,3.01.41.05,1.22-.01,1.57.23-.21-.14.15.56.19.73.07.27.13.55.17.83.11.72.13,1.46.09,2.2-.12,2.54-1.02,4.96-1.64,7.4s-.81,5.02-.92,7.61c-.05,1.34-.15,2.67-.51,3.97-.41,1.48-1.28,2.75-1.75,4.2-.92,2.82-.5,5.88-1.3,8.73-.4,1.43,1.46,2.54,2.51,1.46,1.76-1.83,4.74-2.08,6.13-4.39l-2.8-.76c.02,2.61-1.35,4.96-2.51,7.22s-2.32,4.68-2.51,7.33c-.07,1.02,1.01,1.65,1.9,1.45-.51.12.41.04.6.05.48.03.95.07,1.43.1.72.05,1.63.19,2.34-.06l-1.85-1.85c-.8,2.21-3.32,3.66-4.98,5.16-2.14,1.93-3.1,4.11-3.7,6.9-.32,1.48-.63,2.95-1.37,4.29-.78,1.41-1.8,2.67-2.85,3.88-1.9,2.19-3.83,4.84-7.06,4.54l1.5,1.5c.08-1.44.89-2.7,1.44-4s.94-2.76,1.17-4.21c.48-2.97.76-5.99.31-8.98-.21-1.44-.58-2.83-1.19-4.15-.55-1.2-1.35-2.36-1.64-3.66-.27-1.2.54-2.26.7-3.44.18-1.3-.25-2.44-.86-3.58-.54-1.01-.9-1.8-.53-2.94.32-1.02.94-1.93,1.42-2.88,1.02-2.01,1.45-4,.59-6.15s-2.21-4.07-3.76-5.73c-.65-.7-1.39-1.07-2.15-1.61-.99-.69-.72-2.24-.67-3.32.26-5.24.33-10.69-2.23-15.45-.5-.93-2.11-1.02-2.59,0h0c.79-.09,1.57-.19,2.36-.29h0c.15.35.29.71.44,1.06-.06.81.05-.09.1-.31.12-.51.24-1.02.36-1.52.36-1.51.73-3.03,1.1-4.54.52-2.13,1.04-4.25,1.56-6.38.46-1.87-2.43-2.67-2.89-.8-.58,2.36-1.16,4.73-1.73,7.09-.36,1.5-.73,3.01-1.09,4.51-.2.84-.79,2.34.04,3,.68.54,1.91.66,2.36-.3h0c-.86-.01-1.73-.01-2.59-.01,2.19,4.06,2.07,8.83,1.85,13.31-.11,2.32-.25,5.12,2.02,6.49.72.43,1.27.77,1.84,1.41.79.89,1.49,1.86,2.09,2.88.45.76.96,1.64,1.09,2.54.15,1.02-.38,2.02-.84,2.89-1,1.91-2.17,3.83-1.76,6.08.21,1.16.93,2.03,1.35,3.1.48,1.21-.37,2.27-.59,3.44-.51,2.69,1.53,4.92,2.33,7.31,1.06,3.18.82,6.62.34,9.88-.24,1.62-.65,3.19-1.34,4.67s-1.32,2.89-1.42,4.55c-.05.86.73,1.43,1.5,1.5,3.44.32,5.96-1.78,8.1-4.19,2.31-2.6,4.67-5.26,5.61-8.69.45-1.64.6-3.42,1.29-4.99.53-1.2,1.5-2.09,2.48-2.94,2.09-1.82,4.41-3.46,5.38-6.16.38-1.04-.81-2.22-1.85-1.85-.24.09.38,0-.11.01-.18,0-.36,0-.53,0-.48-.01-.96-.05-1.44-.08-.75-.05-1.54-.17-2.28,0l1.9,1.45c.19-2.59,1.67-4.93,2.82-7.19s2.24-4.72,2.21-7.35c-.01-1.49-2.03-2.03-2.8-.76-.52.87-1.86,1.37-2.71,1.83-1.03.56-2.13,1.1-2.95,1.95l2.51,1.46c.73-2.62.45-5.35,1.08-7.97.31-1.31,1.03-2.43,1.52-3.68s.76-2.52.91-3.85c.29-2.56.09-5.14.64-7.67s1.44-4.9,1.84-7.42c.37-2.29.59-5.5-.72-7.55-.88-1.38-2.88-1.53-4.35-1.66.26.02-.02.44.14,0,.05-.14.1-.45.16-.68.24-.9.56-1.78.86-2.66.51-1.49,1.27-3.32.94-4.93-.2-.95-.84-1.63-1.66-2.13-.38-.24-.85-.45-1.3-.53-.04,0-.23-.07-.29-.06-.51.1.76.43.56.71.23-.32.13-1.27.35-1.7s.54-.77.8-1.17c.67-1.06.75-2.16.44-3.37-.22-.85-1.05-1.16-1.85-1.05.35-.05,0-.03-.18-.1-.16-.06-.32-.11-.48-.17-.46-.18-.91-.42-1.36-.62-.8-.36-1.61-.74-2.51-.72l1.3,2.26c.87-1.57,1.25-3.08.58-4.79-.6-1.52-1.25-3.21-2.11-4.59-1.72-2.77-5.43-2.84-8.13-1.43l2.05.54c-.7-1.28-1.57-2.5-2.82-3.29-.59-.37-1.27-.64-1.95-.78-.35-.07-.73-.15-1.09-.15-.45,0,.08-.02.2.07.24.17.46.34.6.61.02.04.03.4.04,0,0-.22,0-.45-.02-.68-.06-.82-.22-1.57-.57-2.31-1.03-2.22-3.35-3.59-5.5-4.53-1.33-.58-2.4-.9-3.85-.83-1.22.05-2.46.25-3.69.17-.61-.04-.5.02-.87-.35-.73-.72-1.5-1.39-2.32-2.01-1.26-.96-2.63-1.73-4.11-2.29-2.38-.89-4.91-.95-7.42-.8-1.08.06-2.16.15-3.24.11-1.35-.05-2.61-.44-3.89-.84-2.65-.83-5.2-1.92-7.97-2.25-1.6-.19-3.19-.08-4.78.15-1.72.24-3.38.69-5.13.62-2.57-.12-4.93-1.39-7.45-1.83-3.25-.57-6.69-.38-9.98-.34-3.67.04-7.33.26-10.95.82-4.1.64-7.88,1.93-11.77,3.32-3.38,1.21-6.88,2.04-10.28,3.17s-6.57,2.51-9.35,4.68-5.02,5.23-7.06,8.25c-1.01,1.49-2.02,2.99-3.19,4.36s-2.51,2.64-3.7,4.02c-2.25,2.62-4.17,5.49-5.76,8.55-3.69,7.12-7.1,14.79-8.59,22.71-.36,1.93-.6,3.89-.71,5.86l2.56-1.06c-.75-.62-1.48-1.26-2.29-1.82-.64-.45-1.7-.14-2.05.54-1.93,3.76-2.17,8.33-1.29,12.4.55,2.55.84,5.16,1.39,7.71s1.67,4.83,2.47,7.25c.16.5.34.99.48,1.5.11.38.06,1.04.22,1.37.25.54-.25.05.13.09,1.17.13.16-.15.19-.09.01.02-.37-.12-.52-.19-1.19-.48-2.32-1.44-3.66-1.42-1.56.01-2.35,1.57-2.02,2.96.29,1.2,1.07,2.33,1.71,3.37.82,1.34,1.82,2.69,2.38,4.17.05.14.08.29.14.42.07.18,0,.11.02.11-.11,0,.32-.34.26-.5-.04-.09-.23.03-.32-.01-.34-.15-1.09-.12-1.47-.18-.5-.08-1.01-.18-1.53-.17-.91.02-1.78.95-1.45,1.9,1.7,4.78,5.08,8.43,8.87,11.68.97.83,1.96,1.64,2.95,2.46s1.9,1.47,2.49,2.56c1.03,1.92,1.68,3.99,3.68,5.17,1.75,1.03,4.08-1.18,5.07-2.45,1.53-1.96,1.35-4.26.57-6.49-.35-1.02-.83-2.08-.91-3.17-.02-.23-.02-.48,0-.71.01-.09,0-.87-.03-.33-.01.19-.55.08-.14.12.12.01.42-.1.53-.14,2.25-.73,3.67-2.84,3.49-5.2-.19-2.56-1.87-4.13-3-6.25-.43-.81-.94-5.14.75-4.81s2.7-1.85,1.16-2.74c-7.35-4.25-2.12-13.93,2.52-18.11,3.18-2.86,7.16-4.65,11.14-6.11,2.06-.76,4.14-1.54,6.25-2.11s4.2-.88,6.31-1.2c4.84-.73,9.69-1.53,13.64-4.63l-2.12-2.12c-2.91,3.11-5.52,7-9.62,8.63-3.32,1.32-6.92,1.94-10.13,3.52-1.33.66-.7,2.86.76,2.8,3.12-.15,6.28.34,9.39.6,3.66.3,7.32.12,10.99-.13,4.42-.3,8.84-.9,13.07-2.26,3.68-1.18,7.17-2.9,10.44-4.96,1.77-1.12,3.39-2.34,4.96-3.72,1.37-1.21,2.92-2.62,4.84-2.7l-1.45-1.9c-.93,3.17-4.03,5.38-5.76,8.11-.89,1.4.8,2.58,2.05,2.05,4.64-1.97,9.87-1.62,14.77-2.33,2.02-.29,3.82-.78,5.52-1.93,1.61-1.1,3.01-2.46,4.45-3.76,1.28-1.16,2.64-2.37,4.29-2.96,1.47-.53,2.96-.99,4.41-1.58,3.35-1.35,6.62-2.97,9.51-5.16,3.1-2.35,5.91-5.41,6.68-9.34.37-1.89-2.52-2.69-2.89-.8Z"/>
  </g>
  <path d="M186.42,47.13c-.79,1.86-2.6,2.99-4.06,4.29s-3.05,2.74-4.47,4.17-2.53,3-3.24,4.91c-.81,2.18-1.37,4.26-2.93,6.07-2.89,3.33-7.02,4.53-11,6-1.69.62-3.25,1.45-4.61,2.65-1.25,1.11-2.12,2.55-3.08,3.9-1.33,1.88-2.57,3.09-4.82,3.83s-4.64,1.07-6.74,2.25c-.84.47-.09,1.77.76,1.3,3.52-1.97,8.09-1.58,10.83-4.93,1.07-1.32,1.94-2.78,2.99-4.11,1.25-1.6,3.03-2.68,4.91-3.39,3.79-1.43,7.7-2.52,10.76-5.35,1.56-1.44,2.72-3.16,3.46-5.15.82-2.2,1.38-4.28,2.98-6.08s3.34-3.23,5.03-4.8,3.66-2.72,4.54-4.81c.37-.88-.92-1.64-1.3-.76h0Z"/>
  <path d="M142.49,82.47c.98-1.64,1.79-3.37,2.85-4.95,1.19-1.79,2.76-3.08,4.57-4.21,3.32-2.07,6.81-3.7,9.63-6.49s4.94-6.14,6.96-9.5c1-1.66,2.06-3.25,3.46-4.6s2.91-2.29,4.27-3.57c3.02-2.83,5.07-6.45,7.29-9.9.52-.81-.77-1.57-1.3-.76-2.01,3.13-3.86,6.42-6.5,9.06-1.32,1.32-2.88,2.34-4.27,3.58-1.31,1.18-2.43,2.55-3.39,4.03-2.23,3.44-4.16,7-7.01,10s-6.43,4.69-9.9,6.85c-1.79,1.12-3.4,2.4-4.66,4.11s-2.18,3.74-3.29,5.59c-.5.83.8,1.59,1.3.76h0Z"/>
  <path d="M190.44,57.29c-.75,3.58-.6,7.07.12,10.63.23,1.12.43,2.08.25,3.23-.25,1.68-.61,3.4-1.31,4.95-.75,1.66-1.91,2.64-3.33,3.71s-2.04,2.37-2.25,4.12c-.11.96,1.39.95,1.5,0,.2-1.65,1-2.44,2.27-3.38,1.56-1.15,2.66-2.54,3.39-4.35,1.01-2.52,1.61-5.32,1.07-7.99-.71-3.55-1.02-6.93-.26-10.52.2-.94-1.25-1.34-1.45-.4h0Z"/>
  <path d="M186.04,96.28c-.13-6.01,6.49-8.65,9.64-12.76,1.82-2.36,2.29-5.01,2.84-7.86.67-3.46,1.72-6.83,3.16-10.04.39-.87-.9-1.64-1.3-.76-1.43,3.2-2.52,6.52-3.22,9.96s-1.1,6.25-3.51,8.77c-3.59,3.75-9.24,6.73-9.12,12.69.02.96,1.52.97,1.5,0h0Z"/>
  <path d="M188.6,102.42c1.42-2.55,3.14-5.1,5.62-6.73,1.15-.76,2.47-1.22,3.56-2.07.94-.73,1.66-1.71,2.27-2.72,2.61-4.29,3.41-9.4,4.8-14.15.27-.93-1.18-1.32-1.45-.4-1.38,4.72-2.14,9.88-4.83,14.08-.76,1.18-1.63,2.06-2.87,2.73-1.17.63-2.33,1.22-3.37,2.06-2.14,1.74-3.72,4.05-5.04,6.44-.47.84.83,1.6,1.3.76h0Z"/>
  <path d="M206.07,85.44c-.5,2.99-1.81,5.67-3.86,7.91s-4.44,3.46-6.7,5.25c-4.41,3.48-5.67,8.96-5.87,14.31-.04.97,1.46.96,1.5,0,.11-2.8.44-5.67,1.57-8.26s3.13-4.54,5.57-6.13c4.6-2.99,8.32-7.12,9.24-12.68.16-.94-1.29-1.35-1.45-.4h0Z"/>
  <path d="M205.93,97.9c-2.51,4.69-7.25,7.28-10.77,11.09-1.75,1.89-2.73,3.88-3.04,6.45-.34,2.78-.18,5.58-1.93,7.95-.57.78.73,1.53,1.3.76,1.58-2.13,1.79-4.65,1.99-7.21.1-1.31.23-2.63.7-3.87.52-1.39,1.53-2.51,2.56-3.56,3.56-3.62,8.03-6.27,10.49-10.86.46-.85-.84-1.61-1.3-.76h0Z"/>
  <path d="M204.05,110.16c-3.91,4.9-9.97,8.53-10.42,15.38-.06.96,1.44.96,1.5,0,.41-6.29,6.39-9.82,9.98-14.32.6-.75-.46-1.82-1.06-1.06h0Z"/>
  <path d="M205.82,117.03c-3.79,4.15-9,7.2-10.6,12.91-.62,2.22-1,4.5-1.67,6.7-.59,1.96-1.47,4.49-3.58,5.25-.9.32-.51,1.77.4,1.45,4.34-1.56,4.98-7.59,5.9-11.43.63-2.63,1.56-4.79,3.39-6.85,2.23-2.5,4.96-4.49,7.22-6.96.65-.71-.41-1.78-1.06-1.06h0Z"/>
  <path d="M201.32,51.52c-1.9,1.12-3.27,2.51-3.83,4.68-.32,1.22-.47,2.48-.67,3.72-.33,2.07-.73,4.13-1.21,6.18-.22.94,1.22,1.34,1.45.4.46-1.94.84-3.89,1.16-5.85.2-1.25.36-2.51.65-3.74.2-.84.44-1.63.98-2.32.56-.73,1.43-1.3,2.24-1.77s.08-1.79-.76-1.3h0Z"/>
  <path d="M174.89,33.39c-4,6.05-12.18,6.57-17.75,10.55-1.29.92-2.44,2.02-3.32,3.34-1.13,1.68-1.58,3.58-2.01,5.54-.58,2.67-1.52,4.63-3.87,6.16-1.93,1.26-3.92,2.41-5.79,3.76-2.05,1.48-3.58,3.19-4.75,5.45-1.28,2.45-2.28,4.99-4.29,6.96-.69.68.37,1.74,1.06,1.06,3.46-3.38,4.16-8.58,8.01-11.62,1.85-1.46,3.89-2.68,5.9-3.92,1.82-1.12,3.43-2.43,4.3-4.43.97-2.24.97-4.78,2.04-6.98.75-1.54,1.9-2.84,3.27-3.86,2.77-2.07,6.14-3.18,9.29-4.53,3.57-1.52,7.03-3.4,9.22-6.71.53-.81-.76-1.56-1.3-.76h0Z"/>
  <path d="M94.84,97.03c.97,0,.97-1.5,0-1.5s-.97,1.5,0,1.5h0Z"/>
  <path d="M95.22,96.93c6.44-3.06,13.92-2.35,20.46-5.12,3.34-1.41,5.83-3.94,8.79-5.96,1.56-1.06,3.16-1.88,5.06-2.09,1.48-.16,2.95-.14,4.34-.72,1.88-.78,3.51-2.27,5.07-3.56,1.87-1.55,3.71-3.13,5.72-4.5.79-.54.05-1.84-.76-1.3-3.33,2.25-6.13,5.23-9.51,7.39-1.59,1.02-3.25,1.01-5.06,1.21-1.61.18-3.04.7-4.44,1.52-3.12,1.82-5.58,4.58-8.83,6.19s-6.76,2.15-10.23,2.7c-3.89.62-7.78,1.23-11.36,2.94-.87.41-.11,1.71.76,1.3h0Z"/>
  <path d="M109.53,83.62c.59-2.48,2.9-4.61,4.73-6.25,2.16-1.93,4.76-3.12,7.08-4.83,2.64-1.94,4.84-4.23,6.66-6.96s3.39-5.93,5.17-8.84c.51-.82-.79-1.58-1.3-.76-1.79,2.91-3.28,5.99-5.17,8.84-2.06,3.1-4.69,5.57-7.82,7.59-2.32,1.5-4.55,2.76-6.56,4.7-1.71,1.65-3.68,3.71-4.25,6.1-.22.94,1.22,1.34,1.45.4h0Z"/>
  <path d="M113.67,87.35c1.47-2,2.95-4.01,4.69-5.8s3.63-2.82,5.65-4.06c2.51-1.54,4.23-3.53,5.78-6,3.47-5.5,5.98-11.55,9.71-16.9,1.77-2.53,3.98-5.27,6.97-6.36.9-.33.51-1.78-.4-1.45-5.67,2.07-9.03,8.51-11.77,13.46-1.63,2.95-3.14,5.97-4.84,8.88-1.52,2.6-3.12,5.07-5.69,6.74-2.14,1.39-4.35,2.5-6.18,4.32-1.96,1.95-3.6,4.19-5.22,6.41-.57.78.73,1.53,1.3.76h0Z"/>
  <path d="M157.94,28.58c-2.65,2.15-5.2,4.42-7.84,6.58-1.33,1.09-2.66,2.21-4.11,3.14-1.31.85-2.81,1.29-4.31,1.67-2.88.74-6.12,1.15-8.56,2.99-2.92,2.2-4.6,5.8-6.09,9.03-1.96,4.24-5.32,7.48-8.34,10.95-.63.73.43,1.79,1.06,1.06,2.54-2.92,5.36-5.68,7.39-9.01s3.21-7.24,6.13-10.17c2.27-2.28,5.84-2.64,8.81-3.4,1.47-.38,2.97-.82,4.28-1.58s2.46-1.74,3.62-2.66c3.06-2.44,5.97-5.06,9.01-7.53.75-.61-.32-1.66-1.06-1.06h0Z"/>
  <path d="M66.77,100.72c-.36-4.21,0-8.54,1.93-12.35,1.53-3,3.91-5.43,6.68-7.31,3.03-2.06,6.44-3.64,9.91-4.8,4.64-1.55,9.51-2.66,13.42-5.78s6.59-7.66,9.75-11.57c.6-.74-.45-1.81-1.06-1.06-2.93,3.63-5.37,7.73-8.89,10.85-4.08,3.63-9.45,4.64-14.46,6.4-6.36,2.24-13,5.91-16.36,12-2.29,4.16-2.81,8.95-2.41,13.62.08.95,1.58.96,1.5,0h0Z"/>
  <path d="M114.71,60.5c-2.62,2.74-4.66,5.83-5.89,9.42-.86,2.53-1.32,4.72-3.48,6.48-1.72,1.4-3.73,2.41-5.78,3.22-1.82.72-3.76,1.53-5.67,1.95-3.37.75-7.14-.18-10.37,1.15-3.74,1.54-4.96,5.86-7.6,8.58-.67.69.39,1.75,1.06,1.06,2.39-2.46,3.59-6.52,6.78-8.11,1.56-.78,3.47-.72,5.17-.79s3.62-.07,5.37-.45c1.92-.43,3.84-1.24,5.67-1.95s3.69-1.59,5.33-2.76c1.18-.84,2.38-1.78,3.14-3.04.58-.96.92-2.06,1.25-3.12,1.27-4.07,3.11-7.48,6.09-10.6.67-.7-.39-1.76-1.06-1.06h0Z"/>
  <path d="M122.6,30.85c-2.92,1.72-5.56,3.88-8.56,5.46s-6.3,2.86-9.52,4.11c-2.59,1.01-4.9,2.26-6.79,4.34-1.78,1.95-2.95,4.26-3.79,6.74-.97,2.85-1.67,5.94-3.5,8.4s-4.6,3.58-7.2,4.85-4.88,3.09-7.07,5.13c-1.14,1.06-2.28,2.07-3.6,2.91-1.17.75-2.38,1.42-3.46,2.29-2.3,1.85-4.29,4.62-5.87,7.1s-2.7,5.17-2.16,8.08c.18.95,1.62.55,1.45-.4-.52-2.8,1.01-5.51,2.55-7.73s3.22-4.58,5.33-6.17c1.08-.82,2.29-1.45,3.41-2.21,1.23-.83,2.32-1.82,3.41-2.83,2.21-2.05,4.39-3.74,7.11-5.06,2.32-1.12,4.75-2.24,6.53-4.17s2.8-4.58,3.63-7.11,1.62-5.25,3.26-7.52,3.9-3.92,6.51-4.96c3.33-1.32,6.71-2.56,9.9-4.19s6.05-3.94,9.17-5.78c.83-.49.08-1.79-.76-1.3h0Z"/>
  <path d="M118.81,27.72c-12.17,2.12-27.69,5.61-32.26,18.76-1.1,3.16-1.67,6.41-3.98,8.97-2.5,2.76-5.56,4.41-8.81,6.14-2.89,1.53-6.3,2.95-8.65,5.28-3.42,3.4-5.25,7.98-6.78,12.45-1.7,4.97-4.24,10.82-2.03,16.02,1.87,4.39,6.12,7.91,6.95,12.72.16.95,1.61.55,1.45-.4-.7-4.03-3.82-7.26-5.85-10.66-1.15-1.93-1.91-3.8-1.88-6.08.04-2.8.86-5.5,1.76-8.13,1.58-4.6,2.98-9.4,6.05-13.27,2.25-2.84,5.44-4.36,8.58-6.03,2.97-1.58,6.15-3.03,8.63-5.35,1.25-1.17,2.47-2.42,3.34-3.9s1.34-3.05,1.83-4.63c.68-2.23,1.34-4.41,2.54-6.43s2.72-3.69,4.51-5.12c2.76-2.2,6.03-3.74,9.32-4.96,5.07-1.86,10.38-3.02,15.69-3.95.95-.17.55-1.61-.4-1.45h0Z"/>
  <path d="M65.95,122.78c-1.16-2.28-3.06-3.99-5.12-5.46-1.85-1.31-4.1-2.34-5.68-3.99-1.01-1.05-1.42-2.55-1.8-3.91s-.74-2.71-1.18-4.05c-.89-2.68-2.2-4.99-4.23-6.97-.69-.67-1.75.39-1.06,1.06,2.19,2.14,3.35,4.63,4.23,7.52.73,2.4,1.08,5.27,2.81,7.21,1.38,1.56,3.4,2.56,5.11,3.7,2.25,1.49,4.39,3.19,5.64,5.64.44.86,1.73.1,1.3-.76h0Z"/>
  <path d="M65.32,114.43c.64-.63.49.05.19-.29-.07-.08-.27-.14-.36-.19-.39-.22-.77-.46-1.14-.72-.59-.4-1.21-.81-1.69-1.35-.89-1-1.63-2.09-2.62-3.02-.78-.73-1.5-1.51-2.13-2.38-3.3-4.49-5.23-10.18-5.43-15.74-.04-.96-1.54-.97-1.5,0,.23,6.21,2.47,12.7,6.44,17.53.82,1,1.82,1.81,2.68,2.78.81.92,1.44,1.92,2.41,2.67.76.59,3.2,2.78,4.22,1.76.69-.68-.38-1.74-1.06-1.06h0Z"/>
  <path d="M66.46,130.34c-1.66,0-3.11-1.14-4.27-2.21-1.24-1.15-2.33-2.45-3.46-3.72-1.05-1.18-1.77-2.57-2.69-3.84-1.05-1.45-2.36-2.54-4-3.27-.87-.39-1.64.91-.76,1.3,1.69.75,2.92,1.86,3.92,3.4.91,1.4,1.81,2.72,2.91,3.98,2.13,2.42,4.78,5.86,8.34,5.86.97,0,.97-1.5,0-1.5h0Z"/>
  <path d="M64.67,139.13c-.9-1.92-1.34-4.12-2.81-5.73-1.39-1.52-3.53-2.06-5.19-3.22-3.09-2.16-6.39-4.5-7.16-8.44-.19-.95-1.63-.55-1.45.4.78,3.96,3.9,6.57,7.04,8.77.75.52,1.48,1.06,2.29,1.48.98.5,2.05.9,2.91,1.6,1.75,1.42,2.16,3.94,3.07,5.89.41.87,1.7.11,1.3-.76h0Z"/>
  <path d="M140.58,28.9c-3.33,2.37-7.2,3.56-11.04,4.82-3.54,1.15-7.63,2.38-10.44,4.95-2.65,2.42-3.95,6.09-5.91,9.04-1.21,1.82-2.57,2.91-4.5,3.92-1.69.88-3.19,1.82-4.39,3.33-.59.75.46,1.82,1.06,1.06,1.25-1.57,2.83-2.42,4.56-3.35s2.92-1.89,4.02-3.41c2.12-2.95,3.37-6.72,5.97-9.29,2.78-2.75,7.19-3.88,10.8-5.06s7.44-2.44,10.64-4.72c.78-.56.03-1.86-.76-1.3h0Z"/>
  <g class="cls-2">
    <path class="cls-3" d="M197.39,144.7c3.13-4.56,4.02-10.21,6.93-14.73,2.72-4.21,7.01-10.74-.23-13.3l2.69,2.07-.25-.51.45,3.47c.57-3.06,1.94-5.48,2.1-8.67.11-2.16-1.51-3.6-3.3-4.34l-.49-.2,2.69,2.07c-1.8-2.68-1.04-5.13-4.78-6.46l3.3,4.34c-.2-2.54.54-3.56,1.24-5.94,1-3.38,1.41-7.14,2.04-10.61.78-4.3,1.47-8.66,1.13-13.04-.26-3.3-1.03-7.15-4.21-8.86-1.72-.93-3.56-.92-5.34-.26-1.61.59-3.77,2.86-4.28,3.11l6.61,2.69c.68,3.08-.32,1.88.44,1.09.54-.56.83-1.69,1.19-2.41.75-1.53,1.55-3.09,2.11-4.71,1.33-3.91,1.09-8.02-.11-11.94-.92-3.01-2.97-4.83-6.23-4.77-2.4.05-6.82,2.65-8.1,2.44l2.69,6.61c2.14-4.31,7.75-7.76,6.12-13.32-1.75-5.99-10.82-7.4-15.89-6.07l5.7,4.34c0-3.51.3-6.69-2.32-9.45-1.5-1.58-3.69-2.75-5.66-3.59-2.87-1.23-5.72-.56-8.58-1.42-4.24-1.28-7.65-4.52-12.15-5.56-5.58-1.29-10.41.03-14.77,3.64l7.52,1.99c-1.56-10.62-17.63-10.09-23.93-4.54l5.45-.7c-8.19-3.79-14.35-5.01-23.13-3.07-6.4,1.42-12.58,3.58-18.85,5.48-4.78,1.45-10.02,1.69-14.15,4.75s-6.59,7.38-9.17,11.86c-2.77,4.81-6.92,8.54-10.33,12.86-7.43,9.4-9.51,20.77-12.15,32.15l4.34-3.3c-9.39-1.09-8.99,9.29-6.89,15.39,1.01,2.95,2.56,5.69,3.06,8.8.79,4.99,1.51,8.38,4.64,12.62l5.08-6.61c-2.58-.48-5.26-.8-7.78-1.54-3.33-.98-6.41,2.27-5.54,5.54.15.75.39,1.46.74,2.14.49,1.37.98,1.3,1.46-.2,2.48-.51.48-.64-.69.09-2.61,1.63-2.85,5.22-1.32,7.7s4.68,2.87,7.09,4.3c2.62,1.56,4.26,4.93,6.05,7.54,3.27,4.74,11.07.24,7.77-4.54-1.98-2.87-3.81-6.72-6.4-9.02-1.03-.92-2.15-1.38-3.38-1.96-.63-.29-1.34-.8-2.02-.95-1.88-.43-.78-1.33-1.03.82l-2.23,3.89c.89-.47,3.23-1.64,4.17-3.67,1.58-3.39-.72-5.42-1.55-8.53l-5.54,5.54c2.52.74,5.2,1.06,7.78,1.54,3.4.63,7.64-3.14,5.08-6.61-3.68-4.99-3.14-10.19-5.41-15.74-.65-1.59-1.31-3.18-1.81-4.83-.25-.84-.3-2.43-.75-3.14-.03-.33-.04-.65-.02-.98-1.88,1-2.07,1.48-.59,1.42,1.87.22,3.93-1.55,4.34-3.3,2.23-9.62,3.68-19.87,9.72-28,2.73-3.68,6.09-6.85,8.88-10.49s4.41-8.17,7.54-11.56,7.28-3.57,11.62-4.75c5.18-1.41,10.22-3.31,15.41-4.73,3.44-.94,7.07-2.04,10.65-2.26,3.78-.23,7.4,1.58,10.74,3.13,1.94.9,3.83.72,5.45-.7,1.74-1.54,8.46-2.34,8.88.57.54,3.69,5.25,3.87,7.52,1.99,5.38-4.46,11.66,1.55,16.6,3.7,3.33,1.45,7.43.19,10.45,2.3,1.84,1.29,1.06,1.45,1.06,4.03,0,2.95,2.87,5.08,5.7,4.34,1.68-.44,3.91,1.09,5.07.76.08-2.11-.09-2.59-.51-1.44-.26.44-.54.87-.84,1.28-1.3,1.9-3.08,3.49-4.12,5.57-1.17,2.35-.37,6.09,2.69,6.61,2.63.45,4.79-.12,7.27-.97.41-.14,3.54-.89,3.65-1.18-2.53-2.93-3.45-3.37-2.78-1.33.18.69.35,1.37.51,2.07.8,5.68-5.44,10-4.24,15.43.67,3.03,4.15,3.89,6.61,2.69.66-.32,2.16-1.44,2.46-2.13l.63-.46c-2.64-1.66-3.69-1.97-3.16-.91-.1.16.3.82.28,1.05-.29,2.4.22,5-.07,7.48-.52,4.32-1.44,8.74-2.36,12.99-.77,3.55-2.18,6.04-1.89,9.81.17,2.12,1.31,3.63,3.3,4.34l.44.16-2.69-2.07c1.83,2.8,1.12,4.96,4.82,6.5l-3.3-4.34c-.25,4.81-4.63,10.11,2.18,12.52l-3.14-3.14c-.21-.58-4.22,5.95-4.63,7.11-1.3,3.71-2.63,7.37-4.87,10.64-3.29,4.79,4.51,9.29,7.77,4.54h0Z"/>
  </g>
</svg>