<?xml version="1.0" encoding="UTF-8"?>
<svg id="Layer_21" data-name="Layer 21" xmlns="http://www.w3.org/2000/svg" viewBox="0 0 256 256">
  <defs>
    <style>
      .cls-1 {
        fill: #fff;
      }

      .cls-2 {
        opacity: .3;
      }

      .cls-3 {
        fill: #435054;
      }
    </style>
  </defs>
  <g class="cls-2">
    <path class="cls-3" d="M191.04,127.07c-.11-6.24-1.57-18.08-10.68-12.96l4.51,2.59c.26-3.1,2.43-6.06,3.25-9.08.7-2.57,1.21-5.11,1.06-7.78-.13-2.33-2.43-3.65-4.51-2.59-2.61,1.33-4.63,3.66-6.72,5.65l5.01,2.92c1.48-9.11-2.49-18.86-4.81-27.58-.78-2.93-1.55-6.3-3.77-8.52-2.82-2.82-7.55-3.78-11.12-5.27v5.79c2.1-.82,3.94-1.87,5.86-3.05s2.03-4.07,0-5.18c-1.66-.91-3.43-1.47-4.75-2.89l-.61,4.71c.43-.24.87-.49,1.3-.74,2.38-1.35,1.62-4.65-.72-5.48-.9-.32-6.45-1.68-7.02-.9l.62,2.34.67-.63c.54-.25,1.16-1.45,1.42-1.95,1.2-2.28-.78-5.12-3.39-4.41-4.19,1.15-8.27,1.31-12.45,2.69-5.36,1.77-10.58,1.55-16.04.33l-.8,5.89c3.36-.05,6.1-.54,9.14-1.97,2.75-1.29,1.33-5.65-1.51-5.59-2.31.04-3.97.88-6.13,1.56-3.08.96-5.37.26-8.41-.6l1.32,5.01c1.33-1.6,2.83-2.93,4.41-4.28l-4.24-4.24c-7.16,7.09-18.9,2.96-27.53,7.15-3.96,1.92-6.43,5.79-8.26,9.66-1.24,2.62-2.42,4.78-4.3,7.02-.47.56-.93,1.12-1.39,1.68l2.53.02c.12-.29-2.35-1.44-2.36-1.44-1.23-.55-2.63-.55-3.64.47-2.36,2.39-1.87,4.49-3.02,7.31s-3.46,4.21-3.73,7.61.43,7.13.6,10.6c.13,2.68,2.11,5.68,1.73,8.26-.3,2-.27,1.02-2.12,1.66-.89.31-1.76.7-2.43,1.4-1.72,1.77-1.24,3.41-.91,5.48.45.91.61.97.47.18-.44.52-.81,1.09-1.12,1.7-.4.82-.62,1.62-.76,2.5-.22,1.38.12,2.73,0,4.11-.19,2.05-.88,3.9-.95,5.98-.14,3.86,5.86,3.86,6,0,.07-1.79.68-3.45.85-5.22.12-1.29-.31-2.9,0-4.14.54-2.13,2.33-2.65,2.01-5.11-.1-.73-.82-1.66-.82-2.32,0,1.51.22,1.25,1.92.71,1.8-.58,3.12-1.67,3.73-3.52s.14-4.16-.2-6c-.63-3.51-1.25-6.57-1.61-10.16-.38-3.89-.38-6.17,1.94-9.31,1.54-2.09,1.04-5.85,2.66-7.48l-3.64.47c3.66,1.62,4.85,3,7.99-.59,1.83-2.1,3.59-4.15,4.82-6.67,1.41-2.89,2.5-6.35,5.06-8.5,4.37-3.65,12.03-2.79,17.33-3.38s9.62-2.16,13.38-5.88c2.78-2.75-1.34-6.72-4.24-4.24-1.58,1.35-3.08,2.68-4.41,4.28-1.41,1.7-1,4.35,1.32,5.01,2.62.75,5.34,1.76,8.1,1.52s5.19-2.2,8.02-2.26l-1.51-5.59c-2.05.96-3.9,1.12-6.11,1.15-3.29.05-4.19,5.14-.8,5.89,5.28,1.17,10.55,1.71,15.89.57,2.79-.6,5.36-1.9,8.15-2.43,2.57-.49,5.11-.47,7.65-1.16l-3.39-4.41c-1.2,2.28-4.24,3.64-2.62,6.72,1.89,3.6,7.46,2.14,10.51,3.23l-.72-5.48c-.43.25-.87.49-1.3.74-1.74.98-1.89,3.32-.61,4.71,1.7,1.84,3.8,2.64,5.97,3.83v-5.18c-1.44.89-2.84,1.82-4.42,2.44-2.89,1.13-2.78,4.62,0,5.79s6.98,1.82,8.85,4.22c1.49,1.91,1.79,5.34,2.41,7.59,1.85,6.65,5.37,15.23,4.24,22.19-.46,2.84,2.7,5.13,5.01,2.92,1.72-1.64,3.38-3.63,5.51-4.71l-4.51-2.59c.35,6.17-3.81,10.93-4.31,16.85-.2,2.35,2.67,3.63,4.51,2.59,1.38-.77,1.33,1.84,1.5,3.54.14,1.41.13,2.83.16,4.24.07,3.86,6.07,3.87,6,0h0Z"/>
  </g>
  <g>
    <path class="cls-1" d="M54.09,112.68c1.11,3.29,2.63,16.17,4.55,19.26,2.42,3.9,7.61-2.67,9.61,1.35-.11-3.52-.73-7.05-.74-10.5,0-1.06-.11-3.59.3-4.6.81-2.01,1.37-1.1,3.48-.78.24-2.18-.59-4.15-.17-6.34,3.53,1.71.77-4.96.62-6.21-.3-2.56-.76-5.09-.51-7.57.32-3.14,0-15.45,4.48-16,.71-1.92.04-4.13,1.17-5.96,1.34,2.72,2.63-2.09,3.16-2.8.35.91.8,1.1,1.69,1.24,1.27-7.98,10.38-12.04,14.91-17.99-2.59,3.91,2.66,2.23,4.73,1.53,2.9-.99,5.7-2.65,8.43-3.89-.69.46-1.52.97-2.09,1.61,1.4-.03,2.81-1.1,4.24-1.51,1.71-.49,4.58-.54,6.3-1.05,2.43-.72,6.33-1.4,8.32-2.95-.22,2.3-2.57,4.64-3.72,6.62,1.46,1.91,13-3.56,14.91-5.4-.68,2.37-3.05,4.11-4.02,6.33,1.53,1.14,4.69-.06,6.4-.46,3.27-.76,6.48-1.5,9.8-2.03,2.55-.4,8.35-2.22,10.52-.06-1.18.89-2.82,1.54-3.64,2.78,2.33,1.2,6.25,1.16,8.94,1.88-3.01,1.93-4.44,2.5.23,3.91.87.26,4.24,1,4.23,2.29-.01.99-2.42,1.77-3.15,2.19,3.18,1.06,6.09,2.39,8.97,4.17-1.28,1.98.35,4.02,1.08,6.05.88,2.41,1.39,5.03,1.9,7.53,1.03,5.06,2.67,10.85,2.18,16.03,1.24-1.38,2.76-3.67,4.52-4.24.27,5.63-1.44,12.55-3.38,17.83,2.28.09,3.51-1.32,4.57.82.85,1.72.09,4.55,0,6.37-.13,2.61.27,5.29-.46,7.82-.47,1.61-1.33,3.07-1.71,4.72,4.63-5.32,9.05,1.44,12.28-5s4.97-20.13,6.13-26.98c1.03-6.08,4.29-16.46,3.77-22.61-.51,1.61-3.19,3.3-3.99,4.88-1.02-3.73,1.2-7.97-.02-11.71-.88-2.72-3.27-3.91-3.75-6.69-.99-5.68-2.34-10.87-5.08-15.87.37,1.15-1.42-7.26-1.13-6.08-1.55-9.75-6.89-9.99-13.52-13.75.9.91,2.31,6.79,2.75,7.96-4.46-1.94-8.27-6.61-12.36-9.34-3.39-2.27-6.87-5.5-10.85-6.6,2.11,1.55,4.57,4.3,5.35,6.79-2.33.17-5.33-2.01-7.2-3.19-1.99-1.26-5.01-1.95-7.24-2.75-4.61-1.64-9.75-6.72-14.73-6.84.96.41,1.8,4.14,2.59,4.79-3.52,1.41-12.59-2.89-16.4-2.13.92.14,6.21,4.19,6.83,4.82-6.14,1.45-14.68-2.45-20.96-2.16-3.95.18-8.84,1.63-12.8,2-4.9.45-7.82,4.17-12.23,6.41-2.94,1.49-5.6,3.53-8.45,5.02,2.71.21,5.46-1.83,8.5-1.5.68,3.78-12.18,7.95-14.76,10.05-3.1,2.53-9.4,3.22-11.25,6.79,1.64-.31,6.27.36,7.79.05-1.87,3.29-5.24,4.15-7.13,7.49-1,1.78-3.7,4.58-4.99,6.21.46-.66,3.43-.32,3.89-.97-.09,6.74-5.66,12.98-6.46,19.65-.3,2.5-.9,5.13-.23,7.55.46,1.68,1.27,3.12,1.71,4.76.65,2.45,1.38,4.85,1.09,7.3-.2,1.62-.85,3.41-.65,5.06s1.16,2.36,1.96,4.09,1.33,3.49,1.84,5.32"/>
    <path d="M52.64,113.08c.59,1.79.86,3.69,1.2,5.53.47,2.54.91,5.09,1.46,7.62.8,3.71,1.79,9.38,6.86,8.35,1.04-.21,2.01-.66,3.02-.95.89-.25,1.33-.39,1.77.43.7,1.3,2.85.72,2.8-.76-.14-3.71-.7-7.38-.74-11.1-.01-1.18-.03-2.33.21-3.48.01-.07.17-.62.06-.36-.08.19-.35-.06-.14.09.39.27,1.32.34,1.76.42,1.01.18,1.82-.41,1.9-1.45.16-1.98-.53-3.97-.23-5.94l-2.2.9c1.06.48,2.27.78,3.23-.09.72-.65.86-1.68.79-2.59-.15-1.99-1.02-3.82-1.26-5.78-.27-2.21-.57-4.39-.39-6.61.06-.81.1-1.61.14-2.42.11-2.37.22-4.75.63-7.09.22-1.21.48-2.48,1.02-3.59.42-.86.81-1.34,1.58-1.46.52-.08.9-.59,1.05-1.05.58-1.8.11-3.93,1.02-5.6h-2.59c.85,1.57,2.59,2.11,3.89.7.93-1.01,1.13-2.39,1.86-3.5h-2.59c.5,1.12,1.39,1.72,2.58,1.93.74.13,1.7-.19,1.85-1.05,1.37-7.88,10-11.5,14.53-17.33l-2.36-1.82c-.76,1.19-1.45,2.89-.23,4.05,1.02.98,2.64.74,3.9.48,4.12-.84,7.76-3.1,11.54-4.83l-1.51-2.59c-.84.56-1.68,1.12-2.39,1.85-.84.87-.29,2.68,1.06,2.56,1.91-.17,3.4-1.32,5.24-1.71,1.73-.37,3.51-.38,5.24-.79,3.01-.7,6.61-1.35,9.14-3.22l-2.2-1.69c-.34,2.42-2.35,4.25-3.57,6.26-.36.6-.2,1.32.23,1.82.91,1.03,2.48.89,3.69.69,1.65-.27,3.25-.87,4.8-1.49,2.86-1.16,6.24-2.46,8.54-4.6l-2.51-1.46c-.74,2.28-2.86,3.82-3.87,5.98-.36.76-.2,1.58.54,2.05,1.93,1.23,4.41.54,6.44-.01,2.74-.74,5.54-1.34,8.33-1.87,2.13-.4,4.26-.83,6.39-1.2,1.47-.26,4.02-.82,5.26.3l.3-2.36c-1.49,1.07-3.07,1.8-4.18,3.32-.45.62-.14,1.73.54,2.05,2.92,1.41,6.21,1.25,9.3,2.03l-.36-2.74c-1.1.7-2.66,1.42-3.28,2.63-.81,1.59.56,2.75,1.89,3.32,1.45.62,3.06.84,4.49,1.5.14.06.54.39.68.39.26,0,.25-.68-.02-.7-.08,0-.28.2-.35.23-.7.28-1.43.67-2.1,1.02-1.21.64-.8,2.35.36,2.74,3.03,1.02,5.89,2.35,8.62,4.02l-.54-2.05c-1.35,2.43-.19,4.49.77,6.8,1.05,2.52,1.51,5.28,2.06,7.93,1.06,5.15,2.57,10.33,2.13,15.63-.11,1.28,1.73,2,2.56,1.06,1.11-1.25,2.23-3.23,3.86-3.85l-1.9-1.45c.24,5.93-1.31,11.9-3.33,17.43-.34.94.54,1.89,1.45,1.9s1.68-.18,2.53-.31c.57-.09.5-.17.74.39.65,1.5-.03,3.6-.17,5.14-.2,2.15.13,4.34-.15,6.49s-1.47,4.04-2,6.13c-.35,1.39,1.46,2.61,2.51,1.46,1.49-1.64,2.98-1.91,5.1-1.7,1.74.18,3.49.29,5.02-.73,1.78-1.18,2.65-3.26,3.39-5.18s1.33-4.04,1.83-6.11c2.1-8.62,3-17.48,5-26.13,1.18-5.1,2.67-10.54,2.27-15.82-.13-1.73-2.34-1.99-2.95-.4-.32.85-1.25,1.54-1.88,2.16-.73.72-1.46,1.46-1.96,2.36l2.74.36c-.73-3.02.53-6.09.4-9.14-.06-1.51-.42-2.97-1.18-4.29-.63-1.1-1.53-2.01-2.21-3.07-.8-1.25-.91-2.7-1.19-4.13-.31-1.59-.67-3.16-1.11-4.72-.9-3.22-2.12-6.34-3.71-9.29-.8-1.47-3.3-.47-2.74,1.16.05.16.11.33.19.47.45.72,1.3.91,2.05.54,1.35-.67.47-3.04.26-4.13-.16-.81-.33-1.61-.49-2.42-.06-.31-.12-.61-.19-.92-.04-.17-.13-.89-.05-.13l-.44,1.06h0c-.84-.22-1.67-.44-2.51-.66.01.04.02.07.03.11.48,1.91,3.2,1.07,2.89-.8-.64-3.82-2.11-7.39-5.25-9.79-2.7-2.07-6.01-3.19-8.96-4.85-1.53-.86-2.92,1.09-1.82,2.36-.21-.24.13.27.19.4.11.22.19.46.27.69.29.79.53,1.6.77,2.41.37,1.26.67,2.56,1.12,3.79l2.2-1.69c-4.34-1.97-7.51-5.74-11.26-8.56-1.89-1.42-3.84-2.8-5.78-4.16s-4.15-2.68-6.53-3.38c-1.75-.52-2.43,1.78-1.16,2.74,1.95,1.47,3.86,3.55,4.66,5.9l1.45-1.9c-2.51.08-4.69-1.98-6.75-3.17-2.42-1.39-5.2-1.84-7.75-2.89-4.98-2.06-9.02-6.46-14.68-6.72-1.5-.07-2.02,2.08-.76,2.8-.18-.1.3.55.38.74.2.43.37.88.55,1.33.35.86.67,1.82,1.35,2.48l.66-2.51c-2.38.87-5.61-.39-7.92-.98-2.7-.68-5.66-1.64-8.48-1.15-1.48.26-1.38,2.57,0,2.89.05.01.27.1.11.03-.19-.09.23.14.22.13.27.16.53.32.79.48.7.46,1.39.94,2.06,1.44,1.01.74,2.09,1.48,3,2.36l.66-2.51c-3.48.77-7.18-.13-10.6-.84s-7-1.59-10.54-1.33c-4.06.3-7.99,1.5-12.03,1.94-3.74.41-6.55,2.25-9.55,4.37-1.86,1.3-3.85,2.31-5.79,3.47-2.11,1.26-4.13,2.66-6.29,3.82-1.37.73-.66,2.74.76,2.8,2.95.12,5.56-1.72,8.5-1.5l-1.45-1.1c-.02-.16,0-.05-.06.04-.1.14,0,.09-.19.34-.22.31-.59.67-.94.96-.92.78-1.99,1.38-3.04,1.96-2.42,1.34-4.96,2.43-7.44,3.66-2.19,1.09-4.05,2.56-6.33,3.5-2.88,1.19-6.25,2.32-7.86,5.22-.68,1.23.44,2.41,1.69,2.2,2.48-.4,5.22.48,7.79.05l-1.69-2.2c-1.61,2.69-4.66,4.01-6.5,6.53-.87,1.18-1.59,2.41-2.54,3.54s-1.93,2.19-2.84,3.33c-1.18,1.47.75,3.54,2.12,2.12-.24.24-.36.07.02.06.09,0,.24-.04.33-.06.44-.07.89-.08,1.33-.14.8-.1,1.62-.23,2.21-.84l-2.56-1.06c-.2,6.97-5.54,12.6-6.43,19.46-.25,1.91-.63,3.85-.55,5.78s.81,3.7,1.52,5.53,1.22,3.78,1.51,5.7-.22,3.81-.5,5.78c-.3,2.1.16,3.69,1.26,5.46,1.23,1.98,1.89,4.2,2.51,6.43.52,1.86,3.41,1.07,2.89-.8s-1.13-3.86-1.99-5.68c-.75-1.57-1.93-2.73-1.77-4.59s.82-3.68.7-5.63-.64-3.96-1.19-5.87c-.48-1.69-1.35-3.26-1.76-4.98-.46-1.91-.06-3.94.2-5.86.48-3.51,1.77-6.57,3.26-9.76,1.63-3.5,3.23-7.06,3.34-10.98.04-1.29-1.67-1.99-2.56-1.06.23-.24.37-.07-.02-.06-.09,0-.24.04-.33.06-.44.07-.89.08-1.33.14-.8.1-1.63.23-2.22.84l2.12,2.12c.99-1.23,2.06-2.39,3.08-3.61.95-1.14,1.71-2.35,2.56-3.56,1.87-2.66,5.01-3.98,6.72-6.83.73-1.21-.47-2.41-1.69-2.2-2.38.4-5.24-.46-7.79-.05l1.69,2.2c1.18-2.13,3.95-2.97,6.06-3.84,1.22-.5,2.46-1,3.6-1.68.96-.58,1.21-.9,2.07-1.39,3.77-2.16,8.02-3.49,11.54-6.09,1.67-1.24,3.18-2.76,2.88-4.98-.09-.68-.85-1.06-1.45-1.1-2.98-.22-5.58,1.62-8.5,1.5l.76,2.8c1.84-.98,3.57-2.13,5.34-3.23s3.6-1.96,5.32-3.08c2.94-1.92,5.66-4.45,9.27-4.91,3.9-.5,7.73-1.53,11.63-1.91,3.57-.35,7.06.49,10.53,1.22,3.92.82,8.02,1.68,12,.8,1.11-.24,1.44-1.75.66-2.51-1.08-1.05-2.39-1.94-3.6-2.83-1.13-.83-2.48-2.05-3.89-2.38v2.89c1.06-.19,2.31.09,3.38.31,1.6.33,3.17.76,4.76,1.15,2.52.62,5.7,1.6,8.26.66,1.02-.37,1.53-1.67.66-2.51-.48-.47-.83-1.8-1.14-2.52-.4-.93-.83-1.97-1.76-2.5l-.76,2.8c2.72.12,5.17,1.67,7.43,3.05s4.53,2.9,7.08,3.79,5.16,1.54,7.5,3.05c2.13,1.37,4.53,2.97,7.17,2.89.92-.03,1.77-.94,1.45-1.9-1.07-3.15-3.43-5.72-6.04-7.69l-1.16,2.74c2.27.67,4.25,1.96,6.15,3.32s3.9,2.7,5.75,4.16c3.6,2.82,6.72,6.4,10.95,8.32,1.07.48,2.69-.34,2.2-1.69s-.85-2.91-1.29-4.36-.84-3.11-1.85-4.27l-1.82,2.36c2.74,1.53,5.79,2.59,8.37,4.4,2.83,1.99,3.92,5.16,4.47,8.44l2.89-.8s-.02-.08-.03-.11c-.39-1.15-1.61-1.37-2.51-.66s-.07,3.05.11,3.98c.16.8.33,1.6.48,2.41.05.28.1.56.16.83.08.43,0,.29.02.14l.74-1.3h0c.68.18,1.37.36,2.05.54.13.33.16.41.11.25l-2.74,1.16c1.54,2.85,2.68,5.86,3.52,8.99.42,1.56.77,3.15,1.08,4.74.28,1.44.47,2.83,1.23,4.12.63,1.09,1.53,1.99,2.2,3.05.8,1.26,1.01,2.61.96,4.09-.12,3.02-1.02,5.91-.29,8.92.3,1.25,2.12,1.47,2.74.36,1.11-1.98,3.3-3.03,4.14-5.24l-2.95-.4c.34,4.54-.83,9.16-1.83,13.55-.92,4.06-1.81,8.09-2.46,12.2-.7,4.4-1.41,8.81-2.36,13.16-.47,2.14-.99,4.28-1.66,6.37-.53,1.65-1.11,3.76-2.36,5.04s-3.26.62-4.87.55c-2.46-.11-4.55.85-6.2,2.66l2.51,1.46c.64-2.55,1.93-4.72,2.15-7.39s0-5.21.33-7.82c.25-2.04.33-4.48-1.3-6.01-1.48-1.38-3.29-.4-5.02-.41l1.45,1.9c2.11-5.77,3.68-12.05,3.44-18.23-.04-.89-.94-1.81-1.9-1.45-2.29.87-3.62,2.85-5.18,4.62l2.56,1.06c.42-4.99-.83-9.93-1.88-14.77-.52-2.42-.95-4.86-1.62-7.24-.34-1.19-.75-2.33-1.26-3.45-.48-1.06-1.23-2.25-.6-3.39.4-.72.17-1.62-.54-2.05-2.94-1.8-6.07-3.22-9.33-4.32l.36,2.74c1.28-.68,2.98-1.12,3.66-2.54.83-1.77-.75-3.1-2.21-3.73s-3.05-.84-4.48-1.49c-.19-.09-.48-.19-.47-.2.11-.04.29,1.05-.01,1.1.08-.01.18-.2.26-.24.67-.37,1.31-.87,1.96-1.28,1.05-.67.94-2.42-.36-2.74-2.78-.7-5.97-.47-8.58-1.73l.54,2.05c.74-1.01,2.11-1.53,3.1-2.24.74-.53,1.08-1.65.3-2.36-3.1-2.81-8.07-1.03-11.66-.38-3,.54-5.98,1.12-8.95,1.81-1.15.27-2.27.59-3.42.86-.92.22-2.14.57-3,.02l.54,2.05c1.14-2.42,3.33-4.1,4.17-6.69.48-1.49-1.46-2.43-2.51-1.46-.48.45-1.61,1.1-2.46,1.57-1.39.76-2.82,1.45-4.29,2.07-1.37.58-2.79,1.11-4.23,1.47-.51.13-.95.23-1.44.25-.16,0-.65.09-.39,0-.15.05-.2-.19-.14-.03-.01-.03.37.3.17.07l.23,1.82c1.36-2.25,3.49-4.26,3.87-6.98.16-1.12-1.01-2.57-2.2-1.69-2.32,1.71-5.66,2.27-8.42,2.91-1.55.36-3.16.42-4.73.69-.79.14-1.51.35-2.25.67-.87.37-1.75.94-2.7,1.03l1.06,2.56c.53-.55,1.15-.96,1.78-1.38,1.63-1.08.23-3.39-1.51-2.59-3.02,1.39-5.89,3.08-9.07,4.06-.81.25-1.66.53-2.51.58-.04,0-.52-.03-.55,0,.06-.05.26.09.29.14.52,1.1.09.64.27.49.17-.14.35-.66.47-.86.89-1.41-1.3-3.18-2.36-1.82-4.9,6.32-13.81,10.07-15.3,18.65l1.85-1.05c-.58-.1-.56-.03-.79-.55-.49-1.1-2.03-.85-2.59,0-.37.57-.57,1.25-.85,1.86-.13.28-.49.71-.54,1.01-.13.77-.17,0-.06.12l1.04.11c-.06-.1-.11-.2-.16-.3-.53-.98-2.06-.97-2.59,0-1.11,2.02-.65,4.21-1.33,6.32l1.05-1.05c-4.44.7-4.9,7.65-5.19,11.05-.17,1.97-.2,3.95-.34,5.93-.21,3-.09,6.34.72,9.26.28,1.02.62,2.04.81,3.08.07.38-.03.91.09,1.24-.05-.14,0-.02-.02-.03-.1-.09.47-.36.55-.49.08-.14.34.08-.05-.1-.78-.35-2.04-.15-2.2.9-.35,2.28.3,4.46.12,6.74l1.9-1.45c-1.31-.23-2.73-.95-3.98-.15-1.33.86-1.6,2.71-1.68,4.15-.25,4.46.56,8.87.72,13.32l2.8-.76c-1.09-2.01-3.09-2.4-5.16-1.81-1.13.32-3.46,1.74-4.39.56-1.01-1.28-1.28-3.56-1.64-5.15-.56-2.47-1-4.97-1.45-7.46-.39-2.13-.69-4.33-1.36-6.39-.6-1.83-3.5-1.04-2.89.8h0Z"/>
  </g>
  <path d="M187.19,130.83c-.1.14-.19.17-.27.09l.53,1.28c5.21-6.71,8.72-14.22,10.78-22.45.19-.76-.7-1.21-1.25-.73-1.84,1.59-3.48,3.36-5.84,4.15l.85,1.1c2.97-4.2,5.86-8.3,6.95-13.42.2-.94-1.24-1.34-1.45-.4-1.07,4.99-3.9,8.97-6.8,13.06-.38.53.25,1.3.85,1.1,2.64-.89,4.45-2.77,6.51-4.54l-1.25-.73c-1.99,7.95-5.36,15.29-10.4,21.79-.42.54-.14,1.19.53,1.28.45.06.65-.1,1.03-.29.86-.45.1-1.74-.76-1.3h0Z"/>
  <path d="M183.57,114.49c2.62-.03,4.24-3,5.3-5.01,1.56-2.94,2.83-5.96,3.91-9.11.66-1.92,1.2-4.23,2.52-5.81.93-1.12,2.08-2.02,2.79-3.32.89-1.63,1.25-3.57,1.72-5.34.6-2.3,1.13-4.61,1.52-6.95.13-.77-.97-1.41-1.37-.58-1.03,2.16-.43,4.69-.18,6.96.41,3.75.22,7.36-1.5,10.79-.43.86.86,1.62,1.3.76,1.6-3.19,2.12-6.59,1.84-10.14-.11-1.43-.34-2.85-.46-4.29-.09-1.09-.19-2.3.3-3.32l-1.37-.58c-.34,2.03-.78,4.03-1.28,6.03-.47,1.85-.83,3.91-1.67,5.64-.63,1.31-1.76,2.2-2.7,3.28-1.06,1.23-1.61,2.87-2.17,4.38-1.2,3.25-2.3,6.44-3.84,9.55-.84,1.71-2.36,5.53-4.66,5.55-.96,0-.97,1.51,0,1.5h0Z"/>
  <path d="M183.51,99.09c3.7-2.23,5.85-6.72,7.68-10.47,2.6-5.35,3.57-11.21,5.09-16.92l-1.45-.4c-.71,3.25-.79,6.6-.72,9.91.01.61.84,1.04,1.28.53,4.53-5.2,3.73-12.45,4.87-18.79.17-.94-1.28-1.35-1.45-.4-1.07,5.98-.22,13.24-4.48,18.13l1.28.53c-.06-3.18,0-6.39.67-9.51.2-.94-1.2-1.34-1.45-.4-1.44,5.41-2.33,11.03-4.74,16.13-1.71,3.62-3.78,8.22-7.34,10.36-.83.5-.07,1.8.76,1.3h0Z"/>
  <path d="M181.29,89.34c2.76-1.5,3.44-5.08,3.86-7.92.63-4.23.48-8.41.33-12.66l-1.4.38c1.22,2.22,2.26,4.54,3.5,6.75.26.47,1.05.51,1.3,0,1.26-2.61,2.49-5.23,3.45-7.97.87-2.49,1.74-5.39,1.06-8.03-.24-.93-1.69-.54-1.45.4.64,2.46-.36,5.26-1.18,7.56-.89,2.5-2.03,4.89-3.18,7.28h1.3c-1.24-2.21-2.27-4.53-3.5-6.75-.35-.64-1.42-.37-1.4.38.14,3.91.35,7.81-.2,11.7-.35,2.54-.73,6.22-3.25,7.58-.85.46-.09,1.76.76,1.3h0Z"/>
  <path d="M170.27,67.93c2.05.14,4.19.06,6.13-.69,2.09-.8,3.71-2.26,4.94-4.12.53-.81-.76-1.56-1.3-.76-1.05,1.59-2.49,2.88-4.3,3.52s-3.63.67-5.47.54c-.96-.07-.96,1.43,0,1.5h0Z"/>
  <path d="M166.86,63.5c2.77,2.76,6.54-1.41,8.14-3.53.38-.5.7-1.01,1.18-1.42s1.01-.67,1.55-.92c1.13-.54,2.33-.99,3.22-1.92,1.42-1.47,1.6-3.6,1.48-5.55-.06-.96-1.56-.97-1.5,0,.09,1.46.08,3.18-.93,4.36-.71.82-1.76,1.22-2.72,1.66-1.04.48-2.06,1.04-2.8,1.95-.88,1.08-1.64,2.19-2.67,3.14-.93.86-2.7,2.36-3.91,1.16-.68-.68-1.74.38-1.06,1.06h0Z"/>
  <path d="M158.3,57.29c.97,0,.97-1.5,0-1.5s-.97,1.5,0,1.5h0Z"/>
  <path d="M162.12,54.97c1.47-1.06,2.42-2.5,3.15-4.14.54-1.22.95-2.74,1.93-3.69,1.07-1.04,2.86-1.16,4.24-1.53,1.59-.43,2.82-1.26,3.33-2.89.29-.94-1.1-1.28-1.45-.4-.1.24,0,.52.05.76.01.05.02.11.03.16.05.22,0-.11,0,.06.01.2.02.39.02.59-.01.35-.02.39-.07.64-.07.35-.15.7-.26,1.05-.3.98-.72,1.92-1.19,2.83-.88,1.7-1.92,3.31-3.01,4.88-.55.79.75,1.55,1.3.76,1.65-2.37,3.27-4.89,4.21-7.64.38-1.11.64-2.31.45-3.49-.02-.12-.04-.25-.07-.37-.06-.23,0,.13-.02.18l-1.45-.4c-.45,1.45-1.82,1.74-3.14,2.05-1.44.33-3.06.69-4.13,1.8-.96,1-1.42,2.38-1.96,3.63-.64,1.47-1.4,2.92-2.73,3.88-.78.56-.03,1.86.76,1.3h0Z"/>
  <path d="M165.03,41.49c-6.24,6.44-16.12,6.81-22.61,12.8-.71.66.35,1.71,1.06,1.06,3.17-2.93,7.44-4.37,11.36-6s8.14-3.59,11.25-6.8c.67-.69-.39-1.76-1.06-1.06h0Z"/>
  <path d="M139.68,30.74c-5.38.71-10.18-2.87-15.54-2.44-4.97.39-9.47,3.54-13.84,5.66-.58.28-.42,1.23.18,1.37,3.24.77,6.66.52,9.95,1.04,2.68.42,5.53.24,8.1,1.22l-.18-1.37c-2.14,1.36-4.84,1.85-7.31,2.28-2.6.46-5.23.69-7.85,1.04-6.05.81-10.96,3.69-15.66,7.43-.66.52.09,1.35.73,1.25,4.96-.77,10.06-.88,14.96-2l-.4-1.45c-1.42.57-2.73,1.63-4.01,2.46s-2.63,1.79-3.99,2.6c-.53.32-.47,1.23.18,1.37,2.22.47,4.67,0,6.88-.34,2.4-.38,4.78-.88,7.15-1.38.94-.2.54-1.64-.4-1.45-2.16.45-4.32.91-6.5,1.27s-4.6.9-6.73.44l.18,1.37c1.28-.77,2.51-1.64,3.77-2.46.83-.54,1.67-1.09,2.51-1.62.37-.23,1.2-.77,1.36-.83.88-.35.57-1.66-.4-1.45-4.91,1.11-10,1.22-14.96,2l.73,1.25c2.35-1.87,4.8-3.64,7.52-4.93s5.65-1.91,8.64-2.25c2.53-.28,5.05-.59,7.55-1.07,2.32-.45,4.79-.99,6.81-2.27.58-.37.42-1.14-.18-1.37-2.57-.98-5.41-.81-8.1-1.22-1.51-.23-2.97-.46-4.51-.53-1.83-.08-3.65-.09-5.44-.51l.18,1.37c2.18-1.06,4.29-2.24,6.48-3.28,2.3-1.09,4.79-2.19,7.38-2.2,5.08-.03,9.6,3.16,14.76,2.48.94-.12.96-1.63,0-1.5h0Z"/>
  <path d="M126.58,52.04c3.4-5.11,7.4-10.92,13.96-11.85.95-.13.55-1.58-.4-1.45-6.94.98-11.26,7.13-14.86,12.54-.54.81.76,1.56,1.3.76h0Z"/>
  <path d="M137.31,45.03c-2.2,1.53-4.47,2.97-6.57,4.63s-3.95,3.6-5.45,5.84c-.54.8.76,1.56,1.3.76,2.9-4.35,7.27-7.01,11.48-9.93.79-.55.04-1.85-.76-1.3h0Z"/>
  <path d="M106.07,30.16c-.59-.14-1.33.14-1.9.28-1.03.25-2.06.53-3.08.81-1.18.31-2.24.61-3.47.38-1.43-.27-2.8-.83-4.28-.67-2.79.3-5.53,2.41-7.56,4.2-2.41,2.14-4.42,4.68-6.27,7.31-.45.63.41,1.39,1.03,1.03,1.7-1,3.23-2.27,4.97-3.19s3.67-1.25,5.67-1.2c3.64.09,7.49,1.07,11.07.04.93-.27.53-1.71-.4-1.45-3.77,1.09-7.87-.2-11.72-.09-1.83.05-3.58.49-5.22,1.32-1.81.92-3.39,2.24-5.14,3.27l1.03,1.03c1.7-2.42,3.56-4.74,5.74-6.73,2.01-1.84,5.17-4.42,8.09-4.01,1.32.18,2.57.72,3.92.76.89.03,1.73-.22,2.58-.45.9-.24,1.8-.48,2.7-.72.42-.11.85-.22,1.27-.31.11-.03.79-.1.56-.15.94.22,1.34-1.23.4-1.45h0Z"/>
  <path d="M93.48,47.15c-3.77,3.23-8.75,4.56-12.52,7.8-1.41,1.21-2.82,2.46-4.11,3.8-1.1,1.16-2.3,2.52-2.44,4.18-.05.58.67.92,1.13.65,2.45-1.43,4.87-3.01,7.74-3.41l-.85-1.1c-2.05,3.24-5.34,5.37-7.84,8.22s-3.6,6.54-4.36,10.34c-.19.94,1.26,1.35,1.45.4.39-1.97.81-3.97,1.56-5.85s1.85-3.29,3.18-4.66c2.47-2.55,5.4-4.66,7.31-7.7.39-.62-.25-1.18-.85-1.1-2.99.41-5.54,2.07-8.1,3.56l1.13.65c.13-1.58,1.89-3.06,2.96-4.08,1.35-1.29,2.76-2.65,4.29-3.74,3.63-2.59,7.96-3.98,11.38-6.9.73-.63-.33-1.69-1.06-1.06h0Z"/>
  <path d="M78.65,67.43c-.57,1.67-1.1,3.35-1.92,4.92-.19.36-.09.81.27,1.03.34.2.84.09,1.03-.27.88-1.68,1.46-3.49,2.07-5.28.13-.38-.15-.82-.52-.92-.41-.11-.79.14-.92.52h0Z"/>
  <path d="M71.18,114.26c-.88-3.7-1.96-7.41-5.02-9.86-1.52-1.22-2.43-2.99-3.24-4.73-1.37-2.9-2.26-6-3.56-8.93-.26-.58-1.25-.43-1.37.18-.76,3.85-1.34,7.75-.22,11.59.27.93,1.72.53,1.45-.4-1.04-3.58-.49-7.21.22-10.8l-1.37.18c1.25,2.81,2.12,5.77,3.4,8.57.83,1.83,1.81,3.87,3.38,5.18.84.7,1.66,1.34,2.28,2.27,1.4,2.11,2.04,4.7,2.62,7.13.22.94,1.67.54,1.45-.4h0Z"/>
  <path d="M66.68,118.64c-4.19-2.71-6.86-7.95-7.17-12.88-.06-.96-1.56-.97-1.5,0,.34,5.47,3.25,11.16,7.91,14.17.81.53,1.57-.77.76-1.3h0Z"/>
  <path d="M66.16,128.29c-3.5-3.96-6.45-8.39-7.57-13.64-.2-.94-1.65-.54-1.45.4,1.17,5.49,4.28,10.15,7.95,14.3.64.72,1.7-.34,1.06-1.06h0Z"/>
  <path d="M64.44,62.44c-3.82,3.11-5.22,8.18-5.73,12.88-.31,2.87-.35,5.84.02,8.71.09.68.99,1.09,1.4.38.63-1.11,1.34-2.19,2.11-3.21s2.55-3.66,4.08-3.32l-.52-.92c-1.07,3.19-2.53,6.26-3.07,9.61-.64,3.96.13,7.74,1.92,11.31.28.55,1.26.45,1.37-.18.63-3.65,2.48-6.93,3.12-10.58.16-.94-1.25-1.35-1.45-.4-.61,2.94.47,5.75,2.29,8.04.6.76,1.65-.31,1.06-1.06-1.46-1.85-2.39-4.22-1.9-6.59l-1.45-.4c-.63,3.65-2.48,6.94-3.12,10.58l1.37-.18c-1.77-3.53-2.41-7.3-1.58-11.18.64-2.96,1.91-5.72,2.87-8.58.12-.37-.14-.84-.52-.92-2.08-.47-3.86,1.6-5.02,3.03-1.06,1.31-2.03,2.72-2.86,4.19l1.4.38c-.34-2.6-.32-5.3-.1-7.91.39-4.58,1.65-9.59,5.37-12.62.75-.61-.32-1.67-1.06-1.06h0Z"/>
  <path d="M56.24,70.73c-.4,4.72-2.17,9.13-3.62,13.6-.63,1.92-.87,3.92-.22,5.87.6,1.81,1.73,3.38,2.38,5.17.33.9,1.78.51,1.45-.4-.65-1.79-1.77-3.37-2.38-5.17-.73-2.18-.08-4.25.67-6.32,1.48-4.11,2.87-8.38,3.23-12.75.08-.96-1.42-.96-1.5,0h0Z"/>
  <path d="M75.01,43.7c-2.61,1.67-4.71,4.04-6.89,6.21-2.36,2.36-4.72,4.6-4.76,8.17,0,.58.64.92,1.13.65,4.42-2.46,9.44-3.65,13.82-6.19l-.91-1.18c-3.15,2.69-6.45,5.71-8.21,9.54-1.21,2.63-1.41,5.42-1.21,8.28.06.96,1.57.97,1.5,0-.18-2.67-.06-5.3,1.12-7.75,1.73-3.62,4.86-6.45,7.86-9.01.66-.56-.19-1.6-.91-1.18-4.38,2.54-9.4,3.74-13.82,6.19l1.13.65c.04-3.28,2.52-5.29,4.65-7.44,1.96-1.98,3.89-4.13,6.25-5.65.81-.52.06-1.82-.76-1.3h0Z"/>
  <path d="M155.01,37.03c-2.26-.78-4.71.55-6.55,1.77-2.16,1.43-4.08,3.19-6.08,4.83-.56.46.04,1.53.73,1.25,1.58-.64,3.43-.32,5.07-.12,1.74.22,3.54.52,5.28.15.94-.2.54-1.65-.4-1.45-3.39.72-7.03-1.37-10.35-.03l.73,1.25c1.82-1.49,3.55-3.08,5.5-4.41,1.54-1.05,3.72-2.47,5.67-1.8.91.31,1.31-1.13.4-1.45h0Z"/>
  <path d="M90.57,41.49c-2.27.09-4.25.98-5.87,2.56-1.48,1.44-2.58,3.22-3.96,4.76-.56.62.14,1.61.91,1.18,1.23-.69,2.69-.69,4.06-.7,1.45-.01,2.94.03,4.34-.39.92-.27.53-1.72-.4-1.45-2.86.85-6.04-.28-8.76,1.24l.91,1.18c1.3-1.45,2.36-3.11,3.72-4.51s3.05-2.28,5.05-2.36c.96-.04.97-1.54,0-1.5h0Z"/>
  <path d="M174.68,39.19c-2.38-.88-4.49-2.3-6.72-3.47-1.12-.59-2.25-1.06-3.51-1.29s-2.57-.31-3.86-.48l.2,1.47c2.01-.75,4.19-.89,6.32-.76s4.31.55,6.28,1.38c.88.37,1.64-.92.76-1.3-2.17-.92-4.48-1.4-6.83-1.57s-4.75-.03-6.93.8c-.82.31-.64,1.36.2,1.47,1.23.16,2.48.23,3.7.48,1.28.26,2.4.81,3.54,1.43,2.12,1.16,4.17,2.43,6.45,3.28.91.34,1.3-1.11.4-1.45h0Z"/>
  <path d="M183.93,45.9c-.06,3.29,2.05,6.38,1.47,9.67-.51,2.93-2.5,5.58-2.09,8.66.07.55.82,1.11,1.28.53,1.68-2.11,4.23-3.15,5.33-5.74,1.25-2.95,1.62-6.06,1.33-9.24-.09-.95-1.59-.96-1.5,0,.28,3.02-.03,5.99-1.26,8.79-.99,2.26-3.48,3.26-4.96,5.13l1.28.53c-.41-3.08,1.73-5.8,2.12-8.79.43-3.31-1.56-6.28-1.5-9.54.02-.97-1.48-.97-1.5,0h0Z"/>
  <path d="M156.88,28.94c-1.63.57-3.24-.8-4.52-1.64s-2.74-1.43-4.25-1.86c-3.15-.91-6.94-1.5-10.09-.32-.61.23-.81,1.32,0,1.45,2.11.33,3.75,1.75,5.23,3.2.69.67,1.32,1.39,2.13,1.93.89.59,1.91.95,2.83,1.49l.18-1.37c-2.62.56-5.29.74-7.79,1.78-.88.37-.49,1.82.4,1.45,2.5-1.04,5.17-1.22,7.79-1.78.65-.14.71-1.06.18-1.37-.92-.54-1.94-.9-2.83-1.49s-1.64-1.54-2.45-2.29c-1.49-1.38-3.21-2.66-5.27-2.99v1.45c3.23-1.22,7.15-.44,10.32.64,1.53.52,2.76,1.35,4.11,2.2s2.87,1.53,4.44.98c.91-.32.52-1.77-.4-1.45h0Z"/>
  <path d="M180.31,43.37c-3.44,1.99-4.81,6.27-6.61,9.57-.73,1.34-1.43,2.5-2.87,3.09-1.1.45-1.65,1.28-2.47,2.06-1.35,1.28-3.86.41-5.38,0-.93-.25-1.33,1.2-.4,1.45,1.78.48,4.09,1.14,5.87.29.97-.46,1.42-1.41,2.25-2.04.52-.39,1.17-.49,1.72-.85.65-.42,1.14-1.02,1.59-1.64,1.17-1.64,1.95-3.54,2.87-5.32,1.02-1.98,2.2-4.17,4.19-5.32.84-.48.08-1.78-.76-1.3h0Z"/>
  <g class="cls-2">
    <path class="cls-3" d="M189.34,132.7c3.86,0,3.87-6,0-6s-3.87,6,0,6h0Z"/>
  </g>
  <g class="cls-2">
    <path class="cls-3" d="M190.34,132.98c8.91.65,10.36-7.62,11.2-14.54,1.28-10.61,7.48-21.11,6.85-31.86-.18-3.1-3.8-6.01-6.77-3.89-3.61,2.57-5.87,6.11-10.15,7.85l4.38,7.52c4.3-5.46,8.26-12.14,8.45-19.3.07-2.76-.3-6.48-2.2-8.63-.89-1-1.73-1.47-3.04-1.72-.8-.21-1.6-.21-2.39,0-1.2.1-1.17.2.1.3-1.54-.97-4.24-.78-5.45.7l-.29.36,7.07.91c.34,1.91.54,2.31.6,1.21.04-.34.03-.67-.06-1.01-.35-1.08-.54-1.79-1.33-2.69-2.09-2.39-5.47-1.24-7.07.91l-.29.39,8.22,3.47c.68-3.45,1.37-6.71.61-10.2-.71-3.29-1.49-6.57-2.3-9.86s-2.5-5.89-3.48-8.99c-1.03-3.25-2.78-5.61-4.76-8.33s-5.8-3-7.77,0c-1.34,2.04-2.28,4.68-2.78,7.06h8.68c-2.06-5.24-5.53-5.85-9.59-9.04-4.76-3.74-6.44-7.82-13.35-5.6l4.38,7.52.96-1.24-7.52-4.38-.28.64,2.69-2.07c-1.49.62-7.92-3.6-9.62-4.33-3.89-1.68-8.06-3.73-12.24-4.5-2.97-.55-5.03.57-7.77,1.51-.64.22-1.27.48-1.94.59-1.27.19,1.1.27.08.09-1.48-.26-2.24-.84-3.88-.6-2.37.35-3.78,3.43-3.14,5.54.81,2.67.24-4.13,1.89-2.81-.27-.22-2.05.13-2.43.15-2.31.11-4.64.16-6.96.19-1.9.03-3.13-.47-4.92-.87-2.25-.51-4.56-.05-6.83.07-8.05.43-18.59,1.26-24.65,7.18-2.44,2.38-1.24,6.62,1.99,7.52l-1.41-2.5c-.17.34-.38.66-.62.96.33-.1-1.86,1.26-1.13.81-1.85,1.15-4.09,1.56-5.95,2.75-2.68,1.72-5.9,5.45-9.32,5.02-1.48-.18-3.21.98-3.89,2.23l-.12.23c-.86,1.6-.87,4.2.7,5.45,2.05,1.64,4.15,3.25,6.53,4.38l-.91-7.07c-2.34,2.91-7.93,2.41-10.71,5.38-1.65,1.77-2.39,4.56-2.36,6.94.04,2.64,1.11,3.43,2.91,4.97l-1.16-4.38-.15.55c-.59,2.11.45,3.86,2.07,5.08-4.06-3.06-.57-3.74-2.21-1.07-.65,1.06-.96,2.63-1.43,3.79-.81,1.99-1.64,3.94-2.25,6-2.19,7.47-5.26,13.26-2.1,20.9,1.24,3,1.72,4.71,1.34,7.92-.2,1.7-.52,3.25-.11,4.96.83,3.43,3.59,5.78,4.16,9.37s-.26,7.54,2.33,10.64c1.97,2.36,4.87,2.67,7.75,2.69,5.79.04,5.8-8.96,0-9-1.84-.01-.87-2.36-1.04-4.13-.15-1.53-.39-3.07-.81-4.54-1.01-3.47-3.6-5.67-3.21-9.27.42-3.91.01-6.69-1.47-10.43-1.59-4.02-1.8-5.48-.49-9.61,1.51-4.76,3.15-9.41,4.98-14.05,1.62-4.12,3.28-8.78-.88-11.92l2.07,5.08.15-.55c.4-1.46.03-3.35-1.16-4.38-.47-.41-1.13-.74-1.56-1.11l1.32,3.18c-.11-3.16,8.26-3.97,10.4-6.63,1.64-2.05,1.96-5.71-.91-7.07-1.67-.79-3.27-1.82-4.71-2.97l.7,5.45.12-.23-3.89,2.23c3.94.49,7.72-1.82,10.81-4.02s6.77-3.41,10.01-5.49c5.55-3.57,7.84-13.01,0-15.2l1.99,7.52c3.1-3.03,9.81-3.88,14.06-4.32,2.57-.26,5.47-.64,8.03-.52,2.22.11,4.18,1.11,6.48,1.16,6.49.15,20.76,1.28,17.63-9l-3.14,5.54.15-.02-3.47-.45c3.06,1.94,6.34,1.4,9.58.21.82-.3,1.98-1,2.86-1.11.62-.08.97-.05.23-.1,2.62.19,6.03,2.06,8.4,3.05,5.55,2.33,18.96,11.61,21.5.82.93-3.96-4.57-8.19-7.52-4.38l-.96,1.24c-2.48,3.21-.37,9.05,4.38,7.52,1.63-.52,1.6.12,2.8,1.39,1.03,1.09,1.98,2.1,3.19,2.99,1.55,1.13,5.13,2.1,5.87,3.97,1.47,3.74,7.66,4.78,8.68,0,.36-1.7.91-3.45,1.87-4.91h-7.77c5.71,7.85,10.94,20.69,9.02,30.45-1.02,5.17,5.19,7.55,8.22,3.47l.29-.39-7.07.91.09.11-1.32-3.18c-.07,1.3-.24,2.6.6,3.74,1.54,2.09,5.05,3.37,7.07.91l.29-.36-5.45.7c1.11.71,2.07,1,3.39,1.06.48.02,3.82-.04,1.75-.35l-2.69-2.07c3.23,4.41-2.58,13.24-5.2,16.57-2.39,3.03-.32,9.43,4.38,7.52,2.4-.98,4.69-2.13,6.83-3.61s3.44-3.7,5.47-5.15l-6.77-3.89c.47,7.96-3.83,17.07-5.65,24.8-.63,2.7-.98,5.34-1.31,8.08-.22,1.86.17,4.67-2.1,4.51-5.78-.42-5.75,8.58,0,9h0Z"/>
  </g>
</svg>