<?xml version="1.0" encoding="UTF-8"?>
<svg id="Layer_22" data-name="Layer 22" xmlns="http://www.w3.org/2000/svg" viewBox="0 0 256 256">
  <defs>
    <style>
      .cls-1 {
        fill: #fff;
      }

      .cls-2 {
        opacity: .3;
      }

      .cls-3 {
        fill: #435054;
      }
    </style>
  </defs>
  <g class="cls-2">
    <path class="cls-3" d="M77.06,58.71l-1.4-.4-2.07-2.69c.39,1.05-.85,3.83-1.09,5.16-.64,3.53-.85,6.47.77,9.73,1.26,2.54,5.2,2.95,7.07.91,2.05-2.23,3.99-4.55,5.85-6.95.9-1.16,2.12-2.38,2.74-3.7.56-1.19,1.56-.6-.01-.66l-3.18-1.32c-1-.81.08-2.51-.78-.77-.23.47-.3,1.23-.39,1.75-.24,1.41-.4,2.86-.22,4.28.38,2.92,2.41,5.34,5.59,5.2s5.73-2.95,7.79-5.17c3.39-3.65,6.66-7.42,10.04-11.07l-7.68-3.18c-.42,3.42-1.39,6.97-2.07,10.35-1.02,5.12,5.24,7.63,8.22,3.47,3.24-4.51,9.99-9.62,15.27-11.35l-5.7-4.34c.03,5.08-.75,9.72,1.91,14.41,1.83,3.22,5.82,2.56,7.77,0,3.64-4.77,6.36-11.8,13.71-11.24l-4.34-5.7c-.68,2.75-2.95,4.77-3.6,7.64-.9,3.93,3.08,6.88,6.61,5.08,4.55-2.31,9.55-3.48,13.84-6.33l-6.16-6.16c-1.01,1.93-2.04,3.73-2.84,5.76-1.43,3.6,3.52,7.22,6.61,5.08,1.67-1.16,3.36-2.22,5.33-2.8.89-.31,1.81-.49,2.76-.52,1.76.36,1.92.21.47-.45l-1.32-3.18c.08.83-.96,3.42-1.35,4.25-1.33,2.86.19,6.98,3.89,6.77,4.61-.27,9.4-1.62,11.82-5.86l-8.39-2.27c-.09,2.91.22,5.81.1,8.72-.13,3.27,3.98,5.8,6.77,3.89,3.25-2.23,6.33-4.67,9.47-7.06,4.55-3.46.07-11.28-4.54-7.77-3.14,2.39-6.22,4.83-9.47,7.06l6.77,3.89c.12-2.91-.19-5.81-.1-8.72.14-4.49-6.21-6.09-8.39-2.27-.71,1.24-2.8,1.33-4.05,1.41l3.89,6.77c1.85-3.99,4.82-10.61-.52-13.24-5.6-2.76-13.03.42-17.68,3.64l6.61,5.08c.49-1.24,1.32-2.43,1.93-3.61,1.95-3.74-2.19-8.8-6.16-6.16-4.27,2.84-9.3,4.02-13.84,6.33l6.61,5.08c.63-2.76,2.91-4.81,3.6-7.64.74-3-1.39-5.47-4.34-5.7-4.43-.33-9.35,1.86-12.88,4.44-3.95,2.88-5.71,7.49-8.59,11.26h7.77c-1.75-3.08-.66-6.59-.68-9.87-.01-2.8-2.88-5.27-5.7-4.34-7.7,2.53-15.94,8.93-20.65,15.49l8.22,3.47c.84-4.22,1.86-8.47,2.39-12.74.49-3.93-5.21-5.85-7.68-3.18-2.66,2.88-5.17,5.88-7.85,8.74-.88.94-1.74,1.89-2.63,2.82-.71.74-2.56,1.93-1.67,2l3.89,2.23c-.32-.42,1.13-4.72,1.08-5.82-.15-3.04-2.6-5.49-5.69-5.51-2.93-.02-4.99,2.01-6.67,4.17-2.58,3.33-5.03,6.67-7.89,9.79l7.07.91c-1.16-2.34,1.49-7.53,1.58-10.01.11-3.33-1.92-6.48-5.55-6.26-5.76.35-5.79,9.35,0,9h0Z"/>
  </g>
  <g>
    <path class="cls-1" d="M76.27,39.69c-6.15,3.82-14.09,2.59-13.41,10.53.63-.98,10.35-1.14,12.86-1.88,1.58-.47-6.54,2.1-8.98,6.43-1.8,3.19-5.56,8.38-2.33,6.98,3.58-1.55,7.97-4.43,14.41-7.09.78,1.17-.65,10.22-.27,11.54,3.02-.44,9.71-12.52,11.58-14.94.72,1.25.02,8.2,1.1,9.28,1.88,1.88,6.35-5.07,7.76-6.65,1.59-1.78,5.3-9.32,8.18-8.62,1.04.25-1.69,4.05-1.42,5,.3,1.08-2.1,6.06-2.1,6.06,0,0,9.92-5.95,11.47-7.14,1.23-.94,3.52-3.51,5.21-3.05,2.28.62.64,6.83,1.99,8.15,2.31-2.1,6.05-5.81,9.15-6.83,2.51-.82,7.54-3.69,9.98-3.04-1.19,2.63-2.95,4.44-3.74,7.23,4.19-2.51,10.11-6.12,15.19-6.13.2,1.57-1.84,2.87-2.2,4.41,2.73,1.05,6.81-1.36,10.69-3.04,1.68,1.21-1.9,5.22-1.77,6.78,2.92-1.02,4.99-.78,10.97-3.94-.02,2.91-1.6,5.42-1.3,8.39,4.6-.59,5.7-2.54,8.1-5.48-.22.52-.08,1.12-.16,1.6,2.34-.34,5.41-5.83,7.56-5.59-1.41-5.7-3.28-3.17-3.11-4.95.55-5.99,9.87-4.99,4.88-9.2-2.09-1.77-9.38,1.31-10.2.04-1.42-2.18,3.33-5.14,6.87-9.36.93-1.1-7.95-.69-8.98.33-.61.61-4,4.11-3.43,4.76-1.82-4.62-4.77-10.17-9.47-11.2.58,2.43-.16,6.94.77,9.31-4.58-3.95-9.89-11.69-16.26-10.78.61,1.31,1.44,6.98,2.36,8.15-6.24-2.34-9.04-9.49-15.76-10.87-.19,2.33-.51,5.96,1.28,7.47-5.36-3.07-6.93-8.03-15.91-7.58,2.15,1.21,4.99,4.88,6.82,7.76-4.91-1.73-10.13-3.31-15.37-3.6-1.97-.11-5.76-.72-7.21.84,2.67,1.25,5.42,3.06,7.29,5.34-3.2.9-7.99-.69-11.58-.69-2.35,0-5.83-.65-8.06.27,2.51,1.87,4.11,2.89,6.12,5.3-3.1.75-7.3-1.14-10.63-1.14-2.48,0-6.9-.14-9.29.56,2.16,1.47,4.98,2.25,6.65,4.32-1.06,2.61-13.16.73-14.96,3.16.48,1.03,7.46,1.88,8.31,2.66"/>
    <path d="M75.52,38.4c-3.04,1.84-6.56,2.41-9.73,3.93s-4.67,4.38-4.42,7.89c.08,1.16,1.67,2.16,2.56,1.06.02-.03-.11.1-.2.11.18-.02.39-.12.57-.16.4-.1.82-.16,1.23-.22,1.4-.2,2.82-.3,4.23-.42s2.7-.23,4.04-.4c.58-.07,1.16-.14,1.73-.26.34-.07,1.15-.08.41-.14l-.76-2.8c.22-.14.22-.09-.12.05-.41.17-.82.34-1.22.52-1.03.46-2.05.98-3.02,1.55-2.45,1.45-4.34,3.21-5.8,5.66-.76,1.28-1.57,2.53-2.28,3.83-.49.91-1.12,1.99-1.06,3.06.19,3.47,4.69.86,6.16.1,3.78-1.95,7.48-4.03,11.41-5.67l-1.69-.69c.04.07,0-.25,0,.13-.01-.32,0,.21,0,.22.03.49.02.97,0,1.46-.04,1.19-.14,2.37-.24,3.56-.15,1.82-.64,3.99-.19,5.81.2.83,1.07,1.2,1.85,1.05,1.32-.25,2.43-1.4,3.29-2.35,1.32-1.46,2.47-3.08,3.58-4.7,1.92-2.81,3.55-5.87,5.6-8.58h-2.59c-.19-.38.05.29.05.26.05.37.07.74.09,1.11.05.91.05,1.81.08,2.72.04,1.55-.06,3.48.69,4.89,1.97,3.69,6.08-.71,7.52-2.47,1.92-2.35,3.7-4.77,5.38-7.29.94-1.42,1.95-3.07,3.35-4.1.19-.14.57-.24.72-.39-.09.08.14-.03.13-.01-.18.21-1.2-.86-.91-1.14-.13.13-.18.53-.25.72-.18.42-.39.83-.59,1.25-.36.77-.83,1.62-.84,2.48,0,.2.05.39.06.58,0-.06-.02-.04-.02-.04-.06.35-.17.7-.28,1.04-.43,1.36-1.02,2.68-1.64,3.96s.68,2.87,2.05,2.05c3.61-2.17,7.27-4.3,10.77-6.65,1-.67,1.85-1.48,2.78-2.25.48-.4,1.12-.98,1.76-1.11.11-.02.29,0,.13-.08-.01,0,.11.25.12.34.43,2.34-.41,5.54,1.29,7.46.55.63,1.55.52,2.12,0,2.69-2.45,5.35-5.28,8.83-6.56,1.53-.56,3-1.29,4.52-1.89,1.24-.49,2.96-1.33,4.33-1.03l-.9-2.2c-1.22,2.59-3.05,4.81-3.89,7.59-.38,1.25,1.1,2.36,2.2,1.69,4.34-2.61,9.2-5.82,14.43-5.93l-1.5-1.5c.03.72-.58,1.31-.99,1.86-.5.67-.92,1.34-1.16,2.15s.29,1.59,1.05,1.85c3.93,1.32,8.39-1.67,11.84-3.19l-1.82-.23c.21.18.11-.32,0,.04-.07.23-.13.46-.21.68-.21.55-.5,1.06-.77,1.58-.55,1.05-1.24,2.2-1.23,3.42.01.92.95,1.77,1.9,1.45,1.46-.5,2.98-.77,4.46-1.2,2.39-.69,4.67-1.74,6.88-2.9l-2.26-1.3c-.09,2.86-1.51,5.48-1.3,8.39.08,1.07.89,1.59,1.9,1.45,1.92-.27,3.74-.84,5.28-2.04,1.37-1.07,2.39-2.48,3.48-3.82l-2.51-1.46c-.18.67-.16,1.32-.21,2-.08,1.04,1.02,1.62,1.9,1.45,1.62-.32,2.89-1.72,3.99-2.85.72-.74,2.17-2.73,3.17-2.69s1.68-.99,1.45-1.9c-.37-1.42-.83-2.99-1.86-4.08-.35-.37-1.3-1.19-1.88-1.1.03,0,.38.37.6.58.23.23-.07.42.08.06.18-.43.2-.88.44-1.31.44-.78,1.16-1.34,1.9-1.82,1.35-.87,3.39-1.58,3.9-3.28.59-1.98-1.5-4.14-3.27-4.65-2.36-.68-5.06.18-7.4.57-.41.07-.82.12-1.23.14-.11,0-.24-.02-.34,0-.24.05.06-.04.04,0-.01.03-.5-.22.07.08-.06-.03.28.19.3.19,0,0,.25-.5.37-.68.39-.6.9-1.11,1.39-1.62,1.26-1.29,2.6-2.5,3.83-3.82.82-.88,2.19-2.02,1.37-3.34-.97-1.57-4.05-1.17-5.57-1.08-1.99.12-4.54.16-6.04,1.64-.94.93-1.83,1.95-2.62,3.02-.68.92-1.46,2.16-.78,3.29.84,1.4,3.39.48,2.74-1.16-1.96-4.92-4.88-10.88-10.52-12.25-1.15-.28-2.09.72-1.85,1.85.65,3.05-.31,6.31.77,9.31l2.51-1.46c-4.86-4.25-9.91-12.12-17.32-11.22-1.2.15-1.78,1.15-1.3,2.26-.09-.2.12.42.15.55.09.31.16.63.24.95.2.85.39,1.71.59,2.57.31,1.33.57,2.95,1.38,4.09l1.69-2.2c-3.02-1.18-5.22-3.68-7.51-5.87s-4.98-4.28-8.25-5c-1.01-.22-1.82.45-1.9,1.45-.23,2.82-.56,6.41,1.72,8.53l1.82-2.36c-2.5-1.46-4.45-3.62-6.81-5.26-2.92-2.02-6.35-2.67-9.86-2.53-1.47.06-2.07,2.01-.76,2.8,2.67,1.6,4.64,4.66,6.29,7.22l1.69-2.2c-4.6-1.62-9.28-3.02-14.15-3.52-3.04-.32-7.44-1.19-9.88,1.15-.65.62-.57,1.94.3,2.36,2.64,1.26,5.08,2.85,6.98,5.11l.66-2.51c-3.19.81-6.72-.44-9.92-.69-1.57-.12-3.17-.16-4.74-.24-1.66-.08-3.39-.08-4.97.5-1.27.47-1.42,1.96-.36,2.74,2.1,1.56,4.12,3.06,5.81,5.07l.66-2.51c-1.72.36-3.54-.1-5.22-.46s-3.4-.72-5.14-.73c-3.14-.03-6.48-.22-9.55.61-1.3.35-1.41,2.05-.36,2.74,2.11,1.38,4.67,2.13,6.35,4.09l-.23-1.82c-.1.21-.04.13-.37.25-.56.21-1.19.31-1.78.39-1.56.2-3.14.23-4.7.31-2.3.11-6.23-.1-7.87,1.9-.42.51-.61,1.21-.23,1.82.82,1.33,2.86,1.63,4.25,1.96.95.23,1.91.43,2.85.66.36.09.72.18,1.07.29.17.05.34.11.5.17-.27-.1.26.2-.14-.11,1.5,1.18,3.64-.93,2.12-2.12-1.19-.93-2.86-1.14-4.29-1.47-.86-.2-1.73-.39-2.58-.62-.39-.11-.77-.23-1.15-.36-.24-.08-.31-.31-.06.1l-.23,1.82c.18-.22.36-.33.82-.46.6-.17,1.21-.28,1.83-.35,1.66-.19,3.33-.22,5-.31,2.17-.11,6.42.05,7.56-2.35.31-.65.23-1.27-.23-1.82-1.87-2.17-4.62-3.03-6.95-4.56l-.36,2.74c2.95-.79,6.4-.64,9.43-.49,3.54.18,6.89,1.82,10.48,1.07,1.19-.25,1.34-1.71.66-2.51-1.86-2.2-4.13-3.83-6.42-5.53l-.36,2.74c1.53-.57,3.16-.46,4.76-.36s3.28.1,4.91.27c3.29.36,6.67,1.34,9.97.51,1.17-.3,1.36-1.68.66-2.51-2.05-2.43-4.74-4.22-7.59-5.58l.3,2.36c.9-.86,2.7-.63,3.83-.57,1.62.09,3.27.2,4.88.42,4.25.58,8.37,1.89,12.4,3.3,1.23.43,2.38-1.14,1.69-2.2-1.93-3-4.23-6.43-7.36-8.29l-.76,2.8c3.24-.13,6.14.47,8.77,2.42,2.17,1.62,4.03,3.58,6.39,4.95,1.45.85,3.08-1.17,1.82-2.36-1.56-1.46-1-4.52-.84-6.41l-1.9,1.45c3.24.72,5.57,2.9,7.87,5.15s4.76,4.5,7.89,5.73c1.19.47,2.42-1.17,1.69-2.2s-.92-2.71-1.21-3.96c-.32-1.41-.57-2.86-1.15-4.19l-1.3,2.26c3.18-.39,5.86,1.46,8.13,3.47,2.46,2.18,4.59,4.7,7.06,6.87,1.03.9,3.05.06,2.51-1.46-1.06-2.94-.13-6.27-.77-9.31l-1.85,1.85c4.5,1.09,6.86,6.24,8.42,10.16l2.74-1.16s.14.79.1.79c-.03,0,0-.07.06-.13.13-.1.24-.4.34-.54.29-.43.63-.82.97-1.21s.71-.8,1.08-1.19c.13-.14.26-.27.39-.4.05-.05.37-.36.18-.2-.06.05-.05.03-.04.03.15-.02.31-.1.46-.14.42-.12.86-.19,1.29-.26,1-.15,2.01-.21,3.02-.23.76-.02,1.76.04,2.29.09.04,0,.16.06.19.04.17-.07-.02.03.02,0-.19.16-.46-1.72-.57-1.72-.07,0-.37.41-.42.47-.64.71-1.32,1.39-2,2.07-1.7,1.67-4.33,3.6-4.8,6.09-1.04,5.47,7.37,2.26,9.89,2.36.84.03,1.3.29,1.82.98.23.3.1.37.15.06,0-.02.02-.08.01-.08,0,0,.08-.05-.14.12-.95.79-2.82,1.61-3.98,2.64-1.36,1.22-3.09,4.04-1.98,5.89.26.43.65.67,1.1.85.09.03.18.06.26.09.27.1.13.04.12.03.16.09.29.2.51.55.47.74.67,1.63.89,2.46l1.45-1.9c-1.72-.07-3.13,1.35-4.24,2.48-1,1.02-2.23,2.87-3.71,3.17l1.9,1.45c.03-.4,0-.81.11-1.2.36-1.35-1.52-2.68-2.51-1.46s-1.85,2.47-3.01,3.45c-1.26,1.05-2.83,1.42-4.42,1.65l1.9,1.45c-.21-2.87,1.21-5.53,1.3-8.39.04-1.19-1.29-1.8-2.26-1.3-2.06,1.08-4.16,2.03-6.4,2.66-1.4.39-2.84.66-4.22,1.13l1.9,1.45c-.01-.94,1.2-2.56,1.65-3.61.58-1.36.98-3.12-.32-4.23-.56-.48-1.16-.52-1.82-.23-1.74.76-3.44,1.65-5.22,2.32-1.36.51-2.87,1.05-4.31.57l1.05,1.85c.54-1.79,2.34-2.74,2.26-4.81-.03-.8-.66-1.52-1.5-1.5-5.81.12-11.12,3.44-15.95,6.34l2.2,1.69c.76-2.5,2.48-4.53,3.59-6.87.39-.82.12-1.98-.9-2.2-3.59-.78-7.22,1.75-10.44,2.93-4.02,1.47-7.04,4.5-10.15,7.33h2.12c.18.21-.07-.35-.11-.57-.08-.53-.07-1.09-.08-1.63-.02-1.2-.01-2.43-.26-3.61-.58-2.79-3.16-3.42-5.46-2.03-1.84,1.12-3.06,2.54-4.81,3.65-1.9,1.22-3.82,2.39-5.74,3.56-1.34.82-2.68,1.63-4.03,2.44l2.05,2.05c.58-1.22,1.13-2.46,1.6-3.72.27-.71.52-1.42.65-2.17.06-.37.15-.85.02-1.22-.09-.26.22-.01-.01.31.08-.12.1-.37.15-.52.51-1.41,1.88-3.03,1.5-4.61-.46-1.91-2.84-1.57-4.11-.8-3.08,1.85-4.59,5.66-6.66,8.3-.92,1.17-1.83,2.36-2.77,3.52-.57.71-1.17,1.41-1.82,2.05-.24.23-1.48,1.03-1.5,1.13.04-.15.29.27.4.24l.03.1c-.04-.1-.07-.21-.1-.32-.03-.19-.09-.38-.12-.58-.14-.93-.14-1.9-.16-2.83-.05-1.73.18-3.86-.62-5.46-.55-1.12-1.97-.82-2.59,0-1.88,2.48-3.38,5.26-5.11,7.84-.98,1.47-1.99,2.94-3.14,4.29-.47.55-.96,1.11-1.51,1.58-.37.32-.55.46-.92.53l1.85,1.05c-.03-.13,0,.31,0-.13,0-.16,0-.31,0-.47,0-.48.04-.95.07-1.43.09-1.27.21-2.54.31-3.81.14-1.77.68-4.42-.26-6.06-.29-.52-1.1-.94-1.69-.69-3.87,1.62-7.56,3.56-11.27,5.52-.65.34-1.3.68-1.95,1.01-.49.24-1.42.44-1.82.78.96.18,1.37.57,1.24,1.15.03-.12.06-.23.1-.34.06-.12.15-.36.2-.47.33-.71.75-1.39,1.15-2.06.77-1.3,1.49-2.73,2.4-3.94.82-1.09,1.97-1.95,3.11-2.69,1.08-.69,2.22-1.3,3.39-1.84.79-.36,1.01-.28,1.71-.74,1.29-.84.72-2.67-.76-2.8-.73-.06-1.64.34-2.37.43-1.55.2-3.12.31-4.68.45s-2.97.27-4.44.5c-.85.13-2.05.28-2.64,1l2.56,1.06c-.09-1.3-.06-2.68.78-3.76.73-.94,1.91-1.48,2.99-1.9,2.99-1.17,6.12-1.89,8.9-3.58,1.65-1,.14-3.6-1.51-2.59h0Z"/>
  </g>
  <path d="M152.04,33.57c.49.4,1,.78,1.56,1.07.86.44,1.6-.81.76-1.3-1.24-.71-2.37-1.59-3.62-2.28-1.51-.84-3.13-1.34-4.86-1.43-.64-.04-1,.85-.53,1.28,2.1,1.94,3.82,4.23,6.09,5.99.32.25.84.05,1.03-.27.23-.39.05-.78-.27-1.03-2.16-1.67-3.79-3.91-5.79-5.76l-.53,1.28c1.53.08,2.96.57,4.29,1.33,1.17.67,2.25,1.5,3.42,2.17l.76-1.3c-.45-.23-.87-.52-1.26-.84-.31-.25-.75-.31-1.06,0-.26.26-.32.8,0,1.06h0Z"/>
  <path d="M167.28,32.63c.16.58.37,1.16.65,1.7.19.36.69.47,1.03.27.38-.22.44-.66.27-1.03-.56-1.23-.96-2.52-1.53-3.74-.69-1.46-1.65-2.77-2.88-3.83-.57-.49-1.41-.02-1.25.73.55,2.57.6,5.21,1.38,7.74.28.92,1.73.53,1.45-.4-.77-2.52-.83-5.17-1.38-7.74l-1.25.73c1.17,1.01,2.05,2.22,2.69,3.62.55,1.19.93,2.45,1.48,3.64l1.3-.76c-.22-.43-.37-.88-.49-1.34-.26-.93-1.71-.53-1.45.4h0Z"/>
  <path d="M146.55,33.74c-1.79.09-3.47.81-4.9,1.88-1.12.85-2.24,1.92-2.87,3.19-.22.44-.42.96-.29,1.46.14.53.63.82,1.16.8.79-.04,1.55-.6,2.24-.91,1.09-.49,2.23-.88,3.41-1.09,2-.35,3.94.07,5.75.93.87.41,1.63-.88.76-1.3-1.5-.72-3.08-1.23-4.76-1.27-2.06-.05-4.06.58-5.91,1.42-.42.19-.82.42-1.25.61-.1.04-.02,0-.16.06-.05.02-.1.03-.14.04.04,0,.03.05,0,0h-.02c-.08,0-.06,0,.08.01-.08-.06.07.03.09.04.09.05.18.2.2.25.11.19-.07.06.02,0-.01,0-.05.19,0,.04.02-.06.03-.12.05-.18.05-.16,0,0,.04-.11.05-.11.11-.22.17-.32.12-.21.28-.45.42-.63.4-.53.88-1.01,1.39-1.45,1.26-1.09,2.85-1.92,4.53-2,.96-.05.97-1.55,0-1.5h0Z"/>
  <path d="M165.15,36.64c-2.73-.74-5.62.24-8.05,1.47-2.01,1.01-4.11,2.32-5.65,3.99-.45.49-.12,1.24.53,1.28,3.63.22,7.23-1.05,10.86-.7.96.09.95-1.41,0-1.5-3.63-.36-7.23.92-10.86.7l.53,1.28c1.38-1.5,3.24-2.66,5.04-3.6,2.14-1.12,4.77-2.13,7.2-1.47.93.25,1.33-1.19.4-1.45h0Z"/>
  <path d="M145.24,27.52c-1.6-1.31-2.89-3.1-4.82-3.96-.58-.26-1.27.17-1.1.85.6,2.43,1.29,4.88,2.47,7.09.46.85,1.75.09,1.3-.76-1.12-2.1-1.76-4.43-2.32-6.73l-1.1.85c1.81.81,3.02,2.49,4.52,3.73.31.26.75.31,1.06,0,.27-.27.31-.8,0-1.06h0Z"/>
  <path d="M167.19,40.52c-2.12.77-4.13,1.95-5.76,3.52-.4.39-.21,1.12.33,1.25,1.65.41,3.43.17,5.1.08,1.47-.08,3.37-.31,4.69.51.82.51,1.58-.78.76-1.3-1.45-.91-3.39-.81-5.03-.74s-3.49.4-5.12,0l.33,1.25c1.44-1.38,3.23-2.45,5.1-3.13.9-.33.51-1.78-.4-1.45h0Z"/>
  <path d="M137.53,26.84c.25.15.52.27.79.37l.4-1.45c-2.34-.73-4.51-1.93-6.61-3.17-.44-.26-1.21.06-1.13.65.35,2.59,2.09,4.74,3.96,6.46.71.65,1.77-.41,1.06-1.06-.8-.73-1.56-1.53-2.19-2.42s-1.19-1.9-1.33-2.98l-1.13.65c2.21,1.3,4.51,2.55,6.97,3.32.39.12.82-.14.92-.52.11-.42-.14-.79-.52-.92-.15-.06-.29-.13-.44-.21-.83-.49-1.59.8-.76,1.3h0Z"/>
  <path d="M131.47,26.55c-3.09-2.34-6.85-3.93-10.61-4.81-.82-.19-1.32.92-.58,1.37,2.81,1.71,3.98,5.13,6.22,7.41.68.69,1.74-.37,1.06-1.06-2.36-2.4-3.55-5.84-6.53-7.65l-.58,1.37c3.65.86,7.25,2.39,10.25,4.66.33.25.84.05,1.03-.27.23-.38.05-.78-.27-1.03h0Z"/>
  <path d="M135.44,36.53c-2.43-.83-4.72,1-6.23,2.72-1.65,1.89-2.98,4.12-3.89,6.45-.28.7.77,1.27,1.25.73,1.35-1.5,3.04-2.39,4.93-3.03s3.66-1.12,5.34-2.07c.84-.48.09-1.77-.76-1.3-1.7.96-3.59,1.41-5.41,2.06-1.96.7-3.75,1.7-5.16,3.26l1.25.73c.78-1.99,1.95-3.95,3.34-5.59,1.15-1.37,2.97-3.21,4.94-2.54.92.31,1.31-1.14.4-1.45h0Z"/>
  <path d="M122.89,34.61c-2.29,1.05-4.67,1.89-6.85,3.18-2.06,1.22-4.2,2.96-4.58,5.47-.06.37.09.85.52.92,4.31.72,7.45-3.23,11.51-3.74.41-.05.75-.31.75-.75,0-.37-.35-.8-.75-.75-2.07.26-3.89,1.26-5.72,2.2-1.61.83-3.51,1.91-5.39,1.59l.52.92c.35-2.29,2.38-3.73,4.27-4.79,2.08-1.17,4.32-1.97,6.47-2.96.88-.4.12-1.7-.76-1.3h0Z"/>
  <path d="M109.25,27.97c.02-.08.06-.15.12-.21-.02.02-.04.04-.05.06-.02-.08.15-.05-.04,0-.1.03.12-.03-.08.03-.06.02-.13.04-.19.05-.43.11-.72.13-1.15.17-1.19.09-2.38.07-3.57.03s-2.39-.1-3.58-.17c-.75-.04-1.51-.12-2.26-.08-.58.03-1.08.84-.53,1.28,1.38,1.1,3.12,1.64,4.76,2.22,1.51.54,3.33,1.07,4.43,2.32.64.73,1.69-.34,1.06-1.06-1.14-1.3-2.94-1.92-4.51-2.5s-3.37-1-4.68-2.05l-.53,1.28c1.54-.08,3.11.13,4.65.2,1.94.08,3.94.2,5.87-.11.71-.12,1.45-.35,1.74-1.08.35-.9-1.1-1.29-1.45-.4h0Z"/>
  <path d="M102.52,32.99c-3.64-.98-8.31-.54-10.8,2.6-.36.45-.24,1.05.33,1.25,1.3.46,2.76.45,4.12.56,1.48.11,3.07.21,4.43.84.87.4,1.63-.89.76-1.3-1.49-.69-3.13-.88-4.75-1.01-1.37-.11-2.85-.08-4.17-.54l.33,1.25c1.05-1.33,2.4-2.06,4.04-2.38,1.76-.35,3.56-.3,5.29.17.93.25,1.33-1.19.4-1.45h0Z"/>
  <path d="M161.92,33.65c-.71-1.87-1.83-3.55-3.29-4.92s-3.23-2.28-5.3-2.35c-.48-.02-.86.49-.72.95.4,1.36,1.27,2.56,2.01,3.75.8,1.3,1.64,2.66,1.94,4.18.08.4.55.63.92.52.42-.11.6-.52.52-.92-.3-1.56-1.14-2.99-1.96-4.34-.7-1.14-1.61-2.35-1.98-3.6l-.72.95c1.7.06,3.09.82,4.3,1.97s2.24,2.6,2.84,4.21c.14.38.51.64.92.52.36-.1.67-.54.52-.92h0Z"/>
  <path d="M89.21,35.65c-2,.46-4.05.63-6.04,1.13-1.88.46-3.93,1.19-5.05,2.88-.24.37-.02,1.03.45,1.1,2.19.32,4.33.36,6.53.33,2.43-.03,4.91.36,7.27.89.94.21,1.34-1.24.4-1.45-2.39-.53-4.88-.92-7.34-.94-1.04-.01-2.06.08-3.1.03-1.12-.05-2.25-.15-3.37-.31l.45,1.1c.97-1.47,3.07-1.95,4.67-2.31,1.83-.41,3.7-.59,5.52-1,.94-.22.54-1.66-.4-1.45h0Z"/>
  <path d="M84.06,42.74c-2.28.93-4.14,2.75-5.78,4.54s-3.15,3.69-4.32,5.78c-.38.68.37,1.35,1.03,1.03,2.02-1.01,3.85-2.48,5.71-3.76,1.09-.75,2.19-1.5,3.32-2.19.8-.49,1.64-1.04,2.55-1.29l-.73-1.25c-1.24,1.47-2.13,3.26-2.96,4.99s-1.67,3.4-2,5.21c-.17.94,1.15,1.33,1.45.4.36-1.13,1.2-2.11,1.97-2.98,1.07-1.21,2.27-2.31,3.5-3.36,2.16-1.83,4.54-3.71,7.16-4.85.88-.39.12-1.68-.76-1.3-2.81,1.23-5.35,3.28-7.66,5.26-2.12,1.82-4.77,4.07-5.66,6.83l1.45.4c.3-1.69,1.11-3.32,1.85-4.85s1.58-3.32,2.73-4.68c.46-.55.04-1.47-.73-1.25-2.18.61-4.18,2.23-6.01,3.49-1.93,1.32-3.82,2.86-5.91,3.9l1.03,1.03c1.07-1.9,2.44-3.65,3.89-5.27s3.21-3.51,5.3-4.36c.88-.36.5-1.81-.4-1.45h0Z"/>
  <path d="M99.47,40.83c-1.74,1.43-2.97,3.48-3.77,5.56-.73,1.89-1.17,4.11-.34,6.03.22.51,1.06.47,1.3,0,1.94-3.93,5.91-6.08,9.27-8.63.32-.25.49-.64.27-1.03-.18-.32-.7-.51-1.03-.27-3.56,2.71-7.74,5-9.81,9.17h1.3c-.66-1.54-.04-3.56.54-5.01.72-1.79,1.83-3.52,3.33-4.76.75-.61-.32-1.67-1.06-1.06h0Z"/>
  <path d="M110.08,34.84c-1.94.14-3.95.38-5.73,1.2-.71.33-1.35.78-1.8,1.43s-.66,1.67-1.38,2.13-.26,1.59.58,1.37c3.31-.88,6.7-1.17,10.11-.97.96.06.96-1.44,0-1.5-3.54-.21-7.08.11-10.51,1.02l.58,1.37c.77-.49,1.14-1.23,1.54-2.02.35-.69.76-1.1,1.44-1.44,1.57-.79,3.45-.97,5.17-1.09.96-.07.96-1.57,0-1.5h0Z"/>
  <path d="M120.92,30.1c-.74-.18-1.53-.14-2.28-.08-1.03.08-2.06.25-3.08.44-1.7.32-3.54.68-5.09,1.47-.54.28-.42.99,0,1.3,1.2.86,2.76,1.18,4.19,1.4s3.01.33,4.51.5c.4.04.75-.38.75-.75,0-.44-.35-.71-.75-.75-1.37-.15-2.75-.23-4.12-.44s-2.73-.46-3.83-1.25v1.3c.47-.24,1.18-.45,1.83-.64.92-.26,1.85-.47,2.79-.66s1.83-.33,2.75-.41c.38-.03.76-.05,1.14-.05.17,0,.33,0,.5.02.14.01.06,0,.09,0,.07.01.15.03.22.04.94.22,1.34-1.22.4-1.45h0Z"/>
  <path d="M119.63,25.66c-.58-1.56-1.93-2.71-3.22-3.69s-2.68-1.85-4.14-2.55c-.53-.25-1.09.05-1.13.65-.2,3.24,2.04,6.02,3.5,8.71.46.85,1.75.09,1.3-.76-.71-1.31-1.53-2.55-2.21-3.88s-1.18-2.64-1.09-4.08l-1.13.65c1.35.65,2.65,1.44,3.85,2.33.63.46,1.23.97,1.77,1.53.41.43.87,1.01,1.05,1.48.14.38.51.64.92.52.37-.1.66-.54.52-.92h0Z"/>
  <path d="M179.69,35.95c-2.11-.26-4.24-.09-6.15.91-.54.28-1.04.63-1.57.93-.11.06-.22.12-.33.17s.15-.04-.05.02c-.05.01-.09.03-.14.05-.06.02-.13.03-.19.05-.15.04.16,0,0,0-.08,0-.46-.03-.25,0-.4-.06-.81.1-.92.52-.1.36.12.86.52.92,1.32.21,2.28-.59,3.36-1.2.71-.4,1.31-.65,2.13-.82,1.17-.25,2.39-.2,3.58-.06.4.05.75-.38.75-.75,0-.45-.35-.7-.75-.75h0Z"/>
  <path d="M180.38,50.87c-.11-.13.04.11.06.13.08.13.18.24.31.32.36.19.81.09,1.03-.27.27-.45.01-.87-.23-1.26-.22-.34-.45-.68-.69-1.01-.49-.67-1-1.32-1.53-1.96-1.03-1.24-2.12-2.44-3.09-3.73-.24-.32-.65-.49-1.03-.27-.32.19-.51.7-.27,1.03,1.8,2.41,4.02,4.52,5.56,7.12l-.1-.38v.06c.03-.13.06-.25.1-.38v.02c.33-.09.67-.18,1.01-.27h-.02c.09.08.18.17.27.26-.11-.16-.19-.32-.32-.47-.26-.31-.79-.27-1.06,0-.31.31-.26.75,0,1.06h0Z"/>
  <path d="M174.8,55.04c1.1-1.44,1.5-3.17,1.17-4.95-.25-1.32-.89-2.5-1.5-3.68-.44-.86-1.74-.1-1.3.76.52,1,1.05,1.99,1.3,3.11.33,1.47-.06,2.83-.97,4.01-.25.32-.05.84.27,1.03.39.23.78.05,1.03-.27h0Z"/>
  <path d="M147.66,41.16c-1.46.15-2.78.69-4.06,1.39-1.2.65-2.36,1.36-3.67,1.74-.92.27-.53,1.72.4,1.45,1.33-.39,2.53-1.07,3.73-1.73,1.13-.62,2.3-1.21,3.6-1.34.4-.04.75-.31.75-.75,0-.37-.34-.79-.75-.75h0Z"/>
  <path d="M125.88,40.49c-.26.8-1.33,1.28-2.01,1.64-.98.52-1.95,1.05-2.93,1.57-1.61.86-3.42,1.5-4.4,3.15-.49.83.8,1.59,1.3.76.39-.66.91-1.06,1.58-1.43.99-.55,2.02-1.01,3-1.57.91-.52,1.87-.96,2.77-1.48s1.8-1.2,2.14-2.23c.3-.92-1.15-1.31-1.45-.4h0Z"/>
  <path d="M69.38,48.54c.98-.98,2.41-1.56,3.7-2.02,1.99-.71,4.08-1.15,6.19-1.3.96-.07.96-1.57,0-1.5-2.29.17-4.58.62-6.74,1.41-1.48.54-3.07,1.22-4.21,2.36-.68.68.38,1.74,1.06,1.06h0Z"/>
  <path d="M136.2,29.85c-.96.71-2.19.59-3.32.52s-2.19-.13-3.28.16c-1.95.52-3.85,1.41-5.86,1.69-.84.12-.63,1.5.2,1.47,1.05-.03,2.17.46,3.14.82,1.05.39,2.09.86,3.17,1.17,1.01.29,2.14,0,3.15-.17,1.32-.22,2.72-.54,4.06-.37.95.13.95-1.38,0-1.5-1.35-.18-2.77.14-4.1.36-1.03.17-2.11.43-2.91.18-1.11-.35-2.19-.83-3.29-1.22-1.01-.36-2.13-.79-3.23-.76l.2,1.47c2.05-.28,3.98-1.22,5.98-1.72,2.23-.56,4.81.7,6.84-.8.77-.57.02-1.87-.76-1.3h0Z"/>
  <path d="M106.23,51.64c.2.18.37.33.64.41.32.1.68-.06.85-.34,1.69-2.83,4.14-5.82,7.45-6.74.93-.26.53-1.71-.4-1.45-3.69,1.03-6.45,4.26-8.34,7.43l.85-.34c.13.08.14.07.02-.02-.71-.65-1.78.41-1.06,1.06h0Z"/>
  <path d="M187.03,35.31c-1.22.21-2.25.93-3.2,1.67s-1.78,1.58-2.86,2.01c-1.96.77-4.4.54-6.02,2.06-.71.66.36,1.72,1.06,1.06s1.69-.8,2.57-.98c1.05-.22,2.12-.4,3.11-.82,2.07-.88,3.44-3.15,5.74-3.54.95-.16.55-1.61-.4-1.45h0Z"/>
  <g class="cls-2">
    <path class="cls-3" d="M182.54,44.75c-4.81-2.4.29-3.43,2.49-5.49s-.13-5.63-2.92-5.01c-1.79.4-4.11,1.3-4.21-.43-.08-1.28,2.31-3.93,2.69-5.42.67-2.58-2.11-4.63-4.41-3.39-1.32.72-5.9,5.33-6.26,5.24.64.16.24-2.72-.03-3.58-.57-1.8-1.89-3.24-2.91-4.8-1.53-2.35-5.75-1.62-5.59,1.51.02.42.61,4.25.73,4.17-.75.55-3-2.92-3.44-3.57-2.14-3.11-4.55-4.6-8.1-5.94-1.86-.7-3.79,1.09-3.8,2.89,0,1.93.78,2.09-1.56,2.4s-2.72-.87-4.05-2.55c-1.22-1.53-2.23-3.09-3.7-4.4-2.37-2.12-5.45.01-5.01,2.92.15.98.33,1.95.55,2.92.46,2.11.85,2.2-.72.34-1.96-2.31-3.79-4.91-6.39-6.53s-5.59,1.56-4.1,4.1c.05.08,1.66,3.4,1.72,3.43l1.35-1.06c-.21.03-.41,0-.61-.06-.42-.49-2.81-.85-3.51-1.11-3.36-1.27-7.17-1.42-10.36-2.97s-5.97,2.11-3.64,4.71c.46.6,1.01,1.11,1.65,1.53.72,1.1,1.26,1.04,1.63-.16-1.5.09-2.68.26-4.2.1-3.67-.38-7.06-.91-10.71-.02-2,.49-2.61,2.73-1.79,4.41-.3-.62-1.47-.07-2.79-.15-.98-.06-1.96-.35-2.94-.46-2.51-.29-4.82-.22-6.96,1.27s-1.76,4.57.72,5.48c-.48-1.55-1.43-2.09-2.84-1.64-.72.08-1.43.2-2.14.35-1.79.33-2.87,2.91-1.79,4.41,2.11,2.91-5.24,3.48-7.25,4.47-1.21.6-2.62,1.59-3.35,2.72-1.19,1.83.35,4.68,2.59,4.51,1.44-.1,2.63-.68,3.96-1.2,1.16-.45,2.45-1.25,3.72-1.28,1.57-.03,1.75-.56,1.09,1.27-1.35,3.74-6.15,4.27-9.1,6.14-3.25,2.06-.24,7.26,3.03,5.18,2.86-1.81,6.22-2.2,8.57-4.77,2-2.19,4.32-5.22,4.07-8.35-.23-2.84-2.5-5.02-5.25-5.51-3.95-.71-6.52,2.26-10.08,2.51l2.59,4.51c-.88,1.36.02,0,.59-.21.89-.31.7-.16,1.63-.52,2.41-.94,5.27-1.07,7.45-2.56,3.71-2.53,3.31-6.67.93-9.97l-1.79,4.41c3.33-.61,7.78-.1,8.99-4.23.91-3.11-1.35-5.07-4.01-6.05l.72,5.48c2.04-1.41,4.65-.08,6.88.01,1.82.08,3.74-.15,5.41-.89,3.53-1.58,4.19-4.68,2.57-7.99l-1.79,4.41c5.22-1.28,11.95,2.39,16.78-.95,5.25-3.64.15-7.58-2.49-10.52l-3.64,4.71c3.34,1.62,6.9,1.8,10.34,3,2.16.76,4.29,1.86,6.63,1.93,7.35.24,4.96-7.4,2.64-11.37l-4.1,4.1c4.05,2.52,7.2,11.2,13.41,8.34,4.55-2.1,2.54-8.08,1.97-11.84l-5.01,2.92c4.21,3.78,5.88,9.31,12.46,9.41s7.08-3.89,7.09-9.09l-3.8,2.89c5.28,1.99,6.61,8.69,12.54,9.89,2.22.45,4.71-.27,5.91-2.34,1.48-2.53.09-5.36-.05-8l-5.59,1.51c1.11,1.71,2.03,2.95,2.38,4.99.17.96-.04,1.99.34,2.95.72,1.81,2.31,3.03,4.21,3.27,4.46.57,7.05-4.06,10.48-5.92l-4.41-3.39c-1.01,3.87-5.67,7.65-2.16,11.8,2.64,3.13,7.59,2.19,11.06,1.42l-2.92-5.01c-2.64,2.46-6.36,2.99-6.6,7.23-.2,3.53,2.37,6.21,5.32,7.68,3.44,1.72,6.49-3.45,3.03-5.18h0Z"/>
  </g>
</svg>