<?xml version="1.0" encoding="UTF-8"?>
<svg id="Layer_20" data-name="Layer 20" xmlns="http://www.w3.org/2000/svg" viewBox="0 0 256 256">
  <defs>
    <style>
      .cls-1 {
        fill: #fff;
      }

      .cls-2 {
        opacity: .3;
      }

      .cls-3 {
        fill: #435054;
      }
    </style>
  </defs>
  <g class="cls-2">
    <path class="cls-3" d="M157.85,41.23c-2,5.51-4.75,10.57-.36,15.62,1.24,1.42,2.76,2.21,4.27,3.3,2.05,1.48,3.7,3.41,5.64,5.02,4.27,3.53,8.95,6.39,11.74,11.34,2.17,3.84,4.91,9.35,5.39,13.71s.04,8.82-.29,13.14c-.23,2.99-.83,6.14-.43,9.13.62,4.66,2.07,8.35,1.13,13.21-.73,3.77,5.05,5.39,5.79,1.6,1.4-7.23-1.31-13.62-.75-20.75.67-8.4,1.73-16.77-1.83-24.64-1.86-4.13-3.35-8.42-6.22-12-3.26-4.06-7.75-6.64-11.58-10.08-1.54-1.38-2.88-2.94-4.55-4.17-1.43-1.06-3.87-2.03-4.53-3.84-.97-2.65,1.45-6.49,2.36-8.99,1.32-3.64-4.48-5.2-5.79-1.6h0Z"/>
  </g>
  <g class="cls-2">
    <path class="cls-3" d="M69.11,132.41c8.91,4.06,8.45-7.47,7.95-12.97s-1.33-10.62.04-16.25c.9-3.7.59-6.68.06-10.36-.31-2.13,0-4.32-.41-6.42-.54-2.75-.05-4.38.85-7.03,1.63-4.81,2.97-9.75,6.35-13.7s8.81-5.39,12.11-9.1c3.58-4.02,1.14-10.43-.03-14.89-.98-3.73-6.77-2.15-5.79,1.6.52,1.96,2.37,6.23,1.67,8.18-.76,2.11-4.8,3.79-6.53,5.04-2.83,2.04-5.4,4.32-7.43,7.17-2.18,3.07-3.66,6.55-4.84,10.11s-3.48,7.81-2.88,11.73c.51,3.31.88,6.66,1.36,10.02.57,3.92-.95,6.95-1.5,10.76s.53,8.2.88,12.15c.15,1.74.35,3.47.43,5.22.03.8-.11,1.72.03,2.51l-.07.93c-.41.99-.15,1.03.79.14-3.49-1.59-6.54,3.58-3.03,5.18h0Z"/>
  </g>
  <g>
    <path class="cls-1" d="M79.13,36.54c-9.91,3.58-20.48,16.75-23.81,27.2-3.81,11.94-1.33,19.17-.02,26.5.83,4.65.6,9.33-.09,15.27-.31,2.67.85,9.81,2.21,12.01s1.58,3.59,4.02,6.96c4.05,5.59,11.8,11.06,12.17,8.55.67-4.43.97-6.69,1-11.03.02-3.37-3.7-14.1-3.1-16.52,1.65-6.74,2.73-13.95.78-21.73.63-2.84.57-9.79,2.22-13.36,2.36-5.1,5.05-10.49,8.21-13.14s6.8-2.56,12.7-5.16-1.96-22.72-1.96-22.72c0,0-11.53,6.14-14.33,7.15Z"/>
    <path d="M78.73,35.1c-8.44,3.13-15.15,10.54-19.88,17.95-5.05,7.9-7.79,17.25-6.87,26.66.36,3.76,1.27,7.41,1.91,11.12.42,2.44.5,4.92.42,7.39-.08,2.61-.5,5.18-.63,7.78-.09,1.8.18,3.65.46,5.43s.66,3.71,1.34,5.45c.57,1.45,1.42,2.79,2.12,4.18.96,1.9,2.12,3.69,3.44,5.36,2.49,3.14,5.79,6.38,9.47,8.09,1.15.54,2.64,1.05,3.77.18.66-.51.78-1.19.9-1.97.19-1.31.38-2.62.54-3.93.46-3.86.55-7.52-.32-11.31-.78-3.4-1.91-6.78-2.37-10.24-.06-.43-.1-.88-.07-1.32-.01.2.15-.62.2-.86.16-.69.32-1.39.47-2.09.56-2.69.98-5.43,1.14-8.18s.03-5.44-.37-8.13c-.17-1.13-.6-2.37-.54-3.15.08-.92.24-1.84.33-2.76.2-2.11.35-4.24.73-6.33.41-2.27,1.31-4.22,2.32-6.29,1.93-3.93,4.16-8.8,8.26-10.9,1.82-.93,3.88-1.38,5.83-2s4.26-1.14,5.79-2.45c1.89-1.62,2.13-4.44,2.04-6.76-.22-5.45-1.97-10.9-3.85-15.98-.13-.35-.26-.7-.4-1.05-.36-.91-1.28-1.39-2.2-.9-1.99,1.06-3.99,2.1-5.99,3.14-2.57,1.32-5.49,2.95-7.98,3.87-1.8.66-1.02,3.56.8,2.89,2.91-1.08,5.69-2.63,8.45-4.04,2.09-1.07,4.17-2.16,6.24-3.26l-2.2-.9c1.49,3.74,2.7,7.65,3.52,11.6.5,2.4,1.01,5.2.43,7.57-.12.51-.19.73-.42,1.11-.2.33-.29.43-.6.61-1.88,1.1-4.25,1.63-6.32,2.25-1.76.53-3.55,1.07-5.15,1.99-1.74,1.01-3.12,2.45-4.32,4.04-1.48,1.94-2.68,4.08-3.79,6.25-1.04,2.03-2.2,4.12-2.84,6.31-1.09,3.71-.95,7.63-1.58,11.41-.19,1.1.13,2.02.34,3.11.27,1.4.44,2.81.52,4.24.15,2.68.01,5.38-.36,8.04-.33,2.32-.94,4.57-1.37,6.87-.23,1.24.02,2.53.25,3.75.62,3.32,1.61,6.56,2.33,9.85.78,3.55.46,7.16,0,10.75-.07.56-.15,1.12-.24,1.68-.04.31-.09.61-.14.92-.12.76-.18.51.02.42.09-.04.48-.55.49-.41,0-.03.06.05-.14-.04-.14-.06-.3-.09-.45-.15-1.48-.58-2.85-1.67-4.06-2.67-3.27-2.72-6.01-5.96-7.92-9.76-.63-1.26-1.47-2.49-1.95-3.81-.59-1.64-.94-3.38-1.21-5.1-.67-4.19.14-8.21.28-12.41s-.55-8.4-1.38-12.6c-.74-3.73-1.27-7.46-1.09-11.27.21-4.59,1.31-9.27,3.18-13.47,3.52-7.89,9.38-15.51,16.62-20.32,1.54-1.02,3.17-1.93,4.9-2.57s1.02-3.57-.8-2.89Z"/>
  </g>
  <g>
    <path class="cls-1" d="M171,34.65c16.12,6.16,20.5,10.2,23.77,17.3,2.61,5.68,6.84,16.27,8.31,26.33,1.48,10.06-1.52,11.49-2.44,21.73,0,0,1.36,10.76-.55,17.41-2.04,7.1-1.89,7.2-12.97,15.62-.5.38-3.13-6.75-2.51-10.54s3.82-6.81,3.81-10.17c0-4.46-.93-5.46-.49-8.33.9-5.84-.92-9.6-.92-16.18,0-2.6.15-5.46-.33-7.71-.63-2.97-1.45-6.74-3.33-8.81-4.8-5.3-11.07-11.35-13.52-14.08-1.38-1.54-6.37-3.4-9.75-5.1-4.03-2.02-3.15-6.37-3.15-6.37-.64-2.74,5.21-16.18,5.21-16.18,0,0,3.37,2.99,8.87,5.09Z"/>
    <path d="M170.61,36.09c4.51,1.73,9.03,3.57,13.2,6.05,2.53,1.51,4.92,3.3,6.76,5.62s3,5.03,4.14,7.7c1.98,4.63,3.67,9.39,5.01,14.24s2.6,10.17,2.21,15.3c-.28,3.73-1.67,7.3-2.27,10.98-.25,1.51-.6,3.1-.44,4.63.14,1.35.24,2.7.31,4.05.21,4.19.21,8.52-.95,12.59-.64,2.26-1.13,4.43-2.54,6.29-1.97,2.6-5.17,4.75-7.81,6.77-.27.2-1.45.83-1.47,1.12l1.25.47c.13.18.15.21.08.11-.02-.1-.13-.21-.17-.3-.3-.63-.55-1.28-.77-1.95-.58-1.77-1.05-3.63-1.12-5.5-.18-4.55,3.95-7.83,3.89-12.41-.02-1.94-.45-3.81-.58-5.74-.14-2.09.41-4.18.33-6.29-.09-2.3-.51-4.57-.8-6.85-.35-2.76-.33-5.5-.33-8.27,0-2.58-.36-5.03-.98-7.53-.56-2.25-1.28-4.59-2.73-6.44-1.54-1.98-3.42-3.75-5.17-5.55s-3.44-3.51-5.16-5.26c-1.26-1.28-2.45-2.67-3.75-3.91-1.47-1.41-3.52-2.23-5.35-3.07-1.08-.49-2.16-.97-3.24-1.48-.97-.46-2.04-.87-2.77-1.69-.87-.99-1.07-2.18-1.04-3.45,0-.35.02-.35,0-.13.02-.3,0-.54,0-.84,0-.33,0,.27,0,.02,0-.11,0-.22,0-.33.03-.3.03-.37.06-.56.23-1.42.68-2.81,1.13-4.17.96-2.93,2.1-5.8,3.29-8.64.22-.52.31-.74.58-1.36l-2.36.3c2.75,2.42,6.14,4.15,9.53,5.47,1.8.7,2.58-2.2.8-2.89-2.87-1.12-5.99-2.75-8.21-4.7-.64-.57-1.94-.64-2.36.3-.89,2.04-1.73,4.1-2.53,6.18-1.12,2.91-2.36,5.95-2.82,9.05-.09.57-.15,1.13-.07,1.71.11.84.15-.63.05-.31-.08.25-.09.61-.11.88-.09,1.49.24,3.06,1.01,4.36,1.21,2.04,3.29,2.93,5.35,3.87s4.54,1.83,6.46,3.22c1.38,1,2.52,2.56,3.71,3.77,1.74,1.77,3.48,3.53,5.21,5.31,1.85,1.9,4.03,3.8,5.57,5.98,1.41,2,1.91,4.63,2.42,6.97.59,2.73.41,5.48.43,8.25s.4,5.33.78,7.98.54,5.03.2,7.56c-.24,1.82-.04,3.43.21,5.24.33,2.39.35,4.48-.73,6.67s-2.48,4.35-2.84,6.84c-.3,2.06.06,4.19.55,6.19.39,1.59.86,3.33,1.69,4.76.3.52.68,1.02,1.28,1.19,1.18.34,2.26-.94,3.1-1.58,1.86-1.42,3.73-2.84,5.5-4.35,2.05-1.75,3.81-3.66,4.84-6.17,2.79-6.8,2.89-14.34,2.15-21.55-.36-3.48.94-7.21,1.78-10.56,1.11-4.46,1.12-8.74.38-13.27-.91-5.62-2.54-11.13-4.49-16.47-1.41-3.87-2.9-7.84-4.9-11.45-3.44-6.21-9.52-9.82-15.82-12.66-2.56-1.16-5.16-2.21-7.78-3.21-1.8-.69-2.58,2.21-.8,2.89Z"/>
  </g>
  <path d="M165.14,32.74c-1.5,1.33-2.24,3.54-2.78,5.4-.75,2.58-1.12,5.31-1.05,7.99.03.96,1.53.97,1.5,0-.07-2.5.26-5,.94-7.41.47-1.68,1.09-3.73,2.45-4.93.72-.64-.34-1.7-1.06-1.06h0Z"/>
  <path d="M167.78,34.4c-.62,2.1-1.5,4.12-2.24,6.19s-1.48,4.19-1.55,6.37c-.03.97,1.47.96,1.5,0,.07-2.11.85-4.19,1.56-6.15s1.57-3.97,2.17-6.01c.27-.93-1.17-1.32-1.45-.4h0Z"/>
  <path d="M172.51,35.55c-1.37,2.1-2.78,4.18-3.92,6.41-1.08,2.11-1.98,4.42-1.95,6.82.01.96,1.51.97,1.5,0-.03-2.28.89-4.46,1.94-6.44,1.11-2.09,2.43-4.06,3.72-6.04.53-.81-.77-1.56-1.3-.76h0Z"/>
  <path d="M177,37.34c-2.57,2.83-5.52,5.64-6.62,9.42-.27.93,1.18,1.33,1.45.4,1.02-3.51,3.85-6.13,6.24-8.76.65-.71-.41-1.78-1.06-1.06h0Z"/>
  <path d="M180.16,40.49c-1.05,1.14-2.39,2-3.55,3.03-1.77,1.57-3.22,3.45-4.33,5.55-.45.85.84,1.61,1.3.76,1.07-2.03,2.45-3.8,4.17-5.31,1.14-1,2.45-1.84,3.47-2.96.65-.71-.41-1.77-1.06-1.06h0Z"/>
  <path d="M186.92,42.75c-2.75.74-5.15,2.59-7.26,4.44-1.88,1.65-3.62,3.47-5.21,5.39-.61.74.44,1.81,1.06,1.06,1.52-1.84,3.17-3.57,4.95-5.16,1.98-1.77,4.25-3.58,6.86-4.28.93-.25.54-1.7-.4-1.45h0Z"/>
  <path d="M190.83,47.7c-2.76-.16-5.27,1.45-7.34,3.1-2.24,1.78-4.17,3.91-6.13,5.99-.66.7.4,1.76,1.06,1.06,1.83-1.94,3.63-3.91,5.68-5.62,1.86-1.55,4.19-3.17,6.72-3.02.96.05.96-1.45,0-1.5h0Z"/>
  <path d="M192.66,51.8c-2.36.15-4.5,1.34-6.37,2.71s-3.72,3.13-5.47,4.82c-.7.67.37,1.73,1.06,1.06,1.61-1.56,3.22-3.14,5.02-4.48,1.67-1.25,3.62-2.48,5.76-2.62.96-.06.97-1.56,0-1.5h0Z"/>
  <path d="M193.62,55.45c-3.68,2.79-7.69,5.41-10.25,9.36-.53.81.77,1.57,1.3.76,2.4-3.71,6.25-6.2,9.71-8.82.33-.25.49-.64.27-1.03-.18-.32-.7-.51-1.03-.27h0Z"/>
  <path d="M194.66,61.95c.97,0,.97-1.5,0-1.5s-.97,1.5,0,1.5h0Z"/>
  <path d="M195.59,59.61c-1.16,1.63-2.91,2.85-4.48,4.05-1.66,1.28-3.38,2.55-4.64,4.26-.24.33-.05.84.27,1.03.38.22.79.06,1.03-.27,1.2-1.63,2.96-2.84,4.54-4.06s3.36-2.54,4.57-4.25c.56-.79-.74-1.54-1.3-.76h0Z"/>
  <path d="M198.45,63.7c-.41.58-1.14,1.19-1.77,1.67-.88.67-1.81,1.28-2.74,1.87-1.72,1.1-3.53,2.11-5.12,3.4-.32.26-.26.79,0,1.06.31.31.75.25,1.06,0,1.55-1.25,3.45-2.28,5.16-3.39s3.56-2.21,4.71-3.86c.55-.79-.75-1.54-1.3-.76h0Z"/>
  <path d="M199.31,68.99c-1.27,1.71-3.01,2.96-4.82,4.04-1.63.97-3.36,1.81-4.86,2.97-.32.25-.49.64-.27,1.03.18.32.71.52,1.03.27,1.59-1.22,3.41-2.08,5.11-3.12,1.95-1.19,3.74-2.58,5.11-4.43.24-.33.05-.83-.27-1.03-.38-.23-.79-.05-1.03.27h0Z"/>
  <path d="M200.36,73.64c-.04.12.08-.13,0-.01-.03.04-.05.09-.07.13-.03.05-.06.09-.09.14-.06.09.06-.06-.05.07-.21.25-.44.49-.69.72-.61.58-1.26,1.1-1.92,1.62-1.5,1.18-3.06,2.29-4.57,3.46-.63.49-1.28,1-1.83,1.58-.67.7.39,1.76,1.06,1.06,1.12-1.17,2.51-2.1,3.8-3.07,1.53-1.15,3.12-2.27,4.51-3.59.52-.49,1.04-1.03,1.29-1.71.33-.91-1.12-1.3-1.45-.4h0Z"/>
  <path d="M200.56,79.73c-1.99,1.67-3.96,3.39-5.71,5.32-1.65,1.83-3.4,4.03-3.8,6.54-.15.94,1.3,1.35,1.45.4.38-2.38,2.06-4.42,3.64-6.13,1.69-1.83,3.57-3.47,5.48-5.07.74-.62-.33-1.68-1.06-1.06h0Z"/>
  <path d="M200.22,85.43c-3.45,6.35-10.25,10.8-10.74,18.56-.06.96,1.44.96,1.5,0,.46-7.33,7.27-11.78,10.54-17.8.46-.85-.83-1.61-1.3-.76h0Z"/>
  <path d="M198.22,95.63c-2.68,5.13-7.18,9.19-8.94,14.82-.29.92,1.16,1.32,1.45.4,1.71-5.47,6.18-9.46,8.79-14.46.45-.85-.85-1.61-1.3-.76h0Z"/>
  <path d="M197.12,108.34c-1.27,3.51-2.75,6.94-4.46,10.26s-3.65,6.61-6.18,9.37c-.65.71.41,1.77,1.06,1.06,2.62-2.86,4.64-6.24,6.41-9.68s3.3-6.99,4.62-10.62c.33-.91-1.12-1.3-1.45-.4h0Z"/>
  <path d="M194.38,106.04c-.95,2.63-1.82,5.3-3.04,7.82s-2.83,4.85-4.75,6.93c-.65.71.41,1.77,1.06,1.06,2-2.17,3.7-4.57,4.98-7.23s2.2-5.43,3.19-8.18c.33-.91-1.12-1.3-1.45-.4h0Z"/>
  <path d="M87.71,33.65c1.02,2.06,1.52,4.47,2.01,6.7.28,1.3.53,2.61.67,3.93.1.93.22,1.96.02,2.86s1.24,1.34,1.45.4c.23-1.01.16-2.08.05-3.11-.15-1.45-.4-2.89-.7-4.31-.52-2.43-1.09-5-2.2-7.24-.43-.87-1.72-.11-1.3.76h0Z"/>
  <path d="M81.61,35.31c2.67,4.61,4.16,9.9,5.91,14.9.32.91,1.77.52,1.45-.4-1.79-5.12-3.33-10.54-6.06-15.25-.48-.84-1.78-.08-1.3.76h0Z"/>
  <path d="M77.07,39.52c2.05,4,4,8.05,6.21,11.97.47.84,1.77.09,1.3-.76-2.2-3.92-4.16-7.97-6.21-11.97-.44-.86-1.73-.1-1.3.76h0Z"/>
  <path d="M72.09,41.45c3.26,4.02,5.35,8.87,8.65,12.86.62.74,1.67-.32,1.06-1.06-3.3-3.99-5.39-8.84-8.65-12.86-.61-.75-1.66.32-1.06,1.06h0Z"/>
  <path d="M68.21,45.66c3.87,3.56,7.48,7.58,10.37,11.98.53.8,1.83.05,1.3-.76-2.96-4.51-6.64-8.64-10.61-12.29-.71-.65-1.77.41-1.06,1.06h0Z"/>
  <path d="M65.6,49.59c3.13,3.71,6.79,6.98,10.68,9.87.33.24.83.05,1.03-.27.23-.38.05-.79-.27-1.03-3.78-2.81-7.34-6.03-10.38-9.64-.62-.74-1.68.33-1.06,1.06h0Z"/>
  <path d="M62.04,55.08c4.73,2.09,8.23,6.07,11.93,9.53.7.66,1.77-.4,1.06-1.06-3.79-3.54-7.39-7.63-12.23-9.77-.88-.39-1.64.91-.76,1.3h0Z"/>
  <path d="M59.45,60.6c2.35.76,4.39,2.45,6.21,4.07s3.51,3.4,5.21,5.15c.67.69,1.73-.37,1.06-1.06-1.78-1.84-3.55-3.69-5.48-5.39s-4.1-3.42-6.6-4.22c-.92-.3-1.32,1.15-.4,1.45h0Z"/>
  <path d="M57.67,67.69c2.09.34,4.02,1.44,5.76,2.6s3.38,2.51,4.78,4.08c.64.72,1.7-.34,1.06-1.06-1.47-1.66-3.24-3.08-5.08-4.31s-3.91-2.4-6.11-2.76c-.4-.07-.8.1-.92.52-.1.36.12.86.52.92h0Z"/>
  <path d="M57.59,74.71c.51-.23,1.45-.17,2.12-.08,1.07.14,2.12.44,3.14.78,1.74.58,3.76,1.33,5.14,2.51.73.63,1.79-.43,1.06-1.06-1.65-1.42-3.89-2.28-5.94-2.94-1.88-.61-4.37-1.36-6.28-.5-.88.4-.12,1.69.76,1.3h0Z"/>
  <path d="M57.3,79.74c-.17-.16-.01.04-.06-.06l.1.38-.02.14-.19.33c-.39.35-.48.12-.22.17.07.01.15.01.22.02.16.02.33.04.49.06.32.04.63.05.95.05.83,0,1.67.08,2.5.17,1.69.17,3.42.39,5.05.9.92.29,1.32-1.16.4-1.45-2.07-.64-4.33-.88-6.48-1.05-.89-.07-1.78-.04-2.66-.15-.43-.05-.93-.12-1.27.21-.44.42-.24,1,.15,1.36.71.65,1.77-.41,1.06-1.06h0Z"/>
  <path d="M57.37,88.45c1.47-.68,3.4-.82,5.05-.88s3.59-.11,5.06.66c.85.45,1.61-.85.76-1.3-1.73-.9-3.92-.93-5.82-.87s-4.03.27-5.8,1.09c-.88.4-.11,1.7.76,1.3h0Z"/>
  <path d="M56.39,90.89c2.66,1.19,5.34,2.39,7.8,3.96s4.73,3.53,5.82,6.23c.36.88,1.81.5,1.45-.4-2.36-5.89-8.9-8.68-14.31-11.09-.87-.39-1.64.9-.76,1.3h0Z"/>
  <path d="M56.46,95.43c3.91,4.26,7.75,9.2,13.01,11.87.86.44,1.62-.86.76-1.3-2.56-1.3-4.74-3.23-6.76-5.24s-3.98-4.25-5.95-6.4c-.65-.71-1.71.35-1.06,1.06h0Z"/>
  <path d="M56.56,101.15c1.88,3.09,3.96,6.05,6.19,8.89s4.61,5.57,7.45,7.78c.75.59,1.82-.47,1.06-1.06-2.77-2.15-5.11-4.83-7.28-7.57s-4.27-5.74-6.13-8.8c-.5-.82-1.8-.07-1.3.76h0Z"/>
  <g class="cls-2">
    <path class="cls-3" d="M193.83,128.95c1.16-2.28,2.53-4.44,3.73-6.7,1.29-2.44,2.18-4.93,2.74-7.63s1.09-5.45,1.06-8.22c-.02-2.35-.33-4.69-.57-7.02s-2.85-3.02-4.19-1.14-2.73,3.49-4.01,5.3l4.11,1.73c1.03-2.64,2.52-5.07,3.17-7.85.71-3.01,1.6-5.94,2.63-8.86.75-2.12-2.28-3.81-3.76-2.19s-3.29,2.37-5.23,3.04l1.73,4.11c4.31-3.01,7.85-8.4,8.2-13.72.06-.98-.74-1.92-1.65-2.17-1.03-.28-1.94.22-2.54,1.03-1.2,1.61-2.56,3.11-4.03,4.48-2.14,1.99,1,5.04,3.18,3.18,1.39-1.19,2.18-3.07,2.81-4.74s1.15-3.57,1.09-5.38c-.07-2.1-2.35-2.77-3.84-1.59-.71.56-1.84.69-2.64,1.09-.44.22-.78.49-1.18.78-.44.33.37-.11-.2.09l2.19,3.76c1.32-1.42,2.27-3.01,3.29-4.65.95-1.53,1.43-2.83,1.42-4.65,0-1.67-1.92-2.85-3.39-1.94-2.17,1.35-4.74,1.82-6.96,3.07l2.73,3.53c2.96-2.98,6.43-5.54,6.18-10.2-.11-2.06-2.33-2.82-3.84-1.59-1.29,1.05-2.83,1.89-4.35,2.56l2.27,3.89c1.68-1.28,3.06-2.92,4.2-4.69,1.08-1.67,2.24-4.01,1.48-6.03-.61-1.62-2.42-2.17-3.76-.99-.67.58-1.52.69-2.33.96-1.18.39-2.13.94-3.1,1.7l3.18,3.18c1.16-1.23,2.85-1.94,3.88-3.27,1.35-1.75.75-3.91.02-5.79l-4.11,1.73c.16.24.05.15.02-.04-.04-.36.01-.67.13-1.01.07-.2.24-.21.01-.08-.64.39-.92.46-1.64.71-1.39.48-2.84.85-4.15,1.55-2.28,1.21-.7,4.77,1.73,4.11,3.96-1.06,8.28-7.51,5.78-11.4-.49-.76-1.6-1.41-2.54-1.03-2.86,1.14-6.2,1.82-8.31,4.24-1.33,1.53-.09,4.63,2.19,3.76,3.83-1.46,9.43-6.4,5.76-10.63-.91-1.05-2.91-.78-3.53.46-.11.2-.09.19.06-.04-.18.16-.19.18-.04.04-.22.07-.45.27-.66.37-.49.25-1,.42-1.52.6-1.12.38-2.27.68-3.38,1.09l2.54,3.31c.78-1.04,2.11-1.69,3.07-2.57,1.28-1.18,1.99-2.6,2.12-4.33.1-1.3-1.11-2.14-2.25-2.25.87.09.48.35.49.11,0,.17,0,0-.14-.25-.17-.29-.33-.59-.53-.87-.78-1.12-2.03-1.84-3.43-1.46-2.64.71-4.28,3.54-6.74,4.66l2.27,3.89c2.3-1.38,5.16-4.17,4.99-7.08-.11-2-1.82-3.46-3.71-3.86-2.22-.47-4.33.74-5.25,2.77-1.06,2.34,1.52,4.41,3.53,2.73,2.16-1.81,3.13-4.96.31-6.73-1.37-.86-3.56-1.45-5.13-.97-1.75.54-2.89,2.05-4.23,3.2l3.53,2.73c1.16-1.64,1.36-3.55.34-5.31-.62-1.07-2.02-1.39-3.08-.81-.8.44-1.52.75-2.25,1.33l3.53.46c-.43-.84-.44-1.98-.52-2.91-.24-2.88-4.29-2.91-4.5,0-.06.89-.28,2.25-.86,2.94l3.84,1.59c-.04-1.02.35-2,.27-3.03-.1-1.35-.79-2.7-1.84-3.56-.83-.68-1.9-.9-2.92-.56-.87.29-1.5,1-2.24,1.44l3.31,2.54c.46-1.64.45-3.68-.89-4.93-1.68-1.57-3.86-.58-5.08.97l3.76,2.19c.18-.77.17-1.52.25-2.3.17-1.84-2-2.62-3.39-1.94-2.33,1.14-3.29,4.21-4.08,6.46-.5,1.43-.89,2.82-.91,4.35-.02,1.78.35,3.53.36,5.31.02,2.89,4.52,2.9,4.5,0-.02-2.75-.72-5.27.2-7.93.3-.85.58-1.72.96-2.54.34-.73.8-1.55,1.24-1.77l-3.39-1.94c-.03.36,0,.76-.08,1.11-.46,1.99,2.27,4.08,3.76,2.19.16-.23.35-.44.55-.64-.28.16-.58.23-.91.19l-.99-.58c.26.23.23.13-.11-.3.1.24.12.32.05.24.08-.14-.17.79-.14.68-.53,1.88,1.62,3.55,3.31,2.54.45-.27.87-.59,1.27-.92.11-.09.29-.39.24-.19l-.16.05c-1.2-.6-1.61-.64-1.22-.1-.02.1.09.57.03.91-.11.69-.23,1.37-.21,2.08.06,1.79,2.52,3.17,3.84,1.59,1.44-1.72,2.02-3.92,2.18-6.13h-4.5c.15,1.79.3,3.56,1.13,5.18.72,1.41,2.48,1.3,3.53.46.34-.27.95-.41,1.34-.63l-3.08-.81c.13.23-.16.52-.34.77-.64.9-.25,2.28.58,2.9.94.7,2.08.57,2.95-.18.69-.59,1.29-1.27,1.99-1.85.16-.13.62-.26.2-.22.39-.04,1.08.23,1.42.37.07.03.28.06.16.06-.01,0,.03.14,0,0-.06-.31-.24-.6-.24-.94s.11.14.03-.11c-.06-.18.08,0-.1.12-.24.17.2-.23-.02.02s-.48.48-.74.69l3.53,2.73c.1-.22.19-.53.4-.67.04-.03.29.19.31.15-.04.07-.08-.52-.11-.54.03.02-.14.38-.21.5-.62,1.09-1.68,2.04-2.58,2.58-2.53,1.52-.32,5.06,2.27,3.89,1.03-.47,1.91-1.26,2.78-1.96.54-.44,1.08-.89,1.63-1.32.31-.24.64-.45.94-.69.43-.35.42-.19-.34-.3.02,0-.95-.07-.9-.39-.01.09.21.36.26.44.21.36.43.71.69,1.05.79,1.01,1.74,1.47,3,1.6l-2.25-2.25c-.05.72-.97,1.32-1.54,1.76-1.14.9-2.15,1.69-3.03,2.86-1.16,1.54.77,3.96,2.54,3.31,1.4-.52,2.85-.87,4.24-1.4s3.23-1.25,3.97-2.74l-3.53.46c-.06-.06-.09-.13-.1-.21,0-.25,0-.24,0,.03.04-.24.03-.22-.03.06.09-.17.07-.12-.06.13-.26.52-.6.86-1.01,1.27s-.85.77-1.33,1.09c-.28.19-.57.37-.87.53-.1.05-.92.41-.38.2l2.19,3.76c1.56-1.79,4.21-2.24,6.32-3.08l-2.54-1.03c.11.17.09.23.1.11-.03.45.02.32-.06.64-.17.67-.46,1.24-.83,1.82s-.81,1.11-1.32,1.59c-.28.26-.34.29-.55.44-.13.08-.26.15-.39.22.22-.09.21-.1-.03-.03l1.73,4.11c.44-.23,1.31-.52,2.16-.79,1.06-.35,2.13-.7,3.13-1.2,2.02-1,3.32-3.19,1.95-5.31s-5.08-.77-4.11,1.73c.18.48.37.95.51,1.45.09.32.07.6.14.67-.01.28,0,.26.02-.05.14-.28.15-.31.03-.1.2-.24.21-.27.04-.09-.16.13-.17.15-.05.05.23-.14-.38.25-.44.29-.28.19-.55.37-.82.57-.78.57-1.5,1.18-2.17,1.89-.84.88-.88,2.31,0,3.18.95.95,2.22.75,3.18,0,.71-.55,1.64-.66,2.46-.94,1.14-.39,2.07-.93,2.97-1.72l-3.76-.99s.14.34.11.36c-.07.04.08-.38-.05,0,.11-.33-.14.43-.19.56-.18.5-.69,1.33-1.07,1.89s-.83,1.14-1.3,1.67c-.23.26-.47.51-.72.76-.12.12-.79.69-.39.39-2.31,1.76-.41,5.06,2.27,3.89,1.9-.84,3.66-1.95,5.27-3.26l-3.84-1.59c.17,3.2-2.84,4.99-4.86,7.02-1.81,1.82.49,4.79,2.73,3.53s4.79-1.72,6.96-3.07l-3.39-1.94c0,.64.07.94-.14,1.35.18-.35-.18.26-.22.32-.21.36-.44.7-.66,1.06-.73,1.2-1.41,2.35-2.37,3.39-1.43,1.54-.05,4.55,2.19,3.76.94-.33,1.74-1,2.37-1.28,1.31-.58,2.48-.92,3.64-1.83l-3.84-1.59c.07,2.09-1.02,5.6-2.58,6.93l3.18,3.18c1.76-1.63,3.3-3.46,4.73-5.39l-4.19-1.14c-.13,1.93-1.06,3.79-2.06,5.41s-2.3,3.3-3.91,4.43c-.92.64-1.39,1.73-.92,2.81.42.97,1.58,1.68,2.65,1.3,2.65-.92,5.28-2.09,7.21-4.2l-3.76-2.19c-1.03,2.92-1.92,5.85-2.63,8.86-.65,2.77-2.14,5.22-3.17,7.85-.4,1.03.36,2.27,1.3,2.65,1.09.44,2.15.02,2.81-.92,1.28-1.81,2.72-3.49,4.01-5.3l-4.19-1.14c.23,2.15.49,4.3.56,6.47.08,2.57-.36,5.07-.89,7.57s-1.23,4.57-2.38,6.73-2.51,4.3-3.63,6.52c-1.31,2.58,2.57,4.86,3.89,2.27h0Z"/>
  </g>
  <g class="cls-2">
    <path class="cls-3" d="M97.67,50.01c-.22-2.51-.2-5.03-.35-7.54-.14-2.3-.61-4.39-1.32-6.58s-1.54-5.28-4.36-5.1c-2.32.14-4.56,1.93-6.41,3.2-1.02.7-2.31,1.31-2.96,2.39-.91,1.52-.19,2.85.13,4.4l4.11-1.73c-1.78-2.47-5-3.76-7.75-1.96-1.04.68-2.05,1.6-2.71,2.67s-.53,2.07-.4,3.25l4.42-.6c-.52-1.57-1.57-2.49-2.87-3.44-.84-.62-2.02-.26-2.73.35-1.16,1-2.42,1.86-3.42,3.02-.69.79-.84,1.79-.35,2.73.32.61,1.03,1.44,1.12,2.15l3.39-1.94c-1.06-.64-1.91-1.53-2.87-2.3-1.15-.92-2.69-.87-3.53.46-.45.71-1.45,1.51-2.08,2.29-.93,1.16-1.54,2.53-1.14,4.04.31,1.19,1.12,2.08,2.06,2.81.68.53,1.68,1.14,1.96,1.59l2.54-3.31c-.22-.06-.12-.09,0,0-.12-.1-.3-.18-.42-.27-.32-.23-.64-.55-.93-.83-.56-.55-1.09-1.11-1.4-1.58-.49-.75-1.6-1.42-2.54-1.03-2.39.98-4.78,3.09-5.3,5.74-.61,3.13,2.3,5.21,3.95,7.41l2.54-3.31c.35.12.08.04-.1-.08s-.38-.24-.57-.36c-.38-.25-.75-.52-1.13-.77-.81-.53-1.62-.73-2.48-1.09.34.14.01-.06-.13-.19-.51-.45-1.09-.75-1.79-.74-1.26,0-2.26,1.03-2.57,2.19-.42,1.56.21,3.54.57,5.07.17.71.32,1.41.73,2.03.56.83,1.78,1.43,2.23,2.09l3.08-3.08c-.08-.04-.6-.41-.25-.14-.27-.2-.51-.43-.76-.65-.58-.51-1.14-1.03-1.72-1.52-1.12-.95-2.46-2.14-4.05-1.78-2.17.49-2.2,2.56-1.98,4.33.03.26.1.33.06.68.08-.61-.35.74-.41.89-.37.92-.73,1.82-1.01,2.77-.43,1.42.74,2.83,2.17,2.85-.32,0-.55-.28-.28-.02-.06-.06.56.4.37.26.5.39.95.84,1.43,1.24,1.06.89,2.05,1.6,3.47,1.73,2.24.2,3.04-3.19,1.14-4.19-2.74-1.44-6.42-3.45-8.58.04-.69,1.12-1.19,2.73-1.43,4.03-.35,1.88.06,3.47,1.64,4.63v-3.89c-1.69.8-2.36,2.56-1.97,4.33.28,1.29,1.08,2.54,1.46,3.67.18.55.03-.04.06.54.02.43.05.86.1,1.28.11.9.3,1.73.68,2.56.77,1.66,2.28,2.71,4.03,3.15l-.99-3.76c.58-.45-.05-.14-.43-.04-.4.11-.81.21-1.21.34-1.06.35-2.22.92-2.54,2.1-.3,1.08.25,1.95.9,2.75.25.31.53.61.79.91.1.11.19.24.3.34.55.49-.21.5-.23-.77l.31-1.14-.06.08,1.34-1.03c-.22.08-.12.08.28-.01-.24-.02-.47.02-.68.11-.56.17-1.04.53-1.34,1.03-.63,1.06-.2,1.79.17,2.77.07.12.06.1-.03-.06.05.17.1.34.14.51.08.34.15.68.21,1.02.12.59.19,1.21.4,1.78l2.17-2.85c-2.24-.15-4.4,1.05-4.22,3.55.12,1.76,1.31,3.3,2.28,4.7l.35-2.73c-3.62,4.27,1.59,8.37,3.58,11.73,1.48,2.5,5.22.29,3.89-2.27-.47-.91-1.37-1.7-2.12-2.37-.98-.87-2.04-1.76-3.23-2.31-1.41-.66-3.25-.77-4.18.74-.74,1.21-.38,2.73-.02,4.01.16.58.35,1.14.53,1.71.06.2.12.41.18.61.03.1.07.35,0-.11.03.2.04.41.06.62.18,1.74.3,3.69,1.42,5.12.51.65,1.18,1.13,1.85,1.61.53.37,1.27.7,1.66,1.25.25.36.57,1.26.92,1.77.52.73,1.11,1.41,1.73,2.06,1.25,1.31,2.18,2.49,2.87,4.17.81,1.96,1.92,3.34,3.7,4.52,2.41,1.62,4.67-2.28,2.27-3.89-2.05-1.37-2.24-3.94-3.75-5.87-.88-1.12-1.98-2.05-2.85-3.17-.78-.99-1.07-2.2-2.01-3.08-.81-.76-2.2-1.25-2.85-2.14-.35-.48-.41-2.02-.5-2.83-.1-.95-.33-1.76-.61-2.66-.16-.51-.31-1.02-.44-1.55-.02-.09-.21-.58-.09-.4.02.15.02.11,0-.11-.04.37-.19.7-.45,1l-.99.58c.36-.12.13-.13-.68-.04.11.02.22.05.33.09-.35-.29.12.08.22.14.5.33.94.62,1.34.96.46.38.9.79,1.31,1.21.17.17.33.35.48.53.34.38-.22-.4.03.08l3.89-2.27c-.82-1.37-1.95-2.54-2.88-3.82-.39-.54-.95-1.35-1.15-1.81-.06-.14-.23-.88-.19-.58-.03-.21.11-.27-.06-.07.61-.72.95-1.87.35-2.73-.53-.76-1.09-1.52-1.52-2.35-.21-.4.04.13-.13-.29-.14-.35-.15.18-.04-.14l-.19.69c-.14.23-.32.41-.54.53-.05.04-.11.06-.17.07.22,0,.43,0,.65.02,1.39.09,2.65-1.52,2.17-2.85-.26-.71-.34-1.49-.49-2.22-.08-.37-.15-.73-.26-1.09-.09-.29-.19-.59-.34-.85-.06-.1-.17-.47-.06-.06l-.23,1.73.03-.07-1.34,1.03c-.89.35.08,0,.39-.1.57-.18,1.03-.53,1.34-1.03.52-.84.45-1.9-.03-2.75-.25-.44-.66-.84-1-1.22-.17-.18-.33-.37-.5-.55-.59-.66.08-.02.04.68l-.66,1.59c-.18.2-.19.1.1,0,.4-.13.81-.22,1.22-.33.86-.24,1.58-.54,2.28-1.09,1.36-1.06.51-3.39-.99-3.76-1.96-.49-1.28-2.45-1.67-4.14-.23-.99-.75-1.89-1.16-2.82-.1-.22-.17-.75-.34-.97-.15-.19.07.06-.02.22-.14.25-.6.65-.1.41,1.68-.79,1.23-2.99,0-3.89.91.67.28.81.42.45s.19-.81.31-1.18c.06-.18.68-1.56.58-1.65,0,0-.37.09-.38.1-.2-.05-.15-.04.14.03.18.05.36.11.54.18.76.31,1.49.77,2.21,1.15l1.14-4.19c.7.06.12-.08-.17-.32-.5-.39-.95-.84-1.43-1.24-.99-.83-2.02-1.63-3.38-1.65l2.17,2.85c.41-1.37,1.17-2.68,1.48-4.06.17-.72.05-1.41-.04-2.14-.03-.24-.01-.19-.05-.34-.13-.55.09-.25-.15.07l-.81.81c-1.63.94-2.02-.44-1.19.26.2.17.21.15.31.23.49.38.94.81,1.4,1.22.8.71,1.61,1.55,2.55,2.07,1.86,1.02,4.41-1.13,3.08-3.08-.57-.83-1.28-1.4-2.05-2.02-.41-.33-.3-.31-.23-.08-.08-.27-.14-.55-.2-.82-.16-.7-.32-1.41-.44-2.12-.08-.49,0-.37-.09-.73s.08-.1-.04-.11c.11,0-.32.67,0,.23l-.81.81.1-.07-1.14.31h.1c-.38-.11-.76-.21-1.14-.31-.58-.26-.07-.04.16.16.27.23.55.44.86.6.42.22.75.25,1.18.39.13.03.12.01-.06-.06.15.07.31.15.45.24,1.18.68,2.19,1.6,3.49,2.06,1.76.62,3.71-1.74,2.54-3.31-.55-.75-1.15-1.44-1.76-2.13-.44-.5-1.49-1.4-1.62-2.11-.1-.53-.06.13,0-.14.05-.25.3-.56.46-.77.38-.51,1.01-1.14,1.6-1.39l-2.54-1.03c1.21,1.84,3.24,4.15,5.45,4.74,1.88.5,3.56-1.6,2.54-3.31-.51-.86-1.22-1.46-2-2.05-.45-.34-1.29-1.21-1.61-1.31.09.03.13.36.06.41.26-.2.51-.68.74-.92.71-.75,1.47-1.45,2.02-2.33l-3.53.46c1.26,1.01,2.39,2.17,3.78,3.01s3.6-.2,3.39-1.94-.96-2.94-1.74-4.42l-.35,2.73c1.01-1.16,2.27-2.02,3.42-3.02l-2.73.35c.25.19.7.44.81.75.35,1.06,1.33,1.78,2.47,1.61,1-.15,2.08-1.08,1.95-2.21-.05-.41-.06-.87-.16-1.27.02.14.02.15.01.01,0-.18-.01-.13-.03.13.12,0-.25.06.07,0,.16-.02.5-.52.65-.65.65-.55,1.31-.79,1.94.07,1.48,2.05,4.64.85,4.11-1.73-.04-.22-.25-1.64-.49-1.74.19.08-.13,1.06-.24,1.03.07.02.42-.26.5-.31.87-.57,1.72-1.18,2.59-1.74.54-.35,1.08-.68,1.64-.99s.76-.41,1.15-.52c.42-.12-.32-.11.04-.02-.62-.04-1.06-.28-1.34-.75.05.07.09.14.13.22.25.56.34.67.54,1.24.44,1.19.81,2.41,1.14,3.63.1.39.2.78.28,1.18.04.24.04.24,0,0,.01.12.02.23.04.35.02.3.05.61.07.91.19,2.65.15,5.32.38,7.97.11,1.21.96,2.25,2.25,2.25,1.14,0,2.36-1.03,2.25-2.25h0Z"/>
  </g>
  <path d="M55.93,107.92c1.66,3.55,4.3,6.76,6.69,9.84s4.93,6.38,7.8,9.16c.69.67,1.76-.39,1.06-1.06-2.81-2.72-5.26-5.88-7.65-8.96s-4.96-6.22-6.6-9.73c-.41-.87-1.7-.11-1.3.76h0Z"/>
</svg>