<?xml version="1.0" encoding="UTF-8"?>
<svg id="Layer_23" data-name="Layer 23" xmlns="http://www.w3.org/2000/svg" viewBox="0 0 256 256">
  <defs>
    <style>
      .cls-1 {
        fill: #fff;
      }

      .cls-2 {
        opacity: .3;
      }

      .cls-3 {
        fill: #435054;
      }
    </style>
  </defs>
  <g class="cls-2">
    <path class="cls-3" d="M74.18,124.6c2.14-4.26,3.85-8.58,5.48-13.05,1.01-2.76,3.22-4.62,5-7.57,2.61-4.31,4.13-8.61,4.84-13.56s1.62-11.37,7.14-12.52c4.32-.9,8.86-.1,13.2-1.09s6.7-4.13,10.63-5.51c3.27-1.15,4.59-3.07,6.02-6.17s2.27-7.93,4.76-10.2l-4.71-.61c2.91,3.95,5.37,8.51,8.55,12.19,6.06,7.01,15.44,7.15,22.86,11.86,7.8,4.95,7.12,15.57,11.56,22.86,1.9,3.11,3.71,3.53,6.87,4.51,4.6,1.43,4.13,8.14,3.9,12.21s5.78,3.85,6,0c.33-5.85.02-16.01-7.02-17.89-2.81-.75-4.3-1-5.67-4.03-.94-2.07-1.55-4.25-2.21-6.42-1.2-3.97-2.41-8.03-4.9-11.41-5.56-7.56-15-7.76-22.56-12.13-5.4-3.12-8.53-9.79-12.21-14.77-1.17-1.59-3.17-2.02-4.71-.61-2.34,2.14-3.33,5.76-4.51,8.6-.64,1.53-1.29,4.11-2.46,5.33-1.3,1.35-3.39,1.43-5.09,2.32-1.86.97-3.16,2.75-5.03,3.59-2.09.94-4.64.86-6.89.95-3.95.16-8.44-.03-11.93,2.13-8.42,5.22-6.35,17.58-10.47,25.36-1.81,3.42-5,6.22-6.39,9.73-1.72,4.34-3.12,8.66-5.24,12.88-1.73,3.44,3.45,6.48,5.18,3.03h0Z"/>
  </g>
  <g>
    <path class="cls-1" d="M55.26,126.4c.56,1.65,1.18,5.13,2.03,6.72,1.3,2.44,3.76,13.39,4.06,17.14.25,3.2,3.1,8.15,4.94,11.14,2.03-2.72,9.17-2.1,12.41-3.89,2.31-1.27-9.29-10.33-8.31-12.97s.63-17.8,3.94-22.04c2.69-3.44.34-9.06-.45-13.66-1.44-8.44-11.93-1.95-16.22.4-3.52,1.93-5.66,2.17-6.07,6.71-.24,2.59,3.19,6.03,2.99,8.59"/>
    <path d="M53.82,126.8c.54,1.67.85,3.4,1.38,5.07.39,1.22.92,2.16,1.29,3.23.97,2.82,1.63,5.76,2.25,8.67.32,1.52.62,3.04.87,4.57.19,1.15.23,2.34.48,3.48.82,3.69,2.96,7.15,4.9,10.34.46.75,1.73,1.08,2.36.3,1.15-1.42,3.41-1.63,5.09-1.91,2.13-.36,4.33-.56,6.33-1.42,3.29-1.41.92-4.5-.61-6.32-1.99-2.37-4.47-4.51-6.03-7.21-.16-.28-.19-.37-.24-.47-.05-.12-.06-.25-.1-.37.02.07,0,.3.03.07-.07.47.06-.08.1-.19.07-.26.12-.54.16-.81.25-1.56.36-3.15.48-4.72.31-3.94.52-7.95,1.43-11.81.34-1.45.77-2.81,1.62-4.04,1.48-2.15,1.62-4.65,1.28-7.17-.36-2.67-1.07-5.32-1.63-7.95-.38-1.75-1.31-3.45-2.94-4.31-3.18-1.67-7.16-.05-10.13,1.32-1.73.8-3.38,1.74-5.05,2.66-1.8.99-3.94,1.73-5.32,3.31-1.47,1.69-2.12,4.43-1.53,6.59.34,1.27,1.03,2.45,1.64,3.61.53.99,1.18,2.07,1.15,3.23-.06,1.93,2.94,1.93,3,0,.12-3.86-4.72-7.18-2.31-11.03.8-1.29,2.48-1.85,3.77-2.52,1.43-.74,2.82-1.57,4.25-2.31s2.98-1.49,4.57-1.99c1.25-.4,2.75-.81,4.05-.42,1.5.45,1.82,1.96,2.08,3.33.46,2.42,1.24,4.8,1.5,7.26.11,1.04.16,2.12-.11,3.14-.25.95-.84,1.61-1.32,2.44-.78,1.36-1.22,2.93-1.55,4.46-.81,3.7-1.08,7.51-1.38,11.28-.12,1.53-.2,3.06-.41,4.58-.1.74-.51,1.8-.35,2.69.46,2.57,3,4.85,4.67,6.7,1.06,1.18,2.18,2.34,3.14,3.61.19.25.38.51.54.78.05.09.39.68.22.37.14.24.02.04.18-.36.02-.05.27-.35.31-.32-.03-.02-.48.23-.57.26-2.1.82-4.48.92-6.68,1.34-1.93.37-4.17.91-5.47,2.51l2.36.3c-1.85-3.02-4.04-6.37-4.66-9.92-.48-2.69-.78-5.38-1.36-8.06-.62-2.87-1.27-5.79-2.25-8.56-.36-1.03-.89-1.99-1.22-3.03-.53-1.67-.84-3.41-1.38-5.07-.59-1.83-3.49-1.05-2.89.8h0Z"/>
  </g>
  <g>
    <path class="cls-1" d="M202.54,120.78c-.46,1.68-3.63,11.94-4.23,14.64-.83,3.68-1.61,2.79-1.69,6.56-.07,3.21-5.71,11.75-7.36,14.85-2.19-2.6-10.88.44-14.21-1.14-2.38-1.13,9.44-13.22,8.31-15.8s-1.03-12.33-1.41-14.85c-.42-2.79-.41-3.45-.88-6.24-.73-4.33,1.66-5.65,2.18-10.29.95-8.51,8.25-8.54,12.66-6.45,3.63,1.72,4.87,7.84,5.55,12.36.38,2.58.07,3.21.42,5.76"/>
    <path d="M201.1,120.38c-1.27,4.56-2.78,9.04-3.98,13.62-.3,1.13-.52,2.29-.98,3.37-.52,1.2-.87,2.26-.97,3.58-.2,2.52-1.33,4.82-2.62,7.18-1.47,2.68-3.14,5.25-4.59,7.95l2.36-.3c-2.24-2.43-6.71-1.46-9.58-1.23-.88.07-1.77.14-2.65.14-.4,0-.8,0-1.19-.05-.27-.03-.83-.28-1.07-.23-.03,0-.08-.04-.08-.04.15-.09.59.93.48.62,0-.03,0,.23,0,.23.28-.43.11-.45.38-.97,1.3-2.49,3.15-4.72,4.77-7,1.33-1.87,3.41-4.29,3.56-6.7.07-1.02-.45-2.04-.61-3.05-.27-1.72-.35-3.48-.44-5.23-.17-3.39-.37-6.7-.79-10.06-.25-1.96-.9-4.12-.53-6.09s1.44-3.69,1.89-5.62.43-3.97,1.58-5.7c.79-1.19,1.98-1.92,3.35-2.23,1.44-.33,2.98-.15,4.39.26,1.79.52,2.98,1.47,3.88,3.13,1.14,2.11,1.65,4.55,2.07,6.88s.37,4.88.68,7.33c.24,1.89,3.24,1.91,3,0-.3-2.38-.23-4.75-.62-7.12s-.84-4.58-1.7-6.74c-.78-1.97-1.87-3.9-3.66-5.13-1.31-.89-3-1.38-4.56-1.61-3.44-.52-6.99.39-9.12,3.29-1.35,1.83-1.65,3.9-2.03,6.08s-1.49,4-1.98,6.09c-.55,2.33.03,4.58.33,6.89.25,1.99.49,3.33.59,5.19.21,3.8.17,7.66.83,11.42.11.61.29,1.17.46,1.76.08.29.13-.2.02.15.13-.41-.1.28-.14.39-.29.85-1.15,2.16-1.78,3.1-1.77,2.65-3.81,5.13-5.47,7.85-.61,1-1.34,2.2-1.31,3.41.06,1.86,2.03,2.28,3.54,2.43,2.13.21,4.3-.12,6.43-.28,1.37-.1,3.98-.55,5,.56.64.7,1.91.52,2.36-.3,1.27-2.36,2.73-4.62,4.04-6.96s2.88-4.9,3.39-7.56c.23-1.21.06-2.47.5-3.64.49-1.31,1.01-2.51,1.34-3.88.58-2.4,1.32-4.77,2.02-7.15s1.47-4.81,2.15-7.23c.52-1.86-2.37-2.66-2.89-.8h0Z"/>
  </g>
  <g>
    <path class="cls-1" d="M127.47,33.21c.06,18.74.4,19.7-2.07,23.98-3.23,5.59-4.6,4.26-8.91,9.03-3.6,3.98-17.51,3.05-22.34,5.49s-8.27,7.85-9.56,13.26c-.93,3.89-2.31,10.72-2.28,13.48.04,4.52-8.09,9.72-11.08,12.57-2,1.9-1.88,4.88-4.06,6.51-3.63,2.73,2.21,8.56-1.07,11.79-2.52,2.48-13.36-6.87-14.52-9.53-2.98-6.85-5.25-8.57-4.39-15.97,1.01-8.72-.09-14.84,4.09-22.28,5.05-9,.11-20.11,4.51-29.48,6.17-13.14,8.97-15.98,21.32-23.31,8.19-4.86,11.26-8.75,21.32-9.26,3.47-.18,8.46-4.46,23.35,1.14,3.22,1.21,3.82,3.67,5.98,6.51"/>
    <path d="M125.97,33.21c.02,5.35.19,10.73-.02,16.08-.03.65-.06,1.31-.12,1.96-.07.71-.05.71-.21,1.47-.09.44-.2.88-.35,1.31-.23.68-.11.38-.43,1.04-.77,1.56-1.69,3.14-2.88,4.41-1.44,1.54-3.34,2.57-4.89,4.01-.76.7-1.39,1.59-2.23,2.2-.78.57-1.73.89-2.64,1.16-2.34.69-4.79,1-7.21,1.3-4.58.56-9.64.66-13.53,3.44-5.17,3.71-7.58,9.45-8.89,15.47-.61,2.81-1.16,5.65-1.53,8.51-.13,1.04-.13,2.08-.24,3.12s-.72,2.01-1.34,2.84c-1.57,2.08-3.67,3.77-5.68,5.4s-4.1,3.01-5.22,5.3c-.53,1.09-.86,2.32-1.56,3.32-.75,1.06-1.86,1.6-2.31,2.9-.74,2.15.21,4.42.7,6.52.18.78.39,1.68.15,2.47-.07.23-.13.31-.25.53-.05.09-.45.46-.15.22-.09.07-.05.09-.39.05-1.38-.15-3.25-1.35-4.57-2.25-1.74-1.2-3.38-2.56-4.89-4.04-1.4-1.36-2.17-2.38-2.98-4.14-1.11-2.41-2.56-4.75-3.31-7.31-.89-3.06-.32-6.15-.07-9.26.5-6.21.27-12.51,3.23-18.19,1.55-2.98,2.54-5.84,2.9-9.19s.17-6.81.19-10.21.22-6.56,1.35-9.66c1-2.75,2.49-5.44,3.91-8,2.07-3.72,4.56-7,7.87-9.7,4.23-3.44,9.16-5.93,13.7-8.92,2.14-1.41,4.26-2.87,6.55-4.02,2.52-1.26,5.29-1.97,8.09-2.25,1.52-.15,2.94-.24,4.41-.66,1.4-.39,2.79-.8,4.23-1,5.23-.75,10.7.6,15.55,2.45,2.84,1.08,3.84,3.7,5.54,6,1.14,1.53,3.74.04,2.59-1.51-1.74-2.34-2.95-5.25-5.66-6.67-2.99-1.57-6.68-2.44-9.99-3-4.16-.7-8.22-.53-12.28.61-.57.16-1.13.33-1.7.47-.26.06-.52.12-.78.16-.1.02.26-.02-.05,0-.34.03-.69.04-1.03.07-3.05.22-6.04.81-8.86,2.01-2.48,1.05-4.74,2.49-6.98,3.97-2.71,1.79-5.48,3.46-8.24,5.16-4.03,2.48-8.05,5.18-11.14,8.81-3.35,3.93-5.7,8.65-7.85,13.31-3.03,6.61-1.89,13.73-2.29,20.75-.09,1.67-.3,3.33-.73,4.95-.47,1.77-1.29,3.28-2.1,4.91-1.46,2.91-2.3,6-2.71,9.22s-.46,6.47-.7,9.7-.82,6.6,0,9.9c.67,2.71,2.13,5.17,3.32,7.66.47.98.82,2.05,1.46,2.94.52.74,1.13,1.42,1.76,2.07,1.58,1.64,3.34,3.11,5.17,4.47,1.67,1.24,3.5,2.45,5.51,3.08,1.85.58,3.62.27,4.7-1.47,1.29-2.08.61-4.57.02-6.76-.24-.91-.65-2.02-.46-2.99s1.39-1.6,1.97-2.4c.86-1.18,1.23-2.61,1.9-3.89.57-1.08,1.44-1.81,2.37-2.58,2.11-1.76,4.31-3.42,6.26-5.37,1.77-1.78,3.61-3.97,3.85-6.57s.5-5.1.99-7.67c.57-2.95,1.09-6,2.17-8.81,1.16-3.03,3.05-5.89,5.6-7.92,1.89-1.51,3.92-2.15,6.27-2.56,4.97-.86,10.26-.79,15.05-2.49.93-.33,1.86-.73,2.67-1.3,1.1-.78,1.92-1.88,2.91-2.77,1.59-1.43,3.5-2.46,4.92-4.08,1.85-2.11,3.56-4.92,4.15-7.72.71-3.37.52-6.96.51-10.38s-.04-6.66-.05-9.99c0-1.93-3.01-1.93-3,0h0Z"/>
  </g>
  <g>
    <path class="cls-1" d="M127.47,33.21c-.18,5.84.79,15.74,3.12,21.01,3.04,6.88,12.34,10.42,19.05,13.43,4.81,2.15,13.48,5.55,17.02,9.73,2.15,2.54,2.06,6.11,3.24,9.15s1.41,10.06,3.47,12.75c4.78,6.25,13.2,3.66,15.87,11.03.89,2.45.43,3.49.68,6.1.17,1.75-1.04,5.07-.56,6.69.78,2.66.05,1.74,2,3.22s14.72-16.1,14.73-23.7c0-9.44,6.2-18.48,1.33-26.57-2.05-3.39-.29-5.38-2.03-8.91-.95-1.93-3.75-6.86-4.4-8.91-2.29-7.21-.54-11.76-5.75-17.14-6.14-6.33-18.37-15.08-26.74-18.17s-27.07-8.57-38.81-2.06c-3.79,2.11-1.19,5.64-2.18,10.14"/>
    <path d="M125.97,33.21c-.15,5.62.4,11.42,1.72,16.89.6,2.48,1.39,5,2.88,7.1s3.48,3.86,5.64,5.34c4.47,3.06,9.63,5.07,14.57,7.23s10.46,4.19,14.23,8.02c2.15,2.18,2.24,5.28,3.08,8.06.72,2.37,1.26,4.67,1.7,7.12.41,2.3.81,4.89,2.15,6.87,1.42,2.1,3.57,3.56,5.87,4.54,2.08.89,4.34,1.4,6.36,2.43s3.46,2.76,3.99,5.07c.31,1.33.15,2.73.24,4.08s-.15,2.49-.36,3.78c-.19,1.16-.4,2.35-.16,3.52.17.84.35,1.98.82,2.72.69,1.09,2.32,2.19,3.64,1.83,1.19-.32,2.18-1.33,3.02-2.19,2.88-2.95,5.26-6.5,7.35-10.04s4.11-7.28,4.74-11.27c.15-.98.14-1.95.19-2.95.1-1.81.42-3.59.81-5.35.67-3.05,1.56-6.05,2.03-9.14s.52-6.17-.55-9.07c-.54-1.45-1.54-2.73-1.92-4.23-.34-1.36-.16-2.8-.36-4.18-.36-2.53-1.87-4.77-3.03-6.99s-2.14-4.18-2.71-6.53c-.63-2.61-.8-5.3-1.36-7.92s-1.7-5-3.44-7.06c-3.57-4.23-8.35-7.7-12.84-10.87s-9.61-6.36-14.94-8.42c-4.27-1.64-8.72-2.9-13.19-3.84-5.46-1.14-11.14-1.82-16.72-1.26-2.75.28-5.46.83-8.03,1.87-2.32.95-4.73,2.16-5.21,4.87-.43,2.43.38,4.88-.11,7.32-.38,1.89,2.51,2.69,2.89.8.26-1.3.34-2.6.26-3.92-.07-1.15-.32-2.4-.14-3.54.33-2.09,3.61-2.91,5.31-3.42,5.08-1.51,10.55-1.4,15.76-.72,9.38,1.21,18.67,4.13,26.77,9.03,4.86,2.94,9.5,6.29,13.77,10.03,1.91,1.68,3.99,3.44,5.33,5.62,1.21,1.96,1.66,4.17,1.99,6.42.39,2.66.7,5.36,1.59,7.91.76,2.19,1.94,4.25,3.02,6.28.43.81.88,1.62,1.29,2.45.64,1.29.83,2.53.87,3.95.04,1.3.14,2.58.6,3.8.58,1.53,1.55,2.82,1.98,4.43,1.56,5.78-1.23,11.91-2.23,17.56-.27,1.49-.47,3.01-.52,4.52-.03.85-.03,1.62-.2,2.44-.37,1.75-1.02,3.45-1.78,5.07-1.78,3.83-4.04,7.48-6.58,10.85-.99,1.31-2.04,2.6-3.23,3.75-.2.19-.4.37-.61.55-.29.25-.09.08-.45.33-.06.04-.13.08-.19.11-.32.19.01.01.01,0,0,.11-.62-.06.1.01-.19-.02.48.05.44.13.02-.05-.95-.66-.87-.63-.35-.17,0,.16-.03.02-.16-1.05-.56-1.89-.46-2.97.12-1.23.43-2.43.58-3.65.16-1.33-.01-2.69-.03-4.03-.04-2.52-.76-5-2.37-6.97-1.4-1.72-3.37-2.72-5.41-3.49-3.95-1.5-8.58-2.55-9.97-7.11-.74-2.42-1.01-4.95-1.52-7.42s-1.32-4.67-1.89-7.04c-.66-2.74-1.79-5.04-3.95-6.9-1.97-1.69-4.22-3.02-6.52-4.21-4.57-2.37-9.38-4.25-14.06-6.38s-9.79-4.52-12.68-8.82c-1.3-1.94-1.95-4.21-2.47-6.46-.64-2.76-1.03-5.57-1.28-8.39-.21-2.45-.32-4.91-.25-7.36.05-1.93-2.95-1.93-3,0h0Z"/>
  </g>
  <path d="M128.11,25.26c4.77.02,9.78,0,14.44,1.2,1.55.4,2.9.98,4,2.04,2.61,2.52,6.45,2.59,9.87,2.9,2.51.23,4.77.57,7.07,1.66,2.42,1.15,4.51,2.76,6.61,4.41,1.19.94,2.45,1.81,3.52,2.9.9.91,1.64,1.96,2.44,2.96,1.48,1.82,3.39,2.85,5.25,4.22s3.65,2.86,5.24,4.51c1.89,1.96,2.86,4.63,3.52,7.22.74,2.93,1.04,5.95,1.74,8.88s1.93,5.26,3.82,7.57c1.66,2.02,3.62,3.87,4.94,6.15,1.44,2.49,2.03,5.41,2.38,8.24.73,5.96.52,12.05.23,18.03-.05.96,1.45.96,1.5,0,.28-5.65.46-11.37-.11-17.02-.29-2.89-.77-5.81-1.93-8.49-.73-1.68-1.79-3.13-2.96-4.53-1.79-2.13-3.83-4.12-5.13-6.61-1.5-2.85-1.79-6.33-2.35-9.46s-1.35-6.18-2.94-8.95c-1.03-1.79-2.68-3.2-4.24-4.52s-3.24-2.59-5-3.7c-2.38-1.5-3.62-3.95-5.6-5.85s-4.45-3.71-6.76-5.3c-2-1.38-4.33-2.68-6.72-3.23s-4.78-.58-7.15-.85c-1.99-.22-4.3-.5-5.84-1.91-1.32-1.2-2.57-2.03-4.31-2.55-4.93-1.48-10.41-1.41-15.5-1.43-.97,0-.97,1.5,0,1.5h0Z"/>
  <path d="M128.48,30.06c3.04,3.11,5.73,6.37,9.73,8.3s8.56,2.74,13.1,3.34,9.28,1.94,12.91,5.17c1.67,1.48,3.15,3.16,4.8,4.65,1.54,1.4,3.22,2.5,5.07,3.45s3.85,1.8,5.4,3.24c1.72,1.6,3.08,3.8,3.91,5.99s1.31,4.4,2,6.57,1.38,4.16,2.23,6.17,1.9,4.14,3.12,6.07c.83,1.31,1.79,2.48,2.37,3.93,1.12,2.79,1.44,5.9,1.54,8.87.12,3.93-.22,7.89-1.01,11.73-.67,3.25-1.63,6.58-3.47,9.38-.53.81.76,1.56,1.3.76,3.5-5.3,4.47-12.45,4.68-18.66.11-3.28-.04-6.62-.78-9.83-.3-1.3-.71-2.58-1.29-3.77-.81-1.64-2.02-3.06-2.92-4.65-2.36-4.15-3.84-8.72-5.19-13.28-1.24-4.2-2.78-8.46-6.45-11.18-1.65-1.23-3.56-2.03-5.37-2.99-2.12-1.13-3.88-2.61-5.58-4.3-1.53-1.52-3-3.09-4.73-4.39-1.86-1.4-3.97-2.42-6.18-3.12-5.02-1.6-10.39-1.44-15.41-3.11-2.66-.88-5.24-2.11-7.38-3.94-1.94-1.66-3.57-3.63-5.35-5.45-.68-.69-1.74.37-1.06,1.06h0Z"/>
  <path d="M128.29,38.87c2.16,6.63,8.27,11.21,14.26,14.24,3.88,1.96,8.17,2.53,12.23,3.96,3.4,1.19,6.82,2.51,10.06,4.07s6.28,3.46,8.6,6.2,2.92,5.55,3.16,8.91c.4,5.72-.52,12.64,3.95,17.03,1.59,1.56,3.69,2.35,5.32,3.82,2.28,2.06,1.59,5.68,1.08,8.34-.18.94,1.26,1.35,1.45.4.5-2.6,1.05-5.72-.22-8.2-.85-1.65-2.47-2.53-3.99-3.47-2.15-1.34-4.03-3.05-4.87-5.51-1.06-3.12-.97-6.57-1.09-9.83-.11-2.98-.2-6.15-1.38-8.93-1.27-2.99-3.8-5.44-6.42-7.28-2.87-2.02-6.11-3.45-9.36-4.75-3.74-1.49-7.47-2.79-11.37-3.81-4.42-1.15-8.42-3.03-12.11-5.73-3.43-2.51-6.52-5.76-7.86-9.87-.3-.91-1.75-.52-1.45.4h0Z"/>
  <path d="M125.66,39.44c-1.98,3.69-3.94,7.23-7.71,9.36s-8.16,2.91-12.38,4.11c-2.08.59-4,1.57-5.91,2.57s-3.98,1.93-6.03,2.78c-3.73,1.55-7.23,3.34-10,6.36-2.53,2.77-4.37,6.2-5.52,9.76s-1.48,7.03-2.15,10.55c-.71,3.72-1.84,7.42-4.46,10.26s-5.84,4.76-7.48,8.36c-1.85,4.06-2.03,8.91-1.34,13.27.76,4.85,2.71,9.5,1.33,14.44-.26.93,1.19,1.33,1.45.4,1.13-4.03.26-7.95-.65-11.92-.98-4.24-1.42-8.7-.32-12.97.53-2.08,1.46-4.02,2.91-5.62,1.23-1.37,2.7-2.51,4.05-3.76,2.66-2.47,4.35-5.54,5.3-9.03s1.27-7.15,2.06-10.69,2.31-7.27,4.55-10.33c2.61-3.55,6.2-5.73,10.2-7.42,1.91-.81,3.83-1.58,5.69-2.52,2.06-1.05,4.08-2.21,6.3-2.9,2.34-.73,4.77-1.09,7.1-1.86,2.09-.7,4.18-1.45,6.1-2.54,4-2.26,6.15-5.96,8.25-9.89.46-.85-.84-1.61-1.3-.76h0Z"/>
  <path d="M125.33,25.88c-.09,2.13-1.6,4.07-2.95,5.6-1.46,1.66-3.11,3.15-4.86,4.51-4.31,3.34-9.59,5.23-14.72,6.94s-10.17,3.07-14.96,5.36c-2.29,1.1-4.4,2.43-6.36,4.04s-3.95,3.08-5.73,4.86c-1.5,1.5-2.84,3.22-3.61,5.22-.44,1.15-.76,2.35-1.09,3.53-1.04,3.7-2,7.43-3.1,11.12-.87,2.91-1.65,6.4-3.45,8.91-1.18,1.64-2.93,2.87-4.2,4.45-1.41,1.75-2.24,3.7-2.75,5.88-1.39,6-1.1,11.94-.59,18.03.37,4.37.71,10.22,4.27,13.32.72.63,1.79-.42,1.06-1.06-3.27-2.85-3.51-8.42-3.84-12.42-.45-5.42-.81-10.77.26-16.14.5-2.5,1.19-4.8,2.84-6.79,1.27-1.53,2.94-2.74,4.11-4.34,1.73-2.36,2.54-5.57,3.38-8.32,1.13-3.66,2.1-7.37,3.11-11.06.91-3.28,1.7-6.15,4.11-8.72,1.73-1.84,3.75-3.37,5.71-4.95s4.1-3.03,6.44-4.17c4.89-2.37,10.19-3.75,15.33-5.48s10.72-3.86,15.18-7.42c1.95-1.56,3.81-3.28,5.36-5.25,1.28-1.63,2.45-3.51,2.54-5.63.04-.97-1.46-.96-1.5,0h0Z"/>
  <path d="M125.18,23.3c-4.26-.1-8.68.17-12.67,1.8-2.42.99-4.43,2.52-6.59,3.94-2.83,1.87-5.84,2.2-9.14,2.78-2.71.47-5.43,1.02-7.98,2.08s-5.03,2.76-7.4,4.35c-2.15,1.44-4.28,2.79-6.17,4.57s-3.6,3.82-5.14,5.93c-3.12,4.3-5.11,8.85-6.39,13.99-.67,2.68-1.24,5.39-2.14,8s-2.21,4.83-3.73,7.07c-1.42,2.1-2.9,4.19-3.93,6.52-1.1,2.48-1.5,5.21-2.18,7.82-.8,3.07-1.21,5.92-1.07,9.09.12,2.62-.86,5.22-.65,7.83.15,1.84.8,3.69,1.29,5.46s1.27,3.7,1.17,5.51c-.05.96,1.45.96,1.5,0,.08-1.42-.42-2.93-.78-4.28-.48-1.8-1.04-3.59-1.45-5.41s-.08-3.69.17-5.6c.35-2.69-.06-5.37.34-8.05s1.29-5.27,1.85-7.92,1.55-4.86,2.96-7.09c1.34-2.12,2.87-4.11,4.1-6.3s2.03-4.58,2.68-6.98c1.38-5.08,2.26-10.2,4.92-14.83s5.96-8.9,10.2-11.91c4.59-3.26,9.3-6.46,14.85-7.72,3.7-.84,7.81-.85,11.23-2.61,2.36-1.22,4.34-3.04,6.72-4.24,4.13-2.08,8.88-2.38,13.42-2.27.97.02.97-1.48,0-1.5h0Z"/>
  <path d="M194.25,144.08c-2.66,2.17-5.98,3.34-9.16,4.53-1.62.6-3.26,1.28-4.95,1.65-1.59.35-3.22.54-4.74,1.17-.88.37-.49,1.82.4,1.45,1.62-.68,3.36-.84,5.06-1.24,1.81-.43,3.57-1.18,5.3-1.83,3.22-1.22,6.45-2.46,9.15-4.66.75-.61-.32-1.67-1.06-1.06h0Z"/>
  <path d="M196.44,137.56c-2.18,1.46-4.81,2.2-7.3,2.95-2.15.65-4.56.76-6.39,2.2-.76.6.31,1.65,1.06,1.06.84-.66,2-.91,3.02-1.15,1.1-.26,2.19-.49,3.27-.83,2.43-.77,4.96-1.49,7.1-2.92.8-.53.05-1.83-.76-1.3h0Z"/>
  <path d="M197.34,130.25c-4.17,2.14-8.35,4.27-12.63,6.17-.88.39-.12,1.68.76,1.3,4.29-1.9,8.46-4.03,12.63-6.17.86-.44.1-1.74-.76-1.3h0Z"/>
  <path d="M197.49,125.12c-2.26.28-4.44,1.01-6.53,1.89s-4.18,1.92-5.96,3.36c-.75.61.32,1.66,1.06,1.06,1.61-1.31,3.56-2.25,5.46-3.04s3.92-1.51,5.96-1.76c.95-.12.96-1.62,0-1.5h0Z"/>
  <path d="M188.92,121.69c-1.23.09-2.37.73-3.42,1.34-1.1.64-2.15,1.37-3.28,1.96-.36.19-.47.69-.27,1.03.21.36.67.46,1.03.27,1.07-.56,2.07-1.25,3.12-1.87.53-.31,1.06-.61,1.62-.86.17-.08.37-.16.62-.24.12-.04.25-.07.37-.1.05-.01.11-.02.16-.03-.13.02-.02,0,.05,0,.4-.03.75-.32.75-.75,0-.38-.34-.78-.75-.75h0Z"/>
  <path d="M189.62,113.49c-2.96,1.16-5.02,3.62-7.62,5.33-.8.53-.05,1.83.76,1.3,2.47-1.62,4.47-4.09,7.27-5.18.38-.15.64-.5.52-.92-.1-.36-.54-.67-.92-.52h0Z"/>
  <path d="M60.68,146.01c.5,1.14,1.43,2.05,2.37,2.84,1.01.85,2.04,1.66,3.04,2.51,2.16,1.85,4.37,3.73,7.05,4.76.9.35,1.29-1.1.4-1.45-2.49-.95-4.55-2.8-6.54-4.51-.9-.77-1.83-1.51-2.75-2.26s-1.8-1.56-2.28-2.65c-.39-.88-1.68-.12-1.3.76h0Z"/>
  <path d="M58.77,138.62c3.52,3.58,7.43,7.11,12.18,8.93.9.35,1.29-1.1.4-1.45-4.49-1.73-8.19-5.18-11.51-8.55-.68-.69-1.74.37-1.06,1.06h0Z"/>
  <path d="M57.07,129.02c3.8,3.92,6.86,9.09,12,11.43.87.4,1.64-.89.76-1.3-5.01-2.28-7.99-7.37-11.69-11.2-.67-.69-1.73.37-1.06,1.06h0Z"/>
  <path d="M65.54,131.77c.87.83,1.89,1.47,2.86,2.17.15.11.41.12.58.08s.36-.18.45-.34c.21-.39.07-.78-.27-1.03-.45-.33-.91-.64-1.35-.96-.11-.08-.22-.16-.33-.24-.03-.02-.06-.05-.1-.07-.08-.06,0,0,.04.03-.06-.04-.11-.09-.17-.13-.22-.18-.44-.37-.65-.56-.28-.27-.78-.3-1.06,0s-.3.77,0,1.06h0Z"/>
  <path d="M65.7,119.08c1.86,2.04,4.21,3.83,6.75,4.92.37.16.8.11,1.03-.27.18-.32.11-.87-.27-1.03-2.44-1.05-4.66-2.72-6.45-4.68-.65-.71-1.71.35-1.06,1.06h0Z"/>
  <g class="cls-2">
    <path class="cls-3" d="M197.83,121.12c-.53,2.3.66-1.34.98-2.05.94-2.05,1.89-4.11,2.82-6.16,1.56-3.43,3.06-6.8,4.13-10.37-.3,1.01.58-1.63.66-2.01.27-1.25.47-2.52.66-3.79.49-3.26.87-6.54,1.08-9.82.4-6.38-.67-12.53-2.31-18.71-.94-3.54-2.56-6.86-3.64-10.36-.95-3.08-1.75-6.19-3.1-9.13-2.9-6.32-8.59-11.36-13.53-16.12-5.37-5.18-12.76-8-19.49-11.02-6.13-2.75-13.5-4.75-20.26-4.46-6.05.25-15.9-.83-19.24,5.56-1.86,3.56-1.33,7.8-2,11.65-.84,4.83-1.55,9.09-.59,13.96s9.2,3.87,8.84-1.2c-.68-9.7-2.22-22.47-11.82-27.66-5.32-2.87-11.74-3.18-17.52-1.7-6.23,1.59-13.19,3.75-18.85,6.84s-11.31,6.73-16.22,10.64c-5.41,4.31-9.15,10.8-11.76,17.11-2.95,7.15-2.1,13.46-1.86,20.97.22,6.69-3.97,12.04-5.67,18.35s-3.5,14.21-1.36,20.87,7.46,11.47,11.87,16.26c3.93,4.27,10.29-2.11,6.36-6.36s-9.46-8.92-10.13-14.94,1.39-13.5,3.84-18.97c2.93-6.54,4.41-11.24,3.85-18.54-.32-4.15-.75-8.04.54-12.08,1.17-3.64,3.08-7.1,5.2-10.26,4.02-6.03,10.37-9.13,16.25-13.05s12.23-5.7,18.64-7.68,13.3-1.35,16.47,5.23c2.27,4.72,2.77,9.8,3.13,14.97l8.84-1.2c-.91-4.64.84-9.19,1.27-13.79.15-1.66-.23-3.99.68-5.46-1.05.66-.99.79.19.38,1.04-.28,2.09-.46,3.17-.53,7.63-.61,14.88-.32,22.16,2.32,4.05,1.47,7.72,3.86,11.69,5.54s6.86,4,9.94,7.24c2.75,2.89,6.05,5.55,8.16,8.97,1.73,2.79,2.47,5.96,3.41,9.07,2.23,7.38,5.63,14.51,5.96,22.35.25,5.97-.69,12.12-1.96,17.93-.12.53-1.36,3.88-.48,1.65-.2.51-.25.78-.51,1.26-1.12,2.04-1.93,4.33-2.89,6.45-1.35,2.97-3.57,6.28-4.31,9.49-1.31,5.64,7.37,8.04,8.68,2.39h0Z"/>
  </g>
</svg>