<?xml version="1.0" encoding="UTF-8"?>
<svg id="Layer_40" data-name="Layer 40" xmlns="http://www.w3.org/2000/svg" viewBox="0 0 256 256">
  <defs>
    <style>
      .cls-1 {
        fill: #fff;
      }

      .cls-2 {
        opacity: .3;
      }

      .cls-3 {
        fill: #435054;
      }
    </style>
  </defs>
  <g>
    <path class="cls-1" d="M185.79,92.24c-4.5,3.73-7.69,5.08-13.13,7.21.41-1.37,4.29-7.39,4.7-8.76-3.23,2.03-10.16,8.08-13.97,8.42.85-1.61,4.84-8.75,3.93-10.33-5.04,1.99-12.51,8.46-17.56,10.44-.36-1.25,2.8-7.86,2.44-9.11-3.22.82-12.12,8.07-15.33,8.89,0-1.12,4-9.55,4-10.67-10.19,5.97-17.32,9.76-23.6,11.22,1.74-2.49,4.21-8.65,4.21-8.65,0,0-11.53,8.87-19.73,8.2,1.05-1.84.28-4.94,1.34-6.77-4.59,1.76-5.33,5.67-8.87,8.33-.67-3.77-3.53-8.96-1.33-12.19-2.66,4.66-2,6.87-4.88,12.41-.65-.9-1.85-10.93-3.1-10.64-1.33.3-2.17,10.35-3.16,9.64-3.99-2.83-2.57-9.95-3.1-10.88-3.06.58-2.7,13.16-4.55,11.38-3.88-3.71-3.68-8.21-4.27-6.6-1.14,3.15-2.12,11.18-2.05,14.53.33,15.71,3.34,32.04,8.42,46.9-1.91-1.61-4.06-3.9-5.98-5.52-.16,1.99-.47,4.24-.91,6.18-.52,2.26-4.27,8.51-5.11,10.67-1.54-2.29-.03-8.98-1.57-11.27-.35,2.99-4.5,11.39-6.65,13.49-1.22-1.59.3-8.73-.91-10.32-4.66,4.86-4.46,6.57-12.38,11.99.76-4.44-.08-6.28.68-10.72-1.55,1.62-3.5,5.24-5.66,4.57,1.67-6.31,5.03-14.61,6.3-21.84,3.82-21.7,1.88-42.24,5.32-61.52,4.68-26.21,15.74-44.13,39.59-55.96,23.85-11.84,53.3-11.66,77.01.47,13.87,7.09,27.96,17.81,33.84,32.23,5.21,12.76,7.18,25.58,8.02,39.34,1.44,23.63-2.46,43.77,7.09,69.33-3.9-3.21-5.65-5.68-9.56-8.89.59,1.97-2.59,7.81-2,9.78-2.46-2.91-2.62-7.88-5.08-10.8-.72,2.03-3.75,6.76-4.48,8.8-1.23-3.15-.14-8.98-1.37-12.13l-5.88,8.66c2.78-24.44-3.49-30.67-1.64-55.19.3-3.98.9-14.32.9-14.32Z"/>
    <path d="M184.73,91.18c-3.76,3.09-7.96,5.06-12.46,6.82l1.85,1.85c.12-.36.54-1.11.85-1.67.49-.88.99-1.74,1.5-2.61.83-1.43,1.83-2.9,2.35-4.48.41-1.23-1.12-2.39-2.2-1.69-2.24,1.43-4.31,3.13-6.49,4.65-1.9,1.33-4.32,3.29-6.72,3.57l1.3,2.26c1-1.88,2.01-3.75,2.86-5.7.78-1.79,2.01-4.21,1.07-6.14-.26-.54-1.12-.92-1.69-.69-3.17,1.29-6,3.26-8.82,5.16s-5.6,4.01-8.73,5.28l1.85,1.05c.06.31.05-.08.09-.26.09-.4.21-.79.33-1.18.3-.96.65-1.91.99-2.86.52-1.46,1.36-3.23,1.03-4.82-.16-.79-1.11-1.25-1.85-1.05-2.81.78-5.37,2.83-7.76,4.42-1.44.95-2.87,1.92-4.34,2.82-1.02.63-2.1,1.33-3.24,1.65l1.9,1.45c-.03.56.1-.28.17-.49.15-.44.32-.87.49-1.31.45-1.14.93-2.27,1.4-3.4.7-1.68,1.83-3.62,1.95-5.48.07-1.15-1.32-1.84-2.26-1.3-7.3,4.28-14.91,9.1-23.24,11.07l1.69,2.2c1.86-2.73,3.13-5.95,4.36-9,.47-1.16-1.19-2.47-2.2-1.69-2.05,1.57-4.27,2.96-6.52,4.21-3.74,2.07-8.07,4.09-12.45,3.79l1.3,2.26c.55-1.08.73-2.21.83-3.41.08-1.1,0-2.35.51-3.37s-.38-2.74-1.69-2.2c-2.14.87-3.84,2.17-5.29,3.97-1.35,1.67-2.53,3.42-4.24,4.75l2.51.66c-.37-1.96-1.09-3.83-1.6-5.75-.46-1.72-.89-3.68.12-5.28l-2.59-1.51c-2.2,3.93-2.83,8.42-4.88,12.41h2.59c-.17-.27.02.24-.02-.04-.03-.18-.11-.36-.15-.54-.15-.58-.27-1.16-.39-1.75-.29-1.4-.55-2.81-.86-4.21-.36-1.58-1.08-5.78-3.62-4.7-1.95.83-2.18,4.51-2.53,6.27-.24,1.17-.45,2.36-.81,3.51-.09.29-.11.15-.08.23.04.16-.07-.03.09-.1,3.01-1.4,1.82.26,1.43-.33-.44-.66-.99-1.1-1.31-1.87-.62-1.51-.72-3.18-.74-4.79-.02-1.17.15-2.47-.36-3.56-.28-.61-1.09-.83-1.69-.69-1.76.42-2.52,2.36-2.98,3.91-.57,1.93-.81,3.93-1.19,5.9-.11.58-.51,1.73-.5,2.05,0-.05-.13.07,0,.02.43-.19.6-.32,1.12-.31-.07,0,.48.09.45.2,0-.02-.53-.54-.61-.63-.32-.35-.62-.72-.89-1.12-.75-1.1-1.28-2.28-1.71-3.53-.28-.81-.53-1.77-1.47-2.04-2.39-.69-2.78,3.79-3.04,5.21-.54,2.91-.92,5.88-1.09,8.84-.2,3.42.07,6.9.34,10.31.31,4.08.8,8.15,1.43,12.19,1.43,9.19,3.65,18.25,6.65,27.06l2.51-1.46c-2.06-1.76-3.91-3.75-5.98-5.52-1.02-.87-2.45-.27-2.56,1.06-.17,1.98-.37,4.03-.9,5.94-.32,1.15-.9,2.22-1.43,3.28-1.21,2.4-2.64,4.73-3.64,7.23l2.74-.36c-.92-1.5-.57-3.84-.58-5.52-.02-1.89.04-4.08-.99-5.75-.6-.98-2.56-1-2.74.36-.32,2.34-1.47,4.63-2.5,6.72s-2.12,4.44-3.76,6.11l2.36.3c-.72-1.07-.28-3.61-.23-5,.05-1.66.3-3.87-.68-5.33-.52-.78-1.65-1.04-2.36-.3-1.73,1.82-3.23,3.82-4.89,5.7-2.09,2.37-4.59,4.27-7.18,6.06l2.2,1.69c.57-3.57.1-7.17.68-10.72.22-1.35-1.39-2.67-2.51-1.46-.78.84-1.43,1.78-2.17,2.65-.4.47-1.29,1.71-2.04,1.53l1.05,1.85c1.71-6.39,4.2-12.54,5.71-18.98,1.68-7.19,2.31-14.7,2.8-22.05.94-14.1.63-28.38,3.11-42.33,1.84-10.35,4.89-20.61,10.32-29.69s12.55-15.86,21.14-21.24c21.72-13.59,49.26-16.35,73.37-7.79,11.6,4.11,22.87,10.9,31.63,19.57,4.35,4.3,8.09,9.23,10.62,14.83,2.88,6.36,4.74,13.29,6.06,20.13,2.57,13.3,2.77,26.85,2.72,40.35-.04,13.04.28,26.08,3.51,38.79.9,3.54,2.01,7.03,3.28,10.46l2.51-1.46c-3.35-2.79-6.2-6.1-9.56-8.89-1.12-.93-2.88-.07-2.51,1.46.29,1.2-.78,3.4-1.19,4.68-.52,1.59-1.21,3.41-.81,5.1l2.51-1.46c-1.25-1.55-1.76-3.58-2.39-5.43s-1.41-3.77-2.69-5.37c-.78-.96-2.16-.28-2.51.66-1.15,3.08-3.32,5.7-4.48,8.8h2.89c-1.4-3.87.04-8.24-1.37-12.13-.45-1.24-1.99-1.46-2.74-.36-1.96,2.89-3.92,5.77-5.88,8.66l2.8.76c.63-5.6.89-11.23.59-16.86-.23-4.4-.82-8.77-1.38-13.14-.6-4.66-1.08-9.33-1.18-14.04-.11-5.07.27-10.1.6-15.15.22-3.44.43-6.89.63-10.33.11-1.93-2.89-1.92-3,0-.46,7.83-1.28,15.69-1.25,23.53.03,9.24,1.83,18.27,2.48,27.45.44,6.18.2,12.37-.49,18.53-.18,1.61,2.05,1.86,2.8.76,1.96-2.89,3.92-5.77,5.88-8.66l-2.74-.36c1.4,3.87-.04,8.24,1.37,12.13.52,1.43,2.37,1.41,2.89,0,1.15-3.08,3.32-5.7,4.48-8.8l-2.51.66c1.25,1.55,1.76,3.58,2.39,5.43s1.41,3.77,2.69,5.37c1,1.24,2.83-.12,2.51-1.46-.29-1.2.78-3.4,1.19-4.68.52-1.59,1.21-3.41.81-5.1l-2.51,1.46c3.35,2.79,6.2,6.1,9.56,8.89,1.03.86,3.08.09,2.51-1.46-2.55-6.88-4.37-14-5.4-21.27-.93-6.57-1.2-13.21-1.26-19.84-.13-13.56.21-27.07-1.57-40.56-.93-7.04-2.36-14.01-4.58-20.76-2.05-6.23-4.67-12.05-8.68-17.27-7.64-9.94-18.44-17.41-29.64-22.85-23.84-11.58-52.85-11.57-76.66.09-9.61,4.71-18.46,11.15-25.14,19.58s-10.75,17.82-13.42,27.89c-3.47,13.1-4.13,26.58-4.68,40.05-.31,7.57-.66,15.15-1.53,22.69-.43,3.75-.94,7.53-1.8,11.21-.8,3.41-1.87,6.75-2.95,10.07-.96,2.96-1.96,5.91-2.76,8.91-.2.76.25,1.66,1.05,1.85,3.39.79,5.21-2.89,7.12-4.96l-2.51-1.46c-.57,3.57-.1,7.17-.68,10.72-.19,1.16,1.01,2.51,2.2,1.69,2.73-1.88,5.41-3.88,7.63-6.35,1.73-1.92,3.26-4,5.05-5.87l-2.36-.3c.72,1.07.28,3.61.23,5-.05,1.66-.3,3.87.68,5.33.53.79,1.64,1.03,2.36.3,1.83-1.86,3.09-4.4,4.23-6.72s2.45-4.86,2.8-7.44l-2.74.36c.92,1.5.57,3.84.58,5.52.02,1.89-.04,4.08.99,5.75.73,1.19,2.28.8,2.74-.36.95-2.37,2.57-4.91,3.75-7.34,1.54-3.16,2.04-6.42,2.33-9.91l-2.56,1.06c2.06,1.76,3.91,3.75,5.98,5.52,1.05.89,3.03.07,2.51-1.46-2.95-8.66-5.15-17.56-6.58-26.59-.73-4.62-1.24-9.27-1.54-13.94-.22-3.54-.35-7.05,0-10.58.18-1.85.43-3.7.76-5.53.15-.79.31-1.59.5-2.37.09-.37.19-.74.3-1.1.03-.09.1-.23.1-.32,0-.37.19.1-.41.36l-1.16.15c-.7-.7-.95-.88-.74-.53-.08-.19-.08-.2-.01-.02.03.17.12.34.17.5.2.59.42,1.17.67,1.74.66,1.55,1.56,2.98,2.7,4.23.76.83,1.71,1.63,2.88,1.01.68-.36,1-1.09,1.24-1.79.61-1.82.75-3.82,1.13-5.69.2-.99.41-2.02.79-2.96.11-.26.25-.53.43-.81.1-.17.13-.12.17-.13l-1.69-.69c-.08-.17-.07-.33-.09-.17-.02.2.02.43.02.63.01.65,0,1.3.02,1.95.04,1.52.18,3.09.62,4.56.52,1.74,3.69,7.06,5.54,3.59,1.11-2.07,1.18-4.82,1.73-7.07.13-.51.25-1.04.44-1.53.08-.21.15-.14.14-.31,0-.13-.03.06-.05.04.94.7-1.68.1-1.59-.02-.03.05.02-.17-.05-.05,0,0,.11.2.12.23-.07-.18.11.3.15.41.21.62.37,1.26.52,1.9.37,1.55.65,3.13.97,4.69.2.97.32,2.18.86,3.04.57.9,2.06,1.04,2.59,0,1.09-2.12,1.93-4.32,2.59-6.61.59-2.03,1.25-3.95,2.29-5.81.95-1.69-1.56-3.15-2.59-1.51-2.6,4.14.38,9.13,1.18,13.35.23,1.23,1.71,1.28,2.51.66,3.03-2.35,4.51-6.44,8.21-7.94l-1.69-2.2c-.55,1.08-.73,2.21-.83,3.41-.08,1.1,0,2.35-.51,3.37s.13,2.18,1.3,2.26c4.69.32,9.39-1.74,13.43-3.91,2.45-1.32,4.85-2.8,7.06-4.5l-2.2-1.69c-1.14,2.82-2.35,5.76-4.06,8.29-.77,1.14.5,2.49,1.69,2.2,8.58-2.03,16.44-6.96,23.96-11.37l-2.26-1.3c.03-.56-.1.28-.17.49-.15.44-.32.87-.49,1.31-.45,1.14-.93,2.27-1.4,3.4-.7,1.68-1.83,3.62-1.95,5.48-.06.98,1.01,1.69,1.9,1.45,2.81-.78,5.37-2.83,7.76-4.42,1.44-.95,2.87-1.92,4.34-2.82,1.02-.63,2.1-1.33,3.24-1.65l-1.85-1.05c-.06-.31-.05.08-.09.26-.09.4-.21.79-.33,1.18-.3.96-.65,1.91-.99,2.86-.52,1.46-1.36,3.23-1.03,4.82.15.73,1.13,1.34,1.85,1.05,3.17-1.29,6-3.26,8.82-5.16s5.6-4.01,8.73-5.28l-1.69-.69c-.22-.45-.07-.01-.09.17-.05.4-.19.8-.31,1.18-.31.97-.72,1.89-1.15,2.81-.74,1.58-1.57,3.11-2.39,4.65-.48.9.09,2.4,1.3,2.26,2.84-.33,5.37-2.01,7.67-3.59s4.62-3.49,7.05-5.04l-2.2-1.69c-.12.36-.54,1.11-.85,1.67-.49.88-.99,1.74-1.5,2.61-.83,1.43-1.83,2.9-2.35,4.48-.34,1.02.78,2.26,1.85,1.85,5.02-1.97,9.6-4.15,13.79-7.59,1.49-1.23-.64-3.34-2.12-2.12Z"/>
  </g>
  <g class="cls-2">
    <path class="cls-3" d="M212.99,156.45c-8.45-23.95-5.03-49.22-7.61-73.97-1.15-11.05-5.14-22.85-10.82-32.42-5.63-9.49-14.79-16.58-24.47-21.6-22.31-11.58-50.24-16.19-74.23-7.33-22.34,8.25-37.71,27.64-43.75,50.36-3.55,13.34-2.98,26.86-3.87,40.5-1.06,16.28-4.07,32.33-8.7,47.96-1.65,5.56,7.03,7.94,8.68,2.39,3.7-12.48,6.31-25.2,7.88-38.12,1.47-12.05,1.01-24.15,2.17-36.2,2.09-21.71,12.39-43.34,31.88-54.44,21.54-12.27,48.68-9.29,70.62.34,9.68,4.25,19.41,10.41,25.26,19.44s9.67,20.42,10.51,30.82c2.03,24.94-.71,50.62,7.77,74.66,1.91,5.43,10.61,3.09,8.68-2.39h0Z"/>
  </g>
  <path d="M206.59,157c-6.28-18.93-6.64-39.04-6.95-58.78-.01-.96-1.51-.97-1.5,0,.24,15.51.5,31.15,3.61,46.4.88,4.32,2,8.59,3.39,12.78.3.91,1.75.52,1.45-.4h0Z"/>
  <path d="M200.08,156.79c-2.39-9.09-3.72-18.4-3.99-27.79-.03-.96-1.53-.97-1.5,0,.27,9.52,1.62,18.98,4.04,28.19.25.93,1.69.54,1.45-.4h0Z"/>
  <path d="M192.88,151.22l-.2-16.22c-.01-.96-1.51-.97-1.5,0l.2,16.22c.01.96,1.51.97,1.5,0h0Z"/>
  <path d="M185.75,92.18c4.88-7.75,1.7-17.44,1.24-25.88-.05-.96-1.55-.97-1.5,0,.44,8.11,3.65,17.69-1.03,25.13-.52.82.78,1.57,1.3.76h0Z"/>
  <path d="M177.13,91.88c1.76-2.16,2.41-5.01,2.81-7.7.42-2.84.53-5.71.62-8.57.03-.97-1.47-.96-1.5,0-.08,2.65-.17,5.32-.53,7.95-.34,2.45-.85,5.28-2.45,7.26-.6.74.45,1.81,1.06,1.06h0Z"/>
  <path d="M168.33,90.11c1.8-3.54,2.2-7.66,2.21-11.58s-.47-8.21-1.32-12.22c-.2-.94-1.65-.54-1.45.4.79,3.76,1.24,7.62,1.26,11.46s-.27,7.78-2,11.17c-.44.86.86,1.62,1.3.76h0Z"/>
  <path d="M153.82,90.61c4.11-11.51,4-24.33-.31-35.77-.34-.9-1.79-.51-1.45.4,4.22,11.22,4.34,23.68.31,34.97-.33.91,1.12,1.3,1.45.4h0Z"/>
  <path d="M141.45,89.66c2.94-6.78,3.69-14.29,2.12-21.52-.2-.94-1.65-.54-1.45.4,1.47,6.8.79,13.97-1.97,20.36-.38.88.91,1.64,1.3.76h0Z"/>
  <path d="M121.45,93.68c5.37-9.62,7.57-20.83,6.18-31.76-.12-.94-1.62-.96-1.5,0,1.35,10.68-.73,21.6-5.98,31-.47.84.82,1.6,1.3.76h0Z"/>
  <path d="M103.62,92.82c.74-5.49,2.96-10.61,5.01-15.71,1.87-4.65,3.84-9.5,3.87-14.59,0-.97-1.49-.97-1.5,0-.03,5.08-2.1,9.94-3.97,14.57-2.01,4.97-4.14,9.97-4.86,15.32-.13.94,1.32,1.35,1.45.4h0Z"/>
  <path d="M92.3,92.1c1-5.42,2.06-10.84,3.47-16.18,1.21-4.57,2.53-9.56,5.32-13.46.56-.79-.74-1.54-1.3-.76-2.79,3.9-4.15,8.88-5.37,13.45-1.46,5.45-2.54,11-3.56,16.54-.17.94,1.27,1.35,1.45.4h0Z"/>
  <path d="M78.52,88.41c.02-3.46.61-6.92,1.44-10.27.78-3.1,1.75-6.26,3.39-9.02.49-.83-.8-1.59-1.3-.76-1.7,2.87-2.73,6.16-3.54,9.38-.87,3.48-1.48,7.08-1.5,10.67,0,.97,1.49.97,1.5,0h0Z"/>
  <path d="M69.68,150.9c-2.24-14.52-10.95-27.92-8.51-43,.15-.94-1.29-1.35-1.45-.4-1.2,7.4,0,14.59,2.22,21.67s5.11,14.49,6.29,22.13c.15.95,1.59.55,1.45-.4h0Z"/>
  <path d="M63.36,155.55c-2.67-12.08-6.86-24.18-6.96-36.66,0-.96-1.51-.97-1.5,0,.1,12.62,4.32,24.85,7.01,37.06.21.94,1.65.54,1.45-.4h0Z"/>
  <path d="M43.83,169.84c8.35-10.44,7.88-24.07,7.59-36.7-.02-.96-1.52-.97-1.5,0,.28,12.15.9,25.57-7.15,35.64-.6.75.46,1.81,1.06,1.06h0Z"/>
  <path d="M53.31,160.38c2.59-5.27,2.75-11.53,1.85-17.24-.15-.95-1.6-.55-1.45.4.83,5.28.69,11.2-1.7,16.08-.42.86.87,1.62,1.3.76h0Z"/>
  <path d="M78.04,40.81c-9.74,9.78-16.26,22.56-18.41,36.19-.15.94,1.3,1.35,1.45.4,2.11-13.4,8.44-25.92,18.02-35.53.68-.68-.38-1.75-1.06-1.06h0Z"/>
  <path d="M190.93,56.14c-8.71-13.4-22.21-23.4-37.57-27.8-.93-.27-1.33,1.18-.4,1.45,14.99,4.29,28.18,14.04,36.68,27.11.52.81,1.82.06,1.3-.76h0Z"/>
  <path d="M107.29,98.72c4.13-1.17,5.99-5.61,7.48-9.23.99-2.38,2.02-4.73,2.64-7.24.75-3.05,1.09-6.18,1.43-9.29.1-.96-1.4-.95-1.5,0-.31,2.83-.62,5.67-1.27,8.45-.55,2.36-1.47,4.55-2.38,6.78-1.35,3.31-2.96,7.99-6.8,9.08-.93.26-.53,1.71.4,1.45h0Z"/>
  <path d="M128.9,94.96c2.94-4.1,4.45-9.14,4.28-14.18-.03-.96-1.53-.97-1.5,0,.16,4.81-1.28,9.51-4.08,13.42-.56.79.74,1.54,1.3.76h0Z"/>
  <path d="M87.2,95.58c-1.07-5.97-.51-12.23.74-18.13,1.44-6.77,3.92-13.36,7.53-19.28,2.03-3.33,4.44-6.4,7.28-9.09.7-.67-.36-1.72-1.06-1.06-10.09,9.55-15.55,24.12-16.42,37.8-.22,3.39-.11,6.8.49,10.15.17.95,1.62.55,1.45-.4h0Z"/>
  <path d="M69.68,95.32c1.59-6.24,1.99-12.66,3.04-19s3.19-12.74,7.3-18.07c.59-.76-.71-1.51-1.3-.76-4.09,5.3-6.27,11.49-7.39,18.04s-1.49,13.02-3.11,19.39c-.24.94,1.21,1.34,1.45.4h0Z"/>
</svg>