<?xml version="1.0" encoding="UTF-8"?>
<svg id="Layer_45" data-name="Layer 45" xmlns="http://www.w3.org/2000/svg" viewBox="0 0 256 256">
  <defs>
    <style>
      .cls-1 {
        fill: #fff;
      }

      .cls-2 {
        opacity: .3;
      }

      .cls-3 {
        fill: #435054;
      }
    </style>
  </defs>
  <g>
    <path class="cls-1" d="M198.98,118.17c2.74-16.09,3.61-27.04-.49-47.33-1.11-5.46-9.14-17.13-11.64-20.23-6.18-7.64-29.79-23.47-46.91-24.81-4.44-.35-4.18,1.04-13.35,2.35-3.02.43-10.65-2.63-13.67-2.19-10.9,1.56-32.2,9.24-41.82,18.52s-14.34,23.68-16.23,37.26-2.68,25.21,2.12,38.09l7.3,18.95c.27-2.49,4.49-5.92,4.22-8.21-1.43-12.3,11.45-29.72,9.82-41.41-1.79-12.87,21-30.4,34.58-27.83,1.65.31,13.07,4.31,15.75,3.35,14.04-5.03,23.01-3.51,33.64,2.09,5.09,2.68,9.88,6.34,12.52,11.37,1.57,2.99,2.33,11.86,3.48,15.03,2.52,6.95,13.16,10.01,10.83,33.03-.3,3,2.09,4.39,1.84,8.2,0,0,7.45-12.85,8.03-16.26Z"/>
    <path d="M200.43,118.57c1.9-11.22,3.01-22.37,1.79-33.74-.35-3.24-.82-6.47-1.39-9.69-.45-2.56-.83-5.13-1.82-7.55-1.86-4.51-4.53-8.71-7.25-12.74-1.91-2.82-3.87-5.6-6.35-7.96-3.3-3.14-7.02-5.88-10.81-8.41-8.93-5.96-19.02-11.29-29.62-13.46-3.68-.76-7.07-1.05-10.7-.02-2.2.63-4.43,1.12-6.69,1.48s-4.28-.12-6.48-.65c-2.34-.57-4.74-1.31-7.16-1.42-1.91-.08-3.97.49-5.82.92-4.98,1.13-9.87,2.73-14.63,4.58-10.2,3.97-20.56,9.13-27.44,17.92-7.71,9.86-11.1,22.22-12.77,34.43-1.75,12.82-2.37,25.77,2.3,38.09,2.16,5.7,4.38,11.37,6.57,17.05l.68,1.77c.46,1.21,2.64,1.63,2.89,0,.28-1.79,1.83-3.3,2.81-4.74.5-.73.98-1.51,1.25-2.36.29-.9.16-1.74.12-2.66-.18-3.96.93-7.89,2.16-11.61,2.69-8.11,7.03-16.06,7.81-24.69.16-1.73-.1-3.37-.15-5.09-.04-1.42.22-2.8.66-4.15,1.06-3.23,3.12-6.11,5.39-8.6,5.07-5.57,11.91-10.15,19.26-12.02,2.66-.68,5.58-1.03,8.27-.28,3.02.84,6,1.83,9.05,2.55,1.52.36,3.09.69,4.65.78,1.84.1,3.46-.7,5.2-1.23,4.77-1.45,9.73-2.28,14.72-1.83,4.37.4,8.6,1.86,12.53,3.76,4.53,2.19,8.98,4.91,12.13,8.9,1.18,1.49,2.1,3.07,2.6,4.91s.83,3.77,1.16,5.66c.52,2.98.83,6.2,2.31,8.9.97,1.76,2.32,3.29,3.58,4.85,1.46,1.81,2.84,3.74,3.91,5.87,1.44,2.9,2.25,6.12,2.58,9.32.24,2.3.27,4.61.18,6.92s-.64,4.51.1,6.66c.64,1.87,1.55,3.36,1.46,5.41-.07,1.51,2.07,2.01,2.8.76,1.33-2.3,2.62-4.63,3.86-6.97.95-1.79,1.87-3.58,2.72-5.42.62-1.34,1.32-2.76,1.6-4.22.35-1.89-2.54-2.7-2.89-.8-.24,1.3-.85,2.54-1.4,3.73-.86,1.84-1.79,3.65-2.74,5.44-1.21,2.26-2.45,4.51-3.73,6.73l2.8.76c.1-2.23-.7-3.93-1.47-5.95-.82-2.15-.12-4.68-.05-6.92.11-4.1-.2-8.29-1.35-12.24-.83-2.84-2.11-5.55-3.78-7.98-1.23-1.79-2.92-3.72-4.09-5.26-1.48-1.94-2.13-3.44-2.62-5.77-.79-3.8-1.08-7.8-2.38-11.47-1.57-4.43-5.42-8-9.18-10.62-3.98-2.78-8.57-4.99-13.2-6.45-4.38-1.38-9.01-1.89-13.59-1.45-2.57.25-5.12.73-7.61,1.41-1.49.4-2.96.87-4.42,1.38-.79.27-.8.28-1.61.25-6.06-.28-11.56-3.94-17.66-3.73-7.72.27-15.15,4.36-21.02,9.1-5.45,4.4-11,10.68-11.65,17.96-.14,1.59.2,3.14.19,4.73,0,1.96-.34,3.88-.81,5.78-1.07,4.37-2.77,8.57-4.38,12.75s-3.26,8.42-4.2,12.83c-.42,1.99-.71,4.05-.69,6.09,0,.71.22,1.53.08,2.22-.18.87-.88,1.69-1.39,2.4-1.06,1.49-2.46,3.06-2.75,4.93h2.89c-2.04-5.3-4.08-10.6-6.12-15.91-1.16-3.02-2.29-6.03-3.08-9.18-1.57-6.34-1.87-12.88-1.47-19.38.75-12.39,2.75-25.46,8.5-36.6,2.6-5.03,6-9.71,10.36-13.36,3.9-3.26,8.45-5.76,13.02-7.96,4.85-2.33,9.88-4.27,15.01-5.87,2.3-.72,4.63-1.36,6.98-1.9,1.77-.4,3.68-.96,5.51-.77,4.37.44,8.59,2.72,13.04,2.06,2.37-.35,4.72-.81,7.02-1.46,1.25-.35,2.53-.75,3.61-.81,4.42-.22,9.09,1.23,13.22,2.66,5.14,1.79,10.07,4.18,14.79,6.86,4.36,2.47,8.59,5.22,12.55,8.29,2.62,2.04,5.42,4.4,7.38,6.92,2.59,3.33,4.91,6.93,7.03,10.57,1.15,1.96,2.27,3.97,3.13,6.07.95,2.33,1.29,4.84,1.73,7.3,1.98,11.24,2.37,22.46.85,33.78-.36,2.69-.8,5.37-1.25,8.05-.32,1.89,2.57,2.7,2.89.8Z"/>
  </g>
  <path d="M68.27,124.04c.03-2.89-.12-5.81-.74-8.64s-1.91-5.18-3.65-7.43c-3.18-4.1-7.56-7.21-8.28-12.7-.19-1.41-2.44-1.43-2.25,0,.35,2.62,1.2,5.01,2.76,7.15,1.44,1.97,3.22,3.66,4.83,5.5,1.89,2.17,3.52,4.52,4.25,7.33s.86,5.85.83,8.79c-.01,1.45,2.24,1.45,2.25,0h0Z"/>
  <g class="cls-2">
    <path class="cls-3" d="M196.45,126.58c5.53-18.9,8.11-43.64.3-62.23-4.34-10.33-13.28-17.95-21.81-24.84s-20.92-13.08-32.3-14.53c-4.45-.57-8.34.19-12.57,1.45-4.97,1.47-9.36.1-14.41-.34-9.9-.86-18.57,2.55-27.33,6.79-8.03,3.88-13.9,8.47-20.42,14.45-5.5,5.05-7.29,10.68-9.64,17.67-3.27,9.69-5.14,19.34-4.66,29.65.3,6.47,1.37,12.93,3.06,19.17,1.51,5.58,2.1,10.95,2.81,16.67s9.71,5.74,9,0c-.49-3.98-.69-7.99-1.33-11.94-.78-4.84-2.55-9.46-3.44-14.29-1.73-9.43-1.86-19.73.75-29.01,1.59-5.63,3.23-11.81,5.85-17.06,1.43-2.87,4.23-4.56,6.49-6.81s4.54-4.49,7.28-6.18c6.59-4.07,14.65-8.14,22.25-9.75,8.43-1.79,16.74,2.32,25.04-.01,4.37-1.23,8.07-2.16,12.67-1.07,5.61,1.32,11.38,3.62,16.48,6.29,8.79,4.59,17.91,12.46,23.99,20.32,6.83,8.82,7.76,20.76,7.69,31.53s-1.43,21.45-4.43,31.7c-1.63,5.57,7.05,7.95,8.68,2.39h0Z"/>
  </g>
  <g class="cls-2">
    <path class="cls-3" d="M131.53,63.37c.97-2.62.6-6.18.61-8.91.02-4.52-.08-9.04-.36-13.55-.35-5.75-9.36-5.79-9,0,.26,4.14.36,8.29.36,12.44,0,2.28.28,6.08-.29,7.64-2.01,5.44,6.68,7.79,8.68,2.39h0Z"/>
  </g>
  <g>
    <path class="cls-1" d="M100.61,28.5c1.53-7.09,5.66-11.89,12.46-14.42s13.5-3.12,20.71-2.29c4.94.57,10.73,2.18,15.06,4.63s5.55,7.98,6.22,12.91c0,0-9.32-3.24-12.89-3.41s-11.56,1.5-14.08,1.9c-1.18.19-11.1-2.28-14.84-2.15s-12.64,2.83-12.64,2.83Z"/>
    <path d="M102.06,28.9c.85-3.79,2.53-7.26,5.46-9.88,3.34-2.98,7.85-4.4,12.15-5.29,5-1.03,10.26-1.06,15.3-.29,4.56.7,9.47,1.97,13.41,4.44s4.66,7.71,5.23,11.84l1.85-1.85c-3.07-1.07-6.2-2.05-9.37-2.81-1.79-.42-3.57-.73-5.41-.64-2.46.13-4.92.53-7.35.94-1.08.18-2.15.37-3.23.57-.46.08-.91.17-1.37.25-.17.03-.35.06-.52.09-.12.02-.24.04-.36.06.2-.02.23-.02.1-.02-1.25,0-2.76-.41-4.17-.68-3.99-.76-8.21-1.86-12.29-1.3-3.82.53-7.59,1.59-11.28,2.7-1.84.56-1.06,3.45.8,2.89,3.17-.96,6.4-1.83,9.66-2.44,3.86-.72,7.65.16,11.45.88,1.74.33,3.49.74,5.26.91,1.43.14,2.98-.35,4.38-.6,3.98-.71,8.31-1.8,12.34-.98,3.58.73,7.11,1.87,10.56,3.07,1.21.42,1.99-.82,1.85-1.85-.6-4.32-1.57-9.12-4.85-12.26-1.75-1.67-4.08-2.65-6.29-3.53-2.51-1-5.12-1.74-7.77-2.26-5.57-1.1-11.34-1.26-16.95-.36-4.92.79-10.07,2.33-14.07,5.41s-6.33,7.37-7.41,12.17c-.42,1.88,2.47,2.68,2.89.8Z"/>
  </g>
  <path d="M184.85,102.62c1.41.67,2.41-.33,2.95-1.58.69-1.58,1.32-3.19,1.87-4.83,1.04-3.06,1.75-6.2,2.15-9.4.21-1.67.34-3.35.41-5.04.06-1.29-.05-2.61.32-3.86.58-1.92,1.72-3.65,2.47-5.51,1.22-3.05,1.4-6.23.9-9.45-.22-1.43-2.39-.82-2.17.6.5,3.2.05,6.27-1.31,9.19-.91,1.96-2.14,3.88-2.35,6.09-.18,1.87-.12,3.77-.27,5.64s-.39,3.63-.75,5.41-.82,3.47-1.37,5.17c-.3.91-.62,1.8-.96,2.69-.21.54-.42,1.07-.64,1.61-.13.33-.27.65-.41.98-.26.29-.16.4.31.35-1.3-.62-2.45,1.32-1.14,1.94h0Z"/>
  <path d="M181.89,95.59c-.58-9,5.52-16.66,6.92-25.31.23-1.42-1.94-2.03-2.17-.6-1.44,8.88-7.6,16.66-7,25.91.09,1.44,2.34,1.45,2.25,0h0Z"/>
  <path d="M177.52,82.48c.42-3.5.9-7.06,2.81-10.1.94-1.5,2.05-2.89,2.91-4.44s1.58-3.21,2.24-4.88c.78-1.96,1.76-4.04,2.16-6.13.5-2.62,0-5.29-.62-7.84-.34-1.41-2.51-.81-2.17.6.58,2.4,1.11,4.95.45,7.39-.62,2.28-1.61,4.59-2.55,6.75-.67,1.55-1.44,3.07-2.36,4.49s-2.08,2.85-2.85,4.45c-1.46,3.04-1.88,6.4-2.27,9.71-.17,1.43,2.08,1.42,2.25,0h0Z"/>
  <path d="M170.75,73.22c2.15-.99,3.91-2.51,4.83-4.73.82-1.98.9-4.15,1.14-6.26.31-2.77,1.4-5.35,2.1-8.03.87-3.38,1.46-6.83,1.81-10.3.14-1.44-2.11-1.43-2.25,0-.32,3.2-.87,6.36-1.67,9.48-.66,2.57-1.71,5.06-2.09,7.69-.27,1.88-.29,3.81-.8,5.65-.62,2.23-2.14,3.61-4.2,4.55-1.31.6-.17,2.54,1.14,1.94h0Z"/>
  <path d="M163.92,66.91c5.11-1.81,6.95-6.93,7.81-11.84.96-5.53,1.13-11.27.39-16.84-.19-1.41-2.44-1.43-2.25,0,.66,4.96.62,10.07-.11,15.02-.63,4.33-1.74,9.83-6.43,11.49-1.36.48-.77,2.65.6,2.17h0Z"/>
  <path d="M155.23,64.88c2.03-.5,3.92-2.86,5.17-4.4,1.62-2,2.56-4.49,3.17-6.97,1.65-6.69,1.16-14-1.2-20.45-.49-1.35-2.67-.77-2.17.6,2.15,5.87,2.7,12.43,1.36,18.55-.48,2.2-1.18,4.54-2.53,6.39-.65.89-1.43,1.69-2.22,2.45-.58.56-1.37,1.46-2.18,1.66-1.4.35-.81,2.52.6,2.17h0Z"/>
  <path d="M151.34,61.7c2.28-3.03,3.25-7.32,3.94-10.96.96-5.06,1.3-10.42.15-15.47-.59-2.6-1.65-5.04-3.34-7.11-.92-1.12-2.5.48-1.59,1.59,3.71,4.53,3.73,11.38,3.13,16.9-.31,2.85-.89,5.69-1.74,8.43-.59,1.9-1.28,3.89-2.49,5.49-.87,1.16,1.08,2.28,1.94,1.14h0Z"/>
  <path d="M142.11,62.43c.97-2.53,3.56-4.5,3.8-7.32.32-3.79,1.2-7.43,1.21-11.25,0-3.06-.08-6.16-.95-9.11-1.09-3.73-3.34-6.88-6.23-9.44-1.08-.96-2.68.63-1.59,1.59,2.79,2.47,4.9,5.45,5.83,9.09.71,2.77.7,5.62.69,8.45,0,1.76-.14,3.42-.48,5.15-.19.99-.39,1.98-.53,2.98-.11.8-.06,1.66-.19,2.44-.22,1.27-1.18,2.48-1.86,3.54s-1.42,2.1-1.87,3.29c-.52,1.35,1.66,1.94,2.17.6h0Z"/>
  <path d="M131.27,28.63c1.99,2.26,2.2,6.1,2.56,8.96s.48,5.71.35,8.57c-.11,2.5-.46,4.98-.54,7.48-.09,2.91-.57,5.68-1.98,8.26-.69,1.27,1.25,2.41,1.94,1.14,1.49-2.73,2.13-5.68,2.26-8.77.12-2.85.47-5.68.58-8.53.12-3.19-.1-6.37-.56-9.53s-.84-6.68-3.04-9.17c-.96-1.09-2.55.51-1.59,1.59h0Z"/>
  <path d="M122.6,63.01c-.82-2.51-1.75-5.09-2.12-7.71-.21-1.5-.28-2.97-.62-4.46-.41-1.78-.97-3.52-1.34-5.3-.53-2.55-.62-5.4-.56-8,.07-3.19.86-6.3,2.92-8.8.91-1.11-.67-2.71-1.59-1.59-4.01,4.86-4,11.37-3.22,17.34.25,1.94.81,3.8,1.3,5.68.45,1.72.64,3.4.86,5.16.35,2.83,1.32,5.59,2.2,8.28.45,1.37,2.62.78,2.17-.6h0Z"/>
  <path d="M112.55,59.49c-4.01-4.46-5.95-10.01-6.2-15.96-.15-3.48.16-6.97.68-10.4.15-1,.37-1.94.64-2.91.13-.46.26-.92.4-1.37.05-.18.11-.36.17-.54s.27-.48.04-.15l-2.06-.27v.02c.34,1.41,2.51.81,2.17-.6v-.02c-.24-1.01-1.54-1.01-2.06-.27-.45.65-.59,1.75-.79,2.48-.33,1.16-.56,2.27-.74,3.46-.53,3.61-.87,7.27-.68,10.93.34,6.44,2.51,12.37,6.84,17.19.97,1.08,2.56-.52,1.59-1.59h0Z"/>
  <path d="M100.87,62.02c-4.01-2.35-4.94-8.49-5.22-12.67-.42-6.2.53-12.68,3.16-18.33.61-1.31-1.33-2.45-1.94-1.14-2.88,6.21-4,13.33-3.41,20.14.42,4.86,1.69,11.25,6.28,13.94,1.25.73,2.39-1.21,1.14-1.94h0Z"/>
  <path d="M91.52,66.41c-1.86-.53-3-2.56-3.79-4.18-1.24-2.56-1.92-5.4-2.36-8.2-.9-5.74-.93-12.58,1.91-17.82.69-1.27-1.25-2.41-1.94-1.14-2.47,4.57-2.92,10.13-2.61,15.23s1.22,10.17,3.78,14.41c1.03,1.69,2.44,3.31,4.4,3.87,1.4.4,1.99-1.77.6-2.17h0Z"/>
  <path d="M84.02,73.01c-4.47-2.66-6.9-8.18-8.41-12.93s-2.89-10.56-1.68-15.52c.34-1.41-1.83-2.01-2.17-.6-1.34,5.48.08,11.82,1.81,17.09s4.43,10.99,9.32,13.9c1.25.74,2.38-1.2,1.14-1.94h0Z"/>
  <path d="M74.21,109.66c-.04-6.66-6.15-10.87-10.26-15.28s-6.8-8.85-7.21-14.76c-.1-1.44-2.35-1.45-2.25,0,.4,5.67,2.69,10.4,6.36,14.67,2.05,2.38,4.33,4.51,6.53,6.73,2.34,2.36,4.56,5.16,4.58,8.64,0,1.45,2.26,1.45,2.25,0h0Z"/>
  <path d="M78.35,98.89c.23-4.01-2.46-7.11-5.15-9.74s-4.81-5.19-6.64-8.32c-3.47-5.95-6.02-13.17-5.25-20.14.16-1.44-2.09-1.43-2.25,0-.75,6.85,1.6,13.96,4.81,19.93,1.6,2.97,3.54,5.81,5.87,8.26,2.7,2.83,6.61,5.65,6.36,10.01-.08,1.45,2.17,1.44,2.25,0h0Z"/>
  <path d="M78.77,81.73c-5.03-3.82-8.18-9.74-10.16-15.62-.78-2.31-1.42-4.68-1.97-7.05-.29-1.25-.56-2.51-.71-3.78-.08-.71-.3-1.85.01-2.53.61-1.3-1.33-2.45-1.94-1.14-.99,2.12-.19,5,.27,7.16.57,2.67,1.29,5.34,2.17,7.93,2.2,6.49,5.66,12.76,11.2,16.96,1.15.88,2.28-1.08,1.14-1.94h0Z"/>
  <path d="M190.67,114.12c.92-6.04,4.45-10.94,6.68-16.52,2.42-6.08,4.03-12.74,3.76-19.32-.06-1.44-2.31-1.45-2.25,0,.27,6.52-1.38,13.08-3.82,19.09-2.22,5.47-5.63,10.21-6.53,16.16-.21,1.42,1.95,2.03,2.17.6h0Z"/>
  <path d="M125.64,28.94c-.17,5.19.05,10.35.81,15.5.99,6.77.09,13.31-.81,20.04-.19,1.43,2.06,1.42,2.25,0,.88-6.59,1.93-13.21.86-19.84-.84-5.19-1.03-10.45-.86-15.7.05-1.45-2.2-1.45-2.25,0h0Z"/>
  <g class="cls-2">
    <path class="cls-3" d="M152.25,20.31c-3.83-1.67-7.55-2.64-11.74-2.88-2.12-.12-4.32-.17-6.43.05s-3.77,1.25-5.76,1.62c-3.87.73-9.07-1.47-13.11-1.85-1.77-.17-3.54-.25-5.29.14s-3.24,1.64-4.96,1.96c-5.69,1.05-3.28,9.72,2.39,8.68,1.66-.31,2.78-1.43,4.32-1.85,1.3-.35,3.07,0,4.35.15,3.58.43,7.09,1.89,10.69,2,3.19.1,5.76-1.61,8.86-1.96,3.95-.45,8.53.14,12.14,1.71,5.26,2.29,9.84-5.46,4.54-7.77h0Z"/>
  </g>
  <path d="M149.05,26.06c1.62-4.68-1.57-9.22-4.64-12.47-1-1.05-2.59.54-1.59,1.59,2.52,2.66,5.4,6.4,4.06,10.28-.2.57.23,1.23.79,1.38.62.17,1.18-.21,1.38-.79h0Z"/>
  <path d="M141.57,25.85c.23-1.61.48-3.24.29-4.86-.09-.75-.28-1.47-.41-2.22s-.29-1.43-.63-2.11c-.52-1.03-1.21-2-1.92-2.91s-1.52-1.83-2.57-2.3c-.56-.25-1.21-.16-1.54.4-.28.48-.16,1.29.4,1.54,1.63.72,2.77,2.74,3.59,4.23.28.51.38,1.06.47,1.63.11.63.29,1.24.36,1.87.17,1.36-.03,2.76-.23,4.11-.09.6.15,1.21.79,1.38.53.15,1.3-.18,1.38-.79h0Z"/>
  <path d="M133.97,25.93c-.71-2.02-.16-4.19-.22-6.28-.07-2.34-.45-4.69-.71-7.02-.07-.6-.47-1.12-1.12-1.12-.55,0-1.19.52-1.12,1.12.27,2.41.69,4.85.72,7.28.03,2.22-.46,4.46.29,6.62.47,1.36,2.65.77,2.17-.6h0Z"/>
  <path d="M127.06,26.09c-.36-4.52.74-8.93,1.7-13.31.31-1.41-1.86-2.01-2.17-.6-1,4.56-2.16,9.2-1.78,13.91.11,1.43,2.37,1.45,2.25,0h0Z"/>
  <path d="M120.83,25.15c-.76-1.98-.94-4.08-.4-6.14.6-2.31,1.98-4.28,3.7-5.9,1.05-1-.54-2.59-1.59-1.59-3.87,3.67-5.84,9.08-3.88,14.24.22.57.76.96,1.38.79.54-.15,1-.81.79-1.38h0Z"/>
  <path d="M114.44,23.78c-.54-1.89-.18-3.74.49-5.55.63-1.7,1.59-3.26,2.98-4.44.46-.39.4-1.19,0-1.59-.46-.46-1.13-.39-1.59,0-1.69,1.43-2.8,3.38-3.56,5.44-.8,2.17-1.14,4.49-.49,6.74.4,1.39,2.57.8,2.17-.6h0Z"/>
  <path d="M109.41,25.55c-.17-.92-.75-1.7-.78-2.66s.24-1.82.63-2.64.96-1.62,1.37-2.46c.12-.24.32-.4.54-.7.09-.13.18-.25.27-.38.02-.02.12-.2.08-.11-.03.06.18-.11-.08.06,1.2-.79.08-2.74-1.14-1.94-.37.25-.61.59-.87.95-.06.08-.11.16-.17.24-.06.09-.09.09,0,0-.16.16-.32.31-.44.51-.26.42-.47.87-.73,1.3-.3.51-.59,1.02-.84,1.56-.5,1.08-.86,2.23-.86,3.43,0,.59.08,1.21.27,1.77s.48,1.07.59,1.66.84.94,1.38.79c.63-.17.89-.78.79-1.38h0Z"/>
</svg>