<?xml version="1.0" encoding="UTF-8"?>
<svg id="Layer_1" data-name="Layer 1" xmlns="http://www.w3.org/2000/svg" viewBox="0 0 128 128">
  <defs>
    <style>
      .cls-1 {
        fill: #e89d74;
      }

      .cls-2 {
        opacity: .3;
      }

      .cls-3 {
        fill: #435054;
      }

      .cls-4 {
        fill: #eae9e8;
      }
    </style>
  </defs>
  <g>
    <path class="cls-4" d="M30,69.48c.86-6.94-1.84-23.92-.2-31.74,1.21-5.75,6.5-12.69,10.81-15.5,12.87-8.4,26.34-8.08,40.5-3.14,7.53,2.63,13.61,9.71,13.61,9.71,2.92,2.74,5.33,11.68,5.38,12.21.7,7.55-1.15,27.92-1.15,27.92.92,9.73-2.27,21.31-5.48,28.3-1.11,2.42-8.53,11.28-8.53,11.28-3.83,4.55-5.54,7.07-10.49,9.51-1.09.54-1.45,2.45-12.19,2.22-7.68-.17-10.7-5.03-16.21-9.63-4.62-3.86-10.41-9.74-12.32-15.74-1.93-6.03-4.78-17.04-3.74-25.39Z"/>
    <path d="M31.5,69.48c.5-4.2.04-8.54-.22-12.75-.3-4.92-.7-9.88-.46-14.81s2.2-9.42,5.34-13.38c3.68-4.63,8.75-7.63,14.32-9.5s11.92-2.35,17.95-1.56,12.25,2.34,17.31,5.57c2.94,1.88,5.55,4.22,7.91,6.78s3.65,6.62,4.63,10.07c.13.45.24.9.35,1.35.08.3-.03-.66,0-.06,0,.13.02.26.03.39.03.46.06.93.07,1.39.07,1.93.04,3.87,0,5.8-.11,4.28-.37,8.55-.67,12.82-.17,2.41-.51,4.85-.58,7.27-.02.96.13,1.95.15,2.91.03,1.53-.04,3.07-.16,4.59-.26,3.09-.81,6.16-1.55,9.17-1.07,4.34-2.32,9.14-4.89,12.85-2.01,2.9-4.28,5.64-6.53,8.36-2.49,3.01-4.89,6.36-8.2,8.53-.87.57-1.81.98-2.69,1.52-.09.06-.17.12-.26.18-.12.09-.24.18-.35.27-.29.22.25-.18.04-.03-.85.59-1.09.69-2.04.94-1.95.51-4.01.57-6.01.6-2.83.04-5.64-.02-8.22-1.31-2.19-1.1-4-2.75-5.77-4.41-1.99-1.86-4.07-3.6-6.08-5.44-4.18-3.83-8.2-8.29-9.91-13.8-1.6-5.13-2.89-10.42-3.44-15.77-.29-2.84-.37-5.71-.04-8.55.22-1.91-2.78-1.9-3,0-.72,6.12.33,12.43,1.74,18.38.59,2.49,1.26,4.97,2.06,7.41.95,2.9,2.54,5.5,4.39,7.9,3.65,4.73,8.32,8.42,12.67,12.46,1.87,1.73,3.84,3.45,6.16,4.55,2.75,1.3,5.59,1.59,8.6,1.58,3.24,0,7.4.1,10.22-1.81.1-.07.2-.15.3-.22.74-.56.08-.11.3-.23.75-.42,1.53-.81,2.27-1.26,2.15-1.31,3.98-3,5.63-4.88,2.3-2.63,4.51-5.35,6.68-8.08,2.47-3.11,4.82-6.07,6.32-9.77,2.36-5.82,3.9-12.03,4.52-18.29.36-3.58,0-7.13.29-10.7.66-8.1,1.5-16.39,1.01-24.52-.21-3.49-1.75-7.12-3.23-10.22-1.37-2.88-3.5-5.1-5.86-7.21-1.94-1.74-4.04-3.34-6.28-4.67-2.7-1.59-5.64-2.61-8.64-3.47-6.18-1.79-12.69-2.75-19.12-2.12s-13.12,2.93-18.69,6.64c-4.6,3.06-8.29,7.99-10.41,13.05-1.85,4.42-1.78,9.31-1.62,14.02.17,5.2.65,10.39.82,15.6.06,1.95.09,3.93-.13,5.87s2.78,1.9,3,0Z"/>
  </g>
  <g class="cls-2">
    <path class="cls-3" d="M70.55,117.9c9.4-3.57,16.04-9.79,21.15-18.58,3.12-5.37,6.03-11.59,7.28-17.69,1.2-5.84.62-11.72.77-17.62.28-10.56,3.65-20.69-1.04-30.91-4.83-10.51-16.41-14.96-26.87-17.69-3.74-.97-5.33,4.81-1.6,5.79,9.44,2.46,20.55,6.3,23.86,16.55,2.84,8.78-.12,17.41-.35,26.26-.13,4.94.42,9.91-.37,14.82-.85,5.35-3.16,10.52-5.67,15.28-4.32,8.2-10.08,14.71-18.76,18-3.58,1.36-2.03,7.16,1.6,5.79h0Z"/>
    <path class="cls-3" d="M58.3,111.7c-3.56-1.71-5.73-3.33-8.44-6.06-3.37-3.38-7.47-6.17-9.62-10.51-2.78-5.6-5.11-12.68-5.09-18.96.01-3.75.73-7.49.68-11.25-.12-9.62-3.48-20.32.55-29.57,4.12-9.44,11.6-12.24,20.93-14.16,3.78-.78,2.18-6.56-1.6-5.79-10.14,2.08-17.33,5.22-23.06,14.26-6.66,10.5-3.16,23.03-2.84,34.58.12,4.4-.81,8.77-.63,13.17.29,7.15,2.88,14.62,5.97,21.02,2.19,4.55,6.52,7.57,10.05,11.04,3.27,3.21,5.81,5.37,10.06,7.4,3.47,1.66,6.51-3.51,3.03-5.18h0Z"/>
  </g>
  <g class="cls-2">
    <path class="cls-3" d="M65.93,65.48c.19,1.11.66,2.16,1.03,3.22.58,1.65.31,2.83.27,4.61-.05,2.67-.48,6.42,1.71,8.35,2.88,2.55,7.14-1.68,4.24-4.24.19,1.12.26,1.35.2.69-.03-.4-.06-.8-.09-1.2-.03-.6-.02-1.21-.03-1.81-.03-1.82.31-3.7.16-5.5-.17-2-1.35-3.75-1.69-5.72-.66-3.8-6.45-2.19-5.79,1.6h0Z"/>
    <path class="cls-3" d="M72.83,83.86c2.06.61-.37-.2-.76-.31-.76-.2-1.45-.1-2.2.04-1.91.37-2.69,1.53-4.12,2.62-1.83,1.4-2.34-.05-4.06-1-1.32-.73-3.59-.39-4.58-1.39-2.72-2.75-6.97,1.5-4.24,4.24,1.79,1.8,3.28,1.58,5.46,2.3,1.79.59,2.87,2.24,4.93,2.53s4.02-.27,5.6-1.44c.31-.23,2.19-1.65,2.16-2-1.69-.92-2-.99-.92-.23.36.18.74.33,1.13.43,3.71,1.1,5.3-4.69,1.6-5.79h0Z"/>
  </g>
  <path d="M66.55,64.68c.18.89.35,1.78.49,2.68.02.12.04.25.05.37.05.36-.04-.28,0,.03.03.27.07.54.1.81.09.66.19,1.31.31,1.96.05.27.1.54.15.81.02.11.12.97.12.55,0-.37-.04.3-.05.4-.21,2.77-1.26,6.67,1.2,8.77.62.52,1.52.61,2.12,0,.54-.54.62-1.59,0-2.12-.35-.29-.43-.41-.53-.82-.04-.19-.08-.38-.12-.57,0,.01-.11-.56-.07-.26.03.26,0-.15,0-.21,0-.14,0-.28,0-.42,0-.33.03-.66.05-.98.1-1.25.36-2.52.35-3.78,0-.78-.25-1.58-.39-2.35-.06-.32-.11-.64-.16-.97-.02-.12-.04-.25-.05-.37-.05-.36.04.28,0-.03-.18-1.44-.43-2.86-.71-4.28-.16-.79-1.1-1.25-1.85-1.05-.83.23-1.21,1.05-1.05,1.85h0Z"/>
  <path d="M72.42,84.26c-1.54-.1-2.76-.18-4.21.51-.83.4-1.39.92-2.01,1.58-.51.55-1.09.81-1.85.77-1.58-.07-2.36-1.37-3.68-1.98-.77-.35-1.37-.46-2.2-.48-.49,0-.99-.15-1.47-.25-.17-.04-.36-.04-.5-.15-.16-.12-.02.01,0-.11.17-1.92-2.84-1.91-3,0-.1,1.2.67,2.3,1.72,2.82.92.46,2.39.76,3.41.69.73-.05-.08-.17.26-.02.12.05.25.08.36.13.52.22.37.19.78.55.79.7,1.71,1.24,2.73,1.54,2.03.61,4.23.1,5.65-1.49.55-.61,1.14-1.1,2.02-1.25.48-.08,1.38.08,1.99.12,1.93.13,1.92-2.87,0-3h0Z"/>
  <g class="cls-2">
    <path class="cls-3" d="M38.4,69.69c1.1,1.59,1.97,2.75,3.91,3.25,2.05.52,4.42,1.2,6.54,1.16,3.38-.07,5.09-2.1,7.13-4.43,2.53-2.9-1.7-7.16-4.24-4.24-.37.43-.74.86-1.11,1.28-.28.32-.54.68-.86.97-.58.53.29.06-.34.27-1.23.41-5.1-.21-5.85-1.28-2.19-3.15-7.4-.15-5.18,3.03h0Z"/>
    <path class="cls-3" d="M56.4,56.68c-1.57,2.89-1.96,6.28-2.84,9.41-.37,1.33-.68,3-1.77,3.95-1.26,1.1-3.64,1.4-5.17,1.95-3.61,1.3-2.05,7.1,1.6,5.79,4-1.44,7.97-2.27,9.87-6.48,1.65-3.66,1.6-8.09,3.5-11.59s-3.33-6.43-5.18-3.03h0Z"/>
    <path class="cls-3" d="M69.92,59.02c0,3.73.07,7.74,2.36,10.89s6.59,5.18,10.41,6.19c3.73,1,5.33-4.79,1.6-5.79-2.52-.67-5.72-1.8-7.25-4.06-1.36-2.01-1.11-4.92-1.11-7.23,0-3.86-6-3.87-6,0h0Z"/>
    <path class="cls-3" d="M79.76,72.12c3.17.31,5.7,2.01,8.85.25,2.34-1.31,3.53-3.87,4.96-6.01,2.15-3.22-3.04-6.22-5.18-3.03-.7,1.05-1.51,3.22-2.69,3.8-.74.36-1.75-.1-2.47-.32-1.16-.34-2.27-.57-3.47-.69-3.84-.38-3.81,5.63,0,6h0Z"/>
    <path class="cls-3" d="M73.86,61.61c2.76,1.47,5.85,1.64,8.92,1.87s6.34.93,9.46.83c3.85-.12,3.87-6.12,0-6-2.63.08-5.35-.5-7.99-.72-2.39-.2-5.21,0-7.37-1.16-3.41-1.82-6.44,3.36-3.03,5.18h0Z"/>
    <path class="cls-3" d="M54.93,56.97c-2.85.78-5.64,1.78-8.46,2.67-3.37,1.06-5.96,1.33-9.51,1.09-3.85-.26-3.84,5.74,0,6s6.62.06,10.16-1.01c3.15-.96,6.24-2.1,9.41-2.97,3.72-1.02,2.14-6.81-1.6-5.79h0Z"/>
  </g>
  <path d="M91.83,52.44c-1.86-.25-3.68-.24-5.52.21-1.52.37-2.95,1.03-4.36,1.71-2.81,1.36-5.46,2.4-8.64,1.74-1.73-.36-2.51,1.74-1.16,2.74.28.2.55.41.83.61.65.48,1.67.11,2.05-.54.45-.76.11-1.57-.54-2.05-.28-.2-.55-.41-.83-.61l-1.16,2.74c3.52.73,6.63.02,9.82-1.5,2.8-1.33,5.5-2.6,8.69-2.16.8.11,1.61-.19,1.85-1.05.19-.7-.24-1.74-1.05-1.85h0Z"/>
  <path d="M58.59,55.75c-2.55,1.62-6.42.78-9.21.4-4.02-.54-8.08-1.27-12.15-.94-1.91.15-1.93,3.16,0,3,4.27-.35,8.52.48,12.74,1.02,3.25.42,7.2.97,10.13-.89,1.62-1.03.12-3.63-1.51-2.59h0Z"/>
  <path d="M91.06,64.43c-2.15-1.67-4.87-2.42-7.5-2.9-2.87-.52-5.83-.78-8.75-.66-1.92.08-1.93,3.08,0,3,2.58-.11,5.19.07,7.73.51,1.29.23,2.57.52,3.81.93.5.17.95.34,1.38.54.25.12.5.25.75.4.09.05.18.11.27.17,0,0,.39.28.19.12.64.5,1.5.62,2.12,0,.52-.52.64-1.62,0-2.12h0Z"/>
  <path d="M56.85,62.2c-2.09-.22-4.19-.06-6.26.26-.99.16-1.97.37-2.93.66-.47.15-.92.32-1.41.41-1.19.22-2.4.38-3.58.62-.95.19-2.51.41-2.99,1.41-.35.73-.2,1.62.54,2.05.65.38,1.7.2,2.05-.54-.04.08-.45.43-.35.36.2-.13-.27.09-.08.03.2-.07.41-.13.61-.19.55-.15,1.1-.25,1.66-.36,1.04-.19,2.09-.32,3.13-.53.49-.1.96-.3,1.44-.44.89-.26,1.79-.45,2.7-.59,1.79-.29,3.65-.34,5.46-.16.81.08,1.5-.75,1.5-1.5,0-.88-.69-1.42-1.5-1.5h0Z"/>
  <path d="M72.44,58.8c-.06,1.23.02,2.5.11,3.73.05.71.1,1.43.27,2.12s.6,1.34.87,2.01c.87,2.13,2.53,3.7,4.41,4.97.87.58,1.79,1.1,2.75,1.52,1.02.45,2.1.77,3.06,1.35,1.66,1,3.17-1.6,1.51-2.59-.94-.56-1.97-.91-2.98-1.32-.85-.35-1.67-.81-2.45-1.3-1.49-.95-2.9-2.15-3.57-3.82-.18-.45-.35-.91-.59-1.34-.3-.53-.07-.06-.07-.07.02-.06-.06-.25-.08-.31-.02-.11-.04-.22-.06-.34.06.35,0-.06-.01-.13-.04-.36-.07-.72-.09-1.08-.08-1.13-.15-2.28-.09-3.41.1-1.93-2.9-1.92-3,0h0Z"/>
  <path d="M55.46,60.37c-.34,2.37-1.01,4.67-1.68,6.97-.25.87-.47,1.54-.98,2.28-.25.37-.9.97-1.25,1.2-.3.2-.62.38-.94.53-.05.03-.43.19-.16.08-.17.07-.35.14-.52.2-.59.21-1.19.37-1.8.52-1.06.25-2.14.42-3.12.91-.72.36-.93,1.39-.54,2.05.43.74,1.33.9,2.05.54.34-.17-.26.05,0,0,.11-.02.23-.08.34-.11.23-.07.45-.12.68-.18.59-.14,1.18-.26,1.76-.41,1.45-.37,2.91-.9,4.13-1.79,1.61-1.19,2.57-2.77,3.15-4.67.73-2.4,1.43-4.83,1.78-7.32.11-.8-.2-1.61-1.05-1.85-.7-.19-1.73.24-1.85,1.05h0Z"/>
  <g>
    <path class="cls-1" d="M95.73,49.91c-2.43,2.02-4.16,2.75-7.11,3.9.22-.74,2.32-4,2.55-4.74-1.75,1.1-5.51,4.38-7.56,4.56.46-.87,2.62-4.74,2.13-5.6-2.73,1.08-6.78,4.58-9.51,5.66-.19-.68,1.52-4.26,1.32-4.93-1.74.45-6.56,4.37-8.3,4.81,0-.61,2.16-5.17,2.17-5.78-5.52,3.24-9.38,5.29-12.78,6.08.94-1.35,2.28-4.68,2.28-4.68,0,0-6.24,4.8-10.69,4.44.57-1,.15-2.67.72-3.67-2.49.96-2.88,3.07-4.81,4.51-.36-2.04-1.91-4.85-.72-6.6-1.44,2.52-1.08,3.72-2.64,6.72-.35-.49-1-5.92-1.68-5.76-.72.16-1.17,5.6-1.71,5.22-2.16-1.53-1.39-5.39-1.68-5.9-1.66.31-1.46,7.13-2.47,6.17-2.1-2.01-1.99-4.45-2.31-3.57-.62,1.71-1.15,6.06-1.11,7.87.18,8.51,1.81,17.35,4.56,25.4-1.04-.87-2.2-2.11-3.24-2.99-.08,1.08-.25,2.3-.49,3.35-.28,1.22-2.31,4.61-2.77,5.78-.83-1.24-.02-4.87-.85-6.1-.19,1.62-2.44,6.17-3.6,7.31-.66-.86.16-4.73-.5-5.59-2.52,2.63-2.42,3.56-6.7,6.49.41-2.4-.04-3.4.37-5.81-.84.88-1.9,2.84-3.07,2.48.9-3.42,2.72-7.91,3.41-11.83,2.07-11.75,1.02-22.88,2.88-33.32,2.53-14.2,8.52-23.9,21.44-30.31,12.92-6.41,28.87-6.31,41.71.25,7.51,3.84,15.14,9.65,18.33,17.46,2.82,6.91,3.89,13.85,4.34,21.3.78,12.8-1.33,23.71,3.84,37.55-2.11-1.74-3.06-3.08-5.18-4.81.32,1.07-1.4,4.23-1.08,5.3-1.33-1.58-1.42-4.27-2.75-5.85-.39,1.1-2.03,3.66-2.42,4.76-.66-1.7-.08-4.87-.74-6.57l-3.19,4.69c1.51-13.24-1.89-16.61-.89-29.89.16-2.16.49-7.76.49-7.76Z"/>
    <path d="M94.67,48.85c-1.95,1.59-4.12,2.61-6.45,3.52l1.85,1.85c-.12.34.05-.13.1-.2.13-.18.23-.42.33-.61.27-.49.56-.97.84-1.46.46-.8.97-1.6,1.28-2.48.43-1.23-1.14-2.38-2.2-1.69-1.21.78-2.34,1.7-3.52,2.53-1.09.76-2.32,1.7-3.68,1.89l1.69,2.2c.56-1.05,1.12-2.1,1.6-3.2.44-1,1.14-2.45.68-3.55-.28-.68-1.02-1.39-1.85-1.05-3.43,1.42-6.09,4.24-9.51,5.66l1.85,1.05c.08.55.23-.42.3-.63.17-.53.37-1.04.55-1.57.32-.91.62-1.77.47-2.74-.12-.79-1.14-1.25-1.85-1.05-1.55.45-2.93,1.51-4.25,2.39-1.24.82-2.65,2.01-4.05,2.43l1.9,1.45c-.05.54.05-.04.1-.17.1-.25.19-.51.29-.77.24-.6.49-1.2.75-1.8.41-.97.93-1.97,1.03-3.04.11-1.16-1.35-1.83-2.26-1.3-3.91,2.29-7.96,4.85-12.42,5.92l1.69,2.2c1.03-1.54,1.74-3.33,2.43-5.04.47-1.16-1.19-2.47-2.2-1.69-2.71,2.07-6.4,4.44-9.93,4.24l1.3,2.26c.29-.62.44-1.19.51-1.87.06-.56-.03-1.27.21-1.8.66-1.43-.66-2.64-2.05-2.05-2.33.99-3.23,3.24-5.11,4.74l2.51.66c-.31-1.53-1.74-3.97-.87-5.45l-2.59-1.51c-1.18,2.14-1.55,4.55-2.64,6.72h2.59c.23.41-.06-.29-.11-.52-.1-.45-.19-.9-.28-1.36-.19-.94-.35-1.9-.66-2.81-.28-.83-.72-1.65-1.67-1.8-1.06-.16-1.71.66-2.05,1.55-.3.79-.44,1.64-.61,2.46-.09.45-.18.9-.29,1.34-.04.15-.13.36-.14.51-.06.16-.06.18-.02.06.22-.66.87-.82,1.96-.46,0,.02-.45-.55-.46-.57-.12-.22-.19-.44-.26-.68-.14-.49-.18-.99-.2-1.5-.03-.71.12-1.63-.15-2.3-.3-.75-1-1.29-1.85-1.05-2.21.63-2.36,3.74-2.7,5.59-.06.34-.3.88-.27,1.21.03.31-.1-.15.01-.03l.97-.11c.95.15,1.22.07.82-.26-.18-.44-.74-.91-.98-1.37-.51-.96-.59-2.47-1.92-2.65-1.62-.22-1.95,1.71-2.19,2.88-.34,1.63-.55,3.31-.67,4.97-.3,4.03.27,8.21.85,12.19.77,5.2,2.01,10.31,3.7,15.29l2.51-1.46c-1.11-.96-2.12-2.03-3.24-2.99-1.02-.88-2.45-.26-2.56,1.06-.15,1.75-.45,3.23-1.24,4.79-.66,1.31-1.41,2.58-1.97,3.94l2.74-.36c-.43-.76-.21-2.08-.23-2.93-.02-1.09-.08-2.21-.63-3.18-.59-1.03-2.54-.96-2.74.36-.18,1.21-.75,2.39-1.28,3.47s-1.09,2.3-1.93,3.17l2.36.3c-.22-.36-.04-1.93-.02-2.63.02-.98.06-2.09-.47-2.97-.49-.8-1.68-1.02-2.36-.3-.92.98-1.73,2.04-2.61,3.05-1.11,1.26-2.41,2.26-3.79,3.21l2.2,1.69c.3-1.93.07-3.88.37-5.81.2-1.34-1.4-2.69-2.51-1.46-.35.38-.65.8-.98,1.2-.2.25-.95.84-.63.89l1.05,1.85c.89-3.31,2.16-6.5,2.98-9.83.93-3.76,1.29-7.71,1.58-11.57.57-7.69.35-15.47,1.62-23.09.93-5.6,2.51-11.17,5.36-16.11,2.72-4.7,6.56-8.57,11.12-11.49,11.62-7.43,26.41-8.98,39.4-4.43,6.21,2.18,12.26,5.81,16.95,10.44,2.35,2.31,4.37,4.97,5.71,7.99,1.52,3.42,2.51,7.13,3.21,10.8,2.71,14.13-.21,28.73,3.35,42.73.49,1.92,1.09,3.81,1.78,5.67l2.51-1.46c-1.81-1.52-3.37-3.3-5.18-4.81-1.16-.97-2.81-.06-2.51,1.46.09.44-.53,1.81-.73,2.42-.3.94-.55,1.88-.35,2.87l2.51-1.46c-.64-.83-.88-1.96-1.22-2.93-.38-1.07-.83-2.01-1.53-2.91-.77-.99-2.15-.25-2.51.66-.64,1.66-1.78,3.1-2.42,4.76h2.89c-.72-2.1-.02-4.44-.74-6.57-.43-1.26-2-1.44-2.74-.36-1.06,1.56-2.12,3.13-3.19,4.69l2.8.76c.41-3.7.51-7.4.18-11.11-.27-3.04-.78-6.06-1.05-9.11-.5-5.81.13-11.63.47-17.44.11-1.93-2.89-1.92-3,0-.34,5.81-.96,11.62-.47,17.44.26,2.99.76,5.96,1.03,8.95.35,3.76.25,7.51-.17,11.26-.18,1.61,2.05,1.86,2.8.76l3.19-4.69-2.74-.36c.72,2.1.02,4.44.74,6.57.5,1.46,2.36,1.38,2.89,0,.64-1.66,1.78-3.1,2.42-4.76l-2.51.66c.64.83.88,1.96,1.22,2.93.38,1.07.83,2.01,1.53,2.91,1.01,1.29,2.77-.16,2.51-1.46-.09-.44.53-1.81.73-2.42.3-.94.55-1.88.35-2.87l-2.51,1.46c1.81,1.52,3.37,3.3,5.18,4.81,1.03.86,3.08.08,2.51-1.46-2.65-7.19-3.52-14.6-3.59-22.23s.09-14.95-.92-22.4-2.88-14.83-7.45-20.68c-4.23-5.42-10.2-9.52-16.36-12.45-13.04-6.2-28.72-6.18-41.73.12-5.31,2.57-10.21,6.13-13.89,10.76-3.55,4.47-5.92,9.69-7.4,15.17-1.95,7.19-2.32,14.61-2.63,22.02-.17,4.1-.36,8.21-.82,12.29s-1.31,7.63-2.53,11.38c-.53,1.63-1.08,3.26-1.52,4.92-.2.72.24,1.71,1.05,1.85,2.23.38,3.23-1.42,4.53-2.86l-2.51-1.46c-.3,1.93-.07,3.88-.37,5.81-.18,1.15,1.01,2.52,2.2,1.69,1.51-1.04,3-2.14,4.24-3.51.95-1.05,1.79-2.19,2.77-3.22l-2.36-.3c.22.36.04,1.93.02,2.63-.02.98-.06,2.09.47,2.97.49.81,1.67,1.01,2.36.3,1.03-1.07,1.75-2.46,2.4-3.78s1.37-2.74,1.59-4.19l-2.74.36c.43.76.21,2.08.23,2.93.02,1.09.08,2.21.63,3.18.7,1.23,2.28.77,2.74-.36.53-1.3,1.43-2.69,2.07-4.04.83-1.75,1.08-3.57,1.25-5.49l-2.56,1.06c1.11.96,2.12,2.03,3.24,2.99,1.05.9,3.02.07,2.51-1.46-2.04-6.02-3.46-12.26-4.11-18.58-.27-2.62-.53-5.32-.35-7.95.08-1.13.21-2.26.4-3.39.09-.5.18-1.01.3-1.51.05-.21.12-.42.16-.63.16-.76.45-.08-.43.29h-1.51c-.46-.31-.61-.85-.4-.22.12.36.27.72.42,1.06.39.87.91,1.68,1.57,2.38.94,1,2.38,1.16,3.11-.18.51-.93.56-2.11.75-3.13.11-.58.21-1.18.4-1.75.03-.11.21-.43.19-.5-.04-.21.11-.01-.22.08l-1.85-1.05c.07.17.05-.29.02.03-.02.17,0,.37,0,.54,0,.49,0,.97.04,1.46.1,1.18.33,2.39.98,3.41.6.94,1.75,2.04,2.93,1.36.72-.42.94-1.3,1.11-2.05.22-.92.36-1.86.6-2.78.07-.26.24-.79.25-.77h-2.16c.07.14.08.15.03.03-.01.15.14.41.18.55.46,1.58.41,3.57,1.23,5.02.53.94,2.08,1.02,2.59,0,1.09-2.17,1.47-4.61,2.64-6.72.93-1.69-1.61-3.18-2.59-1.51-1.48,2.52.06,5.21.57,7.76.24,1.22,1.71,1.3,2.51.66,1.67-1.33,2.47-3.41,4.5-4.27l-2.05-2.05c-.29.62-.44,1.19-.51,1.87-.06.56.03,1.27-.21,1.8-.49,1.05.09,2.19,1.3,2.26,4.06.23,8.32-2.26,11.44-4.65l-2.2-1.69c-.6,1.48-1.24,2.99-2.13,4.32-.76,1.14.49,2.49,1.69,2.2,4.71-1.13,9.01-3.81,13.14-6.23l-2.26-1.3c.05-.54-.05.04-.1.17-.1.25-.19.51-.29.77-.24.6-.49,1.2-.75,1.8-.41.97-.93,1.97-1.03,3.04-.09.98,1.03,1.7,1.9,1.45,1.55-.45,2.93-1.51,4.25-2.39,1.24-.82,2.65-2.01,4.05-2.43l-1.85-1.05c-.08-.55-.23.42-.3.63-.17.53-.37,1.04-.55,1.57-.32.91-.62,1.77-.47,2.74.11.74,1.16,1.33,1.85,1.05,3.43-1.42,6.09-4.24,9.51-5.66l-1.85-1.05c.1.25-.01.02.03-.05-.08.14-.13.5-.18.65-.16.49-.37.96-.59,1.43-.39.82-.82,1.61-1.24,2.41-.67,1.26.43,2.38,1.69,2.2,2.99-.41,5.49-3.15,7.92-4.71l-2.2-1.69c.12-.34-.05.13-.1.2-.13.18-.22.42-.33.61-.27.49-.56.97-.84,1.46-.46.8-.97,1.6-1.28,2.48-.36,1.02.8,2.26,1.85,1.85,2.84-1.11,5.39-2.35,7.77-4.29,1.5-1.22-.64-3.33-2.12-2.12Z"/>
  </g>
  <g class="cls-2">
    <path class="cls-3" d="M111,84.54c-4.7-13.7-2.21-27.9-4.37-41.91-1.87-12.16-8.49-22.34-19.49-27.93-12.23-6.21-27.33-8.63-40.42-3.79-11.52,4.26-19.63,13.96-23.33,25.51-2.33,7.28-2.26,14.7-2.62,22.23-.46,9.44-2.15,18.71-4.8,27.78-1.09,3.71,4.7,5.3,5.79,1.6,2.36-8.07,3.96-16.32,4.7-24.7s.08-16.08,2.3-23.91c4.72-16.61,19.32-26.44,36.52-24.93,7.86.69,16.02,3.28,22.66,7.59s10.17,10.91,12.17,18.54,1.12,16.16,1.54,24.01c.39,7.28,1.18,14.58,3.56,21.51,1.25,3.63,7.04,2.07,5.79-1.6h0Z"/>
  </g>
  <path d="M107.32,84.9c-3.37-10.24-3.58-21.07-3.75-31.74-.01-.96-1.51-.97-1.5,0,.17,10.8.39,21.79,3.8,32.14.3.91,1.75.52,1.45-.4h0Z"/>
  <path d="M103.8,84.78c-1.28-4.89-2-9.9-2.15-14.96-.03-.96-1.53-.97-1.5,0,.15,5.19.88,10.34,2.2,15.36.24.93,1.69.54,1.45-.4h0Z"/>
  <path d="M99.91,81.86c-.04-2.93-.07-5.86-.11-8.79-.01-.96-1.51-.97-1.5,0,.04,2.93.07,5.86.11,8.79.01.96,1.51.97,1.5,0h0Z"/>
  <path d="M96,50.06c2.68-4.27.97-9.54.72-14.19-.05-.96-1.55-.97-1.5,0,.23,4.32,1.98,9.48-.51,13.43-.52.82.78,1.57,1.3.76h0Z"/>
  <path d="M91.28,49.96c.99-1.22,1.38-2.8,1.61-4.32s.3-3.15.35-4.73c.03-.97-1.47-.96-1.5,0-.04,1.41-.08,2.82-.28,4.22-.17,1.25-.43,2.79-1.24,3.78-.26.31-.31.75,0,1.06.26.26.8.32,1.06,0h0Z"/>
  <path d="M86.57,48.94c1-1.97,1.24-4.26,1.24-6.44s-.26-4.51-.73-6.71c-.2-.94-1.65-.54-1.45.4.42,2.01.66,4.06.67,6.12s-.13,4.09-1.04,5.88c-.44.86.86,1.62,1.3.76h0Z"/>
  <path d="M78.74,49.12c2.24-6.3,2.18-13.29-.17-19.55-.34-.9-1.79-.51-1.45.4,2.26,6.04,2.32,12.68.17,18.76-.32.91,1.13,1.3,1.45.4h0Z"/>
  <path d="M72.01,48.69c1.63-3.76,2.06-7.91,1.18-11.92-.2-.94-1.65-.54-1.45.4.78,3.58.43,7.39-1.03,10.76-.38.88.91,1.64,1.3.76h0Z"/>
  <path d="M61.18,50.87c2.93-5.27,4.15-11.39,3.4-17.38-.12-.95-1.62-.96-1.5,0,.72,5.74-.38,11.56-3.19,16.62-.47.84.83,1.6,1.3.76h0Z"/>
  <path d="M51.55,50.32c.4-2.98,1.61-5.76,2.72-8.53,1.02-2.54,2.08-5.19,2.1-7.97,0-.97-1.49-.97-1.5,0-.02,2.72-1.14,5.34-2.15,7.82-1.08,2.68-2.23,5.39-2.62,8.28-.13.94,1.32,1.35,1.45.4h0Z"/>
  <path d="M45.43,49.93c.54-2.93,1.11-5.86,1.87-8.74.65-2.46,1.35-5.13,2.85-7.23.56-.79-.74-1.54-1.3-.76-1.52,2.13-2.27,4.85-2.94,7.35-.79,2.96-1.38,5.97-1.94,8.98-.17.94,1.27,1.35,1.45.4h0Z"/>
  <path d="M37.98,47.84c.01-1.85.32-3.68.77-5.47.41-1.65.93-3.33,1.8-4.8.49-.83-.8-1.59-1.3-.76-.93,1.58-1.51,3.39-1.95,5.16-.48,1.91-.81,3.9-.82,5.87,0,.97,1.49.97,1.5,0h0Z"/>
  <path d="M33.18,81.59c-1.23-7.79-5.88-15.01-4.61-23.11.15-.94-1.3-1.35-1.45-.4-.63,4.03-.04,7.91,1.15,11.77s2.79,7.94,3.45,12.13c.15.95,1.6.55,1.45-.4h0Z"/>
  <path d="M29.75,84.11c-1.44-6.51-3.69-13.03-3.76-19.77,0-.96-1.51-.97-1.5,0,.07,6.87,2.34,13.52,3.81,20.16.21.94,1.65.54,1.45-.4h0Z"/>
  <path d="M19.09,92.18c4.58-5.76,4.37-13.15,4.21-20.12-.02-.96-1.52-.97-1.5,0,.15,6.49.51,13.67-3.77,19.06-.59.75.46,1.82,1.06,1.06h0Z"/>
  <path d="M24.27,86.99c1.45-2.95,1.54-6.41,1.04-9.6-.06-.4-.56-.62-.92-.52-.43.12-.59.52-.52.92.43,2.76.36,5.89-.89,8.45-.42.86.87,1.62,1.3.76h0Z"/>
  <path d="M37.13,21.82c-5.32,5.35-8.87,12.3-10.06,19.75-.15.94,1.3,1.35,1.45.4,1.15-7.21,4.52-13.91,9.67-19.09.68-.69-.38-1.75-1.06-1.06h0Z"/>
  <path d="M98.81,30.19c-4.78-7.34-12.13-12.79-20.55-15.21-.93-.27-1.33,1.18-.4,1.45,8.04,2.32,15.09,7.51,19.66,14.52.53.81,1.82.05,1.3-.76h0Z"/>
  <path d="M53.3,53.76c2.38-.68,3.45-3.19,4.31-5.29.54-1.31,1.11-2.6,1.44-3.99.39-1.64.57-3.33.76-5,.1-.96-1.4-.95-1.5,0-.16,1.46-.32,2.93-.65,4.36-.3,1.3-.79,2.51-1.29,3.74-.69,1.68-1.51,4.18-3.47,4.74-.93.26-.53,1.71.4,1.45h0Z"/>
  <path d="M65.21,51.56c1.62-2.27,2.46-5.07,2.37-7.85-.03-.96-1.53-.97-1.5,0,.09,2.55-.68,5.02-2.16,7.1-.24.33-.06.84.27,1.03.38.22.79.06,1.03-.27h0Z"/>
  <path d="M42.66,51.63c-.73-4.19-.05-8.64,1.19-12.67,1.39-4.54,3.69-8.88,7.15-12.18.7-.67-.36-1.73-1.06-1.06-3.64,3.47-6.07,8.06-7.53,12.84-1.32,4.3-1.97,9-1.19,13.46.17.95,1.61.55,1.45-.4h0Z"/>
  <path d="M33.18,51.67c.85-3.37,1.08-6.82,1.64-10.24s1.71-6.87,3.93-9.75c.59-.77-.72-1.51-1.3-.76-2.21,2.89-3.42,6.24-4.03,9.8s-.82,7.08-1.69,10.55c-.24.94,1.21,1.34,1.45.4h0Z"/>
  <path d="M77.2,99.05c-2.59-2.34-6.37-2.91-9.72-3.24s-6.84-.3-10.22.04c-.99.1-1.66.33-2.55.73-.73.33-1.53.4-2.2.88-1.76,1.25-.35,3.64.59,4.99,1.08,1.55,3.01,2.12,4.6,2.99,1.9,1.04,4.14,1.26,6.28,1.32,3.92.12,8.8-.83,10.05-5.14.54-1.86-2.36-2.65-2.89-.8-.76,2.61-4.15,2.94-6.43,2.95-1.5,0-3.17-.05-4.61-.52-.71-.23-1.35-.67-2.02-.99s-1.53-.64-2.13-1.13c-.47-.39-.74-.99-1.01-1.53-.23-.47-.16-.96-.53-.16-.34.74-.09.42.44.25.58-.19,1.11-.46,1.67-.68.52-.2,1.14-.2,1.7-.24,2.79-.21,5.6-.24,8.38-.03s6.34.5,8.48,2.43c1.43,1.29,3.56-.82,2.12-2.12h0Z"/>
  <path d="M58.36,103.55c4.25-1.03,8.69-.96,12.91.17,1.87.5,2.66-2.39.8-2.89-4.74-1.27-9.73-1.33-14.51-.17-1.88.45-1.08,3.35.8,2.89h0Z"/>
  <path d="M83.83,58.1c-.09,4.15-.81,8.24-2.1,12.18-.25.77.29,1.64,1.05,1.85.81.22,1.59-.28,1.85-1.05,1.37-4.19,2.11-8.58,2.21-12.98.04-1.93-2.96-1.93-3,0h0Z"/>
  <path d="M44.91,60.1c-.37,3.48.9,7.02,3.25,9.58.53.58,1.59.58,2.12,0,.57-.62.57-1.5,0-2.12-.12-.13-.24-.27-.36-.41-.06-.07-.12-.14-.17-.21.1.12.05.07-.01-.02-.21-.29-.41-.6-.6-.91s-.35-.64-.5-.97c-.04-.08-.08-.17-.11-.25.06.14.04.1,0-.02-.07-.19-.14-.38-.2-.58-.11-.35-.21-.7-.28-1.05-.04-.18-.07-.36-.1-.53,0-.03-.05-.31-.02-.14s-.01-.11-.01-.14c-.08-.75-.07-1.5.01-2.24.08-.78-.75-1.53-1.5-1.5-.88.04-1.41.66-1.5,1.5h0Z"/>
</svg>