<?xml version="1.0" encoding="UTF-8"?>
<svg xmlns="http://www.w3.org/2000/svg" xmlns:xlink="http://www.w3.org/1999/xlink" viewBox="0 0 128 128">
  <defs>
    <style>
      .cls-1 {
        fill: url(#radial-gradient-2);
      }

      .cls-2 {
        fill: url(#radial-gradient);
      }

      .cls-3 {
        fill: #774c28;
      }

      .cls-4 {
        isolation: isolate;
      }

      .cls-5 {
        mix-blend-mode: multiply;
      }

      .cls-6 {
        fill: #c6b98d;
      }

      .cls-7 {
        fill: #eacec3;
      }

      .cls-8 {
        opacity: .3;
      }

      .cls-9 {
        opacity: .3;
      }

      .cls-10 {
        fill: #435054;
      }
    </style>
    <radialGradient id="radial-gradient" cx="48.3" cy="65.58" fx="48.3" fy="65.58" r="6.25" gradientUnits="userSpaceOnUse">
      <stop offset="0" stop-color="#fff"/>
      <stop offset=".35" stop-color="#fdfcfc"/>
      <stop offset=".5" stop-color="#faf5f5"/>
      <stop offset=".62" stop-color="#f3e9e9"/>
      <stop offset=".71" stop-color="#ead8d7"/>
      <stop offset=".79" stop-color="#dfc1c0"/>
      <stop offset=".87" stop-color="#d0a5a3"/>
      <stop offset=".94" stop-color="#bf8482"/>
      <stop offset="1" stop-color="#ac5f5c"/>
      <stop offset="1" stop-color="#ab5d5a"/>
    </radialGradient>
    <radialGradient id="radial-gradient-2" cx="-731.75" cy="64.74" fx="-731.75" fy="64.74" r="6.39" gradientTransform="translate(-650.02) rotate(-180) scale(1 -1)" xlink:href="#radial-gradient"/>
  </defs>
  <g class="cls-4">
    <g id="Layer_1" data-name="Layer 1">
      <g>
        <path class="cls-7" d="M30,69.48c.86-6.94-1.84-23.92-.2-31.74,1.21-5.75,6.5-12.69,10.81-15.5,12.87-8.4,26.34-8.08,40.5-3.14,7.53,2.63,13.61,9.71,13.61,9.71,2.92,2.74,5.33,11.68,5.38,12.21.7,7.55-1.15,27.92-1.15,27.92.92,9.73-2.27,21.31-5.48,28.3-1.11,2.42-8.53,12.28-8.53,12.28-3.83,4.55-5.54,7.07-10.49,9.51-1.09.54-1.45,2.45-12.19,2.22-7.68-.17-10.7-5.03-16.21-9.63-4.62-3.86-10.41-10.74-12.32-16.74-1.93-6.03-4.78-17.04-3.74-25.39Z"/>
        <path d="M31.5,69.48c.51-4.31.02-8.78-.24-13.09-.3-4.9-.69-9.84-.42-14.75s2.37-9.48,5.56-13.38c3.78-4.63,9.02-7.6,14.67-9.4s12.12-2.17,18.2-1.24,12.06,2.5,17.06,5.85c2.71,1.81,5.11,4.01,7.32,6.41,2.57,2.79,3.79,6.98,4.76,10.57.06.22.1.44.17.65.17.53.02-.36.03.11.02.87.11,1.73.13,2.6.04,2,0,4.01-.06,6.01-.14,4.28-.4,8.55-.72,12.82-.16,2.19-.6,4.51-.47,6.7.36,6.17-.46,12.24-2.11,18.19-1.14,4.12-2.51,8.18-4.89,11.74-2,2.98-4.13,5.87-6.27,8.75-2.3,3.09-4.94,6.37-8.23,8.45-.78.49-1.64.86-2.42,1.35-.1.06-.19.14-.29.21-.12.09-.24.18-.35.27-.19.14.35-.24.03-.02-.88.59-1.14.69-2.16.94-2.03.5-4.17.54-6.25.56-2.82.02-5.55-.12-8.1-1.47-2.22-1.18-4.05-2.92-5.87-4.63-2-1.88-4.15-3.61-6.1-5.55-4-3.97-7.75-8.74-9.45-14.19s-2.92-10.51-3.48-15.9c-.29-2.84-.37-5.71-.04-8.55.22-1.91-2.78-1.9-3,0-.72,6.12.33,12.43,1.74,18.38,1.33,5.61,3,10.86,6.38,15.61,1.79,2.51,3.8,4.88,6.01,7.04,2,1.96,4.18,3.73,6.22,5.64s3.97,3.68,6.38,4.88c2.68,1.34,5.49,1.71,8.45,1.73,3.35.02,7.65.18,10.6-1.77.11-.07.21-.15.31-.22.38-.28.56-.39.31-.24.65-.4,1.35-.72,2.01-1.11,2.17-1.28,4.05-2.94,5.72-4.82,2.37-2.67,4.52-5.49,6.61-8.37s4.55-5.91,6-9.28c2.42-5.61,4.07-11.57,4.88-17.63.43-3.17.63-6.39.4-9.59-.06-.88.01-1.69.09-2.57.68-8.12,1.45-16.38,1.1-24.53-.15-3.49-1.49-6.88-2.89-10.04-1.32-3-3.25-5.27-5.62-7.48-1.93-1.79-4.02-3.45-6.26-4.84-2.63-1.64-5.47-2.71-8.42-3.61-6.3-1.91-12.97-2.99-19.57-2.41s-12.77,2.72-18.31,6.18c-4.87,3.04-8.77,7.95-11.04,13.19-1.95,4.5-1.93,9.39-1.78,14.21.16,5.26.66,10.51.82,15.77.06,1.95.09,3.93-.13,5.87s2.78,1.9,3,0Z"/>
      </g>
      <g class="cls-8">
        <path class="cls-10" d="M70.55,118.9c9.58-3.63,16.2-10,21.15-19.08,2.67-4.9,5.11-10.32,6.66-15.69,1.74-6.05,1.39-12.22,1.39-18.43,0-11.02,3.76-21.54-.88-32.25-4.66-10.75-16.47-15.3-27.02-18.05-3.74-.97-5.33,4.81-1.6,5.79,9.7,2.53,21.04,6.54,24.06,17.25,2.58,9.13-.57,18.07-.56,27.26,0,5.08.38,10.16-.74,15.16s-3.42,10.02-5.76,14.56c-4.21,8.16-9.69,14.43-18.29,17.69-3.58,1.36-2.03,7.16,1.6,5.79h0Z"/>
        <path class="cls-10" d="M58.3,112.7c-6.55-3.14-13.66-9.56-17.31-15.9-3.25-5.65-5.77-13.78-5.84-20.28-.04-3.73.66-7.44.68-11.16.06-9.79-3.55-20.57.56-30s11.59-12.24,20.93-14.16c3.78-.78,2.18-6.56-1.6-5.79-10.31,2.12-17.94,5.46-23.49,14.91-6.2,10.57-2.59,22.83-2.4,34.26.07,4.59-.93,9.15-.59,13.73.51,7,3,14.62,6.23,20.83,2.27,4.37,6.31,7.87,9.74,11.32,3.24,3.26,5.82,5.37,10.06,7.4,3.47,1.66,6.51-3.51,3.03-5.18h0Z"/>
      </g>
      <g class="cls-9">
        <path class="cls-10" d="M78.91,95.7c-1.06,2.9-2.04,6.07-3.57,8.76-.05.09.16-.15-.11.13-.2.21-.4.41-.61.61-.6.57-1.23,1.11-1.86,1.64-.53.44-1.08.87-1.65,1.26-.73.49-.63.44-1.57.34-3.1-.34-6.07-.99-9.29-1.76-1.43-.34-2.87-.69-4.3-1.05-1.04-.26-1.59-.91-2.16-1.94-1.81-3.23-2.7-7.94-1.47-11.51.63-1.83-2.27-2.62-2.89-.8-1.35,3.92-.49,8.72,1.11,12.44.66,1.53,1.56,3.15,3,4.07,1.1.7,2.6.87,3.84,1.17,3.58.87,7.12,1.6,10.76,2.16.99.15,2.14.43,3.12.16.67-.18,1.28-.64,1.84-1.04,1.41-1.02,2.8-2.15,4.02-3.39,1.12-1.13,1.61-2.68,2.21-4.13.87-2.1,1.7-4.21,2.48-6.34.66-1.82-2.23-2.6-2.89-.8h0Z"/>
      </g>
      <path d="M76.49,95.32c.39-.73,1.17-.69.28-.49-.34.08-.69.13-1.04.19-.89.15-1.78.28-2.67.41-1.79.25-3.55.33-5.36.25-2.53-.11-5.04-.43-7.56-.57-2.07-.11-4.61-.06-6-1.9-1.15-1.52-3.75-.03-2.59,1.51,1.77,2.35,4.2,3.1,7.04,3.3,2.97.21,5.93.5,8.9.64,2.26.11,4.4-.07,6.62-.39,1.03-.15,2.05-.29,3.07-.49.69-.13,1.52-.27,1.89-.96.91-1.7-1.68-3.22-2.59-1.51h0Z"/>
      <path d="M49.27,89.46c-1.39,1.35-2.86,3.04-2.84,5.09,0,.64.18,1.27.42,1.86.4,1,.85,1.98,1.28,2.97.31.72,1.43.94,2.05.54.75-.48.87-1.28.54-2.05-.2-.47-.41-.94-.61-1.41-.09-.2-.18-.41-.26-.61-.11-.26.09.21.02.05-.03-.07-.06-.14-.08-.21-.1-.25-.2-.51-.27-.77-.03-.12-.05-.24-.08-.36-.05-.22.03.37.03.2,0-.05,0-.11-.01-.16,0-.1,0-.2,0-.3,0-.22-.07.37-.03.21.01-.06.02-.11.03-.17.03-.13.07-.27.11-.4.02-.07.18-.42.04-.13.05-.1.09-.19.14-.29.11-.21.24-.4.37-.59.18-.26-.15.16.07-.1.07-.08.13-.16.2-.24.32-.36.66-.69,1-1.03.56-.55.59-1.58,0-2.12s-1.52-.58-2.12,0h0Z"/>
      <path d="M80.62,95.32c.16.35-.1-.3.02.05.03.08.06.16.09.24.06.17.11.34.15.51.02.07.03.15.04.22.03.15-.04.24-.01-.11-.01.13.02.27.02.4,0,.14-.01.27-.02.41-.01.18.07-.39.02-.15-.01.07-.03.14-.04.21-.05.23-.13.46-.22.68-.02.04-.04.13-.06.16.03-.03.16-.38.06-.14-.05.11-.1.22-.15.33-.12.26-.24.52-.35.79-.27.63-.42,1.21-.51,1.9-.05.35.2.82.44,1.06.26.26.69.46,1.06.44s.79-.14,1.06-.44c.29-.31.38-.64.44-1.06-.07.56,0,.05.04-.09.03-.11.06-.22.1-.33.04-.13.09-.25.14-.38.09-.22-.13.3-.06.14.02-.05.04-.1.07-.15.25-.56.52-1.1.72-1.68.52-1.54.21-3.08-.44-4.52-.33-.72-1.42-.95-2.05-.54-.74.48-.89,1.29-.54,2.05h0Z"/>
      <path d="M46.5,106c.33.27.63.57.89.91l-.23-.3c.44.57.81,1.21,1.36,1.69.89.78,1.98,1.23,3.11,1.55.75.21,1.67-.26,1.85-1.05s-.24-1.62-1.05-1.85c-.4-.11-.8-.25-1.19-.41l.36.15c-.39-.17-.76-.36-1.09-.62l.3.23c-.26-.21-.49-.44-.69-.7l.23.3c-.55-.71-1.02-1.47-1.73-2.04-.32-.26-.63-.44-1.06-.44-.37,0-.81.16-1.06.44s-.46.66-.44,1.06c.02.37.14.82.44,1.06h0Z"/>
      <g class="cls-8">
        <path class="cls-10" d="M65.93,65.48c.19,1.11.66,2.16,1.03,3.22.58,1.65.31,2.83.27,4.61-.05,2.67-.48,6.42,1.71,8.35,2.88,2.55,7.14-1.68,4.24-4.24.19,1.12.26,1.35.2.69-.03-.4-.06-.8-.09-1.2-.03-.6-.02-1.21-.03-1.81-.03-1.82.31-3.7.16-5.5-.17-2-1.35-3.75-1.69-5.72-.66-3.8-6.45-2.19-5.79,1.6h0Z"/>
        <path class="cls-10" d="M72.83,83.86c2.06.61-.37-.2-.76-.31-.76-.2-1.45-.1-2.2.04-1.91.37-2.69,1.53-4.12,2.62-1.83,1.4-2.34-.05-4.06-1-1.32-.73-3.59-.39-4.58-1.39-2.72-2.75-6.97,1.5-4.24,4.24,1.79,1.8,3.28,1.58,5.46,2.3,1.79.59,2.87,2.24,4.93,2.53s4.02-.27,5.6-1.44c.31-.23,2.19-1.65,2.16-2-1.69-.92-2-.99-.92-.23.36.18.74.33,1.13.43,3.71,1.1,5.3-4.69,1.6-5.79h0Z"/>
      </g>
      <path d="M66.55,64.68c.18.89.35,1.78.49,2.68.02.12.04.25.05.37.05.36-.04-.28,0,.03.03.27.07.54.1.81.09.66.19,1.31.31,1.96.05.27.1.54.15.81.02.11.12.97.12.55,0-.37-.04.3-.05.4-.21,2.77-1.26,6.67,1.2,8.77.62.52,1.52.61,2.12,0,.54-.54.62-1.59,0-2.12-.35-.29-.43-.41-.53-.82-.04-.19-.08-.38-.12-.57,0,.01-.11-.56-.07-.26.03.26,0-.15,0-.21,0-.14,0-.28,0-.42,0-.33.03-.66.05-.98.1-1.25.36-2.52.35-3.78,0-.78-.25-1.58-.39-2.35-.06-.32-.11-.64-.16-.97-.02-.12-.04-.25-.05-.37-.05-.36.04.28,0-.03-.18-1.44-.43-2.86-.71-4.28-.16-.79-1.1-1.25-1.85-1.05-.83.23-1.21,1.05-1.05,1.85h0Z"/>
      <path d="M72.42,84.26c-1.54-.1-2.76-.18-4.21.51-.83.4-1.39.92-2.01,1.58-.51.55-1.09.81-1.85.77-1.58-.07-2.36-1.37-3.68-1.98-.77-.35-1.37-.46-2.2-.48-.49,0-.99-.15-1.47-.25-.17-.04-.36-.04-.5-.15-.16-.12-.02.01,0-.11.17-1.92-2.84-1.91-3,0-.1,1.2.67,2.3,1.72,2.82.92.46,2.39.76,3.41.69.73-.05-.08-.17.26-.02.12.05.25.08.36.13.52.22.37.19.78.55.79.7,1.71,1.24,2.73,1.54,2.03.61,4.23.1,5.65-1.49.55-.61,1.14-1.1,2.02-1.25.48-.08,1.38.08,1.99.12,1.93.13,1.92-2.87,0-3h0Z"/>
      <g class="cls-8">
        <path class="cls-10" d="M38.4,69.69c1.1,1.59,1.97,2.75,3.91,3.25,2.05.52,4.42,1.2,6.54,1.16,3.38-.07,5.09-2.1,7.13-4.43,2.53-2.9-1.7-7.16-4.24-4.24-.37.43-.74.86-1.11,1.28-.28.32-.54.68-.86.97-.58.53.29.06-.34.27-1.23.41-5.1-.21-5.85-1.28-2.19-3.15-7.4-.15-5.18,3.03h0Z"/>
        <path class="cls-10" d="M56.4,56.68c-1.57,2.89-1.96,6.28-2.84,9.41-.37,1.33-.68,3-1.77,3.95-1.26,1.1-3.64,1.4-5.17,1.95-3.61,1.3-2.05,7.1,1.6,5.79,4-1.44,7.97-2.27,9.87-6.48,1.65-3.66,1.6-8.09,3.5-11.59s-3.33-6.43-5.18-3.03h0Z"/>
        <path class="cls-10" d="M69.92,59.02c0,3.73.07,7.74,2.36,10.89,2.4,3.29,6.59,5.18,10.41,6.19s5.33-4.79,1.6-5.79c-2.52-.67-5.72-1.8-7.25-4.06-1.36-2.01-1.11-4.92-1.11-7.23,0-3.86-6-3.87-6,0h0Z"/>
        <path class="cls-10" d="M79.76,72.12c3.17.31,5.7,2.01,8.85.25,2.34-1.31,3.53-3.87,4.96-6.01,2.15-3.22-3.04-6.22-5.18-3.03-.7,1.05-1.51,3.22-2.69,3.8-.74.36-1.75-.1-2.47-.32-1.16-.34-2.27-.57-3.47-.69-3.84-.38-3.81,5.63,0,6h0Z"/>
        <path class="cls-10" d="M73.86,61.61c2.76,1.47,5.85,1.64,8.92,1.87s6.34.93,9.46.83c3.85-.12,3.87-6.12,0-6-2.63.08-5.35-.5-7.99-.72-2.39-.2-5.21,0-7.37-1.16-3.41-1.82-6.44,3.36-3.03,5.18h0Z"/>
        <path class="cls-10" d="M54.93,56.97c-2.85.78-5.64,1.78-8.46,2.67-3.37,1.06-5.96,1.33-9.51,1.09-3.85-.26-3.84,5.74,0,6,3.68.25,6.62.06,10.16-1.01,3.15-.96,6.24-2.1,9.41-2.97,3.72-1.02,2.14-6.81-1.6-5.79h0Z"/>
      </g>
      <path class="cls-2" d="M56.23,62.49c.5,1.77-3.55,5.75-6.67,6.64s-8.67-.4-9.18-2.17c-.5-1.77,3.9-2.98,7.35-3.71,3.26-.69,7.99-2.54,8.5-.76Z"/>
      <path class="cls-1" d="M73.94,60.76c0,1.75,2.71,7.47,5.82,8.36,3.11.89,9.21-1.24,9.71-3.01.5-1.77-3.76-1.73-6.99-3.16-2.96-1.31-8.54-4.03-8.54-2.19Z"/>
      <circle class="cls-3" cx="80.93" cy="65.2" r="3.04"/>
      <circle class="cls-3" cx="49.12" cy="66.02" r="3.04"/>
      <path d="M94.02,59.04c-6.91-1-13.87-1.45-20.7-2.93-1.73-.37-2.5,1.74-1.16,2.74.28.2.55.41.83.61.66.49,1.67.1,2.05-.54.45-.76.11-1.57-.54-2.05-.28-.2-.55-.41-.83-.61l-1.16,2.74c6.84,1.48,13.79,1.93,20.7,2.93.81.12,1.6-.2,1.85-1.05.2-.7-.25-1.73-1.05-1.85h0Z"/>
      <path d="M59.79,54.86c-3.15,2.06-7.09,3.05-10.69,3.99-4.38,1.14-8.85,2.05-13.36,2.47-1.91.18-1.92,3.18,0,3,4.78-.44,9.52-1.37,14.16-2.58,3.84-1,8.05-2.1,11.41-4.29,1.61-1.05.11-3.65-1.51-2.59h0Z"/>
      <path d="M77,70.2c3,.45,6.28,1.29,9.28.47,1.44-.39,2.48-1.31,3.4-2.45.42-.52.82-1.05,1.26-1.55.21-.24.44-.48.68-.69.33-.28-.14.06.22-.15.05-.03.43-.19.2-.11.76-.27,1.27-1.02,1.05-1.85-.2-.74-1.08-1.32-1.85-1.05-1.32.47-2.23,1.45-3.09,2.52-.41.52-.81,1.05-1.26,1.52-.39.41-.67.65-1.06.8-1.22.45-2.61.35-3.9.23-1.39-.13-2.76-.39-4.13-.6-.8-.12-1.61.2-1.85,1.05-.19.71.24,1.72,1.05,1.85h0Z"/>
      <path d="M38.49,66.63c1.24,2.16,2.98,4.68,5.59,5.23,2.16.45,4.55.19,6.7-.14.92-.14,1.99-.28,2.81-.76,1-.58,1.74-1.62,2.32-2.59.62-1.05,1.23-2.26,1.35-3.48.06-.58-.02-1.15-.12-1.73-.04-.23-.07-.52-.15-.74.01.14.02.12,0-.04-.17.4-.41.73-.73.98,1.93-.03,1.93-3.03,0-3-1.22.02-2.24.72-2.27,2.02-.02.88.45,1.7.22,2.58-.25.94-.82,1.92-1.41,2.68s-.72.76-1.58.96c-1.9.43-3.95.57-5.89.42-.75-.06-1.52-.4-2.19-1.06-.84-.83-1.47-1.82-2.06-2.84-.96-1.67-3.55-.16-2.59,1.51h0Z"/>
      <path d="M91.06,64.43c-2.26-1.78-4.91-3.02-7.58-4.03s-5.83-1.94-8.82-1.83c-1.92.07-1.93,3.07,0,3,2.66-.1,5.34.72,7.81,1.65,1.26.47,2.5,1.02,3.69,1.64.56.29,1.11.6,1.65.93.22.13.43.27.64.41.11.07.22.15.32.23.04.03.38.29.16.12.64.5,1.5.62,2.12,0,.52-.52.64-1.62,0-2.12h0Z"/>
      <path d="M55.87,59.69c-3.33,1.18-7.22-.09-10.39,1.69-1.11.62-2.18,1.31-3.23,2.02s-2.22,1.36-2.71,2.53c-.31.75.34,1.65,1.05,1.85.86.24,1.53-.3,1.85-1.05-.14.33-.45.65-.06.28.07-.07.15-.13.23-.2.2-.17-.18.12.13-.1.49-.36.99-.7,1.5-1.03.95-.63,1.92-1.25,2.92-1.8.06-.03.14-.07.2-.11.22-.14-.12,0-.19.07.22-.22.9-.27,1.19-.33.84-.16,1.71-.19,2.56-.23,1.91-.08,3.92-.06,5.75-.71.76-.27,1.27-1.02,1.05-1.85-.2-.74-1.08-1.32-1.85-1.05h0Z"/>
      <g class="cls-5">
        <path d="M81.55,66.47s.05-.03.07-.04l-.36.15s.06-.02.1-.03l-.4.05s.08,0,.11,0l-.4-.05s.08.02.11.03l-.36-.15s.08.04.12.07l-.3-.23c.05.04.1.09.14.14l-.23-.3c.06.08.11.16.14.25l-.15-.36v.02c.62-.62,1.24-1.23,1.85-1.85-.45-.15-.89-.3-1.34-.45l.36,2.74c.29-.18.59-.37.88-.55l-2.2-.9c.06.36.12.71.18,1.07.05.2.14.37.27.51.11.16.25.29.42.39.17.11.36.17.56.18.2.04.4.04.6-.03l.36-.15c.23-.13.4-.31.54-.54l.15-.36c.07-.27.07-.53,0-.8-.06-.36-.12-.71-.18-1.07-.07-.25-.2-.47-.39-.66-.14-.15-.3-.25-.48-.31-.18-.09-.37-.14-.58-.13-.27,0-.52.07-.76.2-.29.18-.59.37-.88.55l-.3.23-.23.3-.15.36c-.06.2-.07.4-.03.6,0,.14.03.26.1.38.04.13.1.24.19.33.07.11.16.2.27.27.14.13.31.22.51.27.45.15.89.3,1.34.45.27.07.53.07.8,0,.25-.07.47-.2.66-.39.19-.19.31-.41.39-.66.07-.27.07-.53,0-.8-.07-.17-.13-.34-.22-.5s-.21-.3-.32-.43c-.03-.04-.07-.08-.11-.11-.13-.11-.26-.23-.41-.31-.13-.07-.27-.12-.4-.17-.02,0-.04-.02-.06-.02-.16-.04-.34-.07-.51-.07-.08,0-.19.02-.26.03s-.18.02-.26.04c-.14.04-.27.11-.4.17-.02.01-.05.02-.07.04-.17.09-.32.22-.42.39-.13.14-.22.31-.27.51-.06.2-.07.4-.03.6,0,.2.07.39.18.56l.23.3c.19.19.41.31.66.39l.4.05c.27,0,.52-.07.76-.2h0Z"/>
      </g>
      <path d="M49.87,66.61s.01-.02.02-.02l-.23.3s.05-.05.07-.08l-.3.23s.05-.03.08-.04l-.36.15s.06-.02.09-.02l-.4.05s.07,0,.1,0l-.4-.05s.09.02.13.04l-.36-.15c.05.02.1.05.15.09l-.3-.23c.06.05.11.1.15.15l-.23-.3c.05.06.08.12.11.19l-.15-.36c.02.06.04.12.05.18l-.05-.4c0,.05,0,.1,0,.15l.05-.4s-.02.09-.04.13l.15-.36s-.04.07-.06.11l2.05-.54s-.09-.06-.13-.09l.3.23c-.08-.06-.15-.13-.21-.21l.23.3s-.07-.1-.09-.15l.15.36s-.03-.1-.04-.15l.05.4s0-.06,0-.09l-.05.4s.01-.07.03-.1l-.15.36s.03-.07.06-.1l-.23.3s.04-.05.07-.07l-.3.23s.04-.03.07-.04l-.36.15s.03-.01.05-.01l-.4.05s.03,0,.04,0l-.4-.05s.03,0,.04.01l-.36-.15s.02.01.03.02l-.3-.23s.02.02.03.03l-.23-.3s0,.01.01.02l-.2-.76s0,.05,0,.07l.05-.4c-.01.07-.03.13-.05.2l.15-.36c-.03.06-.06.12-.1.17l.23-.3s-.08.09-.13.13l.3-.23s-.08.05-.13.07l.36-.15s-.07.03-.11.03l.4-.05s-.02,0-.04,0c-.21,0-.4.04-.58.13-.19.06-.35.16-.48.31-.15.14-.25.3-.31.48-.09.18-.14.37-.13.58l.05.4c.07.25.2.47.39.66l.3.23c.23.14.49.2.76.2.36-.03.66-.08.98-.28.07-.04.14-.1.2-.15s.14-.1.2-.16c.12-.11.23-.28.32-.4.03-.04.05-.08.08-.12.08-.16.15-.32.2-.49s.06-.36.08-.53c0-.01,0-.02,0-.03.01-.22-.08-.58-.2-.77-.08-.12-.16-.24-.27-.34-.05-.05-.15-.11-.17-.13-.05-.04-.11-.09-.17-.13-.12-.08-.25-.13-.39-.16-.31-.07-.58-.08-.88,0-.15.04-.3.1-.44.19s-.28.19-.39.31c-.08.09-.17.22-.24.31,0,0-.01.02-.02.03-.01.02-.02.03-.03.05-.07.14-.16.31-.19.48-.02.12-.04.29-.06.41,0,.01,0,.02,0,.03,0,.14.05.41.06.45.02.12.07.22.12.33s.08.22.16.32c.09.12.18.24.28.36.02.02.04.04.06.06.17.16.36.3.55.43.17.11.36.17.56.18.2.04.4.04.6-.03l.36-.15c.23-.13.4-.31.54-.54.02-.03.04-.05.05-.08.07-.14.14-.29.18-.44,0-.01,0-.03.01-.04.03-.14.04-.29.06-.43,0-.03,0-.07,0-.1,0-.16-.03-.32-.06-.48,0-.03-.01-.07-.03-.1,0-.01-.01-.03-.02-.04-.05-.13-.11-.26-.17-.39-.01-.03-.03-.06-.05-.09-.02-.03-.03-.05-.05-.08-.09-.12-.18-.26-.29-.37-.13-.13-.29-.25-.44-.35-.02-.02-.05-.03-.07-.04-.14-.07-.29-.13-.43-.18-.03,0-.05-.01-.08-.02-.07-.01-.16-.02-.21-.03-.05,0-.14-.02-.21-.03-.02,0-.03,0-.05,0-.35.01-.61.08-.91.25s-.48.39-.68.67c-.11.17-.17.36-.18.56-.04.2-.04.4.03.6.05.2.14.37.27.51.11.16.25.29.42.39l.36.15c.27.07.53.07.8,0l.36-.15c.23-.13.4-.31.54-.54h0Z"/>
      <path d="M72.44,58.8c-.06,1.23.02,2.5.11,3.73.05.71.1,1.43.27,2.12s.6,1.34.87,2.01c.87,2.13,2.53,3.7,4.41,4.97.87.58,1.79,1.1,2.75,1.52,1.02.45,2.1.77,3.06,1.35,1.66,1,3.17-1.6,1.51-2.59-.94-.56-1.97-.91-2.98-1.32-.85-.35-1.67-.81-2.45-1.3-1.49-.95-2.9-2.15-3.57-3.82-.18-.45-.35-.91-.59-1.34-.3-.53-.07-.06-.07-.07.02-.06-.06-.25-.08-.31-.02-.11-.04-.22-.06-.34.06.35,0-.06-.01-.13-.04-.36-.07-.72-.09-1.08-.08-1.13-.15-2.28-.09-3.41.1-1.93-2.9-1.92-3,0h0Z"/>
      <path d="M55.46,60.37c-.34,2.37-1.01,4.67-1.68,6.97-.25.87-.47,1.54-.98,2.28-.25.37-.9.97-1.25,1.2-.3.2-.62.38-.94.53-.05.03-.43.19-.16.08-.17.07-.35.14-.52.2-.59.21-1.19.37-1.8.52-1.06.25-2.14.42-3.12.91-.72.36-.93,1.39-.54,2.05.43.74,1.33.9,2.05.54.34-.17-.26.05,0,0,.11-.02.23-.08.34-.11.23-.07.45-.12.68-.18.59-.14,1.18-.26,1.76-.41,1.45-.37,2.91-.9,4.13-1.79,1.61-1.19,2.57-2.77,3.15-4.67.73-2.4,1.43-4.83,1.78-7.32.11-.8-.2-1.61-1.05-1.85-.7-.19-1.73.24-1.85,1.05h0Z"/>
      <g>
        <path class="cls-6" d="M95.73,49.91c-2.43,2.02-4.16,2.75-7.11,3.9.22-.74,2.32-4,2.55-4.74-1.75,1.1-5.51,4.38-7.56,4.56.46-.87,2.62-4.74,2.13-5.6-2.73,1.08-6.78,4.58-9.51,5.66-.19-.68,1.52-4.26,1.32-4.93-1.74.45-6.56,4.37-8.3,4.81,0-.61,2.16-5.17,2.17-5.78-5.52,3.24-9.38,5.29-12.78,6.08.94-1.35,2.28-4.68,2.28-4.68,0,0-6.24,4.8-10.69,4.44.57-1,.15-2.67.72-3.67-2.49.96-2.88,3.07-4.81,4.51-.36-2.04-1.91-4.85-.72-6.6-1.44,2.52-1.08,3.72-2.64,6.72-.35-.49-1-5.92-1.68-5.76-.72.16-1.17,5.6-1.71,5.22-2.16-1.53-1.39-5.39-1.68-5.9-1.66.31-1.46,7.13-2.47,6.17-2.1-2.01-1.99-4.45-2.31-3.57-.62,1.71-1.15,6.06-1.11,7.87.18,8.51,1.81,17.35,4.56,25.4-1.04-.87-2.2-2.11-3.24-2.99-.08,1.08-.25,2.3-.49,3.35-.28,1.22-2.31,4.61-2.77,5.78-.83-1.24-.02-4.87-.85-6.1-.19,1.62-2.44,6.17-3.6,7.31-.66-.86.16-4.73-.5-5.59-2.52,2.63-2.42,3.56-6.7,6.49.41-2.4-.04-3.4.37-5.81-.84.88-1.9,2.84-3.07,2.48.9-3.42,2.72-7.91,3.41-11.83,2.07-11.75,1.02-22.88,2.88-33.32,2.53-14.2,8.52-23.9,21.44-30.31,12.92-6.41,28.87-6.31,41.71.25,7.51,3.84,15.14,9.65,18.33,17.46,2.82,6.91,3.89,13.85,4.34,21.3.78,12.8-1.33,23.71,3.84,37.55-2.11-1.74-3.06-3.08-5.18-4.81.32,1.07-1.4,4.23-1.08,5.3-1.33-1.58-1.42-4.27-2.75-5.85-.39,1.1-2.03,3.66-2.42,4.76-.66-1.7-.08-4.87-.74-6.57l-3.19,4.69c1.51-13.24-1.89-16.61-.89-29.89.16-2.16.49-7.76.49-7.76Z"/>
        <path d="M94.67,48.85c-1.95,1.59-4.12,2.61-6.45,3.52l1.85,1.85c-.12.34.05-.13.1-.2.13-.18.23-.42.33-.61.27-.49.56-.97.84-1.46.46-.8.97-1.6,1.28-2.48.43-1.23-1.14-2.38-2.2-1.69-1.21.78-2.34,1.7-3.52,2.53-1.09.76-2.32,1.7-3.68,1.89l1.69,2.2c.56-1.05,1.12-2.1,1.6-3.2.44-1,1.14-2.45.68-3.55-.28-.68-1.02-1.39-1.85-1.05-3.43,1.42-6.09,4.24-9.51,5.66l1.85,1.05c.08.55.23-.42.3-.63.17-.53.37-1.04.55-1.57.32-.91.62-1.77.47-2.74-.12-.79-1.14-1.25-1.85-1.05-1.55.45-2.93,1.51-4.25,2.39-1.24.82-2.65,2.01-4.05,2.43l1.9,1.45c-.05.54.05-.04.1-.17.1-.25.19-.51.29-.77.24-.6.49-1.2.75-1.8.41-.97.93-1.97,1.03-3.04.11-1.16-1.35-1.83-2.26-1.3-3.91,2.29-7.96,4.85-12.42,5.92l1.69,2.2c1.03-1.54,1.74-3.33,2.43-5.04.47-1.16-1.19-2.47-2.2-1.69-2.71,2.07-6.4,4.44-9.93,4.24l1.3,2.26c.29-.62.44-1.19.51-1.87.06-.56-.03-1.27.21-1.8.66-1.43-.66-2.64-2.05-2.05-2.33.99-3.23,3.24-5.11,4.74l2.51.66c-.31-1.53-1.74-3.97-.87-5.45l-2.59-1.51c-1.18,2.14-1.55,4.55-2.64,6.72h2.59c.23.41-.06-.29-.11-.52-.1-.45-.19-.9-.28-1.36-.19-.94-.35-1.9-.66-2.81-.28-.83-.72-1.65-1.67-1.8-1.06-.16-1.71.66-2.05,1.55-.3.79-.44,1.64-.61,2.46-.09.45-.18.9-.29,1.34-.04.15-.13.36-.14.51-.06.16-.06.18-.02.06.22-.66.87-.82,1.96-.46,0,.02-.45-.55-.46-.57-.12-.22-.19-.44-.26-.68-.14-.49-.18-.99-.2-1.5-.03-.71.12-1.63-.15-2.3-.3-.75-1-1.29-1.85-1.05-2.21.63-2.36,3.74-2.7,5.59-.06.34-.3.88-.27,1.21.03.31-.1-.15.01-.03l.97-.11c.95.15,1.22.07.82-.26-.18-.44-.74-.91-.98-1.37-.51-.96-.59-2.47-1.92-2.65-1.62-.22-1.95,1.71-2.19,2.88-.34,1.63-.55,3.31-.67,4.97-.3,4.03.27,8.21.85,12.19.77,5.2,2.01,10.31,3.7,15.29l2.51-1.46c-1.11-.96-2.12-2.03-3.24-2.99-1.02-.88-2.45-.26-2.56,1.06-.15,1.75-.45,3.23-1.24,4.79-.66,1.31-1.41,2.58-1.97,3.94l2.74-.36c-.43-.76-.21-2.08-.23-2.93-.02-1.09-.08-2.21-.63-3.18-.59-1.03-2.54-.96-2.74.36-.18,1.21-.75,2.39-1.28,3.47s-1.09,2.3-1.93,3.17l2.36.3c-.22-.36-.04-1.93-.02-2.63.02-.98.06-2.09-.47-2.97-.49-.8-1.68-1.02-2.36-.3-.92.98-1.73,2.04-2.61,3.05-1.11,1.26-2.41,2.26-3.79,3.21l2.2,1.69c.3-1.93.07-3.88.37-5.81.2-1.34-1.4-2.69-2.51-1.46-.35.38-.65.8-.98,1.2-.2.25-.95.84-.63.89l1.05,1.85c.89-3.31,2.16-6.5,2.98-9.83.93-3.76,1.29-7.71,1.58-11.57.57-7.69.35-15.47,1.62-23.09.93-5.6,2.51-11.17,5.36-16.11s6.56-8.57,11.12-11.49c11.62-7.43,26.41-8.98,39.4-4.43,6.21,2.18,12.26,5.81,16.95,10.44,2.35,2.31,4.37,4.97,5.71,7.99,1.52,3.42,2.51,7.13,3.21,10.8,2.71,14.13-.21,28.73,3.35,42.73.49,1.92,1.09,3.81,1.78,5.67l2.51-1.46c-1.81-1.52-3.37-3.3-5.18-4.81-1.16-.97-2.81-.06-2.51,1.46.09.44-.53,1.81-.73,2.42-.3.94-.55,1.88-.35,2.87l2.51-1.46c-.64-.83-.88-1.96-1.22-2.93-.38-1.07-.83-2.01-1.53-2.91-.77-.99-2.15-.25-2.51.66-.64,1.66-1.78,3.1-2.42,4.76h2.89c-.72-2.1-.02-4.44-.74-6.57-.43-1.26-2-1.44-2.74-.36-1.06,1.56-2.12,3.13-3.19,4.69l2.8.76c.41-3.7.51-7.4.18-11.11-.27-3.04-.78-6.06-1.05-9.11-.5-5.81.13-11.63.47-17.44.11-1.93-2.89-1.92-3,0-.34,5.81-.96,11.62-.47,17.44.26,2.99.76,5.96,1.03,8.95.35,3.76.25,7.51-.17,11.26-.18,1.61,2.05,1.86,2.8.76l3.19-4.69-2.74-.36c.72,2.1.02,4.44.74,6.57.5,1.46,2.36,1.38,2.89,0,.64-1.66,1.78-3.1,2.42-4.76l-2.51.66c.64.83.88,1.96,1.22,2.93.38,1.07.83,2.01,1.53,2.91,1.01,1.29,2.77-.16,2.51-1.46-.09-.44.53-1.81.73-2.42.3-.94.55-1.88.35-2.87l-2.51,1.46c1.81,1.52,3.37,3.3,5.18,4.81,1.03.86,3.08.08,2.51-1.46-2.65-7.19-3.52-14.6-3.59-22.23s.09-14.95-.92-22.4-2.88-14.83-7.45-20.68c-4.23-5.42-10.2-9.52-16.36-12.45-13.04-6.2-28.72-6.18-41.73.12-5.31,2.57-10.21,6.13-13.89,10.76s-5.92,9.69-7.4,15.17c-1.95,7.19-2.32,14.61-2.63,22.02-.17,4.1-.36,8.21-.82,12.29s-1.31,7.63-2.53,11.38c-.53,1.63-1.08,3.26-1.52,4.92-.2.72.24,1.71,1.05,1.85,2.23.38,3.23-1.42,4.53-2.86l-2.51-1.46c-.3,1.93-.07,3.88-.37,5.81-.18,1.15,1.01,2.52,2.2,1.69,1.51-1.04,3-2.14,4.24-3.51.95-1.05,1.79-2.19,2.77-3.22l-2.36-.3c.22.36.04,1.93.02,2.63-.02.98-.06,2.09.47,2.97.49.81,1.67,1.01,2.36.3,1.03-1.07,1.75-2.46,2.4-3.78s1.37-2.74,1.59-4.19l-2.74.36c.43.76.21,2.08.23,2.93.02,1.09.08,2.21.63,3.18.7,1.23,2.28.77,2.74-.36.53-1.3,1.43-2.69,2.07-4.04.83-1.75,1.08-3.57,1.25-5.49l-2.56,1.06c1.11.96,2.12,2.03,3.24,2.99,1.05.9,3.02.07,2.51-1.46-2.04-6.02-3.46-12.26-4.11-18.58-.27-2.62-.53-5.32-.35-7.95.08-1.13.21-2.26.4-3.39.09-.5.18-1.01.3-1.51.05-.21.12-.42.16-.63.16-.76.45-.08-.43.29h-1.51c-.46-.31-.61-.85-.4-.22.12.36.27.72.42,1.06.39.87.91,1.68,1.57,2.38.94,1,2.38,1.16,3.11-.18.51-.93.56-2.11.75-3.13.11-.58.21-1.18.4-1.75.03-.11.21-.43.19-.5-.04-.21.11-.01-.22.08l-1.85-1.05c.07.17.05-.29.02.03-.02.17,0,.37,0,.54,0,.49,0,.97.04,1.46.1,1.18.33,2.39.98,3.41.6.94,1.75,2.04,2.93,1.36.72-.42.94-1.3,1.11-2.05.22-.92.36-1.86.6-2.78.07-.26.24-.79.25-.77h-2.16c.07.14.08.15.03.03-.01.15.14.41.18.55.46,1.58.41,3.57,1.23,5.02.53.94,2.08,1.02,2.59,0,1.09-2.17,1.47-4.61,2.64-6.72.93-1.69-1.61-3.18-2.59-1.51-1.48,2.52.06,5.21.57,7.76.24,1.22,1.71,1.3,2.51.66,1.67-1.33,2.47-3.41,4.5-4.27l-2.05-2.05c-.29.62-.44,1.19-.51,1.87-.06.56.03,1.27-.21,1.8-.49,1.05.09,2.19,1.3,2.26,4.06.23,8.32-2.26,11.44-4.65l-2.2-1.69c-.6,1.48-1.24,2.99-2.13,4.32-.76,1.14.49,2.49,1.69,2.2,4.71-1.13,9.01-3.81,13.14-6.23l-2.26-1.3c.05-.54-.05.04-.1.17-.1.25-.19.51-.29.77-.24.6-.49,1.2-.75,1.8-.41.97-.93,1.97-1.03,3.04-.09.98,1.03,1.7,1.9,1.45,1.55-.45,2.93-1.51,4.25-2.39,1.24-.82,2.65-2.01,4.05-2.43l-1.85-1.05c-.08-.55-.23.42-.3.63-.17.53-.37,1.04-.55,1.57-.32.91-.62,1.77-.47,2.74.11.74,1.16,1.33,1.85,1.05,3.43-1.42,6.09-4.24,9.51-5.66l-1.85-1.05c.1.25-.01.02.03-.05-.08.14-.13.5-.18.65-.16.49-.37.96-.59,1.43-.39.82-.82,1.61-1.24,2.41-.67,1.26.43,2.38,1.69,2.2,2.99-.41,5.49-3.15,7.92-4.71l-2.2-1.69c.12-.34-.05.13-.1.2-.13.18-.22.42-.33.61-.27.49-.56.97-.84,1.46-.46.8-.97,1.6-1.28,2.48-.36,1.02.8,2.26,1.85,1.85,2.84-1.11,5.39-2.35,7.77-4.29,1.5-1.22-.64-3.33-2.12-2.12Z"/>
      </g>
      <g class="cls-8">
        <path class="cls-10" d="M111,84.54c-4.7-13.7-2.21-27.9-4.37-41.91-1.87-12.16-8.49-22.34-19.49-27.93-12.23-6.21-27.33-8.63-40.42-3.79-11.52,4.26-19.63,13.96-23.33,25.51-2.33,7.28-2.26,14.7-2.62,22.23-.46,9.44-2.15,18.71-4.8,27.78-1.09,3.71,4.7,5.3,5.79,1.6,2.36-8.07,3.96-16.32,4.7-24.7s.08-16.08,2.3-23.91c4.72-16.61,19.32-26.44,36.52-24.93,7.86.69,16.02,3.28,22.66,7.59s10.17,10.91,12.17,18.54c2.01,7.65,1.12,16.16,1.54,24.01.39,7.28,1.18,14.58,3.56,21.51,1.25,3.63,7.04,2.07,5.79-1.6h0Z"/>
      </g>
      <path d="M107.32,84.9c-3.37-10.24-3.58-21.07-3.75-31.74-.01-.96-1.51-.97-1.5,0,.17,10.8.39,21.79,3.8,32.14.3.91,1.75.52,1.45-.4h0Z"/>
      <path d="M103.8,84.78c-1.28-4.89-2-9.9-2.15-14.96-.03-.96-1.53-.97-1.5,0,.15,5.19.88,10.34,2.2,15.36.24.93,1.69.54,1.45-.4h0Z"/>
      <path d="M99.91,81.86c-.04-2.93-.07-5.86-.11-8.79-.01-.96-1.51-.97-1.5,0,.04,2.93.07,5.86.11,8.79.01.96,1.51.97,1.5,0h0Z"/>
      <path d="M96,50.06c2.68-4.27.97-9.54.72-14.19-.05-.96-1.55-.97-1.5,0,.23,4.32,1.98,9.48-.51,13.43-.52.82.78,1.57,1.3.76h0Z"/>
      <path d="M91.28,49.96c.99-1.22,1.38-2.8,1.61-4.32s.3-3.15.35-4.73c.03-.97-1.47-.96-1.5,0-.04,1.41-.08,2.82-.28,4.22-.17,1.25-.43,2.79-1.24,3.78-.26.31-.31.75,0,1.06.26.26.8.32,1.06,0h0Z"/>
      <path d="M86.57,48.94c1-1.97,1.24-4.26,1.24-6.44s-.26-4.51-.73-6.71c-.2-.94-1.65-.54-1.45.4.42,2.01.66,4.06.67,6.12s-.13,4.09-1.04,5.88c-.44.86.86,1.62,1.3.76h0Z"/>
      <path d="M78.74,49.12c2.24-6.3,2.18-13.29-.17-19.55-.34-.9-1.79-.51-1.45.4,2.26,6.04,2.32,12.68.17,18.76-.32.91,1.13,1.3,1.45.4h0Z"/>
      <path d="M72.01,48.69c1.63-3.76,2.06-7.91,1.18-11.92-.2-.94-1.65-.54-1.45.4.78,3.58.43,7.39-1.03,10.76-.38.88.91,1.64,1.3.76h0Z"/>
      <path d="M61.18,50.87c2.93-5.27,4.15-11.39,3.4-17.38-.12-.95-1.62-.96-1.5,0,.72,5.74-.38,11.56-3.19,16.62-.47.84.83,1.6,1.3.76h0Z"/>
      <path d="M51.55,50.32c.4-2.98,1.61-5.76,2.72-8.53,1.02-2.54,2.08-5.19,2.1-7.97,0-.97-1.49-.97-1.5,0-.02,2.72-1.14,5.34-2.15,7.82-1.08,2.68-2.23,5.39-2.62,8.28-.13.94,1.32,1.35,1.45.4h0Z"/>
      <path d="M45.43,49.93c.54-2.93,1.11-5.86,1.87-8.74.65-2.46,1.35-5.13,2.85-7.23.56-.79-.74-1.54-1.3-.76-1.52,2.13-2.27,4.85-2.94,7.35-.79,2.96-1.38,5.97-1.94,8.98-.17.94,1.27,1.35,1.45.4h0Z"/>
      <path d="M37.98,47.84c.01-1.85.32-3.68.77-5.47.41-1.65.93-3.33,1.8-4.8.49-.83-.8-1.59-1.3-.76-.93,1.58-1.51,3.39-1.95,5.16-.48,1.91-.81,3.9-.82,5.87,0,.97,1.49.97,1.5,0h0Z"/>
      <path d="M33.18,81.59c-1.23-7.79-5.88-15.01-4.61-23.11.15-.94-1.3-1.35-1.45-.4-.63,4.03-.04,7.91,1.15,11.77s2.79,7.94,3.45,12.13c.15.95,1.6.55,1.45-.4h0Z"/>
      <path d="M29.75,84.11c-1.44-6.51-3.69-13.03-3.76-19.77,0-.96-1.51-.97-1.5,0,.07,6.87,2.34,13.52,3.81,20.16.21.94,1.65.54,1.45-.4h0Z"/>
      <path d="M19.09,92.18c4.58-5.76,4.37-13.15,4.21-20.12-.02-.96-1.52-.97-1.5,0,.15,6.49.51,13.67-3.77,19.06-.59.75.46,1.82,1.06,1.06h0Z"/>
      <path d="M24.27,86.99c1.45-2.95,1.54-6.41,1.04-9.6-.06-.4-.56-.62-.92-.52-.43.12-.59.52-.52.92.43,2.76.36,5.89-.89,8.45-.42.86.87,1.62,1.3.76h0Z"/>
      <path d="M37.13,21.82c-5.32,5.35-8.87,12.3-10.06,19.75-.15.94,1.3,1.35,1.45.4,1.15-7.21,4.52-13.91,9.67-19.09.68-.69-.38-1.75-1.06-1.06h0Z"/>
      <path d="M98.81,30.19c-4.78-7.34-12.13-12.79-20.55-15.21-.93-.27-1.33,1.18-.4,1.45,8.04,2.32,15.09,7.51,19.66,14.52.53.81,1.82.05,1.3-.76h0Z"/>
      <path d="M53.3,53.76c2.38-.68,3.45-3.19,4.31-5.29.54-1.31,1.11-2.6,1.44-3.99.39-1.64.57-3.33.76-5,.1-.96-1.4-.95-1.5,0-.16,1.46-.32,2.93-.65,4.36-.3,1.3-.79,2.51-1.29,3.74-.69,1.68-1.51,4.18-3.47,4.74-.93.26-.53,1.71.4,1.45h0Z"/>
      <path d="M65.21,51.56c1.62-2.27,2.46-5.07,2.37-7.85-.03-.96-1.53-.97-1.5,0,.09,2.55-.68,5.02-2.16,7.1-.24.33-.06.84.27,1.03.38.22.79.06,1.03-.27h0Z"/>
      <path d="M42.66,51.63c-.73-4.19-.05-8.64,1.19-12.67,1.39-4.54,3.69-8.88,7.15-12.18.7-.67-.36-1.73-1.06-1.06-3.64,3.47-6.07,8.06-7.53,12.84-1.32,4.3-1.97,9-1.19,13.46.17.95,1.61.55,1.45-.4h0Z"/>
      <path d="M33.18,51.67c.85-3.37,1.08-6.82,1.64-10.24s1.71-6.87,3.93-9.75c.59-.77-.72-1.51-1.3-.76-2.21,2.89-3.42,6.24-4.03,9.8s-.82,7.08-1.69,10.55c-.24.94,1.21,1.34,1.45.4h0Z"/>
      <path d="M50.41,95.03c.66,1.67,1.78,3.32,2.07,5.11.18,1.13.07,2.18.53,3.26.42.98,1.09,1.8,1.83,2.56.68.7,1.42,1.46,2.36,1.8.69.25,1.42.25,2.15.3,1.3.09,2.59.25,3.88.39,1.53.17,3.06.34,4.59.5s3.23.46,4.65-.36c1.68-.97,2.98-3.22,3.98-4.82,1.17-1.86,1.95-3.83,2.16-6.03.18-1.92-2.82-1.91-3,0-.17,1.78-1.01,3.39-1.98,4.86-.79,1.2-1.94,3.49-3.53,3.54-2.36.07-4.85-.48-7.19-.73-1.1-.12-2.2-.25-3.31-.34-.37-.03-.88.01-1.23-.09-.73-.21-1.37-1.05-1.84-1.59-1.26-1.43-.84-3.04-1.35-4.73-.47-1.55-1.31-2.94-1.9-4.44-.7-1.78-3.6-1-2.89.8h0Z"/>
      <path d="M55.19,103.59c5.55.1,11.82-1.35,16.87,1.68,1.66,1,3.17-1.6,1.51-2.59-5.6-3.37-12.21-1.98-18.38-2.09-1.93-.03-1.93,2.97,0,3h0Z"/>
    </g>
  </g>
</svg>