<?xml version="1.0" encoding="UTF-8"?>
<svg id="Layer_1" data-name="Layer 1" xmlns="http://www.w3.org/2000/svg" viewBox="0 0 128 128">
  <defs>
    <style>
      .cls-1 {
        opacity: .3;
      }

      .cls-2 {
        fill: #435054;
      }
    </style>
  </defs>
  <path d="M104.88,50.34c1.07-5.79,1.12-11.84-.92-17.43s-5.55-9.89-9.95-13.47c-2.04-1.66-4.2-3.29-6.6-4.39s-5.09-2.1-7.69-2.96c-2.41-.79-4.87-1.54-7.4-1.86-2.9-.36-5.87-.32-8.78-.22-2.74.1-5.51.24-8.22.7s-5.62,1.29-8.35,2.14c-2.38.75-4.66,1.66-6.94,2.67s-4.92,1.97-6.86,3.6-3.69,3.87-4.75,6.16-1.64,4.83-2.35,7.27c-2.23,7.62-4.86,15.21-1.74,23.01,2.41,6.01,7.07,12.01,3.44,18.58-.57,1.04-1.39,2.1-1.41,3.33-.04,1.55.31,3.25.68,4.74.56,2.24,1.55,4.39,3.11,6.12,1.09,1.22,2.47,2.13,3.98,2.74.31.12,2.1.94,2.39.74-.09.06-.46-.26-.51-.31-.23-.23-.24-.82-.38-.41-.05.14.04.46.05.61.1.98.25,1.96.4,2.93.29,1.83.61,3.67.48,5.53-.2,2.98.78,5.78,1.73,8.56.41,1.2.84,2.41,1.63,3.41.9,1.13,2.09,1.74,3.43,2.22,3.85,1.4,7.54,3.19,11.4,4.58,1.4.5,2.81,1.22,4.32,1.29,1.72.08,3.25-.71,4.84-1.24,2.98-.99,6.07,1.01,9.11.49s5.45-2.9,8.03-4.56c2-1.29,4.45-1.86,6.6-2.88s3.7-2.18,4.2-4.52.76-4.9,1.17-7.34c.45-2.67.86-5.34,1.33-8.01.21-1.2.41-2.4.69-3.58.04-.16.07-.32.13-.47-.09.23-.03.07.04-.05.09-.16.08-.14.13-.17-.16.09.3-.17.42-.23.42-.23-.07.02.33-.14.53-.22,1.07-.42,1.55-.72,1.39-.85,2.24-2.21,2.78-3.72.41-1.16.6-2.38.74-3.6.16-1.38.46-3.08.13-4.46-.35-1.47-1.66-2.47-2.07-3.92-.81-2.87.9-5.98,2.24-8.41,1.4-2.55,2.43-4.92,2.74-7.81.16-1.52.44-3.04.66-4.55.28-1.89-2.61-2.7-2.89-.8-.22,1.5-.44,2.99-.65,4.49-.15,1.03-.21,2.05-.51,3.05-.46,1.52-1.26,2.89-2.02,4.27-1.46,2.66-2.92,5.68-2.73,8.8.12,1.97.97,3.4,2,5,.08.13.39.75.3.5.11.32.07-.24.03.1-.06.42-.01.89-.03,1.32-.05,1.42-.17,2.83-.51,4.21-.17.69-.39,1.35-.75,1.97-.25.43-.65.8-.9.95-.2.12-.4.22-.6.33-.35.17.13-.05-.33.14s-.98.38-1.42.66c-1.28.83-1.62,2.12-1.9,3.53-.97,4.89-1.68,9.84-2.43,14.76-.16,1.08-.33,2.17-.57,3.24-.2.89-.39,1.23-1.19,1.74-2.06,1.32-4.49,1.99-6.71,2.97-2.45,1.08-4.34,3.09-6.71,4.32-2.7,1.39-5.49.07-8.33-.14-1.71-.13-3.12.51-4.7,1.05s-2.47.48-3.96-.08c-3.48-1.32-6.89-2.74-10.33-4.15-1.36-.55-3.14-.88-4.28-1.82-.89-.73-1.22-1.91-1.58-2.96-.44-1.29-.89-2.56-1.22-3.88-.39-1.58-.33-2.94-.32-4.54,0-1.71-.29-3.41-.55-5.09-.13-.85-.28-1.71-.36-2.57-.06-.64.04-1.42-.3-2-.47-.8-1.48-.87-2.28-1.11-2.57-.75-4.71-2.82-5.73-5.71-.43-1.23-.72-2.53-.88-3.82-.07-.57-.2-1.35-.09-1.71.19-.58.66-1.16.95-1.7,1.6-2.9,2.12-6.17,1.56-9.44-.51-3-2.02-5.73-3.33-8.44-1.59-3.27-2.83-6.52-2.8-10.21.03-3.88,1.15-7.66,2.28-11.34.83-2.7,1.5-5.47,2.42-8.14.78-2.23,2.1-4.1,3.72-5.8s3.93-2.65,6.13-3.65c4.62-2.09,9.4-3.71,14.36-4.77,2.42-.52,4.9-.68,7.36-.8,2.93-.14,5.89-.21,8.82.01,4.77.36,9.66,2.25,14.02,4.11,4.72,2.01,9.02,5.57,12.21,9.57s5.16,9.1,5.45,14.32c.16,2.83-.08,5.66-.6,8.45-.35,1.89,2.54,2.7,2.89.8Z"/>
  <g>
    <path d="M38.61,58.53c1.12-1.43,2.62-2.59,4.31-3.37,2.33-1.06,4.96-1.36,7.54-1.52.77-.05,1.54-.08,2.3.06,1.63.31,2.99,1.43,3.87,2.77s1.34,2.88,1.72,4.42c.13.51.24,1.03.21,1.55-.04.58-.27,1.13-.5,1.67-.94,2.18-2.05,4.46-4.16,5.7-.89.53-1.9.83-2.92,1.06-2.05.47-4.16.69-6.26.88-.45.04-.91.08-1.33-.08-.47-.18-.81-.58-1.25-.82-.63-.34-1.47-.35-1.96-.85-.26-.27-.38-.63-.49-.98-.37-1.2-.68-2.42-.94-3.65-.55-2.61-.81-5.43.39-7.83"/>
    <path d="M39.67,59.59c2.41-2.98,5.84-4.05,9.55-4.36,1.83-.15,3.68-.38,5.16.92,1.31,1.16,1.91,2.84,2.35,4.48.23.86.44,1.57.14,2.43-.28.8-.67,1.58-1.07,2.33-.74,1.39-1.66,2.67-3.12,3.37-1.73.83-3.85,1.06-5.74,1.27-.86.1-1.87.34-2.73.25-.75-.07-1.43-.83-2.18-1.08-.21-.07-.66-.13-.81-.28-.25-.26-.32-1.04-.41-1.37-.29-1.06-.55-2.13-.75-3.22-.37-1.98-.51-4.15.37-6.01.82-1.74-1.76-3.26-2.59-1.51-1.05,2.21-1.21,4.53-.89,6.93.16,1.19.4,2.36.68,3.52s.52,2.64,1.31,3.6c.67.81,1.55.88,2.44,1.3.45.21.79.6,1.25.82.61.28,1.26.34,1.92.3,2.49-.16,5.08-.46,7.5-1.12s4.11-1.88,5.49-3.84c.58-.82,1.03-1.72,1.45-2.63.52-1.13,1.09-2.28,1.08-3.56-.01-1.09-.39-2.25-.72-3.28-.35-1.09-.79-2.19-1.42-3.14-1.28-1.94-3.21-3.31-5.55-3.57-1.44-.16-2.95.04-4.38.21-1.3.15-2.59.36-3.84.75-2.58.79-4.9,2.27-6.6,4.37-.51.63-.61,1.5,0,2.12.52.53,1.61.63,2.12,0h0Z"/>
  </g>
  <g>
    <path d="M75.58,53.84c-.98,1.37-2.5,2.35-3.3,3.82-1.41,2.58-.25,5.71.93,8.4.38.87.78,1.76,1.47,2.43.9.87,2.18,1.25,3.41,1.59,1.08.3,2.16.61,3.23.91.96.27,1.94.54,2.94.5,1.34-.06,2.57-.69,3.75-1.3.7-.36,1.4-.73,1.95-1.28,1.31-1.32,1.4-3.35,1.29-5.17-.12-2.09-.43-4.26-1.63-6-1.3-1.88-3.51-3.02-5.78-3.55s-4.64-.49-6.97-.45"/>
    <path d="M74.29,53.08c-1.31,1.74-3.11,2.85-3.82,5.02-.67,2.04-.24,4.29.46,6.27s1.48,4.23,3.14,5.55c1.79,1.42,4.35,1.81,6.5,2.42,1,.28,2,.57,3.04.64,1.28.09,2.5-.26,3.66-.76,1.84-.8,3.83-1.77,4.76-3.65s.85-4.07.63-6.08c-.23-2.17-.76-4.29-2.14-6.03-3.24-4.1-8.87-4.28-13.64-4.21-1.93.03-1.93,3.03,0,3,3.41-.05,7.32-.18,10.19,1.99,1.3.98,2.01,2.37,2.36,3.94s.52,3.27.29,4.81c-.24,1.63-1.23,2.29-2.61,3-.72.37-1.46.75-2.26.93-.96.21-1.88-.01-2.81-.27-1.72-.47-3.61-.82-5.24-1.54s-2.17-2.38-2.76-3.91c-.62-1.61-1.3-3.56-.69-5.28s2.45-2.88,3.52-4.3c.49-.65.1-1.68-.54-2.05-.77-.45-1.56-.11-2.05.54h0Z"/>
  </g>
  <g>
    <path d="M64.29,74.24l.27-.64c-.04,1.03-.07,2.07-.11,3.1-.04,1.25-.88,3.33-1.97,3.73-1.1.4-1.56-1.23-2.21-2.28-.3-.49-.58-1-.71-1.57-.38-1.73.71-3.37,1.36-5,1.05-2.6,1.16-5.85,3.18-7.67.66-.6,1.72-.94,2.35-.3.22.22.34.53.45.83,1.1,2.82,2.2,5.63,3.3,8.45.38.97.77,1.96.88,3.01.14,1.34-.19,2.74-.92,3.85-.27.41-.63.8-1.08.9-.85.19-1.57-.67-2.03-1.46-.74-1.25-1.36-2.58-1.87-3.96"/>
    <path d="M65.73,74.63l.27-.64-2.95-.4c-.05,1.39.11,2.93-.38,4.25-.15.41-.51.77-.66,1.13-.13.32-.23-.05-.02.05,0,0,.6-.05.47.03.02-.01-.23-.41-.29-.52-.66-1.22-1.45-2.25-1.01-3.68s1.26-2.82,1.7-4.31c.38-1.3.62-2.67,1.17-3.92.21-.47.47-.94.81-1.33.2-.22.45-.33.65-.52-.01.01.16-.02.16-.02-.21-.15-.29-.17-.23-.05.01.04.03.09.05.13-.06.25.39.99.49,1.25.16.42.33.83.49,1.25.33.83.65,1.67.98,2.5.67,1.72,1.48,3.44,1.97,5.22.23.81.31,1.63.11,2.45-.09.39-.22.76-.42,1.11-.08.14-.17.27-.25.41-.3.53-.1,0,.01.14.24.31.02-.12.04-.03,0,0-.41-.49-.41-.5-.22-.33-.4-.68-.59-1.03-.48-.9-.9-1.83-1.26-2.78-.28-.76-1.01-1.28-1.85-1.05-.73.2-1.33,1.08-1.05,1.85.45,1.2.96,2.37,1.56,3.5.54,1,1.15,2.07,2.16,2.66,2.39,1.38,4.27-1.14,4.87-3.19.72-2.47-.14-4.75-1.04-7.04s-1.87-4.8-2.81-7.2c-.43-1.11-.93-2.22-2.21-2.51-1.17-.27-2.35.23-3.21,1.01-1.48,1.33-2.11,3.32-2.62,5.18-.24.9-.46,1.81-.78,2.69-.39,1.09-.99,2.1-1.35,3.21s-.45,2.25-.12,3.34c.29.98.91,1.9,1.39,2.8s1.24,1.85,2.39,1.92,2.02-.62,2.66-1.48c1.49-2.03,1.34-4.51,1.42-6.9.03-.74-.59-1.39-1.3-1.47-.8-.1-1.35.36-1.65,1.07l-.27.64c-.31.75.34,1.65,1.05,1.85.86.24,1.53-.3,1.85-1.05h0Z"/>
  </g>
  <path d="M50.76,90.74c-.65.25-1,1.04-1.25,1.65-.33.81-.18,1.82,0,2.65.11.5.23,1.09.67,1.41.41.29.95.26,1.37.01.47-.28.65-.8.78-1.3s.25-1.06.29-1.61c.07-1.14-.36-2.21-1.28-2.9-.23-.17-.59-.04-.72.19-.16.27-.04.55.19.72.48.35.73.95.77,1.53.02.4-.03.8-.11,1.2-.07.35-.13.75-.29,1.07-.06.13-.28.35-.41.22-.05-.05-.07-.19-.09-.25-.06-.21-.12-.41-.16-.62-.08-.39-.12-.78-.12-1.18,0-.09,0-.18,0-.27,0-.06,0-.12,0-.18,0-.02.02-.16,0-.05-.02.1,0-.02.01-.04.02-.05.03-.11.05-.16.08-.21.19-.44.34-.69.03-.06.07-.12.11-.17.01-.02.12-.17.07-.11.04-.05.08-.09.12-.13.04-.05,0,0,0,0-.03.02-.03.02,0,0,.04-.02.02-.01-.06.02.26-.1.45-.35.37-.65-.07-.25-.38-.47-.65-.37h0Z"/>
  <path d="M52.33,91.46c-.15.86-.3,1.74-.28,2.62,0,.45.06.9.17,1.33.1.39.24.84.55,1.11.35.3.86.31,1.26.08s.61-.62.71-1.04c.19-.83.15-1.73-.01-2.56-.09-.47-.24-.93-.43-1.37-.2-.47-.55-.92-1.13-.78-.66.16-.38,1.17.28,1.01-.24.06-.28-.16-.16.07.03.06.06.12.08.18.08.18.14.37.2.56.11.36.19.73.22,1.1.04.39.03.79,0,1.18-.03.28-.07.56-.28.75-.03.02-.07.02-.06.03-.1-.06-.16-.38-.19-.47-.11-.37-.16-.75-.16-1.13-.02-.8.11-1.59.24-2.38.05-.28-.07-.57-.37-.65-.25-.07-.6.09-.65.37h0Z"/>
  <path d="M54.33,91.33c-.19.98-.19,1.96.13,2.91.15.45.36.88.58,1.3.26.49.68.92,1.28.79.52-.11.87-.59,1.09-1.05s.36-1,.34-1.52c-.02-.42-.12-.85-.18-1.26s-.13-.85-.33-1.22c-.49-.89-1.71-.8-2.57-.79-.67.01-.68,1.06,0,1.05.3,0,.61-.02.91,0,.15,0,.23.01.39.05.07.02.13.03.2.06-.06-.03.14.08.11.07-.04-.02.02.02.02.03-.05-.06,0,0,.01.01.02.03.03.06.05.09,0-.02-.03-.08.01.03.05.15.09.3.12.46.06.33.1.66.15.99.11.64.06,1.35-.39,1.86-.01.02-.09.11-.13.11,0,0,.01,0,.02,0-.09-.03-.19-.31-.24-.39-.15-.3-.3-.6-.41-.92-.27-.78-.3-1.57-.14-2.39.05-.28-.08-.57-.37-.65-.26-.07-.59.09-.65.37h0Z"/>
  <path d="M57.11,91.1c-.08.82-.11,1.65-.08,2.48.02.67.04,1.37.23,2.01.17.57.5,1.12,1.04,1.4.47.24.98.11,1.47.02s.91-.47,1.01-.98c.12-.57-.04-1.19-.07-1.77-.03-.6-.13-1.21-.27-1.8-.12-.53-.25-1.2-.62-1.62-.19-.22-.46-.31-.73-.39-.3-.09-.56-.24-.89-.23-.69.02-1.38.51-1.36,1.25.02.67,1.07.68,1.05,0,0-.08,0-.1.12-.15.12-.06.25-.06.38-.01.18.06.35.14.53.19.1.03.08.01.12.05-.08-.07.04.09.05.11.19.4.28.86.37,1.29s.16.87.18,1.31.1.9.11,1.34c0,.14-.01.23-.08.33-.03.05.07,0-.02.03-.07.03-.16.03-.24.04-.15.02-.3.05-.45.07-.04,0-.09.02-.14.02.08,0-.08-.05-.12-.07-.32-.2-.44-.6-.52-.95-.13-.58-.13-1.2-.14-1.79-.01-.73.02-1.47.09-2.2.03-.28-.26-.53-.53-.53-.31,0-.5.24-.52.53h0Z"/>
  <path d="M60.79,89.5c-1.06,1.12-1.13,2.71-.78,4.14.2.82.52,1.6.77,2.41.11.37.19.78.48,1.06s.75.39,1.14.45c.65.11,1.69.19,2.23-.29.28-.25.34-.6.32-.96-.02-.47,0-.93.03-1.4.07-.84.17-1.72,0-2.55-.13-.63-.46-1.26-.81-1.79-.39-.59-.89-1.01-1.63-1-.28,0-.55.07-.83.13-.11.02-.22.04-.33.05-.06,0-.12,0-.18,0-.19.04.02-.12.14.15-.28-.61-1.19-.08-.91.53.38.83,1.65.08,2.28.19.36.07.58.5.75.79.29.51.52,1.04.56,1.63.04.71-.05,1.43-.1,2.14-.02.33-.03.67-.02,1,0,.06,0,.18.02.24.02.09-.06.14.05.06-.1.08-.36.08-.48.09-.31.02-.62.02-.92-.04-.15-.03-.35-.05-.48-.12s-.15-.17-.2-.32c-.2-.68-.44-1.34-.66-2.01-.39-1.23-.67-2.78.31-3.82.46-.49-.28-1.24-.74-.74h0Z"/>
  <path d="M65.22,93.37c.02-.79-.27-2.11.42-2.71.25-.21.65-.38.97-.49.41-.14.7.21.83.57.21.56.26,1.2.32,1.79.06.65.08,1.31.06,1.96-.02.42.04,1.14-.28,1.48-.3.31-1.05.25-1.43.17-.58-.13-.67-.69-.7-1.2-.05-.74-.03-1.49.07-2.23.04-.28-.07-.56-.37-.65-.25-.07-.61.09-.65.37-.12.87-.18,1.75-.1,2.63.06.7.24,1.41.85,1.83s1.49.42,2.17.29c.75-.14,1.24-.7,1.38-1.44.15-.8.15-1.65.11-2.46s-.12-1.68-.32-2.49c-.17-.72-.58-1.42-1.33-1.65-.58-.18-1.14.09-1.65.35-.64.33-1.07.79-1.28,1.49-.23.77-.1,1.6-.12,2.39-.01.68,1.04.68,1.05,0h0Z"/>
  <path d="M68.55,91.14c-.09,1.28-.14,2.57.03,3.85.07.55.13,1.16.45,1.63.39.57.99.69,1.64.59.54-.08,1.12-.25,1.38-.78.13-.28.14-.58.14-.89,0-.36,0-.73,0-1.09,0-.71.01-1.42.02-2.13,0-.6-.03-1.25-.47-1.71s-1.07-.56-1.66-.63-1.24.1-1.46.73.79.91,1.01.28c-.04.11.03.03.14.02.17-.01.35.02.52.05.3.05.66.12.79.43.16.39.08.9.08,1.31,0,.53,0,1.05-.01,1.58,0,.48.06,1.01-.02,1.48-.05.29-.52.31-.76.33-.39.04-.52-.17-.62-.53-.11-.42-.15-.86-.19-1.29-.09-1.08-.03-2.16.04-3.24.05-.67-1-.67-1.05,0h0Z"/>
  <path d="M71.73,90.94c-.09.58.07,1.09.16,1.66.08.53-.12,1.07-.16,1.6-.08,1.14.36,2.31,1.49,2.73.48.18,1.05.13,1.47-.18.21-.16.38-.37.43-.64.07-.32-.03-.66-.05-.98-.09-1.23.12-2.53-.28-3.73-.19-.56-.52-.94-1.09-1.15-.48-.18-1.04-.19-1.53-.06-.65.17-.38,1.18.28,1.01.47-.12,1.14-.04,1.32.44.33.89.22,1.89.23,2.82,0,.24,0,.48.03.72,0,.11.02.22.03.33.01.09.07.27.04.37.01-.04,0,0-.03.02-.05.04-.13.06-.19.07-.13.02-.26-.01-.38-.07-.74-.33-.78-1.22-.71-1.92.05-.49.19-.95.13-1.45-.05-.42-.25-.9-.19-1.33.04-.28-.07-.56-.37-.65-.25-.07-.6.08-.65.37h0Z"/>
  <path d="M74.58,91.12l-.17,1.54c-.05.43-.13.87-.12,1.3.02.87.51,1.63,1.4,1.8.37.07.79.06,1.13-.13.43-.25.58-.69.57-1.16s-.03-.97-.05-1.46c-.02-.46,0-.93-.08-1.39-.08-.51-.42-.93-.92-1.09s-1.03-.02-1.5.13c-.27.09-.44.36-.37.65.07.26.38.46.65.37.16-.05.32-.1.49-.14.06-.01.11-.02.14-.02.04,0,.08,0,.12,0,.01,0,.13,0,.07,0,.06,0,.1.02.12.03,0,0,.11.07.06.04s.05.07.02.02c-.03-.04.07.14.03.04.03.07.04.15.06.22.01.09,0-.07,0,.01,0,.03,0,.07,0,.1,0,.08,0,.15,0,.23,0,.21.01.43.02.64.01.39.03.78.04,1.17,0,.19.02.38.01.56,0,.06,0,.06-.01.1.01-.03-.03.11-.02.03.02-.03.02-.03,0,0-.03.03-.02.02.03-.02-.02.01-.05.03-.07.04.02-.01.1-.03,0,0-.02,0-.16.03-.1.03s-.09,0-.11,0c-.03,0-.06,0-.09,0,.1,0,0,0-.03,0-.06-.01-.12-.03-.18-.05-.01,0-.1-.04-.05-.02.05.02-.02-.01-.02-.01-.02-.01-.17-.11-.08-.04-.04-.03-.09-.08-.12-.12-.15-.21-.16-.44-.15-.72.02-.42.08-.85.13-1.27l.16-1.39c.03-.28-.26-.52-.52-.52-.31,0-.49.24-.53.52h0Z"/>
  <path d="M76.75,90.75c-.03.49.04.97.1,1.45s.07.96.04,1.46c-.05.96.24,1.92.93,2.61.13.13.33.19.51.14.67-.21,1.16-.7,1.39-1.36.26-.74.13-1.61.1-2.37-.03-.7.05-1.54-.48-2.09-.5-.51-1.28-.53-1.95-.49s-.68,1.09,0,1.05c.35-.02.94-.1,1.21.18.13.13.13.34.14.51.02.31.03.62.04.94.03.82.33,2.29-.72,2.62l.51.14c-.58-.57-.67-1.32-.61-2.1.07-.9-.21-1.78-.16-2.68.04-.68-1.01-.67-1.05,0h0Z"/>
  <path d="M49.7,97.02c.07,1.34.26,2.72,1.15,3.79.47.56,1.34,1.18,1.95.44.26-.31.3-.7.35-1.09.05-.42.08-.84.07-1.26,0-.98-.14-1.97-.4-2.92-.18-.65-1.19-.38-1.01.28.22.83.35,1.68.36,2.55,0,.44-.02.87-.07,1.31-.01.12-.03.32-.06.4-.04.05-.04.07-.02.05-.07.06-.05.06.04,0,.03-.05.12.05-.04-.06-1.07-.75-1.21-2.29-1.27-3.48-.03-.67-1.08-.68-1.05,0h0Z"/>
  <path d="M52.1,96.91c.09.82.18,1.64.28,2.46.08.7.2,1.48.74,1.99.49.46,1.32.67,1.91.27.67-.46.63-1.27.56-1.99-.09-.95-.18-1.9-.28-2.86-.03-.28-.22-.53-.53-.53-.26,0-.55.24-.52.53.07.7.14,1.4.2,2.1.03.35.07.69.1,1.04.02.25.05.5-.02.71.01-.03-.04.07-.05.09.02-.03-.07.05-.01.01-.02.02-.13.06-.07.04-.02,0-.05.02-.08.02-.09.01.07,0-.02,0-.14,0-.33-.06-.45-.17-.35-.33-.39-.91-.44-1.36-.09-.78-.18-1.57-.27-2.35-.03-.28-.22-.53-.52-.53-.26,0-.56.24-.53.53h0Z"/>
  <path d="M55.16,96.54c-.3,1.13-.43,2.51.02,3.62.24.6.62,1.22,1.22,1.52s1.37.31,1.92-.16c.82-.7.67-2.02.56-2.97-.1-.85-.3-2.11-1.29-2.36-.3-.08-.67-.03-.99-.03h-.93c-.68,0-.68,1.05,0,1.05.47,0,.95.02,1.42,0,.09,0,.17-.01.26,0-.14-.01,0,0,.01.01-.14-.12.02.03.01.01,0,0,.11.1-.01-.01.04.04.08.07.11.11-.08-.09.04.07.06.11.02.04.04.08.06.12,0-.02-.03-.09,0,0,.07.18.12.38.16.57.04.22.06.31.08.48.02.19.04.38.05.57.03.42.05.84-.05,1.21-.03.1-.03.11-.08.2-.04.07-.09.13-.12.16-.14.12-.32.14-.48.11-.46-.08-.74-.5-.93-.9-.44-.94-.3-2.15-.05-3.13.17-.65-.84-.93-1.01-.28Z"/>
  <path d="M58.61,97.62c.19.19.35.29.63.24.06-.01.12-.02.18-.03l.75-.14,1.23-.23-.65-.37c.14.73.14,1.45.09,2.19-.03.4-.03.81-.09,1.21-.04.3-.13.63-.39.8-.6.39-.78-.87-.83-1.2-.14-.92-.29-1.85-.43-2.77-.04-.28-.4-.44-.65-.37-.3.08-.41.36-.37.65l.4,2.58c.12.77.27,1.62,1,2.04s1.56.07,1.98-.6.37-1.54.42-2.3c.06-.85.03-1.67-.13-2.51-.06-.3-.39-.41-.65-.37-.73.13-1.45.27-2.18.4l.51.14-.11-.11c-.48-.48-1.22.26-.74.74h0Z"/>
  <path d="M61.29,97.9c.12,1.04.37,2.04.78,3.01.17.4.35.82.68,1.12.35.33.87.49,1.33.32s.7-.63.82-1.09.22-.97.3-1.46c.16-1.06.23-2.13.19-3.21-.03-.67-1.08-.68-1.05,0,.03.84,0,1.69-.1,2.53-.05.4-.12.79-.2,1.18-.04.21-.09.42-.14.63-.03.11-.05.33-.14.41-.33.27-.76-.92-.83-1.1-.29-.75-.49-1.54-.58-2.34-.03-.28-.22-.53-.52-.53-.26,0-.56.24-.53.53h0Z"/>
  <path d="M64.63,97.55c.03.86.03,1.73.09,2.59.06.78.35,1.5,1.14,1.78.59.21,1.31.08,1.77-.35.28-.26.43-.63.51-1,.1-.45.17-.91.22-1.37.11-1.01.07-2.01-.07-3.01-.04-.28-.4-.43-.65-.37-.3.08-.41.36-.37.65.13.9.13,1.83.03,2.73-.05.44-.11.91-.25,1.33-.02.06-.04.12-.08.18-.04.05-.04.06-.01.03-.02.03-.05.05-.07.08-.05.05-.13.1-.23.13-.19.06-.4.05-.54-.03-.02-.01-.17-.11-.11-.07-.03-.02-.05-.05-.08-.07.02.04.02.03-.02-.02-.09-.13-.13-.3-.15-.45-.06-.42-.04-.86-.06-1.29l-.05-1.46c-.02-.67-1.07-.68-1.05,0h0Z"/>
  <path d="M67.56,97.46c-.02.8-.01,1.61.01,2.41.01.39.02.8.2,1.15s.5.55.84.69c.7.3,1.58.47,2.17-.16.28-.31.34-.69.35-1.09s.03-.79.05-1.19c.02-.45.04-.9.06-1.36s0-.88-.16-1.29c-.11-.26-.35-.45-.65-.37-.25.07-.47.38-.37.65.14.34.14.69.12,1.05-.02.42-.03.85-.05,1.27s-.03.85-.05,1.28c-.01.23-.03.39-.27.43-.29.05-.65-.1-.9-.24-.28-.15-.27-.4-.28-.69-.03-.85-.04-1.7-.02-2.54.01-.68-1.04-.68-1.05,0h0Z"/>
  <path d="M71.69,97.82l-.13-.53c-.15-.58-1.02-.45-1.03.14-.01.72-.03,1.44-.04,2.16s-.02,1.45.6,1.91c.57.42,1.31.19,1.65-.41.31-.54.37-1.24.47-1.84.14-.83.24-1.66.3-2.5.02-.28-.26-.53-.53-.53-.3,0-.5.24-.52.53-.06.73-.14,1.46-.26,2.18-.06.37-.13.74-.21,1.11-.03.14-.06.28-.11.42-.06.15.03-.05-.04.09-.02.03-.04.07-.06.1.02-.03.02-.03,0,0-.09.11-.01,0,0,.03,0,0-.1.02-.01.02-.07,0-.12-.06-.16-.12-.14-.23-.09-.58-.08-.84.02-.76.03-1.53.05-2.29l-1.03.14.13.53c.17.65,1.18.38,1.01-.28h0Z"/>
  <path d="M73.27,96.53c-.35.93-.5,1.95-.39,2.94.08.82.28,2.29,1.43,2.13s1.13-1.57,1.22-2.46c.11-1.08.22-2.17.33-3.25.03-.28-.26-.53-.52-.53-.31,0-.5.24-.53.53-.09.85-.17,1.69-.26,2.54-.05.44-.09.88-.14,1.32-.02.16-.03.33-.06.49-.02.07-.03.13-.06.19.04-.08-.1.14-.09.11,0-.04-.05.03-.03.02.06-.04.05.13,0-.03-.04-.13-.09-.26-.13-.39-.09-.36-.14-.72-.15-1.09-.03-.78.11-1.53.38-2.25.1-.27-.11-.58-.37-.65-.3-.08-.54.1-.65.37h0Z"/>
  <path d="M74.47,97.14c-.06.68-.12,1.37-.18,2.05-.03.32-.03.65.14.93.15.24.4.41.67.48.53.14,1.11-.05,1.45-.47.4-.49.5-1.1.61-1.7.15-.75.29-1.5.44-2.25.05-.28-.08-.57-.37-.65-.26-.07-.59.09-.65.37-.14.71-.28,1.43-.42,2.14-.06.32-.11.65-.21.97-.04.14-.07.21-.13.31,0,0-.09.14-.05.09-.02.02-.18.17-.09.1-.02.01-.15.08-.1.06s-.09.02-.11.03c.12-.03-.05,0-.08,0-.1,0,.05.03-.03,0-.06-.02-.06-.02,0,.01-.03-.01-.05-.03-.07-.04.05.04.05.04.01,0,.03.05.04.06.02.02-.03-.05-.02-.08-.02-.01,0-.08,0-.17,0-.25.05-.73.13-1.46.2-2.19.03-.28-.26-.52-.52-.52-.31,0-.5.24-.53.52h0Z"/>
  <path d="M76.94,96.29c-.34.88-.69,1.81-.59,2.77.04.42.15.83.35,1.2.22.4.58.85,1.08.82.53-.03.84-.6,1.02-1.04.16-.4.22-.83.31-1.24.2-1.01.4-2.01.6-3.02.06-.28-.08-.57-.37-.65-.26-.07-.59.09-.65.37-.16.8-.32,1.6-.48,2.4-.08.38-.15.77-.23,1.15-.07.32-.13.67-.33.94,0,.02-.02.04-.04.05-.08.08,0,.09.23.02,0-.04-.08-.09-.11-.13-.08-.1-.15-.22-.2-.34-.11-.26-.15-.55-.15-.83,0-.76.3-1.49.57-2.19.1-.26-.11-.58-.37-.65-.3-.08-.54.1-.65.37h0Z"/>
  <g>
    <path d="M36.28,87.92c-.32-.17.58.41.92.52,2.06.62,4.17,1.24,6.31,1.05,1.51-.14,3.23-.61,4.38.37.54.47.82,1.17,1,1.86l.37,5.31c.33,2.83.66,5.67,1,8.5-3.84-4.13-6.03-12.22-5.9-12.14,0,0,2.28-.1-8.08-5.48Z"/>
    <path d="M37.04,86.63l-.06-.03c-1.26-.59-2.4.37-2.2,1.69.17,1.15,2.14,1.63,3.01,1.88,1.64.47,3.34.87,5.06.85.78-.01,1.54-.15,2.32-.23.48-.04,1.1-.15,1.55.07.27.13.4.33.52.6.05.11.22.58.16.29.04.17.03.38.04.56.31,4.43.81,8.81,1.33,13.23l2.56-1.06c-1.79-1.96-3.03-4.45-4.01-6.89-.4-.99-.76-1.99-1.08-3.01-.11-.34-.21-.68-.3-1.02-.03-.11-.05-.22-.08-.33-.11-.32-.01.45-.04.57l-1.05,1.05c-.86.18-.12.04.09-.02.41-.12.78-.39,1-.76.47-.8.14-1.67-.43-2.3-.65-.71-1.52-1.24-2.32-1.75-1.95-1.24-4.01-2.32-6.06-3.39-1.71-.89-3.23,1.7-1.51,2.59s3.59,1.89,5.32,2.94c.51.31,1.01.62,1.5.96.17.12.33.24.5.36-.35-.26.06.05.16.14.08.07.16.16.24.23.27.21-.05-.07-.06-.09.16.25-.07-.2-.07-.19-.08-.29-.04-.7.14-1.02s.51-.53.77-.6c-.1.03.99-.21-.07.01-.47.1-.95.57-1.05,1.05-.13.69.12,1.39.32,2.05.34,1.13.74,2.24,1.18,3.34,1.19,2.95,2.63,5.85,4.78,8.21.82.9,2.71.25,2.56-1.06-.53-4.48-1.03-8.94-1.34-13.43-.06-.93-.33-1.84-.87-2.61-.96-1.37-2.51-1.83-4.12-1.72s-3.19.36-4.87.01c-1.34-.28-2.66-.5-3.58-1.18l.69.9h0c-.73.56-1.47,1.12-2.2,1.69l.06.03c.73.34,1.62.21,2.05-.54.38-.65.2-1.71-.54-2.05Z"/>
  </g>
  <g>
    <path d="M93.26,87.48c.32-.17-.58.41-.92.52-2.06.62-4.17,1.24-6.31,1.05-1.51-.14-3.23-.61-4.38.37-.54.47-.82,1.17-1,1.86l-.37,5.31c-.33,2.83-.66,5.67-1,8.5,3.84-4.13,6.03-12.22,5.9-12.14,0,0-2.28-.1,8.08-5.48Z"/>
    <path d="M94.02,88.78l.06-.03-2.2-1.69h0c.23-.29.46-.59.69-.89-.92.68-2.24.9-3.58,1.18-1.68.35-3.19.1-4.87-.01s-3.16.35-4.12,1.72c-.54.77-.8,1.68-.87,2.61-.31,4.5-.82,8.95-1.34,13.43-.15,1.3,1.74,1.96,2.56,1.06,2.16-2.36,3.6-5.27,4.78-8.21.43-1.07.83-2.17,1.16-3.28.2-.67.48-1.4.34-2.11-.09-.48-.57-.95-1.05-1.05-.52-.11-.49-.13-.06-.01.24.07.59.3.76.6.19.33.23.71.14,1.02.02-.09-.24.46-.08.2.06-.09-.32.3-.07.09.09-.07.17-.17.26-.25.06-.06.4-.33.23-.2s.28-.2.37-.26c.5-.35,1.02-.68,1.55-.99,1.73-1.05,3.53-2,5.32-2.94s.2-3.48-1.51-2.59c-2.05,1.07-4.11,2.15-6.06,3.39-.8.51-1.68,1.05-2.32,1.75-.57.63-.9,1.5-.43,2.3.22.37.59.64,1,.76.19.05.96.2.09.02l-1.05-1.05c-.03-.14.08-.91-.03-.6-.03.1-.05.21-.08.31-.09.34-.19.67-.29,1-.32,1.04-.7,2.07-1.1,3.08-.98,2.44-2.23,4.93-4.01,6.89l2.56,1.06c.52-4.41,1.02-8.8,1.33-13.23.01-.18,0-.38.04-.56-.06.29.11-.18.16-.29.12-.27.26-.47.52-.6.44-.21,1.08-.11,1.55-.07.77.07,1.54.21,2.32.23,1.71.03,3.42-.38,5.06-.85.87-.25,2.84-.73,3.01-1.88.2-1.33-.95-2.28-2.2-1.69l-.06.03c-.73.34-.92,1.4-.54,2.05.44.75,1.32.88,2.05.54Z"/>
  </g>
  <path d="M96.91,70.87c1.93,0,1.93-3,0-3s-1.93,3,0,3h0Z"/>
  <path d="M98.32,70.22c2.33-4.75-.4-9.29-.76-14.13s-.01-9.39-1.92-13.82c-.76-1.77-3.35-.24-2.59,1.51,1.66,3.86,1.2,8.21,1.51,12.3.15,2.02.55,3.95,1.08,5.9.61,2.23,1.16,4.54.09,6.72-.85,1.73,1.74,3.25,2.59,1.51h0Z"/>
  <path d="M31.91,71.92c1.25-2.21.81-4.75,1.45-7.12.75-2.79,1.49-5.28,1.37-8.21-.1-2.46-.44-4.9-.47-7.36-.02-2.06.04-4.32,1.19-6.1,1.05-1.63-1.55-3.13-2.59-1.51-2.39,3.72-1.61,8.89-1.26,13.04.11,1.37.21,2.74.12,4.11-.09,1.44-.51,2.78-.93,4.15-.37,1.21-.66,2.41-.78,3.67s-.04,2.66-.7,3.83c-.95,1.68,1.64,3.2,2.59,1.51h0Z"/>
  <path d="M93.21,70.32c-.87,1.64-2.32,2.6-4.02,3.24-1.55.59-3.05,1.34-4.68,1.71-3.56.83-7.1-1.94-10.25-3.18-.59-.23-1,.43-.92.92.26,1.63,1.23,3.03,1.53,4.64.34,1.78-.8,3.32-2.14,4.35-.76.58,0,1.88.76,1.3,1.57-1.2,2.79-2.71,2.93-4.76s-1.31-3.9-1.64-5.92l-.92.92c3.63,1.42,7.23,4.19,11.33,3.11,1.77-.47,3.52-1.25,5.21-1.96,1.73-.73,3.21-1.94,4.09-3.61.45-.85-.84-1.61-1.3-.76h0Z"/>
  <path d="M35.38,70.78c.38,3.7,4.79,5.68,8.05,6.1,4.33.55,8.45-1.62,12.38-3.13.89-.34.5-1.79-.4-1.45-1.7.65-3.4,1.32-5.1,1.96s-3.43,1.21-5.26,1.23c-1.7.01-3.42-.38-4.93-1.17-1.38-.72-3.06-1.85-3.23-3.53-.1-.95-1.6-.96-1.5,0h0Z"/>
  <path d="M70.76,108.4c-1.63-1.18-3.66-1.81-5.68-1.71s-3.89.93-5.5,2.21c-.32.25-.26.79,0,1.06.31.32.75.25,1.06,0,2.76-2.2,6.48-2.35,9.35-.27.78.57,1.53-.73.76-1.3h0Z"/>
  <path d="M68.95,83.89c-.65-.36-1.31-.7-2.01-.95-.45-.16-.93-.28-1.41-.28-.76,0-1.4.37-1.89.94-.24.28-.46.57-.7.85-.27.3-.3.76,0,1.06.27.27.79.3,1.06,0,.25-.29.48-.6.73-.89.02-.03.35-.33.35-.34.01.04-.18.12-.03.03.04-.02.07-.04.11-.06.01,0,.11-.05.11-.06,0,.05-.2.07-.05.02.07-.02.18-.03.24-.06-.16.08-.14.01-.02,0,.05,0,.1,0,.16,0,.06,0,.11,0,.17.01.14,0-.17-.04-.02,0,.13.03.26.05.4.09.15.04.3.09.45.15.06.02.12.05.19.07.08.03.09.03.02,0,.05.02.09.04.14.06.43.19.84.41,1.25.64.35.2.82.09,1.03-.27s.09-.83-.27-1.03h0Z"/>
  <path d="M102.83,56.58c.97,0,.97-1.5,0-1.5s-.97,1.5,0,1.5h0Z"/>
  <g class="cls-1">
    <path class="cls-2" d="M101.95,60.28c2.59-7.11,3.69-15.14,2.37-22.65-1.07-6.07-6.82-12.83-11.6-16.5-8.29-6.36-18.99-9.68-29.42-8.93-6.67.48-14.05,1.78-20.25,4.32-5.32,2.18-10.79,5.84-13.17,11.28-2.71,6.18-5.27,14.15-5.46,20.88-.08,2.69.14,5.54.71,8.17.64,2.96,2.55,4.1,3.84,6.59,1.77,3.43,6.95.4,5.18-3.03-.99-1.92-2.64-3.06-3.23-5.15s-.58-4.51-.5-6.58c.24-5.7,2.54-12.19,4.56-17.53s7.52-8.24,12.6-9.93,11.32-2.86,16.43-3.11c8.31-.41,16.01,1.94,23.1,6.4,4.48,2.81,10.24,9.03,11.34,14.33,1.34,6.49-.05,13.72-2.29,19.84-1.33,3.63,4.47,5.2,5.79,1.6h0Z"/>
  </g>
  <g class="cls-1">
    <path class="cls-2" d="M29.48,74.97c-1.88,3.15-2.32,6.96-.39,10.23,2.03,3.44,5.27,4.27,8.93,4.85,2.4.38,4.52,1.05,6.97.93,1.62-.08,1.36-.56,2.05.93,1.11,2.43,1.06,5.3,2.43,7.65,1.94,3.34,7.12.32,5.18-3.03s-1.09-7.82-4.27-10.48c-2.55-2.13-4.53-.87-7.46-1.06-3.82-.25-11.44-1.65-8.25-7,1.98-3.33-3.2-6.35-5.18-3.03h0Z"/>
  </g>
  <g class="cls-1">
    <path class="cls-2" d="M91.89,73.45c.77,2.82,2.31,7.01-1.41,8.95-1.38.72-3.83.58-5.32.7-2.71.22-6.04-.07-8.12,2.05-3.09,3.14-2.49,9.28-2.38,13.25s6.11,3.87,6,0c-.05-1.78-.84-7.67.58-8.89,1.15-1,5.68-.49,7.23-.67,1.46-.17,2.88-.38,4.25-.92,6.88-2.73,6.6-9.99,4.95-16.06-1.01-3.72-6.8-2.14-5.79,1.6h0Z"/>
  </g>
  <g class="cls-1">
    <path class="cls-2" d="M35.93,92.66c1.24,5.37.54,11.56,2.66,16.69,1.73,4.18,6.9,4.69,10.71,6.17,3.42,1.32,6.72,4.16,10.54,4.3,1.3.05,2.62-.66,3.77-1.14.77-.32,1.56-.83,2.37-.97s-1.47-.65.63.31c6.7,3.07,11.78-1.46,17.66-4.45,3.64-1.85,6.32-3.4,7.21-7.65,1.02-4.82,1.76-9.67,2.92-14.47.9-3.75-4.88-5.35-5.79-1.6s-1.95,7.67-2.56,11.53c-.25,1.56-.15,3.84-1.15,5.07s-3.41,1.73-4.76,2.49c-2.52,1.41-4.4,2.66-7.16,3.58-2.03.68-2.29.58-4.24-.08-.79-.26-1.48-.72-2.33-.79-2.2-.17-3.79,1.49-5.83,1.87-1.88.35,1.81.17-.86,0-2.13-.14-3.91-1.64-5.77-2.52-3.27-1.54-8.88-1.9-10.29-5.69-1.58-4.25-.92-9.73-1.95-14.22-.87-3.76-6.66-2.17-5.79,1.6h0Z"/>
  </g>
  <g class="cls-1">
    <path class="cls-2" d="M71.19,106.09c-1.21-.97-2.55-1.73-4.12-1.89-.41-.04-.77,0-1.18.04-.2.02-.42.05-.72.06-.75.04-1.5.05-2.25.18-.93.16-1.71.62-2.48,1.13s-1.97,1.23-1.9,2.31c.05.81.66,1.5,1.5,1.5.78,0,1.55-.69,1.5-1.5.01.24-.22.79-.34.87.04-.03.08-.09.12-.12s.08-.07.12-.11c.22-.21-.2.14-.05.03.27-.19.54-.39.82-.57.23-.15.45-.3.69-.43.19-.1.66-.22.86-.24.35-.04,1.02-.04,1.49-.07.3-.02.6-.05.9-.09,0,0,.57-.04.29-.03.13,0,.26,0,.39,0,.26.01-.31-.08.15.02.11.02.21.05.31.08.28.08.41.13.56.2.25.12.49.26.72.4.09.06.18.12.27.18,0,0,.37.28.2.15.63.51,1.5.62,2.12,0,.52-.52.64-1.61,0-2.12h0Z"/>
  </g>
</svg>