<?xml version="1.0" encoding="UTF-8"?>
<svg id="Layer_1" data-name="Layer 1" xmlns="http://www.w3.org/2000/svg" viewBox="0 0 128 128">
  <defs>
    <style>
      .cls-1 {
        opacity: .3;
      }

      .cls-2 {
        fill: #435054;
      }

      .cls-3 {
        fill: #edd674;
      }
    </style>
  </defs>
  <g>
    <path class="cls-3" d="M85.12,37.94c.72.22,35.18-1.69,35.68.35.52,2.14-24.88,30.9-24.37,34.4,1.8,12.39,11.78,46.21,11.31,46.56-.33.25-47.98-21.59-48.72-21.62-1.03-.04-43.16,23.41-44.01,21.48-.44-1,14.22-43.11,13.91-44.93-.21-1.24-24.46-40.52-22.78-41.4.66-.35,39.58,4.48,39.9,3.99,6.63-9.96,16.88-20.64,19.97-32.2,5.12,9.33,18.49,33.18,19.1,33.36Z"/>
    <path d="M84.72,39.38c.64.15,1.36.07,2,.05,1.31-.03,2.61-.08,3.92-.13,3.96-.14,7.93-.27,11.9-.37s8.13-.17,12.19-.05c1.38.04,2.76.09,4.13.26.1.01-.24-.04.07.01.12.02.24.04.36.06.18.04.36.09.54.13.36.08-.19-.18.03.01-.32-.28-.48-.68-.53-1.15-.04-.4.06.08-.06.12-.04.01.16-.34.04-.11-.05.1-.1.2-.15.29-.23.4-.47.79-.72,1.17-.79,1.2-1.64,2.35-2.51,3.49-2.41,3.21-4.92,6.34-7.41,9.49-2.71,3.43-5.42,6.86-8.02,10.36-1.77,2.38-3.73,4.83-5,7.53-.52,1.11-.62,1.92-.43,3.13.3,1.89.68,3.77,1.08,5.64,1.03,4.78,2.21,9.52,3.43,14.26,2.08,8.1,4.45,16.14,6.39,24.27.1.4.17.81.27,1.21s0,0,0,0c-.01.02.01.07,0,.09-.02.07.07-.37.05-.35.22-.2,1.41-1.43,1.8-1.03-.22-.23-.98-.37-1.27-.49-.25-.1.28.12.02,0-.09-.04-.19-.08-.28-.12-.22-.1-.45-.19-.67-.29-.54-.23-1.07-.47-1.61-.7-1.37-.6-2.74-1.21-4.1-1.82-7.43-3.31-14.85-6.67-22.27-10.02-5.68-2.56-11.33-5.18-17.06-7.62-.45-.19-.95-.47-1.43-.58-.75-.17-1.39.2-2.04.51-2.17,1.02-4.28,2.18-6.4,3.3-7.19,3.79-14.36,7.62-21.6,11.31-3.22,1.64-6.44,3.26-9.73,4.76-1.21.55-1.82.83-3.02,1.27-.37.13-.74.25-1.11.36-.13.04-.45.18-.2.05.2-.1.14.01,0,0-.25-.04.28.07.24.04.41.25.86.66.94,1.29-.04-.29-.1.43-.02.11.07-.28.13-.57.2-.85.27-1.05.59-2.09.91-3.13,1.04-3.37,2.13-6.73,3.23-10.08,2.57-7.87,5.21-15.72,7.67-23.62.66-2.11,1.44-4.27,1.83-6.45.27-1.51-.64-2.7-1.36-3.96-3.61-6.31-7.38-12.53-11.04-18.81-2.08-3.58-4.15-7.16-6.16-10.79-.79-1.43-1.57-2.87-2.32-4.32-.31-.6-.61-1.19-.9-1.8-.12-.24-.23-.48-.34-.72-.08-.16-.32-.71-.27-.61,0,0-.23-.65-.33-.91-.02-.06-.03-.12-.05-.18-.08-.23.05.02,0,.02.12,0-.03.25.01.05.05-.22-.1.39-.04.26-.23.47-.96,1.12-1.24,1,.07.03.23,0,.3,0,.35.03.71.04,1.06.07,2.94.24,5.87.58,8.8.9,8.02.88,16.03,1.83,24.06,2.64,1.25.13,2.51.25,3.76.35.66.05,1.47.2,2.12.01,1.05-.3,1.6-1.67,2.17-2.49.96-1.38,1.96-2.74,2.97-4.09,2.18-2.92,4.4-5.81,6.52-8.77,3.93-5.49,7.62-11.35,9.42-17.92l-2.74.36c5.6,10.2,11.22,20.42,17.19,30.41.56.94,1.38,2.97,2.45,3.49,1.73.83,3.26-1.76,1.51-2.59.17.08.37.37.29.25-.13-.19-.26-.38-.38-.57-.41-.64-.8-1.29-1.19-1.94-1.23-2.06-2.43-4.14-3.63-6.22-3.15-5.5-6.26-11.02-9.34-16.56-1.44-2.59-2.88-5.18-4.31-7.78-.63-1.14-2.41-.86-2.74.36-1.9,6.93-6.04,13.01-10.24,18.75-2.14,2.92-4.36,5.79-6.5,8.71-.52.7-1.03,1.41-1.53,2.12-.23.32-.45.65-.68.97-.11.16-.22.32-.33.48-.34.5-.66.57.32.13.1-.04.48.01.19-.04-.13-.02-.27,0-.4,0-2.58-.08-5.16-.44-7.72-.71-4.16-.44-8.31-.91-12.46-1.37s-8.02-.9-12.03-1.33c-2.22-.24-4.55-.67-6.79-.63-2.67.05-1.7,2.8-1.05,4.29,1.18,2.71,2.66,5.31,4.09,7.9,4.09,7.38,8.41,14.63,12.7,21.89,1.52,2.58,3.05,5.15,4.53,7.75.2.35.4.71.59,1.07.15.29.27.87.18.31-.01-.09-.02-.21,0-.33-.06.31-.13.63-.21.94-1.68,6.76-4.12,13.39-6.29,20-2.32,7.08-4.78,14.14-6.85,21.31-.42,1.47-1.37,4.26,1.16,4.33,1.91.05,4.09-1.26,5.75-2.01,7.22-3.26,14.22-7.03,21.22-10.72,5.58-2.94,11.1-6.06,16.79-8.78.12-.06.24-.11.36-.16-.31.13-.3.06-.08.04.16-.01-.92-.23-.5.04.19.12.47.19.68.28-.43-.18.01,0,.17.07.21.09.43.18.64.28,2.6,1.13,5.19,2.3,7.78,3.46,7.64,3.43,15.27,6.88,22.9,10.32,3.34,1.5,6.68,3,10.03,4.48,1.93.86,3.87,1.83,5.87,2.53.92.32,2,.19,2.31-.94.21-.76-.14-1.73-.32-2.47-.8-3.36-1.73-6.7-2.63-10.04-2.59-9.67-5.26-19.35-7.33-29.15-.21-.98-.41-1.96-.59-2.94-.15-.82-.18-1.75-.43-2.54.05.15.04.1,0,.23.05-.17.1-.34.16-.52.09-.25-.12.27,0,0,.05-.11.1-.23.16-.34.12-.24.24-.47.38-.7,1.67-2.96,3.8-5.68,5.85-8.37,5.05-6.64,10.46-13.01,15.34-19.77.91-1.25,3.31-3.86,2.27-5.57-.52-.85-1.6-1.06-2.5-1.19-1.44-.22-2.89-.29-4.34-.34-8.09-.28-16.2.11-24.28.39-1.34.05-2.69.1-4.03.13-.4.01-.8.02-1.2.02-.31,0-.79-.11-.18.04-1.88-.44-2.68,2.45-.8,2.89Z"/>
  </g>
  <path d="M82.62,61.42c1,.09,1.92-.72,2.17-1.66s-.18-1.81-.65-2.6c-.71-1.19-1.51-2.36-2.46-3.38-1.89-2.05-5.05-3.75-7.82-2.4-1.55.76-2.12,2.66-2.16,4.27-.05,1.79.92,3.53,2.69,4.08,1.26.39,2.58-.22,3.69-.79,1-.51,2.19-1.32,2.43-2.5.56-2.87-3.47-3.49-5.13-4.76-.64-.49-1.68-.1-2.05.54-.45.77-.11,1.56.54,2.05.54.42,1.21.68,1.82.98.34.16.68.33,1.01.51.18.09.35.19.52.3.12.07.52.39.23.13.04.03.34.24.33.31l-.14-.18c.06.1.05.08,0-.05l-.05-.12c.04.16.04.1-.02-.18,0-.02.09-.4.02-.18.11-.36.1-.22.02-.1-.1.16.27-.26.03-.05-.08.07-.15.14-.23.21-.19.18,0,0,.04-.03-.1.07-.19.13-.29.2-.14.09-.28.17-.42.25-.18.1-.36.19-.55.27-.07.03-.14.07-.22.1.35-.15-.03,0-.11.04-.14.05-.28.09-.41.14,0,0-.27.09-.1.04.2-.05-.32-.02.04.03-.09-.01-.19-.04-.27-.07.25.09-.02-.03-.09-.07-.17-.11.13.21-.08-.09-.2-.27,0,.17-.11-.16-.15-.44.02.13-.06-.16-.01-.04-.09-.38-.06-.18-.04-.25-.02-.52,0-.76.03-.3-.08.32.03-.19.02-.11.05-.22.07-.33.03-.13.07-.25.11-.37.02-.07.05-.15.08-.22-.04.1-.03.1.01,0,.03-.05.21-.31.08-.13.14-.19.11-.09.03-.04.04-.02.43-.18.17-.09.09-.03.19-.05.28-.08.3-.07.11-.02.04-.01.15-.01.3-.01.44,0,.1,0,.19.01.29.02.43.03-.26-.07.16.03.23.05.45.11.67.18.09.03.17.06.26.1-.26-.11.02.02.08.05.19.09.37.2.55.31.1.06.2.13.29.19.06.04.12.08.17.12-.12-.09-.1-.08.03.03.41.35.79.72,1.15,1.12.17.19.32.38.48.57.3.37-.08-.12.09.11.09.12.18.24.26.36.32.45.61.91.9,1.37.14.24.31.48.42.73-.07-.15.04.08.03.1-.04-.17-.02-.33.06-.47.16-.24.39-.38.67-.42-.78-.07-1.53.74-1.5,1.5.04.87.66,1.43,1.5,1.5h0Z"/>
  <path d="M47.96,52.64c-.69,1.46-.34,2.85.68,4.06.81.95,2.01,1.96,3.32,2,2.73.07,4.95-3.02,4.5-5.58-.22-1.26-1.14-2.4-2.25-3.01-1.35-.74-2.9-.8-4.38-.56-1.88.3-3.92.78-5.51,1.87-2,1.37-2.9,3.44-3.05,5.81-.05.81.73,1.5,1.5,1.5.85,0,1.45-.69,1.5-1.5.03-.54.13-1.11.38-1.78.06-.16,0,.02-.02.04.04-.08.08-.16.12-.24.06-.12.13-.23.2-.34.03-.05.07-.11.11-.16.12-.19-.15.17,0,0,.1-.11.19-.22.3-.33s.22-.2.33-.3c.12-.11-.04.02-.05.03.05-.04.1-.08.16-.11.26-.17.52-.33.79-.48.14-.07.29-.14.44-.21-.22.1.1-.04.17-.06.33-.12.66-.23,1-.32,1.31-.37,3.04-.91,4.36-.35.33.14.53.29.75.57.13.16.25.43.26.62.03.55-.43,1.21-.83,1.57-.12.11-.18.15-.39.26,0,0-.23.11-.12.05s-.27.16-.02.02c0,0-.23.07-.1.02.08-.04-.11-.04-.06-.01,0,0-.31-.21-.42-.3-.29-.23-.64-.54-.84-.82-.11-.15-.17-.28-.19-.35-.01-.03.02-.19-.03-.08.34-.73.21-1.62-.54-2.05-.65-.38-1.71-.2-2.05.54h0Z"/>
  <g class="cls-1">
    <path class="cls-2" d="M19.35,117.67c2.79-6.24,4.83-12.83,6.84-19.35,2.01-6.55,3.91-13.14,5.6-19.77.43-1.7.91-3.41,1.19-5.15.21-1.33-.38-2.31-1.02-3.45-2.97-5.28-6.29-10.37-9.5-15.51-4.2-6.73-8.49-13.43-12.43-20.32l-1.69,2.2c5.67,1.23,11.44,2.06,17.19,2.83s11.64,1.54,17.49,1.64c1.49.03,3.3.15,4.7-.47,1.13-.5,1.88-1.75,2.58-2.7,3.14-4.24,5.97-8.74,8.75-13.22,3.16-5.1,6.48-10.29,8.85-15.82l-2.74-.36c.91,5.3,3.54,10.39,6.02,15.1s5.32,9.49,8.29,14.03c.77,1.18,1.55,2.37,2.4,3.49.74.98,1.52,1.16,2.72,1.21,4.64.21,9.34-.12,13.99-.27,6.41-.22,12.82-.51,19.23-.54l-1.06-2.56c-4.65,4.13-8.4,9.46-12.09,14.42-3.62,4.88-7.17,9.84-10.46,14.95-.7,1.08-1.41,2.07-1.53,3.39-.18,1.91.19,3.91.48,5.79,1.02,6.69,2.65,13.31,4.38,19.85,1.88,7.08,3.84,14.29,6.79,21.01l2.05-2.05c-5.6-2.97-11.39-5.61-17.1-8.35-7.54-3.62-15.1-7.22-22.62-10.87-2.21-1.07-4.4-2.19-6.61-3.27-1.34-.66-2.33.24-3.47.89s-2.41,1.35-3.61,2.02c-6.96,3.84-13.97,7.59-20.99,11.34-4.89,2.61-9.78,5.21-14.68,7.81-1.71.9-.19,3.49,1.51,2.59,11.12-5.88,22.22-11.78,33.26-17.82,2.6-1.42,5.21-2.83,7.76-4.35h-1.51c5.39,2.85,10.96,5.39,16.46,8.03,7.53,3.61,15.07,7.21,22.59,10.86,2.51,1.22,5.04,2.42,7.51,3.73,1.41.75,2.64-.72,2.05-2.05-2.47-5.63-4.13-11.68-5.76-17.59-1.82-6.63-3.49-13.34-4.7-20.11-.38-2.12-.75-4.18-.81-6.33,0-.32,0-.65.02-.97.02-.41.04.02,0-.08-.04-.1.26-.64-.05,0,.2-.42.46-.81.7-1.2,2.9-4.63,6.11-9.1,9.33-13.51,2.3-3.15,4.64-6.27,7.1-9.29,1.9-2.34,3.86-4.7,6.12-6.7.99-.88.19-2.57-1.06-2.56-10.51.05-21,.85-31.51.84-.68,0-1.36-.01-2.04-.05-.11,0-.21-.02-.32-.03-.31-.02.25.12.09.01-.35-.24.63.38.39.24-.27-.15-.06-.07-.05-.06-.15-.21-.3-.41-.45-.62-.43-.61-.85-1.23-1.26-1.85-2.81-4.22-5.43-8.57-7.86-13.02-2.76-5.06-5.76-10.54-6.74-16.29-.21-1.21-2.24-1.52-2.74-.36-1.99,4.66-4.72,9.05-7.35,13.37-2.85,4.69-5.8,9.34-8.95,13.85-.92,1.31-1.64,2.16-2.49,3.29-.17.23-.05.05-.05.06-.02-.12.18-.11.08-.06,0,0-.11.06-.11.06,0-.08.38-.1.03-.03-.15.03-.29.07-.44.1-.25.05.25-.02-.14.02-.16.02-.32.03-.49.04-.44.03-.88.04-1.32.05-5.34.05-10.73-.65-16.02-1.32-6.33-.79-12.68-1.71-18.92-3.05-1.26-.27-2.37,1.03-1.69,2.2,6.62,11.6,14.16,22.65,20.96,34.15.46.77.91,1.54,1.33,2.33.13.25.26.49.38.75.07.15-.04-.36-.03-.06.02.32,0-.42-.01-.2-.02.42.09-.36,0,.09-.06.31-.12.62-.18.93-.19.88-.4,1.75-.61,2.62-1.54,6.24-3.31,12.43-5.16,18.59-2.15,7.17-4.29,14.48-7.35,21.32-.78,1.75,1.8,3.27,2.59,1.51Z"/>
  </g>
  <path d="M49.08,96.27c-8.09,5.78-17.44,9.33-26.02,14.26-1.25.72-.12,2.67,1.14,1.94,8.58-4.93,17.93-8.48,26.02-14.26,1.17-.83.05-2.79-1.14-1.94h0Z"/>
  <path d="M31.15,79.8c-1.37,5.35-3.04,10.62-5.01,15.78-.52,1.35,1.66,1.94,2.17.6,1.97-5.16,3.65-10.43,5.01-15.78.36-1.4-1.81-2-2.17-.6h0Z"/>
  <path d="M24.55,102.17c-.58.9-1.02,1.89-1.32,2.92-.08.28-.03.62.11.87.14.23.4.46.67.52.6.14,1.21-.18,1.38-.79.11-.38.24-.76.4-1.13l-.11.27c.23-.53.49-1.04.81-1.52s.12-1.26-.4-1.54c-.56-.3-1.2-.12-1.54.4h0Z"/>
  <path d="M91.35,78.45c1.21,9.28,3.29,18.4,6.3,27.26.46,1.36,2.64.78,2.17-.6-2.94-8.66-5.04-17.59-6.22-26.66-.18-1.42-2.44-1.43-2.25,0h0Z"/>
  <path d="M98.77,109.79c-3.33-1.77-6.79-3.29-10.17-4.96-1.5-.74-2.94-1.5-4.51-2.07s-3.37-1.08-4.82-2.06c-1.21-.81-2.33,1.14-1.14,1.94,1.42.95,3.1,1.47,4.69,2.04s3.1,1.33,4.65,2.09c3.38,1.67,6.84,3.19,10.17,4.96,1.28.68,2.42-1.26,1.14-1.94h0Z"/>
  <path d="M73.81,96.44c-.84-.2-1.67-.45-2.47-.76-.1-.04-.19-.08-.29-.11-.05-.02-.36-.14-.1-.04-.19-.07-.38-.17-.57-.26-.4-.19-.8-.39-1.19-.61-.51-.29-1.25-.14-1.54.4s-.15,1.23.4,1.54c1.62.9,3.36,1.58,5.16,2.01.57.13,1.25-.18,1.38-.79s-.17-1.24-.79-1.38h0Z"/>
  <path d="M108.21,44.89c-2.8,2.51-3.95,6.31-6.83,8.63-.47.38-.4,1.19,0,1.59.47.47,1.12.38,1.59,0,2.93-2.37,4.1-6.19,6.83-8.63.45-.41.41-1.18,0-1.59-.45-.45-1.14-.41-1.59,0h0Z"/>
  <path d="M96.47,59.66c-1.79,2.14-3.58,4.28-5.37,6.42-.38.45-.47,1.16,0,1.59.42.38,1.19.48,1.59,0,1.79-2.14,3.58-4.28,5.37-6.42.38-.45.47-1.16,0-1.59-.42-.38-1.19-.48-1.59,0h0Z"/>
  <path d="M103.13,41.68c.25-.03-.23.02-.27.03-.19.02-.38.04-.56.05-.39.03-.77.06-1.16.09-.91.06-1.83.11-2.74.16-1.03.05-2.06.09-3.09.07-1.35-.03-2.72.1-4.06.19-1.16.08-2.43.05-3.56.32-1.41.34-.81,2.51.6,2.17.08-.02.29-.04-.08,0,.1-.01.21-.02.31-.04.26-.03.52-.05.78-.07.76-.06,1.52-.11,2.28-.16,1.28-.08,2.57-.2,3.85-.17,2.74.06,5.58-.11,8.3-.48.61-.08.93-.85.79-1.38-.17-.65-.78-.87-1.38-.79h0Z"/>
  <path d="M66.48,18.19c2.12,8.68,6.97,16.27,11.78,23.67.79,1.21,2.74.08,1.94-1.14-4.71-7.24-9.48-14.64-11.56-23.14-.34-1.41-2.51-.81-2.17.6h0Z"/>
  <path d="M63.09,17.3c-.65,1.49-1.66,2.81-2.45,4.23-.32.58-.57,1.17-.76,1.8-.09.29-.18.58-.29.86.1-.28-.07.1-.11.19-.07.18.17-.18.03-.05.15-.14.36-.24.56-.24-.59-.01-1.15.53-1.12,1.12s.49,1.11,1.12,1.12c1,.03,1.47-.95,1.75-1.75.11-.32.2-.64.3-.96,0-.02.11-.34.11-.34,0,0-.13.28.02-.02.04-.09.08-.17.13-.26.81-1.57,1.93-2.97,2.64-4.59.24-.56.16-1.21-.4-1.54-.48-.28-1.29-.16-1.54.4h0Z"/>
  <path d="M56.52,28.86c-3.02,3.61-5.76,7.44-8.19,11.47-.75,1.24,1.19,2.38,1.94,1.14,2.33-3.86,4.95-7.55,7.84-11.01.39-.47.46-1.13,0-1.59-.4-.4-1.2-.47-1.59,0h0Z"/>
  <path d="M42.79,40.18c-2.51.43-5.09.14-7.59-.22s-5.01-.75-7.55-.87c-1.45-.07-1.44,2.18,0,2.25,5.25.25,10.48,1.91,15.74,1.01,1.42-.24.82-2.41-.6-2.17h0Z"/>
  <path d="M21.32,38.71c-.09,0-.26-.05.04.02-.08-.02-.15-.03-.23-.05-.15-.04-.3-.08-.44-.13-.4-.14-.8-.3-1.19-.46-.89-.37-1.89-.82-2.86-1.16-1.52-.54-4.13-1.13-4.66,1.05-.09.38-.01.82.29,1.09,1.56,1.41,2.68,3.36,3.85,5.16s2.27,3.59,3.36,5.43c.69,1.17,1.24,2.61,2.71,2.95s2.01-1.85.6-2.17c-.62-.14-.91-1.13-1.2-1.63-.17-.29-.34-.57-.51-.86-.69-1.16-1.4-2.32-2.13-3.46-.86-1.36-1.74-2.72-2.67-4.03-.73-1.03-1.48-2.12-2.42-2.98l.29,1.09c.06-.23,0-.07-.05.03-.04.08-.1.16-.03.03.02-.04-.19.04-.03.02.21-.03-.17,0-.02,0,.08,0,.15,0,.22,0,.06,0,.13,0,.19.01.32.02-.22-.05.12.02.82.16,1.61.46,2.39.76,1.34.54,2.86,1.49,4.38,1.53s1.45-2.21,0-2.25h0Z"/>
  <path d="M29.56,67.59c-.29.91,0,1.99.7,2.64.45.41,1.07.55,1.64.31.5-.21.98-.79.92-1.37-.17-1.64-1.14-2.94-2.04-4.26-.39-.57-.76-1.15-1.05-1.78-.03-.06-.15-.34-.02-.04-.03-.08-.06-.15-.09-.23-.1-.23-.19-.47-.29-.7-.15-.34-.31-.67-.51-.98-.43-.66-1.35-.99-2.05-.54-.66.42-1,1.35-.54,2.05.18.28.32.57.46.87-.15-.34.06.15.09.21.1.23.19.47.3.7.27.61.61,1.19.99,1.74s.77,1.1,1.12,1.67c.18.28.34.58.49.88.04.07.07.15.1.22-.07-.17-.08-.17-.02-.01.02.08.11.59.07.2l2.56-1.06c-.14-.13-.01,0,.04.08-.15-.22.06.21.01.04-.05-.2.03.3.02.1,0-.17-.09.35,0,.06.24-.75-.28-1.67-1.05-1.85-.82-.19-1.59.25-1.85,1.05h0Z"/>
  <g class="cls-1">
    <path class="cls-2" d="M44.64,53.58c-.17,2.65,1.3,5.25,3.38,6.8.5.37,1.05.73,1.68.83.72.13,1.45.07,2.15-.17,1.27-.44,2.41-1.2,3.57-1.86.68-.39.97-1.38.54-2.05s-1.32-.95-2.05-.54c-.92.52-1.83,1.15-2.8,1.55.19-.08-.03,0-.12.03-.11.04-.23.06-.34.1-.26.08.08.02-.08.02-.11,0-.22,0-.33,0,.29.03-.08-.04.06,0,.15.05-.17-.1-.18-.11-.2-.12-.39-.25-.57-.39.12.1.05.04-.03-.03-.11-.09-.21-.19-.32-.29-.17-.16-.33-.34-.48-.52-.07-.08-.1-.15-.02-.03-.07-.11-.15-.22-.22-.34-.11-.18-.21-.38-.3-.57-.05-.11-.11-.22-.16-.33.09.22-.03-.08-.04-.12-.08-.23-.16-.47-.22-.71-.03-.12-.05-.24-.08-.36-.06-.27-.01.05-.02-.11,0-.27-.02-.53,0-.8.05-.78-.73-1.53-1.5-1.5-.86.04-1.45.66-1.5,1.5h0Z"/>
  </g>
  <g class="cls-1">
    <path class="cls-2" d="M70.82,58.78c.21,1.07,1.01,2.01,1.96,2.53,1,.55,2.14.7,3.27.79s2.18-.05,3.2-.51c.93-.42,1.69-1.16,2.25-2.01.43-.66.15-1.69-.54-2.05-.75-.4-1.59-.16-2.05.54-.04.07-.09.13-.14.2.07-.11.12-.14,0-.02s-.22.23-.34.34-.08.06.02,0c-.07.05-.13.09-.2.14-.14.09-.28.16-.42.23-.15.08-.09.02.03-.01-.08.02-.15.05-.23.08-.16.05-.33.09-.49.11.16-.02.09-.01-.03,0-.1,0-.19,0-.29.01-.22,0-.43,0-.65-.02-.19-.01-.38-.03-.57-.05-.03,0-.31-.03-.15-.01s-.12-.02-.15-.03c-.19-.03-.37-.07-.55-.12-.09-.02-.18-.06-.27-.08-.21-.04.16.09-.03,0-.15-.08-.28-.16-.42-.24-.17-.1.15.16.02.01-.05-.05-.11-.12-.17-.17-.15-.11.1.18.01.03-.04-.06-.08-.14-.12-.2-.11-.14.05.21.01.04-.02-.1-.05-.19-.07-.29-.15-.77-1.11-1.28-1.85-1.05-.82.27-1.21,1.02-1.05,1.85h0Z"/>
  </g>
  <g class="cls-1">
    <path class="cls-2" d="M54.56,84.98c.04,1.89,1.79,2.48,3.36,2.74,1.75.29,3.52.56,5.3.47s3.44-.5,4.97-1.35c1.61-.89,3.35-2.5,1.9-4.35-.5-.64-1.6-.52-2.12,0-.63.63-.5,1.48,0,2.12l.1.13-.39-.66c-.23-.8.31-.57-.11-.4-.21.09-.42.29-.62.41-.41.25-.83.46-1.27.62-.99.35-2.01.49-3.05.5s-2.14-.1-3.19-.26c-.53-.08-1.06-.15-1.58-.26-.11-.02-.21-.05-.31-.08-.18-.06-.21-.07-.09-.03-.16-.1-.18-.11-.07-.02.11.12.17.26.18.43-.04-1.93-3.04-1.93-3,0h0Z"/>
  </g>
  <path d="M52.97,81.97c2,2.58,5.18,4.08,8.41,4.27,3.8.22,6.93-1.76,9.78-4.05.63-.51.53-1.59,0-2.12-.62-.62-1.49-.51-2.12,0-2.24,1.8-4.68,3.34-7.66,3.17-2.49-.15-4.77-1.43-6.29-3.39-.5-.64-1.6-.52-2.12,0-.63.63-.5,1.48,0,2.12h0Z"/>
</svg>