<?xml version="1.0" encoding="UTF-8"?>
<svg id="Layer_6" data-name="Layer 6" xmlns="http://www.w3.org/2000/svg" viewBox="0 0 256 256">
  <defs>
    <style>
      .cls-1 {
        opacity: .3;
      }

      .cls-2 {
        fill: #435054;
      }
    </style>
  </defs>
  <g class="cls-1">
    <path class="cls-2" d="M151.95,181.86c-3.66,3.12-8.52,3.66-13.12,3.1s-9.59.33-14.3-.46c-3.47-.58-7.08-1.37-10.42-2.48-1.98-.66-10.47-4.15-6.06-6.64,3.36-1.9.34-7.08-3.03-5.18-4.31,2.43-5.68,6.76-2.85,10.92,3.41,5.01,10,6.81,15.57,8.06,2.86.64,5.8,1.43,8.73,1.6,4.18.23,8.18-.24,12.39.22,6.29.69,12.46-.74,17.34-4.89,2.95-2.5-1.32-6.73-4.24-4.24h0Z"/>
    <path class="cls-2" d="M98.38,193.28c1.39.68,2.42,2.38,3.61,3.64,1.64,1.72,3.64,2.78,6.05,2.82,3.86.05,3.86-5.95,0-6-.53,0-.78-.12-1.16-.43-.62-.49-1.12-1.16-1.62-1.76-1.12-1.34-2.26-2.68-3.86-3.46-1.46-.71-3.24-.4-4.1,1.08-.77,1.32-.39,3.39,1.08,4.1h0Z"/>
    <path class="cls-2" d="M124.38,199.63c3.36-.96,7-2.87,10.28-.6s6.19-3,3.03-5.18c-2.21-1.53-4.69-2.01-7.36-1.83s-4.95,1.09-7.54,1.83c-3.7,1.06-2.13,6.85,1.6,5.79h0Z"/>
    <path class="cls-2" d="M151.95,185.49c.56.87-.44,2.05-.9,2.86-.77,1.34-1.64,2.71-1.95,4.25-.76,3.77,5.02,5.38,5.79,1.6.36-1.78,1.73-3.31,2.45-4.96.98-2.25,1.17-4.63-.2-6.77-2.07-3.25-7.27-.24-5.18,3.03h0Z"/>
  </g>
  <path d="M149.07,181.73c.05-.25.34-.51.47-.7.23-.34.05.05,0-.03,0,0-.14.05-.05.02-.41.14-.82.29-1.23.43-1.01.33-2.03.62-3.06.9s-1.98.54-2.99.76c-.33.07-.76.08-1.07.21.26-.11.15.06.03-.01.04.02.73.29.65.27.85.33.08-.13-.18-.32-.64-.45-1.42-.47-2.18-.54-1.12-.1-2.25-.15-3.38-.17-2.26-.04-4.52.04-6.77.08-3.85.06-7.72,0-11.44-1.09s-7.08-3.14-9.35-6.3l-2.05,2.05c.55.39,1.09.77,1.64,1.16,1.58,1.12,3.08-1.48,1.51-2.59-.55-.39-1.09-.77-1.64-1.16-1.2-.85-2.92.85-2.05,2.05,4.91,6.81,12.95,8.83,20.97,8.89,2.5.02,5-.09,7.5-.1,1.21,0,2.42.01,3.62.07.49.03,1.24.25,1.69.12.26-.07.63.3.02-.2.16.13.23.31.4.44.73.56,1.71.28,2.53.11,1.08-.23,2.15-.51,3.22-.8,1.25-.34,2.5-.7,3.73-1.12.82-.28,2.15-.61,2.35-1.63.37-1.89-2.52-2.69-2.89-.8h0Z"/>
  <path d="M103.76,168.81c-2.26,2.19-4.45,4.64-4.82,7.91-.31,2.69.76,5.84,3.48,6.82.76.28,1.64-.31,1.85-1.05.23-.83-.28-1.57-1.05-1.85.2.07.02.02-.08-.04s-.2-.11-.29-.18c.13.1.06.05-.01-.03-.08-.09-.16-.17-.24-.26-.09-.11.07.12-.06-.1-.06-.11-.12-.21-.19-.32-.02-.03-.16-.32-.07-.13-.04-.09-.07-.19-.11-.29-.18-.53-.25-.96-.27-1.35-.01-.25-.01-.49,0-.74,0-.14.01-.27.03-.41-.02.2.02-.1.03-.16.49-2.36,2.25-4.09,3.92-5.7,1.39-1.35-.73-3.47-2.12-2.12h0Z"/>
  <path d="M156.69,183.15c.13.65.18,1.06.18,1.8,0,.3-.02.6-.05.9.03-.27,0,0-.02.11s-.05.24-.08.36c-.06.23-.13.46-.21.68-.02.06-.18.41-.02.07-.05.1-.09.2-.14.3-.2.41-.44.79-.69,1.16-.12.18-.25.35-.38.52-.2.27.05-.06-.02.03s-.15.19-.23.29c-.32.41-.64.81-.95,1.23-.61.82-1.09,1.67-1.45,2.62-.29.76.32,1.65,1.05,1.85.85.23,1.55-.29,1.85-1.05.03-.07.05-.14.08-.21-.07.17-.08.2-.04.1.07-.11.11-.24.17-.35.1-.19.21-.38.33-.57.12-.2.25-.39.39-.58.07-.1.15-.2.22-.3.05-.07.26-.34.02-.03.61-.79,1.26-1.55,1.8-2.39,1.43-2.24,1.6-4.78,1.1-7.35-.15-.8-1.11-1.25-1.85-1.05-.83.23-1.2,1.05-1.05,1.85h0Z"/>
  <path d="M97.23,192.86c.37.3.73.62,1.05.98.12.13.25.27.36.42.05.06.12.2.19.23-.16-.21-.19-.25-.1-.13.03.04.06.08.09.12.48.65.93,1.32,1.45,1.93,1.49,1.75,3.71,2.63,5.86,3.24.75.21,1.67-.26,1.85-1.05s-.24-1.62-1.05-1.85c-.67-.19-1.33-.41-1.97-.66-.16-.07-.15-.06.03.01-.07-.03-.14-.06-.21-.09-.13-.06-.26-.12-.39-.19-.2-.1-.41-.21-.6-.33-.18-.11-.35-.22-.52-.34-.33-.24.17.15-.02-.01-.08-.07-.16-.13-.24-.2-.26-.23-.5-.49-.72-.76-.05-.06-.09-.13-.15-.19.33.32.12.15.03.03-.09-.13-.19-.26-.28-.39-.2-.29-.41-.57-.62-.85-.57-.76-1.19-1.45-1.93-2.04-.61-.49-1.53-.64-2.12,0-.5.55-.65,1.6,0,2.12h0Z"/>
  <path d="M137.4,195.66c1.42-.74.94-2.51-.29-3.09-1.34-.64-2.92-.81-4.37-1.01-1.14-.16-2.21-.24-3.36-.15-.79.06-1.58.15-2.35.33-1.35.32-2.65.88-3.98,1.27-1.85.54-1.06,3.44.8,2.89,1.15-.34,2.26-.77,3.4-1.11.43-.13.86-.22,1.3-.29.33-.05-.16,0,.17-.02.16-.01.33-.03.49-.05.4-.03.81-.06,1.21-.08,1.42-.07,2.98.28,4.36.61.23.06.46.11.69.18.15.05.69.29.2.05.31.15.12.07,0-.05-.33-.35-.31-.62-.25-1.1-.05-.45.13-.79.54-1.01-.02.01-.04.03-.07.04-1.71.89-.2,3.48,1.51,2.59h0Z"/>
</svg>