<?xml version="1.0" encoding="UTF-8"?>
<svg xmlns="http://www.w3.org/2000/svg" viewBox="0 0 256 256">
  <defs>
    <style>
      .cls-1 {
        isolation: isolate;
      }

      .cls-2 {
        mix-blend-mode: multiply;
      }

      .cls-3 {
        opacity: .3;
      }

      .cls-4 {
        fill: #435054;
      }
    </style>
  </defs>
  <g class="cls-1">
    <g id="Layer_7" data-name="Layer 7">
      <g class="cls-3">
        <path class="cls-4" d="M110.08,214.1c4.14,3.21,8.64,6.53,13.99,7.15,6.23.72,13.53-2.58,17.42-7.4,2.4-2.98-1.82-7.25-4.24-4.24-3.26,4.04-9.38,6.78-14.53,5.27-3-.88-5.96-3.13-8.4-5.02-3.01-2.34-7.29,1.88-4.24,4.24h0Z"/>
        <path class="cls-4" d="M147.57,179.96c-3.19,1.33-6.01,2.77-9.38,3.64-3.88,1-8.02,3.13-12.08,2.71-5.79-.59-12.07-3.07-17.33-5.5-3.48-1.61-6.53,3.56-3.03,5.18,6.14,2.83,12.99,5.41,19.73,6.23,3.88.47,7.1-.84,10.8-1.94,4.57-1.35,8.51-2.72,12.88-4.54,3.51-1.47,1.97-7.27-1.6-5.79h0Z"/>
        <path class="cls-4" d="M149.06,180.16c.36.27.7.58,1.01.91.08.09.4.53.45.64-.09-.22.22,1.01.2.89.03.22.05,1.24.05,1.74.03,3.86,6.03,3.87,6,0-.01-1.86-.14-3.73-.97-5.43s-2.25-2.84-3.72-3.94c-1.3-.97-3.35-.21-4.1,1.08-.9,1.53-.23,3.13,1.08,4.1h0Z"/>
        <path class="cls-4" d="M96.78,175.45c-.6.7-1.25,1.41-1.73,2.19-.19.31-.33.69-.45,1.01-.21.52.33-.34.09-.21-.2.11-.62,1.38-.65,1.47-.19.49-.32.96-.4,1.48-.27,1.62.09,3,.77,4.47s2.8,1.84,4.1,1.08c1.51-.88,1.76-2.63,1.08-4.1-.3-.64.44-1.7.7-2.35.17-.44-.16.39-.17.39.01,0,.12-.27.15-.26.04,0,.28-.37-.02,0,.25-.32.51-.62.77-.92,1.05-1.23,1.21-3.03,0-4.24-1.08-1.08-3.19-1.24-4.24,0h0Z"/>
      </g>
      <g class="cls-2">
        <path d="M147.97,179.31c-1.16.45-2.57.56-3.78.81-2.28.47-4.56.93-6.83,1.4-1.28.26-2.65.42-3.9.83-2.04.67-3.85,1.46-6.03,1.66s-4.31.06-6.42-.29c-4.96-.82-9.72-2.57-14.51-4.05-1.85-.57-2.64,2.33-.8,2.89,8.26,2.55,17.29,6.27,26.01,3.65,1.03-.31,1.97-.83,3.01-1.09.72-.18,1.45-.31,2.18-.46,2.32-.48,4.63-.95,6.95-1.42,1.58-.32,3.42-.46,4.93-1.05,1.78-.69,1.01-3.59-.8-2.89h0Z"/>
      </g>
      <g class="cls-2">
        <path d="M151.46,177.63c-.42-.18.06.04.16.09.14.07.27.15.41.24.08.05.16.11.23.16.16.11-.02-.01-.08-.06.11.11.24.2.36.31.23.21.44.45.65.69.21.26-.19-.28,0,0,.04.05.07.1.11.16.1.14.19.29.27.44.08.14.15.28.22.42.03.07.06.15.1.22-.07-.12-.11-.26-.03-.05.11.3.2.6.27.91.02.08.03.15.05.23.01.06.07.33.02.08s0,.02,0,.08c0,.08.01.16.01.24,0,.16,0,.31,0,.47,0,.12-.07.7,0,.21-.06.42-.07.78.15,1.16.18.31.54.61.9.69.71.16,1.73-.22,1.85-1.05.25-1.79-.04-3.54-.93-5.12s-2.25-2.7-3.9-3.4c-.33-.14-.86-.02-1.16.15-.31.18-.61.54-.69.9-.09.38-.07.81.15,1.16s.51.53.9.69h0Z"/>
      </g>
      <g class="cls-2">
        <path d="M98.12,174.48c-1.67.65-2.95,2.02-3.79,3.58-1.02,1.91-1.38,4.06-.97,6.19.15.77,1.12,1.28,1.85,1.05.83-.27,1.2-1.02,1.05-1.85,0-.04-.07-.4-.04-.2s-.02-.2-.02-.19c-.02-.2-.02-.39-.02-.59s.01-.39.03-.58c0,0,.05-.39.02-.18s.03-.14.03-.18c.07-.39.18-.77.31-1.15.03-.1.07-.19.11-.29.06-.15.05-.1,0,.02.09-.18.17-.36.26-.54.16-.31.35-.61.55-.89,0,0,.22-.3.08-.12s.06-.07.09-.1c.1-.12.21-.24.32-.35.12-.12.24-.24.37-.35.02-.02.18-.16.19-.16,0,0-.28.19-.08.06.13-.08.25-.17.38-.24.05-.03.1-.05.15-.08.26-.15-.33.13-.06.02.73-.28,1.31-1.02,1.05-1.85-.23-.71-1.06-1.35-1.85-1.05h0Z"/>
      </g>
      <g class="cls-2">
        <path d="M138.08,208.38c-.83,1.23-1.73,2.4-2.93,3.33-1.71,1.32-3.81,1.99-5.92,2.33-2.81.45-6.03.54-8.77-.36s-5.09-3.16-7.2-5.17c-1.4-1.33-3.52.78-2.12,2.12,2.44,2.33,4.99,4.69,8.23,5.84s6.99,1.01,10.32.51c4.79-.72,8.3-3.13,10.98-7.08,1.09-1.6-1.51-3.11-2.59-1.51h0Z"/>
      </g>
    </g>
  </g>
</svg>