<?xml version="1.0" encoding="UTF-8"?>
<svg xmlns="http://www.w3.org/2000/svg" viewBox="0 0 256 256">
  <defs>
    <style>
      .cls-1 {
        isolation: isolate;
      }

      .cls-2 {
        mix-blend-mode: multiply;
      }

      .cls-3 {
        opacity: .3;
      }

      .cls-4 {
        fill: #435054;
      }
    </style>
  </defs>
  <g class="cls-1">
    <g id="Layer_17" data-name="Layer 17">
      <g class="cls-3">
        <path class="cls-4" d="M136.11,194.61c-5.16-1-9.53-1.69-14.73-.61-3.78.78-2.18,6.57,1.6,5.79,4.09-.85,7.48-.18,11.54.61,3.77.73,5.39-5.05,1.6-5.79h0Z"/>
      </g>
      <g class="cls-3">
        <path class="cls-4" d="M146.63,184.16c2,1.56,2.94,3.8,2.22,6.29-1.07,3.72,4.72,5.3,5.79,1.6,1.25-4.35-.15-9.31-3.76-12.13-1.28-1-3-1.24-4.24,0-1.04,1.04-1.29,3.24,0,4.24h0Z"/>
      </g>
      <g class="cls-3">
        <path class="cls-4" d="M101.39,179.48c-2.52,2.96-3,6.73-1.34,10.23.69,1.46,2.79,1.84,4.1,1.08,1.5-.88,1.77-2.64,1.08-4.1-.4-.85-.27-2.18.4-2.96,1.05-1.23,1.21-3.03,0-4.24-1.08-1.08-3.19-1.24-4.24,0h0Z"/>
      </g>
      <g class="cls-2">
        <path d="M151.23,182.85c.16.07.31.15.46.24l.07.05c.13.09.09.07-.1-.08.02.05.12.11.16.15.07.06.27.35.34.36-.09-.01-.18-.26-.01,0,.05.08.11.16.16.24.09.15.18.31.26.48.04.08.07.15.11.23.14.29-.09-.26,0,.02.14.39.27.78.37,1.18s.16.79.23,1.19c.02.13-.03-.31,0,.04,0,.09.02.18.03.27.02.22.04.43.05.65.02.38.02.76.01,1.15,0,.19-.02.39-.03.58,0,.09-.02.18-.03.28-.03.29.05-.35,0-.05-.11.77.19,1.65,1.05,1.85.71.16,1.73-.22,1.85-1.05.28-1.93.19-3.92-.3-5.82-.45-1.76-1.4-3.79-3.18-4.55-.72-.31-1.64-.24-2.05.54-.34.65-.23,1.72.54,2.05h0Z"/>
      </g>
      <g class="cls-2">
        <path d="M102,178.25c-2.14,1.32-3.42,3.4-3.46,5.93-.03,1.72.53,3.33.87,4.99.16.77,1.11,1.29,1.85,1.05.81-.26,1.22-1.02,1.05-1.85-.13-.62-.31-1.23-.46-1.84-.09-.37-.17-.74-.23-1.11-.01-.08,0-.21-.04-.29.14.31.02.17,0,0-.02-.22-.04-.43-.04-.65,0-.2,0-.4.01-.61,0-.1.02-.2.03-.3,0-.13-.07.34,0,0,.04-.2.08-.4.14-.6.03-.1.08-.2.1-.3.02-.11-.14.26.01-.03.1-.2.2-.39.32-.57.02-.04.25-.33.12-.17s.12-.13.15-.16c.17-.19.35-.35.55-.52.08-.07.07-.06-.04.03.05-.04.11-.08.17-.12.14-.1.28-.19.42-.27.67-.41.98-1.36.54-2.05s-1.34-.98-2.05-.54h0Z"/>
      </g>
      <g class="cls-2">
        <path d="M150.16,185.92c-14.53-3.74-29.45-3.71-44.29-2.23-1.9.19-1.92,3.19,0,3,14.57-1.45,29.22-1.54,43.5,2.13,1.87.48,2.67-2.41.8-2.89h0Z"/>
      </g>
      <g class="cls-2">
        <path d="M133.18,192.85c-3-.51-6.03-.73-9.07-.6-.78.03-1.54.67-1.5,1.5.04.78.66,1.53,1.5,1.5,1.42-.06,2.85-.05,4.27.04s2.65.23,4.01.46c.77.13,1.65-.2,1.85-1.05.17-.73-.22-1.71-1.05-1.85h0Z"/>
      </g>
    </g>
  </g>
</svg>