<?xml version="1.0" encoding="UTF-8"?>
<svg xmlns="http://www.w3.org/2000/svg" viewBox="0 0 256 256">
  <defs>
    <style>
      .cls-1 {
        isolation: isolate;
      }

      .cls-2 {
        mix-blend-mode: multiply;
      }

      .cls-3 {
        opacity: .3;
      }

      .cls-4 {
        fill: #435054;
      }
    </style>
  </defs>
  <g class="cls-1">
    <g id="Layer_18" data-name="Layer 18">
      <g class="cls-3">
        <path class="cls-4" d="M91.61,192.54c1.28,1.16,2.08,2.71,3.18,4.03,1.25,1.51,2.91,2.46,4.58,3.42,3.35,1.93,6.38-3.26,3.03-5.18-1.28-.74-2.5-1.37-3.42-2.56-1.03-1.34-1.85-2.81-3.13-3.95-2.86-2.58-7.12,1.65-4.24,4.24h0Z"/>
        <path class="cls-4" d="M122.46,195.97c3.5-1.24,9.75-2.24,12.88.39,2.93,2.47,7.2-1.75,4.24-4.24-4.92-4.15-12.9-4-18.71-1.94-3.61,1.28-2.06,7.08,1.6,5.79h0Z"/>
        <path class="cls-4" d="M102.15,172.32c-.76,2.12-1.8,4.15-1.77,6.46.04,2.97,1.89,5.05,4.16,6.72,1.31.97,3.33.21,4.1-1.08.91-1.51.22-3.15-1.08-4.1-2.31-1.7-.4-4.26.37-6.4,1.31-3.64-4.49-5.21-5.79-1.6h0Z"/>
        <path class="cls-4" d="M108.73,184.86c2.78-1.19,6.56-2.34,9.6-1.99,2.62.3,4.82,1.8,7.54,1.95,2.99.16,5.79-.87,8.74-1.07,3.99-.28,6.39,1.97,9.28,4.41s7.2-1.74,4.24-4.24c-2.54-2.15-5.37-4.79-8.63-5.78-4.12-1.25-8.06.54-12.16.69-3.67.13-6.74-2.15-10.49-1.99s-7.65,1.33-11.16,2.84-.49,6.69,3.03,5.18h0Z"/>
        <path class="cls-4" d="M153.63,186.76c.84,2.44.2,4.74-1.76,6.42-2.93,2.53,1.33,6.75,4.24,4.24,3.44-2.97,4.77-7.97,3.3-12.26-1.25-3.63-7.04-2.07-5.79,1.6h0Z"/>
      </g>
      <g class="cls-2">
        <path d="M109.71,179.75c0,.07-.35,1.1-.48,1.02.02,0,.16-.12.18-.12.16-.03.42-.25.56-.32.49-.27.98-.52,1.48-.76.86-.42,1.73-.88,2.62-1.23,1.92-.75,4.81-.72,6.98-.34,2.32.41,4.28,1.7,6.65,2.01,1.78.23,3.38.13,5.1-.38,1.46-.44,3.14-1.28,4.7-1.07,1.64.22,3.4,1.56,4.74,2.47,1.64,1.12,3.19,2.4,4.44,3.95l2.12-2.12c.13.69.22.8.28.33.04-.15.08-.31.13-.46.12-.45.21-.9.28-1.36.3-1.89-2.59-2.7-2.89-.8-.22,1.39-1.2,3.25.08,4.41,1.46,1.32,3.31-.64,2.12-2.12-2.31-2.89-5.76-5.25-9.13-6.72-3.79-1.65-7.02,1.26-10.79.99-2.76-.2-5.02-1.75-7.74-2.13s-5.94-.41-8.54.73c-1.13.49-2.24,1.02-3.33,1.58s-2.38,1.09-2.55,2.44c-.24,1.91,2.76,1.89,3,0h0Z"/>
      </g>
      <g class="cls-2">
        <path d="M102.65,170.14c-1.24,1.22-2.27,2.69-3.08,4.22-.77,1.44-1.63,3.17-1.55,4.85.15,2.89,2.17,6.05,4.95,7.05.76.27,1.64-.31,1.85-1.05.23-.83-.28-1.57-1.05-1.85-.25-.09.06.04-.09-.04-.11-.06-.22-.12-.32-.19-.25-.16-.2-.13-.4-.31-.38-.36-.7-.72-.97-1.12-.6-.91-.99-1.87-.97-2.82,0-.29,0-.15.08-.46.1-.35.22-.69.35-1.03.24-.63.55-1.23.88-1.82.67-1.21,1.46-2.34,2.45-3.31,1.38-1.36-.75-3.48-2.12-2.12h0Z"/>
      </g>
      <g class="cls-2">
        <path d="M157.06,184.86c.45,2.29.5,4.44-.25,6.54-.15.42-.22.58-.48,1.09-.22.42-.47.83-.73,1.22-.54.8-1.07,1.43-1.81,2.24-.55.6-.59,1.53,0,2.12.55.55,1.57.6,2.12,0,1.59-1.75,3-3.63,3.8-5.88.92-2.62.77-5.45.25-8.14-.16-.8-1.11-1.25-1.85-1.05-.83.23-1.2,1.05-1.05,1.85h0Z"/>
      </g>
      <g class="cls-2">
        <path d="M90.39,191.51c.77,1.87,1.74,3.61,3.14,5.1,1.94,2.05,4.52,3.37,7.21,4.14.75.22,1.67-.26,1.85-1.05s-.24-1.61-1.05-1.85c-.36-.1-.71-.21-1.06-.33-.19-.07-.38-.14-.57-.21-.04-.02-.42-.17-.18-.07-.58-.25-1.15-.54-1.7-.86-.25-.15-.5-.31-.74-.47-.13-.09-.26-.19-.39-.28-.28-.2.17.15-.07-.05-.41-.35-.81-.7-1.18-1.09-.17-.18-.33-.36-.48-.54-.08-.09-.15-.18-.22-.27.27.32.02.02-.03-.05-.26-.35-.5-.72-.72-1.1-.2-.35-.39-.7-.57-1.07-.08-.17-.16-.34-.24-.51-.04-.08-.07-.17-.11-.25-.11-.24.16.38,0,.01-.3-.72-1.01-1.32-1.85-1.05-.7.23-1.37,1.07-1.05,1.85h0Z"/>
      </g>
      <g class="cls-2">
        <path d="M136.88,194.1c-.36-.11-.71-.23-1.06-.37-.08-.03-.43-.19-.07-.03-.09-.04-.18-.08-.26-.12-.28-.14-.55-.29-.83-.43-1.16-.54-2.42-.68-3.68-.83-1.54-.2-3.3-.02-4.81.38-1.28.33-2.51.85-3.77,1.22-1.85.54-1.06,3.44.8,2.89,1.23-.36,2.43-.85,3.66-1.19.23-.06.46-.12.69-.16.13-.02.26-.05.39-.07-.3.04.23-.02.29-.03.92-.09,1.83-.16,2.74-.04.56.07,1.12.15,1.66.29.19.05.37.11.56.17.29.08-.18-.11-.09-.04.06.04.15.07.21.1.89.47,1.81.85,2.77,1.16,1.84.59,2.63-2.31.8-2.89h0Z"/>
      </g>
    </g>
  </g>
</svg>