<?xml version="1.0" encoding="UTF-8"?>
<svg id="Layer_42" data-name="Layer 42" xmlns="http://www.w3.org/2000/svg" viewBox="0 0 256 256">
  <defs>
    <style>
      .cls-1 {
        fill: #5e3223;
      }

      .cls-2 {
        opacity: .3;
      }

      .cls-3 {
        fill: #ceccbc;
      }

      .cls-4 {
        fill: #435054;
      }
    </style>
  </defs>
  <g class="cls-2">
    <path class="cls-4" d="M146.19,179.26c-6.8-2.44-13.57-2.55-20.65-1.34s-13.98,4.58-20.67,2.3c-3.66-1.25-5.24,4.55-1.6,5.79,6.21,2.11,11.3.4,17.54-1.01,8.15-1.83,15.74-2.84,23.77.05,3.64,1.31,5.21-4.49,1.6-5.79h0Z"/>
  </g>
  <g class="cls-2">
    <path class="cls-4" d="M104.03,164.41c-1.61,1.96-3.82,3.48-4.66,5.97-.97,2.88.2,5.29.41,8.14.29,3.83,6.29,3.86,6,0-.13-1.77-1.29-4.28-.8-5.99.43-1.48,2.34-2.7,3.29-3.87,2.43-2.96-1.79-7.23-4.24-4.24h0Z"/>
  </g>
  <g class="cls-2">
    <path class="cls-4" d="M136.66,186.88c-6.25-1.3-12.46-.33-17.93,3-3.29,2.01-.28,7.2,3.03,5.18,4.07-2.48,8.63-3.37,13.31-2.4,3.77.78,5.38-5,1.6-5.79h0Z"/>
  </g>
  <g>
    <path class="cls-1" d="M146.78,178.69c-3.98-4.68-16.14-6.85-24.08-7.09-3.75-.12-8-1.21-11.09,0-3.12,1.21-6.96,6.95-6.93,8.66.03,1.54,5.4,1.24,6.93,1.39s4.61-1.58,6.06-2.08c6.8-2.35,20.44-2.25,27.89-.69"/>
    <path d="M147.84,177.63c-1.89-2.15-4.63-3.41-7.27-4.38-3.26-1.2-6.69-1.93-10.12-2.43s-7.01-.57-10.52-.93-7.58-.97-10.67,1.35c-2.3,1.73-4.32,4.26-5.5,6.9-.45,1.01-.88,2.21-.25,3.24s1.97,1.32,3.08,1.48c2.38.34,5.26.62,7.55-.2,1.42-.51,2.75-1.25,4.18-1.73,1.34-.45,2.74-.74,4.14-.98,3.85-.64,7.8-.77,11.7-.7,3.68.07,7.39.32,11.01,1.06,1.88.39,2.69-2.5.8-2.89-6.01-1.23-12.33-1.42-18.44-1.03-2.91.19-5.86.51-8.69,1.25-1.23.32-2.38.79-3.55,1.3s-2.41,1.2-3.67,1.19c-.97,0-1.96-.06-2.93-.1-.32-.01-2.76-.4-2.75-.4-.12.13.29.55.25.59.08-.08.12-.42.16-.53.19-.5.46-.97.73-1.42.71-1.2,1.56-2.32,2.53-3.33.83-.87,1.77-1.73,2.94-2.08,1.74-.52,3.65-.34,5.44-.17,3.26.31,6.53.41,9.79.78,3.52.39,7.03,1.06,10.41,2.13,2.7.85,5.62,1.98,7.54,4.15,1.28,1.45,3.39-.68,2.12-2.12h0Z"/>
  </g>
  <path d="M137.65,185.38c-3.68-1.12-7.69-.73-11.37.17-2.61.63-5.6,1.5-7.8,3.1-.65.48-.98,1.3-.54,2.05.38.64,1.39,1.02,2.05.54,1.95-1.43,4.53-2.16,6.84-2.74,3.25-.81,6.77-1.21,10.02-.23,1.85.56,2.64-2.33.8-2.89h0Z"/>
  <path d="M103.3,163.11c-1.56,2.1-3.21,4.19-4.07,6.7-.78,2.27-.3,4.24.22,6.48.45,1.91.83,3.84,1.46,5.69.57,1.66,1.31,3.43,2.84,4.41,1.63,1.04,3.14-1.55,1.51-2.59-.86-.55-1.38-2.28-1.7-3.36-.49-1.63-.83-3.3-1.22-4.95-.17-.71-.43-1.43-.55-2.15-.16-.98.05-1.97.39-2.89.79-2.15,2.36-4,3.71-5.82.49-.66.1-1.67-.54-2.05-.76-.45-1.57-.11-2.05.54h0Z"/>
  <g>
    <path class="cls-3" d="M113.78,172.36c-.22,4.25-.49,4.37,3.03,4.5,1.46.06,2.66-.04,2.94-1.47s-.21-1.58-.69-2.96"/>
    <path d="M112.65,172.36c-.05,1.01-.19,2.06-.09,3.07.08.86.4,1.7,1.23,2.09s1.86.41,2.79.45c1.39.06,2.91,0,3.8-1.23.47-.65.64-1.62.55-2.41-.05-.46-.19-.84-.38-1.26-.07-.16-.15-.32-.23-.48-.02-.04-.13-.3-.03-.06-.05-.13-.1-.26-.15-.4-.2-.55-.78-.98-1.38-.79-.54.18-1,.79-.79,1.38.14.38.29.75.46,1.11.05.11.11.23.16.34s.01.18-.02-.05c0,.06.05.13.07.18.02.06.03.13.05.19.05.18-.02-.07,0-.09-.04.06.01.35,0,.43,0,.06-.04.26,0,.03-.01.09-.03.17-.05.26-.01.07-.03.13-.05.19-.08.26-.04,0,0,0,0,0-.09.16-.1.18-.08.16.03-.06.06-.07-.03.01-.1.11-.13.13-.14.15.18-.1.06-.04-.05.02-.35.19-.17.1s-.01,0-.05,0c-.06.02-.13.04-.19.05-.05.01-.16.01-.2.04.1-.07.23-.02.09-.01s-.27.02-.41.03c-.28,0-.56,0-.84-.01-.44-.02-.89-.03-1.33-.08-.06,0-.39-.05-.15-.01s-.04,0-.09-.02c-.13-.03-.26-.06-.39-.1-.22-.06.28.16.07.03-.04-.03-.09-.06-.13-.08.05.02.25.22.1.06-.16-.17.16.28.05.07-.02-.04-.04-.09-.07-.13.05.08.1.3.05.09-.01-.06-.03-.11-.04-.17,0-.03,0-.06-.02-.09-.04-.17.03.34.02.12-.06-1.02.04-2.05.09-3.07.03-.59-.54-1.15-1.12-1.12-.64.03-1.09.49-1.12,1.12h0Z"/>
  </g>
  <g>
    <path class="cls-3" d="M109.1,174.62c-.22,4.25.61,3.72,1.99,3.64,1.45-.09,2.05-.39,2.34-1.82s.22-2.18-.26-3.55"/>
    <path d="M107.98,174.62c-.09,1.69-.29,4.6,2.02,4.82.53.05,1.13-.04,1.66-.11.63-.08,1.23-.21,1.74-.61s.8-.91.99-1.5c.49-1.54.38-3.12-.14-4.63-.19-.55-.78-.98-1.38-.79-.55.18-.99.79-.79,1.38.1.29.19.58.27.87.03.13.06.26.09.39v.08c.03.13.03.1,0-.07,0,0,.02.22.02.22.02.26.01.52-.01.77,0,.06-.01.11-.02.17-.03.29.04-.25,0,.05-.03.17-.06.34-.09.51-.02.12-.05.23-.08.35-.02.05-.03.1-.05.15-.01.04-.09.23,0,.03s-.05.09-.08.14c-.02.03-.06.07-.07.11.07-.21.16-.18.05-.08-.03.03-.07.07-.1.1-.08.09-.06-.06.11-.09-.05,0-.16.09-.21.12-.16.1.24-.08.1-.04-.04.01-.08.03-.13.04-.11.03-.22.06-.34.08-.04,0-.09,0-.12.02.31-.09.14-.02.04,0-.12.01-.24.02-.36.03-.11,0-.22.02-.34.03-.19.02-.39.04-.58.04-.04,0-.08,0-.13,0-.12,0,.37.08.16.02-.03,0-.08-.03-.11-.03-.09,0,.21.07.21.09,0,0-.07-.04-.08-.04-.16-.1.26.22.12.09-.04-.04-.14-.17,0,.02s.03.04,0-.01c-.13-.24.06.2.03.08-.05-.16-.09-.31-.12-.47,0-.03,0-.06-.02-.1-.04-.18.04.33,0,.04-.01-.1-.02-.2-.02-.3-.04-.65-.02-1.31.01-1.96.03-.59-.54-1.15-1.12-1.12-.63.03-1.09.49-1.12,1.12h0Z"/>
  </g>
  <g>
    <path class="cls-3" d="M126.28,172.71c.2,1.85-.03,3.02-1.85,3.44-6.12,1.41-4.42-2.04-5.37-3.64"/>
    <path d="M125.15,172.71c.03.29.06.58.06.87,0,.13,0,.26,0,.39,0,.07-.01.14-.02.2.01-.17.02-.14,0,0-.02.1-.05.19-.08.28-.06.23.1-.15.02-.04-.03.04-.06.11-.08.15-.01.02-.06.11-.08.12.05-.02.16-.16.05-.06-.04.04-.09.08-.13.13-.16.17.07-.02,0,0-.1.03-.22.13-.31.18.22-.11-.05.02-.15.05-.36.11-.74.18-1.11.25-.07.01-.14.03-.22.04.01,0-.33.05-.16.03s-.15.02-.14.02c-.06,0-.12.01-.19.02-.26.02-.52.03-.78.02-.11,0-.21-.02-.32-.02-.19-.01.09,0,.1.02-.02-.02-.12-.02-.15-.03-.08-.02-.17-.04-.25-.06-.03-.01-.07-.02-.1-.03-.24-.07.09.02.08.04,0,0-.17-.09-.19-.1-.23-.14.01-.07.03.03,0-.03-.12-.11-.14-.13-.02-.02-.04-.05-.07-.08-.12-.11.15.25.08.1-.04-.09-.11-.25-.18-.32.08.09.1.27.04.08-.02-.07-.04-.13-.06-.2-.07-.26-.1-.53-.15-.8,0-.02.04.33.02.17,0-.04-.01-.09-.02-.13-.02-.16-.04-.31-.06-.47s-.05-.31-.08-.46c-.08-.35-.2-.7-.38-1.01-.31-.52-1.02-.71-1.54-.4s-.71,1.01-.4,1.54c.03.06.06.11.09.17.05.09-.1-.3-.03-.05.04.14.08.29.11.43.03.14.05.28.07.42.04.26-.04-.31,0-.04.02.16.04.31.06.47.11.75.31,1.46.8,2.05.62.76,1.62,1.02,2.56,1.07.68.03,1.38-.06,2.05-.18.74-.13,1.51-.27,2.15-.67,1.43-.88,1.61-2.51,1.45-4.04-.06-.58-.47-1.15-1.12-1.12-.56.02-1.19.5-1.12,1.12h0Z"/>
  </g>
</svg>