<?xml version="1.0" encoding="UTF-8"?>
<svg id="Layer_48" data-name="Layer 48" xmlns="http://www.w3.org/2000/svg" viewBox="0 0 256 256">
  <defs>
    <style>
      .cls-1 {
        fill: #5e3223;
      }

      .cls-2 {
        opacity: .3;
      }

      .cls-3 {
        fill: #435054;
      }
    </style>
  </defs>
  <g class="cls-2">
    <path class="cls-3" d="M141.42,183.59c-3.63-1.01-7.29-2.27-10.99-3.03-5.69-1.17-11.38,1.33-16.82,2.64-3.75.91-2.16,6.69,1.6,5.79,4.56-1.1,9.57-3.44,14.3-2.48,3.47.7,6.92,1.92,10.33,2.87,3.73,1.04,5.32-4.75,1.6-5.79h0Z"/>
  </g>
  <g class="cls-2">
    <path class="cls-3" d="M147.66,179.8c.46.3.49,1.72.55,2.24.03.25,0,.57.07.81.17.61.21-.2.21-.5s.22-.22-.16.1c-.25.21-.49.46-.73.68-2.82,2.65,1.42,6.88,4.24,4.24,1.83-1.71,2.63-3.23,2.31-5.79-.35-2.85-.91-5.32-3.46-6.98-3.25-2.11-6.26,3.08-3.03,5.18h0Z"/>
  </g>
  <g class="cls-2">
    <path class="cls-3" d="M105.41,178.57c-1.69,1.72-2.62,4.28-2.1,6.68.21.98.65,2.02,1.37,2.74.6.6,1.34.89,2.05,1.3,3.33,1.96,6.36-3.22,3.03-5.18-.32-.19-.67-.43-1.03-.54-.67-.21.36.49.49.57l-.11-.2c.1.21.11.22.04.01-.07-.45-.06.33,0-.15.03-.24-.07.05.08-.36s.12-.35.4-.64c2.71-2.75-1.53-7-4.24-4.24h0Z"/>
  </g>
  <g>
    <path class="cls-1" d="M109.33,183.44c3.28-2.66,8.28-6.55,13.22-7.19,1.66-.22,4.39-.5,6.1-.51,1.31,0,4.02-.78,5.32-.67,4.95.42,10.7,5.57,14.35,7.54l-6.07,1c-2,.13-4.3-1.39-6.51-2.22-1.04-.39-3.6-1.4-7.54-1.11-7.14.53-9.48,2.51-14.8,2.73l-4.07.43Z"/>
    <path d="M110.4,184.5c2.89-2.35,5.99-4.75,9.53-6.04,3.27-1.2,6.71-.87,10.09-1.37,1.48-.22,3.01-.72,4.52-.44,1.62.3,3.13,1.03,4.56,1.83,2.93,1.64,5.54,3.8,8.48,5.42l.36-2.74-5.34.88c-2.39.39-5.02-1.65-7.35-2.42-3.46-1.15-7.08-.98-10.63-.41-2.95.47-5.76,1.52-8.7,2.04-2.15.38-4.4.46-6.57.69-1.9.2-1.92,3.2,0,3,1.81-.19,3.62-.34,5.43-.53,3.03-.32,5.88-1.34,8.84-1.98,3.49-.75,7.17-1.1,10.63,0,2.81.9,5.55,3.06,8.63,2.58,1.96-.3,3.91-.64,5.87-.97,1.3-.21,1.42-2.16.36-2.74-3.16-1.74-5.94-4.09-9.14-5.77-1.65-.87-3.4-1.62-5.26-1.88-1.75-.25-3.43.25-5.15.5-3.71.54-7.41.2-10.97,1.63-3.82,1.53-7.11,4.02-10.29,6.59-1.5,1.22.63,3.33,2.12,2.12Z"/>
  </g>
  <path d="M149.61,175.92c-.38-.27-.01,0,.07.07.08.08.16.16.24.25.12.13.23.26.34.39,0,0,.28.36.12.14.42.54.8,1.12,1.16,1.71.16.25.31.51.45.77.06.12.12.25.19.37.14.24-.1-.31-.03-.07.09.33,0-.5,0,0,0,.23.02.45.03.68.02.59.04,1.19.04,1.78,0,.2-.04.43,0,.63.03.16.1-.34.03-.22-.03.06-.07.18-.08.24.07-.35.09-.18,0-.03-.07.13-.14.27-.22.39-.17.29-.36.57-.56.83-.42.55-1.21,1.33-1.84,1.89s-.55,1.58,0,2.12c.61.61,1.51.54,2.12,0,1.36-1.19,2.75-2.67,3.38-4.41.37-1.01.16-2.3.12-3.35-.02-.48-.01-.97-.16-1.43-.2-.61-.55-1.19-.88-1.73-.81-1.32-1.73-2.72-3-3.64-.66-.47-1.67-.12-2.05.54-.44.75-.12,1.58.54,2.05h0Z"/>
  <path d="M106.75,176.17c-2.62.92-3.74,4.28-3.93,6.79-.1,1.29.02,2.86.75,3.97.67,1.02,1.83,1.54,2.82,2.18.68.44,1.66.14,2.05-.54.43-.73.14-1.61-.54-2.05-.44-.28-.88-.55-1.33-.82-.09-.06-.18-.11-.27-.17-.05-.03-.26-.22-.08-.05s-.01-.02-.05-.06c-.26-.23.04.04,0,.04-.09,0-.26-.58-.11-.14-.07-.21-.13-.41-.18-.63-.03-.13-.06-.26-.07-.39.03.21-.02-.27-.02-.26-.02-.3-.02-.61,0-.91,0-.14.02-.27.03-.41-.02.23.04-.25.04-.24.05-.26.11-.52.18-.78.08-.27.17-.54.27-.81.05-.15-.06.11.05-.12.06-.13.12-.26.19-.39.1-.2.22-.4.34-.59.07-.11.14-.21.22-.31-.21.28.03-.03.07-.07.12-.13.26-.25.39-.37-.29.26-.08.05.01.02.26-.11-.32.11-.05.01.76-.27,1.27-1.02,1.05-1.85-.2-.74-1.08-1.32-1.85-1.05h0Z"/>
</svg>