<?xml version="1.0" encoding="UTF-8"?>
<svg id="Layer_5" data-name="Layer 5" xmlns="http://www.w3.org/2000/svg" viewBox="0 0 256 256">
  <defs>
    <style>
      .cls-1 {
        opacity: .3;
      }

      .cls-2 {
        fill: #435054;
      }
    </style>
  </defs>
  <g class="cls-1">
    <path class="cls-2" d="M133.22,120.3c.36,2.18,1.32,4.28,2.05,6.35.91,2.59.64,4.65.5,7.42-.23,4.36-1.27,11.78,2.36,14.99,2.88,2.55,7.14-1.68,4.24-4.24-1.03-.91-.6-5-.62-6.77-.04-3.11.63-6.38.29-9.46-.37-3.43-2.47-6.48-3.03-9.89-.64-3.8-6.42-2.19-5.79,1.6h0Z"/>
    <path class="cls-2" d="M142.83,157.37c1.37.35-1.13-.57-1.26-.59-1.22-.2-2.49-.12-3.68.23-2.99.87-4.29,3.26-6.67,4.98-4.37,3.15-6.51-.93-10.14-2.64-2.84-1.34-6.09-.28-8.41-2.7-2.68-2.79-6.92,1.46-4.24,4.24,2.45,2.54,4.78,2.91,8.07,3.49,3.55.63,5.56,3.91,9.2,4.64,3.01.61,6.45-.22,8.9-2.01,1.22-.89,2.17-2.07,3.25-3.12,2.13-2.08.98-1.34,3.4-.73,3.75.94,5.34-4.84,1.6-5.79h0Z"/>
  </g>
  <path d="M133.13,119.16c.5,2.5.91,4.89,1.23,7.3.16,1.17.34,2.33.56,3.49.09.49.18.98.28,1.47.06.29.11.58.17.87.1.55.12.63.06.22.01.33-.01.66-.04.99-.19,2.54-.59,5.06-.7,7.61-.12,2.73.36,5.89,2.55,7.73,1.47,1.23,3.6-.88,2.12-2.12-2.02-1.7-1.77-4.58-1.58-6.94s.65-4.62.65-6.92c0-1.34-.44-2.7-.67-4.02-.17-.96-.35-2.05-.46-2.87-.33-2.55-.76-5.07-1.27-7.59-.38-1.89-3.27-1.09-2.89.8h0Z"/>
  <path d="M142.76,156.92c-1.15-.07-2.31-.31-3.47-.25-1.41.07-2.71.53-3.96,1.16-1.56.79-2.37,1.91-3.61,3.07-1.11,1.05-2.68,1.42-4.18,1.29s-3.02-.79-4.23-1.72c-1.13-.87-1.93-1.7-3.28-2.26-.48-.2-.97-.41-1.49-.51-.85-.17-1.71.02-2.57-.12-1.22-.2-4.08-.33-3.88-2.12.21-1.92-2.79-1.9-3,0s1.1,3.48,2.74,4.2c.9.4,1.91.53,2.87.72,1.08.21,2.08.15,3.15.24-.3-.02.45.12.55.16.25.08.5.18.74.29.74.34,1.15.77,1.76,1.3,1.3,1.11,2.82,1.98,4.48,2.45s3.35.52,4.97.11c1.9-.48,3.2-1.58,4.47-3.01,1.02-1.15,2.55-2,4.09-2.22,1.25-.18,2.58.14,3.83.22,1.93.12,1.92-2.88,0-3h0Z"/>
</svg>