<?xml version="1.0" encoding="UTF-8"?>
<svg id="Layer_5" data-name="Layer 5" xmlns="http://www.w3.org/2000/svg" viewBox="0 0 256 256">
  <defs>
    <style>
      .cls-1 {
        fill: none;
      }

      .cls-2 {
        fill: #fff;
      }

      .cls-3 {
        opacity: .3;
      }

      .cls-4 {
        fill: #435054;
      }
    </style>
  </defs>
  <g class="cls-3">
    <path class="cls-4" d="M133.23,118.44c.23,2.01.9,3.76,1.56,5.67.93,2.72.11,5.05-.2,7.84-.48,4.41-1.94,10.79,1.44,14.29,2.68,2.79,6.92-1.46,4.24-4.24-.77-.8-.09-4.15,0-5.49.19-2.97.73-5.88.98-8.83.3-3.54-1.64-5.87-2.02-9.24-.43-3.79-6.43-3.84-6,0h0Z"/>
  </g>
  <g class="cls-3">
    <path class="cls-4" d="M143.52,155.72c-2.66-.07-6.33.48-8.61,1.86-2.47,1.5-3.17,4.91-6.14,5.52-3.99.82-5.18-3.17-7.97-4.88-2.51-1.55-6.06.48-8.13-1.57-2.75-2.72-6.99,1.52-4.24,4.24,1.35,1.34,2.67,2.25,4.56,2.6,1.34.25,3.14-.48,4.32-.14,2.57.76,4.53,4.71,7.82,5.58,2.86.76,6.72.12,9.04-1.7,1.46-1.14,2.1-3.23,3.53-4.29s4.14-1.28,5.81-1.23c3.86.1,3.86-5.9,0-6h0Z"/>
  </g>
  <path d="M133.25,117.58c.29,2.4.84,4.7,1.28,7.06.01.06.06.45.03.15.03.22.04.44.05.66.03.54.02,1.09,0,1.63-.02.85-.07,1.7-.12,2.55-.01.21-.07.77,0,.34-.03.2-.07.39-.1.59-.46,2.49-1.03,4.96-1.34,7.47-.33,2.72,0,5.82,2.03,7.82,1.38,1.36,3.5-.76,2.12-2.12-1.75-1.72-1.36-4.46-1-6.67s.89-4.25,1.21-6.4.44-4.64.03-6.82-.91-4.13-1.17-6.26c-.23-1.89-3.23-1.92-3,0h0Z"/>
  <g>
    <path class="cls-2" d="M111.61,151.46c-1,3.44.16,6.85,1.67,7.11s3.15-.26,4.68-.22c1.62.04,3.37,1.18,3.74,1.87,2.16,4.06,6.79,4.59,10.24,2.43,1.17-.73,2-3.24,2.85-3.75,3.85-2.32,4.13-1.06,7.08-.9,0,0,2.33-3.1,1-6.43"/>
    <path d="M110.16,151.06c-.91,3.44-.49,9.13,4.16,9.07,1.94-.02,4.53-.97,6.05.8.55.64.89,1.43,1.49,2.05s1.33,1.16,2.11,1.54c2.93,1.44,7.48,1.17,9.71-1.46.56-.66.97-1.42,1.42-2.15.49-.81,1.05-1.13,1.94-1.52,1.2-.53,2.04-.27,3.27-.07,1.07.18,2.1.4,2.85-.56.25-.32.45-.7.63-1.07.99-2.05,1.3-4.33.52-6.51-.65-1.8-3.55-1.03-2.89.8s.28,3.73-.85,5.27l1.3-.74c-1.18-.08-2.33-.51-3.52-.48-1.54.03-3.25.8-4.47,1.7s-1.5,2.55-2.6,3.55-2.93,1.27-4.29,1.1c-1.55-.2-2.9-1.1-3.72-2.42-.93-1.48-2.25-2.47-3.98-2.9-1.01-.25-2.01-.19-3.04-.08-.61.07-2.09.48-2.63.16s-.7-1.32-.79-1.85c-.2-1.15-.07-2.3.23-3.41.49-1.87-2.4-2.67-2.89-.8h0Z"/>
  </g>
  <rect class="cls-1" x="0" y="122" width="256" height="48"/>
</svg>