<?xml version="1.0" encoding="UTF-8"?>
<svg id="Layer_15" data-name="Layer 15" xmlns="http://www.w3.org/2000/svg" viewBox="0 0 256 256">
  <defs>
    <style>
      .cls-1 {
        fill: #fff;
      }

      .cls-2 {
        opacity: .3;
      }

      .cls-3 {
        fill: #435054;
      }
    </style>
  </defs>
  <g class="cls-2">
    <path class="cls-3" d="M114.4,169c1.13.63,3.08,1.04,4.02,1.72.88.65,1.52,1.93,2.27,2.81,2.13,2.52,4.58,3.93,7.91,4.02,3.06.08,6.19-.58,8.62-2.51s2.69-4.28,5.96-4.9c3.79-.71,2.19-6.5-1.6-5.79-2.88.54-4.69,1.26-6.38,3.59s-3.14,4.13-6.71,3.58c-3.05-.47-3.67-3.08-5.65-5.02-1.61-1.58-3.49-1.61-5.41-2.69-3.37-1.89-6.4,3.29-3.03,5.18h0Z"/>
    <path class="cls-3" d="M136.06,119.6c-.75,5.9-.85,11.62-.65,17.55.15,4.66-.29,9.17,2.19,13.33,1.97,3.32,7.16.3,5.18-3.03-2.21-3.72-1.41-9.36-1.56-13.57-.17-4.78.24-9.54.84-14.28.49-3.82-5.52-3.78-6,0h0Z"/>
  </g>
  <g>
    <path class="cls-1" d="M141.67,156.97c2.82,3.82.66,8.42-.82,8.38-.64-.02-2.99,1.06-3.63,1.11-1.26.09-2.2,2.86-2.79,4.16s-1.8,2.29-5.32,2.17c-3.15-.1-3.67-.64-4.11-1.04-1.75-1.59-1.81-4.19-2.4-4.59-1.26-.84-3.24-1.49-4.66-1.82-.58-.14-2.67-1.35-2.72-2.27s.68-4.8,1.28-5.85"/>
    <path d="M140.38,157.73c1.06,1.52,1.54,3.4.85,5.18-.11.28-.3.52-.42.79-.02.03-.26.3-.07.16.17-.13-.38.04-.59.08-.37.08-.73.21-1.09.34-1.21.43-2.8.65-3.73,1.58-1.17,1.17-1.5,2.77-2.27,4.17-.61,1.1-1.89,1.23-3.08,1.26-.92.02-1.88,0-2.79-.17-.22-.04-.59-.13-.72-.17,0,0-.51-.31-.19-.07-1.17-.87-1.41-2.33-1.9-3.6-.68-1.77-2.74-2.39-4.41-2.93-.8-.26-1.61-.38-2.33-.82-.35-.21-.65-.45-.94-.74-.1-.1-.03-.27.03.16-.02-.14,0-.31.03-.45.29-1.47.34-3.16,1.05-4.52.89-1.71-1.7-3.23-2.59-1.51-.82,1.59-1.12,3.5-1.36,5.25-.11.79-.22,1.55.12,2.3.4.88,1.24,1.52,2.03,2.03.71.46,1.43.7,2.24.92.64.17,1.27.37,1.89.61.25.1.5.21.75.33-.02,0,.92.55.61.21.39.43.5,1.48.72,2.03.42,1.02.98,1.98,1.81,2.73,1.12,1.02,2.58,1.24,4.05,1.36,2.06.17,4.48.17,6.22-1.11,1.41-1.03,1.75-2.68,2.52-4.15.42-.81.49-.98,1.14-1.14.88-.22,1.71-.61,2.57-.89.59-.19,1.42-.23,2.11-.83.72-.64,1.19-1.52,1.5-2.42.88-2.52.35-5.34-1.15-7.5-1.1-1.57-3.7-.08-2.59,1.51h0Z"/>
  </g>
  <path d="M135.61,116.71c-.75,3.09-.68,6.52-.88,9.68-.12,1.87-.23,3.75-.34,5.62-.04.62-.07,1.23-.12,1.85-.01.2-.04.39-.05.59-.01.38.04-.24.15-.4l2.05-.54h0c.23.3.46.59.69.89.17.54.03.24.03-.06-.02-1.93-3.01-1.93-3,0,.02,3.46-.29,6.92-.23,10.38.04,2.34.28,4.85,1.93,6.66,1.3,1.43,3.42-.7,2.12-2.12s-1.07-3.86-1.06-5.57c.03-3.12.26-6.23.23-9.35h-3c0,.72.11,1.3.77,1.76.71.49,1.61.08,2.05-.54.48-.67.33-2.16.38-2.94.12-1.83.22-3.67.33-5.5.12-1.99.25-3.98.41-5.96.07-.82.13-1.64.23-2.45.07-.6.02-.54.19-1.2.46-1.88-2.43-2.68-2.89-.8h0Z"/>
</svg>