<?xml version="1.0" encoding="UTF-8"?>
<svg xmlns="http://www.w3.org/2000/svg" viewBox="0 0 256 256">
  <defs>
    <style>
      .cls-1 {
        isolation: isolate;
      }

      .cls-2 {
        mix-blend-mode: multiply;
      }

      .cls-3 {
        opacity: .3;
      }

      .cls-4 {
        fill: #435054;
      }
    </style>
  </defs>
  <g class="cls-1">
    <g id="Layer_8" data-name="Layer 8">
      <g class="cls-2">
        <path d="M138.45,162.61l.26.16-.69-.9.03.12.39-1.46c-2.67,2.25-6.32,5.3-10.06,5.15-3.23-.13-5.67-2.89-7.82-4.98-.88-.85-1.87-.87-3.04-.98-1.46-.13-2.93-.21-4.4-.24-.55-.01-1.11-.03-1.66,0-.25.02-.5.03-.75.08-.23.04,0-.03.06.03-.12-.13.06.1-.24-.12.18.13-.25-.23-.29-.27-.32-.36-.59-.79-.81-1.27-1.09-2.29-1.13-5.49,1.73-6.33,1.85-.54,1.06-3.44-.8-2.89-3.6,1.06-5.06,4.35-4.46,7.89.39,2.3,1.99,6.05,4.83,5.98.13,0,1-.11.48-.07.25-.02.5-.02.74-.03.76-.01,1.53.02,2.29.05,1.38.06,3.13.16,4.25.32.05,0,.14.02.2.04-.08-.03-.33-.33,0,.2.25.41.77.77,1.11,1.1.81.77,1.65,1.5,2.55,2.17,1.41,1.05,3.02,1.9,4.77,2.2,5.08.85,9.79-2.83,13.42-5.89.4-.34.51-.97.39-1.46-.15-.58-.49-.88-.98-1.17-1.66-.99-3.17,1.6-1.51,2.59h0Z"/>
      </g>
      <g class="cls-2">
        <path d="M139.09,162.79c1.4-.04,2.81-.04,4.21.05.43.03.86.06,1.29.11.06,0,.13.02.19.02.33.04-.36-.06-.05,0,.14.03.29.04.44.07.42.07.87.21,1.29.22,1.08,0,2.21-.79,2.81-1.62.74-1.01,1.22-2.27,1.57-3.46.48-1.66.68-3.52.2-5.21-.69-2.42-2.73-3.92-5.11-4.49-.79-.19-1.63.25-1.85,1.05s.26,1.66,1.05,1.85c.25.06.5.12.74.2.14.04.27.09.4.15-.06-.02-.23-.12.02.01.19.1.38.19.56.31.07.04.13.09.2.13.14.1.13.09-.02-.02.06.05.12.1.18.15.12.12.24.24.35.35.06.06.22.27,0-.01.04.06.09.11.12.17.09.15.18.3.27.45.04.07.17.4.02.02.04.1.07.19.11.29.05.16.1.33.14.5.03.12.09.67.05.21.03.35.05.69.04,1.04,0,.18-.02.35-.03.52,0,.09-.06.45,0,.02-.01.07-.02.14-.03.21-.07.37-.14.74-.24,1.11-.08.29-.17.57-.27.85-.05.15-.11.29-.16.44-.03.08-.07.17-.1.25.07-.16.11-.26.01-.04-.2.43-.41.84-.66,1.24-.09.14-.29.32.07-.07-.16.17-.17.2-.42.33-.02,0-.28.16-.33.13.07.05.55-.05.27-.06.06,0,.51.09.24.03-.05-.01-.11-.02-.17-.03-.2-.04-.39-.08-.59-.11-2.25-.38-4.53-.41-6.81-.35-1.93.05-1.93,3.05,0,3h0Z"/>
      </g>
      <g class="cls-3">
        <path class="cls-4" d="M147.8,158.38c-.82,5.82-5.56,3.44-9.86,4.15-3.81.63-6.59,4.42-10.32,4.56-4.64.18-6.62-4.11-10.32-5.89-3.13-1.51-7.8,1.4-7.89-3.32-.07-3.86-6.07-3.87-6,0,.09,4.75,2.85,9.7,8.23,9.14,1.38-.15,2.09-.7,3.4-.19s2.56,2.37,3.69,3.19c2.29,1.65,4.91,2.96,7.77,3.18,2.6.2,4.9-.54,7.13-1.83,1.92-1.11,3.38-2.66,5.7-3.02,1.4-.21,2.92.23,4.32.24,5.45.02,9.16-3.21,9.93-8.62.53-3.78-5.25-5.41-5.79-1.6h0Z"/>
        <path class="cls-4" d="M134.72,152.73c2.45,1.22,2.79,3.88,2.06,6.35-.78,2.65-3.72,2.97-5.94,4.12-3.43,1.78-.4,6.96,3.03,5.18,2.03-1.05,4.41-1.59,6.14-3.16s2.52-3.9,2.89-6.11c.76-4.58-.82-9.41-5.15-11.56-3.45-1.72-6.49,3.46-3.03,5.18h0Z"/>
        <path class="cls-4" d="M133.24,124.13c.11,2.9.85,5.54,1.9,8.24.85,2.2,2.12,4.49,2.26,6.89.22,3.84,6.22,3.86,6,0-.3-5.34-3.95-9.78-4.16-15.13-.15-3.85-6.15-3.87-6,0h0Z"/>
      </g>
    </g>
  </g>
</svg>