<?xml version="1.0" encoding="UTF-8"?>
<svg id="Layer_15" data-name="Layer 15" xmlns="http://www.w3.org/2000/svg" viewBox="0 0 256 256">
  <defs>
    <style>
      .cls-1 {
        fill: #fff;
      }

      .cls-2 {
        opacity: .3;
      }

      .cls-3 {
        fill: #435054;
      }
    </style>
  </defs>
  <g class="cls-2">
    <path class="cls-3" d="M114.39,168.61c1.13.63,3.08,1.03,4.02,1.71.88.64,1.52,1.91,2.27,2.79,2.13,2.51,4.59,3.9,7.91,3.99,3.05.08,6.18-.58,8.62-2.49s2.76-4.4,5.87-5.33c3.69-1.09,2.12-6.89-1.6-5.79-2.65.79-4.68,1.85-6.29,4.04-1.77,2.41-3.16,4.08-6.71,3.54-3.05-.46-3.66-3.03-5.64-4.97-1.61-1.58-3.49-1.6-5.41-2.67-3.38-1.88-6.41,3.3-3.03,5.18h0Z"/>
    <path class="cls-3" d="M135.24,118.87c.26,5.52-.18,11.04.07,16.56.23,5.06-.44,10.28,2.27,14.8,1.98,3.31,7.17.29,5.18-3.03-2.3-3.84-1.49-10.2-1.58-14.62s.28-9.14.06-13.71c-.18-3.84-6.18-3.87-6,0h0Z"/>
  </g>
  <g>
    <path class="cls-1" d="M140.49,156.94c2.82,3.66,1.81,8.56.34,8.53-.64-.02-1.49.41-2.13.46-1.26.09-3.69,2.87-4.28,4.12s-1.81,2.2-5.32,2.09c-3.15-.09-3.32-.65-3.76-1.04-1.75-1.52-3.41-3.94-4-4.32-1.26-.81-1.97-1.45-3.39-1.77-.58-.13-2.66-1.29-2.72-2.17s.69-4.61,1.28-5.61"/>
    <path d="M139.19,157.7c1.05,1.43,1.69,3.1,1.57,4.89-.02.27-.43,1.31-.36,1.49-.02-.06-.03.19,0,.02.01-.05.42-.11.42-.13-.04-.14-1.57.29-1.65.32-1.53.42-2.55.85-3.71,1.99-1.04,1.01-1.72,2.16-2.52,3.34-.61.91-1.94,1.01-2.99,1.03-.85.02-1.75.02-2.58-.14-.09-.02-.67-.16-.56-.13-.32-.1-.09-.02-.17-.09-1.23-.99-2.23-2.29-3.25-3.49s-2.33-2.15-3.77-2.78c-.72-.32-1.45-.44-2.13-.86-.3-.19-.55-.4-.81-.63-.16-.14.01.1.03.19-.02-.14,0-.32.03-.45.24-1.39.37-3.02,1.05-4.27.92-1.7-1.67-3.22-2.59-1.51-.8,1.48-1.11,3.28-1.35,4.93-.1.65-.24,1.37-.05,2.02.28.95,1.15,1.64,1.94,2.17.62.42,1.28.71,1.99.93.94.29,2.21,1.05,2.76,1.53,1.45,1.26,2.46,2.99,3.93,4.27,1.1.96,2.37,1.18,3.81,1.28,1.92.14,4.18.12,5.85-.97,1.22-.79,1.66-2.12,2.55-3.2.52-.63,1.14-1.39,1.86-1.81.68-.39,1.62-.51,2.4-.65,1.92-.35,2.62-1.99,2.82-3.8.28-2.46-.48-5-1.93-6.98-1.13-1.54-3.73-.05-2.59,1.51h0Z"/>
  </g>
  <path d="M134.58,116.31c-.31,1.28-.3,2.68-.35,3.99-.07,2.04-.1,4.09-.11,6.13-.02,2.78-.12,5.59.03,8.37.1,1.95,2.84,1.91,3,0,.01-.15,0-.31,0-.45-.02-1.93-3.01-1.93-3,0,.02,3.46-.29,6.92-.23,10.38.04,2.34.28,4.85,1.93,6.66,1.3,1.43,3.42-.7,2.12-2.12s-1.07-3.86-1.06-5.57c.03-3.12.26-6.23.23-9.35h-3c0,.15.02.31,0,.45h3c-.14-2.69-.04-5.42-.03-8.12.01-1.99.03-3.97.1-5.96.03-.81.06-1.62.12-2.43.02-.28.04-.56.07-.83.04-.37-.04.27,0-.03.02-.11.04-.21.06-.32.45-1.88-2.44-2.68-2.89-.8h0Z"/>
</svg>