<?xml version="1.0" encoding="UTF-8"?>
<svg id="Layer_15" data-name="Layer 15" xmlns="http://www.w3.org/2000/svg" viewBox="0 0 256 256">
  <defs>
    <style>
      .cls-1 {
        fill: #fff;
      }

      .cls-2 {
        opacity: .3;
      }

      .cls-3 {
        fill: #435054;
      }
    </style>
  </defs>
  <g class="cls-2">
    <path class="cls-3" d="M114.4,169c1.13.63,3.08,1.04,4.02,1.72.88.65,1.52,1.93,2.27,2.81,2.13,2.52,4.58,3.93,7.91,4.02,3.06.08,6.19-.58,8.62-2.51s2.76-4.44,5.87-5.37c3.69-1.1,2.12-6.89-1.6-5.79-2.65.79-4.68,1.86-6.29,4.06-1.77,2.43-3.14,4.13-6.71,3.58-3.05-.47-3.67-3.08-5.65-5.02-1.61-1.58-3.49-1.61-5.41-2.69-3.37-1.89-6.4,3.29-3.03,5.18h0Z"/>
    <path class="cls-3" d="M135.24,118.87c.26,5.56-.17,11.13.08,16.7.23,5.1-.44,10.35,2.27,14.91,1.97,3.32,7.16.3,5.18-3.03-2.31-3.89-1.49-10.29-1.58-14.75s.27-9.22.05-13.83c-.18-3.84-6.18-3.87-6,0h0Z"/>
  </g>
  <g>
    <path class="cls-1" d="M140.49,156.97c2.82,3.82,1.83,8.93.35,8.89-.64-.02-1.49.43-2.13.47-1.26.09-3.69,2.99-4.28,4.29s-1.8,2.29-5.32,2.17c-3.15-.1-3.32-.69-3.77-1.09-1.75-1.59-3.42-4.11-4.01-4.51-1.26-.84-1.97-1.52-3.39-1.85-.58-.14-2.67-1.35-2.72-2.27s.68-4.8,1.28-5.85"/>
    <path d="M139.19,157.73c1.04,1.48,1.64,3.16,1.59,4.99-.02.54-.12,1.03-.27,1.55-.06.2-.1.44-.07.2.01-.08.98-.16.06-.08-.26.02-.51.07-.76.13-1.68.41-2.91.86-4.16,2.1-1.06,1.06-1.79,2.25-2.58,3.5-.64,1.02-1.87,1.15-3.03,1.18-.89.02-1.83.01-2.7-.18-.08-.02-.6-.17-.44-.11-.38-.14-.03.01-.2-.13-1.21-1.03-2.19-2.35-3.19-3.58s-2.32-2.25-3.79-2.92c-.78-.36-1.55-.49-2.26-.99-.27-.19-.58-.39-.75-.68.21.37.08.04.12-.3.14-1.4.38-3.15,1.04-4.41.89-1.71-1.7-3.23-2.59-1.51-.79,1.53-1.09,3.37-1.33,5.05-.1.69-.25,1.45-.06,2.14.26.92,1.07,1.6,1.82,2.14,1.53,1.1,3.44,1.34,4.87,2.65s2.45,3.1,3.92,4.44c1.1,1.01,2.38,1.24,3.84,1.36,1.93.15,4.18.12,5.85-.99,1.32-.88,1.77-2.39,2.74-3.57.51-.61,1.14-1.43,1.87-1.78.78-.38,1.79-.4,2.64-.61,1.72-.43,2.24-2.49,2.38-4.01.24-2.48-.53-5.05-1.96-7.07-1.1-1.57-3.71-.07-2.59,1.51h0Z"/>
  </g>
  <path d="M134.58,116.31c-.31,1.28-.3,2.68-.35,3.99-.07,2.04-.1,4.09-.11,6.13-.02,2.78-.12,5.59.03,8.37.1,1.95,2.84,1.91,3,0,.01-.15,0-.31,0-.45-.02-1.93-3.01-1.93-3,0,.02,3.46-.29,6.92-.23,10.38.04,2.34.28,4.85,1.93,6.66,1.3,1.43,3.42-.7,2.12-2.12s-1.07-3.86-1.06-5.57c.03-3.12.26-6.23.23-9.35h-3c0,.15.02.31,0,.45h3c-.14-2.69-.04-5.42-.03-8.12.01-1.99.03-3.97.1-5.96.03-.81.06-1.62.12-2.43.02-.28.04-.56.07-.83.04-.37-.04.27,0-.03.02-.11.04-.21.06-.32.45-1.88-2.44-2.68-2.89-.8h0Z"/>
</svg>