<?xml version="1.0" encoding="UTF-8"?>
<svg id="Layer_26" data-name="Layer 26" xmlns="http://www.w3.org/2000/svg" viewBox="0 0 256 256">
  <defs>
    <style>
      .cls-1 {
        fill: #fff;
      }

      .cls-2 {
        opacity: .3;
      }

      .cls-3 {
        fill: #435054;
      }
    </style>
  </defs>
  <g class="cls-2">
    <path class="cls-3" d="M112.59,166.3c2.16,2.25,5.47,1.15,7.33,2.62.94.74,1.37,2.04,2.52,2.77,1.48.94,3.51,1.67,5.21,2.04,3.06.67,6.74.09,9.5-1.39,1.78-.96,2.77-2.85,4.5-3.8s3.41-.76,4.9-2.27c2.36-2.4,3.42-6.52,3.21-9.79-.29-4.56-4.05-6.1-5.53-10.06-1.78-4.76.24-10.03.77-14.85.51-4.56.02-8.75-2.52-12.65-2.1-3.22-7.29-.22-5.18,3.03,4.28,6.58-.13,14.13.26,21.26.15,2.78.88,5.54,2.31,7.93,1.93,3.24,5.56,5.48,3.05,9.7-1.28,2.15-4.68,2.41-6.68,4.18-2.43,2.15-4.56,3.65-8.04,2.63-2.86-.84-2.92-2.96-4.97-4.49-1.67-1.24-5.33,0-6.41-1.13-2.67-2.8-6.91,1.45-4.24,4.24h0Z"/>
  </g>
  <g>
    <path class="cls-1" d="M140.01,151.43c4.88.33,4.51,8.94,3.21,10.64-.74.97-4.7,1.44-5.34,1.5-1.26.12-1.37,2.2-2.58,2.88-1.7.95-5.78,1.74-8.16.85-1.05-.39-3.3-.38-4.36-2.57-.33-.67-.9-.55-1.5-.91-1.28-.78-1.55-.29-2.98-.57-.58-.12-3.74.31-3.59-3.01.11-2.32-.44-6.97,4.84-7.97"/>
    <path d="M140.01,152.93c2.79.27,2.78,5.07,2.4,7.02-.1.5-.15,1.05-.42,1.28.29-.25-.37.09-.4.1-.43.16-.89.26-1.33.36-1.69.37-3.54.18-4.63,1.77-.42.62-.63,1.41-1.29,1.8-.9.53-2.2.72-3.21.85-1.86.22-3.88-.11-5.63-.81-1.06-.43-1.24-1.4-2.05-2.08s-2.31-1.26-3.35-1.35c-.98-.09-2.71.12-3.46-.38-.86-.58-.43-3.17-.3-4.09.31-2.13,1.53-3.23,3.61-3.67,1.89-.4,1.09-3.29-.8-2.89-2.5.52-4.5,1.99-5.37,4.43-.61,1.7-.7,3.84-.56,5.64.19,2.4,2.01,3.62,4.25,3.8.14.01,1.01.05.43,0,.63.06,1.32.06,1.94.15.42.06,1.28.4,1.62.67.44.34.79,1.16,1.29,1.6.92.78,2.03,1.13,3.18,1.42,1.26.32,2.44.66,3.76.66,2.28,0,5.68-.39,7.27-2.23.38-.44.73-.99.96-1.53.04-.09.16-.34.25-.43-.14.14-.29.09.05.02,1.12-.22,2.25-.29,3.36-.58,2.01-.52,3.21-1.46,3.66-3.51.93-4.2-.06-10.49-5.25-11-1.92-.19-1.91,2.81,0,3h0Z"/>
  </g>
  <path d="M135.09,118.08c-.44,2.29.94,4.18,1.79,6.2,1.22,2.89.96,5.85.46,8.87s-1.21,5.87-1.58,8.85c-.26,2.06-.41,4.5,1.11,6.13,1.32,1.42,3.43-.71,2.12-2.12-.92-.99-.29-3.76-.07-5.06.47-2.84,1.14-5.64,1.54-8.48s.55-5.59-.42-8.31c-.4-1.11-.92-2.16-1.43-3.22-.28-.58-.75-1.4-.63-2.06.36-1.89-2.53-2.69-2.89-.8h0Z"/>
</svg>