<?xml version="1.0" encoding="UTF-8"?>
<svg id="Layer_50" data-name="Layer 50" xmlns="http://www.w3.org/2000/svg" viewBox="0 0 256 256">
  <defs>
    <style>
      .cls-1 {
        fill: #fff;
      }

      .cls-2 {
        opacity: .3;
      }

      .cls-3 {
        fill: #435054;
      }
    </style>
  </defs>
  <g class="cls-2">
    <path class="cls-3" d="M111.06,162.74c.27,3.09,1.27,5.46,4.22,6.81,1.51.69,3.13.76,4.71,1.2,1.89.53,3.09,1.72,4.64,2.82,6.9,4.92,11.87-2.05,17.97-4.68,2.46-1.06,5.69-1.67,7.19-4.15,1.76-2.91.43-6.81-.78-9.62-1.77-4.13-3.57-7.74-4.44-12.21s-1.23-9.25-1.28-13.91c-.04-3.86-6.04-3.87-6,0,.06,6.11.61,12.39,2.1,18.32.59,2.34,1.39,4.59,2.44,6.77,1.11,2.31,3.9,6,1.95,7.92-1.29,1.27-4.34,1.53-5.95,2.45-2.21,1.26-4.1,3.44-6.56,4.31-3.18,1.12-4.71-1.83-7.5-3.08-1.68-.75-6.52-.69-6.72-2.95-.34-3.82-6.34-3.85-6,0h0Z"/>
  </g>
  <g>
    <path class="cls-1" d="M139.88,150.98c2,2.01,3.75,5.56,3.91,7.49s-.43,4.06-3.42,5.05c-2.11.7-5.68,4.29-6.96,4.98-1.8.97-4.18.45-6.82-.02-3.98-.72-2.2-3.92-9.21-4.99-1-.15-2.22-.84-1.93-4.03.21-2.37,0-3,2.97-6.99"/>
    <path d="M138.82,152.04c1.76,1.83,5.16,6.66,2.71,9.13-.65.65-1.53.84-2.34,1.22s-1.51.88-2.21,1.41c-1.33,1-2.54,2.18-3.9,3.12-1.7,1.18-4.23.49-6.1.1-1.14-.24-1.62-.62-2.36-1.46-.82-.94-1.7-1.78-2.83-2.34-.77-.38-1.58-.67-2.41-.88-.6-.15-1.82-.21-2.12-.47-.73-.65-.33-2.97-.2-3.83.28-1.83,1.58-3.39,2.65-4.83,1.15-1.55-1.45-3.05-2.59-1.51-1.19,1.61-2.52,3.35-2.92,5.37-.33,1.7-.56,3.8.03,5.44.76,2.12,2.45,2.25,4.35,2.73,1.6.4,2.73,1.09,3.81,2.32.93,1.06,1.92,1.88,3.31,2.26,2.41.65,5.58,1.22,7.95.21,1.74-.74,3.14-2.32,4.62-3.47.75-.58,1.55-1.18,2.42-1.57,1.08-.48,2.08-.83,2.94-1.69,3.85-3.84.32-10.23-2.71-13.38-1.34-1.39-3.46.73-2.12,2.12h0Z"/>
  </g>
  <g>
    <path class="cls-1" d="M137.69,124.5c-.14,7.03.75,14.56.86,20.06"/>
    <path d="M136.19,124.5c-.11,6.7.72,13.36.86,20.06.04,1.93,3.04,1.93,3,0-.14-6.69-.97-13.35-.86-20.06.03-1.93-2.97-1.93-3,0h0Z"/>
  </g>
</svg>