<?xml version="1.0" encoding="UTF-8"?>
<svg id="Layer_51" data-name="Layer 51" xmlns="http://www.w3.org/2000/svg" viewBox="0 0 256 256">
  <defs>
    <style>
      .cls-1 {
        fill: #fff;
      }

      .cls-2 {
        opacity: .3;
      }

      .cls-3 {
        fill: #435054;
      }
    </style>
  </defs>
  <g class="cls-2">
    <path class="cls-3" d="M108.39,161.74c.13,3.35.83,6,4.12,7.35,1.82.74,3.35.96,4.96,2.17,1.19.9,2.17,2,3.52,2.69,3.55,1.83,7.19.39,10.93.55,1.68.07,3.66.29,5.2-.58,1.74-.99,1.8-2.71,2.94-4.11,1.93-2.36,5.78-2.72,7.91-5.21,3.17-3.71,1.07-8.57-.71-12.35-2.43-5.19-2.69-10.5-2.29-16.13.33-4.68,1.05-9.79-.67-14.29-1.36-3.57-7.16-2.02-5.79,1.6,2.5,6.56-.33,14.41.49,21.28.42,3.46,1.2,6.67,2.68,9.83,1.05,2.24,2.96,4.69.98,6.68-.93.94-2.71,1.4-3.88,2-.95.49-1.87.82-2.65,1.61-.88.88-1.08,2.84-1.94,3.51-1.06.83-5.14.14-6.82.29-4.05.36-4.5-1.15-7.63-3.2-2.15-1.41-5.27-.9-5.37-3.67-.15-3.85-6.15-3.87-6,0h0Z"/>
  </g>
  <g>
    <path class="cls-1" d="M139.94,148.77c2.09,2.01,6.19,2.27,5.47,10.25-.18,1.93-2.86,3.33-5.98,4.32-2.21.7-2.11,5.54-6.28,6.54-2.09.5-5.14-.72-5.14-.72,0,0-4.95.69-6.65-.94-1.99-1.91-.97-5.21-6.49-4.73-1.05.09-2.94-.78-3.17-3.97-.54-7.48,2.63-5.93,6.07-9.75"/>
    <path d="M138.88,149.83c1.11,1.03,2.55,1.63,3.59,2.67.62.62,1.01,1.39,1.24,2.23.33,1.21.53,2.91.22,4.14s-1.91,1.87-2.94,2.32c-1.17.51-2.51.69-3.44,1.62-1.44,1.43-1.74,3.73-3.38,4.99-1.98,1.51-4.26.15-6.36-.1-.6-.07.47-.03-.02,0-.14,0-.27.03-.41.04-.47.04-.93.07-1.4.07-1,.02-2.15.02-3.09-.37-1.47-.62-1.71-2.95-2.81-4.04-.79-.78-1.82-1.18-2.89-1.34-.71-.1-1.4-.1-2.11-.07-.47.02-.47.1-.83-.14-1.15-.76-1.1-2.55-1.11-3.76,0-1.12.02-2.45.77-3.37.47-.57,1.23-.97,1.87-1.39,1.11-.72,2.15-1.52,3.06-2.5,1.31-1.42-.81-3.54-2.12-2.12-1.48,1.6-3.65,2.39-5.05,4.04-1.86,2.2-1.98,6.17-1.1,8.79.42,1.27,1.22,2.42,2.43,3.03s2.47.21,3.79.43c1.96.33,2.11,2.75,3.31,4.06,1.76,1.91,4.91,1.89,7.3,1.68.22-.02.84-.01,1.01-.12-.22.14-.97-.21-.59.07.2.15.65.22.89.29,1.55.45,3.26.73,4.85.36,2.9-.68,4.17-3.06,5.5-5.44.69-1.25,1.19-1.18,2.55-1.73,1.54-.62,3.17-1.38,4.26-2.67,1.25-1.49,1.24-3.51,1.09-5.37-.12-1.53-.46-3.09-1.3-4.41-1.17-1.85-3.25-2.7-4.65-4s-3.54.8-2.12,2.12h0Z"/>
  </g>
  <g>
    <path class="cls-1" d="M137.8,120.78c1.45,5.32,2.24,16.46,1.27,22.11"/>
    <path d="M136.35,121.18c.91,3.42,1.27,7.01,1.49,10.53s.36,7.25-.22,10.78c-.31,1.89,2.58,2.7,2.89.8.63-3.81.56-7.74.33-11.58s-.61-7.66-1.59-11.33c-.5-1.86-3.39-1.07-2.89.8h0Z"/>
  </g>
</svg>